<!--?xml version="1.0" encoding="utf-8"?-->
<!-- Generator: Adobe Illustrator 22.0.1, SVG Export Plug-In . SVG Version: 6.00 Build 0)  -->
<svg version="1.1" id="Layer_1" xmlns="http://www.w3.org/2000/svg" xmlns:xlink="http://www.w3.org/1999/xlink" x="0px" y="0px" viewBox="0 0 491.4 538.3" style="" xml:space="preserve">
<style type="text/css">
	.st0{opacity:0.97;}
	.st1{fill:none;stroke:#ECAF46;stroke-width:26;stroke-miterlimit:10;}
	.st2{fill:none;stroke:#F2D39D;stroke-width:17.4873;stroke-miterlimit:10;}
	.st3{opacity:0.6;}
	.st4{fill:#F7C26D;}
	.st5{fill:#8B8A89;}
	.st6{fill:#8B8B8A;}
	.st7{fill:#87481F;}
	.st8{fill:#90552D;}
	.st9{fill:#945A31;}
	.st10{fill:#E3E3E3;}
	.st11{fill:#B69077;}
	.st12{fill:none;stroke:#3F2A1D;stroke-width:3;stroke-miterlimit:10;}
	.st13{fill:none;stroke:#DBC325;stroke-width:3;stroke-miterlimit:10;}
	.st14{fill:none;stroke:#3D2717;stroke-width:3;stroke-miterlimit:10;}
</style>
<title>about</title>
<g id="XMLID_47_" class="st0">
	<path class="st1 OFRkgcBA_0" d="M36,306.2c0-108.5,88-196.5,196.5-196.5S429,197.7,429,306.2l0,0c0,108.5-88,196.5-196.5,196.5
		S36,414.7,36,306.2L36,306.2"></path>
</g>
<g id="XMLID_44_">
	<path class="st2 OFRkgcBA_1" d="M54,306.2c0-98.6,79.9-178.5,178.5-178.5S411,207.6,411,306.2s-79.9,178.5-178.5,178.5S54,404.8,54,306.2"></path>
</g>
<g id="XMLID_38_" class="st3">
	
		<image style="overflow:visible;opacity:0.75;enable-background:new    ;" width="277" height="277" xlink:href="E77763FE.png" transform="matrix(0.9964 0 0 0.9964 297.4265 276.6965)">
	</image>
	<g>
		<g>
			<path class="st4 OFRkgcBA_2" d="M421.7,316.3c-32.3,0-58.5,26.2-58.5,58.5s26.2,58.5,58.5,58.5s58.5-26.2,58.5-58.5S454,316.3,421.7,316.3z"></path>
		</g>
	</g>
</g>
<g id="XMLID_20_" class="st3">
	
		<image style="overflow:visible;opacity:0.75;enable-background:new    ;" width="108" height="108" xlink:href="E77763F9.png" transform="matrix(0.9907 0 0 0.9907 391.7675 238.0375)">
	</image>
	<g>
		<g>
			<path class="st4 OFRkgcBA_3" d="M439.8,253.2c-12.4,0-22.5,10.1-22.5,22.5c0,12.4,10.1,22.5,22.5,22.5s22.5-10.1,22.5-22.5
				C462.3,263.3,452.2,253.2,439.8,253.2z"></path>
		</g>
	</g>
</g>
<g id="XMLID_11_" class="st3">
	
		<image style="overflow:visible;opacity:0.75;enable-background:new    ;" width="359" height="359" xlink:href="E77763FB.png" transform="matrix(0.9972 0 0 0.9972 -74.1189 4.1511)">
	</image>
	<g>
		<g>
			<path class="st4 OFRkgcBA_4" d="M88,56c-42,0-76,34-76,76s34,76,76,76s76-34,76-76S129.9,56,88,56z"></path>
		</g>
	</g>
</g>
<g class="dice">
	<path class="st5 OFRkgcBA_5" d="M271.4,83c-4.2-1.5-8.3-3.1-11.7-6c-5.7-4.7-5.1-10.8,1.3-14.4c0.1-0.1,0.2-0.2,0.2-0.3c1.3,0,2.5,0,3.8,0
		c4.9,1.9,8.7,5.3,12.2,9.1c0.5,0.6,1.1,1.1,1.3,1.9c-1.2,3.3-3.6,5.8-5.4,8.7C272.8,82.5,272.4,83.3,271.4,83z"></path>
	<path class="st6 OFRkgcBA_6" d="M198.5,62.2c0.8,0.5,1.7,0.9,2.5,1.5c4,3.3,4.3,8.2,0.7,11.9c-3.6,3.7-8.2,5.5-12.9,7.2
		c-0.7,0.3-1.2-0.1-1.6-0.6c-1.9-2.8-3.9-5.5-5.7-8.4c-0.1-0.2-0.2-0.5-0.1-0.8c3.7-4.8,8-8.8,13.8-10.9
		C196.3,62.2,197.4,62.2,198.5,62.2z"></path>
	<path class="st7 OFRkgcBA_7" d="M231,124.2c4.2,0,8.4-0.1,12.6-0.1c22.2,0,44.4,0,66.5,0c0.6-0.5,1.4-0.6,2.2-0.6c3.9,0,7.8,0,11.7,0
		c0.8,0,1.5,0.1,2.2,0.6c10.7,0,21.5,0,32.2,0c1.6,0,2,0.4,2,2c-0.1,6.8-0.1,13.6,0,20.4c0,0.9-0.2,1.7-0.7,2.5
		c-6.6,10.2-13.2,20.3-19.8,30.5c-0.3,0.5-0.6,1.4-1.2,1.3c-1.9-0.2-1.7,1.2-1.8,2.3c-1.5,25.3-3.1,50.6-4.6,75.9
		c-1.1,17.5-2.1,35-3.1,52.5c-1.3,22-2.7,44-4,66c-0.9,15.1-1.8,30.3-2.7,45.4c-0.7,12.2-1.5,24.4-2.2,36.6c-0.1,1,0,1.7,0.7,2.5
		c1.6,2,3.1,4.1,4.7,6.2c0.8,1,1.5,2.1,3.2,1.9c1.4-0.2,1,1.4,0.8,1.6c-1.3,0.9,0,1.5,0.1,2.2c-1,0.9-2.3,0.6-3.4,0.6
		c-31.2,0-62.4,0-93.7,0c-32.1,0-64.3,0-96.4,0c-1.2,0-2.6,0.3-3.6-0.6c0-0.6,0.3-1.1,0-1.7c-0.3-0.9-0.2-1.8,1.2-1.6
		c0.9,0.1,1.1-0.7,1.5-1.2c2-2.8,4-5.6,6-8.5c1.3,0,1.3,1.1,1.4,1.9c0.2,1.2,0.1,2.4,0.1,3.6c0.1,1.4,0.7,2.2,2.2,2.2
		c0.7,0,1.4,0,2.1,0c26.5,0,52.9,0,79.4,0c3.8,0,3.8,0,3.8-3.8c0-47.3,0-94.6,0-141.9c0-1.3,0-2.5-0.2-3.8c-0.2-1-0.2-1.9,0-2.9
		c0.6-2,0.2-4,0.2-6.1c0-23.2,0-46.4,0-69.6c0-1.5,0-2.9-0.1-4.4c0.2-2.2,0.1-4.5,0.2-6.7c-0.1-0.8-0.1-1.7-0.1-2.5
		c0-22.9,0-45.8,0-68.6c0-0.8,0-1.5,0-2.3c0.1-1.7-0.7-2.4-2.4-2.3c-0.8,0.1-1.5,0-2.3,0c-32.4,0-64.9,0-97.3,0c-0.7,0-1.4,0-2.1,0
		c-2.7,0-2.9,0.3-2.6,2.9c0.7,7.3,1.4,14.5,2.1,21.8c0.2,2.4-0.2,2.8-2.7,2.5c-2.9-3.8-5.3-7.9-7.9-11.9
		c-4.2-6.4-8.3-12.8-12.5-19.2c-0.4-0.6-0.9-1.1-1-1.8c0.5-0.4,1-0.4,1.6-0.4c41.2,0.2,82.4,0,123.6,0.1c3.3,0,3.4,0,3.4-3.4
		c0-5.6,0-11.2,0-16.8C230.3,126.2,230.2,125.1,231,124.2z"></path>
	<path class="st8 OFRkgcBA_8" d="M233,470c-27.9-0.1-60.6-0.7-88.5-0.6c-2.1,0-2.7-0.9-2.7-2.7c0-1.3,0-2.5,0-3.8c0-0.8,0-1.6-0.8-2
		c0.5-0.8,0.5-1.7,0.4-2.6c-0.8-13.1-1.6-26.2-2.4-39.3c-0.6-10.2-1.2-20.4-1.8-30.7c-0.9-15.3-1.9-30.7-2.8-46
		c-0.8-12.7-1.5-25.5-2.3-38.2c-0.9-15.3-1.9-30.5-2.8-45.8c-0.8-12.7-1.5-25.5-2.2-38.2c-0.7-12.3-1.5-24.6-2.2-37
		c0.1-1.6-0.5-2.3-1.9-2.4c2.1,0.2,2.4-0.7,2-2.6c-0.6-3.4-0.7-6.9-1.1-10.4c-0.4-3.8-0.7-7.6-1.2-11.4c-0.4-3-0.2-3.4,2.8-3.4
		c34.2,0,68.5,0,102.7,0c2.1,0,2.7,0.5,2.7,2.6C230.8,180.2,234.9,470,233,470z"></path>
	<path class="st8 OFRkgcBA_9" d="M231,124.2c0,7.2-0.1,14.5,0,21.7c0,1.7-0.4,2.3-2.2,2.3c-41.3-0.1-82.7,0-124-0.1c-1,0-2.1-0.3-3.1-0.4
		c0-7.4,0-14.9-0.1-22.3c0-1.5,0.8-1.3,1.7-1.3c10,0,19.9,0,29.9,0c0.3,0,0.6,0,0.8,0c0.6-0.5,1.4-0.6,2.1-0.6c3.8,0,7.6,0,11.4,0
		c0.8,0,1.5,0.2,2.2,0.6c15.1,0,30.3,0,45.4,0.1C207.1,124.2,219.1,124.2,231,124.2z"></path>
	<path class="st7 OFRkgcBA_10" d="M329.9,474.4c0,5.8,0,11.6,0.1,17.5c0,1.1-0.2,1.5-1.4,1.5c-32.5-0.1-65.1-0.1-97.6-0.1
		c-0.7-0.7-0.7-1.5-0.7-2.3c0-4.7,0-9.5,0-14.2c0-0.8,0-1.7,0.6-2.4c0.7-0.3,1.5-0.1,2.3-0.1c31.5,0,63,0,94.4,0
		C328.4,474.1,329.2,473.9,329.9,474.4z"></path>
	<path class="st9 OFRkgcBA_11" d="M231,474.4c0,6.3,0,12.6,0,18.8c-0.7,0-1.4,0.1-2.1,0.1c-31.4,0-62.7,0-94.1,0c-1.8,0-2.5-0.3-2.4-2.3
		c0.2-5.5,0.1-11.1,0.1-16.6c0.6-0.4,1.4-0.2,2-0.2c31.5,0,63,0,94.5,0C229.6,474.1,230.4,473.9,231,474.4z"></path>
	<path class="st5 OFRkgcBA_12" d="M326.2,124.2c-5.3,0-10.7,0-16,0c0-2.5,0.1-5.1,0-7.6c0-1.4,0.4-1.8,1.8-1.8c3.3,0,3.7-0.5,2.6-3.8s-3-6-6-7.9
		c-8.9-5.7-17.8-11.5-26.7-17.2c-0.2-2.3,1.3-3.8,2.7-5.4c3.7,1.9,7,4.4,10.5,6.6c5.7,3.6,11.5,7.2,17.1,11c5.4,3.6,8.6,8.8,9,15.4
		c0.1,1.4,0.8,1.4,1.8,1.4c3.2,0.1,3.2,0.1,3.2,3.2C326.1,120.1,326.1,122.1,326.2,124.2z"></path>
	<path class="st5 OFRkgcBA_13" d="M149.8,124.1c-5.3,0-10.5,0-15.8,0c0-2.5,0.1-5.1,0-7.6c0-1.4,0.4-2,1.8-1.8c2.3,0.4,3.1-0.5,3.3-2.8
		c0.7-6,3.8-10.6,8.8-13.9c9-5.9,18-11.6,27-17.4c1.7,0.4,3.2,2.8,3.4,5.2c-8.9,5.8-17.9,11.5-26.8,17.3c-3.4,2.2-5.3,5.3-6.3,9.1
		c-0.6,2.3-0.3,2.7,2,2.6c2.1-0.2,2.9,0.4,2.7,2.6C149.6,119.6,149.8,121.9,149.8,124.1z"></path>
	<path class="st10 OFRkgcBA_14" d="M178.3,85.8c-1.1-1.8-1.5-3.9-3.4-5.2c2.2-2.5,4.3-5,6.5-7.5c1.9,2.8,3.9,5.6,5.8,8.3
		c0.4,0.6,0.7,1.4,1.6,1.4C185.3,83.9,181.8,84.9,178.3,85.8z"></path>
	<path class="st10 OFRkgcBA_15" d="M284.5,80.5c-0.9,1.8-1.8,3.6-2.7,5.4c-3.5-1-6.9-1.9-10.4-2.9c1.6-1,2.2-2.8,3.3-4.2
		c1.4-1.8,2.6-3.7,3.9-5.6C281,75.3,282.6,78,284.5,80.5z"></path>
	<path class="st11 OFRkgcBA_16" d="M231,474.4c-6.2,0-12.5-0.1-18.7-0.1c-26.6,0-53.2,0-79.8,0c0-0.2,0-0.3,0-0.5c65.7,0,131.4,0,197.1,0
		c0.2,0.1,0.4,0.2,0.3,0.5c-0.6,0-1.3-0.1-1.9-0.1c-31.7,0-63.4,0-95.1,0C232.3,474.3,231.6,474.4,231,474.4z"></path>
	<path class="st12 OFRkgcBA_17" d="M230.5,318.8c-11.9-0.8-22.1-5.4-30.2-14.1c-6.3-6.8-10.3-14.9-11.5-24.3c-2.1-16,3-29.4,14.9-40.2
		c6.7-6,14.6-9.6,23.8-10.4c1.2-0.1,2.3-0.6,3.5-0.4c-0.2,2.1,0.5,4.2-0.4,6.3c-0.9,1.5-1.2,3.1-1.1,4.8c0.1,2.1-0.6,4.2-0.5,6.3
		c0,0.4-0.1,0.8-0.4,1.2c-1.2,1.8-6.9,2.3-8.4,0.6c-1.7-1.9-3.3-4-4.9-6c-0.8-1-1.5-1.6-2.8-0.7c-1.3,0.8-0.8,1.7-0.3,2.7
		c1.1,2.3,2.1,4.7,3.5,7c0.7,1.1,0.5,2.1-0.4,3c-0.2,0.2,0-0.1-0.1,0.2c-3.8,4.3-4.3,4.4-9.8,2.4c-1.4-0.5-2.9-1.1-4.3-1.6
		c-0.9-0.3-1.6-0.4-2.1,0.6c-0.4,0.9,0,1.4,0.7,1.9c1.9,1.4,3.7,2.8,5.6,4.1c2.2,1.5,2.2,2,1.8,4.6c-0.5,3.6-2.3,5.3-5.9,5.3
		c-1.5,0-3.1,0.1-4.6,0.5c-0.7,0.2-1.5,0.2-1.5,1.2c0,0.9,0.7,1.2,1.4,1.4c2.3,0.6,4.7,1,7,1.5c1.6,0.3,2.3,1.1,2.6,2.6
		c1.2,5.1,1.2,5.1-3.2,8c-1,0.7-2.1,1.4-3.1,2.1c-0.5,0.4-1.3,0.8-0.9,1.6c0.4,0.9,1.3,0.8,2,0.5c1.6-0.4,3.2-0.7,4.6-1.4
		c2.8-1.2,5-0.5,6.8,1.9c0.4,0.6,0.8,1.1,1.3,1.6c1,1.1,1,2.2,0.3,3.5c-1,1.9-1.9,3.8-2.8,5.6c-0.4,0.8-0.8,1.6,0.1,2.3
		c0.9,0.7,1.6,0,2.2-0.6c1.7-1.5,3.5-2.9,5-4.5c0.9-1,1.9-1.3,3.2-0.8c1.7,0.6,3.5,1.1,5.2,1.7c1.3,0.5,1.9,1.3,1.9,2.7
		c0,1.8-0.1,3.6,0.2,5.5c0.2,1.3,0.5,2.5,1.5,3.6c1,1,0.5,2.5,0.4,3.8C230.6,317.1,230.6,318,230.5,318.8z"></path>
	<path class="st13 OFRkgcBA_18" d="M234.1,256.1c-0.7-3.1-0.3-6.2-0.4-9.2c-0.1-3.2-0.1-6.5-0.1-9.7c0-0.6-0.3-1.4,0.4-1.7s1.4,0.1,2,0.5
		c2.1,1.7,2.5,4.2,3.1,6.5c0.5,2.2,0.7,4.5,1.1,7c1.3-1.7,2.6-3.3,3.9-5c0.9-1.3,2.1-2.2,3.3-3.2c1.4-1.1,3-1.3,4.6-0.6
		c1.5,0.7,1.9,2.2,2,3.7c0.2,3.4-1,6.5-2.1,9.6c-0.3,0.9-0.9,1.7-0.7,3c3.3-1.4,6.5-2.9,9.9-3.6c1.9-0.4,3.7-0.5,5.6,0.1
		c1.7,0.6,2.3,1.7,1.8,3.4c-0.7,2.8-2.7,4.6-4.8,6.2c-1.9,1.6-4.1,2.9-6.5,4.7c3.4,0.1,6.3,0.2,9.1,0.9c1.9,0.5,3.8,1.2,5.3,2.4
		c2.9,2.2,2.4,5.9-1.1,7.3c-3,1.2-6.1,1.3-9.3,1.3c-1,0-2.1,0-3.5,0c1.2,1.8,3,2.2,4.2,3.3c4.8,4.3,4.6,4.1,5.3,5.1
		c1.2,1.6,1.6,3.4,0.6,5.1s-2.8,2-4.8,1.8c-4.1-0.5-7.6-2.6-11.8-4.4c1.5,3.2,2.9,5.9,3.7,8.9c0.4,1.3,0.8,2.6,1,3.9
		c0.4,3.6-2.3,5.6-5.6,4.1c-2.8-1.2-4.8-3.4-6.7-5.7c-1.2-1.4-2.2-2.8-3.5-4.5c-0.2,3.8,0.2,7.2-0.5,10.6c-0.3,1.8-0.8,3.6-2.3,4.9
		c-0.9,0.8-1.9,1.2-3.1,0.7c-1.3-0.5-1-1.5-1-2.5c0-6,0-11.9,0-17.9c1.9-0.9,4.1-0.8,6.1-1.4c7-2,11.5-6.6,13.4-13.5
		c1.9-7-1.1-14.3-7.3-18.4c-2.8-1.9-6-2.5-9.3-3.1C235.4,256.6,234.6,256.6,234.1,256.1z"></path>
	<path class="st14 OFRkgcBA_19" d="M233.1,256.1c8,0.3,14.5,3.2,18.1,10.8c4.6,9.7-1,21.7-11.3,25c-2.5,0.8-5,1.5-7.6,1.3
		C233,280.8,232.3,268.4,233.1,256.1z"></path>
</g>
<style data-made-with="vivus-instant">
.OFRkgcBA_0 {
	stroke-dasharray: 1235 1237;
	stroke-dashoffset: 1236;
	animation: OFRkgcBA_draw_0 10200ms ease-in-out 0ms infinite, OFRkgcBA_fade 10200ms linear 0ms infinite;
}

.OFRkgcBA_1 {
	stroke-dasharray: 1122 1124;
	stroke-dashoffset: 1123;
	animation: OFRkgcBA_draw_1 10200ms ease-in-out 0ms infinite, OFRkgcBA_fade 10200ms linear 0ms infinite;
}

.OFRkgcBA_2 {
	stroke-dasharray: 368 370;
	stroke-dashoffset: 369;
	animation: OFRkgcBA_draw_2 10200ms ease-in-out 0ms infinite, OFRkgcBA_fade 10200ms linear 0ms infinite;
}

.OFRkgcBA_3 {
	stroke-dasharray: 142 144;
	stroke-dashoffset: 143;
	animation: OFRkgcBA_draw_3 10200ms ease-in-out 0ms infinite, OFRkgcBA_fade 10200ms linear 0ms infinite;
}

.OFRkgcBA_4 {
	stroke-dasharray: 478 480;
	stroke-dashoffset: 479;
	animation: OFRkgcBA_draw_4 10200ms ease-in-out 0ms infinite, OFRkgcBA_fade 10200ms linear 0ms infinite;
}

.OFRkgcBA_5 {
	stroke-dasharray: 66 68;
	stroke-dashoffset: 67;
	animation: OFRkgcBA_draw_5 10200ms ease-in-out 0ms infinite, OFRkgcBA_fade 10200ms linear 0ms infinite;
}

.OFRkgcBA_6 {
	stroke-dasharray: 66 68;
	stroke-dashoffset: 67;
	animation: OFRkgcBA_draw_6 10200ms ease-in-out 0ms infinite, OFRkgcBA_fade 10200ms linear 0ms infinite;
}

.OFRkgcBA_7 {
	stroke-dasharray: 1442 1444;
	stroke-dashoffset: 1443;
	animation: OFRkgcBA_draw_7 10200ms ease-in-out 0ms infinite, OFRkgcBA_fade 10200ms linear 0ms infinite;
}

.OFRkgcBA_8 {
	stroke-dasharray: 835 837;
	stroke-dashoffset: 836;
	animation: OFRkgcBA_draw_8 10200ms ease-in-out 0ms infinite, OFRkgcBA_fade 10200ms linear 0ms infinite;
}

.OFRkgcBA_9 {
	stroke-dasharray: 306 308;
	stroke-dashoffset: 307;
	animation: OFRkgcBA_draw_9 10200ms ease-in-out 0ms infinite, OFRkgcBA_fade 10200ms linear 0ms infinite;
}

.OFRkgcBA_10 {
	stroke-dasharray: 236 238;
	stroke-dashoffset: 237;
	animation: OFRkgcBA_draw_10 10200ms ease-in-out 0ms infinite, OFRkgcBA_fade 10200ms linear 0ms infinite;
}

.OFRkgcBA_11 {
	stroke-dasharray: 235 237;
	stroke-dashoffset: 236;
	animation: OFRkgcBA_draw_11 10200ms ease-in-out 0ms infinite, OFRkgcBA_fade 10200ms linear 0ms infinite;
}

.OFRkgcBA_12 {
	stroke-dasharray: 147 149;
	stroke-dashoffset: 148;
	animation: OFRkgcBA_draw_12 10200ms ease-in-out 0ms infinite, OFRkgcBA_fade 10200ms linear 0ms infinite;
}

.OFRkgcBA_13 {
	stroke-dasharray: 147 149;
	stroke-dashoffset: 148;
	animation: OFRkgcBA_draw_13 10200ms ease-in-out 0ms infinite, OFRkgcBA_fade 10200ms linear 0ms infinite;
}

.OFRkgcBA_14 {
	stroke-dasharray: 40 42;
	stroke-dashoffset: 41;
	animation: OFRkgcBA_draw_14 10200ms ease-in-out 0ms infinite, OFRkgcBA_fade 10200ms linear 0ms infinite;
}

.OFRkgcBA_15 {
	stroke-dasharray: 39 41;
	stroke-dashoffset: 40;
	animation: OFRkgcBA_draw_15 10200ms ease-in-out 0ms infinite, OFRkgcBA_fade 10200ms linear 0ms infinite;
}

.OFRkgcBA_16 {
	stroke-dasharray: 396 398;
	stroke-dashoffset: 397;
	animation: OFRkgcBA_draw_16 10200ms ease-in-out 0ms infinite, OFRkgcBA_fade 10200ms linear 0ms infinite;
}

.OFRkgcBA_17 {
	stroke-dasharray: 335 337;
	stroke-dashoffset: 336;
	animation: OFRkgcBA_draw_17 10200ms ease-in-out 0ms infinite, OFRkgcBA_fade 10200ms linear 0ms infinite;
}

.OFRkgcBA_18 {
	stroke-dasharray: 318 320;
	stroke-dashoffset: 319;
	animation: OFRkgcBA_draw_18 10200ms ease-in-out 0ms infinite, OFRkgcBA_fade 10200ms linear 0ms infinite;
}

.OFRkgcBA_19 {
	stroke-dasharray: 99 101;
	stroke-dashoffset: 100;
	animation: OFRkgcBA_draw_19 10200ms ease-in-out 0ms infinite, OFRkgcBA_fade 10200ms linear 0ms infinite;
}

@keyframes OFRkgcBA_draw {
	100% {
		stroke-dashoffset: 0;
	}
}

@keyframes OFRkgcBA_fade {
	0% {
		stroke-opacity: 1;
	}
	96.07843137254902% {
		stroke-opacity: 1;
	}
	100% {
		stroke-opacity: 0;
	}
}

@keyframes OFRkgcBA_draw_0 {
	2.941176470588235% {
		stroke-dashoffset: 1236
	}
	19.281045751633986% {
		stroke-dashoffset: 0;
	}
	100% {
		stroke-dashoffset: 0;
	}
}

@keyframes OFRkgcBA_draw_1 {
	3.3711730306157555% {
		stroke-dashoffset: 1123
	}
	19.711042311661505% {
		stroke-dashoffset: 0;
	}
	100% {
		stroke-dashoffset: 0;
	}
}

@keyframes OFRkgcBA_draw_2 {
	3.8011695906432745% {
		stroke-dashoffset: 369
	}
	20.141038871689023% {
		stroke-dashoffset: 0;
	}
	100% {
		stroke-dashoffset: 0;
	}
}

@keyframes OFRkgcBA_draw_3 {
	4.231166150670795% {
		stroke-dashoffset: 143
	}
	20.57103543171655% {
		stroke-dashoffset: 0;
	}
	100% {
		stroke-dashoffset: 0;
	}
}

@keyframes OFRkgcBA_draw_4 {
	4.6611627106983144% {
		stroke-dashoffset: 479
	}
	21.001031991744064% {
		stroke-dashoffset: 0;
	}
	100% {
		stroke-dashoffset: 0;
	}
}

@keyframes OFRkgcBA_draw_5 {
	5.091159270725834% {
		stroke-dashoffset: 67
	}
	21.431028551771583% {
		stroke-dashoffset: 0;
	}
	100% {
		stroke-dashoffset: 0;
	}
}

@keyframes OFRkgcBA_draw_6 {
	5.5211558307533535% {
		stroke-dashoffset: 67
	}
	21.861025111799105% {
		stroke-dashoffset: 0;
	}
	100% {
		stroke-dashoffset: 0;
	}
}

@keyframes OFRkgcBA_draw_7 {
	5.951152390780874% {
		stroke-dashoffset: 1443
	}
	22.291021671826623% {
		stroke-dashoffset: 0;
	}
	100% {
		stroke-dashoffset: 0;
	}
}

@keyframes OFRkgcBA_draw_8 {
	6.381148950808393% {
		stroke-dashoffset: 836
	}
	22.721018231854142% {
		stroke-dashoffset: 0;
	}
	100% {
		stroke-dashoffset: 0;
	}
}

@keyframes OFRkgcBA_draw_9 {
	6.811145510835913% {
		stroke-dashoffset: 307
	}
	23.15101479188166% {
		stroke-dashoffset: 0;
	}
	100% {
		stroke-dashoffset: 0;
	}
}

@keyframes OFRkgcBA_draw_10 {
	7.241142070863432% {
		stroke-dashoffset: 237
	}
	23.581011351909183% {
		stroke-dashoffset: 0;
	}
	100% {
		stroke-dashoffset: 0;
	}
}

@keyframes OFRkgcBA_draw_11 {
	7.671138630890953% {
		stroke-dashoffset: 236
	}
	24.011007911936705% {
		stroke-dashoffset: 0;
	}
	100% {
		stroke-dashoffset: 0;
	}
}

@keyframes OFRkgcBA_draw_12 {
	8.101135190918473% {
		stroke-dashoffset: 148
	}
	24.441004471964224% {
		stroke-dashoffset: 0;
	}
	100% {
		stroke-dashoffset: 0;
	}
}

@keyframes OFRkgcBA_draw_13 {
	8.531131750945994% {
		stroke-dashoffset: 148
	}
	24.871001031991742% {
		stroke-dashoffset: 0;
	}
	100% {
		stroke-dashoffset: 0;
	}
}

@keyframes OFRkgcBA_draw_14 {
	8.961128310973512% {
		stroke-dashoffset: 41
	}
	25.300997592019264% {
		stroke-dashoffset: 0;
	}
	100% {
		stroke-dashoffset: 0;
	}
}

@keyframes OFRkgcBA_draw_15 {
	9.391124871001033% {
		stroke-dashoffset: 40
	}
	25.730994152046783% {
		stroke-dashoffset: 0;
	}
	100% {
		stroke-dashoffset: 0;
	}
}

@keyframes OFRkgcBA_draw_16 {
	9.821121431028553% {
		stroke-dashoffset: 397
	}
	26.1609907120743% {
		stroke-dashoffset: 0;
	}
	100% {
		stroke-dashoffset: 0;
	}
}

@keyframes OFRkgcBA_draw_17 {
	10.251117991056073% {
		stroke-dashoffset: 336
	}
	26.590987272101824% {
		stroke-dashoffset: 0;
	}
	57%{
	fill: #3F2A1D;
	stroke-width: 1;
	}
	100% {
	fill: #3F2A1D;
	stroke-width: 1;
		stroke-dashoffset: 0;
	}
}

@keyframes OFRkgcBA_draw_18 {
	10.68111455108359% {
		stroke-dashoffset: 319
	}
	27.020983832129343% {
		stroke-dashoffset: 0;
	}
	57%{
	fill: #DBC325;
	stroke-width: 1;
	}
	100% {
	fill: #DBC325;
	stroke-width: 1;
		stroke-dashoffset: 0;
	}
	
}

@keyframes OFRkgcBA_draw_19 {
	11.111111111111112% {
		stroke-dashoffset: 100
	}
	27.450980392156865% {
		stroke-dashoffset: 0;
	}
	57%{
	fill: #3D2717;
	stroke-width: 1;
	}
	100% {
	fill: #3D2717;
	stroke-width: 1;
		stroke-dashoffset: 0;
	}
}
</style>
<style>
.dice{
animation: float 8s ease-in-out infinite;
}
svg {
animation: float 4s ease-in-out infinite;
}
@keyframes float {
	0% {
		transform: translatey(0px);
	}
	50% {
		transform: translatey(-20px);
	}
	100% {
		transform: translatey(0px);
	}
}
</style>
</svg>
