<svg id="Layer_1" data-name="Layer 1" xmlns="http://www.w3.org/2000/svg" viewBox="0 0 196.63 262.17"><defs><style>.cls-1{fill:#e2f3f6;}.cls-2{fill:#fdc695;}.cls-3{fill:#3b2c25;}.cls-4{fill:#4d4039;}.cls-5{fill:#f09457;}.cls-6{fill:#f9b07d;}.cls-7{fill:#f09355;}</style></defs><title>dummy</title><path class="cls-1" d="M326.63,537.88c-2.37.15-4.83-.16-6.9,1.34H291.43c-4.36-2.23-9.57-.69-14-2.74-2-2.28-3.79-4.67-3.87-7.81-.33-13.82-.42-27.64.06-41.45a7.27,7.27,0,0,1,1.21-4.19c2.53-2.73,5.72-2,8.71-1.16,12.41,3.63,24.76,3.14,37.12-.14,3.05-.81,6.11-1.79,8.73.95,2.4,4.31,2,9,1.41,13.47-1.38,10.59-.94,21.2-1.14,31.8C329.61,531.51,329.52,535.06,326.63,537.88Z" transform="translate(-202.74 -277.05)"/><path class="cls-2" d="M263.16,467.11c-22.23-9.89-36.1-25.89-40.78-48.6-4.79-2.52-5.19-7-5.43-11.32-.42-7.44-.13-14.9-.13-22.35a10.33,10.33,0,0,1,4.63-9.12l.37-1.28a8.94,8.94,0,0,0,1.61-4.05c2.78-14,12.93-22.06,28.28-22.72,7.73-.33,15.48.44,22.44,3.12,19,7.32,37.55,5.5,56.29-.62,10-3.25,20.27-4.36,30,.45,11.83,5.81,21.65,13.38,22.61,27.22,2.33,2.84,2,6.32,2.45,9.53,1.06,8.47-.53,16.86-1.61,25.25a8.11,8.11,0,0,1-3.5,5.78c-.75,1.93-1.66,3.82-2.23,5.79-5.53,18.93-16.72,33.77-35.56,43.14-2.24,5.9-8.27,5.74-13.27,7.23a105.18,105.18,0,0,1-52.59-.95C271.7,472.39,265.66,473,263.16,467.11Z" transform="translate(-202.74 -277.05)"/><path class="cls-3" d="M381.78,376.93c-7.41-17.15-24.39-32.17-49.55-24.13-7,2.22-14.16,3.86-21.33,5.44-11.58,2.55-22.64.11-33.61-3.34-7.65-2.41-15.48-4.22-23.67-4.18-13.78.07-22.19,5.44-27.11,17.61-1.15,2.85-2,5.8-3.12,9.09l-1.58-3c-2.13-10.36-2.61-20.6.23-31,5.3-19.45,20-31.1,37.55-40.43,12.09-6.44,25.4-10.34,38.33-15,7.72-2.79,15.73-5.12,22.95-8.79,7.75-3.94,13.21-2.1,19.14,3,15.43,13.19,27,28.83,36.32,46.23,8.33,15.48,9.87,31.45,7.11,48.16A1,1,0,0,1,381.78,376.93Z" transform="translate(-202.74 -277.05)"/><path class="cls-4" d="M328.6,471.58c5-.51,9.28-3,14-4.27,4.95,1.2,9.85,2.59,14.86,3.52,3.41.63,4.28,1.87,3.51,5.1-1,4.21-2.58,8.41-2,12.86a21.94,21.94,0,0,1,.33,11.13c-1.6,8-3.54,16-4.82,24.09a12,12,0,0,1-6.45,9c-6.74,3.19-14.28,3.28-21.44,4.83q.31-27.6.61-55.2C323.87,478.57,324.35,474.88,328.6,471.58Z" transform="translate(-202.74 -277.05)"/><path class="cls-4" d="M263.16,467.11l13.46,4.31q5.82,5.62.21,11.42l.62,53.65c-7.71-1.2-15.39-2.53-22.47-5.85a13.41,13.41,0,0,1-6.14-9.82c-1.64-10.24-5.13-20.21-4.77-30.72,2.82-4.56-.15-8.83-1-13.14-.72-3.81.05-5.77,4.47-6.46C252.82,469.67,258,468.26,263.16,467.11Z" transform="translate(-202.74 -277.05)"/><path class="cls-3" d="M348.08,533c4.83-10.92,5.16-22.76,8-34.08.87-3.42.8-7.06,2.9-10.17a145.41,145.41,0,0,1,25.73,29.11A110.82,110.82,0,0,1,348.08,533Z" transform="translate(-202.74 -277.05)"/><path class="cls-3" d="M244.07,490.09c2.48,1.29,2.61,3.62,3.13,5.87,2.65,11.55,3.76,23.4,7.78,34.67-12.27-3.15-23.24-8.76-33.56-15.57C228.28,506.2,235.08,497.28,244.07,490.09Z" transform="translate(-202.74 -277.05)"/><path class="cls-5" d="M221.45,375.72c-2.33,14.31-2.59,28.59.94,42.79-9.19.87-18.94-7.63-19.62-20.64C202.17,386.23,209.73,377.36,221.45,375.72Z" transform="translate(-202.74 -277.05)"/><path class="cls-6" d="M381.78,376.93l1.67-.39c16.53,5.38,21.49,27.25,8.61,38a15.28,15.28,0,0,1-11.65,3.87c.7-7.63,1.15-15.29,2.18-22.88C383.43,389.22,380.7,383.17,381.78,376.93Z" transform="translate(-202.74 -277.05)"/><path class="cls-7" d="M276.83,482.83q-.1-5.71-.21-11.42c12.28,1.31,24.4,4,37,2.62a114.61,114.61,0,0,0,15-2.46c-2,3.53-.23,7.47-1.36,11.1C310.46,488.82,293.66,489.21,276.83,482.83Z" transform="translate(-202.74 -277.05)"/></svg>