<?xml version="1.0" encoding="utf-8"?>
<!-- Generator: Adobe Illustrator 22.0.1, SVG Export Plug-In . SVG Version: 6.00 Build 0)  -->
<svg version="1.1" id="BACKGROUND" xmlns="http://www.w3.org/2000/svg" xmlns:xlink="http://www.w3.org/1999/xlink" x="0px" y="0px"
	 viewBox="0 0 500 500" style="enable-background:new 0 0 500 500;" xml:space="preserve">
<style type="text/css">
	.st0{fill:#BAF4EE;}
	.st1{opacity:0.73;fill:#7FD6CB;}
	.st2{fill:#FFB031;}
	.st3{fill:#FF9433;}
	.st4{fill:#FF7733;}
	.st5{fill:#00C8B7;}
	.st6{fill:#7A4C08;}
	.st7{fill:#FFFFFF;}
	.st8{fill:#E6E8E8;}
	.st9{fill:#82EBE3;}
	.st10{fill:#D9DBDB;}
	.st11{fill:#08B29D;}
</style>
<g>
	<g>
		<g>
			<g>
				<g>
					
						<ellipse transform="matrix(0.7071 -0.7071 0.7071 0.7071 -127.8054 258.6382)" class="st0" cx="248.3" cy="283.6" rx="159.4" ry="159.4"/>
					<path class="st1" d="M378.5,321.9v53.6c-5.9,8.3-12.5,16-19.8,23v-76.6h0v-0.2c-0.1-0.4-9.7-8.4-17.1-14.4v-3.3l8.9-2.3
						c3.7-0.9,7.5-0.6,11,0.9c1.6,0.7,3.2,1.3,4.8,1.8v7c7.4,6.1,12.1,10,12.2,10.4L378.5,321.9L378.5,321.9z"/>
				</g>
				<g>
					<g>
						<polygon class="st2" points="21.5,79.1 68.3,188.9 102.4,165.5 122.2,194.3 125.8,145.7 167.2,120.5 						"/>
						<polygon class="st3" points="110,160.3 68.3,188.9 102.4,165.5 122.2,194.3 125.8,145.7 59.9,106.4 						"/>
						<polygon class="st4" points="124.9,157.6 59.9,106.4 125.8,145.7 						"/>
					</g>
					<g>
						<path class="st5" d="M123.1,207.9c-0.4-2.1-0.8-4.3-1.4-6.3l3.2-0.9c0.6,2.2,1.1,4.4,1.5,6.6L123.1,207.9z"/>
						<path class="st5" d="M84.4,282.5c-4.8-0.3-9.4-1.9-13.3-4.4l1.8-2.8c3.4,2.3,7.5,3.6,11.7,3.9L84.4,282.5z M98.1,279.8l-1.5-3
							c3.5-1.7,6.8-4.3,9.9-7.8l2.5,2.2C105.7,275,102,277.9,98.1,279.8z M61.8,267.4c-1.9-3.8-2.9-8-2.9-12.1c0-0.3,0-0.7,0-1
							l0-0.7l3.3,0.2l0,0.6c0,0.3,0,0.6,0,0.9c0,3.6,0.9,7.3,2.5,10.6L61.8,267.4z M190.2,266.7l0-3.3c4.3,0,8.8-0.2,13.2-0.5
							l0.2,3.3C199.2,266.5,194.6,266.6,190.2,266.7z M176.8,266.2l-2.1-0.2c-4.1-0.3-7.8-0.8-11.3-1.4l0.6-3.3c3.4,0.6,7,1,11,1.4
							l2.1,0.2L176.8,266.2z M217.1,264.7l-0.4-3.3c4.3-0.6,8.7-1.3,13.1-2.2l0.6,3.3C225.8,263.4,221.4,264.1,217.1,264.7z
							 M150.1,261.4c-3.9-1.3-7.6-2.9-10.9-4.8c-0.5-0.3-1-0.6-1.6-0.9l1.7-2.8c0.5,0.3,1,0.6,1.5,0.9c3.1,1.8,6.6,3.3,10.3,4.6
							L150.1,261.4z M117,260l-2.9-1.7c2.2-3.7,4-7.7,5.5-11.8l3.1,1.1C121.2,252,119.3,256.1,117,260z M243.4,259.7l-0.8-3.2
							c4.2-1,8.5-2.2,12.8-3.4l0.9,3.2C252,257.5,247.6,258.7,243.4,259.7z M269.2,252.3l-1-3.2c4.2-1.4,8.4-2.8,12.6-4.3l1.1,3.1
							C277.7,249.5,273.5,250.9,269.2,252.3z M126.6,247.9c-3.1-2.2-6.3-4.6-9.9-6.5l-1.1-0.6l1.5-3c0.4,0.2,0.8,0.4,1.2,0.6
							c3.7,2,7.2,4.5,10.2,6.7L126.6,247.9z M66.9,243l-2.3-2.4c2.9-2.9,6.9-5,12.2-6.6l1.1,3.1C73.1,238.6,69.4,240.5,66.9,243z
							 M103.5,236.5c-3.8-0.8-7.6-1.3-11.5-1.3l-1.3,0l-0.1-3.3c4.6-0.1,9.2,0.3,13.7,1.3L103.5,236.5z M126.2,234.5l-3.3-0.6
							c0.8-4.3,1.2-8.7,1.2-13l3.3,0C127.4,225.5,127,230,126.2,234.5z"/>
						<path class="st5" d="M294.6,243.3l-1.2-3.1c2.1-0.8,4.1-1.6,6.2-2.4l1.2,3.1C298.8,241.7,296.7,242.5,294.6,243.3z"/>
					</g>
					<path class="st5" d="M399.1,324.2c-1.7,0-3.1-1.3-3.3-3c-0.2-1.8,1.2-3.4,3-3.6c20.1-1.9,38.5-11.5,52-27
						c1.2-1.4,3.3-1.5,4.7-0.3c1.4,1.2,1.5,3.3,0.3,4.7c-14.6,16.7-34.6,27.1-56.3,29.2C399.3,324.2,399.2,324.2,399.1,324.2z"/>
					<g>
						<g>
							<path class="st6" d="M358.7,321.9L243,390.1l-115.7-68.2c0-0.1,0-0.1,0-0.2c0.1-0.4,6.5-5.8,16.2-13.7
								c0.1-0.1,0.2-0.2,0.3-0.2c31.9-25.9,99.2-79,99.2-79s67.2,53.1,99.2,79c9.9,8,16.4,13.4,16.5,13.9
								C358.7,321.8,358.7,321.8,358.7,321.9z"/>
							<g>
								<path class="st7" d="M290.6,172.3H165.8c-10.7,0-19.4,8.7-19.4,19.4v188.7c0,10.7,8.7,19.4,19.4,19.4h156.4
									c10.7,0,19.4-8.7,19.4-19.4V223.3L290.6,172.3z"/>
								<path class="st8" d="M290.6,203.9c0,10.7,8.7,19.4,19.4,19.4h31.6l-51-51V203.9z"/>
								<path class="st9" d="M230.1,204.2h-51.5c-1.5,0-2.7,1.2-2.7,2.7v51.5c0,1.5,1.2,2.7,2.7,2.7h51.5c1.5,0,2.7-1.2,2.7-2.7
									v-51.5C232.8,205.4,231.6,204.2,230.1,204.2z"/>
								<path class="st10" d="M284.9,276.9H181.6c-3.1,0-5.6,2.5-5.6,5.6l0,0c0,3.1,2.5,5.6,5.6,5.6h103.3c3.1,0,5.6-2.5,5.6-5.6
									l0,0C290.4,279.3,287.9,276.9,284.9,276.9z"/>
								<path class="st10" d="M284.9,304.6H181.6c-3.1,0-5.6,2.5-5.6,5.6l0,0c0,3.1,2.5,5.6,5.6,5.6h103.3c3.1,0,5.6-2.5,5.6-5.6
									l0,0C290.4,307.1,287.9,304.6,284.9,304.6z"/>
								<path class="st10" d="M237.9,331.4h-56.4c-3.1,0-5.6,2.5-5.6,5.6l0,0c0,3.1,2.5,5.6,5.6,5.6h56.4c3.1,0,5.6-2.5,5.6-5.6l0,0
									C243.5,333.9,241,331.4,237.9,331.4z"/>
							</g>
							<g>
								<path class="st2" d="M358.7,321.9v111c0,7.8-6.3,14.1-14.1,14.1H141.4c-7.8,0-14.1-6.3-14.1-14.1v-111L243,390.1
									L358.7,321.9z"/>
								<path class="st3" d="M354.8,442.5l-74.4-74.4l-37.3,22l-37.3-22l-74.4,74.4c2.6,2.7,6.2,4.4,10.2,4.4h203.2
									C348.6,446.9,352.2,445.2,354.8,442.5z"/>
							</g>
						</g>
					</g>
					<g>
						<g>
							<path class="st5" d="M382,169.6c-33.3,3.3-59.9,30.7-62.3,64.1c-1.2,16.6,3.5,32,12.2,44.5c3.3,4.7,3.8,10.8,1.6,16.1
								l-5.5,13.2l22.4-5.8c3.7-0.9,7.5-0.7,11,0.9c10.4,4.5,22.1,6.6,34.4,5.4c32.7-3.2,59.1-29.6,62.3-62.2
								C462.4,201.8,425.9,165.3,382,169.6z"/>
							<g>
								<path class="st7" d="M390.8,273.8l3.8-3.8c0,0-3-7.1,9.7-19.2c7.6-7.2,9.3-14.1,8.6-19.8c-1-9-8.4-16.4-17.4-17.4
									c-5.7-0.6-12.6,1.1-19.8,8.6c-12.1,12.7-19.2,9.7-19.2,9.7l-3.8,3.8L390.8,273.8z"/>
								<path class="st7" d="M361.3,250.5c-3,4.1-2.7,9.9,1,13.7c3.7,3.7,9.5,4.1,13.7,1L361.3,250.5z"/>
								<path class="st7" d="M415.6,218.2l-2.4,2.4c-1.9-2.9-4.4-5.5-7.3-7.3l2.4-2.4c2-2,5.3-2,7.3,0
									C417.6,212.9,417.6,216.2,415.6,218.2z"/>
							</g>
						</g>
						<path class="st11" d="M387.2,169.3c24.7,7.4,42.8,30.3,42.8,57.5c0,33.2-26.9,60-60,60c-17.5,0-33.1-7.5-44.1-19.4
							c1.7,3.8,3.8,7.4,6.1,10.8c3.3,4.7,3.8,10.8,1.6,16.1l-5.5,13.2l22.4-5.8c3.7-0.9,7.5-0.7,11,0.9c10.4,4.5,22.1,6.6,34.4,5.4
							c32.7-3.2,59.1-29.6,62.3-62.2C462.3,203.5,428.7,168.2,387.2,169.3z"/>
					</g>
					<path class="st2" d="M25.5,111.7l15.2,34.8c0.8,1.8,0,3.8-1.8,4.6l-0.5,0.2c-1.8,0.8-3.9-0.1-4.6-1.9l-14.6-35
						c-0.8-1.8,0.1-3.9,2-4.6l0,0C22.8,109.1,24.7,110,25.5,111.7z"/>
				</g>
			</g>
			<g>
				<path class="st0" d="M84.9,356.6c-6.2,0-11.2,5-11.2,11.2c0,6.2,5,11.2,11.2,11.2s11.2-5,11.2-11.2
					C96,361.6,91,356.6,84.9,356.6z M84.9,372.3c-2.5,0-4.5-2-4.5-4.5c0-2.5,2-4.5,4.5-4.5c2.5,0,4.5,2,4.5,4.5
					C89.4,370.3,87.4,372.3,84.9,372.3z"/>
				<path class="st0" d="M383.7,401.8c-6.2,0-11.2,5-11.2,11.2c0,6.2,5,11.2,11.2,11.2c6.2,0,11.2-5,11.2-11.2
					C394.9,406.8,389.9,401.8,383.7,401.8z M383.7,417.4c-2.5,0-4.5-2-4.5-4.5c0-2.5,2-4.5,4.5-4.5c2.5,0,4.5,2,4.5,4.5
					C388.2,415.4,386.2,417.4,383.7,417.4z"/>
				<path class="st0" d="M475,228.5c-4.7,0-8.5,3.8-8.5,8.5c0,4.7,3.8,8.5,8.5,8.5c4.7,0,8.5-3.8,8.5-8.5
					C483.5,232.4,479.7,228.5,475,228.5z M475,240.5c-1.9,0-3.5-1.5-3.5-3.5c0-1.9,1.5-3.5,3.5-3.5s3.5,1.5,3.5,3.5
					C478.4,239,476.9,240.5,475,240.5z"/>
				<path class="st0" d="M324.6,92c-5,0-9,4-9,9c0,5,4,9,9,9c5,0,9-4,9-9C333.6,96,329.6,92,324.6,92z M324.6,104.6
					c-2,0-3.7-1.6-3.7-3.7c0-2,1.6-3.7,3.7-3.7c2,0,3.7,1.6,3.7,3.7C328.3,103,326.6,104.6,324.6,104.6z"/>
				<path class="st0" d="M35.8,302.3c-5.2,0-9.5,4.3-9.5,9.5c0,5.2,4.3,9.5,9.5,9.5c5.2,0,9.5-4.3,9.5-9.5
					C45.3,306.6,41.1,302.3,35.8,302.3z"/>
				<path class="st0" d="M416.7,333.7c-3.8,0-6.9,3.1-6.9,6.9c0,3.8,3.1,6.9,6.9,6.9c3.8,0,6.9-3.1,6.9-6.9
					C423.6,336.8,420.5,333.7,416.7,333.7z"/>
				<path class="st0" d="M188,94.8c-5.6,0-10.1,4.5-10.1,10.1S182.5,115,188,115c5.6,0,10.1-4.5,10.1-10.1S193.6,94.8,188,94.8z"/>
				<path class="st0" d="M242,460.3c-4.1,0-7.4,3.3-7.4,7.4c0,4.1,3.3,7.4,7.4,7.4c4.1,0,7.4-3.3,7.4-7.4
					C249.4,463.6,246.1,460.3,242,460.3z"/>
				<path class="st0" d="M384.4,133.7c-4.8,0-8.6,3.9-8.6,8.6c0,4.8,3.9,8.6,8.6,8.6c4.8,0,8.6-3.9,8.6-8.6
					C393,137.6,389.1,133.7,384.4,133.7z"/>
				<circle class="st0" cx="78.7" cy="205.7" r="4.9"/>
				<path class="st0" d="M477.9,185.5c-4.6,0-8.4,3.8-8.4,8.4c0,4.6,3.8,8.4,8.4,8.4c4.6,0,8.4-3.8,8.4-8.4
					C486.3,189.3,482.6,185.5,477.9,185.5z"/>
				<circle class="st0" cx="31.1" cy="235.2" r="5.3"/>
				<path class="st0" d="M255.9,76.9l3.4-3.4c1.2-1.2,1.2-3.1,0-4.2c-1.2-1.2-3.1-1.2-4.2,0l-3.4,3.4l-3.4-3.4
					c-1.2-1.2-3.1-1.2-4.2,0c-1.2,1.2-1.2,3.1,0,4.2l3.4,3.4l-3.4,3.4c-1.2,1.2-1.2,3.1,0,4.2c1.2,1.2,3.1,1.2,4.2,0l3.4-3.4
					l3.4,3.4c1.2,1.2,3.1,1.2,4.2,0c1.2-1.2,1.2-3.1,0-4.2L255.9,76.9z"/>
				<path class="st0" d="M27.3,178.4l3.4-3.4c1.2-1.2,1.2-3.1,0-4.2c-1.2-1.2-3.1-1.2-4.2,0l-3.4,3.4l-3.4-3.4
					c-1.2-1.2-3.1-1.2-4.2,0c-1.2,1.2-1.2,3.1,0,4.2l3.4,3.4l-3.4,3.4c-1.2,1.2-1.2,3.1,0,4.2c1.2,1.2,3.1,1.2,4.2,0l3.4-3.4
					l3.4,3.4c1.2,1.2,3.1,1.2,4.2,0c1.2-1.2,1.2-3.1,0-4.2L27.3,178.4z"/>
				<path class="st0" d="M423.4,383.4l2.8-2.8c1-1,1-2.6,0-3.6c-1-1-2.6-1-3.6,0l-2.8,2.8L417,377c-1-1-2.6-1-3.6,0
					c-1,1-1,2.6,0,3.6l2.8,2.8l-2.8,2.8c-1,1-1,2.6,0,3.6c1,1,2.6,1,3.6,0l2.8-2.8l2.8,2.8c1,1,2.6,1,3.6,0c1-1,1-2.6,0-3.6
					L423.4,383.4z"/>
			</g>
		</g>
	</g>
</g>
</svg>
