<svg id="Layer_1" data-name="Layer 1" xmlns="http://www.w3.org/2000/svg" viewBox="0 0 172.72 645.04"><defs><style>.cls-1{fill:#e2e2e2;}.cls-2{fill:#88491f;}.cls-3{fill:#4e4f4f;}.cls-4{fill:#f16d68;}.cls-11,.cls-5{fill:#fff;}.cls-6{fill:#f3f3f3;}.cls-7{fill:#0d8f84;}.cls-13,.cls-14,.cls-8{fill:none;}.cls-8{stroke:#4e4f4f;stroke-width:3.71px;}.cls-11,.cls-13,.cls-8{stroke-miterlimit:10;}.cls-9{fill:#d8df2a;}.cls-10{fill:#676868;}.cls-11,.cls-13,.cls-14{stroke:#676868;}.cls-11,.cls-13{stroke-width:1.16px;}.cls-12{fill:#bfc631;}.cls-14{stroke-linecap:round;stroke-linejoin:round;stroke-width:1.74px;}</style></defs><title>rules_right</title><path class="cls-1" d="M274.53,272.67a9.23,9.23,0,0,1-13,1.24l-.43-.36a9.23,9.23,0,0,1-1.24-13L312.37,197a9.23,9.23,0,0,1,13-1.24l.43.35a9.23,9.23,0,0,1,1.24,13Z" transform="translate(-222.99 -119.1)"/><path class="cls-1" d="M261.11,273.56a9.23,9.23,0,0,1-1.24-13L312.37,197a9.23,9.23,0,0,1,13-1.24l.43.35a9.23,9.23,0,0,1,1.24,13Z" transform="translate(-222.99 -119.1)"/><path class="cls-2" d="M353.12,160.07l-37.65,34.25c-3.77,3.43-5.18,8-1.74,11.8l1.13,1.24a9.23,9.23,0,0,0,13,.61s12-10.05,18.61-10.41a53.68,53.68,0,0,0,35-14.53c13.11-11.92,18-27.85,11-35.56s-22.2-3-35.31,8.88Zm8.61,1.24c.93-.85,1.87-1.63,2.81-2.36,9.65-7.49,19.22-8.65,21.78-5.83,2.81,3.09.07,14.12-10.47,23.71-9.52,8.67-19.62,10.88-23.55,9a3.52,3.52,0,0,1-1-.76C345.2,178.36,351.19,170.9,361.73,161.31Z" transform="translate(-222.99 -119.1)"/><path class="cls-2" d="M358.21,157.17c9.23-15.13,10.93-30.92,2-36.35s-23.6,2.43-32.83,17.56a53.72,53.72,0,0,0-7.64,37.11c.91,6.57-6.7,20.24-6.7,20.24a9.23,9.23,0,0,0,3.07,12.68l1.43.88c4.35,2.65,8.6.4,11.25-3.95l26.51-43.46Zm-27,11.28a3.46,3.46,0,0,1-.94-.88c-2.64-3.49-2.38-13.83,4.33-24.82,7.42-12.16,17.73-16.95,21.29-14.77,3.25,2,3.92,11.59-1.6,22.49q-.8,1.59-1.79,3.21C345.06,165.84,338.87,173.14,331.18,168.46Z" transform="translate(-222.99 -119.1)"/><circle class="cls-3" cx="322.77" cy="199.31" r="4.03" transform="translate(-259.39 202.29) rotate(-50.47)"/><rect class="cls-3" x="302.68" y="630.12" width="18.05" height="11.78" transform="translate(-437.32 42.61) rotate(-21.85)"/><path class="cls-4" d="M340.8,557.52a57.27,57.27,0,1,1-74.47-31.85A57.28,57.28,0,0,1,340.8,557.52Z" transform="translate(-222.99 -119.1)"/><circle class="cls-5" cx="287.64" cy="578.83" r="47.17" transform="translate(-417.74 29.51) rotate(-21.85)"/><path class="cls-6" d="M306.19,535.46,269.1,622.21a47.17,47.17,0,0,0,37.09-86.75Z" transform="translate(-222.99 -119.1)"/><path class="cls-7" d="M322.71,638l-18,7.23a1.82,1.82,0,0,0-1,2.36l39.35,103,2.1,5.25a13.34,13.34,0,0,0,24.76-9.92l-2.1-5.25L325.06,639A1.8,1.8,0,0,0,322.71,638Z" transform="translate(-222.99 -119.1)"/><circle class="cls-8" cx="287.64" cy="578.83" r="47.17" transform="translate(-417.74 29.51) rotate(-21.85)"/><path class="cls-9" d="M264.62,453.51a5.21,5.21,0,0,1-6.76,2.91l-19-7.58a5.2,5.2,0,0,1-2.91-6.76l59.85-150a5.21,5.21,0,0,1,6.77-2.91l19,7.58a5.21,5.21,0,0,1,2.91,6.76Zm46.75-151.1a2.85,2.85,0,0,0-1.59-3.7h0a2.85,2.85,0,0,0-3.7,1.59l-.26.66a2.85,2.85,0,0,0,1.59,3.7h0a2.85,2.85,0,0,0,3.7-1.59ZM307.93,311a2.85,2.85,0,0,0-1.59-3.7h0a2.85,2.85,0,0,0-3.7,1.59l-.26.66a2.85,2.85,0,0,0,1.59,3.7h0a2.85,2.85,0,0,0,3.7-1.59Zm-3.45,8.64a2.85,2.85,0,0,0-1.59-3.7h0a2.85,2.85,0,0,0-3.7,1.59l-.26.66a2.85,2.85,0,0,0,1.59,3.7h0a2.85,2.85,0,0,0,3.7-1.59Z" transform="translate(-222.99 -119.1)"/><path class="cls-10" d="M256,480.9a5.21,5.21,0,0,1-6.77,2.91l-23-9.16a5.2,5.2,0,0,1-2.9-6.77l8.52-21.36a5.21,5.21,0,0,1,6.76-2.9l23,9.16a5.21,5.21,0,0,1,2.91,6.76Zm2.84-20a3.79,3.79,0,0,0-2.12-4.93L240,449.29a3.79,3.79,0,0,0-4.93,2.12l-6,15.12a3.79,3.79,0,0,0,2.12,4.93l16.73,6.68a3.79,3.79,0,0,0,4.93-2.12Z" transform="translate(-222.99 -119.1)"/><path class="cls-10" d="M241,477.3a2.32,2.32,0,0,1-3,1.29h0a2.31,2.31,0,0,1-1.29-3l6.16-15.45a2.31,2.31,0,0,1,3-1.29h0a2.31,2.31,0,0,1,1.29,3Z" transform="translate(-222.99 -119.1)"/><circle class="cls-9" cx="277.92" cy="378.56" r="28.67" transform="translate(-399.67 377.3) rotate(-68.25)"/><circle class="cls-11" cx="277.92" cy="378.56" r="23.83" transform="translate(-399.68 377.29) rotate(-68.25)"/><path class="cls-12" d="M304.26,367.25l-52.68,22.63a28.67,28.67,0,1,0,52.68-22.63Z" transform="translate(-222.99 -119.1)"/><path class="cls-6" d="M256,387.91A23.83,23.83,0,1,0,299.78,369S256,387.89,256,387.91Z" transform="translate(-222.99 -119.1)"/><circle class="cls-10" cx="277.92" cy="378.56" r="3.51" transform="translate(-399.68 377.27) rotate(-68.24)"/><circle class="cls-13" cx="277.92" cy="378.56" r="23.83" transform="translate(-399.68 377.29) rotate(-68.25)"/><circle class="cls-10" cx="285.03" cy="360.73" r="1.3" transform="translate(-378.64 372.65) rotate(-68.24)"/><circle class="cls-10" cx="260.08" cy="371.44" r="1.3" transform="translate(-404.29 356.26) rotate(-68.25)"/><circle class="cls-10" cx="270.8" cy="396.4" r="1.3" transform="translate(-420.75 381.78) rotate(-68.23)"/><circle class="cls-10" cx="295.75" cy="385.68" r="1.3" transform="translate(-395.09 398.22) rotate(-68.23)"/><polyline class="cls-14" points="56.19 279.87 54.92 259.46 69.43 259.72"/></svg>