<svg id="Layer_1" data-name="Layer 1" xmlns="http://www.w3.org/2000/svg" viewBox="0 0 353.84 100.83"><defs><style>.cls-1{fill:#fcb13a;opacity:0.6;}.cls-2{fill:#88491f;}.cls-3{fill:#4e4f4f;}.cls-4{fill:#676868;}.cls-5,.cls-8{fill:#ebaf47;}.cls-5,.cls-7{opacity:0.97;}.cls-6{fill:#fff;}.cls-10,.cls-11,.cls-12,.cls-6{stroke:#676868;}.cls-10,.cls-17,.cls-6{stroke-miterlimit:10;}.cls-10,.cls-6{stroke-width:1.53px;}.cls-9{fill:#f3f3f3;}.cls-10,.cls-11,.cls-12,.cls-17{fill:none;}.cls-11,.cls-12{stroke-linecap:round;stroke-linejoin:round;}.cls-11{stroke-width:2.29px;}.cls-12{stroke-width:3.82px;}.cls-13{fill:#f3d39d;}.cls-14{fill:#f2d8ba;}.cls-15{fill:#f59ec1;}.cls-16{fill:#90908f;}.cls-17{stroke:#88491f;stroke-width:0.64px;}.cls-18{fill:#faaf3a;}.cls-19{fill:#f69322;}.cls-20{fill:#07a89c;}.cls-21{fill:#4a2613;}</style></defs><title>rules_mobile</title><path class="cls-1" d="M428.2,489.83a4.38,4.38,0,0,1-6.17.59l-.2-.17a4.38,4.38,0,0,1-.59-6.17l24.93-30.2a4.38,4.38,0,0,1,6.17-.59l.21.17a4.38,4.38,0,0,1,.59,6.17Z" transform="translate(-131.9 -403.57)"/><path class="cls-1" d="M421.83,490.25a4.38,4.38,0,0,1-.59-6.17l24.93-30.2a4.38,4.38,0,0,1,6.17-.59l.21.17a4.38,4.38,0,0,1,.59,6.17Z" transform="translate(-131.9 -403.57)"/><path class="cls-2" d="M465.52,436.36l-17.88,16.27c-1.79,1.63-2.46,3.81-.83,5.6l.54.59a4.38,4.38,0,0,0,6.19.29s5.69-4.77,8.84-4.94a25.49,25.49,0,0,0,16.61-6.9c6.22-5.66,8.57-13.22,5.24-16.88s-10.54-1.45-16.77,4.22Zm4.09.59c.44-.4.89-.78,1.33-1.12,4.58-3.55,9.12-4.11,10.34-2.77s0,6.7-5,11.26c-4.52,4.11-9.32,5.17-11.18,4.25a1.67,1.67,0,0,1-.49-.36C461.76,445.05,464.6,441.51,469.61,437Z" transform="translate(-131.9 -403.57)"/><path class="cls-2" d="M467.94,435c4.38-7.19,5.19-14.68,1-17.26s-11.21,1.16-15.59,8.34a25.51,25.51,0,0,0-3.63,17.62c.43,3.12-3.18,9.61-3.18,9.61a4.38,4.38,0,0,0,1.46,6l.68.42c2.07,1.26,4.08.19,5.34-1.88l12.59-20.63Zm-12.83,5.36a1.64,1.64,0,0,1-.44-.42c-1.26-1.66-1.13-6.57,2.05-11.79,3.52-5.77,8.42-8,10.11-7,1.54.94,1.86,5.5-.76,10.68q-.38.75-.85,1.52C461.69,439.11,458.75,442.57,455.1,440.35Z" transform="translate(-131.9 -403.57)"/><circle class="cls-3" cx="451.11" cy="455" r="1.91" transform="translate(-318.85 109.76) rotate(-50.47)"/><circle class="cls-4" cx="358.98" cy="433.27" r="3.12" transform="translate(-266.24 300.31) rotate(-79.1)"/><circle class="cls-4" cx="387.07" cy="438.68" r="3.12" transform="translate(-248.82 332.2) rotate(-79.09)"/><circle class="cls-5" cx="368.99" cy="456.92" r="24.77" transform="translate(-281.36 329.3) rotate(-79.1)"/><circle class="cls-6" cx="368.99" cy="456.92" r="20.58" transform="translate(-281.36 329.31) rotate(-79.1)"/><g class="cls-7"><path class="cls-8" d="M389.5,443l-41,27.77a24.77,24.77,0,1,0,41-27.77Z" transform="translate(-131.9 -403.57)"/></g><path class="cls-9" d="M351.94,468.42A20.59,20.59,0,1,0,386,445.29S351.92,468.4,351.94,468.42Z" transform="translate(-131.9 -403.57)"/><circle class="cls-4" cx="368.99" cy="456.92" r="3.03" transform="translate(-281.36 329.3) rotate(-79.1)"/><circle class="cls-10" cx="368.99" cy="456.92" r="20.58" transform="translate(-281.36 329.31) rotate(-79.1)"/><path class="cls-2" d="M354.74,423.93c6.74-2.61,13.56-1.23,15.23,3.08l-24.42,9.45C343.88,432.14,348,426.53,354.74,423.93Z" transform="translate(-131.9 -403.57)"/><path class="cls-4" d="M345.28,437.55a.92.92,0,0,0,1.2.53l23.91-9.25a.92.92,0,0,0,.53-1.2h0a.92.92,0,0,0-1.2-.53l-23.91,9.25a.92.92,0,0,0-.53,1.2Z" transform="translate(-131.9 -403.57)"/><path class="cls-2" d="M394.48,431.58c-5.29-4.93-12.14-6.18-15.28-2.79l19.17,17.84C401.51,443.23,399.77,436.5,394.48,431.58Z" transform="translate(-131.9 -403.57)"/><path class="cls-4" d="M398.2,447.74a.92.92,0,0,1-1.31,0l-18.76-17.46a.92.92,0,0,1,0-1.31h0a.92.92,0,0,1,1.31,0l18.77,17.46a.92.92,0,0,1,0,1.31Z" transform="translate(-131.9 -403.57)"/><circle class="cls-4" cx="372.13" cy="440.63" r="1.12" transform="matrix(0.19, -0.98, 0.98, 0.19, -262.82, 319.18)"/><circle class="cls-4" cx="359.69" cy="443.19" r="1.12" transform="translate(-318.55 -125.61) rotate(-34.11)"/><circle class="cls-4" cx="352.7" cy="453.79" r="1.12" transform="translate(-291.6 310.53) rotate(-79.08)"/><circle class="cls-4" cx="355.25" cy="466.22" r="1.12" transform="translate(-332.12 -124.48) rotate(-34.07)"/><circle class="cls-4" cx="365.85" cy="473.21" r="1.12" transform="translate(-299.9 339.44) rotate(-79.1)"/><circle class="cls-4" cx="378.29" cy="470.66" r="1.12" transform="translate(-330.68 -110.71) rotate(-34.08)"/><circle class="cls-4" cx="385.28" cy="460.06" r="1.12" transform="translate(-271.37 347.59) rotate(-79.07)"/><circle class="cls-4" cx="382.73" cy="447.62" r="1.12" transform="translate(-316.96 -112.36) rotate(-34.07)"/><polyline class="cls-11" points="232.69 36.25 237.09 53.36 224.73 55.5"/><line class="cls-12" x1="221.58" y1="71.84" x2="215.6" y2="77.24"/><line class="cls-12" x1="244.62" y1="76.28" x2="248.18" y2="83.51"/><path class="cls-3" d="M298.44,479.39c-.39,1.28-2,1.61-3.25,1.21L261.11,470.2c-1.28-.39-2.41-1.54-2-2.82l14.29-46.78,39.35,12Z" transform="translate(-131.9 -403.57)"/><path class="cls-8" d="M299.27,476.67a3,3,0,0,1-3.44,1.84L261.75,468.1a3,3,0,0,1-1.83-3.45l13.62-44.58,39.35,12Z" transform="translate(-131.9 -403.57)"/><path class="cls-13" d="M299.27,476.67a3,3,0,0,1-3.44,1.84l-28.64-8.75L312.92,432Z" transform="translate(-131.9 -403.57)"/><path class="cls-4" d="M278.33,424.45a1.22,1.22,0,0,1-1.52.81h0a1.22,1.22,0,0,1-.81-1.52l1.91-6.24a1.22,1.22,0,0,1,1.52-.81h0a1.22,1.22,0,0,1,.81,1.52Z" transform="translate(-131.9 -403.57)"/><path class="cls-4" d="M283.41,426a1.22,1.22,0,0,1-1.52.81h0a1.22,1.22,0,0,1-.81-1.52L283,419a1.22,1.22,0,0,1,1.52-.81h0a1.22,1.22,0,0,1,.81,1.52Z" transform="translate(-131.9 -403.57)"/><path class="cls-4" d="M288.49,427.55a1.21,1.21,0,0,1-1.52.81h0a1.22,1.22,0,0,1-.81-1.52l1.91-6.24a1.21,1.21,0,0,1,1.52-.81h0a1.22,1.22,0,0,1,.81,1.52Z" transform="translate(-131.9 -403.57)"/><path class="cls-4" d="M293.56,429.1a1.22,1.22,0,0,1-1.52.81h0a1.22,1.22,0,0,1-.81-1.52l1.91-6.24a1.22,1.22,0,0,1,1.52-.81h0a1.22,1.22,0,0,1,.81,1.52Z" transform="translate(-131.9 -403.57)"/><path class="cls-4" d="M298.64,430.65a1.22,1.22,0,0,1-1.52.81h0a1.22,1.22,0,0,1-.81-1.52l1.91-6.24a1.22,1.22,0,0,1,1.52-.81h0a1.22,1.22,0,0,1,.81,1.52Z" transform="translate(-131.9 -403.57)"/><path class="cls-4" d="M303.72,432.2a1.21,1.21,0,0,1-1.52.81h0a1.21,1.21,0,0,1-.81-1.52l1.91-6.24a1.22,1.22,0,0,1,1.52-.81h0a1.22,1.22,0,0,1,.81,1.52Z" transform="translate(-131.9 -403.57)"/><path class="cls-4" d="M308.8,433.75a1.22,1.22,0,0,1-1.52.81h0a1.22,1.22,0,0,1-.81-1.52l1.91-6.24a1.21,1.21,0,0,1,1.52-.81h0a1.22,1.22,0,0,1,.81,1.52Z" transform="translate(-131.9 -403.57)"/><polygon class="cls-2" points="148.76 35.19 132.73 30.25 134.68 21.85 151.3 26.97 148.76 35.19"/><polygon class="cls-14" points="101.74 81.52 103.1 81.84 121.22 82.64 104.64 75.34 103.27 75.02 101.74 81.52"/><polygon class="cls-15" points="117.37 82.47 121.22 82.64 117.69 81.09 117.37 82.47"/><path class="cls-3" d="M152.66,465.93l3.47.82h0L235,485.41s-.87-.21-.1-3.44,1.64-3.06,1.64-3.06L156.8,460h0l-1.74-.41h0l-.86-.2a3.34,3.34,0,1,0-1.54,6.5Z" transform="translate(-131.9 -403.57)"/><path class="cls-16" d="M235,485.41s-.87-.2-.1-3.44v0l-84.74-20a3.34,3.34,0,0,0,2.49,4l3.47.82h0Z" transform="translate(-131.9 -403.57)"/><path class="cls-17" d="M190.16,446.61l8.56,1.33a4.55,4.55,0,0,1,3.8,5.2h0a4.55,4.55,0,0,1-5.2,3.8L183,454.71a3.55,3.55,0,0,1-3-4.06h0a3.55,3.55,0,0,1,4.06-3l12.65,2a2.52,2.52,0,0,1,2.1,2.87h0a2.52,2.52,0,0,1-2.87,2.1L184,452.77" transform="translate(-131.9 -403.57)"/><path class="cls-17" d="M195.11,434l-3.91-7.73a4.55,4.55,0,0,1,2-6.12h0a4.55,4.55,0,0,1,6.12,2l6.54,12.94a3.55,3.55,0,0,1-1.57,4.77h0a3.55,3.55,0,0,1-4.77-1.57l-5.78-11.43a2.52,2.52,0,0,1,1.11-3.38h0a2.52,2.52,0,0,1,3.38,1.11l5.44,10.77" transform="translate(-131.9 -403.57)"/><path class="cls-17" d="M179.6,428l7.27,4.71a4.55,4.55,0,0,1,1.34,6.3h0a4.55,4.55,0,0,1-6.3,1.34l-12.16-7.88a3.55,3.55,0,0,1-1-4.91h0a3.55,3.55,0,0,1,4.91-1l10.75,7a2.52,2.52,0,0,1,.74,3.48h0a2.52,2.52,0,0,1-3.48.74l-10.12-6.56" transform="translate(-131.9 -403.57)"/><polygon class="cls-14" points="37.13 83.57 37.56 84.91 46.25 100.83 43.92 82.86 43.49 81.53 37.13 83.57"/><polygon class="cls-18" points="44.4 97.44 46.25 100.83 45.75 97.01 44.4 97.44"/><path class="cls-18" d="M143.53,407.93l1.09,3.39h0l24.84,77.15s-.27-.85,2.89-1.87,3.47-.18,3.47-.18l-25.11-78h0l-.54-1.7h0l-.27-.84a3.34,3.34,0,1,0-6.36,2Z" transform="translate(-131.9 -403.57)"/><path class="cls-19" d="M169.46,488.47s-.28-.85,2.89-1.87h0l-26.72-82.86a3.34,3.34,0,0,0-2.13,4.19l1.09,3.39h0Z" transform="translate(-131.9 -403.57)"/><polygon class="cls-14" points="70.94 84.47 72.11 85.25 88.85 92.23 75.79 79.67 74.62 78.9 70.94 84.47"/><polygon class="cls-20" points="85.29 90.75 88.85 92.23 86.08 89.56 85.29 90.75"/><path class="cls-2" d="M133.4,442.19l3,2h0L204,488.81s-.74-.49,1.09-3.26,2.59-2.31,2.59-2.31l-68.38-45.15h0l-1.49-1h0l-.74-.49a3.34,3.34,0,1,0-3.68,5.57Z" transform="translate(-131.9 -403.57)"/><path class="cls-21" d="M204,488.81s-.75-.49,1.09-3.26l0,0-72.68-47.93a3.34,3.34,0,0,0,1,4.61l3,2h0Z" transform="translate(-131.9 -403.57)"/></svg>