<!--?xml version="1.0" encoding="utf-8"?-->
<!-- Generator: Adobe Illustrator 21.0.0, SVG Export Plug-In . SVG Version: 6.00 Build 0)  -->
<svg version="1.1" id="Layer_1" xmlns="http://www.w3.org/2000/svg" xmlns:xlink="http://www.w3.org/1999/xlink" x="0px" y="0px" viewBox="0 0 559.4 330.2" style="" xml:space="preserve">
<style type="text/css">
	.st0{fill:#212426;}
	.st1{fill:none;stroke:#FFFFFF;stroke-miterlimit:10;}
	.st2{fill:#221F1F;}
	.st3{fill:#979080;}
	.st4{fill:#FFFFFF;}
	.st5{enable-background:new    ;}
	.st6{fill:#231F20;}
	.st7{fill:#010101;}
	.st8{fill:#DCDBDB;}
	.st9{fill:#F3F3F3;}
	.st10{fill:#F2F2F2;}
</style>
<title>scrolls_head_animated (5)</title>
<path class="st0 SsiHgzCS_0" d="M82.6,111.8c-6.6-2.2-12.1-3.3-16.6-3.3c-3.5,0-6.3,0.7-8.3,2c-2,1.2-3.1,3.4-3,5.7c0,2.3,0.9,4.5,2.7,6
	c1.9,1.7,4.1,3,6.5,3.9c2.6,1,6.4,2.3,11.5,3.8c6.4,1.8,12.6,4,18.7,6.5c5,2.2,9.4,5.7,12.7,10c3.5,4.5,5.3,10.4,5.3,17.7
	c0,7.3-1.9,13.5-5.8,18.6c-4.1,5.3-9.5,9.3-15.8,11.6c-7.1,2.7-14.7,4-22.4,3.9c-9.2,0-18.3-1.6-27-4.8c-8.5-2.9-16.4-7.3-23.3-13
	l11.1-22.3c5.8,5.1,12.4,9.1,19.5,12c7.5,3.1,14.2,4.7,20,4.7c4.3,0,7.6-0.8,10-2.3c2.4-1.4,3.8-4.1,3.7-6.9c0-2.4-0.9-4.7-2.7-6.2
	c-2-1.8-4.3-3.1-6.9-4c-2.8-1-6.6-2.2-11.6-3.5c-6.3-1.7-12.4-3.8-18.4-6.3c-4.9-2.1-9.2-5.5-12.5-9.6c-3.5-4.3-5.2-10-5.2-17.2
	c-0.1-6.3,1.7-12.5,5.3-17.7c3.9-5.3,9.2-9.4,15.3-11.8c7.3-2.9,15.1-4.3,23-4.1c7.9,0,15.8,1.1,23.4,3.4c7.1,2,14,5,20.2,9
	l-10.7,22.7C95.3,116.8,89.1,113.9,82.6,111.8z"></path>
<path class="st0 SsiHgzCS_1" d="M164.4,134.2c-4.7-0.1-9.2,2-12.1,5.7c-3.1,3.8-4.7,8.7-4.7,14.7c0,6.1,1.6,11.1,4.7,14.8
	c3,3.7,7.4,5.7,12.1,5.6c7.7,0,13.2-3.2,16.5-9.5l20.4,11.7c-3.3,6.4-8.5,11.6-14.9,15c-6.7,3.5-14.5,5.3-23.4,5.3
	c-7.9,0.2-15.7-1.6-22.7-5.3c-6.4-3.4-11.7-8.6-15.2-15c-3.7-6.9-5.5-14.6-5.4-22.4c-0.2-7.9,1.7-15.8,5.4-22.8
	c3.5-6.5,8.8-11.8,15.3-15.3c7-3.7,14.9-5.5,22.8-5.4c7.8-0.1,15.5,1.6,22.4,5.2c6.4,3.3,11.7,8.5,15.3,14.7L180.9,143
	C177.3,137.4,171.1,134,164.4,134.2z"></path>
<path class="st0 SsiHgzCS_2" d="M253.1,115.1c4.8-2.7,10.3-4,15.8-3.9v25.4c-0.9-0.1-2.3-0.2-4.2-0.2c-6.5,0-11.8,1.5-15.9,4.6
	c-4,3-6.6,7.6-7,12.5v43h-27.7v-84.3h27.7v14C244.5,121.6,248.4,117.7,253.1,115.1z"></path>
<path class="st0 SsiHgzCS_3" d="M344.3,116.7c6.7,3.4,12.4,8.6,16.2,15.1c3.9,6.8,5.9,14.6,5.8,22.5c0,8.6-1.9,16.2-5.8,22.7
	c-3.8,6.5-9.5,11.7-16.2,15.1c-7,3.6-15,5.4-24.1,5.4s-17.2-1.8-24.1-5.4c-6.7-3.4-12.3-8.6-16.1-15.1c-3.8-6.5-5.7-14-5.7-22.7
	c-0.2-7.9,1.8-15.6,5.7-22.5c3.8-6.5,9.4-11.7,16.1-15.1c7-3.6,15-5.4,24.1-5.4C329.3,111.3,337.3,113.1,344.3,116.7z M307.1,139.5
	c-3.3,3.8-5,8.9-5,15.1c0,6.3,1.7,11.4,5,15.3c3.3,3.8,8.1,5.9,13.1,5.7c5.1,0.2,9.9-1.9,13.2-5.8c3.3-3.8,5-8.9,5-15.3
	c0-6.2-1.7-11.3-5.1-15.1c-3.3-3.8-8.1-5.9-13.2-5.8C315.2,133.6,310.3,135.7,307.1,139.5z"></path>
<path class="st1 SsiHgzCS_4" d="M70.2,104.1c-7.1-2.3-13-3.5-17.8-3.5c-3.8,0-6.8,0.7-9,2.1c-2.1,1.3-3.4,3.6-3.3,6.1c0,2.5,1,4.8,2.8,6.5
	c2,1.8,4.4,3.2,7,4.2c2.8,1.1,6.9,2.4,12.4,4.1c6.9,1.9,13.6,4.2,20.2,7c5.4,2.4,10.1,6.1,13.6,10.8c3.8,4.9,5.7,11.2,5.7,19
	c0,7.8-2.1,14.5-6.2,20c-4.4,5.7-10.3,10-17,12.5c-7.7,2.9-15.8,4.3-24,4.2c-9.9,0-19.7-1.8-29-5.1c-9.1-3.1-17.6-7.9-25-14
	l11.9-23.9c6.2,5.4,13.3,9.8,21,12.9c8.1,3.3,15.3,5,21.5,5c4.6,0,8.2-0.8,10.8-2.5c2.6-1.6,4.1-4.4,3.9-7.4c0.1-2.6-1-5-2.9-6.7
	c-2.1-1.9-4.7-3.3-7.4-4.3c-3-1.1-7.1-2.3-12.5-3.8c-6.8-1.8-13.4-4-19.9-6.7c-5.3-2.3-9.9-5.9-13.5-10.4C9.9,125.5,8,119.3,8,111.6
	c-0.1-6.8,1.9-13.5,5.8-19.1c4.1-5.7,9.8-10.1,16.4-12.6c7.1-3,15.3-4.4,24.7-4.4c8.5,0,17,1.2,25.1,3.6c7.7,2.1,15,5.3,21.8,9.6
	l-11.6,24.5C83.9,109.4,77.2,106.4,70.2,104.1z"></path>
<path class="st1 SsiHgzCS_5" d="M158.2,128.2c-5.1-0.1-9.9,2.1-13.1,6.1c-3.3,4.1-5,9.3-5,15.8c0,6.6,1.7,11.9,5,15.9c3.2,3.9,8,6.1,13.1,6
	c8.3,0,14.2-3.4,17.8-10.2l21.9,12.6c-3.6,6.9-9.2,12.5-16.1,16.1c-7.1,3.8-15.5,5.7-25.1,5.7c-9.3,0-17.4-1.9-24.4-5.7
	c-6.9-3.7-12.6-9.2-16.3-16.1c-3.8-6.9-5.8-14.9-5.8-24.1c0-9.3,2-17.4,5.9-24.5c3.8-7,9.5-12.7,16.5-16.4
	c7.1-3.9,15.3-5.8,24.5-5.8c8.4-0.2,16.7,1.8,24.1,5.6c6.9,3.6,12.6,9.1,16.4,15.8l-21.6,12.6C172.1,131.5,165.3,128,158.2,128.2z"></path>
<path class="st1 SsiHgzCS_6" d="M253.5,107.6c5.2-2.9,11.1-4.3,17-4.2v27.3c-1-0.1-2.5-0.2-4.5-0.2c-7,0-12.7,1.6-17.1,4.9
	c-4.3,3.2-7.1,8.1-7.5,13.5v46.2h-29.8v-90.6h29.8v15.1C244.3,114.6,248.5,110.5,253.5,107.6z"></path>
<path class="st1 SsiHgzCS_7" d="M351.6,109.3c7.3,3.6,13.3,9.3,17.4,16.3c4.2,7.4,6.4,15.7,6.2,24.2c0,9.3-2.1,17.4-6.2,24.4
	c-4.1,7-10.2,12.6-17.4,16.2c-7.5,3.9-16.1,5.8-26,5.8c-9.9,0-18.5-1.9-26-5.8c-7.2-3.6-13.3-9.3-17.3-16.2
	c-4.1-7-6.1-15.1-6.1-24.4c-0.2-8.5,1.9-16.8,6.1-24.2c4.1-7,10.1-12.6,17.3-16.2c7.5-3.9,16.1-5.8,26-5.8
	C335.4,103.6,344.1,105.5,351.6,109.3z M311.6,133.9c-3.6,4.1-5.4,9.5-5.4,16.2c0,6.8,1.8,12.3,5.4,16.4c3.5,4.1,8.7,6.4,14.1,6.2
	c5.9,0,10.7-2.1,14.2-6.2c3.6-4.1,5.4-9.6,5.4-16.4c0-6.7-1.8-12.1-5.4-16.2c-3.5-4.1-8.7-6.4-14.1-6.2
	C320.3,127.5,315.1,129.8,311.6,133.9L311.6,133.9z"></path>
<path class="st2 SsiHgzCS_8" d="M502.9,310.5H367.5v-33.2h135.3V310.5z M368.5,309.5h133.3v-31.2H368.5V309.5z"></path>
<path class="st0 SsiHgzCS_9" d="M432.5,79.6h27.7v115.5h-27.7V79.6z"></path>
<path class="st0 SsiHgzCS_10" d="M517,130.5c-2-0.1-4,0.4-5.8,1.3c-1.4,0.8-2.3,2.4-2.2,4c0,1.9,1.1,3.4,3.4,4.5c3.5,1.6,7.2,2.8,10.9,3.7
	c5.1,1.4,10.1,3.2,15,5.2c4,1.7,7.6,4.4,10.4,7.8c2.9,3.5,4.4,8,4.4,13.6c0,8.5-3.3,15.2-9.9,20s-15.2,7.2-25.8,7.2
	c-7,0-13.9-1-20.6-3c-6.3-1.9-12.2-5-17.4-9l8.7-17.9c4.6,3.2,9.7,5.8,15,7.7c4.8,1.8,9.8,2.7,14.9,2.8c2.2,0.1,4.4-0.4,6.5-1.3
	c1.5-0.7,2.4-2.2,2.4-3.8c0-2.1-1.2-3.7-3.5-4.8c-3.6-1.6-7.2-2.8-11-3.7c-5-1.4-9.9-3.2-14.6-5.2c-3.9-1.8-7.3-4.4-10-7.7
	c-2.9-3.4-4.3-7.9-4.3-13.4c0-8.5,3.2-15.2,9.7-20c6.4-4.8,14.7-7.2,24.9-7.3c12.3,0,24.4,3.4,35,9.8l-9.3,18.1
	C532.8,133.3,523.9,130.5,517,130.5z"></path>
<path class="st1 SsiHgzCS_11" d="M424.6,64.9h30.9v128.6h-30.9V64.9z"></path>
<path class="st1 SsiHgzCS_12" d="M518.5,121.6c-2.2-0.1-4.5,0.4-6.5,1.5c-1.6,0.9-2.5,2.6-2.4,4.4c0,2.1,1.3,3.7,3.8,5c3.9,1.8,8,3.2,12.2,4.2
	c5.7,1.6,11.3,3.6,16.7,5.8c4.5,1.9,8.4,4.9,11.5,8.7c3.2,3.9,4.8,8.9,4.8,15.2c0,9.5-3.7,16.9-11,22.3c-7.3,5.4-16.9,8.1-28.7,8.1
	c-7.8,0-15.5-1.1-22.9-3.4c-7-2.1-13.6-5.5-19.4-10l9.7-19.9c5.2,3.6,10.8,6.5,16.7,8.6c5.3,1.9,10.9,2.9,16.6,3
	c2.5,0.1,5-0.4,7.2-1.5c1.7-0.8,2.7-2.4,2.7-4.3c0-2.3-1.3-4.1-3.9-5.4c-3.9-1.7-8-3.1-12.2-4.2c-5.5-1.6-11-3.5-16.3-5.8
	c-4.3-1.9-8.2-4.9-11.2-8.5c-3.2-3.8-4.8-8.8-4.8-14.9c0-9.5,3.6-16.9,10.8-22.3c7.2-5.4,16.4-8.1,27.7-8.1c13.8,0,27.2,3.8,39,10.9
	l-10.4,20.1C536.2,124.7,526.3,121.6,518.5,121.6z"></path>
<path class="st0 SsiHgzCS_13" d="M393.9,206.5l-0.7,0.4c-1.4,0.1-2.9,0.1-4.3,0.2c-5.1,0.5-6.1,0-7.7-4.5l-0.1-2.2c0.9-3.3,0.1-6.5,0.2-9.8
	c0-1,0.5-2.3-0.7-3.1l-0.1-2.8c0.2-0.4,0.3-0.8,0.4-1.3c-0.1-10.8-0.1-21.7-0.2-32.5c0-0.6,0.1-1.4-0.7-1.7V146
	c0.5-0.3,0.6-0.9,0.4-1.4c-0.1-0.2-0.2-0.3-0.4-0.4v-1c1-0.7,1.1-1.4,0-2v-1c0.6-0.4,0.5-1,0.5-1.6c0.1-6.1,0.4-12.3,0.2-18.4
	c0-2.3,0.9-2.9,2.8-3.1s4,0,5.6-1.4l0.7,1c-0.2,18.2-0.9,36.4,0.6,54.5c1-6.1,1-12.3,1.1-18.5c0.1-10.9,0.3-21.8,0.4-32.7
	c0-1.6,0.1-2.9,2.1-3l1,0.3c0,8.9-0.1,17.7,0,26.6C395,164.9,394.7,185.7,393.9,206.5z"></path>
<path class="st0 SsiHgzCS_14" d="M379.4,57.9l0-2.7c1.4-3.1,0.9-6.3,0.5-9.5l0.2-2.7c1.2-1.5,1-3.2,0.4-4.9l0.1-1.5c1.2-1.1,0.9-2.4,0.4-3.7
	l0.1-1c0.2-0.3,0.4-0.6,0.6-1c0.9-2.1,2.9-2.4,4.6-2s0.8,2.1,0.8,3.2c0.6,19.9,0.8,39.7,0.5,59.6c0,0.9-0.3,2,0.7,2.6l0,0
	c0,0.4,0.1,0.6,0.5,0.6c0.6,0.6,1.4,0.9,2.3,0.8c-0.2,0.4,0.1,1.1-0.6,1.1c-2.2-0.2-1.8,1.2-1.6,2.5c-1.8,1.5,0.3,2.5,0.6,3.7
	c-0.3,1.9,0.7,3.8-0.1,5.7c-0.6,0.1-0.6,0.6-0.6,1.1c-1.9-0.9-4.1-1.1-6.2-0.8c-2.7,0.3-3-0.7-3-3c0.1-15.1,0-30.2,0-45.3
	C379.8,59.9,380.3,58.7,379.4,57.9z"></path>
<path class="st3 SsiHgzCS_15" d="M388.4,94.4c-1-0.6-0.7-1.7-0.7-2.6c0.4-19.9,0.1-39.8-0.5-59.6c0-1.1,0.9-2.9-0.8-3.2s-3.7-0.1-4.6,2
	c-0.2,0.3-0.4,0.6-0.6,1c0.5-3.8-0.1-7.7,2-11.2c-0.2,2,0.7,2.6,2.7,2.3c1.4-0.3,2.8-0.3,4.2-0.2c2.4,0.3,2.6-0.8,1.9-2.6
	c2.1,0.8,2.1,0.8,2.1,3.6c-1.3-0.1-2.6-0.1-3.9,0c-1,0.1-2.4-0.9-2.7,1c-0.4,1.5,0.4,3.1,1.8,3.7c1.1,0.6,2.6,0.7,3.2,2.2
	c0.1,0.4,0.4,0.8,0.5,0s0-1.5,1.1-1.2c0.9,0.3,1.5,1.1,1.4,2c0.3,2.6,0.7,5.2,1,7.8c1.3,14,1.5,27.9,1.6,41.9
	c0.1,8.6,0.1,17.2,0.1,25.8c0,0.9,0.3,2.4-0.9,2.4s-2.8,1-4-0.3c0,0,0.2-0.3,0.3-0.5c2.1-0.8,1.8-2.6,1.8-4.3c-0.2-19-0.4-38-0.6-57
	c0-0.9-0.1-1.8-0.1-2.6h-0.5v12.1c-0.8-0.8-1.2-2-1.1-3.1c0-1.7-0.6-2.6-2.6-2.5c-2.2,0-1.3,1.6-1.3,2.4
	C388.6,67.1,390.2,80.8,388.4,94.4z"></path>
<path class="st3 SsiHgzCS_16" d="M381.3,202.7c1.6,4.5,2.6,5,7.7,4.5c1.4-0.1,2.9-0.2,4.3-0.2c-0.1,7.1-1.4,14.2-2,21.3
	c-0.3,1.8-0.6,3.6-0.7,5.4c0,2.1-2.6,1.5-2.8,3.1c-1.1-0.2-1.8-1.1-1.9-2.2c-1.2-7.6-2.3-15.2-3.5-22.8
	C381.8,208.8,380.4,205.9,381.3,202.7z"></path>
<path class="st3 SsiHgzCS_17" d="M393.9,206.5c0.8-20.8,1.1-41.6,1-62.4c0-8.9,0-17.7,0-26.6c1.8-0.5,2.4,0.2,2.4,2c-0.1,28.1,0.3,56.3-1.4,84.4
	C395.9,205.3,396,206.8,393.9,206.5z"></path>
<path class="st3 SsiHgzCS_18" d="M379.4,57.9c0.9,0.9,0.4,2,0.4,3c0,15.1,0.1,30.2,0,45.3c0,2.2,0.3,3.3,3,3c2.1-0.3,4.2-0.1,6.2,0.8
	c1.2,1.8,1.2,4,0.1,5.8c-1.6,1.4-3.7,1.2-5.6,1.4s-2.8,0.8-2.8,3.1c0.1,6.1-0.1,12.3-0.2,18.4c0,0.6,0.1,1.2-0.5,1.6
	c-0.2-0.3-0.3-0.6-0.4-1c-0.2-26.6-1.3-53.1-0.6-79.7C379,58.9,378.9,58.3,379.4,57.9z"></path>
<path class="st3 SsiHgzCS_19" d="M393.9,117.1c-2,0-2.1,1.4-2.1,3c-0.1,10.9-0.2,21.8-0.4,32.7c-0.1,6.2,0,12.3-1.1,18.5
	c-1.5-18.2-0.7-36.4-0.6-54.5c-0.2-2.8,2.6-2.1,3.9-3.2c0.5-0.5,1.2,1,1,1.9C394.6,116,393.7,116.3,393.9,117.1z"></path>
<path class="st0 SsiHgzCS_20" d="M394.2,56.8V44.6h0.5c0,0.9,0.1,1.8,0.1,2.6c0.2,19,0.4,38,0.6,57c0,1.7,0.3,3.5-1.8,4.3
	c-0.5,0.5-1.1,0.3-1.7,0.2c-0.3-4.4,2.6-8.8,0-13.3c1-0.4,1.6-1.3,1.8-2.3c0.6-0.4,0.6-0.9,0.2-1.4l0.1-2.7c0.4-3.1,0.5-6.3,0.1-9.4
	c0-5,0-10,0-15v-0.7L394.2,56.8z"></path>
<path class="st3 SsiHgzCS_21" d="M380,149.3c0.8,0.3,0.7,1,0.7,1.7c0.1,10.8,0.2,21.7,0.2,32.5c-0.1,0.5-0.2,0.9-0.4,1.3c-0.8-0.9-0.5-2-0.5-3
	c-0.1-10.2-0.2-20.3-0.3-30.5C379.8,150.7,379.9,150,380,149.3z"></path>
<path class="st0 SsiHgzCS_22" d="M391.9,20.2c0.8,1.8,0.5,2.9-1.9,2.6c-1.4-0.1-2.8-0.1-4.2,0.2c-2,0.3-2.9-0.3-2.7-2.3
	C386,18.5,389,19.3,391.9,20.2z"></path>
<path class="st3 SsiHgzCS_23" d="M392,95.6c2.5,4.4-0.3,8.8,0,13.3h-2.3c0.8-1.9-0.2-3.8,0.1-5.7c1.1-0.2,0.7-1.6,1.3-1.9
	c1.1-0.6,0.9-0.8,0.2-1.8c-0.9-1.1-1.4-0.5-2,0c-0.2-1.3-0.7-2.7,1.6-2.5c0.6,0,0.4-0.7,0.6-1.1L392,95.6z"></path>
<path class="st3 SsiHgzCS_24" d="M380.6,187.6c1.3,0.8,0.8,2.1,0.7,3.1c-0.1,3.3,0.7,6.6-0.2,9.8C380.4,196.3,380.2,191.9,380.6,187.6z"></path>
<path class="st3 SsiHgzCS_25" d="M380,45.6c0.4,3.2,0.9,6.4-0.5,9.5C379.1,51.9,378.9,48.8,380,45.6z"></path>
<path class="st3 SsiHgzCS_26" d="M380.6,38.1c0.6,1.7,0.8,3.3-0.4,4.9C379.6,41.4,379.8,39.6,380.6,38.1z"></path>
<path class="st3 SsiHgzCS_27" d="M381.1,32.9c0.5,1.3,0.7,2.6-0.4,3.7C380.3,35.4,380.4,34,381.1,32.9z"></path>
<path class="st3 SsiHgzCS_28" d="M380,141.2c1.1,0.7,1.1,1.4,0,2C379.6,142.6,379.6,141.9,380,141.2z"></path>
<path class="st3 SsiHgzCS_29" d="M380,144.3c0.5,0.3,0.6,0.9,0.4,1.4c-0.1,0.2-0.2,0.3-0.4,0.4c-0.5-0.3-0.6-0.9-0.4-1.4
	C379.7,144.5,379.9,144.4,380,144.3z"></path>
<path class="st4 SsiHgzCS_30" d="M392,95.6l-0.8,0.2c-0.9,0.1-1.7-0.2-2.3-0.8c0-0.3-0.1-0.6-0.5-0.6l0,0c1.8-13.6,0.2-27.3,0.7-40.9
	c0-0.9-0.9-2.4,1.3-2.4c2,0,2.5,0.8,2.6,2.5c-0.1,1.2,0.3,2.3,1.1,3.2v7.4c-0.4,0.2-0.4,0.5,0,0.7c0,5,0,10,0,15
	c-0.6,3.1-0.6,6.3-0.1,9.4L394,92c-0.4,0.3-0.5,0.9-0.2,1.4C393.6,94.4,393,95.2,392,95.6z"></path>
<path class="st4 SsiHgzCS_31" d="M389.1,99.4c0.7-0.5,1.1-1.1,2,0c0.8,0.9,0.9,1.1-0.2,1.8c-0.6,0.4-0.2,1.7-1.3,1.9
	C389.4,101.9,387.3,101,389.1,99.4z"></path>
<path class="st3 SsiHgzCS_32" d="M388.4,94.4c0.4,0,0.5,0.3,0.5,0.6C388.6,95,388.4,94.8,388.4,94.4z"></path>
<path class="st3 SsiHgzCS_33" d="M394.1,89.3c-0.5-3.1-0.5-6.3,0.1-9.4C394.6,83,394.5,86.1,394.1,89.3z"></path>
<path class="st3 SsiHgzCS_34" d="M393.8,93.3c-0.3-0.4-0.2-1.1,0.2-1.4C394.4,92.5,394.4,93,393.8,93.3z"></path>
<path class="st3 SsiHgzCS_35" d="M394.2,64.9c-0.4-0.2-0.4-0.5,0-0.7V64.9z"></path>
<path class="st1 SsiHgzCS_36" d="M399.9,213.6l-0.8,0.5c-1.6,0.1-3.3,0.1-5,0.3c-5.9,0.6-7,0-8.9-5.1l-0.1-2.5c1.1-3.7,0.1-7.4,0.2-11.2
	c0-1.2,0.6-2.6-0.9-3.5l-0.1-3.1c0.2-0.5,0.4-1,0.5-1.5c-0.1-12.3-0.1-24.7-0.3-37c0-0.7,0.1-1.6-0.9-1.9v-3.8
	c0.6-0.3,0.8-1,0.5-1.5c-0.1-0.2-0.3-0.3-0.5-0.5v-1.2c1.2-0.8,1.2-1.6,0-2.3v-1.2c0.7-0.5,0.5-1.1,0.5-1.8c0.1-7,0.4-14,0.3-20.9
	c-0.1-2.6,1-3.3,3.2-3.5s4.6,0,6.5-1.6l0.8,1.1c-0.2,20.7-1,41.4,0.7,62c1.2-7,1.1-14,1.2-21c0.1-12.4,0.3-24.8,0.4-37.2
	c0-1.8,0.1-3.3,2.4-3.4l1.2,0.4c0,10.1-0.1,20.2,0,30.3C401.2,166.2,400.8,189.9,399.9,213.6z"></path>
<path class="st1 SsiHgzCS_37" d="M383.1,44.5l0.1-3.1c1.7-3.5,1.1-7.1,0.6-10.8l0.2-3c1.4-1.7,1.2-3.6,0.5-5.5l0.1-1.7c1.3-1.3,1.1-2.7,0.5-4.2
	l0.1-1.1c0.2-0.3,0.5-0.7,0.6-1.1c1.1-2.4,3.3-2.7,5.4-2.3s0.9,2.4,0.9,3.7c0.7,22.6,1,45.2,0.5,67.8c0,1-0.4,2.2,0.8,3l0,0
	c-0.1,0.4,0.2,0.6,0.6,0.6c0.7,0.7,1.7,1.1,2.7,1c-0.3,0.4,0.1,1.3-0.6,1.2c-2.6-0.2-2.1,1.4-1.8,2.9c-2.1,1.8,0.4,2.8,0.7,4.2
	c-0.3,2.2,0.8,4.4-0.1,6.5c-0.8,0.1-0.7,0.7-0.7,1.2c-2.3-1-4.7-1.3-7.2-0.9c-3.1,0.4-3.4-0.8-3.4-3.4c0.1-17.2,0-34.3,0-51.5
	C383.6,46.8,384.1,45.5,383.1,44.5z"></path>
<path class="st1 SsiHgzCS_38" d="M393.5,86.1c-1.2-0.7-0.8-2-0.8-3c0.4-22.6,0.2-45.2-0.5-67.8c0-1.3,1-3.3-0.9-3.7s-4.3-0.1-5.4,2.3
	c-0.2,0.4-0.4,0.7-0.6,1.1c0.6-4.3-0.1-8.8,2.3-12.8c-0.2,2.3,0.8,3,3.1,2.6c1.6-0.3,3.3-0.4,4.9-0.2c2.8,0.3,3-0.9,2.1-3
	c2.4,0.9,2.4,0.9,2.5,4.1c-1.5-0.1-3-0.1-4.6,0c-1.1,0.1-2.8-1-3.1,1.1c-0.4,1.7,0.5,3.5,2.1,4.2c1.3,0.7,3.1,0.8,3.7,2.5
	c0.2,0.5,0.4,0.9,0.6,0s0-1.7,1.3-1.4c1,0.3,1.7,1.2,1.6,2.3c0.4,2.9,0.8,5.9,1.1,8.8c1.5,15.9,1.8,31.8,1.9,47.7
	c0.1,9.8,0.1,19.5,0.1,29.3c0,1,0.4,2.7-1,2.7s-3.2,1.1-4.6-0.3c0,0,0.2-0.3,0.3-0.5c2.5-0.9,2.1-3,2.1-4.9
	c-0.2-21.6-0.5-43.2-0.7-64.9c0-1-0.1-2-0.1-3h-0.6v13.8c-1.2-0.9-1.2-2.3-1.3-3.6c-0.1-2-0.7-2.9-3-2.9c-2.6,0.1-1.5,1.8-1.5,2.8
	C393.8,55.1,395.6,70.6,393.5,86.1z"></path>
<path class="st1 SsiHgzCS_39" d="M385.2,209.2c1.9,5.1,3,5.7,8.9,5.1c1.6-0.2,3.3-0.2,5-0.3c-0.1,8.1-1.6,16.1-2.3,24.2
	c-0.2,2.1-0.8,4.1-0.8,6.2c0,2.4-3,1.7-3.3,3.5c-1.2-0.2-2.1-1.3-2.2-2.5c-1.4-8.6-2.7-17.3-4.1-25.9
	C385.8,216.1,384.2,212.8,385.2,209.2z"></path>
<path class="st1 SsiHgzCS_40" d="M399.9,213.6c0.9-23.7,1.3-47.3,1.2-71c0-10.1,0-20.2,0-30.3c2.1-0.6,2.8,0.3,2.8,2.3c-0.1,32,0.4,64-1.6,96
	C402.2,212.2,402.3,213.9,399.9,213.6z"></path>
<path class="st1 SsiHgzCS_41" d="M383.1,44.5c1,1,0.5,2.3,0.5,3.4c0,17.2,0.1,34.3,0,51.5c0,2.5,0.3,3.8,3.4,3.4c2.4-0.4,4.9-0.1,7.2,0.9
	c1.5,2.2,1.2,4.4,0.1,6.6c-1.9,1.6-4.3,1.3-6.5,1.6s-3.3,0.9-3.2,3.5c0.1,7-0.1,13.9-0.3,20.9c0,0.6,0.1,1.3-0.5,1.8
	c-0.2-0.4-0.4-0.8-0.5-1.2c-0.3-30.2-1.6-60.4-0.7-90.6C382.6,45.7,382.5,45,383.1,44.5z"></path>
<path class="st1 SsiHgzCS_42" d="M399.9,111.9c-2.3,0.1-2.4,1.5-2.4,3.4c-0.1,12.4-0.3,24.8-0.4,37.2c-0.1,7,0,14-1.2,21
	c-1.7-20.6-0.9-41.4-0.7-62c-0.3-3.1,3-2.4,4.5-3.7c0.6-0.5,1.4,1.2,1.2,2.1C400.6,110.6,399.6,111,399.9,111.9z"></path>
<path class="st1 SsiHgzCS_43" d="M400.2,43.3V29.5h0.6c0,1,0.1,2,0.1,3c0.3,21.6,0.5,43.2,0.7,64.9c0,1.9,0.4,4-2.1,4.9
	c-0.6,0.6-1.3,0.4-1.9,0.3c-0.3-5,3-10,0.1-15.1c1.1-0.4,1.9-1.4,2-2.6c0.7-0.4,0.7-1,0.3-1.6l0.1-3.1c0.5-3.6,0.5-7.2,0.1-10.7
	c0-5.7,0-11.3,0-17v-0.8L400.2,43.3z"></path>
<path class="st1 SsiHgzCS_44" d="M383.8,148.6c1,0.4,0.9,1.2,0.9,1.9c0.1,12.3,0.2,24.7,0.3,37c-0.1,0.5-0.3,1-0.5,1.5c-0.9-1-0.6-2.3-0.6-3.5
	c-0.2-11.6-0.3-23.1-0.4-34.7C383.5,150,383.6,149.3,383.8,148.6z"></path>
<path class="st1 SsiHgzCS_45" d="M397.6,1.6c0.9,2.1,0.6,3.3-2.1,3c-1.6-0.1-3.3-0.1-4.9,0.2c-2.3,0.4-3.3-0.3-3.1-2.6
	C390.7-0.3,394.1,0.6,397.6,1.6z"></path>
<path class="st1 SsiHgzCS_46" d="M397.7,87.5c2.9,5-0.4,10-0.1,15.1h-2.7c0.9-2.2-0.2-4.4,0.1-6.5c1.3-0.3,0.8-1.8,1.5-2.2c1.3-0.7,1.1-1,0.2-2
	c-1.1-1.3-1.6-0.5-2.4,0c-0.3-1.5-0.8-3.1,1.8-2.9c0.7,0,0.4-0.8,0.6-1.2L397.7,87.5z"></path>
<path class="st1 SsiHgzCS_47" d="M384.4,192.1c1.5,0.9,0.9,2.3,0.9,3.5c-0.1,3.7,0.9,7.5-0.2,11.2C384.2,201.9,384,197,384.4,192.1z"></path>
<path class="st1 SsiHgzCS_48" d="M383.8,30.6c0.5,3.6,1,7.3-0.6,10.8C382.8,37.8,382.5,34.2,383.8,30.6z"></path>
<path class="st1 SsiHgzCS_49" d="M384.5,22.1c0.7,1.9,0.9,3.8-0.5,5.5C383.3,25.8,383.5,23.8,384.5,22.1z"></path>
<path class="st1 SsiHgzCS_50" d="M385.1,16.1c0.6,1.5,0.9,2.9-0.5,4.2C384.1,18.9,384.2,17.4,385.1,16.1z"></path>
<path class="st1 SsiHgzCS_51" d="M383.8,139.3c1.3,0.8,1.2,1.5,0,2.3C383.3,140.9,383.3,140,383.8,139.3z"></path>
<path class="st1 SsiHgzCS_52" d="M383.8,142.8c0.6,0.3,0.8,1,0.5,1.5c-0.1,0.2-0.3,0.3-0.5,0.5c-0.6-0.3-0.7-1-0.4-1.6
	C383.5,143,383.6,142.9,383.8,142.8z"></path>
<path class="st1 SsiHgzCS_53" d="M397.7,87.5l-0.9,0.2c-1,0.1-2-0.3-2.7-1c-0.1-0.3-0.1-0.6-0.6-0.6l0,0c2.1-15.5,0.3-31,0.9-46.5
	c0-1-1.1-2.7,1.5-2.8c2.3,0,3,0.9,3,2.9c0,1.3,0.1,2.6,1.3,3.6l0.1,8.4c-0.4,0.3-0.4,0.5,0,0.8c0,5.7,0,11.3,0,17
	c-0.6,3.5-0.7,7.2-0.1,10.7l-0.1,3.1c-0.5,0.4-0.6,1.1-0.3,1.6c0,0,0,0,0,0C399.6,86,398.8,87,397.7,87.5z"></path>
<path class="st1 SsiHgzCS_54" d="M394.4,91.8c0.8-0.6,1.3-1.3,2.4,0c0.9,1,1.1,1.3-0.2,2c-0.7,0.4-0.2,1.9-1.5,2.2
	C394.7,94.6,392.3,93.6,394.4,91.8z"></path>
<path class="st1 SsiHgzCS_55" d="M393.6,86.1c0.5,0,0.5,0.3,0.6,0.6C393.7,86.7,393.5,86.5,393.6,86.1z"></path>
<path class="st1 SsiHgzCS_56" d="M400.1,80.2c-0.6-3.6-0.6-7.2,0.1-10.7C400.7,73.1,400.7,76.7,400.1,80.2z"></path>
<path class="st1 SsiHgzCS_57" d="M399.7,84.8c-0.4-0.5-0.2-1.2,0.3-1.6c0,0,0,0,0,0C400.4,83.9,400.4,84.4,399.7,84.8z"></path>
<path class="st1 SsiHgzCS_58" d="M400.2,52.5c-0.4-0.3-0.4-0.5,0-0.8V52.5z"></path>
<path class="st0 SsiHgzCS_59" d="M390.3,241.8h3.2v35.5h-3.2V241.8z"></path>
<path class="st0 SsiHgzCS_60" d="M440.3,191.8h3.8v86.4h-3.8V191.8z"></path>
<g class="st5">
	<path class="st6 SsiHgzCS_61" d="M429.1,298.1v7.9h-28.7l-0.1-6.5l13.7-14.1c1.1-1.1,1.9-2.2,2.6-3.3c0.7-1.1,1-2.1,1-2.8c0-1-0.4-1.8-1.1-2.4
		c-0.8-0.6-1.8-0.8-3.2-0.8c-1.5,0-3.2,0.4-5,1.3c-1.8,0.8-3.6,2-5.3,3.5l-3.8-7.2c5.2-3.8,10.4-5.6,15.6-5.6c2.5,0,4.7,0.4,6.7,1.2
		c2,0.8,3.5,2,4.7,3.5c1.1,1.5,1.7,3.2,1.7,5.2c0,1.9-0.6,3.9-1.9,6c-1.3,2.1-3.1,4.2-5.4,6.6l-7.7,7.7H429.1z"></path>
	<path class="st6 SsiHgzCS_62" d="M462.2,273c2.9,3.3,4.3,8,4.3,14.2c0,6.2-1.4,10.9-4.3,14.2c-2.9,3.3-7,5-12.3,5c-5.4,0-9.5-1.7-12.4-5
		c-2.9-3.3-4.3-8-4.3-14.2c0-6.2,1.4-10.9,4.3-14.2c2.9-3.3,7-4.9,12.4-4.9C455.2,268,459.3,269.7,462.2,273z M444.7,278.1
		c-1,1.8-1.6,4.9-1.6,9c0,4.2,0.5,7.3,1.6,9.1c1,1.8,2.7,2.8,5.1,2.8c2.3,0,4-0.9,5-2.8c1.1-1.9,1.6-4.9,1.6-9.1s-0.5-7.2-1.6-9
		c-1.1-1.8-2.7-2.8-5-2.8C447.5,275.3,445.8,276.3,444.7,278.1z"></path>
	<path class="st6 SsiHgzCS_63" d="M467.8,268.4h17.1V306h-9.8v-29.6h-7.2V268.4z"></path>
	<path class="st6 SsiHgzCS_64" d="M516.2,270.7c2.4,1.8,3.6,4.3,3.6,7.4c0,1.6-0.4,3.1-1.2,4.4c-0.8,1.4-1.9,2.5-3.2,3.3c2,0.9,3.5,2.2,4.7,3.9
		c1.1,1.7,1.7,3.6,1.7,5.7c0,2.2-0.6,4.2-1.9,5.8c-1.2,1.7-3,2.9-5.3,3.8c-2.3,0.9-5,1.3-8,1.3c-3,0-5.7-0.4-8-1.3
		c-2.3-0.9-4-2.2-5.3-3.8c-1.3-1.6-1.9-3.5-1.9-5.7c0-2.1,0.6-4,1.9-5.8c1.3-1.7,2.9-3,5-3.9c-1.5-0.9-2.7-2.1-3.6-3.5
		c-0.9-1.4-1.3-2.9-1.3-4.5c0-2,0.5-3.8,1.6-5.3c1.1-1.5,2.6-2.7,4.6-3.5c2-0.8,4.3-1.2,6.9-1.2
		C510.5,267.9,513.8,268.8,516.2,270.7z M502.2,291.1c-1,0.8-1.5,2-1.5,3.5c0,1.5,0.5,2.7,1.5,3.5s2.5,1.2,4.4,1.2
		c1.9,0,3.4-0.4,4.4-1.2c1-0.8,1.6-2,1.6-3.5c0-1.5-0.5-2.7-1.6-3.5c-1-0.8-2.5-1.2-4.4-1.2C504.7,289.9,503.2,290.3,502.2,291.1z
		 M502.8,275.6c-0.9,0.7-1.3,1.7-1.3,3.1c0,1.3,0.4,2.3,1.3,3c0.9,0.7,2.1,1,3.7,1c1.6,0,2.9-0.3,3.8-1s1.3-1.7,1.3-3
		c0-1.3-0.4-2.3-1.3-3.1s-2.1-1.1-3.8-1.1C504.9,274.5,503.7,274.9,502.8,275.6z"></path>
</g>
<path class="st7 SsiHgzCS_65" d="M18.4,50.3h0.8l5.6,13.3h-1L22,59.2h-6.4l-1.9,4.4h-1L18.4,50.3z M21.7,58.5l-2.9-7l-3,7H21.7z"></path>
<path class="st7 SsiHgzCS_66" d="M24.9,67c-0.4,0-0.8-0.1-1.1-0.2c-0.3-0.1-0.7-0.3-0.9-0.5l0.5-0.6c0.2,0.2,0.4,0.3,0.7,0.4
	c0.2,0.1,0.5,0.1,0.8,0.1c0.2,0,0.5,0,0.7-0.1c0.2-0.1,0.4-0.2,0.6-0.4c0.2-0.2,0.3-0.4,0.4-0.6c0.1-0.2,0.2-0.5,0.2-0.8V53.9h0.9
	v10.3c0,0.4-0.1,0.8-0.2,1.1c-0.2,0.3-0.4,0.6-0.6,0.9c-0.3,0.2-0.6,0.4-0.9,0.6C25.6,66.9,25.2,67,24.9,67z M26.7,51.7V50h0.9v1.7
	H26.7z"></path>
<path class="st7 SsiHgzCS_67" d="M33,63.8c-0.8,0-1.7-0.3-2.3-0.9c-0.3-0.3-0.5-0.6-0.7-1c-0.2-0.4-0.2-0.8-0.2-1.2c0-0.4,0.1-0.8,0.3-1.1
	c0.2-0.4,0.5-0.7,0.8-0.9c0.4-0.3,0.8-0.5,1.3-0.6c0.5-0.1,1.1-0.2,1.7-0.2c0.5,0,1.1,0,1.6,0.1c0.5,0.1,1,0.2,1.4,0.4v-1
	c0-0.8-0.2-1.6-0.8-2.2c-0.6-0.6-1.3-0.9-2.1-0.8c-0.5,0-1,0.1-1.5,0.3c-0.6,0.2-1.1,0.5-1.6,0.9l-0.4-0.6c1-0.8,2.3-1.2,3.6-1.3
	c1-0.1,2,0.3,2.8,1c0.7,0.8,1.1,1.8,1,2.8v4.8c0,0.3,0.1,0.5,0.4,0.5v0.9H38h-0.2c-0.2,0-0.4-0.1-0.6-0.3c-0.1-0.2-0.2-0.4-0.3-0.6
	V62c-0.4,0.6-1,1.1-1.7,1.4C34.5,63.6,33.7,63.8,33,63.8z M33.1,63.1c0.7,0,1.4-0.1,2-0.4c0.6-0.2,1-0.6,1.4-1.1
	c0.2-0.2,0.3-0.5,0.3-0.8v-1.7c-0.5-0.2-0.9-0.3-1.4-0.4c-0.5-0.1-1-0.1-1.5-0.1c-0.4,0-0.9,0-1.3,0.2c-0.4,0.1-0.7,0.2-1,0.4
	c-0.3,0.2-0.5,0.4-0.7,0.7c-0.2,0.3-0.2,0.6-0.2,0.9c0,0.3,0.1,0.6,0.2,0.9c0.1,0.3,0.3,0.5,0.5,0.7c0.2,0.2,0.5,0.4,0.8,0.5
	C32.5,63,32.8,63.1,33.1,63.1L33.1,63.1z"></path>
<path class="st7 SsiHgzCS_68" d="M41,66.9h0.3h0.3c0.1,0,0.2,0,0.3-0.1c0.1,0,0.2-0.1,0.2-0.2c0.1-0.1,0.2-0.3,0.3-0.4c0.1-0.2,0.3-0.5,0.4-0.9
	l0.7-1.7l-4.3-9.7h1l3.9,8.8l3.6-8.8h0.9l-5.3,12.8c-0.1,0.3-0.4,0.6-0.7,0.8c-0.4,0.2-0.8,0.3-1.3,0.3h-0.2H41L41,66.9z"></path>
<path class="st7 SsiHgzCS_69" d="M55.1,63.6V50.3h1v8.1l7.8-8.1H65l-5.5,5.8l5.7,7.5h-1.1l-5.3-6.9L56,59.5v4.1H55.1z"></path>
<path class="st7 SsiHgzCS_70" d="M69.4,63.8c-2.1,0-3.1-1.4-3.1-4.3v-5.6h0.9v5.5c0,2.4,0.8,3.6,2.4,3.6c0.4,0,0.8-0.1,1.2-0.2
	c0.8-0.3,1.5-0.8,2-1.5c0.3-0.4,0.5-0.8,0.6-1.2v-6.1h0.9v8.4c0,0.3,0.1,0.5,0.4,0.5v0.8h-0.2h-0.1c-0.2,0-0.5-0.1-0.7-0.2
	c-0.2-0.2-0.3-0.4-0.3-0.6v-1.5C72.8,62.8,71.2,63.8,69.4,63.8L69.4,63.8z"></path>
<path class="st7 SsiHgzCS_71" d="M91.7,63.6h-0.9v-5.4c0.1-0.9-0.1-1.9-0.6-2.7c-0.4-0.6-1.1-0.9-1.8-0.9c-0.4,0-0.8,0.1-1.1,0.2
	c-0.4,0.2-0.7,0.4-1,0.6c-0.3,0.3-0.6,0.6-0.8,1c-0.2,0.4-0.4,0.8-0.5,1.2v6h-0.9v-5.4c0.1-1-0.1-1.9-0.6-2.8
	c-0.4-0.6-1-0.9-1.7-0.9c-0.4,0-0.8,0.1-1.1,0.2c-0.4,0.1-0.7,0.4-1,0.6c-0.3,0.3-0.6,0.6-0.8,1c-0.2,0.4-0.4,0.8-0.5,1.2v6h-0.9
	v-9.7h0.9v2.3c0.4-0.7,0.9-1.4,1.6-1.8c0.6-0.4,1.4-0.7,2.2-0.7c0.7,0,1.5,0.2,2,0.7c0.5,0.5,0.8,1.2,0.9,1.9
	c0.6-1.6,2.1-2.6,3.8-2.6c0.9-0.1,1.8,0.4,2.3,1.1c0.5,1,0.7,2.1,0.7,3.2V63.6z"></path>
<path class="st7 SsiHgzCS_72" d="M96.9,63.8c-0.8,0-1.7-0.3-2.3-0.9c-0.3-0.3-0.5-0.6-0.7-1c-0.2-0.4-0.2-0.8-0.2-1.2c0-0.4,0.1-0.8,0.3-1.2
	c0.2-0.4,0.5-0.7,0.8-0.9c0.4-0.3,0.8-0.5,1.3-0.6c0.5-0.1,1.1-0.2,1.7-0.2c0.5,0,1.1,0,1.6,0.1c0.5,0.1,1,0.2,1.4,0.4v-1
	c0-0.8-0.2-1.6-0.8-2.2c-0.6-0.6-1.3-0.9-2.1-0.8c-0.5,0-1,0.1-1.5,0.3c-0.6,0.2-1.1,0.5-1.6,0.9l-0.4-0.6c1-0.8,2.3-1.2,3.6-1.3
	c1-0.1,2,0.3,2.8,1c0.7,0.8,1.1,1.8,1,2.8v4.8c0,0.3,0.1,0.5,0.4,0.5v0.9h-0.2h-0.2c-0.2,0-0.4-0.1-0.6-0.3
	c-0.1-0.2-0.2-0.4-0.3-0.6V62c-0.4,0.6-1,1.1-1.7,1.4C98.5,63.6,97.7,63.8,96.9,63.8z M97.1,63.1c0.7,0,1.4-0.1,2-0.4
	c0.6-0.2,1-0.6,1.4-1.1c0.2-0.2,0.3-0.5,0.3-0.8v-1.7c-0.5-0.2-0.9-0.3-1.4-0.4c-0.5-0.1-1-0.1-1.5-0.1c-0.4,0-0.9,0-1.3,0.2
	c-0.4,0.1-0.7,0.2-1,0.4c-0.3,0.2-0.5,0.4-0.7,0.7c-0.2,0.3-0.2,0.6-0.2,0.9c0,0.3,0.1,0.6,0.2,0.9c0.1,0.3,0.3,0.5,0.5,0.7
	c0.2,0.2,0.5,0.4,0.8,0.5C96.5,63,96.8,63.1,97.1,63.1L97.1,63.1z"></path>
<path class="st7 SsiHgzCS_73" d="M109.2,54.7c-1.7,0-3.2,1.2-3.7,2.8v6.1h-0.9v-9.7h0.9v2.4c0.3-0.7,0.8-1.2,1.3-1.7c0.5-0.4,1.1-0.7,1.8-0.7
	h0.3h0.2V54.7z"></path>
<path class="st7 SsiHgzCS_74" d="M125.4,61.6c-1.1,1.4-2.7,2.2-4.5,2.2c-0.9,0-1.7-0.2-2.5-0.6c-0.8-0.4-1.4-0.9-2-1.5c-0.6-0.6-1-1.4-1.3-2.2
	c-0.3-0.8-0.5-1.6-0.5-2.5c0-0.9,0.2-1.7,0.5-2.5c0.3-0.8,0.7-1.5,1.3-2.1c0.5-0.6,1.2-1.1,1.9-1.5c0.8-0.4,1.6-0.6,2.4-0.5
	c0.6,0,1.2,0.1,1.8,0.2c0.5,0.1,1,0.3,1.4,0.6c0.4,0.2,0.8,0.6,1.1,0.9c0.3,0.4,0.6,0.7,0.8,1.2l-0.8,0.5c-0.4-0.8-1-1.5-1.8-1.9
	c-0.8-0.4-1.6-0.6-2.5-0.6c-0.7,0-1.5,0.2-2.1,0.5c-0.6,0.3-1.2,0.8-1.6,1.3c-0.4,0.6-0.8,1.2-1,1.9c-0.2,0.7-0.4,1.4-0.4,2.1
	c0,0.8,0.1,1.5,0.4,2.2c0.3,0.7,0.6,1.3,1.1,1.9c0.5,0.5,1.1,1,1.7,1.3c0.7,0.3,1.4,0.5,2.1,0.5c0.8,0,1.6-0.2,2.3-0.6
	c0.8-0.4,1.5-1.1,2.1-1.8v-2.6h-3v-0.8h3.8v6.5h-0.8L125.4,61.6z"></path>
<path class="st7 SsiHgzCS_75" d="M131.2,63.8c-0.8,0-1.7-0.3-2.3-0.9c-0.3-0.3-0.5-0.6-0.7-1c-0.2-0.4-0.2-0.8-0.2-1.2c0-0.4,0.1-0.8,0.3-1.2
	c0.2-0.4,0.5-0.7,0.8-0.9c0.4-0.3,0.8-0.5,1.3-0.6c0.5-0.1,1.1-0.2,1.6-0.2c0.5,0,1.1,0,1.6,0.1c0.5,0.1,1,0.2,1.4,0.4v-1
	c0-0.8-0.2-1.6-0.8-2.2c-0.6-0.6-1.3-0.9-2.1-0.8c-0.5,0-1,0.1-1.5,0.3c-0.6,0.2-1.1,0.5-1.6,0.9l-0.4-0.6c1-0.8,2.3-1.2,3.6-1.3
	c1-0.1,2,0.3,2.8,1c0.7,0.8,1.1,1.8,1,2.8v4.8c0,0.3,0.1,0.5,0.4,0.5v0.9h-0.2H136c-0.2,0-0.4-0.1-0.6-0.3c-0.1-0.2-0.2-0.4-0.3-0.6
	V62c-0.4,0.6-1,1.1-1.7,1.4C132.7,63.6,131.9,63.8,131.2,63.8z M131.4,63.1c0.7,0,1.4-0.1,2-0.4c0.6-0.2,1-0.6,1.4-1.1
	c0.2-0.2,0.3-0.5,0.3-0.8v-1.7c-0.5-0.2-0.9-0.3-1.4-0.4c-0.5-0.1-1-0.1-1.6-0.1c-0.4,0-0.9,0-1.3,0.2c-0.4,0.1-0.7,0.2-1,0.4
	c-0.3,0.2-0.5,0.4-0.7,0.7c-0.2,0.3-0.2,0.6-0.2,0.9c0,0.3,0.1,0.6,0.2,0.9c0.1,0.3,0.3,0.5,0.5,0.7c0.2,0.2,0.5,0.4,0.8,0.5
	C130.7,63.1,131,63.1,131.4,63.1z"></path>
<path class="st7 SsiHgzCS_76" d="M143.4,54.7c-1.7,0-3.2,1.2-3.7,2.8v6.1h-0.9v-9.7h0.9v2.4c0.3-0.6,0.8-1.2,1.4-1.7c0.5-0.4,1.1-0.7,1.8-0.7
	h0.3h0.2L143.4,54.7z"></path>
<path class="st7 SsiHgzCS_77" d="M148.7,63.8c-0.6,0-1.3-0.1-1.9-0.4c-0.6-0.3-1-0.7-1.4-1.1c-0.4-0.5-0.8-1-1-1.6c-0.2-0.6-0.3-1.2-0.4-1.9
	c0-0.7,0.1-1.3,0.3-1.9c0.2-0.6,0.5-1.1,0.9-1.6c0.4-0.5,0.9-0.8,1.4-1.1c0.6-0.3,1.2-0.4,1.9-0.4c0.8,0,1.6,0.2,2.2,0.7
	c0.6,0.4,1.2,1,1.6,1.6v-2.1h0.9v9.9c0,0.6-0.1,1.2-0.4,1.7c-0.2,0.5-0.6,0.9-1,1.3c-0.4,0.3-0.9,0.6-1.5,0.8
	c-0.6,0.2-1.2,0.3-1.8,0.3c-0.5,0-1,0-1.5-0.2c-0.4-0.1-0.8-0.2-1.2-0.5c-0.3-0.2-0.7-0.4-0.9-0.7c-0.3-0.3-0.5-0.6-0.7-0.9l0.6-0.4
	c0.4,0.6,0.9,1.1,1.6,1.5c0.7,0.3,1.4,0.5,2.1,0.5c0.5,0,1-0.1,1.4-0.2c0.4-0.1,0.8-0.3,1.2-0.6c0.3-0.3,0.6-0.6,0.8-1
	c0.2-0.4,0.3-0.9,0.3-1.4v-2.1c-0.4,0.6-0.9,1.2-1.6,1.5C150.1,63.6,149.4,63.8,148.7,63.8z M148.9,63c0.4,0,0.8-0.1,1.2-0.2
	c0.4-0.2,0.7-0.4,1.1-0.6c0.3-0.2,0.6-0.5,0.8-0.8c0.2-0.3,0.3-0.6,0.4-0.9v-3.2c-0.2-0.4-0.4-0.7-0.6-1c-0.2-0.3-0.5-0.6-0.9-0.8
	c-0.3-0.2-0.6-0.4-1-0.5c-0.4-0.1-0.7-0.2-1.1-0.2c-0.5,0-1.1,0.1-1.6,0.4c-0.5,0.2-0.9,0.6-1.2,1c-0.3,0.4-0.6,0.9-0.7,1.4
	c-0.2,0.5-0.2,1-0.3,1.5c0,0.5,0.1,1.1,0.3,1.6c0.2,0.5,0.5,0.9,0.8,1.3c0.3,0.4,0.8,0.7,1.2,0.9C147.9,62.9,148.4,63,148.9,63
	L148.9,63z"></path>
<path class="st7 SsiHgzCS_78" d="M170.2,62.8v0.8h-8.9V50.3h8.7v0.9h-7.7v5.2h6.8v0.8h-6.8v5.5L170.2,62.8z"></path>
<path class="st7 SsiHgzCS_79" d="M180.3,63.6h-0.9v-5.4c0.1-0.9-0.1-1.9-0.5-2.8c-0.4-0.6-1-0.9-1.7-0.9c-0.4,0-0.8,0.1-1.2,0.2
	c-0.4,0.2-0.8,0.4-1.1,0.6c-0.4,0.3-0.7,0.6-0.9,1c-0.3,0.4-0.5,0.8-0.6,1.2v6h-0.9v-9.7h0.9v2.3c0.2-0.4,0.4-0.7,0.7-1
	c0.3-0.3,0.6-0.6,1-0.8c0.4-0.2,0.8-0.4,1.2-0.5c0.4-0.1,0.8-0.2,1.3-0.2c0.9-0.1,1.8,0.3,2.3,1.1c0.5,1,0.7,2.1,0.7,3.2L180.3,63.6
	z"></path>
<path class="st7 SsiHgzCS_80" d="M187.1,63.8c-0.6,0-1.3-0.1-1.9-0.4c-0.6-0.3-1-0.7-1.4-1.1c-0.4-0.5-0.8-1-1-1.6c-0.2-0.6-0.3-1.2-0.4-1.9
	c0-0.7,0.1-1.3,0.3-1.9c0.2-0.6,0.5-1.1,0.9-1.6c0.4-0.5,0.9-0.8,1.4-1.1c0.6-0.3,1.2-0.4,1.9-0.4c0.8,0,1.6,0.2,2.2,0.7
	c0.6,0.4,1.2,1,1.6,1.6v-2.1h0.9v9.9c0,0.6-0.1,1.2-0.4,1.7c-0.2,0.5-0.6,0.9-1,1.3c-0.4,0.3-0.9,0.6-1.5,0.8
	c-0.6,0.2-1.2,0.3-1.8,0.3c-0.5,0-1,0-1.5-0.2c-0.4-0.1-0.8-0.2-1.2-0.5c-0.3-0.2-0.7-0.4-0.9-0.7c-0.3-0.3-0.5-0.6-0.7-0.9l0.6-0.4
	c0.4,0.6,0.9,1.1,1.6,1.5c0.7,0.3,1.4,0.5,2.1,0.5c0.5,0,1-0.1,1.4-0.2c0.4-0.1,0.8-0.3,1.2-0.6c0.3-0.3,0.6-0.6,0.8-1
	c0.2-0.4,0.3-0.9,0.3-1.4v-2.1c-0.4,0.6-0.9,1.2-1.6,1.5C188.5,63.6,187.8,63.8,187.1,63.8z M187.3,63c0.4,0,0.8-0.1,1.2-0.2
	c0.4-0.2,0.7-0.4,1.1-0.6c0.3-0.2,0.6-0.5,0.8-0.8c0.2-0.3,0.3-0.6,0.4-0.9v-3.2c-0.2-0.4-0.4-0.7-0.6-1c-0.2-0.3-0.5-0.6-0.9-0.8
	c-0.3-0.2-0.6-0.4-1-0.5c-0.4-0.1-0.7-0.2-1.1-0.2c-0.5,0-1.1,0.1-1.6,0.4c-0.5,0.2-0.9,0.6-1.2,1c-0.3,0.4-0.6,0.9-0.7,1.4
	c-0.2,0.5-0.2,1-0.3,1.5c0,0.5,0.1,1.1,0.3,1.6c0.2,0.5,0.5,0.9,0.8,1.3c0.3,0.4,0.8,0.7,1.2,0.9C186.3,62.9,186.8,63,187.3,63
	L187.3,63z"></path>
<path class="st7 SsiHgzCS_81" d="M194.6,51.7V50h0.9v1.7H194.6z M194.6,63.7V54h0.9v9.7L194.6,63.7z"></path>
<path class="st7 SsiHgzCS_82" d="M206.5,63.6h-0.9v-5.4c0.1-0.9-0.1-1.9-0.5-2.8c-0.4-0.6-1-0.9-1.7-0.9c-0.4,0-0.8,0.1-1.2,0.2
	c-0.4,0.2-0.8,0.4-1.1,0.6c-0.4,0.3-0.7,0.6-0.9,1c-0.3,0.4-0.5,0.8-0.6,1.2v6h-0.9v-9.7h0.9v2.3c0.2-0.4,0.4-0.7,0.7-1
	c0.3-0.3,0.6-0.6,1-0.8c0.4-0.2,0.8-0.4,1.2-0.5c0.4-0.1,0.8-0.2,1.3-0.2c0.9-0.1,1.8,0.3,2.3,1.1c0.5,1,0.7,2.1,0.7,3.2L206.5,63.6
	z"></path>
<path class="st7 SsiHgzCS_83" d="M213.4,63.8c-0.7,0-1.3-0.1-1.9-0.4c-0.6-0.3-1.1-0.6-1.5-1.1c-0.9-1-1.4-2.3-1.4-3.6c0-1.3,0.5-2.6,1.4-3.5
	c0.4-0.5,0.9-0.8,1.5-1.1c1.2-0.5,2.6-0.5,3.8,0c0.6,0.3,1.1,0.6,1.5,1.1c0.4,0.5,0.8,1,1,1.6c0.2,0.6,0.4,1.3,0.4,1.9V59
	c0,0.1,0,0.1,0,0.2h-8.5c0,0.5,0.2,1.1,0.4,1.6c0.2,0.5,0.5,0.9,0.9,1.3c0.3,0.3,0.7,0.6,1.2,0.8c0.5,0.2,0.9,0.3,1.4,0.3
	c0.3,0,0.7,0,1-0.1c0.3-0.1,0.6-0.2,0.9-0.4c0.3-0.2,0.5-0.4,0.8-0.6c0.2-0.2,0.4-0.5,0.5-0.8l0.8,0.2c-0.1,0.4-0.3,0.7-0.6,1
	c-0.3,0.3-0.6,0.6-0.9,0.8c-0.4,0.2-0.8,0.4-1.2,0.5C214.4,63.8,213.9,63.9,213.4,63.8z M217.3,58.4c0-0.5-0.2-1.1-0.4-1.6
	c-0.2-0.4-0.5-0.9-0.8-1.2c-0.3-0.3-0.7-0.6-1.2-0.8c-0.9-0.4-2-0.4-2.9,0c-0.4,0.2-0.8,0.5-1.2,0.8c-0.4,0.4-0.6,0.8-0.8,1.2
	c-0.2,0.5-0.3,1-0.4,1.6L217.3,58.4z"></path>
<path class="st7 SsiHgzCS_84" d="M224.4,63.8c-0.7,0-1.3-0.1-1.9-0.4c-0.6-0.3-1.1-0.6-1.5-1.1c-0.9-1-1.4-2.3-1.4-3.6c0-1.3,0.5-2.6,1.4-3.5
	c0.4-0.5,0.9-0.8,1.5-1.1c1.2-0.5,2.6-0.5,3.8,0c0.6,0.3,1.1,0.6,1.5,1.1c0.4,0.5,0.8,1,1,1.6c0.2,0.6,0.4,1.3,0.4,1.9V59
	c0,0.1,0,0.1,0,0.2h-8.5c0,0.5,0.2,1.1,0.4,1.6c0.2,0.5,0.5,0.9,0.9,1.3c0.3,0.3,0.7,0.6,1.2,0.8c0.8,0.3,1.6,0.4,2.4,0.2
	c0.3-0.1,0.6-0.2,0.9-0.4c0.3-0.2,0.5-0.4,0.8-0.6c0.2-0.2,0.4-0.5,0.5-0.8l0.8,0.2c-0.1,0.4-0.3,0.7-0.6,1
	c-0.3,0.3-0.6,0.6-0.9,0.8c-0.4,0.2-0.8,0.4-1.2,0.5C225.3,63.8,224.8,63.9,224.4,63.8z M228.2,58.4c0-0.5-0.2-1.1-0.4-1.6
	c-0.2-0.5-0.5-0.9-0.8-1.2c-0.3-0.3-0.7-0.6-1.2-0.8c-0.9-0.4-2-0.4-2.9,0c-0.4,0.2-0.8,0.5-1.2,0.8c-0.4,0.4-0.6,0.8-0.8,1.2
	c-0.2,0.5-0.3,1-0.4,1.6L228.2,58.4z"></path>
<path class="st7 SsiHgzCS_85" d="M235.8,54.7c-1.7,0-3.2,1.2-3.7,2.8v6.1h-0.9v-9.7h0.9v2.4c0.3-0.7,0.8-1.2,1.3-1.7c0.5-0.4,1.1-0.7,1.8-0.7
	h0.3h0.2L235.8,54.7z"></path>
<path class="st7 SsiHgzCS_86" d="M237.6,51.7V50h0.9v1.7H237.6z M237.6,63.7V54h0.9v9.7L237.6,63.7z"></path>
<path class="st7 SsiHgzCS_87" d="M249.4,63.6h-0.9v-5.4c0.1-0.9-0.1-1.9-0.5-2.8c-0.4-0.6-1-0.9-1.7-0.9c-0.4,0-0.8,0.1-1.2,0.2
	c-0.4,0.2-0.8,0.4-1.1,0.6c-0.4,0.3-0.7,0.6-0.9,1c-0.3,0.4-0.5,0.8-0.6,1.2v6h-0.9v-9.7h0.9v2.3c0.2-0.4,0.4-0.7,0.7-1
	c0.3-0.3,0.6-0.6,1-0.8c0.4-0.2,0.8-0.4,1.2-0.5c0.4-0.1,0.8-0.2,1.3-0.2c0.9-0.1,1.8,0.3,2.3,1.1c0.5,1,0.7,2.1,0.7,3.2L249.4,63.6
	z"></path>
<path class="st7 SsiHgzCS_88" d="M256.1,63.8c-0.6,0-1.3-0.1-1.9-0.4c-0.6-0.3-1-0.7-1.5-1.1c-0.4-0.5-0.8-1-1-1.6c-0.2-0.6-0.3-1.2-0.4-1.9
	c0-0.7,0.1-1.3,0.3-1.9c0.2-0.6,0.5-1.1,0.9-1.6c0.4-0.5,0.9-0.8,1.4-1.1c0.6-0.3,1.2-0.4,1.9-0.4c0.8,0,1.6,0.2,2.2,0.7
	c0.6,0.4,1.2,1,1.6,1.6v-2.1h0.9v9.9c0,0.6-0.1,1.2-0.4,1.7c-0.2,0.5-0.6,0.9-1,1.3c-0.4,0.3-0.9,0.6-1.5,0.8
	c-0.6,0.2-1.2,0.3-1.8,0.3c-0.5,0-1,0-1.5-0.2c-0.4-0.1-0.8-0.2-1.2-0.5c-0.3-0.2-0.7-0.4-0.9-0.7c-0.3-0.3-0.5-0.6-0.7-0.9l0.6-0.4
	c0.4,0.7,1,1.2,1.7,1.5c0.7,0.3,1.4,0.5,2.1,0.5c0.5,0,1-0.1,1.4-0.2c0.4-0.1,0.8-0.3,1.2-0.6c0.3-0.3,0.6-0.6,0.8-1
	c0.2-0.4,0.3-0.9,0.3-1.4v-2.1c-0.4,0.6-0.9,1.2-1.6,1.5C257.6,63.6,256.9,63.8,256.1,63.8z M256.4,63c0.4,0,0.8-0.1,1.2-0.2
	c0.4-0.2,0.7-0.4,1.1-0.6c0.3-0.2,0.6-0.5,0.8-0.8c0.2-0.3,0.3-0.6,0.4-0.9v-3.2c-0.2-0.4-0.4-0.7-0.6-1c-0.2-0.3-0.5-0.6-0.9-0.8
	c-0.3-0.2-0.6-0.4-1-0.5c-0.4-0.1-0.7-0.2-1.1-0.2c-0.5,0-1.1,0.1-1.6,0.4c-0.5,0.2-0.9,0.6-1.2,1c-0.3,0.4-0.6,0.9-0.7,1.4
	c-0.2,0.5-0.2,1-0.3,1.5c0,0.5,0.1,1.1,0.3,1.6c0.2,0.5,0.5,0.9,0.8,1.3c0.3,0.4,0.8,0.7,1.2,0.9C255.4,62.9,255.9,63,256.4,63
	L256.4,63z"></path>
<path class="st7 SsiHgzCS_89" d="M267.9,56.9c0-0.8,0.1-1.6,0.4-2.4c0.3-0.8,0.7-1.5,1.2-2.1c0.6-0.6,1.2-1.2,2-1.5c0.8-0.4,1.7-0.6,2.7-0.6
	c1.1,0,2.1,0.3,3,0.8c0.8,0.5,1.5,1.2,1.9,2.1l-0.8,0.5c-0.2-0.4-0.5-0.8-0.8-1.2c-0.3-0.3-0.6-0.6-1-0.8c-0.4-0.2-0.7-0.3-1.1-0.4
	c-0.4-0.1-0.8-0.1-1.2-0.1c-0.8,0-1.6,0.2-2.3,0.5c-0.6,0.3-1.2,0.8-1.6,1.3c-0.4,0.6-0.8,1.2-1,1.9c-0.2,0.7-0.3,1.4-0.4,2.1
	c0,0.8,0.1,1.5,0.4,2.3c0.3,0.7,0.6,1.3,1.1,1.9c0.5,0.5,1,1,1.7,1.3c0.7,0.3,1.4,0.5,2.1,0.5c0.4,0,0.8-0.1,1.2-0.1
	c0.4-0.1,0.8-0.3,1.2-0.5c0.4-0.2,0.8-0.5,1.1-0.8c0.3-0.3,0.6-0.7,0.8-1.2l0.8,0.4c-0.2,0.5-0.5,0.9-0.9,1.3
	c-0.4,0.4-0.8,0.7-1.3,1c-0.5,0.3-1,0.5-1.5,0.6c-0.5,0.1-1,0.2-1.6,0.2c-0.9,0-1.7-0.2-2.5-0.6c-0.8-0.4-1.4-0.9-2-1.6
	c-0.6-0.6-1-1.4-1.3-2.2C268,58.6,267.9,57.8,267.9,56.9z"></path>
<path class="st7 SsiHgzCS_90" d="M285.5,63.8c-0.7,0-1.3-0.1-1.9-0.4c-0.6-0.3-1.1-0.6-1.5-1.1c-0.4-0.5-0.8-1-1-1.6c-0.2-0.6-0.4-1.3-0.4-1.9
	c0-1.3,0.5-2.6,1.4-3.6c0.4-0.5,0.9-0.8,1.5-1.1c0.6-0.3,1.2-0.4,1.9-0.4c0.6,0,1.3,0.1,1.9,0.4c0.6,0.3,1.1,0.6,1.5,1.1
	c0.4,0.5,0.8,1,1,1.6c0.7,1.9,0.4,4-1,5.5c-0.4,0.5-0.9,0.8-1.5,1.1C286.8,63.7,286.2,63.8,285.5,63.8z M281.7,58.8
	c0,0.6,0.1,1.1,0.3,1.6c0.2,0.5,0.5,0.9,0.8,1.3c0.3,0.4,0.8,0.7,1.2,0.9c0.9,0.5,2.1,0.5,3,0c0.5-0.2,0.9-0.5,1.2-0.9
	c1.1-1.3,1.4-3,0.8-4.6c-0.2-0.5-0.5-0.9-0.8-1.3c-0.3-0.4-0.8-0.7-1.2-0.9c-0.5-0.2-1-0.3-1.5-0.3c-0.5,0-1,0.1-1.5,0.3
	c-0.5,0.2-0.9,0.5-1.2,0.9c-0.4,0.4-0.6,0.9-0.8,1.4C281.8,57.7,281.7,58.3,281.7,58.8z"></path>
<path class="st7 SsiHgzCS_91" d="M292.6,50h1v11.8c0,0.3,0.1,0.6,0.3,0.9c0.2,0.2,0.5,0.3,0.9,0.3c0.2,0,0.3,0,0.5,0c0.2,0,0.4-0.1,0.5-0.1
	l0.2,0.8c-0.3,0.1-0.5,0.2-0.8,0.2c-0.3,0.1-0.5,0.1-0.8,0.1c-0.5,0-0.9-0.2-1.3-0.5c-0.3-0.3-0.5-0.8-0.5-1.3L292.6,50z"></path>
<path class="st7 SsiHgzCS_92" d="M297.4,50h1v11.8c0,0.3,0.1,0.6,0.3,0.9c0.2,0.2,0.5,0.3,0.9,0.3c0.2,0,0.3,0,0.5,0c0.2,0,0.4-0.1,0.5-0.1
	l0.2,0.8c-0.3,0.1-0.5,0.2-0.8,0.2c-0.3,0.1-0.5,0.1-0.8,0.1c-0.5,0-0.9-0.2-1.3-0.5c-0.3-0.3-0.5-0.8-0.5-1.3L297.4,50z"></path>
<path class="st7 SsiHgzCS_93" d="M306.4,63.8c-0.7,0-1.3-0.1-1.9-0.4c-0.6-0.3-1.1-0.6-1.5-1.1c-0.4-0.5-0.8-1-1-1.6c-0.3-0.6-0.4-1.3-0.4-2
	c0-0.7,0.1-1.3,0.4-1.9c0.2-0.6,0.6-1.1,1-1.6c0.4-0.5,0.9-0.8,1.5-1.1c1.2-0.5,2.6-0.5,3.8,0c0.6,0.3,1.1,0.6,1.5,1.1
	c0.4,0.5,0.8,1,1,1.6c0.2,0.6,0.4,1.3,0.4,1.9v0.2c0,0.1,0,0.1,0,0.2h-8.5c0,0.5,0.2,1.1,0.4,1.6c0.2,0.5,0.5,0.9,0.9,1.3
	c0.3,0.3,0.7,0.6,1.2,0.8c0.5,0.2,0.9,0.3,1.4,0.3c0.3,0,0.7,0,1-0.1c0.3-0.1,0.6-0.2,0.9-0.4c0.3-0.2,0.5-0.4,0.8-0.6
	c0.2-0.2,0.4-0.5,0.5-0.8l0.8,0.2c-0.1,0.4-0.3,0.7-0.6,1c-0.3,0.3-0.6,0.6-0.9,0.8c-0.4,0.2-0.8,0.4-1.2,0.5
	C307.3,63.8,306.8,63.8,306.4,63.8z M310.2,58.4c0-0.5-0.2-1.1-0.4-1.6c-0.2-0.5-0.5-0.9-0.8-1.2c-0.3-0.3-0.7-0.6-1.2-0.8
	c-0.9-0.4-2-0.4-2.9,0c-0.4,0.2-0.8,0.5-1.2,0.8c-0.4,0.4-0.6,0.8-0.8,1.2c-0.2,0.5-0.3,1-0.4,1.6L310.2,58.4z"></path>
<path class="st7 SsiHgzCS_94" d="M317.1,63.8c-0.6,0-1.3-0.1-1.9-0.4c-0.6-0.3-1-0.7-1.5-1.1c-0.4-0.5-0.8-1-1-1.6c-0.2-0.6-0.3-1.2-0.4-1.9
	c0-0.7,0.1-1.3,0.3-1.9c0.2-0.6,0.5-1.1,0.9-1.6c0.4-0.5,0.9-0.8,1.4-1.1c0.6-0.3,1.2-0.4,1.9-0.4c0.8,0,1.6,0.2,2.2,0.7
	c0.6,0.4,1.2,1,1.6,1.6v-2.1h0.9v9.9c0,0.6-0.1,1.2-0.4,1.7c-0.2,0.5-0.6,0.9-1,1.3c-0.4,0.3-0.9,0.6-1.5,0.8
	c-0.6,0.2-1.2,0.3-1.8,0.3c-0.5,0-1,0-1.5-0.2c-0.4-0.1-0.8-0.2-1.2-0.5c-0.3-0.2-0.7-0.4-0.9-0.7c-0.3-0.3-0.5-0.6-0.7-0.9l0.6-0.4
	c0.4,0.6,0.9,1.2,1.6,1.5c0.7,0.3,1.4,0.5,2.1,0.5c0.5,0,1-0.1,1.4-0.2c0.4-0.1,0.8-0.3,1.2-0.6c0.3-0.3,0.6-0.6,0.8-1
	c0.2-0.4,0.3-0.9,0.3-1.4v-2.1c-0.4,0.6-0.9,1.2-1.6,1.5C318.5,63.6,317.8,63.8,317.1,63.8z M317.3,63c0.4,0,0.8-0.1,1.2-0.2
	c0.4-0.2,0.7-0.4,1.1-0.6c0.3-0.2,0.6-0.5,0.8-0.8c0.2-0.3,0.3-0.6,0.4-0.9v-3.2c-0.2-0.4-0.4-0.7-0.6-1c-0.2-0.3-0.5-0.6-0.9-0.8
	c-0.3-0.2-0.6-0.4-1-0.5c-0.4-0.1-0.7-0.2-1.1-0.2c-0.5,0-1.1,0.1-1.6,0.4c-0.5,0.2-0.9,0.6-1.2,1c-0.3,0.4-0.6,0.9-0.7,1.4
	c-0.2,0.5-0.2,1-0.3,1.5c0,0.5,0.1,1.1,0.3,1.6c0.2,0.5,0.5,0.9,0.8,1.3c0.3,0.4,0.8,0.7,1.2,0.9C316.3,62.9,316.8,63,317.3,63
	L317.3,63z"></path>
<path class="st7 SsiHgzCS_95" d="M328.8,63.8c-0.7,0-1.3-0.1-1.9-0.4c-0.6-0.3-1.1-0.6-1.5-1.1c-0.4-0.5-0.8-1-1-1.6c-0.3-0.6-0.4-1.3-0.4-2
	c0-0.7,0.1-1.3,0.4-1.9c0.2-0.6,0.6-1.1,1-1.6c0.4-0.5,0.9-0.8,1.5-1.1c1.2-0.5,2.6-0.5,3.8,0c0.6,0.3,1.1,0.7,1.5,1.1
	c0.4,0.5,0.8,1,1,1.6c0.2,0.6,0.4,1.3,0.4,1.9V59c0,0.1,0,0.1,0,0.2h-8.5c0,0.5,0.2,1.1,0.4,1.6c0.2,0.5,0.5,0.9,0.9,1.3
	c0.3,0.3,0.7,0.6,1.2,0.8c0.5,0.2,0.9,0.3,1.4,0.3c0.3,0,0.7,0,1-0.1c0.3-0.1,0.6-0.2,0.9-0.4c0.3-0.2,0.5-0.4,0.8-0.6
	c0.2-0.2,0.4-0.5,0.5-0.8l0.8,0.2c-0.1,0.4-0.3,0.7-0.6,1c-0.3,0.3-0.6,0.6-0.9,0.8c-0.4,0.2-0.8,0.4-1.2,0.5
	C329.6,63.8,329.2,63.9,328.8,63.8z M332.6,58.4c0-0.5-0.2-1.1-0.4-1.6c-0.2-0.5-0.5-0.9-0.8-1.2c-0.3-0.3-0.7-0.6-1.2-0.8
	c-0.9-0.4-2-0.4-2.9,0c-0.4,0.2-0.9,0.5-1.2,0.8c-0.4,0.4-0.6,0.8-0.8,1.2c-0.2,0.5-0.3,1-0.4,1.6L332.6,58.4z"></path>
<g class="st5">
	<path class="st6 SsiHgzCS_96" d="M212,220.9c0,0.4-0.3,0.8-0.8,0.8c-0.4,0-0.7-0.3-0.7-0.8c0-0.4,0.3-0.8,0.8-0.8
		C211.7,220.1,212,220.5,212,220.9z M210.6,229.7v-6.8h1.2v6.8H210.6z"></path>
	<path class="st6 SsiHgzCS_97" d="M213.9,224.7c0-0.7,0-1.3-0.1-1.8h1.1l0.1,1.1h0c0.3-0.7,1.1-1.3,2.3-1.3c0.9,0,2.4,0.6,2.4,2.9v4.1h-1.2v-3.9
		c0-1.1-0.4-2-1.6-2c-0.8,0-1.5,0.6-1.7,1.3c-0.1,0.2-0.1,0.4-0.1,0.6v4.1h-1.2V224.7z"></path>
	<path class="st6 SsiHgzCS_98" d="M228.5,229.7l-0.1-0.9h0c-0.4,0.5-1.1,1-2.1,1c-1.4,0-2.1-1-2.1-2c0-1.7,1.5-2.6,4.1-2.5v-0.1
		c0-0.6-0.2-1.6-1.6-1.6c-0.6,0-1.3,0.2-1.8,0.5l-0.3-0.8c0.6-0.4,1.4-0.6,2.2-0.6c2.1,0,2.6,1.4,2.6,2.8v2.6c0,0.6,0,1.2,0.1,1.6
		H228.5z M228.3,226.2c-1.4,0-2.9,0.2-2.9,1.5c0,0.8,0.5,1.2,1.2,1.2c0.9,0,1.5-0.6,1.7-1.1c0-0.1,0.1-0.3,0.1-0.4V226.2z"></path>
	<path class="st6 SsiHgzCS_99" d="M231.4,228.4c0.4,0.2,1,0.5,1.6,0.5c0.9,0,1.3-0.5,1.3-1c0-0.6-0.4-0.9-1.3-1.3c-1.2-0.4-1.8-1.1-1.8-1.9
		c0-1.1,0.9-2,2.4-2c0.7,0,1.3,0.2,1.7,0.4L235,224c-0.3-0.2-0.8-0.4-1.4-0.4c-0.7,0-1.1,0.4-1.1,0.9c0,0.6,0.4,0.8,1.3,1.2
		c1.2,0.5,1.8,1,1.8,2.1c0,1.2-0.9,2-2.6,2c-0.7,0-1.4-0.2-1.9-0.5L231.4,228.4z"></path>
	<path class="st6 SsiHgzCS_100" d="M236.9,228.4c0.4,0.2,1,0.5,1.6,0.5c0.9,0,1.3-0.5,1.3-1c0-0.6-0.4-0.9-1.3-1.3c-1.2-0.4-1.8-1.1-1.8-1.9
		c0-1.1,0.9-2,2.4-2c0.7,0,1.3,0.2,1.7,0.4l-0.3,0.9c-0.3-0.2-0.8-0.4-1.4-0.4c-0.7,0-1.1,0.4-1.1,0.9c0,0.6,0.4,0.8,1.3,1.2
		c1.2,0.5,1.8,1,1.8,2.1c0,1.2-0.9,2-2.6,2c-0.7,0-1.4-0.2-1.9-0.5L236.9,228.4z"></path>
	<path class="st6 SsiHgzCS_101" d="M248.9,226.2c0,2.5-1.8,3.6-3.4,3.6c-1.8,0-3.3-1.4-3.3-3.5c0-2.3,1.5-3.6,3.4-3.6
		C247.6,222.7,248.9,224.1,248.9,226.2z M243.5,226.3c0,1.5,0.9,2.6,2.1,2.6c1.2,0,2.1-1.1,2.1-2.7c0-1.2-0.6-2.6-2-2.6
		S243.5,225,243.5,226.3z"></path>
	<path class="st6 SsiHgzCS_102" d="M255.3,229.4c-0.3,0.2-1,0.4-2,0.4c-2.1,0-3.4-1.4-3.4-3.5c0-2.1,1.4-3.6,3.7-3.6c0.7,0,1.4,0.2,1.7,0.4
		l-0.3,1c-0.3-0.2-0.8-0.3-1.4-0.3c-1.6,0-2.4,1.2-2.4,2.6c0,1.6,1,2.6,2.4,2.6c0.7,0,1.2-0.2,1.5-0.3L255.3,229.4z"></path>
	<path class="st6 SsiHgzCS_103" d="M258.2,220.9c0,0.4-0.3,0.8-0.8,0.8c-0.4,0-0.7-0.3-0.7-0.8c0-0.4,0.3-0.8,0.8-0.8
		C257.9,220.1,258.2,220.5,258.2,220.9z M256.8,229.7v-6.8h1.2v6.8H256.8z"></path>
</g>
<g class="st5">
	<path class="st6 SsiHgzCS_104" d="M263.9,229.7l-0.1-0.9h0c-0.4,0.5-1.1,1-2.1,1c-1.4,0-2.1-1-2.1-2c0-1.7,1.5-2.6,4.1-2.5v-0.1
		c0-0.6-0.2-1.6-1.6-1.6c-0.6,0-1.3,0.2-1.8,0.5l-0.3-0.8c0.6-0.4,1.4-0.6,2.2-0.6c2.1,0,2.6,1.4,2.6,2.8v2.6c0,0.6,0,1.2,0.1,1.6
		H263.9z M263.7,226.2c-1.4,0-2.9,0.2-2.9,1.5c0,0.8,0.5,1.2,1.2,1.2c0.9,0,1.5-0.6,1.7-1.1c0-0.1,0.1-0.3,0.1-0.4V226.2z"></path>
</g>
<g class="st5">
	<path class="st6 SsiHgzCS_105" d="M268.3,220.9v2h1.8v0.9h-1.8v3.7c0,0.8,0.2,1.3,0.9,1.3c0.3,0,0.6,0,0.7-0.1l0.1,0.9c-0.2,0.1-0.6,0.2-1.1,0.2
		c-0.6,0-1-0.2-1.3-0.5c-0.4-0.4-0.5-1-0.5-1.8v-3.7h-1.1v-0.9h1.1v-1.6L268.3,220.9z"></path>
	<path class="st6 SsiHgzCS_106" d="M272.9,220.9c0,0.4-0.3,0.8-0.8,0.8c-0.4,0-0.7-0.3-0.7-0.8c0-0.4,0.3-0.8,0.8-0.8
		C272.6,220.1,272.9,220.5,272.9,220.9z M271.5,229.7v-6.8h1.2v6.8H271.5z"></path>
	<path class="st6 SsiHgzCS_107" d="M281,226.2c0,2.5-1.8,3.6-3.4,3.6c-1.8,0-3.3-1.4-3.3-3.5c0-2.3,1.5-3.6,3.4-3.6
		C279.7,222.7,281,224.1,281,226.2z M275.6,226.3c0,1.5,0.9,2.6,2.1,2.6c1.2,0,2.1-1.1,2.1-2.7c0-1.2-0.6-2.6-2-2.6
		S275.6,225,275.6,226.3z"></path>
	<path class="st6 SsiHgzCS_108" d="M282.6,224.7c0-0.7,0-1.3-0.1-1.8h1.1l0.1,1.1h0c0.3-0.7,1.1-1.3,2.3-1.3c0.9,0,2.4,0.6,2.4,2.9v4.1h-1.2v-3.9
		c0-1.1-0.4-2-1.6-2c-0.8,0-1.5,0.6-1.7,1.3c-0.1,0.2-0.1,0.4-0.1,0.6v4.1h-1.2V224.7z"></path>
	<path class="st6 SsiHgzCS_109" d="M293.9,222.8l0.9,3.5c0.2,0.8,0.4,1.5,0.5,2.2h0c0.2-0.7,0.4-1.4,0.6-2.2l1.1-3.5h1l1.1,3.4
		c0.3,0.8,0.5,1.5,0.6,2.2h0c0.1-0.7,0.3-1.4,0.5-2.2l1-3.4h1.2l-2.2,6.8h-1.1l-1-3.3c-0.2-0.8-0.4-1.4-0.6-2.2h0
		c-0.2,0.8-0.4,1.5-0.6,2.3l-1.1,3.2h-1.1l-2.1-6.8H293.9z"></path>
	<path class="st6 SsiHgzCS_110" d="M305.2,220.9c0,0.4-0.3,0.8-0.8,0.8c-0.4,0-0.7-0.3-0.7-0.8c0-0.4,0.3-0.8,0.8-0.8
		C304.9,220.1,305.2,220.5,305.2,220.9z M303.8,229.7v-6.8h1.2v6.8H303.8z"></path>
	<path class="st6 SsiHgzCS_111" d="M308.6,220.9v2h1.8v0.9h-1.8v3.7c0,0.8,0.2,1.3,0.9,1.3c0.3,0,0.6,0,0.7-0.1l0.1,0.9c-0.2,0.1-0.6,0.2-1.1,0.2
		c-0.6,0-1-0.2-1.3-0.5c-0.4-0.4-0.5-1-0.5-1.8v-3.7h-1.1v-0.9h1.1v-1.6L308.6,220.9z"></path>
	<path class="st6 SsiHgzCS_112" d="M311.8,219.6h1.2v4.3h0c0.2-0.4,0.5-0.7,0.9-0.9c0.4-0.2,0.8-0.4,1.3-0.4c0.9,0,2.4,0.6,2.4,2.9v4.1h-1.2v-3.9
		c0-1.1-0.4-2-1.6-2c-0.8,0-1.4,0.6-1.7,1.2c-0.1,0.2-0.1,0.4-0.1,0.6v4.1h-1.2V219.6z"></path>
</g>
<path class="st0 SsiHgzCS_113" d="M353.6,223.4c0.8,6.8-6.4,13.7-13,13.4c-7.1-0.3-13-5.5-13-13.1c-0.1-7.2,6.2-13,12.6-13.3
	C347.1,210,354.3,216.6,353.6,223.4z"></path>
<path class="st0 SsiHgzCS_114" d="M341.4,241.8c-3.6,0-7.1,0-10.6,0c-2.1,0-2.1-0.1-2.2-2.2c0-1,0-1.9,0-2.9c0-0.9,0.3-1.3,1.2-0.8
	c4.7,2.5,9.7,2.5,14.8,2.3c2.7-0.2,5.4-1,7.8-2.1c1.6-0.7,1.9-0.5,1.8,1.2c0,5.1,0.7,4.5-4.3,4.5c-1.4,0-2.9,0-4.3,0L341.4,241.8z"></path>
<path class="st0 SsiHgzCS_115" d="M349.6,247.8c0,1.1-0.1,2.2-0.1,3.3c0,0.9-0.5,1-1.2,1.1c-0.7,0.1-1.4-0.2-1.4-1c0.1-1.6-0.6-3.2,0.7-4.7
	c0.4-0.5-0.1-1.4,0.4-1.9c1.2-0.5,2.6-0.5,3.8,0l0,0c0.4,0.9,0.1,2.1,1.1,2.8c0.3,1.3,0.1,2.7,0.2,4c0,0.3-0.1,0.5-0.5,0.5
	s-0.3-0.3-0.3-0.5c-0.1-0.8-0.1-1.6,0-2.5c0.1-1.1-0.3-1.4-1.4-1.3C350.5,247.7,350,247.4,349.6,247.8z"></path>
<path class="st0 SsiHgzCS_116" d="M329,251.8c-0.7-2.3-0.5-4.6-0.2-6.9c0.4-0.5,1-0.8,1.6-0.7c1.3,0,2.5-0.2,3.8,0.1c0.2,0.3,0.6,0.4,0.6,0.9
	c0,0.2,0,0.5-0.3,0.5c-0.2,0.1-0.5-0.1-0.5-0.3c0-0.1,0-0.1,0-0.2c-1.1-0.4-2.3-0.4-3.4-0.1c-0.3,0.8-0.1,1.6,0.5,2.1
	c0.6,0.7,0.2,1.6,0.3,2.3c0.1,0.5,0.1,1,0.1,1.6c0.3,0.3,1,0,1,0.6c-0.1,0.6-0.7,0.4-1,0.3C330.6,252,329.8,252.2,329,251.8z"></path>
<path class="st0 SsiHgzCS_117" d="M344.3,244.3c0.6,0.3,1,1,0.9,1.8c-0.1,1.6,0,3.2,0,4.7c0,0.7-0.1,1.3-1,1.3c-0.8,0-0.7-0.7-0.8-1.2
	c-0.1-1.4-0.1-2.7,0-4.1c0.1-1.3-0.4-1.8-1.6-1.5c-0.5,0.1-0.6,0.8-1.2,0.5l0,0c-0.3-0.8,0.1-1.2,0.8-1.4
	C342.4,244.1,343.4,244.1,344.3,244.3z"></path>
<path class="st0 SsiHgzCS_118" d="M338.4,245.3c-0.3,0.9,0.2,1.5,0.5,2.2c0,1.2,0,2.3,0,3.4c0,0.8-0.4,1.2-1.2,1.2c-0.6,0.1-1.2-0.4-1.2-1
	c0-0.1,0-0.1,0-0.2c0-1.6,0.1-3.2,0-4.9c0-1,0.3-1.4,1.3-1.5c0.8-0.1,1.7-0.6,2.4,0.3C339.6,245.3,338.9,244.7,338.4,245.3z"></path>
<path class="st0 SsiHgzCS_119" d="M338.4,245.3c0.3-0.7,1-0.1,1.5-0.5c-1.9-0.9-3.2-0.1-3.2,1.7c0,1.4,0,2.7,0,4.1c0,0.8,0.3,1.2,1.2,1.2
	s0.9-0.7,0.9-1.2c-0.1-1,0-2.1,0.3-3.1c0.4,1.2,0.2,2.5,0.1,3.8c0,0.8-0.7,1-1.4,1c-0.8,0-1.3-0.3-1.3-1.2v-5.8
	c-0.1-0.5,0.3-1,0.8-1c0.1,0,0.1,0,0.1,0c2.3-0.3,4.7-0.2,7.1,0.1c-0.7,0-1.4,0-2,0c-0.9,0.1-1.6,0.3-1.6,1.4
	C340,245,339.2,245.1,338.4,245.3z"></path>
<path class="st0 SsiHgzCS_120" d="M329,251.8c1-0.2,2,0.2,3.1,0.2c0.1-0.6-0.6-0.4-0.7-0.8c3.2,0.1,2.5,0.3,2.6-2.6c0-0.3,0-0.5-0.1-0.9
	c-0.1-0.3-0.5-0.6,0-0.8c0.3-0.1,0.8,0.1,0.8,0.5c0,0,0,0.1,0,0.1c0.2,1.3,0.2,2.7,0,4c-0.1,0.3-0.3,0.5-0.5,0.6
	C332.6,252.3,330.8,252.7,329,251.8z"></path>
<path class="st0 SsiHgzCS_121" d="M340.6,245.7c0.4-0.2,0.7-0.7,1.2-0.5c-0.7,0.9-0.3,1.9-0.3,2.9c-0.1,1.1,0,2.2,0,3.3c0,0.3,0,0.8-0.4,0.8
	c-0.5,0-0.5-0.5-0.5-0.8C340.6,249.5,340.6,247.7,340.6,245.7z"></path>
<path class="st0 SsiHgzCS_122" d="M349.6,247.8c2.1-1,2.9-0.5,2.9,1.6c-0.1,0.8,0,1.5,0.3,2.2c0.2-1.4,0.5-3-0.1-4.4c-0.1-0.1-0.1-0.1-0.1-0.2
	c0-0.1,0.1-0.1,0.1-0.1c0.5,0.6,0.8,4.3,0.4,4.9c-0.1,0.1-0.3,0.2-0.5,0.3c-0.3,0-0.5-0.2-0.5-0.5v-0.1c0-0.7,0-1.3,0-2
	c0.1-1.9,0.1-1.9-1.8-1.8C350.2,247.7,349.9,247.8,349.6,247.8z"></path>
<path class="st0 SsiHgzCS_123" d="M334.3,244.3c-1.8,0.1-3.6-0.3-5.4,0.5c0-0.3,0.3-0.7,0.7-0.7l0,0C331.2,244.1,332.7,243.8,334.3,244.3z"></path>
<path class="st0 SsiHgzCS_124" d="M351.9,244.6c-1.2-0.2-2.5-0.2-3.8,0C349.3,243.8,350.8,243.8,351.9,244.6z"></path>
<path class="st0 SsiHgzCS_125" d="M352.8,246.9v0.3c-0.9-0.7-0.9-1.6-0.8-2.7C352.9,245.1,352.2,246.2,352.8,246.9z"></path>
<path class="st0 SsiHgzCS_126" d="M330.6,245.2c1.1-0.6,2.4-0.5,3.4,0.1C332.9,245.1,331.7,245.1,330.6,245.2z"></path>
<path class="st4 SsiHgzCS_127" d="M329.5,223.7c0-6,5.4-11.5,11.3-11.3c6.2,0.1,11.5,5.2,11.3,11.5c-0.3,7.2-5,11.2-11.3,11.3
	C335.1,235.2,329.7,231.1,329.5,223.7z"></path>
<path class="st4 SsiHgzCS_128" d="M351.3,246.6c-1.6,0.5-1.9,0.3-1.6-1.4C351.3,244.8,351.5,245.1,351.3,246.6z"></path>
<path class="st0 SsiHgzCS_129" d="M351.3,246.6c0.2-1.4-0.5-1.6-1.6-1.4c0.4-0.5,1.1-0.5,1.6-0.2l0,0c0,0,0.1,0.1,0.1,0.1
	c0.4,0.3,0.5,0.8,0.1,1.2l0,0L351.3,246.6z"></path>
<path class="st0 SsiHgzCS_130" d="M340.4,233.7c-1.6,0.5-5.5-0.7-6.4-2.1c-0.3-0.3-0.2-0.8,0.1-1l0,0c1.4-1.4,2.7-2.8,4.1-4.1
	c0.9-0.8,1.5,0,2.1,0.5C340.5,229.3,340.8,231.4,340.4,233.7z"></path>
<path class="st0 SsiHgzCS_131" d="M340.9,231.9c0-1.5,0.1-3.1,0-4.6c0-0.8,0.4-1,1-1.2c0.5-0.3,1,0.1,1.2,0.5c0.8,1.7,2.5,2.3,3.8,3.6
	c0.7,0.7,0.8,1,0.1,1.6c-1.5,1.2-3.3,1.9-5.1,2.3c-1.2,0.2-0.5-0.9-0.8-1.3C340.7,232.6,340.7,232.2,340.9,231.9
	C340.9,232,340.9,232,340.9,231.9L340.9,231.9z"></path>
<path class="st0 SsiHgzCS_132" d="M347.2,223.8c0.7,0.1,1.4,0.1,2.1,0c1.3-0.2,1.6,0.5,1.3,1.6c-0.3,1.6-1,3.1-2,4.4c-0.4,0.5-0.8,0.7-1.1,0.1
	c-1-1.6-2.7-2.5-4-3.8c-0.4-0.3-0.5-0.9-0.3-1.4c0.1-0.6,0.8-1,1.3-0.9C345.4,223.8,346.3,223.8,347.2,223.8L347.2,223.8z"></path>
<path class="st0 SsiHgzCS_133" d="M347.1,223.1c-1,0-1.9,0.1-2.8,0c-0.9-0.1-1.6-1.3-1-2c1.4-1.3,2.5-2.8,4-4c0.5-0.4,0.7-0.3,1,0.1
	c1.2,1.4,2,3.2,2.3,5c0.1,0.7-0.1,1-0.8,1C348.9,223.1,348,223.1,347.1,223.1z"></path>
<path class="st0 SsiHgzCS_134" d="M336.9,220.4c0.3,0.3,0.5,0.5,0.8,0.9c0.3,0.7,0.1,1.5-0.5,1.9c-0.1,0.1-0.3,0.1-0.3,0.1c-1.8,0-3.6,0-5.4,0
	c-0.8,0-1-0.3-0.9-1c0.3-1.7,1-3.4,2.1-4.8c0.2-0.4,0.7-0.5,1-0.3c0.1,0.1,0.2,0.1,0.2,0.2C334.7,218.4,336.2,219,336.9,220.4z"></path>
<path class="st0 SsiHgzCS_135" d="M340.6,213.8c1.4-0.4,5,0.7,5.9,1.8c0.4,0.5,0.1,0.8-0.2,1.1c-1.2,1.4-2.5,2.5-3.7,3.9c-0.7,0.8-1.4,0-2.1-0.5
	C340,218.1,340,215.8,340.6,213.8z"></path>
<path class="st0 SsiHgzCS_136" d="M334.1,224.2c0.9,0,1.7,0,2.6,0c0.5-0.1,1,0.3,1.2,0.8c0.3,0.5-0.1,0.8-0.4,1.1c-1.3,1.4-2.5,2.7-3.8,4
	c-0.5,0.5-0.9,0.3-1.2-0.1c-1.1-1.4-1.8-3.2-2.1-5c-0.1-0.6,0.2-0.9,0.8-0.9h2.8V224.2z"></path>
<path class="st0 SsiHgzCS_137" d="M334.1,216.9c-0.2-0.5-0.3-1,0.4-1.4c1.2-0.8,2.6-1.4,4-1.8c0.5-0.2,1-0.2,1.5,0.1c0.5,2.1,0.5,4.3,0,6.3
	c-0.9,1.1-1.7,1-2.6,0C336,219.4,335.1,218.2,334.1,216.9z"></path>
<path class="st8 SsiHgzCS_138" d="M334.1,216.9c1.4,0.7,2.3,2.1,3.4,3.2c-0.2,0-0.4,0-0.5,0.3c-1.1-1-2.6-1.6-3.2-3.2L334.1,216.9z"></path>
<path class="st9 SsiHgzCS_139" d="M340,220.1c0-2.1,0-4.2,0-6.3h0.6v6.3H340z"></path>
<path class="st0 SsiHgzCS_140" d="M341.5,223.4c-0.2,0.7-0.5,1.1-1.2,1c-0.5,0-1-0.4-1-1v-0.1c0-0.5,0.5-1,1-1c0.1,0,0.1,0,0.2,0
	C341.1,222.5,341.3,223,341.5,223.4z"></path>
<path class="st10 SsiHgzCS_141" d="M340.9,231.9v0.9l-0.5,0.9v-6.6c0.5,1,0.1,2.1,0.3,3.2C340.8,230.8,340.4,231.4,340.9,231.9z"></path>
<style data-made-with="vivus-instant">.SsiHgzCS_0{stroke-dasharray:553 555;stroke-dashoffset:554;animation:SsiHgzCS_draw_0 3800ms linear 0ms infinite,SsiHgzCS_fade 3800ms linear 0ms infinite;}.SsiHgzCS_1{stroke-dasharray:374 376;stroke-dashoffset:375;animation:SsiHgzCS_draw_1 3800ms linear 0ms infinite,SsiHgzCS_fade 3800ms linear 0ms infinite;}.SsiHgzCS_2{stroke-dasharray:291 293;stroke-dashoffset:292;animation:SsiHgzCS_draw_2 3800ms linear 0ms infinite,SsiHgzCS_fade 3800ms linear 0ms infinite;}.SsiHgzCS_3{stroke-dasharray:409 411;stroke-dashoffset:410;animation:SsiHgzCS_draw_3 3800ms linear 0ms infinite,SsiHgzCS_fade 3800ms linear 0ms infinite;}.SsiHgzCS_4{stroke-dasharray:595 597;stroke-dashoffset:596;animation:SsiHgzCS_draw_4 3800ms linear 0ms infinite,SsiHgzCS_fade 3800ms linear 0ms infinite;}.SsiHgzCS_5{stroke-dasharray:403 405;stroke-dashoffset:404;animation:SsiHgzCS_draw_5 3800ms linear 0ms infinite,SsiHgzCS_fade 3800ms linear 0ms infinite;}.SsiHgzCS_6{stroke-dasharray:313 315;stroke-dashoffset:314;animation:SsiHgzCS_draw_6 3800ms linear 0ms infinite,SsiHgzCS_fade 3800ms linear 0ms infinite;}.SsiHgzCS_7{stroke-dasharray:440 442;stroke-dashoffset:441;animation:SsiHgzCS_draw_7 3800ms linear 0ms infinite,SsiHgzCS_fade 3800ms linear 0ms infinite;}.SsiHgzCS_8{stroke-dasharray:667 669;stroke-dashoffset:668;animation:SsiHgzCS_draw_8 3800ms linear 0ms infinite,SsiHgzCS_fade 3800ms linear 0ms infinite;}.SsiHgzCS_9{stroke-dasharray:287 289;stroke-dashoffset:288;animation:SsiHgzCS_draw_9 3800ms linear 0ms infinite,SsiHgzCS_fade 3800ms linear 0ms infinite;}.SsiHgzCS_10{stroke-dasharray:423 425;stroke-dashoffset:424;animation:SsiHgzCS_draw_10 3800ms linear 0ms infinite,SsiHgzCS_fade 3800ms linear 0ms infinite;}.SsiHgzCS_11{stroke-dasharray:319 321;stroke-dashoffset:320;animation:SsiHgzCS_draw_11 3800ms linear 0ms infinite,SsiHgzCS_fade 3800ms linear 0ms infinite;}.SsiHgzCS_12{stroke-dasharray:470 472;stroke-dashoffset:471;animation:SsiHgzCS_draw_12 3800ms linear 0ms infinite,SsiHgzCS_fade 3800ms linear 0ms infinite;}.SsiHgzCS_13{stroke-dasharray:312 314;stroke-dashoffset:313;animation:SsiHgzCS_draw_13 3800ms linear 0ms infinite,SsiHgzCS_fade 3800ms linear 0ms infinite;}.SsiHgzCS_14{stroke-dasharray:180 182;stroke-dashoffset:181;animation:SsiHgzCS_draw_14 3800ms linear 0ms infinite,SsiHgzCS_fade 3800ms linear 0ms infinite;}.SsiHgzCS_15{stroke-dasharray:337 339;stroke-dashoffset:338;animation:SsiHgzCS_draw_15 3800ms linear 0ms infinite,SsiHgzCS_fade 3800ms linear 0ms infinite;}.SsiHgzCS_16{stroke-dasharray:82 84;stroke-dashoffset:83;animation:SsiHgzCS_draw_16 3800ms linear 0ms infinite,SsiHgzCS_fade 3800ms linear 0ms infinite;}.SsiHgzCS_17{stroke-dasharray:182 184;stroke-dashoffset:183;animation:SsiHgzCS_draw_17 3800ms linear 0ms infinite,SsiHgzCS_fade 3800ms linear 0ms infinite;}.SsiHgzCS_18{stroke-dasharray:180 182;stroke-dashoffset:181;animation:SsiHgzCS_draw_18 3800ms linear 0ms infinite,SsiHgzCS_fade 3800ms linear 0ms infinite;}.SsiHgzCS_19{stroke-dasharray:121 123;stroke-dashoffset:122;animation:SsiHgzCS_draw_19 3800ms linear 0ms infinite,SsiHgzCS_fade 3800ms linear 0ms infinite;}.SsiHgzCS_20{stroke-dasharray:133 135;stroke-dashoffset:134;animation:SsiHgzCS_draw_20 3800ms linear 0ms infinite,SsiHgzCS_fade 3800ms linear 0ms infinite;}.SsiHgzCS_21{stroke-dasharray:72 74;stroke-dashoffset:73;animation:SsiHgzCS_draw_21 3800ms linear 0ms infinite,SsiHgzCS_fade 3800ms linear 0ms infinite;}.SsiHgzCS_22{stroke-dasharray:23 25;stroke-dashoffset:24;animation:SsiHgzCS_draw_22 3800ms linear 0ms infinite,SsiHgzCS_fade 3800ms linear 0ms infinite;}.SsiHgzCS_23{stroke-dasharray:35 37;stroke-dashoffset:36;animation:SsiHgzCS_draw_23 3800ms linear 0ms infinite,SsiHgzCS_fade 3800ms linear 0ms infinite;}.SsiHgzCS_24{stroke-dasharray:27 29;stroke-dashoffset:28;animation:SsiHgzCS_draw_24 3800ms linear 0ms infinite,SsiHgzCS_fade 3800ms linear 0ms infinite;}.SsiHgzCS_25{stroke-dasharray:20 22;stroke-dashoffset:21;animation:SsiHgzCS_draw_25 3800ms linear 0ms infinite,SsiHgzCS_fade 3800ms linear 0ms infinite;}.SsiHgzCS_26{stroke-dasharray:11 13;stroke-dashoffset:12;animation:SsiHgzCS_draw_26 3800ms linear 0ms infinite,SsiHgzCS_fade 3800ms linear 0ms infinite;}.SsiHgzCS_27{stroke-dasharray:8 10;stroke-dashoffset:9;animation:SsiHgzCS_draw_27 3800ms linear 0ms infinite,SsiHgzCS_fade 3800ms linear 0ms infinite;}.SsiHgzCS_28{stroke-dasharray:5 7;stroke-dashoffset:6;animation:SsiHgzCS_draw_28 3800ms linear 0ms infinite,SsiHgzCS_fade 3800ms linear 0ms infinite;}.SsiHgzCS_29{stroke-dasharray:5 7;stroke-dashoffset:6;animation:SsiHgzCS_draw_29 3800ms linear 0ms infinite,SsiHgzCS_fade 3800ms linear 0ms infinite;}.SsiHgzCS_30{stroke-dasharray:97 99;stroke-dashoffset:98;animation:SsiHgzCS_draw_30 3800ms linear 0ms infinite,SsiHgzCS_fade 3800ms linear 0ms infinite;}.SsiHgzCS_31{stroke-dasharray:12 14;stroke-dashoffset:13;animation:SsiHgzCS_draw_31 3800ms linear 0ms infinite,SsiHgzCS_fade 3800ms linear 0ms infinite;}.SsiHgzCS_32{stroke-dasharray:2 4;stroke-dashoffset:3;animation:SsiHgzCS_draw_32 3800ms linear 0ms infinite,SsiHgzCS_fade 3800ms linear 0ms infinite;}.SsiHgzCS_33{stroke-dasharray:19 21;stroke-dashoffset:20;animation:SsiHgzCS_draw_33 3800ms linear 0ms infinite,SsiHgzCS_fade 3800ms linear 0ms infinite;}.SsiHgzCS_34{stroke-dasharray:4 6;stroke-dashoffset:5;animation:SsiHgzCS_draw_34 3800ms linear 0ms infinite,SsiHgzCS_fade 3800ms linear 0ms infinite;}.SsiHgzCS_35{stroke-dasharray:2 4;stroke-dashoffset:3;animation:SsiHgzCS_draw_35 3800ms linear 0ms infinite,SsiHgzCS_fade 3800ms linear 0ms infinite;}.SsiHgzCS_36{stroke-dasharray:356 358;stroke-dashoffset:357;animation:SsiHgzCS_draw_36 3800ms linear 0ms infinite,SsiHgzCS_fade 3800ms linear 0ms infinite;}.SsiHgzCS_37{stroke-dasharray:206 208;stroke-dashoffset:207;animation:SsiHgzCS_draw_37 3800ms linear 0ms infinite,SsiHgzCS_fade 3800ms linear 0ms infinite;}.SsiHgzCS_38{stroke-dasharray:385 387;stroke-dashoffset:386;animation:SsiHgzCS_draw_38 3800ms linear 0ms infinite,SsiHgzCS_fade 3800ms linear 0ms infinite;}.SsiHgzCS_39{stroke-dasharray:93 95;stroke-dashoffset:94;animation:SsiHgzCS_draw_39 3800ms linear 0ms infinite,SsiHgzCS_fade 3800ms linear 0ms infinite;}.SsiHgzCS_40{stroke-dasharray:207 209;stroke-dashoffset:208;animation:SsiHgzCS_draw_40 3800ms linear 0ms infinite,SsiHgzCS_fade 3800ms linear 0ms infinite;}.SsiHgzCS_41{stroke-dasharray:205 207;stroke-dashoffset:206;animation:SsiHgzCS_draw_41 3800ms linear 0ms infinite,SsiHgzCS_fade 3800ms linear 0ms infinite;}.SsiHgzCS_42{stroke-dasharray:137 139;stroke-dashoffset:138;animation:SsiHgzCS_draw_42 3800ms linear 0ms infinite,SsiHgzCS_fade 3800ms linear 0ms infinite;}.SsiHgzCS_43{stroke-dasharray:151 153;stroke-dashoffset:152;animation:SsiHgzCS_draw_43 3800ms linear 0ms infinite,SsiHgzCS_fade 3800ms linear 0ms infinite;}.SsiHgzCS_44{stroke-dasharray:82 84;stroke-dashoffset:83;animation:SsiHgzCS_draw_44 3800ms linear 0ms infinite,SsiHgzCS_fade 3800ms linear 0ms infinite;}.SsiHgzCS_45{stroke-dasharray:26 28;stroke-dashoffset:27;animation:SsiHgzCS_draw_45 3800ms linear 0ms infinite,SsiHgzCS_fade 3800ms linear 0ms infinite;}.SsiHgzCS_46{stroke-dasharray:41 43;stroke-dashoffset:42;animation:SsiHgzCS_draw_46 3800ms linear 0ms infinite,SsiHgzCS_fade 3800ms linear 0ms infinite;}.SsiHgzCS_47{stroke-dasharray:30 32;stroke-dashoffset:31;animation:SsiHgzCS_draw_47 3800ms linear 0ms infinite,SsiHgzCS_fade 3800ms linear 0ms infinite;}.SsiHgzCS_48{stroke-dasharray:22 24;stroke-dashoffset:23;animation:SsiHgzCS_draw_48 3800ms linear 0ms infinite,SsiHgzCS_fade 3800ms linear 0ms infinite;}.SsiHgzCS_49{stroke-dasharray:12 14;stroke-dashoffset:13;animation:SsiHgzCS_draw_49 3800ms linear 0ms infinite,SsiHgzCS_fade 3800ms linear 0ms infinite;}.SsiHgzCS_50{stroke-dasharray:9 11;stroke-dashoffset:10;animation:SsiHgzCS_draw_50 3800ms linear 0ms infinite,SsiHgzCS_fade 3800ms linear 0ms infinite;}.SsiHgzCS_51{stroke-dasharray:6 8;stroke-dashoffset:7;animation:SsiHgzCS_draw_51 3800ms linear 0ms infinite,SsiHgzCS_fade 3800ms linear 0ms infinite;}.SsiHgzCS_52{stroke-dasharray:5 7;stroke-dashoffset:6;animation:SsiHgzCS_draw_52 3800ms linear 0ms infinite,SsiHgzCS_fade 3800ms linear 0ms infinite;}.SsiHgzCS_53{stroke-dasharray:110 112;stroke-dashoffset:111;animation:SsiHgzCS_draw_53 3800ms linear 0ms infinite,SsiHgzCS_fade 3800ms linear 0ms infinite;}.SsiHgzCS_54{stroke-dasharray:14 16;stroke-dashoffset:15;animation:SsiHgzCS_draw_54 3800ms linear 0ms infinite,SsiHgzCS_fade 3800ms linear 0ms infinite;}.SsiHgzCS_55{stroke-dasharray:2 4;stroke-dashoffset:3;animation:SsiHgzCS_draw_55 3800ms linear 0ms infinite,SsiHgzCS_fade 3800ms linear 0ms infinite;}.SsiHgzCS_56{stroke-dasharray:22 24;stroke-dashoffset:23;animation:SsiHgzCS_draw_56 3800ms linear 0ms infinite,SsiHgzCS_fade 3800ms linear 0ms infinite;}.SsiHgzCS_57{stroke-dasharray:4 6;stroke-dashoffset:5;animation:SsiHgzCS_draw_57 3800ms linear 0ms infinite,SsiHgzCS_fade 3800ms linear 0ms infinite;}.SsiHgzCS_58{stroke-dasharray:2 4;stroke-dashoffset:3;animation:SsiHgzCS_draw_58 3800ms linear 0ms infinite,SsiHgzCS_fade 3800ms linear 0ms infinite;}.SsiHgzCS_59{stroke-dasharray:78 80;stroke-dashoffset:79;animation:SsiHgzCS_draw_59 3800ms linear 0ms infinite,SsiHgzCS_fade 3800ms linear 0ms infinite;}.SsiHgzCS_60{stroke-dasharray:181 183;stroke-dashoffset:182;animation:SsiHgzCS_draw_60 3800ms linear 0ms infinite,SsiHgzCS_fade 3800ms linear 0ms infinite;}.SsiHgzCS_61{stroke-dasharray:174 176;stroke-dashoffset:175;animation:SsiHgzCS_draw_61 3800ms linear 0ms infinite,SsiHgzCS_fade 3800ms linear 0ms infinite;}.SsiHgzCS_62{stroke-dasharray:178 180;stroke-dashoffset:179;animation:SsiHgzCS_draw_62 3800ms linear 0ms infinite,SsiHgzCS_fade 3800ms linear 0ms infinite;}.SsiHgzCS_63{stroke-dasharray:110 112;stroke-dashoffset:111;animation:SsiHgzCS_draw_63 3800ms linear 0ms infinite,SsiHgzCS_fade 3800ms linear 0ms infinite;}.SsiHgzCS_64{stroke-dasharray:188 190;stroke-dashoffset:189;animation:SsiHgzCS_draw_64 3800ms linear 0ms infinite,SsiHgzCS_fade 3800ms linear 0ms infinite;}.SsiHgzCS_65{stroke-dasharray:69 71;stroke-dashoffset:70;animation:SsiHgzCS_draw_65 3800ms linear 0ms infinite,SsiHgzCS_fade 3800ms linear 0ms infinite;}.SsiHgzCS_66{stroke-dasharray:39 41;stroke-dashoffset:40;animation:SsiHgzCS_draw_66 3800ms linear 0ms infinite,SsiHgzCS_fade 3800ms linear 0ms infinite;}.SsiHgzCS_67{stroke-dasharray:65 67;stroke-dashoffset:66;animation:SsiHgzCS_draw_67 3800ms linear 0ms infinite,SsiHgzCS_fade 3800ms linear 0ms infinite;}.SsiHgzCS_68{stroke-dasharray:54 56;stroke-dashoffset:55;animation:SsiHgzCS_draw_68 3800ms linear 0ms infinite,SsiHgzCS_fade 3800ms linear 0ms infinite;}.SsiHgzCS_69{stroke-dasharray:71 73;stroke-dashoffset:72;animation:SsiHgzCS_draw_69 3800ms linear 0ms infinite,SsiHgzCS_fade 3800ms linear 0ms infinite;}.SsiHgzCS_70{stroke-dasharray:54 56;stroke-dashoffset:55;animation:SsiHgzCS_draw_70 3800ms linear 0ms infinite,SsiHgzCS_fade 3800ms linear 0ms infinite;}.SsiHgzCS_71{stroke-dasharray:84 86;stroke-dashoffset:85;animation:SsiHgzCS_draw_71 3800ms linear 0ms infinite,SsiHgzCS_fade 3800ms linear 0ms infinite;}.SsiHgzCS_72{stroke-dasharray:65 67;stroke-dashoffset:66;animation:SsiHgzCS_draw_72 3800ms linear 0ms infinite,SsiHgzCS_fade 3800ms linear 0ms infinite;}.SsiHgzCS_73{stroke-dasharray:31 33;stroke-dashoffset:32;animation:SsiHgzCS_draw_73 3800ms linear 0ms infinite,SsiHgzCS_fade 3800ms linear 0ms infinite;}.SsiHgzCS_74{stroke-dasharray:80 82;stroke-dashoffset:81;animation:SsiHgzCS_draw_74 3800ms linear 0ms infinite,SsiHgzCS_fade 3800ms linear 0ms infinite;}.SsiHgzCS_75{stroke-dasharray:65 67;stroke-dashoffset:66;animation:SsiHgzCS_draw_75 3800ms linear 0ms infinite,SsiHgzCS_fade 3800ms linear 0ms infinite;}.SsiHgzCS_76{stroke-dasharray:31 33;stroke-dashoffset:32;animation:SsiHgzCS_draw_76 3800ms linear 0ms infinite,SsiHgzCS_fade 3800ms linear 0ms infinite;}.SsiHgzCS_77{stroke-dasharray:87 89;stroke-dashoffset:88;animation:SsiHgzCS_draw_77 3800ms linear 0ms infinite,SsiHgzCS_fade 3800ms linear 0ms infinite;}.SsiHgzCS_78{stroke-dasharray:74 76;stroke-dashoffset:75;animation:SsiHgzCS_draw_78 3800ms linear 0ms infinite,SsiHgzCS_fade 3800ms linear 0ms infinite;}.SsiHgzCS_79{stroke-dasharray:54 56;stroke-dashoffset:55;animation:SsiHgzCS_draw_79 3800ms linear 0ms infinite,SsiHgzCS_fade 3800ms linear 0ms infinite;}.SsiHgzCS_80{stroke-dasharray:87 89;stroke-dashoffset:88;animation:SsiHgzCS_draw_80 3800ms linear 0ms infinite,SsiHgzCS_fade 3800ms linear 0ms infinite;}.SsiHgzCS_81{stroke-dasharray:27 29;stroke-dashoffset:28;animation:SsiHgzCS_draw_81 3800ms linear 0ms infinite,SsiHgzCS_fade 3800ms linear 0ms infinite;}.SsiHgzCS_82{stroke-dasharray:54 56;stroke-dashoffset:55;animation:SsiHgzCS_draw_82 3800ms linear 0ms infinite,SsiHgzCS_fade 3800ms linear 0ms infinite;}.SsiHgzCS_83{stroke-dasharray:69 71;stroke-dashoffset:70;animation:SsiHgzCS_draw_83 3800ms linear 0ms infinite,SsiHgzCS_fade 3800ms linear 0ms infinite;}.SsiHgzCS_84{stroke-dasharray:69 71;stroke-dashoffset:70;animation:SsiHgzCS_draw_84 3800ms linear 0ms infinite,SsiHgzCS_fade 3800ms linear 0ms infinite;}.SsiHgzCS_85{stroke-dasharray:31 33;stroke-dashoffset:32;animation:SsiHgzCS_draw_85 3800ms linear 0ms infinite,SsiHgzCS_fade 3800ms linear 0ms infinite;}.SsiHgzCS_86{stroke-dasharray:27 29;stroke-dashoffset:28;animation:SsiHgzCS_draw_86 3800ms linear 0ms infinite,SsiHgzCS_fade 3800ms linear 0ms infinite;}.SsiHgzCS_87{stroke-dasharray:54 56;stroke-dashoffset:55;animation:SsiHgzCS_draw_87 3800ms linear 0ms infinite,SsiHgzCS_fade 3800ms linear 0ms infinite;}.SsiHgzCS_88{stroke-dasharray:87 89;stroke-dashoffset:88;animation:SsiHgzCS_draw_88 3800ms linear 0ms infinite,SsiHgzCS_fade 3800ms linear 0ms infinite;}.SsiHgzCS_89{stroke-dasharray:63 65;stroke-dashoffset:64;animation:SsiHgzCS_draw_89 3800ms linear 0ms infinite,SsiHgzCS_fade 3800ms linear 0ms infinite;}.SsiHgzCS_90{stroke-dasharray:57 59;stroke-dashoffset:58;animation:SsiHgzCS_draw_90 3800ms linear 0ms infinite,SsiHgzCS_fade 3800ms linear 0ms infinite;}.SsiHgzCS_91{stroke-dasharray:34 36;stroke-dashoffset:35;animation:SsiHgzCS_draw_91 3800ms linear 0ms infinite,SsiHgzCS_fade 3800ms linear 0ms infinite;}.SsiHgzCS_92{stroke-dasharray:34 36;stroke-dashoffset:35;animation:SsiHgzCS_draw_92 3800ms linear 0ms infinite,SsiHgzCS_fade 3800ms linear 0ms infinite;}.SsiHgzCS_93{stroke-dasharray:68 70;stroke-dashoffset:69;animation:SsiHgzCS_draw_93 3800ms linear 0ms infinite,SsiHgzCS_fade 3800ms linear 0ms infinite;}.SsiHgzCS_94{stroke-dasharray:87 89;stroke-dashoffset:88;animation:SsiHgzCS_draw_94 3800ms linear 0ms infinite,SsiHgzCS_fade 3800ms linear 0ms infinite;}.SsiHgzCS_95{stroke-dasharray:69 71;stroke-dashoffset:70;animation:SsiHgzCS_draw_95 3800ms linear 0ms infinite,SsiHgzCS_fade 3800ms linear 0ms infinite;}.SsiHgzCS_96{stroke-dasharray:21 23;stroke-dashoffset:22;animation:SsiHgzCS_draw_96 3800ms linear 0ms infinite,SsiHgzCS_fade 3800ms linear 0ms infinite;}.SsiHgzCS_97{stroke-dasharray:37 39;stroke-dashoffset:38;animation:SsiHgzCS_draw_97 3800ms linear 0ms infinite,SsiHgzCS_fade 3800ms linear 0ms infinite;}.SsiHgzCS_98{stroke-dasharray:39 41;stroke-dashoffset:40;animation:SsiHgzCS_draw_98 3800ms linear 0ms infinite,SsiHgzCS_fade 3800ms linear 0ms infinite;}.SsiHgzCS_99{stroke-dasharray:30 32;stroke-dashoffset:31;animation:SsiHgzCS_draw_99 3800ms linear 0ms infinite,SsiHgzCS_fade 3800ms linear 0ms infinite;}.SsiHgzCS_100{stroke-dasharray:30 32;stroke-dashoffset:31;animation:SsiHgzCS_draw_100 3800ms linear 0ms infinite,SsiHgzCS_fade 3800ms linear 0ms infinite;}.SsiHgzCS_101{stroke-dasharray:37 39;stroke-dashoffset:38;animation:SsiHgzCS_draw_101 3800ms linear 0ms infinite,SsiHgzCS_fade 3800ms linear 0ms infinite;}.SsiHgzCS_102{stroke-dasharray:28 30;stroke-dashoffset:29;animation:SsiHgzCS_draw_102 3800ms linear 0ms infinite,SsiHgzCS_fade 3800ms linear 0ms infinite;}.SsiHgzCS_103{stroke-dasharray:21 23;stroke-dashoffset:22;animation:SsiHgzCS_draw_103 3800ms linear 0ms infinite,SsiHgzCS_fade 3800ms linear 0ms infinite;}.SsiHgzCS_104{stroke-dasharray:39 41;stroke-dashoffset:40;animation:SsiHgzCS_draw_104 3800ms linear 0ms infinite,SsiHgzCS_fade 3800ms linear 0ms infinite;}.SsiHgzCS_105{stroke-dasharray:28 30;stroke-dashoffset:29;animation:SsiHgzCS_draw_105 3800ms linear 0ms infinite,SsiHgzCS_fade 3800ms linear 0ms infinite;}.SsiHgzCS_106{stroke-dasharray:21 23;stroke-dashoffset:22;animation:SsiHgzCS_draw_106 3800ms linear 0ms infinite,SsiHgzCS_fade 3800ms linear 0ms infinite;}.SsiHgzCS_107{stroke-dasharray:37 39;stroke-dashoffset:38;animation:SsiHgzCS_draw_107 3800ms linear 0ms infinite,SsiHgzCS_fade 3800ms linear 0ms infinite;}.SsiHgzCS_108{stroke-dasharray:37 39;stroke-dashoffset:38;animation:SsiHgzCS_draw_108 3800ms linear 0ms infinite,SsiHgzCS_fade 3800ms linear 0ms infinite;}.SsiHgzCS_109{stroke-dasharray:55 57;stroke-dashoffset:56;animation:SsiHgzCS_draw_109 3800ms linear 0ms infinite,SsiHgzCS_fade 3800ms linear 0ms infinite;}.SsiHgzCS_110{stroke-dasharray:21 23;stroke-dashoffset:22;animation:SsiHgzCS_draw_110 3800ms linear 0ms infinite,SsiHgzCS_fade 3800ms linear 0ms infinite;}.SsiHgzCS_111{stroke-dasharray:28 30;stroke-dashoffset:29;animation:SsiHgzCS_draw_111 3800ms linear 0ms infinite,SsiHgzCS_fade 3800ms linear 0ms infinite;}.SsiHgzCS_112{stroke-dasharray:43 45;stroke-dashoffset:44;animation:SsiHgzCS_draw_112 3800ms linear 0ms infinite,SsiHgzCS_fade 3800ms linear 0ms infinite;}.SsiHgzCS_113{stroke-dasharray:83 85;stroke-dashoffset:84;animation:SsiHgzCS_draw_113 3800ms linear 0ms infinite,SsiHgzCS_fade 3800ms linear 0ms infinite;}.SsiHgzCS_114{stroke-dasharray:63 65;stroke-dashoffset:64;animation:SsiHgzCS_draw_114 3800ms linear 0ms infinite,SsiHgzCS_fade 3800ms linear 0ms infinite;}.SsiHgzCS_115{stroke-dasharray:33 35;stroke-dashoffset:34;animation:SsiHgzCS_draw_115 3800ms linear 0ms infinite,SsiHgzCS_fade 3800ms linear 0ms infinite;}.SsiHgzCS_116{stroke-dasharray:31 33;stroke-dashoffset:32;animation:SsiHgzCS_draw_116 3800ms linear 0ms infinite,SsiHgzCS_fade 3800ms linear 0ms infinite;}.SsiHgzCS_117{stroke-dasharray:24 26;stroke-dashoffset:25;animation:SsiHgzCS_draw_117 3800ms linear 0ms infinite,SsiHgzCS_fade 3800ms linear 0ms infinite;}.SsiHgzCS_118{stroke-dasharray:22 24;stroke-dashoffset:23;animation:SsiHgzCS_draw_118 3800ms linear 0ms infinite,SsiHgzCS_fade 3800ms linear 0ms infinite;}.SsiHgzCS_119{stroke-dasharray:47 49;stroke-dashoffset:48;animation:SsiHgzCS_draw_119 3800ms linear 0ms infinite,SsiHgzCS_fade 3800ms linear 0ms infinite;}.SsiHgzCS_120{stroke-dasharray:23 25;stroke-dashoffset:24;animation:SsiHgzCS_draw_120 3800ms linear 0ms infinite,SsiHgzCS_fade 3800ms linear 0ms infinite;}.SsiHgzCS_121{stroke-dasharray:16 18;stroke-dashoffset:17;animation:SsiHgzCS_draw_121 3800ms linear 0ms infinite,SsiHgzCS_fade 3800ms linear 0ms infinite;}.SsiHgzCS_122{stroke-dasharray:25 27;stroke-dashoffset:26;animation:SsiHgzCS_draw_122 3800ms linear 0ms infinite,SsiHgzCS_fade 3800ms linear 0ms infinite;}.SsiHgzCS_123{stroke-dasharray:12 14;stroke-dashoffset:13;animation:SsiHgzCS_draw_123 3800ms linear 0ms infinite,SsiHgzCS_fade 3800ms linear 0ms infinite;}.SsiHgzCS_124{stroke-dasharray:8 10;stroke-dashoffset:9;animation:SsiHgzCS_draw_124 3800ms linear 0ms infinite,SsiHgzCS_fade 3800ms linear 0ms infinite;}.SsiHgzCS_125{stroke-dasharray:6 8;stroke-dashoffset:7;animation:SsiHgzCS_draw_125 3800ms linear 0ms infinite,SsiHgzCS_fade 3800ms linear 0ms infinite;}.SsiHgzCS_126{stroke-dasharray:7 9;stroke-dashoffset:8;animation:SsiHgzCS_draw_126 3800ms linear 0ms infinite,SsiHgzCS_fade 3800ms linear 0ms infinite;}.SsiHgzCS_127{stroke-dasharray:72 74;stroke-dashoffset:73;animation:SsiHgzCS_draw_127 3800ms linear 0ms infinite,SsiHgzCS_fade 3800ms linear 0ms infinite;}.SsiHgzCS_128{stroke-dasharray:7 9;stroke-dashoffset:8;animation:SsiHgzCS_draw_128 3800ms linear 0ms infinite,SsiHgzCS_fade 3800ms linear 0ms infinite;}.SsiHgzCS_129{stroke-dasharray:7 9;stroke-dashoffset:8;animation:SsiHgzCS_draw_129 3800ms linear 0ms infinite,SsiHgzCS_fade 3800ms linear 0ms infinite;}.SsiHgzCS_130{stroke-dasharray:24 26;stroke-dashoffset:25;animation:SsiHgzCS_draw_130 3800ms linear 0ms infinite,SsiHgzCS_fade 3800ms linear 0ms infinite;}.SsiHgzCS_131{stroke-dasharray:24 26;stroke-dashoffset:25;animation:SsiHgzCS_draw_131 3800ms linear 0ms infinite,SsiHgzCS_fade 3800ms linear 0ms infinite;}.SsiHgzCS_132{stroke-dasharray:23 25;stroke-dashoffset:24;animation:SsiHgzCS_draw_132 3800ms linear 0ms infinite,SsiHgzCS_fade 3800ms linear 0ms infinite;}.SsiHgzCS_133{stroke-dasharray:23 25;stroke-dashoffset:24;animation:SsiHgzCS_draw_133 3800ms linear 0ms infinite,SsiHgzCS_fade 3800ms linear 0ms infinite;}.SsiHgzCS_134{stroke-dasharray:22 24;stroke-dashoffset:23;animation:SsiHgzCS_draw_134 3800ms linear 0ms infinite,SsiHgzCS_fade 3800ms linear 0ms infinite;}.SsiHgzCS_135{stroke-dasharray:22 24;stroke-dashoffset:23;animation:SsiHgzCS_draw_135 3800ms linear 0ms infinite,SsiHgzCS_fade 3800ms linear 0ms infinite;}.SsiHgzCS_136{stroke-dasharray:23 25;stroke-dashoffset:24;animation:SsiHgzCS_draw_136 3800ms linear 0ms infinite,SsiHgzCS_fade 3800ms linear 0ms infinite;}.SsiHgzCS_137{stroke-dasharray:22 24;stroke-dashoffset:23;animation:SsiHgzCS_draw_137 3800ms linear 0ms infinite,SsiHgzCS_fade 3800ms linear 0ms infinite;}.SsiHgzCS_138{stroke-dasharray:11 13;stroke-dashoffset:12;animation:SsiHgzCS_draw_138 3800ms linear 0ms infinite,SsiHgzCS_fade 3800ms linear 0ms infinite;}.SsiHgzCS_139{stroke-dasharray:14 16;stroke-dashoffset:15;animation:SsiHgzCS_draw_139 3800ms linear 0ms infinite,SsiHgzCS_fade 3800ms linear 0ms infinite;}.SsiHgzCS_140{stroke-dasharray:7 9;stroke-dashoffset:8;animation:SsiHgzCS_draw_140 3800ms linear 0ms infinite,SsiHgzCS_fade 3800ms linear 0ms infinite;}.SsiHgzCS_141{stroke-dasharray:14 16;stroke-dashoffset:15;animation:SsiHgzCS_draw_141 3800ms linear 0ms infinite,SsiHgzCS_fade 3800ms linear 0ms infinite;}@keyframes SsiHgzCS_draw{100%{stroke-dashoffset:0;}}@keyframes SsiHgzCS_fade{0%{stroke-opacity:1;}89.47368421052632%{stroke-opacity:1;}100%{stroke-opacity:0;}}@keyframes SsiHgzCS_draw_0{7.894736842105263%{stroke-dashoffset: 554}60.526315789473685%{ stroke-dashoffset: 0;}100%{ stroke-dashoffset: 0;}}@keyframes SsiHgzCS_draw_1{8.081373646883165%{stroke-dashoffset: 375}60.71295259425159%{ stroke-dashoffset: 0;}100%{ stroke-dashoffset: 0;}}@keyframes SsiHgzCS_draw_2{8.26801045166107%{stroke-dashoffset: 292}60.89958939902949%{ stroke-dashoffset: 0;}100%{ stroke-dashoffset: 0;}}@keyframes SsiHgzCS_draw_3{8.45464725643897%{stroke-dashoffset: 410}61.08622620380739%{ stroke-dashoffset: 0;}100%{ stroke-dashoffset: 0;}}@keyframes SsiHgzCS_draw_4{8.641284061216872%{stroke-dashoffset: 596}61.2728630085853%{ stroke-dashoffset: 0;}100%{ stroke-dashoffset: 0;}}@keyframes SsiHgzCS_draw_5{8.827920865994775%{stroke-dashoffset: 404}61.459499813363195%{ stroke-dashoffset: 0;}100%{ stroke-dashoffset: 0;}}@keyframes SsiHgzCS_draw_6{9.014557670772676%{stroke-dashoffset: 314}61.6461366181411%{ stroke-dashoffset: 0;}100%{ stroke-dashoffset: 0;}}@keyframes SsiHgzCS_draw_7{9.201194475550578%{stroke-dashoffset: 441}61.832773422919004%{ stroke-dashoffset: 0;}100%{ stroke-dashoffset: 0;}}@keyframes SsiHgzCS_draw_8{9.38783128032848%{stroke-dashoffset: 668}62.0194102276969%{ stroke-dashoffset: 0;}100%{ stroke-dashoffset: 0;}}@keyframes SsiHgzCS_draw_9{9.574468085106384%{stroke-dashoffset: 288}62.20604703247481%{ stroke-dashoffset: 0;}100%{ stroke-dashoffset: 0;}}@keyframes SsiHgzCS_draw_10{9.761104889884285%{stroke-dashoffset: 424}62.392683837252704%{ stroke-dashoffset: 0;}100%{ stroke-dashoffset: 0;}}@keyframes SsiHgzCS_draw_11{9.947741694662188%{stroke-dashoffset: 320}62.57932064203061%{ stroke-dashoffset: 0;}100%{ stroke-dashoffset: 0;}}@keyframes SsiHgzCS_draw_12{10.13437849944009%{stroke-dashoffset: 471}62.76595744680852%{ stroke-dashoffset: 0;}100%{ stroke-dashoffset: 0;}}@keyframes SsiHgzCS_draw_13{10.32101530421799%{stroke-dashoffset: 313}62.95259425158641%{ stroke-dashoffset: 0;}100%{ stroke-dashoffset: 0;}}@keyframes SsiHgzCS_draw_14{10.507652108995895%{stroke-dashoffset: 181}63.13923105636432%{ stroke-dashoffset: 0;}100%{ stroke-dashoffset: 0;}}@keyframes SsiHgzCS_draw_15{10.694288913773796%{stroke-dashoffset: 338}63.32586786114223%{ stroke-dashoffset: 0;}100%{ stroke-dashoffset: 0;}}@keyframes SsiHgzCS_draw_16{10.880925718551698%{stroke-dashoffset: 83}63.51250466592012%{ stroke-dashoffset: 0;}100%{ stroke-dashoffset: 0;}}@keyframes SsiHgzCS_draw_17{11.0675625233296%{stroke-dashoffset: 183}63.69914147069803%{ stroke-dashoffset: 0;}100%{ stroke-dashoffset: 0;}}@keyframes SsiHgzCS_draw_18{11.254199328107504%{stroke-dashoffset: 181}63.885778275475936%{ stroke-dashoffset: 0;}100%{ stroke-dashoffset: 0;}}@keyframes SsiHgzCS_draw_19{11.440836132885405%{stroke-dashoffset: 122}64.07241508025383%{ stroke-dashoffset: 0;}100%{ stroke-dashoffset: 0;}}@keyframes SsiHgzCS_draw_20{11.627472937663308%{stroke-dashoffset: 134}64.25905188503174%{ stroke-dashoffset: 0;}100%{ stroke-dashoffset: 0;}}@keyframes SsiHgzCS_draw_21{11.81410974244121%{stroke-dashoffset: 73}64.44568868980963%{ stroke-dashoffset: 0;}100%{ stroke-dashoffset: 0;}}@keyframes SsiHgzCS_draw_22{12.000746547219112%{stroke-dashoffset: 24}64.63232549458753%{ stroke-dashoffset: 0;}100%{ stroke-dashoffset: 0;}}@keyframes SsiHgzCS_draw_23{12.187383351997012%{stroke-dashoffset: 36}64.81896229936544%{ stroke-dashoffset: 0;}100%{ stroke-dashoffset: 0;}}@keyframes SsiHgzCS_draw_24{12.374020156774915%{stroke-dashoffset: 28}65.00559910414333%{ stroke-dashoffset: 0;}100%{ stroke-dashoffset: 0;}}@keyframes SsiHgzCS_draw_25{12.56065696155282%{stroke-dashoffset: 21}65.19223590892123%{ stroke-dashoffset: 0;}100%{ stroke-dashoffset: 0;}}@keyframes SsiHgzCS_draw_26{12.747293766330719%{stroke-dashoffset: 12}65.37887271369914%{ stroke-dashoffset: 0;}100%{ stroke-dashoffset: 0;}}@keyframes SsiHgzCS_draw_27{12.933930571108624%{stroke-dashoffset: 9}65.56550951847704%{ stroke-dashoffset: 0;}100%{ stroke-dashoffset: 0;}}@keyframes SsiHgzCS_draw_28{13.120567375886525%{stroke-dashoffset: 6}65.75214632325495%{ stroke-dashoffset: 0;}100%{ stroke-dashoffset: 0;}}@keyframes SsiHgzCS_draw_29{13.307204180664426%{stroke-dashoffset: 6}65.93878312803284%{ stroke-dashoffset: 0;}100%{ stroke-dashoffset: 0;}}@keyframes SsiHgzCS_draw_30{13.493840985442326%{stroke-dashoffset: 98}66.12541993281074%{ stroke-dashoffset: 0;}100%{ stroke-dashoffset: 0;}}@keyframes SsiHgzCS_draw_31{13.68047779022023%{stroke-dashoffset: 13}66.31205673758865%{ stroke-dashoffset: 0;}100%{ stroke-dashoffset: 0;}}@keyframes SsiHgzCS_draw_32{13.867114594998132%{stroke-dashoffset: 3}66.49869354236655%{ stroke-dashoffset: 0;}100%{ stroke-dashoffset: 0;}}@keyframes SsiHgzCS_draw_33{14.053751399776035%{stroke-dashoffset: 20}66.68533034714446%{ stroke-dashoffset: 0;}100%{ stroke-dashoffset: 0;}}@keyframes SsiHgzCS_draw_34{14.24038820455394%{stroke-dashoffset: 5}66.87196715192236%{ stroke-dashoffset: 0;}100%{ stroke-dashoffset: 0;}}@keyframes SsiHgzCS_draw_35{14.427025009331839%{stroke-dashoffset: 3}67.05860395670025%{ stroke-dashoffset: 0;}100%{ stroke-dashoffset: 0;}}@keyframes SsiHgzCS_draw_36{14.613661814109744%{stroke-dashoffset: 357}67.24524076147816%{ stroke-dashoffset: 0;}100%{ stroke-dashoffset: 0;}}@keyframes SsiHgzCS_draw_37{14.800298618887645%{stroke-dashoffset: 207}67.43187756625608%{ stroke-dashoffset: 0;}100%{ stroke-dashoffset: 0;}}@keyframes SsiHgzCS_draw_38{14.986935423665548%{stroke-dashoffset: 386}67.61851437103397%{ stroke-dashoffset: 0;}100%{ stroke-dashoffset: 0;}}@keyframes SsiHgzCS_draw_39{15.173572228443449%{stroke-dashoffset: 94}67.80515117581187%{ stroke-dashoffset: 0;}100%{ stroke-dashoffset: 0;}}@keyframes SsiHgzCS_draw_40{15.360209033221354%{stroke-dashoffset: 208}67.99178798058976%{ stroke-dashoffset: 0;}100%{ stroke-dashoffset: 0;}}@keyframes SsiHgzCS_draw_41{15.546845837999252%{stroke-dashoffset: 206}68.17842478536768%{ stroke-dashoffset: 0;}100%{ stroke-dashoffset: 0;}}@keyframes SsiHgzCS_draw_42{15.733482642777155%{stroke-dashoffset: 138}68.36506159014559%{ stroke-dashoffset: 0;}100%{ stroke-dashoffset: 0;}}@keyframes SsiHgzCS_draw_43{15.920119447555056%{stroke-dashoffset: 152}68.55169839492348%{ stroke-dashoffset: 0;}100%{ stroke-dashoffset: 0;}}@keyframes SsiHgzCS_draw_44{16.10675625233296%{stroke-dashoffset: 83}68.73833519970138%{ stroke-dashoffset: 0;}100%{ stroke-dashoffset: 0;}}@keyframes SsiHgzCS_draw_45{16.293393057110862%{stroke-dashoffset: 27}68.92497200447927%{ stroke-dashoffset: 0;}100%{ stroke-dashoffset: 0;}}@keyframes SsiHgzCS_draw_46{16.480029861888763%{stroke-dashoffset: 42}69.11160880925718%{ stroke-dashoffset: 0;}100%{ stroke-dashoffset: 0;}}@keyframes SsiHgzCS_draw_47{16.666666666666664%{stroke-dashoffset: 31}69.29824561403508%{ stroke-dashoffset: 0;}100%{ stroke-dashoffset: 0;}}@keyframes SsiHgzCS_draw_48{16.853303471444566%{stroke-dashoffset: 23}69.48488241881299%{ stroke-dashoffset: 0;}100%{ stroke-dashoffset: 0;}}@keyframes SsiHgzCS_draw_49{17.03994027622247%{stroke-dashoffset: 13}69.67151922359088%{ stroke-dashoffset: 0;}100%{ stroke-dashoffset: 0;}}@keyframes SsiHgzCS_draw_50{17.22657708100037%{stroke-dashoffset: 10}69.8581560283688%{ stroke-dashoffset: 0;}100%{ stroke-dashoffset: 0;}}@keyframes SsiHgzCS_draw_51{17.413213885778276%{stroke-dashoffset: 7}70.04479283314669%{ stroke-dashoffset: 0;}100%{ stroke-dashoffset: 0;}}@keyframes SsiHgzCS_draw_52{17.599850690556178%{stroke-dashoffset: 6}70.23142963792459%{ stroke-dashoffset: 0;}100%{ stroke-dashoffset: 0;}}@keyframes SsiHgzCS_draw_53{17.78648749533408%{stroke-dashoffset: 111}70.4180664427025%{ stroke-dashoffset: 0;}100%{ stroke-dashoffset: 0;}}@keyframes SsiHgzCS_draw_54{17.97312430011198%{stroke-dashoffset: 15}70.60470324748039%{ stroke-dashoffset: 0;}100%{ stroke-dashoffset: 0;}}@keyframes SsiHgzCS_draw_55{18.159761104889885%{stroke-dashoffset: 3}70.7913400522583%{ stroke-dashoffset: 0;}100%{ stroke-dashoffset: 0;}}@keyframes SsiHgzCS_draw_56{18.34639790966779%{stroke-dashoffset: 23}70.97797685703621%{ stroke-dashoffset: 0;}100%{ stroke-dashoffset: 0;}}@keyframes SsiHgzCS_draw_57{18.53303471444569%{stroke-dashoffset: 5}71.1646136618141%{ stroke-dashoffset: 0;}100%{ stroke-dashoffset: 0;}}@keyframes SsiHgzCS_draw_58{18.719671519223592%{stroke-dashoffset: 3}71.351250466592%{ stroke-dashoffset: 0;}100%{ stroke-dashoffset: 0;}}@keyframes SsiHgzCS_draw_59{18.906308324001493%{stroke-dashoffset: 79}71.53788727136991%{ stroke-dashoffset: 0;}100%{ stroke-dashoffset: 0;}}@keyframes SsiHgzCS_draw_60{19.092945128779395%{stroke-dashoffset: 182}71.72452407614782%{ stroke-dashoffset: 0;}100%{ stroke-dashoffset: 0;}}@keyframes SsiHgzCS_draw_61{19.279581933557296%{stroke-dashoffset: 175}71.91116088092572%{ stroke-dashoffset: 0;}100%{ stroke-dashoffset: 0;}}@keyframes SsiHgzCS_draw_62{19.466218738335197%{stroke-dashoffset: 179}72.09779768570361%{ stroke-dashoffset: 0;}100%{ stroke-dashoffset: 0;}}@keyframes SsiHgzCS_draw_63{19.6528555431131%{stroke-dashoffset: 111}72.28443449048152%{ stroke-dashoffset: 0;}100%{ stroke-dashoffset: 0;}}@keyframes SsiHgzCS_draw_64{19.839492347891003%{stroke-dashoffset: 189}72.47107129525942%{ stroke-dashoffset: 0;}100%{ stroke-dashoffset: 0;}}@keyframes SsiHgzCS_draw_65{20.026129152668904%{stroke-dashoffset: 70}72.65770810003733%{ stroke-dashoffset: 0;}100%{ stroke-dashoffset: 0;}}@keyframes SsiHgzCS_draw_66{20.212765957446805%{stroke-dashoffset: 40}72.84434490481523%{ stroke-dashoffset: 0;}100%{ stroke-dashoffset: 0;}}@keyframes SsiHgzCS_draw_67{20.399402762224707%{stroke-dashoffset: 66}73.03098170959314%{ stroke-dashoffset: 0;}100%{ stroke-dashoffset: 0;}}@keyframes SsiHgzCS_draw_68{20.58603956700261%{stroke-dashoffset: 55}73.21761851437103%{ stroke-dashoffset: 0;}100%{ stroke-dashoffset: 0;}}@keyframes SsiHgzCS_draw_69{20.772676371780516%{stroke-dashoffset: 72}73.40425531914893%{ stroke-dashoffset: 0;}100%{ stroke-dashoffset: 0;}}@keyframes SsiHgzCS_draw_70{20.959313176558418%{stroke-dashoffset: 55}73.59089212392685%{ stroke-dashoffset: 0;}100%{ stroke-dashoffset: 0;}}@keyframes SsiHgzCS_draw_71{21.145949981336322%{stroke-dashoffset: 85}73.77752892870474%{ stroke-dashoffset: 0;}100%{ stroke-dashoffset: 0;}}@keyframes SsiHgzCS_draw_72{21.33258678611422%{stroke-dashoffset: 66}73.96416573348264%{ stroke-dashoffset: 0;}100%{ stroke-dashoffset: 0;}}@keyframes SsiHgzCS_draw_73{21.51922359089212%{stroke-dashoffset: 32}74.15080253826054%{ stroke-dashoffset: 0;}100%{ stroke-dashoffset: 0;}}@keyframes SsiHgzCS_draw_74{21.705860395670022%{stroke-dashoffset: 81}74.33743934303845%{ stroke-dashoffset: 0;}100%{ stroke-dashoffset: 0;}}@keyframes SsiHgzCS_draw_75{21.892497200447927%{stroke-dashoffset: 66}74.52407614781636%{ stroke-dashoffset: 0;}100%{ stroke-dashoffset: 0;}}@keyframes SsiHgzCS_draw_76{22.07913400522583%{stroke-dashoffset: 32}74.71071295259425%{ stroke-dashoffset: 0;}100%{ stroke-dashoffset: 0;}}@keyframes SsiHgzCS_draw_77{22.265770810003733%{stroke-dashoffset: 88}74.89734975737215%{ stroke-dashoffset: 0;}100%{ stroke-dashoffset: 0;}}@keyframes SsiHgzCS_draw_78{22.452407614781634%{stroke-dashoffset: 75}75.08398656215006%{ stroke-dashoffset: 0;}100%{ stroke-dashoffset: 0;}}@keyframes SsiHgzCS_draw_79{22.639044419559536%{stroke-dashoffset: 55}75.27062336692796%{ stroke-dashoffset: 0;}100%{ stroke-dashoffset: 0;}}@keyframes SsiHgzCS_draw_80{22.82568122433744%{stroke-dashoffset: 88}75.45726017170587%{ stroke-dashoffset: 0;}100%{ stroke-dashoffset: 0;}}@keyframes SsiHgzCS_draw_81{23.01231802911534%{stroke-dashoffset: 28}75.64389697648377%{ stroke-dashoffset: 0;}100%{ stroke-dashoffset: 0;}}@keyframes SsiHgzCS_draw_82{23.198954833893243%{stroke-dashoffset: 55}75.83053378126166%{ stroke-dashoffset: 0;}100%{ stroke-dashoffset: 0;}}@keyframes SsiHgzCS_draw_83{23.385591638671144%{stroke-dashoffset: 70}76.01717058603957%{ stroke-dashoffset: 0;}100%{ stroke-dashoffset: 0;}}@keyframes SsiHgzCS_draw_84{23.57222844344905%{stroke-dashoffset: 70}76.20380739081747%{ stroke-dashoffset: 0;}100%{ stroke-dashoffset: 0;}}@keyframes SsiHgzCS_draw_85{23.75886524822695%{stroke-dashoffset: 32}76.39044419559538%{ stroke-dashoffset: 0;}100%{ stroke-dashoffset: 0;}}@keyframes SsiHgzCS_draw_86{23.94550205300485%{stroke-dashoffset: 28}76.57708100037328%{ stroke-dashoffset: 0;}100%{ stroke-dashoffset: 0;}}@keyframes SsiHgzCS_draw_87{24.132138857782753%{stroke-dashoffset: 55}76.76371780515117%{ stroke-dashoffset: 0;}100%{ stroke-dashoffset: 0;}}@keyframes SsiHgzCS_draw_88{24.318775662560657%{stroke-dashoffset: 88}76.95035460992908%{ stroke-dashoffset: 0;}100%{ stroke-dashoffset: 0;}}@keyframes SsiHgzCS_draw_89{24.50541246733856%{stroke-dashoffset: 64}77.13699141470698%{ stroke-dashoffset: 0;}100%{ stroke-dashoffset: 0;}}@keyframes SsiHgzCS_draw_90{24.69204927211646%{stroke-dashoffset: 58}77.32362821948487%{ stroke-dashoffset: 0;}100%{ stroke-dashoffset: 0;}}@keyframes SsiHgzCS_draw_91{24.87868607689436%{stroke-dashoffset: 35}77.51026502426278%{ stroke-dashoffset: 0;}100%{ stroke-dashoffset: 0;}}@keyframes SsiHgzCS_draw_92{25.065322881672262%{stroke-dashoffset: 35}77.69690182904068%{ stroke-dashoffset: 0;}100%{ stroke-dashoffset: 0;}}@keyframes SsiHgzCS_draw_93{25.251959686450164%{stroke-dashoffset: 69}77.88353863381859%{ stroke-dashoffset: 0;}100%{ stroke-dashoffset: 0;}}@keyframes SsiHgzCS_draw_94{25.438596491228072%{stroke-dashoffset: 88}78.0701754385965%{ stroke-dashoffset: 0;}100%{ stroke-dashoffset: 0;}}@keyframes SsiHgzCS_draw_95{25.625233296005973%{stroke-dashoffset: 70}78.25681224337438%{ stroke-dashoffset: 0;}100%{ stroke-dashoffset: 0;}}@keyframes SsiHgzCS_draw_96{25.811870100783874%{stroke-dashoffset: 22}78.44344904815229%{ stroke-dashoffset: 0;}100%{ stroke-dashoffset: 0;}}@keyframes SsiHgzCS_draw_97{25.998506905561776%{stroke-dashoffset: 38}78.6300858529302%{ stroke-dashoffset: 0;}100%{ stroke-dashoffset: 0;}}@keyframes SsiHgzCS_draw_98{26.18514371033968%{stroke-dashoffset: 40}78.8167226577081%{ stroke-dashoffset: 0;}100%{ stroke-dashoffset: 0;}}@keyframes SsiHgzCS_draw_99{26.371780515117578%{stroke-dashoffset: 31}79.003359462486%{ stroke-dashoffset: 0;}100%{ stroke-dashoffset: 0;}}@keyframes SsiHgzCS_draw_100{26.558417319895483%{stroke-dashoffset: 31}79.18999626726391%{ stroke-dashoffset: 0;}100%{ stroke-dashoffset: 0;}}@keyframes SsiHgzCS_draw_101{26.745054124673384%{stroke-dashoffset: 38}79.3766330720418%{ stroke-dashoffset: 0;}100%{ stroke-dashoffset: 0;}}@keyframes SsiHgzCS_draw_102{26.931690929451285%{stroke-dashoffset: 29}79.5632698768197%{ stroke-dashoffset: 0;}100%{ stroke-dashoffset: 0;}}@keyframes SsiHgzCS_draw_103{27.11832773422919%{stroke-dashoffset: 22}79.74990668159762%{ stroke-dashoffset: 0;}100%{ stroke-dashoffset: 0;}}@keyframes SsiHgzCS_draw_104{27.30496453900709%{stroke-dashoffset: 40}79.93654348637551%{ stroke-dashoffset: 0;}100%{ stroke-dashoffset: 0;}}@keyframes SsiHgzCS_draw_105{27.491601343784993%{stroke-dashoffset: 29}80.12318029115342%{ stroke-dashoffset: 0;}100%{ stroke-dashoffset: 0;}}@keyframes SsiHgzCS_draw_106{27.678238148562894%{stroke-dashoffset: 22}80.30981709593131%{ stroke-dashoffset: 0;}100%{ stroke-dashoffset: 0;}}@keyframes SsiHgzCS_draw_107{27.864874953340802%{stroke-dashoffset: 38}80.49645390070921%{ stroke-dashoffset: 0;}100%{ stroke-dashoffset: 0;}}@keyframes SsiHgzCS_draw_108{28.051511758118703%{stroke-dashoffset: 38}80.68309070548713%{ stroke-dashoffset: 0;}100%{ stroke-dashoffset: 0;}}@keyframes SsiHgzCS_draw_109{28.238148562896605%{stroke-dashoffset: 56}80.86972751026502%{ stroke-dashoffset: 0;}100%{ stroke-dashoffset: 0;}}@keyframes SsiHgzCS_draw_110{28.424785367674506%{stroke-dashoffset: 22}81.05636431504293%{ stroke-dashoffset: 0;}100%{ stroke-dashoffset: 0;}}@keyframes SsiHgzCS_draw_111{28.61142217245241%{stroke-dashoffset: 29}81.24300111982083%{ stroke-dashoffset: 0;}100%{ stroke-dashoffset: 0;}}@keyframes SsiHgzCS_draw_112{28.798058977230312%{stroke-dashoffset: 44}81.42963792459874%{ stroke-dashoffset: 0;}100%{ stroke-dashoffset: 0;}}@keyframes SsiHgzCS_draw_113{28.984695782008213%{stroke-dashoffset: 84}81.61627472937664%{ stroke-dashoffset: 0;}100%{ stroke-dashoffset: 0;}}@keyframes SsiHgzCS_draw_114{29.171332586786118%{stroke-dashoffset: 64}81.80291153415455%{ stroke-dashoffset: 0;}100%{ stroke-dashoffset: 0;}}@keyframes SsiHgzCS_draw_115{29.35796939156402%{stroke-dashoffset: 34}81.98954833893244%{ stroke-dashoffset: 0;}100%{ stroke-dashoffset: 0;}}@keyframes SsiHgzCS_draw_116{29.544606196341917%{stroke-dashoffset: 32}82.17618514371033%{ stroke-dashoffset: 0;}100%{ stroke-dashoffset: 0;}}@keyframes SsiHgzCS_draw_117{29.731243001119818%{stroke-dashoffset: 25}82.36282194848823%{ stroke-dashoffset: 0;}100%{ stroke-dashoffset: 0;}}@keyframes SsiHgzCS_draw_118{29.917879805897723%{stroke-dashoffset: 23}82.54945875326614%{ stroke-dashoffset: 0;}100%{ stroke-dashoffset: 0;}}@keyframes SsiHgzCS_draw_119{30.104516610675624%{stroke-dashoffset: 48}82.73609555804404%{ stroke-dashoffset: 0;}100%{ stroke-dashoffset: 0;}}@keyframes SsiHgzCS_draw_120{30.291153415453525%{stroke-dashoffset: 24}82.92273236282193%{ stroke-dashoffset: 0;}100%{ stroke-dashoffset: 0;}}@keyframes SsiHgzCS_draw_121{30.477790220231427%{stroke-dashoffset: 17}83.10936916759985%{ stroke-dashoffset: 0;}100%{ stroke-dashoffset: 0;}}@keyframes SsiHgzCS_draw_122{30.66442702500933%{stroke-dashoffset: 26}83.29600597237776%{ stroke-dashoffset: 0;}100%{ stroke-dashoffset: 0;}}@keyframes SsiHgzCS_draw_123{30.851063829787233%{stroke-dashoffset: 13}83.48264277715565%{ stroke-dashoffset: 0;}100%{ stroke-dashoffset: 0;}}@keyframes SsiHgzCS_draw_124{31.03770063456513%{stroke-dashoffset: 9}83.66927958193355%{ stroke-dashoffset: 0;}100%{ stroke-dashoffset: 0;}}@keyframes SsiHgzCS_draw_125{31.22433743934303%{stroke-dashoffset: 7}83.85591638671144%{ stroke-dashoffset: 0;}100%{ stroke-dashoffset: 0;}}@keyframes SsiHgzCS_draw_126{31.410974244120936%{stroke-dashoffset: 8}84.04255319148936%{ stroke-dashoffset: 0;}100%{ stroke-dashoffset: 0;}}@keyframes SsiHgzCS_draw_127{31.597611048898838%{stroke-dashoffset: 73}84.22918999626727%{ stroke-dashoffset: 0;}100%{ stroke-dashoffset: 0;}}@keyframes SsiHgzCS_draw_128{31.78424785367674%{stroke-dashoffset: 8}84.41582680104516%{ stroke-dashoffset: 0;}100%{ stroke-dashoffset: 0;}}@keyframes SsiHgzCS_draw_129{31.970884658454647%{stroke-dashoffset: 8}84.60246360582306%{ stroke-dashoffset: 0;}100%{ stroke-dashoffset: 0;}}@keyframes SsiHgzCS_draw_130{32.15752146323255%{stroke-dashoffset: 25}84.78910041060097%{ stroke-dashoffset: 0;}100%{ stroke-dashoffset: 0;}}@keyframes SsiHgzCS_draw_131{32.344158268010446%{stroke-dashoffset: 25}84.97573721537887%{ stroke-dashoffset: 0;}100%{ stroke-dashoffset: 0;}}@keyframes SsiHgzCS_draw_132{32.53079507278835%{stroke-dashoffset: 24}85.16237402015678%{ stroke-dashoffset: 0;}100%{ stroke-dashoffset: 0;}}@keyframes SsiHgzCS_draw_133{32.717431877566256%{stroke-dashoffset: 24}85.34901082493468%{ stroke-dashoffset: 0;}100%{ stroke-dashoffset: 0;}}@keyframes SsiHgzCS_draw_134{32.90406868234415%{stroke-dashoffset: 23}85.53564762971257%{ stroke-dashoffset: 0;}100%{ stroke-dashoffset: 0;}}@keyframes SsiHgzCS_draw_135{33.09070548712206%{stroke-dashoffset: 23}85.72228443449048%{ stroke-dashoffset: 0;}100%{ stroke-dashoffset: 0;}}@keyframes SsiHgzCS_draw_136{33.277342291899956%{stroke-dashoffset: 24}85.90892123926838%{ stroke-dashoffset: 0;}100%{ stroke-dashoffset: 0;}}@keyframes SsiHgzCS_draw_137{33.46397909667787%{stroke-dashoffset: 23}86.09555804404629%{ stroke-dashoffset: 0;}100%{ stroke-dashoffset: 0;}}@keyframes SsiHgzCS_draw_138{33.650615901455765%{stroke-dashoffset: 12}86.28219484882419%{ stroke-dashoffset: 0;}100%{ stroke-dashoffset: 0;}}@keyframes SsiHgzCS_draw_139{33.83725270623367%{stroke-dashoffset: 15}86.46883165360208%{ stroke-dashoffset: 0;}100%{ stroke-dashoffset: 0;}}@keyframes SsiHgzCS_draw_140{34.023889511011575%{stroke-dashoffset: 8}86.65546845837999%{ stroke-dashoffset: 0;}100%{ stroke-dashoffset: 0;}}@keyframes SsiHgzCS_draw_141{34.21052631578947%{stroke-dashoffset: 15}86.8421052631579%{ stroke-dashoffset: 0;}100%{ stroke-dashoffset: 0;}}</style></svg>
