<svg id="Layer_1" data-name="Layer 1" xmlns="http://www.w3.org/2000/svg" xmlns:xlink="http://www.w3.org/1999/xlink" viewBox="0 0 524.8 197.75"><defs><style>.cls-1{fill:#fcba81;}.cls-2,.cls-55,.cls-6,.cls-7{fill:none;}.cls-2,.cls-6,.cls-7{stroke:#fff;}.cls-19,.cls-2,.cls-6,.cls-7{stroke-miterlimit:10;}.cls-2{stroke-width:0.36px;}.cls-3{fill:#e8e7cb;}.cls-4{fill:#bfbab0;}.cls-5{fill:#d9d2c7;}.cls-6{stroke-width:0.48px;}.cls-7{stroke-width:0.69px;}.cls-8{fill:#5a5b5b;}.cls-9{fill:#f4cc49;}.cls-10{fill:#e1b73f;}.cls-11{fill:#d5a938;}.cls-12{fill:#333;}.cls-13,.cls-19,.cls-25{fill:#fff;}.cls-14{clip-path:url(#clip-path);}.cls-15{fill:#df9a6a;}.cls-16{fill:#184350;}.cls-17{fill:#4c2b1e;}.cls-18{fill:#556ba6;}.cls-19{stroke:#eca46f;stroke-width:0.43px;}.cls-20{fill:#ee9b62;}.cls-21{fill:#444439;}.cls-22{fill:#c5c8ca;}.cls-23{fill:#174a5a;}.cls-24{fill:#e2f4fd;}.cls-25{opacity:0.78;}.cls-26{fill:#053340;}.cls-27{fill:#f3bca8;}.cls-28{fill:#fff1ea;}.cls-29{fill:#f9bfad;}.cls-30{fill:#f8a89a;}.cls-31{fill:#f69490;}.cls-32{fill:#a4215d;}.cls-33{fill:#f2f5d7;}.cls-34{fill:#d85079;}.cls-35{fill:#08556b;}.cls-36{fill:#fff6e8;}.cls-37{fill:#d48029;}.cls-38{fill:#ae5926;}.cls-39{fill:#ca7629;}.cls-40{fill:#ee9629;}.cls-41{fill:#f2ad33;}.cls-42{fill:#f8d075;}.cls-43{fill:#ffe5ae;}.cls-44{fill:#984b22;}.cls-45{fill:#ccaa6e;}.cls-46{fill:#37404d;}.cls-47{fill:#3bb993;}.cls-48{fill:#f89f78;}.cls-49{fill:#403f40;}.cls-50{fill:#f04c44;}.cls-51{fill:#606161;opacity:0.5;}.cls-52{fill:#f7c14f;}.cls-53{fill:#81a1a9;}.cls-54{fill:#c0bebe;}.cls-56{fill:#6a302d;}.cls-57{fill:#012936;}</style><clipPath id="clip-path" transform="translate(-52.31 -318)"><polygon id="_Clipping_Path_" data-name="&lt;Clipping Path&gt;" class="cls-1" points="298.25 397.72 296.33 401.38 297.34 404.31 302.39 407.89 307.22 405.12 306.15 402.02 305.19 397.69 298.25 397.72"/></clipPath></defs><title>about_2</title><path class="cls-2" d="M368.83,493.24l0,.11A.38.38,0,0,0,368.83,493.24Z" transform="translate(-52.31 -318)"/><path class="cls-3" d="M347.36,490.46c-11.86,0-21.47,1.24-21.47,2.78S335.5,496,347.36,496c11.57,0,21-1.18,21.45-2.66l0-.11C368.83,491.7,359.22,490.46,347.36,490.46Z" transform="translate(-52.31 -318)"/><path class="cls-4" d="M366.44,508a2.27,2.27,0,0,0,.11-.42c.39-2.56,1.32-8.67,2.26-14.21-.26.85-3.49,1.6-8.38,2.09l-1.84,14.35A36.08,36.08,0,0,0,366.44,508Z" transform="translate(-52.31 -318)"/><path class="cls-5" d="M332.24,508.71c3.32,1.63,16.31,2.43,26.35,1.08l1.84-14.35c-3.62.36-8.15.57-13.07.57-8.13,0-15.21-.58-18.85-1.45C328.27,497.43,328.11,506.69,332.24,508.71Z" transform="translate(-52.31 -318)"/><path class="cls-4" d="M358.59,509.79l-.13,1a27.94,27.94,0,0,0,6.66-1.49,2.27,2.27,0,0,0,1.33-1.37A36.08,36.08,0,0,1,358.59,509.79Z" transform="translate(-52.31 -318)"/><path class="cls-4" d="M332.24,508.71c-4.13-2-4-11.28-3.73-14.14-1.67-.4-2.62-.85-2.62-1.33,0,0,.63,9,1.26,14a2.27,2.27,0,0,0,1.88,2c4.77.79,19,2.89,29.42,1.66l.13-1C348.55,511.15,335.56,510.34,332.24,508.71Z" transform="translate(-52.31 -318)"/><path class="cls-6" d="M267.61,488.06l0,.15A.51.51,0,0,0,267.61,488.06Z" transform="translate(-52.31 -318)"/><path class="cls-3" d="M239,484.35c-15.83,0-28.66,1.66-28.66,3.71s12.83,3.71,28.66,3.71c15.44,0,28-1.58,28.63-3.56l0-.15C267.61,486,254.78,484.35,239,484.35Z" transform="translate(-52.31 -318)"/><path class="cls-4" d="M264.41,507.73a3,3,0,0,0,.15-.56c.52-3.42,1.77-11.57,3-19-.35,1.14-4.66,2.14-11.18,2.79l-2.46,19.15A48.15,48.15,0,0,0,264.41,507.73Z" transform="translate(-52.31 -318)"/><path class="cls-5" d="M218.77,508.71c4.43,2.18,21.77,3.25,35.17,1.44L256.4,491c-4.83.48-10.88.77-17.45.77-10.85,0-20.3-.78-25.16-1.93C213.46,493.66,213.26,506,218.77,508.71Z" transform="translate(-52.31 -318)"/><path class="cls-4" d="M253.94,510.15l-.18,1.4a37.29,37.29,0,0,0,8.89-2,3,3,0,0,0,1.77-1.83A48.15,48.15,0,0,1,253.94,510.15Z" transform="translate(-52.31 -318)"/><path class="cls-4" d="M218.77,508.71c-5.51-2.71-5.31-15.05-5-18.88-2.23-.53-3.5-1.13-3.5-1.78,0,0,.83,12,1.68,18.66a3,3,0,0,0,2.51,2.61c6.37,1.06,25.3,3.85,39.27,2.22l.18-1.4C240.53,512,223.2,510.89,218.77,508.71Z" transform="translate(-52.31 -318)"/><path class="cls-7" d="M338.6,480.21l0,.22A.74.74,0,0,0,338.6,480.21Z" transform="translate(-52.31 -318)"/><path class="cls-3" d="M296.95,474.82c-23,0-41.66,2.41-41.66,5.39s18.65,5.39,41.66,5.39c22.44,0,40.73-2.3,41.62-5.17l0-.22C338.6,477.23,320,474.82,296.95,474.82Z" transform="translate(-52.31 -318)"/><path class="cls-4" d="M334,508.8a4.41,4.41,0,0,0,.21-.81c.75-5,2.57-16.81,4.39-27.57-.51,1.65-6.77,3.11-16.26,4.06l-3.58,27.85A70,70,0,0,0,334,508.8Z" transform="translate(-52.31 -318)"/><path class="cls-5" d="M267.61,510.23c6.44,3.16,31.64,4.72,51.12,2.1l3.58-27.85c-7,.7-15.82,1.11-25.36,1.11-15.78,0-29.51-1.13-36.58-2.81C259.89,488.35,259.59,506.3,267.61,510.23Z" transform="translate(-52.31 -318)"/><path class="cls-4" d="M318.73,512.33l-.26,2a54.21,54.21,0,0,0,12.92-2.9A4.41,4.41,0,0,0,334,508.8,70,70,0,0,1,318.73,512.33Z" transform="translate(-52.31 -318)"/><path class="cls-4" d="M267.61,510.23c-8-3.93-7.71-21.88-7.24-27.44-3.24-.77-5.08-1.65-5.08-2.58,0,0,1.21,17.46,2.44,27.12a4.41,4.41,0,0,0,3.65,3.8c9.26,1.54,36.77,5.6,57.08,3.23l.26-2C299.25,515,274,513.39,267.61,510.23Z" transform="translate(-52.31 -318)"/><path class="cls-8" d="M296,510.26l-.79,0a1.12,1.12,0,0,1-.62-.17.58.58,0,0,1-.16-.52q0-.37.15-.47a1.18,1.18,0,0,1,.64-.07q.51,0,.54-.41.16-2.6.07-7.76t.06-7.63l.1-1q.07-1.24-.84-1.3h-.61q-.75,0-.72-.61t2.17-.57q1.11.07,1.33.52a6.38,6.38,0,0,0-.23,1.32,21.73,21.73,0,0,0,.07,2.23,25,25,0,0,1,0,3.07q-.09,1.45-.05,5.64t-.09,6.29V509a8.35,8.35,0,0,1,1,0h0q1.12.07,1.08.73T296,510.26Z" transform="translate(-52.31 -318)"/><path class="cls-8" d="M235.47,508.65l-2.58.16a.7.7,0,0,1-.43-.14.44.44,0,0,1-.19-.37v-.07a3.48,3.48,0,0,0,.59-1.11q.24-.69.34-.9a25.39,25.39,0,0,0,1.44-3.92,15.08,15.08,0,0,0,.47-3.86q0-2.07-.81-2.14-.28.15-.38.81t-.5.62q-.4,0-.4-.52a1.88,1.88,0,0,1,.48-1.34.82.82,0,0,1,.61-.28h0a1.47,1.47,0,0,1,1.27.55,2.2,2.2,0,0,1,.37.73q.08.32.11.51t0,.49q0,.45,0,1.3a10.88,10.88,0,0,1-.3,2.21,17.34,17.34,0,0,1-.65,2.31q-.35.95-.88,2.28t-.76,2a12,12,0,0,1,2-.17c.24.17.36.32.36.46A.53.53,0,0,1,235.47,508.65Z" transform="translate(-52.31 -318)"/><path class="cls-8" d="M344.75,503q-.37,0-.34-.29a.8.8,0,0,1,.32-.44,1.63,1.63,0,0,0,.64-1,5.92,5.92,0,0,0,0-1q0-1-.43-1a.32.32,0,0,0-.26.08.67.67,0,0,0-.17.22.63.63,0,0,1-.17.22.34.34,0,0,1-.27.08.35.35,0,0,1-.24-.13.43.43,0,0,1-.1-.25,1.72,1.72,0,0,1,.55-.61,1,1,0,0,1,.69-.18.89.89,0,0,1,.55.25,1.28,1.28,0,0,1,.3.51,3.31,3.31,0,0,1,.13.68,5.13,5.13,0,0,1,0,1.1,2.39,2.39,0,0,1-.13.63,1.31,1.31,0,0,1-.14.25l-.23.26-.22.24q.69.54.66,2.64a7.62,7.62,0,0,1,0,.78q0,.33-.08.54t-.11.49a2.1,2.1,0,0,1-.18.48,2.53,2.53,0,0,1-.27.38,1,1,0,0,1-.9.29,1,1,0,0,1-.65-.27.5.5,0,0,1-.18-.37.38.38,0,0,1,.06-.19s.08,0,.16,0a.24.24,0,0,1,.18.09,1,1,0,0,0,.41.25q.74.09.91-1.28a7.52,7.52,0,0,0,0-2.61,2.92,2.92,0,0,0-.33-.77Z" transform="translate(-52.31 -318)"/><path class="cls-1" d="M295.51,372.22l.11-2.06s.85-1.6,1.07-1.52-.11,3,.13,3.36a2.25,2.25,0,0,0,.88.59,2,2,0,0,1-1.52.43l-.75.08Z" transform="translate(-52.31 -318)"/><path class="cls-1" d="M308.84,372.08l-.45-1.92s-.85-1.6-1.07-1.52.11,3-.13,3.36a2.25,2.25,0,0,1-.88.59,4.2,4.2,0,0,0,2.11.45l.72-.53Z" transform="translate(-52.31 -318)"/><path class="cls-9" d="M297.61,351.52c-6.23-1.75-7.25-8.3-7.4-11a1.88,1.88,0,0,1,1.88-2,1.88,1.88,0,0,1,1.69,1,2.65,2.65,0,0,0,2.52,1.53l.09.89a3.52,3.52,0,0,1-3.42-2,1,1,0,0,0-1.86.5,15,15,0,0,0,1.35,5.6,8.33,8.33,0,0,0,5.4,4.62Z" transform="translate(-52.31 -318)"/><path class="cls-9" d="M306.26,351.64c6.23-1.75,7.25-8.3,7.4-11a1.88,1.88,0,0,0-1.88-2,1.88,1.88,0,0,0-1.69,1,2.65,2.65,0,0,1-2.52,1.53l-.09.89a3.52,3.52,0,0,0,3.42-2,1,1,0,0,1,1.86.5,15,15,0,0,1-1.35,5.6,8.33,8.33,0,0,1-5.4,4.62Z" transform="translate(-52.31 -318)"/><path class="cls-10" d="M302.73,354.5l-1.9.09s.7,8.32-2.75,10v0H306S302.31,363,302.73,354.5Z" transform="translate(-52.31 -318)"/><path class="cls-11" d="M302.68,355.14h-1.62a1.37,1.37,0,0,1-1.37-1.37h0a1.37,1.37,0,0,1,1.37-1.37h1.62a1.37,1.37,0,0,1,1.37,1.37h0A1.37,1.37,0,0,1,302.68,355.14Z" transform="translate(-52.31 -318)"/><rect class="cls-9" x="245.77" y="46.65" width="7.89" height="2.47"/><path class="cls-10" d="M296.11,339.49v8.14a6.06,6.06,0,0,0,6,6.17h0a5.87,5.87,0,0,0,5.79-6.17v-8.14Z" transform="translate(-52.31 -318)"/><path class="cls-9" d="M308.66,340.08H295.43a.47.47,0,0,1-.47-.47h0a.47.47,0,0,1,.47-.47h13.23a.47.47,0,0,1,.47.47h0A.47.47,0,0,1,308.66,340.08Z" transform="translate(-52.31 -318)"/><rect class="cls-12" x="244.23" y="48.87" width="10.92" height="5.72" rx="0.37" ry="0.37"/><circle class="cls-13" cx="249.69" cy="51.73" r="1.86"/><path class="cls-12" d="M301.31,369.3a1.51,1.51,0,0,1-.21-.42l1.15-.51a0,0,0,0,1,.06,0l0,1.83h.39v.56h-1.48v-.46h.46v-1.21Z" transform="translate(-52.31 -318)"/><polygon id="_Clipping_Path_2" data-name="&lt;Clipping Path&gt;" class="cls-1" points="245.94 79.72 244.01 83.38 245.03 86.31 250.07 89.89 254.91 87.12 253.84 84.02 252.88 79.69 245.94 79.72"/><g class="cls-14"><path class="cls-15" d="M297.49,398.71c3.38,2.51,10.93,2.08,10.82-3.42a.65.65,0,0,0-1.3,0c.09,4.56-6.35,4.17-8.87,2.3-.67-.5-1.32.63-.66,1.12Z" transform="translate(-52.31 -318)"/><path class="cls-15" d="M297.63,398.46a7.58,7.58,0,0,0,3.91,1.3,10.75,10.75,0,0,0,4.64-1.62.65.65,0,0,0-.66-1.12,9.27,9.27,0,0,1-3.79,1.39,7.22,7.22,0,0,1-3.45-1.07.65.65,0,0,0-.66,1.12Z" transform="translate(-52.31 -318)"/><path class="cls-15" d="M300.1,399.4a7.19,7.19,0,0,0,3.28.27,3.71,3.71,0,0,0,2.46-.9c.55-.63-.37-1.55-.92-.92s-1.59.55-2.25.59a5.66,5.66,0,0,1-2.23-.29c-.79-.27-1.13,1-.35,1.25Z" transform="translate(-52.31 -318)"/><path class="cls-15" d="M303.25,399.77a10.9,10.9,0,0,0,3.22-2c.61-.58-.31-1.5-.92-.92a10,10,0,0,1-3,1.75c-.76.34-.1,1.46.66,1.12Z" transform="translate(-52.31 -318)"/></g><path class="cls-16" d="M295.54,388.44c.2-2.36.47-4.78.53-4.83,3.7-2.78,10.08-.71,10.08-.71.44.63.92,3.17,1.27,5.46a1.25,1.25,0,0,1,.65-.46c1.54-3.74-.57-5.57-.57-5.57,1.1-4-3.13-4.88-7.3-3.35s-4.42,3.81-4.42,3.81c-3.07-.13-2,3.25-1.22,5.08A1.15,1.15,0,0,1,295.54,388.44Z" transform="translate(-52.31 -318)"/><path class="cls-1" d="M307,389.17a2.07,2.07,0,0,1,.38-.81c-.35-2.29-.83-4.83-1.27-5.46,0,0-6.37-2.07-10.08.71-.07.05-.34,2.47-.53,4.83a2.11,2.11,0,0,1,.32.73,1.53,1.53,0,0,1-.5,1.69c0,.68-.05,1.26,0,1.62.07,1.78,2.39,5.55,3.28,6a15.37,15.37,0,0,0,3.35.68,4.92,4.92,0,0,0,3.35-1s2.46-4.2,2.67-5.77c0,0-.07-.57-.18-1.42h-.05C307.16,390.8,306.84,390,307,389.17Z" transform="translate(-52.31 -318)"/><path class="cls-1" d="M294.58,387.87c.28.66.51,1.12.5,1.15s-.23-.49-.5-1.15l-.12,0c-.58.14-.9.93-.7,1.77s.83,1.41,1.41,1.28a.77.77,0,0,0,.2-.08c0-.72.1-1.57.17-2.42A1.15,1.15,0,0,0,294.58,387.87Z" transform="translate(-52.31 -318)"/><path class="cls-1" d="M295.86,389.17a2.11,2.11,0,0,0-.32-.73c-.07.86-.13,1.7-.17,2.42A1.53,1.53,0,0,0,295.86,389.17Z" transform="translate(-52.31 -318)"/><path class="cls-17" d="M297.32,388.17a1.47,1.47,0,0,1,.48-1,1.72,1.72,0,0,1,1.08-.47,1.52,1.52,0,0,1,1.17.45,1.33,1.33,0,0,1,.4,1.06c-.41-.08-.69-.17-.93-.19a2.17,2.17,0,0,0-.58,0C298.59,388,298.11,388.1,297.32,388.17Z" transform="translate(-52.31 -318)"/><path class="cls-17" d="M303.09,388.17a1.47,1.47,0,0,1,.48-1,1.72,1.72,0,0,1,1.08-.47,1.52,1.52,0,0,1,1.17.45,1.33,1.33,0,0,1,.4,1.06c-.41-.08-.69-.17-.93-.19a2.17,2.17,0,0,0-.58,0C304.35,388,303.88,388.1,303.09,388.17Z" transform="translate(-52.31 -318)"/><path class="cls-18" d="M297.39,386.71a2.46,2.46,0,0,1,2.57-1.28c.83.06.83-1.24,0-1.3a3.69,3.69,0,0,0-3.69,1.92c-.32.76.8,1.42,1.12.66Z" transform="translate(-52.31 -318)"/><path class="cls-18" d="M307.14,386.06a3.69,3.69,0,0,0-3.69-1.92c-.83.06-.84,1.36,0,1.3a2.46,2.46,0,0,1,2.57,1.28c.33.77,1.45.11,1.12-.66Z" transform="translate(-52.31 -318)"/><path class="cls-19" d="M298.75,392.13a6.55,6.55,0,0,0,6.24-.07.09.09,0,0,1,.12.1c-.21.75-1,3.48-2.12,3.91a3.83,3.83,0,0,1-2.46.07,8.4,8.4,0,0,1-1.9-3.93A.08.08,0,0,1,298.75,392.13Z" transform="translate(-52.31 -318)"/><path class="cls-20" d="M302.44,390.93l-.18-2.43c0-.29-.14-.31-.43-.29s-.31.07-.28.36l-.07,2.44c-.59-.37-1.14.07-1.12.36s.84.58,1.76.5,1.62-.44,1.58-.8S303.18,390.26,302.44,390.93Z" transform="translate(-52.31 -318)"/><path class="cls-21" d="M285,479.33a0,0,0,0,0,0,.07l4.77-.82a.33.33,0,0,0,.22-.51l-.29-.43-.91.05Z" transform="translate(-52.31 -318)"/><path class="cls-21" d="M311.82,479.21l-3.16-1.72-.75.32a2.75,2.75,0,0,1-.26.43.25.25,0,0,0,.16.39l3.95.74A.08.08,0,0,0,311.82,479.21Z" transform="translate(-52.31 -318)"/><path class="cls-22" d="M309.12,372.44l-.74.6c2.69,5.16,8.67,15.74,8.67,15.74-.75,4.53-8.22,13.24-8.22,13.24a2.38,2.38,0,0,1-2.67,0l-4.59,3.53-5.23-4.17c-1.33,1.52-3.85.42-4.38.16-1.06-1.68-5.5-8.25-5.61-12.72,0,0,6.48-11.13,9.86-15.87l-.65-.69s-11.53,10.62-14.71,15.1a1.94,1.94,0,0,0-.31,1.57c.84,3.64,2.06,16.53,6.09,22.1a6.93,6.93,0,0,1,1.3,3.25v0a30.51,30.51,0,0,0,1,5.17c1.89,6.32,3.14,18.82,3.14,18.82l2.19,2.19,9.72-.32,3.15-1.87L311,421a37.16,37.16,0,0,0,.88-5.85,8.58,8.58,0,0,1,2-4.93c4.66-5.64,7.94-17.82,9.07-20.82a1.61,1.61,0,0,0-.05-1.28C320.6,383.52,309.12,372.44,309.12,372.44Z" transform="translate(-52.31 -318)"/><path class="cls-1" d="M308.45,387.89a.79.79,0,0,0-.38,0c-.11.27-.24.55-.39.84.15-.29.28-.57.39-.84a1.25,1.25,0,0,0-.65.46c.15,1,.27,1.88.37,2.59.57.09,1.17-.47,1.36-1.29S309,388,308.45,387.89Z" transform="translate(-52.31 -318)"/><path class="cls-1" d="M307,389.17c-.2.84.12,1.63.7,1.77h.05c-.09-.71-.22-1.63-.37-2.59A2.07,2.07,0,0,0,307,389.17Z" transform="translate(-52.31 -318)"/><path class="cls-23" d="M307.17,438.28c0-.22-7.05,1.71-15.06,0,0,0-1.18,35.25-3.26,39.42l.91-.05L295.42,465a3.47,3.47,0,0,0,.26-2l-.52-3.19,4.12-13.45a.42.42,0,0,1,.81,0l2.82,13.31-.41,3.24a5.24,5.24,0,0,0,.38,2.71c1.42,3.35,5.1,12,5.05,12.16l.75-.32S306.63,445.55,307.17,438.28Z" transform="translate(-52.31 -318)"/><polygon class="cls-24" points="244.17 82.92 242.62 84.05 246.74 89.22 249.25 87.54 244.17 82.92"/><polygon class="cls-24" points="253.7 83.23 255.18 84.48 251.47 89.22 248.96 87.54 253.7 83.23"/><path class="cls-25" d="M304.7,349.74l-.29,1.65a1.9,1.9,0,0,1-1.54,1.54l-1.5.26,1.45.29a1.9,1.9,0,0,1,1.5,1.57l.29,1.9.19-1.66a1.9,1.9,0,0,1,1.8-1.68l1.19-.14-1.59-.41a1.9,1.9,0,0,1-1.21-1.48Z" transform="translate(-52.31 -318)"/><path class="cls-25" d="M298.32,362.69l-.16.89a1,1,0,0,1-.83.83l-.81.14.78.16a1,1,0,0,1,.81.85l.16,1,.1-.9a1,1,0,0,1,1-.91l.64-.07-.85-.22a1,1,0,0,1-.65-.8Z" transform="translate(-52.31 -318)"/><path class="cls-25" d="M291.34,337.12l-.16.89a1,1,0,0,1-.83.83l-.81.14.78.16a1,1,0,0,1,.81.85l.16,1,.1-.9a1,1,0,0,1,1-.91l.64-.07-.85-.22a1,1,0,0,1-.65-.8Z" transform="translate(-52.31 -318)"/><path class="cls-26" d="M492.93,384.89a6.53,6.53,0,0,1,.86,1.38,2.2,2.2,0,0,1,.09,1.59,1.34,1.34,0,0,1-1.24.89c-.69,0-1.18-.69-1.49-1.31a9.61,9.61,0,0,1-.84-2.58,2.93,2.93,0,0,1,0-1.35,1.25,1.25,0,0,1,.93-.9Z" transform="translate(-52.31 -318)"/><polygon class="cls-26" points="422.02 128.05 414.73 186 410.85 188.53 419.26 188.53 419.4 184.19 435.38 136.58 438.74 136.46 446.24 185.65 445.69 188.53 455.33 188.53 450.89 184.93 451.1 127.46 422.02 128.05"/><polygon class="cls-16" points="442.5 135.22 450.27 133.84 450.27 183.28 447.93 183.28 442.5 135.22"/><path class="cls-16" d="M475.45,447.14s15.21,1.31,21.58.53c0,0-8.76,2.83-10.24,4.17S469.65,503,469.65,503l-1.48.12Z" transform="translate(-52.31 -318)"/><path class="cls-27" d="M449,448.49l2.67-1.37q-1.88-1.62-3.8-3.18a42,42,0,0,1-5.28,5.64c-.62.5-3.57.93-3.24,2.74,0,0-.65,1.63-1.12,2.6s2.21,0,2.51,1,2,.19,2.61,1.18.58.89,1.54.75,1.72-1,1.46-2.47c0,0,1.94-.42,1.94-2.09S445.46,450.31,449,448.49Z" transform="translate(-52.31 -318)"/><path class="cls-13" d="M473.31,423.76l1,22.29a67.34,67.34,0,0,0,29.09-.58c0-10.21-2.28-24.36-2.28-24.36S512.8,395.67,512.87,393,511,379.84,511,379.84l-6,.73c-.34,1.52-2.75,15.27-4.63,16.09s-1.19,3-1.88,4.14-3.9,6.69-3.9,6.69L477,407.6s-5.66.61-7.74,1.82-4.17,7.5-4.17,7.5L458.84,429l-11.66,14.6,4.52,4.06,9.79-8c1.43-1.16,5.49-4.34,6.67-6S473.31,423.76,473.31,423.76Z" transform="translate(-52.31 -318)"/><path class="cls-28" d="M503.15,438.6a13.57,13.57,0,0,1-5-7.49,42,42,0,0,0-1.13-5.17c-.7-1.83-2-3.34-3-5s-1.7-3.77-1-5.59l3.06,1.18-1.19-7a15.51,15.51,0,0,0-.44-2l-16.79.11,0,.57,9.4,10.53,2.38-2.46c-.57,1.35.1,2.91,1,4a29.24,29.24,0,0,1,2.9,3.28c1.11,1.83,1.1,4.12.83,6.25a24.29,24.29,0,0,0-.44,6.39,9,9,0,0,0,5.94,7.09,8.66,8.66,0,0,0,3.71.35C503.35,442,503.27,440.3,503.15,438.6Z" transform="translate(-52.31 -318)"/><polygon class="cls-28" points="394.86 125.61 393.02 127.84 396.66 131.43 399.38 129.67 394.86 125.61"/><path class="cls-29" d="M502.86,361.44c.51-.08.9.45,1.08.94s.37,1.05.85,1.24a2.13,2.13,0,0,0,.15-1.46c-.06-.58.09-1.47.84-1.51a2,2,0,0,1,1.12.41l1,.58a3.75,3.75,0,0,1,.78.58c.39.41.64,1,1.19,1.16.38.09.83-.08,1.14.16s.17,1.16.59,1.52a1.06,1.06,0,0,0,.67.19c.73,0,.79.2.88.81a3.1,3.1,0,0,1,.07,1.35,1.64,1.64,0,0,1-2.21.95,9.71,9.71,0,0,1,.29,2.34,1.53,1.53,0,0,1-1.3,1.26c-1.23.32-1.87,1.64-1.16,5.22-1.08.26-2.16.48-3.23.76a22.1,22.1,0,0,0,0-3,53.51,53.51,0,0,0-.49-5.69,15.93,15.93,0,0,0-2.27-5.6,2.91,2.91,0,0,1-.56-1.18A.89.89,0,0,1,502.86,361.44Z" transform="translate(-52.31 -318)"/><path class="cls-30" d="M508.66,376.25c0,.29.09.58.16.9-1.08.26-2.16.48-3.23.76a23.75,23.75,0,0,0,0-2.43A31.22,31.22,0,0,0,508.66,376.25Z" transform="translate(-52.31 -318)"/><path class="cls-31" d="M505,363a22.39,22.39,0,0,1,7.41,5.31,1.58,1.58,0,0,1-1.42,0,9.71,9.71,0,0,1,.29,2.34,1.41,1.41,0,0,1-.94,1.14l-.22-.05a2.75,2.75,0,0,1-1.16-1l-1.18-1.5a11.17,11.17,0,0,1-2-3.36l-1-2.29A1.2,1.2,0,0,0,505,363Z" transform="translate(-52.31 -318)"/><path class="cls-27" d="M494.68,409.21l-1.37-.4-1.18-4.41-16-5.78,4.24,12.48s-.74-1.59,1.38,0c0,0,3,4.26,9.56,1.63C494.67,411.43,494.68,409.21,494.68,409.21Z" transform="translate(-52.31 -318)"/><path class="cls-31" d="M477.91,400.17a20.92,20.92,0,0,0,9.73,6.84,10.48,10.48,0,0,0,5.24.22l-.76-2.83-13.88-5Z" transform="translate(-52.31 -318)"/><path class="cls-29" d="M479.12,401.63c1.85,1.45,6,2.82,8.15,3.39s4.33.91,6.06-1.16c1.45-1.75,1.77-4.18,1.72-6.46a26.57,26.57,0,0,0-1.91-9.36c-.37-.91-1.83-5.66-3.43-5.42l-16.29,2.47-2.18,2.46,5.47,12.69Z" transform="translate(-52.31 -318)"/><path class="cls-31" d="M478,390.28a10.9,10.9,0,0,0-1,1.17,5.31,5.31,0,0,0-.34,3.4,9.62,9.62,0,0,1-2.13-6.24,8.6,8.6,0,0,1,1.08-3.88l14.09-2.14c.75-.11,1.48.88,2.07,2.06A11.12,11.12,0,0,1,479,386.53,5.07,5.07,0,0,1,478,390.28Z" transform="translate(-52.31 -318)"/><path class="cls-31" d="M487.69,398.86a1.78,1.78,0,0,0,.82,0,.78.78,0,0,0,.56-.56c.08-.41-.3-.78-.69-.93s-.83-.17-1.21-.35a10.32,10.32,0,0,1-1-.77,1,1,0,0,0-1.2,0,.83.83,0,0,0-.15.91,1.87,1.87,0,0,0,.63.74A5.29,5.29,0,0,0,487.69,398.86Z" transform="translate(-52.31 -318)"/><path class="cls-31" d="M489.21,399.65a3.67,3.67,0,0,1-4.65-.48,1.49,1.49,0,0,1-.39-.66.7.7,0,0,1,.21-.7,1,1,0,0,1,.89-.07A12.34,12.34,0,0,1,489.21,399.65Z" transform="translate(-52.31 -318)"/><path class="cls-32" d="M486.2,399.77a5.26,5.26,0,0,0,2.21.19,2.15,2.15,0,0,0,1-.33,1,1,0,0,0,.45-.89,1.11,1.11,0,0,0-.76-.83,6,6,0,0,0-1.16-.22,4.76,4.76,0,0,1-2.14-.93c-.39-.3-.8-.69-1.29-.65a1.07,1.07,0,0,0-.9.95,2,2,0,0,0,.39,1.33C484.64,399.34,485.09,399.42,486.2,399.77Z" transform="translate(-52.31 -318)"/><path class="cls-33" d="M485.78,396.76a4.76,4.76,0,0,0,2.14.93,6,6,0,0,1,1.16.22,1.43,1.43,0,0,1,.42.25,3.58,3.58,0,0,1-4.91-2A2.32,2.32,0,0,1,485.78,396.76Z" transform="translate(-52.31 -318)"/><path class="cls-34" d="M487.32,400a5.25,5.25,0,0,1-1.12-.22c-1.12-.35-1.56-.42-2.22-1.39a2,2,0,0,1-.39-1.33,1.15,1.15,0,0,1,.06-.25l.24.13A12,12,0,0,1,487.32,400Z" transform="translate(-52.31 -318)"/><ellipse class="cls-35" cx="482.5" cy="391.21" rx="1.03" ry="1.62" transform="translate(-110.96 -231.77) rotate(-9.63)"/><ellipse class="cls-26" cx="482.5" cy="391.21" rx="0.67" ry="1.05" transform="translate(-110.96 -231.76) rotate(-9.63)"/><circle class="cls-36" cx="481.84" cy="390.87" r="0.21" transform="translate(-83.89 -275.49) rotate(-4.89)"/><ellipse class="cls-35" cx="489.12" cy="390.28" rx="1.03" ry="1.62" transform="translate(-110.71 -230.67) rotate(-9.63)"/><ellipse class="cls-26" cx="489.12" cy="390.28" rx="0.67" ry="1.05" transform="translate(-110.71 -230.67) rotate(-9.63)"/><circle class="cls-36" cx="488.45" cy="389.95" r="0.21" transform="translate(-83.83 -274.87) rotate(-4.9)"/><path class="cls-31" d="M489.16,396.59s0,0,0,0h0l.09,0,.14-.09a3.12,3.12,0,0,0,.78-.73,1.38,1.38,0,0,0,.29-.61.79.79,0,0,0-.28-.63L488.88,393a14.35,14.35,0,0,1-2.15-3.09,3.08,3.08,0,0,1-.45-1.5,11.86,11.86,0,0,1,.76,1.33,21.23,21.23,0,0,0,2.22,2.93c.47.55.92,1.08,1.32,1.58a1.88,1.88,0,0,1,.28.44,1,1,0,0,1,.06.55,1.66,1.66,0,0,1-.42.76,2.56,2.56,0,0,1-1,.68l-.19.06a.25.25,0,0,1-.17,0s-.07-.08-.05-.11S489.15,396.59,489.16,396.59Z" transform="translate(-52.31 -318)"/><path class="cls-26" d="M473.29,382.7a3,3,0,0,0-3.44,1.41,4.74,4.74,0,0,0-.26,3.89,11.49,11.49,0,0,0,2.06,3.43,41.44,41.44,0,0,0,5.4,5.3l1.44-.53a10.83,10.83,0,0,1-2.13-5,5.51,5.51,0,0,0,2.06-5.67A12.79,12.79,0,0,0,495.63,378a14.35,14.35,0,0,0-22.34,4.66Z" transform="translate(-52.31 -318)"/><path class="cls-26" d="M490.08,414.17c-.69,2.37.08,4.92,1.16,7.15s2.48,4.31,3.15,6.69a29.81,29.81,0,0,1,.73,6,14.24,14.24,0,0,0,1.38,5.83,5.85,5.85,0,0,0,4.76,3.25c1.86,0,3.48-.94,5.25-1.5-.37-1.64-.58-3.25-1-4.89-2,0-3.82-1.63-4.94-3.3a18.57,18.57,0,0,1-2.2-5.59,19.87,19.87,0,0,0-2.14-5.62c-.9-1.41-2.16-2.58-3.06-4a4.94,4.94,0,0,1-.64-4.76C491.76,413.55,490.89,414,490.08,414.17Z" transform="translate(-52.31 -318)"/><polygon class="cls-13" points="438.97 94.77 440.28 88.14 442.23 89.49 443.21 97.75 438.79 95.97 434.9 99.47 424.73 89.6 426.01 87.22 438.97 94.77"/><polygon class="cls-13" points="458.65 61.84 458.15 57.95 452.53 58.99 452.64 62.57 458.65 61.84"/><path class="cls-37" d="M528.91,365.55c.21-.17,5.08-4.34,5.52-9.29s-3.21-14.27-3.36-14.67l-.16-.41-5.43-.84-.55,5L522.35,347l.8,1.29,3.21-2,.46-4.2,3,.46c.69,1.87,3.46,9.65,3.11,13.58-.38,4.32-4.94,8.22-5,8.26Z" transform="translate(-52.31 -318)"/><path class="cls-38" d="M538.07,373.43l.92.7a14.33,14.33,0,0,1-5,5.61c-3.73,2.6-8.63,1.63-8.63,1.63l-.1-1.15Z" transform="translate(-52.31 -318)"/><path class="cls-37" d="M531.56,373.51a36.43,36.43,0,0,1,6.51-.08s-3,7.92-12.77,6.8a14.83,14.83,0,0,1,4-5.45Z" transform="translate(-52.31 -318)"/><path class="cls-39" d="M530.68,379.88a10.38,10.38,0,0,1-.23-5.75l1.1-.62a36.44,36.44,0,0,1,6.51-.08A11.48,11.48,0,0,1,530.68,379.88Z" transform="translate(-52.31 -318)"/><path class="cls-40" d="M526.45,379.47a15.79,15.79,0,0,1,3-4.36l.08,4.3A3.92,3.92,0,0,1,526.45,379.47Z" transform="translate(-52.31 -318)"/><path class="cls-37" d="M531.56,379a12.72,12.72,0,0,1,.53-2.41,4.27,4.27,0,0,1,1.39-2,6.43,6.43,0,0,1,4.09-.8A17.77,17.77,0,0,1,531.56,379Z" transform="translate(-52.31 -318)"/><path class="cls-37" d="M531.42,370.82l.14,2.69a1.77,1.77,0,0,1-2.26,1.27l-2.26-1.3Z" transform="translate(-52.31 -318)"/><path class="cls-37" d="M527.46,368a6.13,6.13,0,0,0,4,2.82s-.27,3.32-4.38,2.66a7.26,7.26,0,0,0-1.1-4.81Z" transform="translate(-52.31 -318)"/><path class="cls-39" d="M527.14,368.14l.32-.14a6.13,6.13,0,0,0,4,2.82,3.09,3.09,0,0,1-3.06,2.73A9.56,9.56,0,0,0,527.14,368.14Z" transform="translate(-52.31 -318)"/><path class="cls-40" d="M527.13,369.48a8.75,8.75,0,0,0,.61,3.4A4,4,0,0,0,527.13,369.48Z" transform="translate(-52.31 -318)"/><path class="cls-37" d="M530.26,372.29a1.68,1.68,0,0,0,.65-1.26,9.75,9.75,0,0,1-3-1.89A17.89,17.89,0,0,0,530.26,372.29Z" transform="translate(-52.31 -318)"/><path class="cls-39" d="M528,365.85s1.24,1.63-1,3c-2.66,1.59-3.21-.18-3.21-.18Z" transform="translate(-52.31 -318)"/><path class="cls-40" d="M523.34,368.92c-.25.11-6.14,2.64-10.77.84s-11.38-9.18-11.67-9.5l-.3-.32,1.65-5.24,4.76,1.73,2.56-1.61.81,1.29-3.19,2-4-1.44-.91,2.89c1.37,1.44,7.13,7.36,10.81,8.79,4,1.57,9.56-.8,9.61-.82Z" transform="translate(-52.31 -318)"/><path class="cls-41" d="M519.85,344.12S539,359,526.77,367.51c-13.28,9.19-18.69-16.61-18.69-16.61Z" transform="translate(-52.31 -318)"/><path class="cls-37" d="M520.74,362.71a36.22,36.22,0,0,0,1-12.95,20.81,20.81,0,0,0-1.09-5c3.45,2.92,16.91,15.32,6.15,22.76-3.17,2.19-5.89,2.39-8.2,1.42A38.13,38.13,0,0,0,520.74,362.71Z" transform="translate(-52.31 -318)"/><path class="cls-39" d="M527.09,351.5c1.65,2.77,3.15,5.78,3,9a8.94,8.94,0,0,1-8.12,8.35,36.08,36.08,0,0,0-.55-23.42A43.44,43.44,0,0,1,527.09,351.5Z" transform="translate(-52.31 -318)"/><path class="cls-42" d="M519.85,344.12s-.92,9.37-11.77,6.78C508.08,350.9,510.74,343.82,519.85,344.12Z" transform="translate(-52.31 -318)"/><path class="cls-43" d="M516.71,344.33c-.13.15-.26.3-.38.46a21,21,0,0,0-2.26,3.84c-.4.87-.77,1.75-1.1,2.64a13.58,13.58,0,0,1-4.88-.37A11.41,11.41,0,0,1,516.71,344.33Z" transform="translate(-52.31 -318)"/><path class="cls-44" d="M509.67,350.18c2.7.42,4.88,0,6.47-1.23a7.44,7.44,0,0,0,2.46-3.81,10.7,10.7,0,0,0-9,5h.09Z" transform="translate(-52.31 -318)"/><path class="cls-38" d="M515.09,349.11c-.15-1.05-.29-2.1-.52-3.12a12.23,12.23,0,0,1,4-.84C518,346.92,516.6,348.06,515.09,349.11Z" transform="translate(-52.31 -318)"/><path class="cls-37" d="M528.46,358.22a27.6,27.6,0,0,0-6.7-11.61,30.82,30.82,0,0,1,1.91,19.16c1.8-.48,3.79-1.1,4.71-2.73C529.19,361.61,528.91,359.81,528.46,358.22Z" transform="translate(-52.31 -318)"/><path class="cls-40" d="M509,351.36a8.26,8.26,0,0,0,6.3,0,8.54,8.54,0,0,0,4.51-4.51,26.58,26.58,0,0,1-2.39,21.05A23.31,23.31,0,0,1,509,351.36Z" transform="translate(-52.31 -318)"/><path class="cls-41" d="M511.9,352.77a30.36,30.36,0,0,0,2.23,9.44,48.12,48.12,0,0,0-1-9.55,10.06,10.06,0,0,0,4.8-2.08,25.49,25.49,0,0,1-1.24,14.65,15.92,15.92,0,0,1-6.5-12.57A9.7,9.7,0,0,0,511.9,352.77Z" transform="translate(-52.31 -318)"/><path class="cls-40" d="M526.27,368.17c.17-.11.48-.35.7-.24.55.27-.26.76-.48.87a3,3,0,0,1-1.65.33Z" transform="translate(-52.31 -318)"/><path class="cls-40" d="M530.71,372.8a4.68,4.68,0,0,1-2.71,1.09,4.23,4.23,0,0,0,.9.59,1.42,1.42,0,0,0,1.05.07,1.07,1.07,0,0,0,.61-.59A2.07,2.07,0,0,0,530.71,372.8Z" transform="translate(-52.31 -318)"/><path class="cls-39" d="M525.4,381.38l-.08-.89a13.3,13.3,0,0,0,11-3.55l-.32,1.23a17,17,0,0,1-1.94,1.57C530.3,382.34,525.4,381.38,525.4,381.38Z" transform="translate(-52.31 -318)"/><path class="cls-41" d="M512.29,368.15a10,10,0,0,0,5.39.9,3.68,3.68,0,0,1-2.86.83,12.32,12.32,0,0,1-3.09-1C511.9,368.71,512.13,368.33,512.29,368.15Z" transform="translate(-52.31 -318)"/><path class="cls-41" d="M500.74,359.91a18.93,18.93,0,0,1,1.69-4.44c-.16,1.43-.34,2.91-.5,4.34a16,16,0,0,0,4.12,3.9c0,.28.06.58,0,.87A46.34,46.34,0,0,1,500.74,359.91Z" transform="translate(-52.31 -318)"/><path class="cls-40" d="M525.87,345.49l.39-4.3c-.2-.17-.49-.36-.69-.53-.14,1.64-.23,2.89-.38,4.53C525.45,345.16,525.61,345.53,525.87,345.49Z" transform="translate(-52.31 -318)"/><path class="cls-16" d="M476.45,384.11l5.08-3.76-6.14,3.18a11.89,11.89,0,0,1,7.94-5.44,13.13,13.13,0,0,0-7.85,3.49,13.82,13.82,0,0,1,19.29-3.48,12,12,0,0,1-17.28,6.17,14.26,14.26,0,0,0,10.63-2.95Z" transform="translate(-52.31 -318)"/><path class="cls-35" d="M491.11,378.7a1.3,1.3,0,0,1-1.77.11,1.25,1.25,0,1,1,1.77-.11Z" transform="translate(-52.31 -318)"/><path class="cls-35" d="M486.3,377.92a.79.79,0,1,1,1.15-.1A.82.82,0,0,1,486.3,377.92Z" transform="translate(-52.31 -318)"/><path class="cls-16" d="M474.59,389a12.39,12.39,0,0,1,.51-4.71l-1.61,1.15a2.77,2.77,0,0,0,.51-1,.94.94,0,0,0-.32-1,1.19,1.19,0,0,0-1.19.1,4.31,4.31,0,0,0-2.05,4,6.32,6.32,0,0,0,2.08,4.13,12.14,12.14,0,0,0,4.07,2.38l-1.48-3.2,1.46,1.49a1.45,1.45,0,0,1-.2-1.49,10.3,10.3,0,0,1,.77-1.39,4.89,4.89,0,0,0,.18-4.29,5.45,5.45,0,0,1-.94,3.1l.06-2.87A4.74,4.74,0,0,0,474.59,389Z" transform="translate(-52.31 -318)"/><path class="cls-35" d="M471.47,387.86a.8.8,0,1,1,1,0A.83.83,0,0,1,471.47,387.86Z" transform="translate(-52.31 -318)"/><path class="cls-26" d="M489.48,386.74a4,4,0,0,0,1.46-.3,1.13,1.13,0,0,0,.71-1.12,4.26,4.26,0,0,0-4.24.52,1,1,0,0,0,.78.84A3.53,3.53,0,0,0,489.48,386.74Z" transform="translate(-52.31 -318)"/><path class="cls-26" d="M480.34,386.23a7.85,7.85,0,0,1,2.61-.32,2.66,2.66,0,0,1,2.15,1.32L481,388a2.58,2.58,0,0,1-1.14,0,.88.88,0,0,1-.68-.82C479.16,386.62,479.81,386.36,480.34,386.23Z" transform="translate(-52.31 -318)"/><path class="cls-27" d="M475.24,395.07a5.38,5.38,0,0,0-1-1.71,1.83,1.83,0,0,0-1.82-.53,1.7,1.7,0,0,0-1,1,3.35,3.35,0,0,0-.19,1.39,5.06,5.06,0,0,0,.79,2.62,3.45,3.45,0,0,0,2.23,1.51c1,.18,2.32-.09,2.17-1.32A11.11,11.11,0,0,0,475.24,395.07Z" transform="translate(-52.31 -318)"/><path class="cls-31" d="M474.81,397.43a.87.87,0,0,1-.47-1.67,2.3,2.3,0,0,0-1.11-2.11,1.08,1.08,0,0,0-1.08-.09,1.23,1.23,0,0,0-.38,1.24,4.76,4.76,0,0,0,1.45,2.82,1.63,1.63,0,0,0,1.13.53C474.79,398.14,474.95,397.84,474.81,397.43Z" transform="translate(-52.31 -318)"/><path class="cls-29" d="M512.81,365.53a2.44,2.44,0,0,1,.48,1.92c0,.7,0,1.11-.51,1.53a2.27,2.27,0,0,1-1.63.65,1.15,1.15,0,0,1-.78-1.59,2.48,2.48,0,0,1-.83.12.84.84,0,0,1-.69-.41c-.09-.19-.1-.43-.26-.57s-.43-.09-.66-.09c-1.7,0-1.46-2.61-1.33-3.62,0-.16.31-1.61.13-1.68l1.63.64" transform="translate(-52.31 -318)"/><path class="cls-28" d="M506,380.45l5-.61.16.85Z" transform="translate(-52.31 -318)"/><polygon class="cls-12" points="479.81 33.49 476.28 35.81 475.08 33.49 479.12 31.51 479.81 33.49"/><polygon class="cls-45" points="422.77 162.95 419.25 165.27 418.05 162.95 422.08 160.97 422.77 162.95"/><polygon class="cls-12" points="394.66 140.41 393.45 139.38 389.67 139.9 391.13 140.75 394.66 140.41"/><polygon class="cls-12" points="448.6 61.15 445.76 63.22 444.99 59.09 446.79 58.75 448.6 61.15"/><polygon class="cls-46" points="506.34 114.32 505.57 111.48 503.85 112.9 504.37 114.92 506.34 114.32"/><polygon class="cls-47" points="496 164.24 495.23 161.4 493.51 162.82 494.02 164.84 496 164.24"/><polygon class="cls-12" points="381.04 144.4 379.06 145.47 379.06 140.36 381.04 140.36 381.04 144.4"/><polygon class="cls-12" points="413.11 106.45 413.77 110.61 411.16 110.76 411.02 106.26 413.11 106.45"/><polygon class="cls-48" points="421.67 92.02 420.23 92.69 419.15 96.36 420.53 95.38 421.67 92.02"/><polygon class="cls-49" points="380.11 125.2 381.19 126.16 379.74 129.37 378.26 125.97 380.11 125.2"/><polygon class="cls-48" points="508.38 80.88 505.47 80.42 506.06 82.57 508.11 82.93 508.38 80.88"/><polygon class="cls-12" points="505.1 138.52 501.57 140.84 500.37 138.52 504.41 136.55 505.1 138.52"/><polygon class="cls-12" points="475.89 153.35 474.6 154.38 470.99 151.98 472.88 150.77 475.89 153.35"/><polygon class="cls-50" points="423.89 147.49 423.89 149.29 421.65 149.29 422.77 147.49 423.89 147.49"/><polygon class="cls-12" points="503.19 61.85 499.66 64.17 498.46 61.85 502.5 59.87 503.19 61.85"/><polygon class="cls-12" points="493.71 150.84 490.87 152.91 490.1 148.78 491.9 148.44 493.71 150.84"/><polygon class="cls-51" points="409.23 122.45 406.4 124.51 405.62 120.38 407.43 120.04 409.23 122.45"/><polygon class="cls-46" points="479.21 89.6 477.24 90.67 477.24 85.56 479.21 85.56 479.21 89.6"/><polygon class="cls-52" points="452.35 43.07 452.35 44.88 450.12 44.88 451.23 43.07 452.35 43.07"/><polygon class="cls-53" points="415.68 75.1 412.15 77.42 410.95 75.1 414.99 73.13 415.68 75.1"/><polygon class="cls-46" points="427.76 55.7 426.56 54.67 422.77 55.19 424.23 56.05 427.76 55.7"/><polygon class="cls-22" points="375.41 172.97 372.58 175.03 371.8 170.9 373.61 170.56 375.41 172.97"/><polygon class="cls-45" points="394.15 69.43 391.32 71.49 390.54 67.37 392.35 67.02 394.15 69.43"/><polygon class="cls-12" points="524.8 116.04 524.02 113.2 522.31 114.62 522.82 116.64 524.8 116.04"/><polygon class="cls-54" points="475.89 107.48 474.6 108.51 470.99 106.1 472.88 104.9 475.89 107.48"/><polygon class="cls-46" points="486.13 103.26 485.53 104.9 481.32 104.08 482.78 101.29 486.13 103.26"/><path class="cls-55" d="M545.42,390.54l.09-.09Z" transform="translate(-52.31 -318)"/><path class="cls-50" d="M545.36,390.6h0l.06-.05Z" transform="translate(-52.31 -318)"/><path class="cls-12" d="M460.94,404.75c-2.06,4.36-16.15,10.9-19,4.67-3.74-8.09,10.9-13.91,14.6-12.59l.6.88s-7.4-.47-12.25,3.92c-3.57,3.23-3.36,6.39-1.94,7.81s5.35,1.7,9.48.41,7.51-5.67,7.51-5.67l.37.33Z" transform="translate(-52.31 -318)"/><path class="cls-12" d="M457.93,417.86l-.73-1.27s-4.11,1.83-5-.71,3.4-3.75,3.4-3.75l-1-.33s-4.62.55-3.06,4.55S457.93,417.86,457.93,417.86Z" transform="translate(-52.31 -318)"/><path class="cls-12" d="M455.64,412.12c1.19.71-2.28,6-6.26,3.62s.18-8,4-10.53,6.53-1.46,6.53-1.46l1,1a10,10,0,0,0-7.6,1.66c-3.51,2.6-5.08,5.09-4.79,7.39.34,2.67,7,2.08,6.13-1.71Z" transform="translate(-52.31 -318)"/><path class="cls-12" d="M442.72,398c-.58,2.25-7.52,5.33-9.62,1.48s1-5,1-5l.17.83s-2.07,1.34-.34,3.87,6.42,1.1,7.86-1.71Z" transform="translate(-52.31 -318)"/><path class="cls-12" d="M457.11,397.7c-3.14,6.78-15.37,10.18-18.35,5.72s.73-7.76,3.36-6.23l.6.77s-3.29-.8-4,1.5.59,4.66,4.66,5.06,11.63-3.61,12.93-7.34Z" transform="translate(-52.31 -318)"/><path class="cls-12" d="M539.1,441.83c4.44,2.17,2.69,8.31-1.74,9.39s-11.73-11.27-4.67-15.07h1s-4.45,3.35-3,7.37,4.43,7.15,7,6.57,5.3-5.25.38-7.95Z" transform="translate(-52.31 -318)"/><path class="cls-12" d="M545.13,435.6l-1.08,1s5.22,9.61-.29,11.67-6-4.24-4.65-6.45l-1.07.31s-2.59,8.82,5.8,7S545.13,435.6,545.13,435.6Z" transform="translate(-52.31 -318)"/><path class="cls-12" d="M533.65,436.16c2.67,1.79,2.87,14.62-4.55,14.84s-4.09-6.5-4.09-6.5l1,.58s-3.09,5.17,2.88,5.09,7.3-9.93,3.84-14Z" transform="translate(-52.31 -318)"/><path class="cls-54" d="M552.11,404.16c4.38,1.78,2.94,6.93-.55,8s-4.49-3.66-4.49-3.66l.66-.54s.94,4.23,4,3.14,3.36-5.43-.45-6.26Z" transform="translate(-52.31 -318)"/><path class="cls-54" d="M555.16,395.47c5.65,2.82,9.88,14.11,5.05,16.83s-9.39-5.59-8.94-7.47l.84-.67s2.6,9.92,7.48,7.68-.39-13.82-5.26-15.65Z" transform="translate(-52.31 -318)"/><path class="cls-54" d="M547.73,408c3.88.28,4,6-3.09,4.89l.54-1s2.77,1.41,3.93-.69-2.05-2.66-2.05-2.66Z" transform="translate(-52.31 -318)"/><path class="cls-54" d="M448.7,431c1.09,4.4-4.63,7.67-8.38,4.4s-4.17-10.64,3.13-13l1.2.63a7.8,7.8,0,0,0-5.59,5.6c-1.2,4.68,3.1,6.79,4.47,7s4.55-1.44,3.52-5.52Z" transform="translate(-52.31 -318)"/><path class="cls-54" d="M451.37,434.89l.66,2.59s-5.13,1.63-7.11-1.64-.43-5.42,2.15-5.72l1.63.88s-4.45-.12-3.49,3S451.37,434.89,451.37,434.89Z" transform="translate(-52.31 -318)"/><path class="cls-54" d="M444.66,423.07c-.6,7.36-6.88,12.73-12.72,6.52l1.2-1.9s1.95,5.89,7.27,1.93c3.3-2.46,3-7.18,3-7.18Z" transform="translate(-52.31 -318)"/><path class="cls-49" d="M529.48,495.14c-2.64-3.37-6.55-2.67-7.46.53s2.9,3.31,2.9,3.31l-.07-1.29s-2.66.08-2.1-1.61A3,3,0,0,1,526,493.7c1.5.16,3.1,2.55,3.1,2.55Z" transform="translate(-52.31 -318)"/><path class="cls-49" d="M535.29,491l.9-1.59s-7.42-6.26-11.86-.91c-5,6,.42,9.21,4.81,7.77l.34-1.11s-6,1.41-6.15-2.38,4.25-6,6.16-5.68A9.35,9.35,0,0,1,535.29,491Z" transform="translate(-52.31 -318)"/><path class="cls-56" d="M457.37,480.93c-4.42,0-7.75,5.11-5.89,8.26s6.59,1.09,6.48-1.28l-.43-1s-1.4,4.35-4.73,2.74c-2.52-1.22-.59-5.46.72-6.43A6.79,6.79,0,0,1,458,482Z" transform="translate(-52.31 -318)"/><path class="cls-56" d="M459.12,489.33c-2.18-.14-4.22,4.52-.35,5.43s5.33,0,5.36,2.58l1.05-.53s.38-2.36-2.75-2.36-5.26-.48-5-2.39a2.39,2.39,0,0,1,2.27-2Z" transform="translate(-52.31 -318)"/><path class="cls-56" d="M450,483.24l-.32-1.23s-3.18.75-1.83,4.33,8.73.75,10.07-4.33l-.59-1.08a8,8,0,0,1-4.63,5.56C448.27,488.52,446.92,484.86,450,483.24Z" transform="translate(-52.31 -318)"/><path class="cls-56" d="M457.53,486.91c-2.87-.14-5.71,3-3.66,6s6.27.42,5.84-2.79l-.59-.75a7.36,7.36,0,0,1-.91,3.09,2.27,2.27,0,0,1-3.75-.08c-2.67-3.71,3.5-4.43,3.5-4.43Z" transform="translate(-52.31 -318)"/><polygon class="cls-12" points="108 26.05 104.48 28.38 103.27 26.05 107.31 24.08 108 26.05"/><polygon class="cls-45" points="50.97 155.51 47.45 157.84 46.24 155.51 50.28 153.54 50.97 155.51"/><polygon class="cls-12" points="22.86 132.98 21.65 131.94 17.87 132.46 19.33 133.32 22.86 132.98"/><polygon class="cls-12" points="76.79 53.72 73.96 55.78 73.18 51.66 74.99 51.31 76.79 53.72"/><polygon class="cls-46" points="134.54 106.89 133.77 104.05 132.05 105.47 132.56 107.49 134.54 106.89"/><polygon class="cls-47" points="124.2 156.81 123.42 153.97 121.7 155.39 122.22 157.41 124.2 156.81"/><polygon class="cls-12" points="9.23 136.96 7.26 138.03 7.26 132.92 9.23 132.92 9.23 136.96"/><polygon class="cls-12" points="41.3 99.01 41.97 103.18 39.36 103.32 39.22 98.83 41.3 99.01"/><polygon class="cls-48" points="49.86 84.59 48.43 85.26 47.35 88.92 48.73 87.94 49.86 84.59"/><polygon class="cls-49" points="8.31 117.77 9.39 118.72 7.94 121.94 6.46 118.53 8.31 117.77"/><polygon class="cls-48" points="136.57 73.44 133.67 72.98 134.26 75.13 136.31 75.49 136.57 73.44"/><polygon class="cls-12" points="133.29 131.09 129.77 133.41 128.57 131.09 132.61 129.11 133.29 131.09"/><polygon class="cls-12" points="104.08 145.92 102.8 146.95 99.19 144.54 101.08 143.34 104.08 145.92"/><polygon class="cls-50" points="52.09 140.05 52.09 141.86 49.85 141.86 50.97 140.05 52.09 140.05"/><polygon class="cls-12" points="131.38 54.41 127.86 56.73 126.65 54.41 130.69 52.44 131.38 54.41"/><polygon class="cls-12" points="121.91 143.41 119.07 145.47 118.3 141.35 120.1 141 121.91 143.41"/><polygon class="cls-51" points="37.43 115.01 34.59 117.07 33.82 112.95 35.62 112.6 37.43 115.01"/><polygon class="cls-46" points="107.41 82.16 105.43 83.24 105.43 78.12 107.41 78.12 107.41 82.16"/><polygon class="cls-52" points="80.55 35.64 80.55 37.44 78.31 37.44 79.43 35.64 80.55 35.64"/><polygon class="cls-53" points="43.87 67.67 40.35 69.99 39.14 67.67 43.18 65.69 43.87 67.67"/><polygon class="cls-46" points="55.95 48.27 54.75 47.24 50.97 47.75 52.43 48.61 55.95 48.27"/><polygon class="cls-22" points="3.61 165.53 0.77 167.59 0 163.47 1.8 163.13 3.61 165.53"/><polygon class="cls-45" points="22.35 61.99 19.51 64.06 18.74 59.93 20.55 59.59 22.35 61.99"/><polygon class="cls-12" points="153 108.61 152.22 105.77 150.5 107.19 151.02 109.21 153 108.61"/><polygon class="cls-54" points="104.08 100.04 102.8 101.07 99.19 98.67 101.08 97.46 104.08 100.04"/><polygon class="cls-46" points="114.33 95.83 113.73 97.46 109.52 96.64 110.98 93.85 114.33 95.83"/><path class="cls-55" d="M173.62,383.11l.09-.09Z" transform="translate(-52.31 -318)"/><path class="cls-50" d="M173.56,383.17h0l.06-.05Z" transform="translate(-52.31 -318)"/><path class="cls-12" d="M89.14,397.31c-2.06,4.36-16.15,10.9-19,4.67-3.74-8.09,10.9-13.91,14.6-12.59l.6.88s-7.4-.47-12.25,3.92c-3.57,3.23-3.36,6.39-1.94,7.81s5.35,1.7,9.48.41,7.51-5.67,7.51-5.67l.37.33Z" transform="translate(-52.31 -318)"/><path class="cls-12" d="M86.12,410.42l-.73-1.27s-4.11,1.83-5-.71,3.4-3.75,3.4-3.75l-1-.33s-4.62.55-3.06,4.55S86.12,410.42,86.12,410.42Z" transform="translate(-52.31 -318)"/><path class="cls-12" d="M83.83,404.69c1.19.71-2.28,6-6.26,3.62s.18-8,4-10.53,6.53-1.46,6.53-1.46l1,1a10,10,0,0,0-7.6,1.66c-3.51,2.6-5.08,5.09-4.79,7.39.34,2.67,7,2.08,6.13-1.71Z" transform="translate(-52.31 -318)"/><path class="cls-12" d="M70.92,390.53c-.58,2.25-7.52,5.33-9.62,1.48s1-5,1-5l.17.83s-2.07,1.34-.34,3.87,6.42,1.1,7.86-1.71Z" transform="translate(-52.31 -318)"/><path class="cls-12" d="M85.31,390.27C82.16,397.05,69.94,400.45,67,396s.73-7.76,3.36-6.23l.6.77s-3.29-.8-4,1.5.59,4.66,4.66,5.06,11.63-3.61,12.93-7.34Z" transform="translate(-52.31 -318)"/><path class="cls-12" d="M167.3,434.4c4.44,2.17,2.69,8.31-1.74,9.39s-11.73-11.27-4.67-15.07h1s-4.45,3.35-3,7.37,4.43,7.15,7,6.57,5.3-5.25.38-7.95Z" transform="translate(-52.31 -318)"/><path class="cls-12" d="M173.32,428.17l-1.08,1s5.22,9.61-.29,11.67-6-4.24-4.65-6.45l-1.07.31s-2.59,8.82,5.8,7S173.32,428.17,173.32,428.17Z" transform="translate(-52.31 -318)"/><path class="cls-12" d="M161.85,428.72c2.67,1.79,2.87,14.62-4.55,14.84s-4.09-6.5-4.09-6.5l1,.58s-3.09,5.17,2.88,5.09,7.3-9.93,3.84-14Z" transform="translate(-52.31 -318)"/><path class="cls-54" d="M180.3,396.72c4.38,1.78,2.94,6.93-.55,8s-4.49-3.66-4.49-3.66l.66-.54s.94,4.23,4,3.14,3.36-5.43-.45-6.26Z" transform="translate(-52.31 -318)"/><path class="cls-54" d="M183.35,388c5.65,2.82,9.88,14.11,5.05,16.83s-9.39-5.59-8.94-7.47l.84-.67s2.6,9.92,7.48,7.68-.39-13.82-5.26-15.65Z" transform="translate(-52.31 -318)"/><path class="cls-54" d="M175.93,400.51c3.88.28,4,6-3.09,4.89l.54-1s2.77,1.41,3.93-.69-2.05-2.66-2.05-2.66Z" transform="translate(-52.31 -318)"/><path class="cls-54" d="M76.9,423.57c1.09,4.4-4.63,7.67-8.38,4.4s-4.17-10.64,3.13-13l1.2.63a7.8,7.8,0,0,0-5.59,5.6c-1.2,4.68,3.1,6.79,4.47,7s4.55-1.44,3.52-5.52Z" transform="translate(-52.31 -318)"/><path class="cls-54" d="M79.56,427.46l.66,2.59s-5.13,1.63-7.11-1.64-.43-5.42,2.15-5.72l1.63.88s-4.45-.12-3.49,3S79.56,427.46,79.56,427.46Z" transform="translate(-52.31 -318)"/><path class="cls-54" d="M72.86,415.63c-.6,7.36-6.88,12.73-12.72,6.52l1.2-1.9s1.95,5.89,7.27,1.93c3.3-2.46,3-7.18,3-7.18Z" transform="translate(-52.31 -318)"/><path class="cls-49" d="M157.67,487.7c-2.64-3.37-6.55-2.67-7.46.53s2.9,3.31,2.9,3.31l-.07-1.29s-2.66.08-2.1-1.61a3,3,0,0,1,3.28-2.38c1.5.16,3.1,2.55,3.1,2.55Z" transform="translate(-52.31 -318)"/><path class="cls-49" d="M163.49,483.55l.9-1.59s-7.42-6.26-11.86-.91c-5,6,.42,9.21,4.81,7.77l.34-1.11s-6,1.41-6.15-2.38,4.25-6,6.16-5.68A9.35,9.35,0,0,1,163.49,483.55Z" transform="translate(-52.31 -318)"/><path class="cls-56" d="M85.57,473.5c-4.42,0-7.75,5.11-5.89,8.26s6.59,1.09,6.48-1.28l-.43-1s-1.4,4.35-4.73,2.74c-2.52-1.22-.59-5.46.72-6.43a6.79,6.79,0,0,1,4.44-1.21Z" transform="translate(-52.31 -318)"/><path class="cls-56" d="M87.31,481.9c-2.18-.14-4.22,4.52-.35,5.43s5.33,0,5.36,2.58l1.05-.53s.38-2.36-2.75-2.36-5.26-.48-5-2.39a2.39,2.39,0,0,1,2.27-2Z" transform="translate(-52.31 -318)"/><path class="cls-56" d="M78.24,475.8l-.32-1.23s-3.18.75-1.83,4.33,8.73.75,10.07-4.33l-.59-1.08a8,8,0,0,1-4.63,5.56C76.47,481.08,75.12,477.42,78.24,475.8Z" transform="translate(-52.31 -318)"/><path class="cls-56" d="M85.73,479.48c-2.87-.14-5.71,3-3.66,6s6.27.42,5.84-2.79l-.59-.75a7.36,7.36,0,0,1-.91,3.09,2.27,2.27,0,0,1-3.75-.08c-2.67-3.71,3.5-4.43,3.5-4.43Z" transform="translate(-52.31 -318)"/><path class="cls-26" d="M137.69,381.6a8.49,8.49,0,0,0-1.38,1.61,2.86,2.86,0,0,0-.43,2,1.74,1.74,0,0,0,1.42,1.39,2.6,2.6,0,0,0,2.17-1.39,12.48,12.48,0,0,0,1.59-3.14,3.8,3.8,0,0,0,.26-1.74,1.62,1.62,0,0,0-1-1.34Z" transform="translate(-52.31 -318)"/><path class="cls-30" d="M161.82,410.95c12.69-14.18,18.46-27.18,19.6-33.84s1.11-5.7.56-8-4-2.34-2.56-4.63,3,2.63,4.16,2.88.64-11.56,1.83-13.45,2.84-.21,1.7,3.19a17.73,17.73,0,0,0-.94,6.18s3.31-7.63,4.55-8.47,1.84,1.4,1.06,3-3.44,5.08-3.77,6.75c0,0,5.34-5.16,7.86-6.3s2.37,1.36,1.32,2.36-6.28,3-7.67,5.34c0,0,5.62-2.91,7.64-2s1.25,2.69.11,3.27-3-.21-4.92-.28-1.61.23-1.88,3.12,0,4.77-2.5,4.76-4.1,3.41-2.75,16.89-8.54,14.84-12.36,25.06S161.82,410.95,161.82,410.95Z" transform="translate(-52.31 -318)"/><path class="cls-31" d="M184.72,382.67c-1.42-.61-2.83-1.25-4.19-2-2.23,7.18-8,18.29-18.71,30.25,0,0,7.21,16,11,5.82s13.71-11.59,12.36-25.06A82,82,0,0,1,184.72,382.67Z" transform="translate(-52.31 -318)"/><path class="cls-26" d="M113.22,455.15s-9.62,21.3-9.84,24.69S134.9,508,134.9,508l2.63-2.16-19.81-28.4,10-12.19,4.35.79s13.33,29,14.45,29.67a9.79,9.79,0,0,0,3.63,1c1.3.25,17.77-18.27,17.77-18.27l-2.13-2.36-14.59,8.28-2-24.58Z" transform="translate(-52.31 -318)"/><path class="cls-57" d="M149.22,460.55l-1.51-1-34.48-4.42s-.6,1.34-1.51,3.39c4.35,2.64,9.56,3.69,14.55,4.57,7.7,1.35,15.59,2.56,23.31,1.68Z" transform="translate(-52.31 -318)"/><polygon class="cls-26" points="113.47 158.06 114.71 155.84 121.91 158.08 117.29 159.04 115.6 160.42 113.47 158.06"/><polygon class="cls-26" points="85.22 187.85 87.84 189.15 84 197.75 83.78 190.91 82.59 190.01 85.22 187.85"/><path class="cls-16" d="M114.62,474.75c2.52-3.36,5.12-6.75,7.64-10.11l-11-5.15c-2.54,5.78-6.79,15.69-7.73,19.38a5.64,5.64,0,0,0,.47.34,5.9,5.9,0,0,0,5.29.48C111.53,478.81,113.13,476.73,114.62,474.75Z" transform="translate(-52.31 -318)"/><path class="cls-16" d="M151.08,483l-1.43-17.23a18.91,18.91,0,0,1-9.5,1,76.2,76.2,0,0,0,4.08,16.65,4.74,4.74,0,0,0,1.86,2.66,2.69,2.69,0,0,0,2.62-.24,6.73,6.73,0,0,0,1.93-2.07C150.79,483.47,150.94,483.23,151.08,483Z" transform="translate(-52.31 -318)"/><path class="cls-13" d="M131.15,410.3s-3-7.76-3.68-9.35.66-4.25-1.59-5.68-2.63-19.57-2.77-21.58l-7.57-2.13s-4.61,13-5.05,16.49S120,426.48,120,426.48l-7.74,30.83s15.46,7.3,37.23,6.49L153.86,433s13.46-9.08,16.94-11.53,4.82-10.15,8.12-12.18,6.18-10.29,6.88-17.49l-7.52-6.18s-5.69,9.6-10,16.25S153.6,413.9,153.6,413.9Z" transform="translate(-52.31 -318)"/><path class="cls-13" d="M131.15,410.3s-3-7.76-3.68-9.35.66-4.25-1.59-5.68-2.63-19.57-2.77-21.58l-7.57-2.13s-4.61,13-5.05,16.49S120,426.48,120,426.48l-7.74,30.83s15.46,7.3,37.23,6.49L153.86,433s13.46-9.08,16.94-11.53,4.82-10.15,8.12-12.18,6.18-10.29,6.88-17.49l-7.52-6.18s-5.69,9.6-10,16.25S153.6,413.9,153.6,413.9Z" transform="translate(-52.31 -318)"/><path class="cls-28" d="M152.29,413.69l-12.05,1.36a16.42,16.42,0,0,1-5.29,0,5.56,5.56,0,0,1-4.08-3.07l-3.35,10.59,5.53-2a11.35,11.35,0,0,1-3.23,10c-3.09,3-7.54,3.9-11.87,4.16l-2.44,9.7a28.25,28.25,0,0,1,3.3-1.42c3.14-1.14,6.45-2,9.16-4a16.93,16.93,0,0,0,5.57-7.4,31.91,31.91,0,0,0,2-9.13l2.3,3.47a86.9,86.9,0,0,0,14.79-12.18Z" transform="translate(-52.31 -318)"/><path class="cls-29" d="M129.56,349.54c-.64-.2-1.24.41-1.58,1s-.68,1.28-1.34,1.42a2.77,2.77,0,0,1,.1-1.91c.19-.74.18-1.91-.77-2.11a2.64,2.64,0,0,0-1.51.3l-1.34.56a4.87,4.87,0,0,0-1.12.59c-.58.45-1,1.19-1.76,1.25-.5,0-1-.26-1.49,0-.64.34-.45,1.45-1.06,1.84a1.37,1.37,0,0,1-.9.11c-.94-.12-1.06.1-1.29.86a4,4,0,0,0-.36,1.72,2.13,2.13,0,0,0,2.65,1.65,12.62,12.62,0,0,0-.83,2.94,2,2,0,0,0,1.42,1.88c1.52.66,2.08,2.48.46,6.93,1.33.54,2.68,1,4,1.62a28.71,28.71,0,0,1,.64-3.83,69.5,69.5,0,0,1,1.75-7.21,20.7,20.7,0,0,1,4-6.74,3.77,3.77,0,0,0,.95-1.41A1.16,1.16,0,0,0,129.56,349.54Z" transform="translate(-52.31 -318)"/><path class="cls-30" d="M119.2,367.41c-.11.36-.23.73-.38,1.13,1.33.54,2.68,1,4,1.62a30.85,30.85,0,0,1,.48-3.12A40.54,40.54,0,0,1,119.2,367.41Z" transform="translate(-52.31 -318)"/><path class="cls-31" d="M126.52,351.09A29.08,29.08,0,0,0,116,356.44a2.05,2.05,0,0,0,1.82.34,12.62,12.62,0,0,0-.83,2.94,1.83,1.83,0,0,0,1,1.65l.29,0a3.57,3.57,0,0,0,1.68-1.06l1.82-1.69a14.51,14.51,0,0,0,3.22-3.92l1.7-2.74A1.56,1.56,0,0,1,126.52,351.09Z" transform="translate(-52.31 -318)"/><path class="cls-27" d="M130.64,412.49l1.84-.25,2.38-5.43,21.71-4.25-7.91,15.18s1.27-1.9-1.78-.22c0,0-4.64,4.88-12.6.21C130.21,415.34,130.64,412.49,130.64,412.49Z" transform="translate(-52.31 -318)"/><path class="cls-31" d="M154,404.19a27.17,27.17,0,0,1-13.84,6.87,13.62,13.62,0,0,1-6.78-.76l1.53-3.48,18.8-3.63Z" transform="translate(-52.31 -318)"/><path class="cls-29" d="M152.11,405.82c-2.66,1.5-8.21,2.45-11.13,2.74s-5.75.31-7.55-2.69c-1.52-2.54-1.44-5.72-.93-8.63a34.52,34.52,0,0,1,4.31-11.64c.65-1.1,3.47-6.91,5.47-6.28l20.42,6.39,2.31,3.6-9.52,15.21Z" transform="translate(-52.31 -318)"/><path class="cls-31" d="M155.82,391.49a14.18,14.18,0,0,1,1,1.7c.57,1.4.17,3-.24,4.43a12.49,12.49,0,0,0,4-7.59,11.18,11.18,0,0,0-.62-5.19l-17.67-5.53c-.94-.3-2.07.84-3.06,2.24a14.44,14.44,0,0,0,16,4.9A6.58,6.58,0,0,0,155.82,391.49Z" transform="translate(-52.31 -318)"/><path class="cls-31" d="M141.65,400.58a2.31,2.31,0,0,1-1.05-.17,1,1,0,0,1-.61-.82c0-.55.54-.95,1.07-1.06s1.1-.05,1.62-.21a13.4,13.4,0,0,0,1.49-.78,1.31,1.31,0,0,1,1.55.18,1.08,1.08,0,0,1,0,1.2,2.43,2.43,0,0,1-1,.82A6.87,6.87,0,0,1,141.65,400.58Z" transform="translate(-52.31 -318)"/><path class="cls-31" d="M139.54,401.29a4.77,4.77,0,0,0,6.06.31,1.94,1.94,0,0,0,.64-.77.91.91,0,0,0-.13-.95,1.34,1.34,0,0,0-1.13-.26A16,16,0,0,0,139.54,401.29Z" transform="translate(-52.31 -318)"/><path class="cls-32" d="M143.39,402a6.84,6.84,0,0,1-2.88-.19,2.79,2.79,0,0,1-1.2-.62,1.3,1.3,0,0,1-.4-1.24,1.44,1.44,0,0,1,1.14-.92,7.83,7.83,0,0,1,1.54-.05,6.19,6.19,0,0,0,2.93-.77,2.69,2.69,0,0,1,1.78-.59,1.39,1.39,0,0,1,1,1.39,2.55,2.55,0,0,1-.77,1.63C145.47,401.8,144.89,401.81,143.39,402Z" transform="translate(-52.31 -318)"/><path class="cls-33" d="M144.52,398.25a6.19,6.19,0,0,1-2.93.77,7.83,7.83,0,0,0-1.54.05,1.86,1.86,0,0,0-.59.23,4.65,4.65,0,0,0,6.71-1.66A3,3,0,0,0,144.52,398.25Z" transform="translate(-52.31 -318)"/><path class="cls-34" d="M141.91,402.09a6.81,6.81,0,0,0,1.48-.06c1.5-.22,2.09-.24,3.12-1.35a2.55,2.55,0,0,0,.77-1.63,1.49,1.49,0,0,0,0-.33l-.34.12A15.61,15.61,0,0,0,141.91,402.09Z" transform="translate(-52.31 -318)"/><ellipse class="cls-35" cx="149.83" cy="391.78" rx="2.1" ry="1.33" transform="translate(-321.52 92.47) rotate(-71.63)"/><ellipse class="cls-26" cx="149.83" cy="391.78" rx="1.37" ry="0.87" transform="translate(-321.52 92.48) rotate(-71.63)"/><circle class="cls-36" cx="150.74" cy="391.48" r="0.27" transform="translate(-317.56 127.66) rotate(-76.36)"/><ellipse class="cls-35" cx="141.52" cy="389.29" rx="2.1" ry="1.33" transform="translate(-324.84 82.89) rotate(-71.63)"/><ellipse class="cls-26" cx="141.52" cy="389.29" rx="1.37" ry="0.87" transform="translate(-324.84 82.87) rotate(-71.63)"/><circle class="cls-36" cx="142.43" cy="388.99" r="0.27" transform="translate(-321.48 117.72) rotate(-76.37)"/><path class="cls-31" d="M140.22,397.38s0,0,0,0h-.05a.23.23,0,0,1-.11,0l-.16-.14a4.05,4.05,0,0,1-.86-1.09,1.8,1.8,0,0,1-.25-.83c0-.27.17-.49.48-.75l2-1.72a18.64,18.64,0,0,0,3.37-3.55,4,4,0,0,0,.87-1.84c-.1,0-.45.63-1.24,1.56a27.58,27.58,0,0,1-3.42,3.33c-.71.62-1.4,1.2-2,1.77a2.44,2.44,0,0,0-.44.51,1.23,1.23,0,0,0-.18.69,2.16,2.16,0,0,0,.39,1.06,3.33,3.33,0,0,0,1.1,1.06,1.59,1.59,0,0,0,.23.11.32.32,0,0,0,.22,0c.06,0,.11-.09.09-.13S140.23,397.37,140.22,397.38Z" transform="translate(-52.31 -318)"/><path class="cls-26" d="M163.33,382.68a3.93,3.93,0,0,1,4.13,2.49,6.16,6.16,0,0,1-.44,5,14.92,14.92,0,0,1-3.32,4,53.83,53.83,0,0,1-8,5.74L154,399a14.07,14.07,0,0,0,3.72-6,7.16,7.16,0,0,1-1.52-7.69,16.61,16.61,0,0,1-20.62-13.06,18.64,18.64,0,0,1,27.76,10.4Z" transform="translate(-52.31 -318)"/><path class="cls-16" d="M133.37,418.61a13,13,0,0,1-5.73,12.13c-6.86,4.58-21-8.15-31.7,3.11l-.28,9,7.32,1.16s6.32-7.57,15.16-5.79,18.53-7.73,16.85-19Z" transform="translate(-52.31 -318)"/><polygon class="cls-13" points="81.97 99.73 81.61 90.95 78.84 92.3 75.95 102.71 81.97 101.3 86.28 106.57 101.29 95.9 100.12 92.6 81.97 99.73"/><polygon class="cls-13" points="63.22 53.56 64.62 48.67 71.64 51.11 70.79 55.69 63.22 53.56"/><polygon class="cls-13" points="125.95 67.6 128.02 63.29 135.19 68.65 133.48 73.78 125.95 67.6"/><path class="cls-37" d="M95.31,349.68c-.23-.27-5.67-6.57-5.25-13,.41-6.27,6.93-17.68,7.21-18.17l.28-.49h7.14l-.29,6.58,3,2.54-1.28,1.51-3.73-3.17.24-5.48H98.7c-1.26,2.26-6.34,11.7-6.67,16.82-.37,5.62,4.71,11.53,4.76,11.59Z" transform="translate(-52.31 -318)"/><path class="cls-38" d="M82,358l-1.33.72a18.61,18.61,0,0,0,5.26,8.18c4.28,4.07,10.76,3.8,10.76,3.8l.36-1.46Z" transform="translate(-52.31 -318)"/><path class="cls-37" d="M90.34,359.37A47.32,47.32,0,0,0,82,358S84.23,368.74,97,369.23A19.27,19.27,0,0,0,93,361.45Z" transform="translate(-52.31 -318)"/><path class="cls-39" d="M90.21,367.72a13.48,13.48,0,0,0,1.42-7.33l-1.3-1A47.33,47.33,0,0,0,82,358,14.91,14.91,0,0,0,90.21,367.72Z" transform="translate(-52.31 -318)"/><path class="cls-40" d="M95.72,368a20.51,20.51,0,0,0-2.93-6.18l-1,5.51A5.09,5.09,0,0,0,95.72,368Z" transform="translate(-52.31 -318)"/><path class="cls-37" d="M89.25,366.45a16.52,16.52,0,0,0-.21-3.19,5.54,5.54,0,0,0-1.38-2.84c-1.29-1.31-3.26-1.61-5.09-1.84A23.09,23.09,0,0,0,89.25,366.45Z" transform="translate(-52.31 -318)"/><path class="cls-37" d="M91,355.95l-.71,3.42A2.3,2.3,0,0,0,93,361.45l3.16-1.22Z" transform="translate(-52.31 -318)"/><path class="cls-37" d="M96.69,353.11s-1.51,2.3-5.64,2.84c0,0-.31,4.31,5.1,4.28,0,0,.05-3.73,2.36-6Z" transform="translate(-52.31 -318)"/><path class="cls-39" d="M97.07,353.35l-.38-.24s-1.51,2.3-5.64,2.84a4,4,0,0,0,3.39,4.12A12.42,12.42,0,0,1,97.07,353.35Z" transform="translate(-52.31 -318)"/><path class="cls-40" d="M96.82,355.07a11.36,11.36,0,0,1-1.45,4.24A5.19,5.19,0,0,1,96.82,355.07Z" transform="translate(-52.31 -318)"/><path class="cls-37" d="M92.25,358.06a2.18,2.18,0,0,1-.59-1.75,12.66,12.66,0,0,0,4.23-1.83A23.23,23.23,0,0,1,92.25,358.06Z" transform="translate(-52.31 -318)"/><path class="cls-39" d="M96.4,350.23s-1.91,1.85.74,4c3.1,2.57,4.15.4,4.15.4Z" transform="translate(-52.31 -318)"/><path class="cls-40" d="M101.79,355.09c.3.19,7.36,4.6,13.66,3.21,6.13-1.35,16.43-9.54,16.86-9.89l.45-.36L131.68,341l-6.46,1.28-3-2.58L121,341.2l3.7,3.21,5.38-1.07.6,3.88c-2,1.58-10.6,8-15.61,9.15-5.5,1.22-12.11-2.91-12.18-2.95Z" transform="translate(-52.31 -318)"/><path class="cls-41" d="M111.17,323.94s-27.56,15.36-13.5,28.66C112.9,367,124.95,335,124.95,335Z" transform="translate(-52.31 -318)"/><path class="cls-37" d="M106.36,347.64a47.05,47.05,0,0,1,1.31-16.81,27,27,0,0,1,2.39-6.23c-5,3.06-24.74,16.33-12.39,28,3.64,3.44,7.1,4.23,10.25,3.44A49.52,49.52,0,0,1,106.36,347.64Z" transform="translate(-52.31 -318)"/><path class="cls-39" d="M100.41,332c-2.66,3.23-5.19,6.8-5.57,10.95a11.61,11.61,0,0,0,8.77,12.32,46.87,46.87,0,0,1,5.33-30A56.42,56.42,0,0,0,100.41,332Z" transform="translate(-52.31 -318)"/><path class="cls-42" d="M111.17,323.94s-.66,12.21,13.78,11C124.95,335,122.92,325.36,111.17,323.94Z" transform="translate(-52.31 -318)"/><path class="cls-43" d="M115.17,324.84c.14.21.28.43.4.66a27.35,27.35,0,0,1,2.15,5.38c.34,1.19.64,2.4.9,3.61a17.64,17.64,0,0,0,6.34.49A14.82,14.82,0,0,0,115.17,324.84Z" transform="translate(-52.31 -318)"/><path class="cls-44" d="M123,333.74c-3.55,0-6.26-1-8.06-2.86a9.66,9.66,0,0,1-2.41-5.38,13.9,13.9,0,0,1,10.58,8.24H123Z" transform="translate(-52.31 -318)"/><path class="cls-38" d="M116.3,331.29c.4-1.32.79-2.64,1.29-3.91a15.89,15.89,0,0,0-4.91-1.86C113,327.91,114.57,329.65,116.3,331.29Z" transform="translate(-52.31 -318)"/><path class="cls-37" d="M97.34,340.36a35.85,35.85,0,0,1,10.9-13.59A40,40,0,0,0,102,351c-2.22-1-4.65-2.17-5.51-4.43C95.73,344.55,96.45,342.3,97.34,340.36Z" transform="translate(-52.31 -318)"/><path class="cls-40" d="M123.65,335.39a10.72,10.72,0,0,1-8.08-1.25,11.1,11.1,0,0,1-4.89-6.68,34.53,34.53,0,0,0-1.09,27.5A30.28,30.28,0,0,0,123.65,335.39Z" transform="translate(-52.31 -318)"/><path class="cls-41" d="M119.68,336.62a39.43,39.43,0,0,1-4.73,11.68,62.51,62.51,0,0,1,3.18-12.06,13.06,13.06,0,0,1-5.76-3.62,33.11,33.11,0,0,0-1.31,19.05,20.68,20.68,0,0,0,10.83-14.86A12.6,12.6,0,0,1,119.68,336.62Z" transform="translate(-52.31 -318)"/><path class="cls-40" d="M98.18,353.56c-.19-.18-.55-.54-.85-.45-.76.24.18,1,.44,1.21a3.92,3.92,0,0,0,2.05.75Z" transform="translate(-52.31 -318)"/><path class="cls-40" d="M91.56,358.62a6.08,6.08,0,0,0,3.26,1.93,5.5,5.5,0,0,1-1.27.58,1.85,1.85,0,0,1-1.36-.12,1.39,1.39,0,0,1-.66-.87A2.68,2.68,0,0,1,91.56,358.62Z" transform="translate(-52.31 -318)"/><path class="cls-39" d="M96.69,370.69l.28-1.13a17.28,17.28,0,0,1-13.38-6.72l.17,1.65a22,22,0,0,0,2.17,2.4C90.21,371,96.69,370.69,96.69,370.69Z" transform="translate(-52.31 -318)"/><path class="cls-41" d="M116.13,356.29a13,13,0,0,1-7.09.09,4.78,4.78,0,0,0,3.5,1.62,16,16,0,0,0,4.16-.65C116.53,357.08,116.3,356.56,116.13,356.29Z" transform="translate(-52.31 -318)"/><path class="cls-41" d="M132.58,348a24.59,24.59,0,0,0-1.3-6c-.08,1.86-.13,3.81-.21,5.67a20.78,20.78,0,0,1-6.06,4.19c0,.37-.19.74-.23,1.1A60.19,60.19,0,0,0,132.58,348Z" transform="translate(-52.31 -318)"/><path class="cls-40" d="M103.17,324.52l.35-5.59c.29-.18.7-.37,1-.55-.14,2.14-.27,3.75-.41,5.89C103.78,324.17,103.5,324.62,103.17,324.52Z" transform="translate(-52.31 -318)"/><path class="cls-16" d="M159,383.85,153.22,378l7.26,5.29a15.45,15.45,0,0,0-9.12-8.55,17.05,17.05,0,0,1,9.38,6,17.95,17.95,0,0,0-24.08-8.28,15.59,15.59,0,0,0,21,11.33A18.52,18.52,0,0,1,144.56,378Z" transform="translate(-52.31 -318)"/><path class="cls-35" d="M141.24,374a1.69,1.69,0,0,0,2.25.49,1.63,1.63,0,1,0-2.25-.49Z" transform="translate(-52.31 -318)"/><path class="cls-35" d="M147.57,374a1,1,0,1,0-1.46-.36A1.06,1.06,0,0,0,147.57,374Z" transform="translate(-52.31 -318)"/><path class="cls-16" d="M160.41,390.54a16.09,16.09,0,0,0,.27-6.15l1.84,1.8a3.6,3.6,0,0,1-.46-1.35,1.23,1.23,0,0,1,.61-1.2,1.54,1.54,0,0,1,1.51.36,5.6,5.6,0,0,1,1.85,5.54,8.21,8.21,0,0,1-3.49,4.89,15.78,15.78,0,0,1-5.69,2.25l2.54-3.82-2.17,1.63a1.88,1.88,0,0,0,.55-1.88,13.38,13.38,0,0,0-.72-1.93,6.35,6.35,0,0,1,.62-5.54,7.08,7.08,0,0,0,.6,4.17l.49-3.7A6.15,6.15,0,0,1,160.41,390.54Z" transform="translate(-52.31 -318)"/><path class="cls-35" d="M164.65,389.66a1,1,0,1,0-1.35-.22A1.08,1.08,0,0,0,164.65,389.66Z" transform="translate(-52.31 -318)"/><path class="cls-26" d="M141.74,384.67a5.16,5.16,0,0,1-1.82-.68,1.46,1.46,0,0,1-.69-1.57,5.54,5.54,0,0,1,5.34,1.51,1.3,1.3,0,0,1-1.17.92A4.59,4.59,0,0,1,141.74,384.67Z" transform="translate(-52.31 -318)"/><path class="cls-26" d="M153.58,385.82a10.2,10.2,0,0,0-3.28-.92,3.46,3.46,0,0,0-3,1.28l5.18,1.74a3.35,3.35,0,0,0,1.46.26,1.15,1.15,0,0,0,1-.91C155,386.54,154.24,386.09,153.58,385.82Z" transform="translate(-52.31 -318)"/><path class="cls-27" d="M158.38,398.17a7,7,0,0,1,1.66-2,2.37,2.37,0,0,1,2.45-.32,2.2,2.2,0,0,1,1,1.45,4.35,4.35,0,0,1,0,1.82,6.58,6.58,0,0,1-1.53,3.21,4.48,4.48,0,0,1-3.16,1.5c-1.36,0-3-.58-2.52-2.12A14.43,14.43,0,0,1,158.38,398.17Z" transform="translate(-52.31 -318)"/><path class="cls-31" d="M158.47,401.29a1.13,1.13,0,0,0,.93-2.05,3,3,0,0,1,1.84-2.49,1.4,1.4,0,0,1,1.4.09,1.6,1.6,0,0,1,.24,1.67,6.18,6.18,0,0,1-2.42,3.34,2.12,2.12,0,0,1-1.55.46C158.36,402.2,158.22,401.78,158.47,401.29Z" transform="translate(-52.31 -318)"/><path class="cls-29" d="M116,352.83a3.17,3.17,0,0,0-1,2.37c-.1.9-.27,1.41.35,2.07a3,3,0,0,0,2,1.16,1.49,1.49,0,0,0,1.32-1.88,3.23,3.23,0,0,0,1,.32,1.09,1.09,0,0,0,1-.39c.16-.22.21-.53.44-.68s.57,0,.86,0c2.18.33,2.39-3.07,2.42-4.38,0-.21-.08-2.13.17-2.18l-2.21.5" transform="translate(-52.31 -318)"/><path class="cls-28" d="M151.75,433.21c-.54-4,.08-5.75,1.45-5.45s10.89-4.31,10.89-4.31-6.56,7.06-8.57,7.1S151.75,433.21,151.75,433.21Z" transform="translate(-52.31 -318)"/><path class="cls-28" d="M185.48,394.2c.13-.82.23-1.63.31-2.43l-6.38-5.24Z" transform="translate(-52.31 -318)"/><path class="cls-28" d="M121.82,373.33l-6.29-1.77-.37,1.06Z" transform="translate(-52.31 -318)"/><path class="cls-29" d="M185.72,355a1.94,1.94,0,0,1,.26-.67.68.68,0,0,1,.61-.32c.41.05.59.54.61.95a10.46,10.46,0,0,1-.74,3.48,13.4,13.4,0,0,0-.24,6.35,36.51,36.51,0,0,1,4.15-8.45,2,2,0,0,1,.57-.63.72.72,0,0,1,.81,0c.31.24.25.72.14,1.09a18.92,18.92,0,0,1-2.6,4.59,7.46,7.46,0,0,0-1.51,5,17.2,17.2,0,0,1,8.1-7.18c.41-.18,1-.28,1.22.12s-.11.75-.4,1a29.34,29.34,0,0,1-4.19,2.88,10.33,10.33,0,0,0-3.64,3.48,24.12,24.12,0,0,1,6.4-1.88,2.73,2.73,0,0,1,1.81.17,1,1,0,0,1,.28,1.56,1.57,1.57,0,0,1-1.25.13,16,16,0,0,0-4.48-.09,2.34,2.34,0,0,0-1.58.65,2.43,2.43,0,0,0-.36,1.67,9.65,9.65,0,0,1-.14,3,2.72,2.72,0,0,1-2,2,7.79,7.79,0,0,0-1.36-6.26,9.37,9.37,0,0,1,.64,4.22,1.88,1.88,0,0,1-.2.81.74.74,0,0,1-.69.39c-.37,0-.58-.44-.71-.79a9.12,9.12,0,0,1-.38-3.77c.09-1.3-.13-2.57-.17-3.88a36.42,36.42,0,0,1,.72-8.37Q185.57,355.61,185.72,355Z" transform="translate(-52.31 -318)"/><path class="cls-29" d="M180.16,364.42a.56.56,0,0,0-.25.64,1.44,1.44,0,0,0,.39.62,7.54,7.54,0,0,0,1.46,1.22.32.32,0,0,0,.29.07c.15-.07.11-.29,0-.44a7.36,7.36,0,0,0-1.06-1.71,1.43,1.43,0,0,0-.38-.35A.55.55,0,0,0,180.16,364.42Z" transform="translate(-52.31 -318)"/><path class="cls-26" d="M97.18,441.34a11.88,11.88,0,0,0,5.28-.23,23.67,23.67,0,0,0,3.72-1.5l4.45-2.09,8.68-4.08-3.28,3.77a16,16,0,0,0,18-13.74,29.39,29.39,0,0,1-2.63,4.91,9.85,9.85,0,0,1-4.21,3.54,11.56,11.56,0,0,1-7.42-.07c-2.42-.69-4.75-1.74-7.22-2.23a17.14,17.14,0,0,0-14.89,4.26C97.37,436.36,97.47,438.87,97.18,441.34Z" transform="translate(-52.31 -318)"/><polygon class="cls-12" points="281.48 11.78 277.95 14.1 276.75 11.78 280.79 9.8 281.48 11.78"/><polygon class="cls-45" points="224.44 141.24 220.92 143.56 219.72 141.24 223.76 139.27 224.44 141.24"/><polygon class="cls-12" points="196.33 118.7 195.13 117.67 191.34 118.19 192.81 119.05 196.33 118.7"/><polygon class="cls-12" points="250.27 39.45 247.43 41.51 246.66 37.38 248.46 37.04 250.27 39.45"/><polygon class="cls-46" points="308.02 92.61 307.24 89.78 305.52 91.2 306.04 93.22 308.02 92.61"/><polygon class="cls-47" points="297.67 142.53 296.9 139.7 295.18 141.12 295.69 143.13 297.67 142.53"/><polygon class="cls-12" points="182.71 122.69 180.73 123.76 180.73 118.65 182.71 118.65 182.71 122.69"/><polygon class="cls-12" points="214.78 84.74 215.45 88.91 212.84 89.05 212.69 84.55 214.78 84.74"/><polygon class="cls-48" points="223.34 70.31 221.91 70.99 220.82 74.65 222.21 73.67 223.34 70.31"/><polygon class="cls-49" points="181.78 103.49 182.86 104.45 181.42 107.66 179.93 104.26 181.78 103.49"/><polygon class="cls-48" points="310.05 59.17 307.14 58.71 307.73 60.86 309.79 61.22 310.05 59.17"/><polygon class="cls-12" points="306.77 116.82 303.25 119.14 302.04 116.82 306.08 114.84 306.77 116.82"/><polygon class="cls-12" points="277.56 131.65 276.27 132.68 272.66 130.27 274.55 129.07 277.56 131.65"/><polygon class="cls-50" points="225.56 125.78 225.56 127.58 223.33 127.58 224.44 125.78 225.56 125.78"/><polygon class="cls-12" points="304.86 40.14 301.33 42.46 300.13 40.14 304.17 38.17 304.86 40.14"/><polygon class="cls-12" points="295.38 129.14 292.55 131.2 291.77 127.07 293.58 126.73 295.38 129.14"/><polygon class="cls-51" points="210.9 100.74 208.07 102.8 207.29 98.68 209.1 98.33 210.9 100.74"/><polygon class="cls-46" points="280.88 67.89 278.91 68.97 278.91 63.85 280.88 63.85 280.88 67.89"/><polygon class="cls-52" points="254.02 21.36 254.02 23.17 251.79 23.17 252.91 21.36 254.02 21.36"/><polygon class="cls-53" points="217.35 53.4 213.82 55.72 212.62 53.4 216.66 51.42 217.35 53.4"/><polygon class="cls-46" points="229.43 33.99 228.23 32.96 224.44 33.48 225.91 34.34 229.43 33.99"/><polygon class="cls-22" points="177.09 151.26 174.25 153.32 173.48 149.2 175.28 148.85 177.09 151.26"/><polygon class="cls-45" points="195.83 47.72 192.99 49.79 192.22 45.66 194.02 45.32 195.83 47.72"/><polygon class="cls-12" points="326.47 94.33 325.7 91.5 323.98 92.92 324.49 94.94 326.47 94.33"/><polygon class="cls-54" points="277.56 85.77 276.27 86.8 272.66 84.39 274.55 83.19 277.56 85.77"/><polygon class="cls-46" points="287.81 81.56 287.21 83.19 282.99 82.37 284.45 79.58 287.81 81.56"/><path class="cls-55" d="M347.09,368.84l.09-.09Z" transform="translate(-52.31 -318)"/><path class="cls-50" d="M347,368.89h0l.06-.05Z" transform="translate(-52.31 -318)"/><path class="cls-12" d="M262.61,383c-2.06,4.36-16.15,10.9-19,4.67-3.74-8.09,10.9-13.91,14.6-12.59l.6.88s-7.4-.47-12.25,3.92c-3.57,3.23-3.36,6.39-1.94,7.81s5.35,1.7,9.48.41,7.51-5.67,7.51-5.67l.37.33Z" transform="translate(-52.31 -318)"/><path class="cls-12" d="M259.6,396.15l-.73-1.27s-4.11,1.83-5-.71,3.4-3.75,3.4-3.75l-1-.33s-4.62.55-3.06,4.55S259.6,396.15,259.6,396.15Z" transform="translate(-52.31 -318)"/><path class="cls-12" d="M257.31,390.41c1.19.71-2.28,6-6.26,3.62s.18-8,4-10.53,6.53-1.46,6.53-1.46l1,1a10,10,0,0,0-7.6,1.66c-3.51,2.6-5.08,5.09-4.79,7.39.34,2.67,7,2.08,6.13-1.71Z" transform="translate(-52.31 -318)"/><path class="cls-12" d="M244.39,376.25c-.58,2.25-7.52,5.33-9.62,1.48s1-5,1-5l.17.83s-2.07,1.34-.34,3.87,6.42,1.1,7.86-1.71Z" transform="translate(-52.31 -318)"/><path class="cls-12" d="M258.78,376c-3.14,6.78-15.37,10.18-18.35,5.72s.73-7.76,3.36-6.23l.6.77s-3.29-.8-4,1.5.59,4.66,4.66,5.06,11.63-3.61,12.93-7.34Z" transform="translate(-52.31 -318)"/><path class="cls-12" d="M340.77,420.13c4.44,2.17,2.69,8.31-1.74,9.39s-11.73-11.27-4.67-15.07h1s-4.45,3.35-3,7.37,4.43,7.15,7,6.57,5.3-5.25.38-7.95Z" transform="translate(-52.31 -318)"/><path class="cls-12" d="M346.8,413.89l-1.08,1s5.22,9.61-.29,11.67-6-4.24-4.65-6.45l-1.07.31s-2.59,8.82,5.8,7S346.8,413.89,346.8,413.89Z" transform="translate(-52.31 -318)"/><path class="cls-12" d="M335.32,414.45c2.67,1.79,2.87,14.62-4.55,14.84s-4.09-6.5-4.09-6.5l1,.58s-3.09,5.17,2.88,5.09,7.3-9.93,3.84-14Z" transform="translate(-52.31 -318)"/><path class="cls-54" d="M353.78,382.45c4.38,1.78,2.94,6.93-.55,8s-4.49-3.66-4.49-3.66l.66-.54s.94,4.23,4,3.14,3.36-5.43-.45-6.26Z" transform="translate(-52.31 -318)"/><path class="cls-54" d="M356.83,373.76c5.65,2.82,9.88,14.11,5.05,16.83s-9.39-5.59-8.94-7.47l.84-.67s2.6,9.92,7.48,7.68-.39-13.82-5.26-15.65Z" transform="translate(-52.31 -318)"/><path class="cls-54" d="M349.4,386.24c3.88.28,4,6-3.09,4.89l.54-1s2.77,1.41,3.93-.69-2.05-2.66-2.05-2.66Z" transform="translate(-52.31 -318)"/><path class="cls-54" d="M250.37,409.3c1.09,4.4-4.63,7.67-8.38,4.4s-4.17-10.64,3.13-13l1.2.63a7.8,7.8,0,0,0-5.59,5.6c-1.2,4.68,3.1,6.79,4.47,7s4.55-1.44,3.52-5.52Z" transform="translate(-52.31 -318)"/><path class="cls-54" d="M253,413.19l.66,2.59s-5.13,1.63-7.11-1.64-.43-5.42,2.15-5.72l1.63.88s-4.45-.12-3.49,3S253,413.19,253,413.19Z" transform="translate(-52.31 -318)"/><path class="cls-54" d="M246.33,401.36c-.6,7.36-6.88,12.73-12.72,6.52l1.2-1.9s1.95,5.89,7.27,1.93c3.3-2.46,3-7.18,3-7.18Z" transform="translate(-52.31 -318)"/><path class="cls-49" d="M331.15,473.43c-2.64-3.37-6.55-2.67-7.46.53s2.9,3.31,2.9,3.31l-.07-1.29s-2.66.08-2.1-1.61A3,3,0,0,1,327.7,472c1.5.16,3.1,2.55,3.1,2.55Z" transform="translate(-52.31 -318)"/><path class="cls-49" d="M337,469.27l.9-1.59s-7.42-6.26-11.86-.91c-5,6,.42,9.21,4.81,7.77l.34-1.11s-6,1.41-6.15-2.38,4.25-6,6.16-5.68A9.35,9.35,0,0,1,337,469.27Z" transform="translate(-52.31 -318)"/><path class="cls-56" d="M259,459.23c-4.42,0-7.75,5.11-5.89,8.26s6.59,1.09,6.48-1.28l-.43-1s-1.4,4.35-4.73,2.74c-2.52-1.22-.59-5.46.72-6.43a6.79,6.79,0,0,1,4.44-1.21Z" transform="translate(-52.31 -318)"/><path class="cls-56" d="M260.79,467.63c-2.18-.14-4.22,4.52-.35,5.43s5.33,0,5.36,2.58l1.05-.53s.38-2.36-2.75-2.36-5.26-.48-5-2.39a2.39,2.39,0,0,1,2.27-2Z" transform="translate(-52.31 -318)"/><path class="cls-56" d="M251.72,461.53l-.32-1.23s-3.18.75-1.83,4.33,8.73.75,10.07-4.33l-.59-1.08a8,8,0,0,1-4.63,5.56C249.94,466.81,248.6,463.15,251.72,461.53Z" transform="translate(-52.31 -318)"/><path class="cls-56" d="M259.21,465.2c-2.87-.14-5.71,3-3.66,6s6.27.42,5.84-2.79l-.59-.75a7.36,7.36,0,0,1-.91,3.09,2.27,2.27,0,0,1-3.75-.08c-2.67-3.71,3.5-4.43,3.5-4.43Z" transform="translate(-52.31 -318)"/></svg>