<!--?xml version="1.0" encoding="utf-8"?-->
<!-- Generator: Adobe Illustrator 22.0.1, SVG Export Plug-In . SVG Version: 6.00 Build 0)  -->
<svg version="1.1" id="Layer_1" xmlns="http://www.w3.org/2000/svg" xmlns:xlink="http://www.w3.org/1999/xlink" x="0px" y="0px" viewBox="0 0 390.7 423.2" style="" xml:space="preserve">
<style type="text/css">
	.st0{fill:#FEDA56;}
	.st1{fill:#38434A;}
	.st2{fill:#FEFEFD;}
	.st3{fill:#F1F1F1;}
	.st4{fill:#E3E8EA;}
	.st5{fill:none;stroke:#38434A;stroke-width:3;stroke-miterlimit:10;}
</style>
<g id="Layer_x0020_1">
	<path class="st0 OUCFxdtw_0" d="M162,306.8h63.9c9-38.4,58.5-73.3,58.9-118.6c0.8-115.1-177.9-118.9-181.6-2.9
		C101.6,233.3,152.7,267.4,162,306.8z"></path>
	<path class="st1 OUCFxdtw_1" d="M185.8,378.6c6.9-3,9.3-3,16.1,0c-3.6,3.2,7.5,3.5-8.1,3.9C179.6,383,187.8,380.4,185.8,378.6L185.8,378.6z
		 M222.6,349.4c-1.2,14.6,1.2,12.5-14.8,12.5h-28c-15.9,0-13.5,2-14.7-12.5H222.6z M222.6,321.6v13h-57.5l0-13H222.6L222.6,321.6z
		 M161.9,306.7c-9.3-39.3-60.4-73.4-58.8-121.5c3.7-116,182.4-112.2,181.6,2.9c-0.3,45.3-49.8,80.3-58.9,118.6H161.9L161.9,306.7z
		 M169.9,377.3c2.5,18.1,3.1,19.9,23.9,19.9c20.7,0,21.4-1.8,23.9-19.9c40.3-11.1,1.8-41.6,32.2-88.3c13.9-21.3,36.2-48.1,45.1-75.4
		C317.3,145.9,256.6,84,193.8,84c-62.7,0-123.5,61.9-101.1,129.6c19,57.4,58.1,64.8,57.7,123.1C150.3,361.5,147.3,371.1,169.9,377.3
		L169.9,377.3z"></path>
	<path class="st2 OUCFxdtw_2" d="M223.9,115.6c-1.3,11.2,5.3,9.2,13.1,15.4c4.2,3.3,12.6,16.4,18.2,10.7C261.7,135.1,234.1,111.2,223.9,115.6
		L223.9,115.6z"></path>
	<path class="st3 OUCFxdtw_3" d="M165.1,334.6L222.6,334.6L222.6,321.6L165.1,321.6Z"></path>
	<path class="st3 OUCFxdtw_4" d="M179.8,361.9h28c16,0,13.6,2.1,14.8-12.5h-57.5C166.3,363.9,163.9,361.9,179.8,361.9L179.8,361.9z"></path>
	<path class="st2 OUCFxdtw_5" d="M258.4,145.2l0.6,11.6l9.1,0.3c0.5-3.5,1-7-0.9-10C264.9,143.6,259.9,143.8,258.4,145.2L258.4,145.2z"></path>
	<path class="st4 OUCFxdtw_6" d="M185.8,378.6c2,1.8-6.2,4.3,8.1,3.9c15.6-0.4,4.4-0.7,8.1-3.9C195,375.7,192.6,375.7,185.8,378.6L185.8,378.6z
		"></path>
</g>
<g>
	<path class="st0 OUCFxdtw_7" d="M107.2,118.2L107.2,118.2c-3.3,3.3-8.7,3.3-12,0L69.8,92.8c-3.3-3.3-3.3-8.7,0-12l0,0c3.3-3.3,8.7-3.3,12,0
		l25.5,25.5C110.5,109.5,110.5,114.9,107.2,118.2z"></path>
	<path class="st0 OUCFxdtw_8" d="M193.5,73L193.5,73c-4.7,0-8.5-3.8-8.5-8.5v-36c0-4.7,3.8-8.5,8.5-8.5h0c4.7,0,8.5,3.8,8.5,8.5v36
		C202,69.2,198.2,73,193.5,73z"></path>
	<path class="st0 OUCFxdtw_9" d="M70,190.5L70,190.5c0,4.7-3.8,8.5-8.5,8.5h-36c-4.7,0-8.5-3.8-8.5-8.5v0c0-4.7,3.8-8.5,8.5-8.5h36
		C66.2,182,70,185.8,70,190.5z"></path>
	<path class="st0 OUCFxdtw_10" d="M90.2,260.8L90.2,260.8c3.3,3.3,3.3,8.7,0,12l-25.5,25.5c-3.3,3.3-8.7,3.3-12,0l0,0c-3.3-3.3-3.3-8.7,0-12
		l25.5-25.5C81.5,257.5,86.9,257.5,90.2,260.8z"></path>
	<path class="st0 OUCFxdtw_11" d="M282.5,116.2L282.5,116.2c3.3,3.3,8.7,3.3,12,0L320,90.8c3.3-3.3,3.3-8.7,0-12v0c-3.3-3.3-8.7-3.3-12,0
		l-25.5,25.5C279.2,107.5,279.2,112.9,282.5,116.2z"></path>
	<path class="st0 OUCFxdtw_12" d="M319.7,188.5L319.7,188.5c0,4.7,3.8,8.5,8.5,8.5h36c4.7,0,8.5-3.8,8.5-8.5v0c0-4.7-3.8-8.5-8.5-8.5h-36
		C323.5,180,319.7,183.8,319.7,188.5z"></path>
	<path class="st0 OUCFxdtw_13" d="M299.5,258.8L299.5,258.8c-3.3,3.3-3.3,8.7,0,12l25.5,25.5c3.3,3.3,8.7,3.3,12,0v0c3.3-3.3,3.3-8.7,0-12
		l-25.5-25.5C308.2,255.5,302.8,255.5,299.5,258.8z"></path>
</g>
<path class="st5 OUCFxdtw_14" d="M170,307.5L116,165l21.6-0.7c0,0-6.1-0.4-6.4,4.9c-0.3,5.3,6.2,5.8,6.9,9.1c0.7,3.3-1.4,6.5-5.2,6.8
	c-3.8,0.2-5.7-3.2-1.2-5.6c4.5-2.4,14.8-3.7,14.8-3.7s1.8-1.9,3.5-3.3c1.8-1.4,3.5-2.2,3.3-0.1c-0.3,4.2,0.4,2.7,0.4,2.7
	s0.4-3.5-1.5-4c-1.8-0.5-9.3,8.2-7.7,12.4c1.6,4.2,15.2-0.5,15.5-8.4c0.2-3.4,0.3-2.7,0.3-2.7s4.7,3.2,6.5,3.2
	c1.8-0.1-4.6,6.4-2.2,7.4s6.9,1.7,8.3-1.1c0.7-1.3-0.1-4.1,0.5-5.7c0.8-1.9,1.9-3.1,3.8-4.1c0.9-0.5,2.9-0.3,3.8-0.2
	c2.6,0.3,4.8,1.7,4.6,5.9c-0.2,4.1-0.5,8.8-7.8,7.9c-4.8-0.6-6.7-8.8-2.4-12.3c4.2-3.4,2.4,1.9,5.3,4.9s8.6,6.6,11.5,3.4
	c2.9-3.2,8.7-17.6,7.9-20s-8,0.8-7.7,11.9c0.3,11.1,6.3,11.9,9.4,10.3c4.5-2.3,9.7-10.8,11.5-16c1.5-4.5-2.6-9.5-4.7-2.9
	c-2.1,6.6-3.5,14.4-0.6,18.1c2.9,3.7,9.5-1.3,10.8-2.4c1.3-1.1,6.6-11.1,9.2-8.7c2.6,2.4,2,11.1,0.3,12.7s-5.4-2-3.3-3.9
	c2.2-1.9,13.3-0.8,14-2.4c0.8-1.6-0.8,8.2-0.8,8.2l2-22.9l8,0.4c4.4-2.6,9,2.4,5.9,7.4s-11.3,4.8-10,9.5c1.3,4.8,8.5,5.5,8.2,0
	c-0.3-5.5-3.4-6.9-3.4-6.9s-5.1-8.3-0.7-10.9l22.9,0.5c-4.5,16-51.9,142.6-51.9,142.6"></path>
<path class="st5 OUCFxdtw_15" d="M183.4,307.9L163.4,214.1"></path>
<path class="st5 OUCFxdtw_16" d="M208.4,307.9L228.4,214.1"></path>
<style data-made-with="vivus-instant">
.OUCFxdtw_0 {
	stroke-dasharray: 617 619;
	stroke-dashoffset: 618;
	animation: OUCFxdtw_draw_0 6200ms ease-in-out 0ms infinite, OUCFxdtw_fade 6200ms linear 0ms infinite;
}

.OUCFxdtw_1 {
	stroke-dasharray: 1770 1772;
	stroke-dashoffset: 1771;
	animation: OUCFxdtw_draw_1 6200ms ease-in-out 0ms infinite, OUCFxdtw_fade 6200ms linear 0ms infinite;
}

.OUCFxdtw_2 {
	stroke-dasharray: 92 94;
	stroke-dashoffset: 93;
	animation: OUCFxdtw_draw_2 6200ms ease-in-out 0ms infinite, OUCFxdtw_fade 6200ms linear 0ms infinite;
}

.OUCFxdtw_3 {
	stroke-dasharray: 141 143;
	stroke-dashoffset: 142;
	animation: OUCFxdtw_draw_3 6200ms ease-in-out 0ms infinite, OUCFxdtw_fade 6200ms linear 0ms infinite;
}

.OUCFxdtw_4 {
	stroke-dasharray: 136 138;
	stroke-dashoffset: 137;
	animation: OUCFxdtw_draw_4 6200ms ease-in-out 0ms infinite, OUCFxdtw_fade 6200ms linear 0ms infinite;
}

.OUCFxdtw_5 {
	stroke-dasharray: 41 43;
	stroke-dashoffset: 42;
	animation: OUCFxdtw_draw_5 6200ms ease-in-out 0ms infinite, OUCFxdtw_fade 6200ms linear 0ms infinite;
}

.OUCFxdtw_6 {
	stroke-dasharray: 42 44;
	stroke-dashoffset: 43;
	animation: OUCFxdtw_draw_6 6200ms ease-in-out 0ms infinite, OUCFxdtw_fade 6200ms linear 0ms infinite;
}

.OUCFxdtw_7 {
	stroke-dasharray: 126 128;
	stroke-dashoffset: 127;
	animation: OUCFxdtw_draw_7 6200ms ease-in-out 0ms infinite, OUCFxdtw_fade 6200ms linear 0ms infinite;
}

.OUCFxdtw_8 {
	stroke-dasharray: 126 128;
	stroke-dashoffset: 127;
	animation: OUCFxdtw_draw_8 6200ms ease-in-out 0ms infinite, OUCFxdtw_fade 6200ms linear 0ms infinite;
}

.OUCFxdtw_9 {
	stroke-dasharray: 126 128;
	stroke-dashoffset: 127;
	animation: OUCFxdtw_draw_9 6200ms ease-in-out 0ms infinite, OUCFxdtw_fade 6200ms linear 0ms infinite;
}

.OUCFxdtw_10 {
	stroke-dasharray: 126 128;
	stroke-dashoffset: 127;
	animation: OUCFxdtw_draw_10 6200ms ease-in-out 0ms infinite, OUCFxdtw_fade 6200ms linear 0ms infinite;
}

.OUCFxdtw_11 {
	stroke-dasharray: 126 128;
	stroke-dashoffset: 127;
	animation: OUCFxdtw_draw_11 6200ms ease-in-out 0ms infinite, OUCFxdtw_fade 6200ms linear 0ms infinite;
}

.OUCFxdtw_12 {
	stroke-dasharray: 126 128;
	stroke-dashoffset: 127;
	animation: OUCFxdtw_draw_12 6200ms ease-in-out 0ms infinite, OUCFxdtw_fade 6200ms linear 0ms infinite;
}

.OUCFxdtw_13 {
	stroke-dasharray: 126 128;
	stroke-dashoffset: 127;
	animation: OUCFxdtw_draw_13 6200ms ease-in-out 0ms infinite, OUCFxdtw_fade 6200ms linear 0ms infinite;
}

.OUCFxdtw_14 {
	stroke-dasharray: 829 831;
	stroke-dashoffset: 830;
	animation: OUCFxdtw_draw_14 6200ms ease-in-out 0ms infinite, OUCFxdtw_fade 6200ms linear 0ms infinite;
}

.OUCFxdtw_15 {
	stroke-dasharray: 96 98;
	stroke-dashoffset: 97;
	animation: OUCFxdtw_draw_15 6200ms ease-in-out 0ms infinite, OUCFxdtw_fade 6200ms linear 0ms infinite;
}

.OUCFxdtw_16 {
	stroke-dasharray: 96 98;
	stroke-dashoffset: 97;
	animation: OUCFxdtw_draw_16 6200ms ease-in-out 0ms infinite, OUCFxdtw_fade 6200ms linear 0ms infinite;
}

@keyframes OUCFxdtw_draw {
	100% {
		stroke-dashoffset: 0;
	}
}

@keyframes OUCFxdtw_fade {
	0% {
		stroke-opacity: 1;
	}
	93.54838709677419% {
		stroke-opacity: 1;
	}
	100% {
		stroke-opacity: 0;
	}
}

@keyframes OUCFxdtw_draw_0 {
0% {
fill: none;
opacity: 0;
}
	4.838709677419355% {
	
	opacity: 1;
		stroke-dashoffset: 618;
	}
	31.72043010752688% {
	opacity: 0.1;
		stroke-dashoffset: 0;
	}
	100% {
	opacity: 1;
		stroke-dashoffset: 0;
	}
}

@keyframes OUCFxdtw_draw_1 {
	5.678763440860215% {
		stroke-dashoffset: 1771
	}
	32.56048387096774% {
		stroke-dashoffset: 0;
	}
	100% {
		stroke-dashoffset: 0;
	}
}

@keyframes OUCFxdtw_draw_2 {
	6.518817204301075% {
		stroke-dashoffset: 93
	}
	33.40053763440859% {
		stroke-dashoffset: 0;
	}
	100% {
		stroke-dashoffset: 0;
	}
}

@keyframes OUCFxdtw_draw_3 {
	7.358870967741936% {
		stroke-dashoffset: 142
	}
	34.240591397849464% {
		stroke-dashoffset: 0;
	}
	100% {
		stroke-dashoffset: 0;
	}
}

@keyframes OUCFxdtw_draw_4 {
	8.198924731182796% {
		stroke-dashoffset: 137
	}
	35.08064516129033% {
		stroke-dashoffset: 0;
	}
	100% {
		stroke-dashoffset: 0;
	}
}

@keyframes OUCFxdtw_draw_5 {
	9.038978494623658% {
		stroke-dashoffset: 42
	}
	35.92069892473118% {
		stroke-dashoffset: 0;
	}
	100% {
		stroke-dashoffset: 0;
	}
}

@keyframes OUCFxdtw_draw_6 {
	9.879032258064516% {
		stroke-dashoffset: 43
	}
	36.76075268817204% {
		stroke-dashoffset: 0;
	}
	100% {
		stroke-dashoffset: 0;
	}
}

@keyframes OUCFxdtw_draw_7 {
5% {
fill: none;
opacity: 0;
}
	10.719086021505376% {
	
		stroke-dashoffset: 127;
		opacity: 1;
	}
	37.600806451612904% {
		stroke-dashoffset: 0;
		opacity: .2;
	}
	100% {
		stroke-dashoffset: 0;
		opacity: 1;
	}
}

@keyframes OUCFxdtw_draw_8 {
5% {
fill: none;
opacity: 0;
}

	11.559139784946238% {
		stroke-dashoffset: 127;
		opacity: 1;
	}
	38.44086021505376% {
		stroke-dashoffset: 0;
		opacity: .2;
	}
	100% {
		stroke-dashoffset: 0;
		opacity: 1;
	}
}

@keyframes OUCFxdtw_draw_9 {
5% {
fill: none;
opacity: 0;
}

	12.399193548387096% {
		stroke-dashoffset: 127;
		opacity: 1;
	}
	39.28091397849462% {
		stroke-dashoffset: 0;
		opacity: .2;
	}
	100% {
		stroke-dashoffset: 0;
		opacity: 1;
	}
}

@keyframes OUCFxdtw_draw_10 {
5% {
fill: none;
opacity: 0;
}

	13.239247311827956% {
		stroke-dashoffset: 127;
		opacity: 1;
	}
	40.12096774193548% {
		stroke-dashoffset: 0;
		opacity: .2;
	}
	100% {
		stroke-dashoffset: 0;
		opacity: 1;
	}
}

@keyframes OUCFxdtw_draw_11 {
5% {
fill: none;
opacity: 0;
}

	14.079301075268818% {
		stroke-dashoffset: 127;
		opacity: 1;
	}
	40.96102150537634% {
		stroke-dashoffset: 0;
		opacity: .2;
	}
	100% {
		stroke-dashoffset: 0;
		opacity: 1;
	}
}

@keyframes OUCFxdtw_draw_12 {
5% {
fill: none;
opacity: 0;
}

	14.919354838709678% {
		stroke-dashoffset: 127;
		opacity: 1;
	}
	41.8010752688172% {
		stroke-dashoffset: 0;
		opacity: .2;
	}
	100% {
		stroke-dashoffset: 0;
		opacity: 1;
	}
}

@keyframes OUCFxdtw_draw_13 {
5% {
fill: none;
opacity: 0;
}

	15.759408602150538% {
		stroke-dashoffset: 127;
		opacity: 1;
	}
	42.641129032258064% {
		stroke-dashoffset: 0;
		opacity:0.2;
	}
	100% {
		stroke-dashoffset: 0;
		opacity: 1;
	}
}

@keyframes OUCFxdtw_draw_14 {
	16.5994623655914% {
		stroke-dashoffset: 830
	}
	43.48118279569892% {
		stroke-dashoffset: 0;
	}
	100% {
		stroke-dashoffset: 0;
	}
}

@keyframes OUCFxdtw_draw_15 {
	17.43951612903226% {
		stroke-dashoffset: 97
	}
	44.321236559139784% {
		stroke-dashoffset: 0;
	}
	100% {
		stroke-dashoffset: 0;
	}
}

@keyframes OUCFxdtw_draw_16 {
	18.27956989247312% {
		stroke-dashoffset: 97
	}
	45.16129032258064% {
		stroke-dashoffset: 0;
	}
	100% {
		stroke-dashoffset: 0;
	}
}
</style></svg>
