<!--?xml version="1.0" encoding="UTF-8"?-->

<!-- Creator: CorelDRAW 2018 (64-Bit Evaluation Version) -->
<svg xmlns="http://www.w3.org/2000/svg" xml:space="preserve" width="3.61487in" height="3.73591in" version="1.1" style="shape-rendering: geometricPrecision; text-rendering: geometricPrecision; fill-rule: evenodd; clip-rule: evenodd;" viewBox="0 0 3735.47 3860.54" xmlns:xlink="http://www.w3.org/1999/xlink">
 <defs>
  <style type="text/css">
   
    .str2 {stroke:#34C2E6;stroke-width:61.56;stroke-miterlimit:2.61313}
    .str1 {stroke:#00AFEF;stroke-width:61.57;stroke-miterlimit:2.61313}
    .str0 {stroke:#CECECD;stroke-width:61.57;stroke-miterlimit:2.61313}
    .fil0 {fill:none}
    .fil5 {fill:#34C2E6}
    .fil3 {fill:#9DD5BA}
    .fil6 {fill:#EC5757}
    .fil8 {fill:#D7D7D7}
    .fil4 {fill:#EC5757}
    .fil7 {fill:#FAD902}
    .fil1 {fill:white}
    .fil2 {fill:#2A5283;fill-rule:nonzero}
   
  </style>
 </defs>
 <g id="Layer_x0020_1">
  <metadata id="CorelCorpID_0Corel-Layer"></metadata>
  <path class="fil0 str0 uRrTNICD_0" d="M599.99,2119.65L713.81,2229.61L805.15,2138.27L713.81,2046.94L618.28,2143.83"></path>
  <path class="fil0 str1 uRrTNICD_1" d="M3411.14,1987.78L3566.92,2138.27L3691.93,2013.27L3566.92,1888.27L3436.17,2020.88"></path>
 </g>
 <g id="Layer_x0020_1_0">
  <metadata id="CorelCorpID_1Corel-Layer"></metadata>
  <path class="user fil1 uRrTNICD_2" d="M1735 2568.55c141.01,0 395.64,-188.47 430.61,-246.09 34.98,-57.6 47.48,-114.58 61.56,-184.52 16.97,-42.65 37.77,-83.93 61.57,-123.12 57.92,-77.07 61.56,-307.64 61.56,-307.64l-61.56 -61.56c0,0 -15.03,-193.22 -23.58,-288.02 -35.45,-276.78 -225.98,-450.23 -530.15,-450.23 -304.17,0 -494.71,174.08 -530.15,450.23 -8.55,94.95 -23.58,288.02 -23.58,288.02l-61.56 61.56c0,0 3.65,230.57 61.56,307.64 23.78,39.18 44.57,80.48 61.55,123.07 13.77,69.95 26.9,126.6 61.56,184.52 34.66,57.92 289.6,246.14 430.6,246.14l-0.01 -0z"></path>
  <path class="user fil2 uRrTNICD_3" d="M1735 2506.99c46.84,0 114.79,-29.17 180.81,-66.9 95.86,-54.78 181.05,-122.48 197.38,-149.37 14.43,-23.77 24.42,-48.02 32.36,-73.93 8.64,-28.17 14.89,-57.99 21.51,-90.88l3.12 -10.58c9.04,-22.72 19.13,-45.14 30.12,-67.14 11.07,-22.14 23.12,-43.89 36.02,-65.11l3.36 -5.05c36.04,-47.96 45.87,-187.84 48.44,-245.98l-42.9 -42.9 -17.79 -38.71c-0.04,-0.59 -18.18,-229.63 -23.18,-285.71 -16,-124.02 -66.29,-223.95 -146.19,-291.81 -78.71,-66.84 -187.82,-103.97 -323.04,-103.97 -135.12,0 -244.17,37.23 -322.87,104.06 -80.01,67.95 -130.36,167.93 -146.36,291.73 -5,56.16 -23.13,285.12 -23.18,285.71l-17.79 38.71 -42.9 42.9c2.57,58.14 12.4,198.03 48.44,245.98l3.36 5.05c12.88,21.23 24.92,42.97 35.98,65.09 11,21.99 21.08,44.4 30.14,67.12l3.36 10.82c6.63,33.7 13.01,63.85 21.27,90.52 7.96,25.7 18.07,50 32.6,74.28 16.12,26.93 100.95,94.33 196.47,148.93 66.23,37.86 134.47,67.14 181.46,67.14zm241.89 39.86c-82.17,46.95 -171.19,83.25 -241.88,83.25 -70.83,0 -160.18,-36.42 -242.55,-83.5 -111.59,-63.79 -216.47,-152.18 -240.72,-192.69 -20.12,-33.62 -33.92,-66.64 -44.63,-101.22 -9.94,-32.11 -16.85,-63.8 -23.66,-98.15 -7.15,-17.48 -14.98,-34.69 -23.41,-51.55 -9.24,-18.48 -19.19,-36.53 -29.74,-54.05 -68.07,-95.05 -71.88,-340.09 -71.9,-340.8l-0.48 -26.2 63.78 -63.79c3.67,-47.25 12.61,-160.65 22.08,-265.84l0.24 -2.4c19.94,-155.43 84.89,-282.49 188.76,-370.7 100.88,-85.68 236.88,-133.4 402.22,-133.4 165.43,0 301.48,47.61 402.39,133.31 103.77,88.13 168.66,215.12 188.6,370.79l0.24 2.4c9.47,105.05 18.42,218.56 22.08,265.84l63.78 63.79 -0.48 26.2c-0.01,0.71 -3.83,245.79 -71.91,340.82 -10.57,17.53 -20.52,35.59 -29.76,54.06 -8.59,17.17 -16.55,34.73 -23.81,52.58 -7.05,34.85 -13.88,66.7 -23.25,97.26 -10.57,34.46 -24.33,67.51 -44.87,101.34 -24.48,40.32 -129.56,128.89 -241.14,192.65z"></path>
  <path class="user fil3 uRrTNICD_4" d="M1735 3798.98c430.93,0 823.72,-149.54 1107.78,-430.61l0 -246.08c-34.5,-123.12 -133.1,-186.11 -246.09,-246.09l-430.61 -184.52c0,0 -221.55,184.52 -430.61,184.52 -209.06,0 -369.21,-184.52 -369.21,-184.52l-492.16 184.52c-113.15,59.98 -211.58,122.96 -246.09,246.09l0 246.09c283.28,281.06 676.23,430.6 1107,430.6l-0.01 0z"></path>
  <path class="user fil2 uRrTNICD_5" d="M1735 3737.43c209.17,0 408.53,-36.27 589.45,-106.59 170.68,-66.35 325.36,-163.05 456.77,-288.25l0 -211.74c-14.34,-45.16 -40.08,-80.13 -72.93,-109.59 -37.52,-33.65 -86.55,-62.06 -139.45,-90.17l-393.91 -168.8c-71.12,52.44 -257.38,175.48 -439.46,175.48 -179.1,0 -324.49,-117.21 -385.01,-174.67l-450.43 168.88c-52.01,27.66 -100.2,55.74 -137.59,89.28 -32.83,29.45 -58.53,64.41 -72.87,109.59l0 211.79c131.04,125.15 285.51,221.82 456.01,288.15 180.88,70.36 380.28,106.64 589.42,106.64zm633.69 7.87c-195.61,76.03 -409.94,115.24 -633.69,115.24 -223.74,0 -438.11,-39.23 -633.67,-115.3 -194.3,-75.58 -369.58,-187.47 -516.61,-333.34l-18.28 -18.13 0 -271.48 2.4 -16.59c20.74,-74.01 60.45,-129.73 111.83,-175.82 48.08,-43.13 104.69,-76.16 164.8,-108.02l7.22 -3.12 531.75 -199.37 27.98 31.91c0.41,0.47 141.81,163.36 323.04,163.36 187.06,0 391.07,-169.85 391.66,-170.34l28.88 -23.76 464.74 199.15 4.81 2.16c59.7,31.69 116.1,64.62 164.5,108.02 51.39,46.08 91.15,101.8 111.88,175.82l2.4 16.59 0 271.52 -18.28 18.08c-147.48,145.92 -322.96,257.83 -517.36,333.4z"></path>
  <path class="user fil2 uRrTNICD_6" d="M1304.39,2691.51L1304.39,2383.87L1427.51,2383.87L1427.51,2691.51Z"></path>
  <path class="user fil2 uRrTNICD_7" d="M2042.64,2728.07L2042.64,2383.87L2165.76,2383.87L2165.76,2728.07Z"></path>
  <path class="fil4 uRrTNICD_8" d="M0,2178.4A129.45,126.92 0,1,1 258.9,2178.4A129.45,126.92 0,1,1 0,2178.4"></path>
  <path class="fil4 uRrTNICD_9" d="M2849.05,1171.83L2825.31,1241.63L2869.3,1300.65L2795.72,1299.7L2753.14,1359.84L2731.31,1289.42L2661.04,1267.57L2721.18,1225.01L2720.24,1151.42L2779.26,1195.41Z"></path>
  <path class="fil0 str2 uRrTNICD_10" d="M1150.1299999999999,99.94A69.16,69.16 0,1,1 1288.45,99.94A69.16,69.16 0,1,1 1150.1299999999999,99.94"></path>
  <path class="fil5 uRrTNICD_11" d="M3188.32,928.29A103.81,103.81 0,1,1 3395.94,928.29A103.81,103.81 0,1,1 3188.32,928.29"></path>
  <path class="fil6 uRrTNICD_12" width="61.56" height="61.56" d="M676.92 639.81 L738.48 639.81 L738.48 701.3699999999999 L676.92 701.3699999999999 Z"></path>
  <path class="fil6 uRrTNICD_13" transform="matrix(0.950299 -0.31134 0.31134 0.950299 2214.1 89.3602)" width="184.52" height="184.52" d="M0 0 L184.52 0 L184.52 184.52 L0 184.52 Z"></path>
  <path class="fil5 uRrTNICD_14" transform="matrix(0.586655 -0.809837 0.809837 0.586655 429.732 1513.66)" width="184.52" height="184.52" d="M0 0 L184.52 0 L184.52 184.52 L0 184.52 Z"></path>
  <path class="fil7 uRrTNICD_15" d="M125.07,635.64A46.21,46.21 0,1,1 217.49,635.64A46.21,46.21 0,1,1 125.07,635.64"></path>
  <path class="fil7 uRrTNICD_16" d="M1678.76,308.6A64.09,64.09 0,1,1 1806.9399999999998,308.6A64.09,64.09 0,1,1 1678.76,308.6"></path>
  <path class="fil7 uRrTNICD_17" d="M92.32,1158.51L128.4,1184.31L170.18,1169.11L156.73,1211.53L184.1,1246.66L139.63,1246.82L114.79,1283.69L100.71,1241.59L57.98,1229.4L93.74,1202.98Z"></path>
  <path class="fil8 uRrTNICD_18" d="M3086.48,522.83L3064.65,581.07L3003.08,591.36L2963.53,543.25L2985.37,484.85L3046.93,474.56Z"></path>
  <path class="fil8 uRrTNICD_19" d="M1128.41,504.45L1050.7,536.41L984.07,485.14L995.16,401.9L1073.01,369.77L1139.64,421.05Z"></path>
  <path class="fil8 uRrTNICD_20" d="M2280.95,648.74L2227.46,659.34L2191.54,618.35L2209.1,566.76L2262.59,556.16L2298.52,597.15Z"></path>
  <path class="fil8 uRrTNICD_21" d="M2985.19,1962.96L2921.57,1991.29L2865.07,1950.3L2872.35,1880.99L2936.12,1852.66L2992.62,1893.64Z"></path>
  <path class="fil7 uRrTNICD_22" d="M3429.05,1480.85L3376.36,1502.52L3331.2,1467.76L3338.7,1411.32L3391.5,1389.54L3436.67,1424.3Z"></path>
 </g>
<style data-made-with="vivus-instant">.uRrTNICD_0{stroke-dasharray:553 555;stroke-dashoffset:554;animation:uRrTNICD_draw_0 3800ms linear 0ms infinite,uRrTNICD_fade 3800ms linear 0ms infinite;}.uRrTNICD_1{stroke-dasharray:757 759;stroke-dashoffset:758;animation:uRrTNICD_draw_1 3800ms linear 0ms infinite,uRrTNICD_fade 3800ms linear 0ms infinite;}.uRrTNICD_2{stroke-dasharray:4606 4608;stroke-dashoffset:4607;animation:uRrTNICD_draw_2 3800ms linear 0ms infinite,uRrTNICD_fade 3800ms linear 0ms infinite;}.uRrTNICD_3{stroke-dasharray:9205 9207;stroke-dashoffset:9206;animation:uRrTNICD_draw_3 3800ms linear 0ms infinite,uRrTNICD_fade 3800ms linear 0ms infinite;}.uRrTNICD_4{stroke-dasharray:5544 5546;stroke-dashoffset:5545;animation:uRrTNICD_draw_4 3800ms linear 0ms infinite,uRrTNICD_fade 3800ms linear 0ms infinite;}.uRrTNICD_5{stroke-dasharray:11089 11091;stroke-dashoffset:11090;animation:uRrTNICD_draw_5 3800ms linear 0ms infinite,uRrTNICD_fade 3800ms linear 0ms infinite;}.uRrTNICD_6{stroke-dasharray:862 864;stroke-dashoffset:863;animation:uRrTNICD_draw_6 3800ms linear 0ms infinite,uRrTNICD_fade 3800ms linear 0ms infinite;}.uRrTNICD_7{stroke-dasharray:935 937;stroke-dashoffset:936;animation:uRrTNICD_draw_7 3800ms linear 0ms infinite,uRrTNICD_fade 3800ms linear 0ms infinite;}.uRrTNICD_8{stroke-dasharray:806 808;stroke-dashoffset:807;animation:uRrTNICD_draw_8 3800ms linear 0ms infinite,uRrTNICD_fade 3800ms linear 0ms infinite;}.uRrTNICD_9{stroke-dasharray:737 739;stroke-dashoffset:738;animation:uRrTNICD_draw_9 3800ms linear 0ms infinite,uRrTNICD_fade 3800ms linear 0ms infinite;}.uRrTNICD_10{stroke-dasharray:435 437;stroke-dashoffset:436;animation:uRrTNICD_draw_10 3800ms linear 0ms infinite,uRrTNICD_fade 3800ms linear 0ms infinite;}.uRrTNICD_11{stroke-dasharray:653 655;stroke-dashoffset:654;animation:uRrTNICD_draw_11 3800ms linear 0ms infinite,uRrTNICD_fade 3800ms linear 0ms infinite;}.uRrTNICD_12{stroke-dasharray:247 249;stroke-dashoffset:248;animation:uRrTNICD_draw_12 3800ms linear 0ms infinite,uRrTNICD_fade 3800ms linear 0ms infinite;}.uRrTNICD_13{stroke-dasharray:739 741;stroke-dashoffset:740;animation:uRrTNICD_draw_13 3800ms linear 0ms infinite,uRrTNICD_fade 3800ms linear 0ms infinite;}.uRrTNICD_14{stroke-dasharray:739 741;stroke-dashoffset:740;animation:uRrTNICD_draw_14 3800ms linear 0ms infinite,uRrTNICD_fade 3800ms linear 0ms infinite;}.uRrTNICD_15{stroke-dasharray:291 293;stroke-dashoffset:292;animation:uRrTNICD_draw_15 3800ms linear 0ms infinite,uRrTNICD_fade 3800ms linear 0ms infinite;}.uRrTNICD_16{stroke-dasharray:404 406;stroke-dashoffset:405;animation:uRrTNICD_draw_16 3800ms linear 0ms infinite,uRrTNICD_fade 3800ms linear 0ms infinite;}.uRrTNICD_17{stroke-dasharray:445 447;stroke-dashoffset:446;animation:uRrTNICD_draw_17 3800ms linear 0ms infinite,uRrTNICD_fade 3800ms linear 0ms infinite;}.uRrTNICD_18{stroke-dasharray:375 377;stroke-dashoffset:376;animation:uRrTNICD_draw_18 3800ms linear 0ms infinite,uRrTNICD_fade 3800ms linear 0ms infinite;}.uRrTNICD_19{stroke-dasharray:505 507;stroke-dashoffset:506;animation:uRrTNICD_draw_19 3800ms linear 0ms infinite,uRrTNICD_fade 3800ms linear 0ms infinite;}.uRrTNICD_20{stroke-dasharray:328 330;stroke-dashoffset:329;animation:uRrTNICD_draw_20 3800ms linear 0ms infinite,uRrTNICD_fade 3800ms linear 0ms infinite;}.uRrTNICD_21{stroke-dasharray:419 421;stroke-dashoffset:420;animation:uRrTNICD_draw_21 3800ms linear 0ms infinite,uRrTNICD_fade 3800ms linear 0ms infinite;}.uRrTNICD_22{stroke-dasharray:343 345;stroke-dashoffset:344;animation:uRrTNICD_draw_22 3800ms linear 0ms infinite,uRrTNICD_fade 3800ms linear 0ms infinite;}@keyframes uRrTNICD_draw{100%{stroke-dashoffset:0;}}@keyframes uRrTNICD_fade{0%{stroke-opacity:1;}89.47368421052632%{stroke-opacity:1;}100%{stroke-opacity:0;}}@keyframes uRrTNICD_draw_0{7.894736842105263%{stroke-dashoffset: 554}60.526315789473685%{ stroke-dashoffset: 0;}100%{ stroke-dashoffset: 0;}}@keyframes uRrTNICD_draw_1{9.090909090909092%{stroke-dashoffset: 758}61.72248803827751%{ stroke-dashoffset: 0;}100%{ stroke-dashoffset: 0;}}@keyframes uRrTNICD_draw_2{10.287081339712918%{stroke-dashoffset: 4607}62.91866028708134%{ stroke-dashoffset: 0;}100%{ stroke-dashoffset: 0;}}@keyframes uRrTNICD_draw_3{11.483253588516746%{stroke-dashoffset: 9206}64.11483253588517%{ stroke-dashoffset: 0;}100%{ stroke-dashoffset: 0;}}@keyframes uRrTNICD_draw_4{12.679425837320574%{stroke-dashoffset: 5545}65.311004784689%{ stroke-dashoffset: 0;}100%{ stroke-dashoffset: 0;}}@keyframes uRrTNICD_draw_5{13.875598086124402%{stroke-dashoffset: 11090}66.50717703349281%{ stroke-dashoffset: 0;}100%{ stroke-dashoffset: 0;}}@keyframes uRrTNICD_draw_6{15.07177033492823%{stroke-dashoffset: 863}67.70334928229666%{ stroke-dashoffset: 0;}100%{ stroke-dashoffset: 0;}}@keyframes uRrTNICD_draw_7{16.267942583732058%{stroke-dashoffset: 936}68.89952153110048%{ stroke-dashoffset: 0;}100%{ stroke-dashoffset: 0;}}@keyframes uRrTNICD_draw_8{17.464114832535884%{stroke-dashoffset: 807}70.0956937799043%{ stroke-dashoffset: 0;}100%{ stroke-dashoffset: 0;}}@keyframes uRrTNICD_draw_9{18.66028708133971%{stroke-dashoffset: 738}71.29186602870813%{ stroke-dashoffset: 0;}100%{ stroke-dashoffset: 0;}}@keyframes uRrTNICD_draw_10{19.85645933014354%{stroke-dashoffset: 436}72.48803827751196%{ stroke-dashoffset: 0;}100%{ stroke-dashoffset: 0;}}@keyframes uRrTNICD_draw_11{21.052631578947366%{stroke-dashoffset: 654}73.68421052631578%{ stroke-dashoffset: 0;}100%{ stroke-dashoffset: 0;}}@keyframes uRrTNICD_draw_12{22.2488038277512%{stroke-dashoffset: 248}74.88038277511961%{ stroke-dashoffset: 0;}100%{ stroke-dashoffset: 0;}}@keyframes uRrTNICD_draw_13{23.444976076555022%{stroke-dashoffset: 740}76.07655502392345%{ stroke-dashoffset: 0;}100%{ stroke-dashoffset: 0;}}@keyframes uRrTNICD_draw_14{24.641148325358852%{stroke-dashoffset: 740}77.27272727272727%{ stroke-dashoffset: 0;}100%{ stroke-dashoffset: 0;}}@keyframes uRrTNICD_draw_15{25.837320574162675%{stroke-dashoffset: 292}78.46889952153111%{ stroke-dashoffset: 0;}100%{ stroke-dashoffset: 0;}}@keyframes uRrTNICD_draw_16{27.033492822966505%{stroke-dashoffset: 405}79.66507177033492%{ stroke-dashoffset: 0;}100%{ stroke-dashoffset: 0;}}@keyframes uRrTNICD_draw_17{28.229665071770338%{stroke-dashoffset: 446}80.86124401913877%{ stroke-dashoffset: 0;}100%{ stroke-dashoffset: 0;}}@keyframes uRrTNICD_draw_18{29.42583732057416%{stroke-dashoffset: 376}82.05741626794259%{ stroke-dashoffset: 0;}100%{ stroke-dashoffset: 0;}}@keyframes uRrTNICD_draw_19{30.62200956937799%{stroke-dashoffset: 506}83.25358851674642%{ stroke-dashoffset: 0;}100%{ stroke-dashoffset: 0;}}@keyframes uRrTNICD_draw_20{31.818181818181817%{stroke-dashoffset: 329}84.44976076555024%{ stroke-dashoffset: 0;}100%{ stroke-dashoffset: 0;}}@keyframes uRrTNICD_draw_21{33.014354066985646%{stroke-dashoffset: 420}85.64593301435407%{ stroke-dashoffset: 0;}100%{ stroke-dashoffset: 0;}}@keyframes uRrTNICD_draw_22{34.21052631578947%{stroke-dashoffset: 344}86.8421052631579%{ stroke-dashoffset: 0;}100%{ stroke-dashoffset: 0;}}
.uRrTNICD_11{
    animation-name: scale1;
    animation-duration: 4s;
    animation-iteration-count: infinite;
    transform-origin: 3230.32px 928.29px;
    display: inline-block;
}
.uRrTNICD_9{
animation-name: rotate;
    animation-duration: 5s;
    animation-iteration-count: infinite;
    transform-origin: 2736.05px 1250.83px ;
    display: inline-block;
}
.uRrTNICD_19{
animation-name: rotate;
    animation-duration: 5s;
    animation-iteration-count: infinite;
    transform-origin: 1039.41px 465.45px;
    display: inline-block;
}
.uRrTNICD_12{
animation-name: scale3;
    animation-duration: 10s;
    animation-iteration-count: infinite;
    transform-origin: 705.92px 653.81px;
    display: inline-block;
}

.uRrTNICD_17{
animation-name: rotate;
    animation-duration: 5s;
    animation-iteration-count: infinite;
    transform-origin: 117.32px 1213.51px;
    display: inline-block;
}
.uRrTNICD_8{
    animation-name: scale2;
    animation-duration: 8s;
    animation-iteration-count: infinite;
    transform-origin: 80px 2178.4px;
    display: inline-block;
}
@keyframes rotate {
    0% {
        transform: rotate(0deg);
    }
    100% {
        transform: rotate(360deg);
    }
}
@keyframes scale1 {
    0% {
        transform: scale(0);
    }
    50%{
    transform: scale(1)
    }
    100% {
        transform: scale(0);
    }
}
@keyframes scale2 {
    0% {
        transform: scale(1);
    }
    50%{
    transform: scale(0)
    }
    100% {
        transform: scale(1);
    }
}
@keyframes scale3 {
    0% {
        transform: scale(3);
    }
    50%{
    transform: scale(0)
    }
    100% {
        transform: scale(3);
    }
}
.user{
animation: float 3s ease-in-out infinite;
}
@keyframes float {
	0% {
		transform: translatey(0px);
	}
	50% {
		transform: translatey(-80px);
	}
	100% {
		transform: translatey(0px);
	}
}
</style></svg>
