<?xml version="1.0" encoding="UTF-8"?>
<!DOCTYPE svg PUBLIC "-//W3C//DTD SVG 1.1//EN" "http://www.w3.org/Graphics/SVG/1.1/DTD/svg11.dtd">
<!-- Creator: CorelDRAW 2018 (64-Bit Evaluation Version) -->
<svg xmlns="http://www.w3.org/2000/svg" xml:space="preserve" width="3.49817in" height="3.73591in" version="1.1" style="shape-rendering:geometricPrecision; text-rendering:geometricPrecision; image-rendering:optimizeQuality; fill-rule:evenodd; clip-rule:evenodd"
viewBox="0 0 3669.84 3919.24"
 xmlns:xlink="http://www.w3.org/1999/xlink">
 <defs>
  <style type="text/css">
   <![CDATA[
    .str3 {stroke:#00AFEF;stroke-width:62.5;stroke-miterlimit:2.61313}
    .str1 {stroke:#34C2E6;stroke-width:62.5;stroke-miterlimit:2.61313}
    .str2 {stroke:#CECECD;stroke-width:62.5;stroke-miterlimit:2.61313}
    .str0 {stroke:#2A5283;stroke-width:124.99;stroke-miterlimit:2.61313}
    .fil2 {fill:none}
    .fil4 {fill:#34C2E6}
    .fil1 {fill:#9DD5BA}
    .fil5 {fill:#CECECD}
    .fil7 {fill:#D7D7D7}
    .fil3 {fill:#EC5757}
    .fil6 {fill:#FAD902}
    .fil0 {fill:white}
   ]]>
  </style>
 </defs>
 <g id="Layer_x0020_1">
  <metadata id="CorelCorpID_0Corel-Layer"/>
  <path class="fil0 str0" d="M1761.38 2607.61c143.15,0 401.65,-191.34 437.16,-249.83 35.51,-58.48 48.2,-116.32 62.5,-187.33 17.23,-43.3 38.34,-85.21 62.51,-124.99 58.8,-78.24 62.5,-312.32 62.5,-312.32l-62.5 -62.5c0,0 -15.26,-196.16 -23.94,-292.4 -35.99,-280.99 -229.42,-457.08 -538.21,-457.08 -308.79,0 -502.23,176.73 -538.21,457.08 -8.68,96.39 -23.94,292.4 -23.94,292.4l-62.5 62.5c0,0 3.7,234.08 62.5,312.32 24.14,39.78 45.25,81.7 62.49,124.94 13.98,71.01 27.31,128.53 62.5,187.33 35.19,58.8 294,249.88 437.15,249.88z"/>
  <path class="fil1 str0" d="M1761.38 3856.75c437.48,0 836.24,-151.82 1124.62,-437.16l-0 -249.82c-35.02,-124.99 -135.12,-188.94 -249.83,-249.83l-437.16 -187.33c0,0 -224.92,187.33 -437.16,187.33 -212.24,0 -374.82,-187.33 -374.82,-187.33l-499.65 187.33c-114.87,60.89 -214.8,124.83 -249.83,249.83l0 249.83c287.59,285.33 686.51,437.15 1123.83,437.15z"/>
  <line class="fil2 str0" x1="1386.72" y1="2732.44" x2="1386.72" y2= "2420.12" />
  <line class="fil2 str0" x1="2136.2" y1="2769.56" x2="2136.2" y2= "2420.12" />
  <ellipse class="fil3" cx="131.42" cy="2211.53" rx="131.42" ry="128.85"/>
  <polygon class="fil3" points="2892.37,1189.65 2868.27,1260.51 2912.93,1320.43 2838.23,1319.47 2795.01,1380.52 2772.84,1309.03 2701.51,1286.85 2762.56,1243.64 2761.6,1168.93 2821.52,1213.59 "/>
  <circle class="fil2 str1" cx="1237.83" cy="101.46" r="70.21"/>
  <circle class="fil4" cx="3342.19" cy="942.41" r="105.39"/>
  <rect class="fil5" x="687.21" y="649.54" width="62.5" height="62.5"/>
  <rect class="fil5" transform="matrix(0.950299 -0.31134 0.31134 0.950299 2247.77 90.7225)" width="187.33" height="187.33"/>
  <rect class="fil2 str2" transform="matrix(0.670556 -0.741859 0.741859 0.670556 628.901 2215.99)" width="124.99" height="124.99"/>
  <rect class="fil4" transform="matrix(0.586655 -0.809837 0.809837 0.586655 436.271 1536.68)" width="187.33" height="187.33"/>
  <circle class="fil6" cx="173.89" cy="645.31" r="46.91"/>
  <circle class="fil6" cx="1769.35" cy="313.29" r="65.07"/>
  <polygon class="fil6" points="93.72,1176.13 130.35,1202.32 172.77,1186.89 159.11,1229.95 186.9,1265.62 141.76,1265.78 116.54,1303.21 102.24,1260.47 58.86,1248.1 95.17,1221.27 "/>
  <polygon class="fil7" points="3133.42,530.78 3111.25,589.91 3048.75,600.35 3008.59,551.51 3030.76,492.22 3093.26,481.78 "/>
  <polygon class="fil7" points="1145.57,512.12 1066.68,544.57 999.04,492.52 1010.29,408.01 1089.33,375.4 1156.97,427.45 "/>
  <polygon class="fil7" points="2315.63,658.61 2261.33,669.37 2224.86,627.76 2242.69,575.38 2297,564.62 2333.47,606.23 "/>
  <polygon class="fil7" points="3030.58,1992.81 2965.99,2021.57 2908.64,1979.96 2916.03,1909.59 2980.77,1880.83 3038.13,1922.44 "/>
  <rect class="fil2 str3" transform="matrix(0.670556 -0.741859 0.741859 0.670556 3449.17 2064.13)" width="124.99" height="124.99"/>
  <polygon class="fil6" points="3481.19,1503.37 3427.7,1525.37 3381.85,1490.08 3389.47,1432.78 3443.07,1410.67 3488.93,1445.96 "/>
 </g>
</svg>
