<?xml version="1.0" encoding="utf-8"?>
<!-- Generator: Adobe Illustrator 22.0.1, SVG Export Plug-In . SVG Version: 6.00 Build 0)  -->
<svg version="1.1" id="Layer_1" xmlns="http://www.w3.org/2000/svg" xmlns:xlink="http://www.w3.org/1999/xlink" x="0px" y="0px"
	 viewBox="0 0 555 408.3" style="enable-background:new 0 0 555 408.3;" xml:space="preserve">
<style type="text/css">
	.st0{fill:#B0C2E4;}
	.st1{fill:#DCE9F7;}
	.st2{fill:#23A1DB;}
	.st3{fill:#4B8CCA;}
	.st4{fill:#4294D1;}
	.st5{fill:#5087C6;}
	.st6{fill:#13A6DF;}
	.st7{fill:#23A4DD;}
	.st8{fill:#5783C3;}
	.st9{fill:#5485C5;}
	.st10{fill:#4692CF;}
	.st11{fill:#4A8FCC;}
	.st12{fill:#3B99D4;}
	.st13{fill:#2A9FD9;}
	.st14{fill:#4D89C8;}
	.st15{fill:#3F96D2;}
	.st16{fill:#2F9CD7;}
	.st17{fill:#369BD6;}
	.st18{fill:#819DD1;}
	.st19{fill:#14A7E0;}
	.st20{fill:#FDFEFF;}
	.st21{fill:#A3CEEE;}
	.st22{fill:#4493D0;}
	.st23{fill:#5882C2;}
	.st24{fill:#4791CE;}
	.st25{fill:#359AD5;}
	.st26{fill:#1AA6DF;}
	.st27{fill:#2E9DD8;}
	.st28{fill:#349CD7;}
	.st29{fill:#FFFFFF;}
	.st30{fill:#2A5283;}
	.st31{fill:#9DD5BA;}
	.st32{fill:#32C0E4;}
	.st33{fill:#EC5757;}
	.st34{fill:#34C2E6;}
	.st35{fill:none;stroke:#34C2E6;stroke-width:3.89;stroke-miterlimit:10;}
	.st36{fill:#CECECD;}
	.st37{fill:none;stroke:#CECECD;stroke-width:3.89;stroke-miterlimit:10;}
	.st38{fill:#FAD902;}
	.st39{fill:#D7D7D7;}
	.st40{fill:url(#SVGID_1_);}
	.st41{fill:url(#SVGID_2_);}
	.st42{fill:url(#SVGID_3_);}
	.st43{fill:url(#SVGID_4_);}
	.st44{fill:url(#SVGID_5_);}
	.st45{fill:url(#SVGID_6_);}
	.st46{fill:url(#SVGID_7_);}
	.st47{fill:url(#SVGID_8_);}
	.st48{fill:url(#SVGID_9_);}
	.st49{fill:url(#SVGID_10_);}
	.st50{fill:none;stroke:#34C2E6;stroke-width:7.4007;stroke-miterlimit:10;}
	.st51{fill:none;stroke:#EC5757;stroke-width:2.4575;stroke-miterlimit:10;}
</style>
<title>register</title>
<path class="st0" d="M278.7,95.8c0.1,0,0.2,0,0.3,0c0.7,0.6,0.7,1.7,0.1,2.4c0,0,0,0-0.1,0.1c-0.1,0-0.2,0-0.3,0V95.8z"/>
<path class="st1" d="M305,70.1c0-0.1,0-0.2,0-0.3h1.7c0,0.1,0,0.2,0,0.3c-0.4,0.5-1.1,0.5-1.6,0.1C305.1,70.1,305,70.1,305,70.1z"/>
<path class="st2" d="M293.7,79c0.7-0.9,1.5-1.7,2.4-2.4c0.6-0.4,1.4-0.6,2.1-0.6c4.3,0,8.6,0,13,0c0.7-0.1,1.4,0.1,1.9,0.6
	c0.2,0.9,0.1,1.9-0.2,2.8c-0.6,0.4-1.3,0.6-1.9,0.5c-5,0-10,0-15,0C295.1,80,294.3,79.7,293.7,79z"/>
<path class="st3" d="M279.4,94.4c0.3-1.1,0.9-2,1.7-2.7c0.4-0.2,0.9-0.3,1.3-0.3c5.6,0.1,11.2,0,16.8,0.1c0.8,0,1.9-0.3,2.3,0.8
	c-0.5,0.8-1.2,1.5-2,2c-0.5,0.2-1.1,0.3-1.7,0.3c-5.8,0-11.5,0-17.3,0C280.2,94.6,279.8,94.6,279.4,94.4z"/>
<path class="st4" d="M284.5,88.3c0.5-0.8,1.2-1.5,2-2c0.5-0.2,1-0.2,1.5-0.2c5.4,0,10.9,0,16.3,0c0.9,0,2-0.3,2.3,1.1
	c-0.4,0.7-1,1.3-1.7,1.7c-0.2,0.1-0.3,0.1-0.5,0.1c-6.1,0.2-12.2,0.2-18.3,0C285.5,89,284.9,88.7,284.5,88.3z"/>
<path class="st5" d="M278.9,98.2c0-0.8,0-1.6,0-2.5c0-0.1,0.1-0.2,0.1-0.3c0.3-0.2,0.7-0.3,1.1-0.3c5.1,0.1,10.2,0,15.3,0.1
	c0.8,0,1.9-0.3,2.3,0.8c-0.7,0.9-1.5,1.7-2.4,2.4c-0.8,0.2-1.7,0.3-2.5,0.3c-3.8,0-7.6,0-11.4,0C280.6,98.8,279.7,98.6,278.9,98.2
	L278.9,98.2z"/>
<path class="st6" d="M305,70.1h1.7c2.5,0.3,4.6,1.9,5.7,4.1c-0.5,0.4-1.1,0.6-1.7,0.5c-3.5,0-6.9,0-10.4,0c-0.6,0.1-1.3-0.1-1.8-0.5
	C300.2,72.1,302.2,70.4,305,70.1z"/>
<path class="st7" d="M298.6,74.2h13.9c0.5,0.7,0.7,1.5,0.7,2.4h-17C296.8,75.7,297.6,74.9,298.6,74.2z"/>
<path class="st8" d="M293,100.8c-3.3,4-7.7,4.8-11.2,2.1c-0.8-0.5-1.4-1.2-1.7-2c0.1-0.9,0.9-0.8,1.4-0.8c3.3-0.1,6.7-0.1,10,0
	C292.1,100.1,292.8,100,293,100.8z"/>
<path class="st9" d="M293,100.8c-0.8-0.6-1.6-0.3-2.5-0.3c-3,0-5.9,0-8.9,0c-0.5,0-1.1-0.2-1.6,0.3c-0.7-0.8-1-1.7-1-2.7
	c4.9,0,9.7,0,14.6,0c0.6,0,1.3-0.2,1.8,0.3C294.7,99.3,293.9,100.2,293,100.8z"/>
<path class="st10" d="M284.5,88.3c5.7,0.7,11.4,0.1,17.1,0.3c1.1,0,2.3-0.3,3.3,0.3c-0.4,0.7-1,1.3-1.7,1.7
	c-0.8,0.2-1.6,0.3-2.4,0.3c-5,0-10,0-15,0c-1.1,0-2.3,0.1-3.2-0.9L284.5,88.3z"/>
<path class="st11" d="M282.8,89.9c6.1,0.7,12.2,0.1,18.3,0.4c0.7,0,1.5-0.2,2.1,0.2c-0.4,0.7-1,1.3-1.7,1.8
	c-0.5-0.5-1.2-0.3-1.8-0.3c-5.3,0-10.7,0-16,0c-0.9,0-1.8-0.1-2.7-0.4L282.8,89.9z"/>
<path class="st12" d="M287.6,85.2c0.4-0.7,1-1.3,1.7-1.7c0.5-0.3,1-0.5,1.6-0.5c5.7,0,11.5,0,17.2,0c0.7,0,1.5,0.1,1.6,1.1
	c-0.3,0.6-0.8,1-1.4,1.4c-0.7,0.2-1.4,0.3-2.2,0.3c-5.3,0-10.7,0-16,0C289.3,85.7,288.4,85.9,287.6,85.2z"/>
<path class="st13" d="M293.7,79c0.9,0.2,1.8,0.4,2.7,0.4c5.5,0,11,0,16.5,0c0,0.6-0.2,1.2-0.7,1.7c-0.6,0.4-1.4,0.6-2.1,0.5
	c-5.2,0-10.4,0-15.6,0c-0.9,0-1.9,0-2.5-0.9C292.5,80.1,293.1,79.5,293.7,79z"/>
<path class="st14" d="M297.8,96.1c-0.5-0.5-1.2-0.3-1.8-0.3c-4.8,0-9.6,0-14.4,0c-0.8,0-1.7-0.1-2.5-0.4c0-0.4,0.1-0.7,0.3-1
	c0.4-0.2,0.8-0.3,1.3-0.3h18c0.3,0,0.5,0.1,0.8,0.3C299,95,298.4,95.6,297.8,96.1z"/>
<path class="st15" d="M287.6,85.2h19.3c0.5,0,1-0.1,1.5,0.3c-0.4,0.7-1,1.3-1.7,1.7c-0.5-0.9-1.3-0.6-2-0.6c-5.4,0-10.8,0-16.1,0
	c-0.7,0.1-1.4,0-2-0.3C286.8,85.8,287.1,85.4,287.6,85.2z"/>
<path class="st16" d="M292.1,80.7c0.8,0.2,1.7,0.4,2.5,0.3c5.9,0,11.8,0,17.7,0c-0.2,0.6-0.5,1.1-1,1.4c-0.6,0.4-1.4,0.5-2.1,0.5
	c-5.5,0-11,0-16.5,0c-0.8,0-1.6,0.1-2.3-0.5C290.8,81.7,291.4,81.2,292.1,80.7z"/>
<path class="st17" d="M290.4,82.4h20.9c-0.4,0.7-0.9,1.2-1.5,1.6c-0.4-0.7-1-0.6-1.6-0.6h-18.8C289.6,83,289.9,82.6,290.4,82.4z"/>
<path class="st18" d="M0,248.5c0.4,0.8,0.4,1.7,0,2.5V248.5z"/>
<path class="st19" d="M241.1,9.6c1.2-1.5,2.9-2.4,4.7-2.7c0.4-0.1,0.8,0.1,1-0.4h0.3c1.7,0.4,3.5,0.4,4.8,1.7
	c0.5,0.5,1.3,0.9,0.3,1.7c-3.4,0.3-6.7,0.3-10.1,0.1C241.8,10.1,241.4,9.9,241.1,9.6z"/>
<path class="st20" d="M252.7,9.6c-1-1.3-2.5-2.3-4.1-2.6c-0.5-0.1-1,0.1-1.3-0.5c2.2,0,4.5,0,6.7,0c0.7,0,0.9,0.1,0.9,0.9
	c-0.1,1.9,0,3.8,0,5.6c-0.1,0.1-0.3,0.1-0.4,0C253.7,11.9,253.1,10.8,252.7,9.6z"/>
<path class="st21" d="M254.4,13h0.3v2.7c-0.1,0-0.2,0-0.3,0c-0.6-0.6-0.5-1.3-0.5-2C254,13.4,254.2,13.1,254.4,13z"/>
<path class="st7" d="M228.7,21.9c1.7-1.9,3.6-3.7,5.5-5.5c0.7-0.4,1.5-0.6,2.3-0.6c5.1,0,10.2,0,15.3,0c0.8,0,1.9-0.3,2.2,0.9
	c-0.6,2.6-2.7,4-4.5,5.7c-6.1-0.2-12.2,0-18.3-0.1C230.4,22.4,229.5,22.6,228.7,21.9z"/>
<path class="st9" d="M177.4,75.2c0.2-2.6,2.1-4.2,3.8-5.8c2.4-0.2,4.9-0.3,7.3-0.1c3.8,0,7.5-0.1,11.3,0c0.7,0,2-0.5,1.9,1.1
	c-1.6,1.8-3.3,3.5-5.1,5.1c-0.6,0.2-1.3,0.3-2,0.3c-4.9,0-9.8,0-14.8,0C178.9,75.9,178.1,75.7,177.4,75.2z"/>
<path class="st2" d="M228.7,21.9c6.4,0,12.8,0,19.1,0c0.6,0,1.4-0.4,1.7,0.6c-1.6,1.9-3.3,3.6-5.2,5.1c-6.4-0.1-12.7,0-19.1-0.1
	c-0.6,0.1-1.3-0.1-1.7-0.5L228.7,21.9z"/>
<path class="st5" d="M201.7,70.4c-0.3-1-1.1-0.6-1.7-0.6c-5.7,0-11.4,0-17.1,0c-0.6,0-1.3,0.2-1.8-0.4c1.6-1.8,3.4-3.5,5.2-5.1
	c0.3-0.1,0.7-0.2,1-0.2c6,0,11.9,0,17.9,0c0.7,0,1.7-0.2,1.6,1.1C205.2,67.1,203.5,68.8,201.7,70.4z"/>
<path class="st14" d="M206.8,65.3c-0.3-1-1.1-0.6-1.7-0.6c-5.6,0-11.2,0-16.8,0c-0.7,0.1-1.4,0-2-0.3c1.3-1.5,2.6-2.9,4.1-4.1
	c0.5-0.2,1-0.2,1.5-0.2c5.7,0,11.4,0,17.2,0c0.8,0,1.7-0.2,2.2,0.8C209.9,62.4,208.4,63.9,206.8,65.3z"/>
<path class="st3" d="M211.3,60.8c-0.5-0.5-1.2-0.3-1.8-0.3c-5.6,0-11.3,0-16.9,0c-0.7,0.1-1.5,0-2.2-0.3l4.1-4.1
	c0.5-0.2,1-0.2,1.5-0.2c5.7,0,11.4,0,17.2,0c0.8,0,1.7-0.2,2.2,0.8C214.1,58.2,212.7,59.6,211.3,60.8z"/>
<path class="st12" d="M209.6,41c1.1-1.4,2.4-2.6,3.8-3.8c0.3-0.2,0.7-0.3,1.1-0.3c5.9,0.2,11.8,0,17.7,0.1c0.7,0,1.7-0.3,2,0.8
	c-1,1.3-2.2,2.4-3.4,3.4c-0.6,0.2-1.3,0.3-2,0.3c-5.6,0-11.1,0-16.7,0C211.2,41.7,210.3,41.5,209.6,41z"/>
<path class="st11" d="M215.3,56.7c-0.5-0.5-1.2-0.3-1.8-0.3c-5.6,0-11.3,0-16.9,0c-0.7,0.1-1.5,0-2.2-0.3c1.1-1.2,2.2-2.4,3.5-3.4
	c0.3-0.2,0.7-0.3,1.1-0.3c5.7,0.1,11.4,0,17.1,0.1c0.6,0,1.1,0,1.7,0.2c0.4,0.2,0.9,0.4,0.6,1C217.5,54.8,216.5,55.8,215.3,56.7z"/>
<path class="st22" d="M224.6,47.4c-1.2,1.1-2,2.6-3.4,3.5c-6-0.2-11.9,0-17.9-0.1c-0.9,0-2,0.2-2.6-0.9c0.9-1.1,2-2.1,3.1-3.1
	c0.6-0.4,1.2-0.6,1.9-0.5c5.6,0,11.1,0,16.6,0C223.2,46.3,224.2,46.3,224.6,47.4z"/>
<path class="st15" d="M209.6,41h19.5c0.5,0,1.1-0.2,1.6,0.3c-1,1.3-2.2,2.4-3.4,3.4c-6.1-0.2-12.1,0-18.2-0.1
	c-0.9,0-1.8,0.2-2.6-0.5C207.4,43,208.5,41.9,209.6,41z"/>
<path class="st8" d="M177.4,75.2c5.8,0,11.6,0,17.4,0c0.6,0,1.3-0.2,1.8,0.3c-1.1,1.4-2.4,2.6-3.8,3.7c-4.7-0.1-9.4-0.2-14.1,0
	c-0.3,0-0.7-0.1-1-0.2C177,77.8,176.9,76.5,177.4,75.2z"/>
<path class="st6" d="M254.4,13l-0.1,0.7c-0.5,0.4-1.1,0.6-1.8,0.5c-4.3,0-8.5,0.1-12.8,0c-0.9,0-1.9,0-2.1-1.2
	c1.1-1.2,2.2-2.4,3.5-3.4h11.6C253.6,10.5,254.2,11.7,254.4,13z"/>
<path class="st23" d="M177.6,79c2-0.7,4.2-0.3,6.3-0.4c2.3-0.1,4.5,0,6.8,0c0.7-0.1,1.5,0.1,2.1,0.6c-1,1-2,2-3,3
	c-3.1,2.8-7.8,2.5-10.5-0.5C178.5,81,178,80,177.6,79L177.6,79z"/>
<path class="st4" d="M206.5,44.1h19c0.7,0,1.4-0.1,1.8,0.6c-0.8,1-1.7,1.9-2.8,2.7c-0.6-0.5-1.3-0.7-2.1-0.6h-18.7
	C204.6,45.8,205.5,44.9,206.5,44.1z"/>
<path class="st24" d="M200.7,49.9c0.7,0.3,1.4,0.4,2.1,0.3h16.4c0.7,0,1.5-0.2,2,0.6c-0.8,1-1.7,1.9-2.7,2.7c-0.3-1-1.1-0.6-1.7-0.6
	c-5.3,0-10.7,0-16.1,0c-0.9,0-1.8-0.1-2.7-0.3C198.8,51.7,199.7,50.7,200.7,49.9z"/>
<path class="st25" d="M234.1,37.9c-0.5-0.5-1.2-0.3-1.8-0.3c-4.7,0-9.4,0-14.1,0c-1.6,0.1-3.3,0-4.9-0.3c0.6-1.1,1.5-1.9,2.6-2.4
	c0.6-0.4,1.4-0.6,2.1-0.5c5.6,0,11.1,0,16.7,0c0.7,0,1.6-0.2,2,0.8C236.1,36.2,235.2,37.1,234.1,37.9z"/>
<path class="st26" d="M237.6,13c0.6,0.8,1.5,0.7,2.4,0.7h14.4l0.1,2.1c-0.1,0.4,0,0.8-0.4,1.1c-0.4-0.6-1-0.4-1.6-0.4h-18.3
	C235.3,15.2,236.4,14,237.6,13z"/>
<path class="st27" d="M241,31.1c-0.5,0.8-1.2,1.5-2.1,2c-1,0.2-2,0.3-3,0.3c-5.1,0-10.1,0-15.2,0c-0.9,0-2,0.2-2.6-0.9
	c0.6-0.8,1.2-1.5,2-2.1c0.5-0.2,1-0.2,1.5-0.2c5.7,0,11.4,0,17.2,0C239.6,30.3,240.6,30,241,31.1z"/>
<path class="st28" d="M218.1,32.5c0.6,0.3,1.3,0.4,2,0.3c5.7,0,11.3,0,17,0c0.6,0,1.3-0.2,1.8,0.2c-0.9,0.5-1.1,1.7-2.1,2.1
	c-0.5-0.4-1.2-0.2-1.8-0.2c-6.4,0-12.7,0-19.1,0C216.5,33.9,217.2,33.1,218.1,32.5z"/>
<path class="st13" d="M223.6,27H242c0.9-0.1,1.7,0.1,2.4,0.6c-0.5,0.7-1,1.3-1.7,1.8c-0.3,0.2-0.7,0.3-1.1,0.3
	c-5.7-0.2-11.4,0.1-17.1-0.1c-0.7,0.1-1.5-0.1-2.1-0.4c-0.2-0.2-0.3-0.5-0.1-0.7c0,0,0,0,0,0C222.5,27.8,223,27.3,223.6,27z"/>
<path class="st13" d="M222.2,28.4c0.2,1,1.1,0.7,1.7,0.7c5.4,0,10.8,0,16.1,0c0.9,0,1.8,0.1,2.7,0.3c-0.4,0.7-1,1.3-1.7,1.7
	c-0.5-0.5-1.2-0.3-1.8-0.3c-5.6,0-11.3,0-16.9,0c-0.7,0.1-1.5,0-2.2-0.3L222.2,28.4z"/>
<g>
	<g>
		<path class="st29" d="M278.3,243.7c8.9,0,25-11.9,27.2-15.5s3-7.2,3.9-11.7c1.1-2.7,2.4-5.3,3.9-7.8c3.7-4.9,3.9-19.4,3.9-19.4
			l-3.9-3.9c0,0-1-12.2-1.5-18.2c-2.2-17.5-14.3-28.5-33.5-28.5s-31.3,11-33.5,28.5c-0.5,6-1.5,18.2-1.5,18.2l-3.9,3.9
			c0,0,0.2,14.6,3.9,19.4c1.5,2.5,2.8,5.1,3.9,7.8c0.9,4.4,1.7,8,3.9,11.7S269.4,243.7,278.3,243.7z"/>
		<path class="st30" d="M278.3,247.6c-10.3,0-27.7-12.7-30.5-17.4c-2.5-4.1-3.4-8.1-4.3-12.5c-0.9-2.3-2.1-4.6-3.4-6.7
			c-4.1-5.7-4.5-18.9-4.5-21.5l0-1.6l4-4c0.3-3.4,1-12.1,1.4-16.8l0-0.1c2.6-19.9,16.5-31.8,37.4-31.8c20.8,0,34.8,11.9,37.4,31.8
			l0,0.1c0.4,4.7,1.1,13.4,1.4,16.8l4,4l0,1.6c0,2.6-0.5,15.8-4.5,21.5c-1.3,2.1-2.4,4.4-3.4,6.7c-1,4.8-1.9,8.6-4.3,12.6
			C305.9,234.9,288.5,247.6,278.3,247.6z M243.3,190.8c0.2,5.5,1.3,13.1,3.1,15.5l0.2,0.3c1.6,2.7,3,5.5,4.2,8.4l0.1,0.3l0.1,0.4
			c0.8,4.1,1.5,7.3,3.4,10.4c1.7,2.7,16.7,13.7,23.9,13.7c7.3,0,22.1-10.9,23.9-13.7c1.8-3,2.5-5.9,3.4-10.4l0.1-0.3l0.1-0.3
			c1.2-2.9,2.6-5.7,4.2-8.4l0.2-0.3c1.8-2.4,2.8-10,3.1-15.5l-3.7-3.7l-0.1-1.4c0-0.1-0.9-12.2-1.5-18.1c-2.1-15.9-12.9-25-29.6-25
			c-16.8,0-27.6,9.1-29.6,25c-0.5,5.9-1.5,18-1.5,18.1l-0.1,1.4L243.3,190.8z"/>
	</g>
	<g>
		<path class="st31" d="M278.3,321.4c27.2,0,52-9.5,70-27.2v-15.6c-2.2-7.8-8.4-11.8-15.5-15.5l-27.2-11.7c0,0-14,11.7-27.2,11.7
			S255,251.5,255,251.5l-31.1,11.7c-7.1,3.8-13.4,7.8-15.6,15.5v15.5C226.2,312,251.1,321.4,278.3,321.4z"/>
		<path class="st30" d="M278.3,325.3c-28.5,0-54.3-10.1-72.7-28.3l-1.2-1.1v-17.7l0.1-0.5c2.6-9.4,10.1-14,17.5-17.9l0.5-0.2
			l33.6-12.6l1.8,2c0.1,0.1,9.2,10.3,20.4,10.3c11.6,0,24.6-10.7,24.7-10.8l1.8-1.5l29.7,12.7c7.4,3.9,14.8,8.5,17.5,17.9l0.1,0.5
			v17.7L351,297C332.5,315.3,306.7,325.3,278.3,325.3z M212.2,292.6c16.9,16.1,40.3,25,66.1,25c25.8,0,49.2-8.9,66.1-25v-13.3
			c-1.7-5.5-6.1-8.7-13.3-12.6l-25-10.7c-4.5,3.3-16.2,11.1-27.8,11.1c-11.4,0-20.5-7.4-24.3-11l-28.5,10.7
			c-7.2,3.8-11.5,7.1-13.3,12.6V292.6z"/>
	</g>
	<rect x="251.1" y="232" class="st30" width="7.8" height="19.4"/>
	<rect x="297.7" y="232" class="st30" width="7.8" height="21.8"/>
</g>
<g>
	<g>
		<path class="st29" d="M417,241.9c6.7,0,18.8-9,20.5-11.7c1.5-2.7,2.5-5.7,2.9-8.8c0.8-2,1.8-4,2.9-5.9c2.8-3.7,2.9-14.6,2.9-14.6
			l-2.9-2.9c0,0-0.7-9.2-1.1-13.7c-1.7-13.1-10.7-21.4-25.2-21.4s-23.5,8.2-25.2,21.4c-0.4,4.5-1.1,13.7-1.1,13.7l-2.9,2.9
			c0,0,0.2,11,2.9,14.6c1.1,1.9,2.1,3.8,2.9,5.8c0.4,3.1,1.4,6,2.9,8.8C398.2,233,410.3,241.9,417,241.9z"/>
		<path class="st30" d="M417,244.8c-7.8,0-20.8-9.6-23-13.1c-1.7-3-2.7-6.2-3.2-9.5c-0.7-1.7-1.5-3.4-2.5-5
			c-3.1-4.3-3.4-14.2-3.4-16.2l0-1.2l3-3c0.2-2.6,0.7-9.1,1-12.6l0-0.1c1.9-15,12.4-23.9,28.1-23.9s26.2,8.9,28.1,23.9l0,0.1
			c0.3,3.5,0.8,10.1,1,12.6l3,3l0,1.2c0,2-0.3,11.9-3.4,16.2c-1,1.6-1.8,3.3-2.5,5c-0.5,3.3-1.6,6.5-3.2,9.4l-0.1,0.1
			C437.8,235.3,424.8,244.8,417,244.8z M390.8,202.2c0.2,4.2,0.9,9.9,2.3,11.7l0.2,0.2c1.2,2,2.3,4.1,3.1,6.3l0.1,0.3l0,0.3
			c0.4,2.7,1.3,5.3,2.6,7.8c1.2,2,12.5,10.2,17.9,10.2c5.5,0,16.5-8.1,17.9-10.2c1.3-2.4,2.2-5,2.6-7.7l0-0.3l0.1-0.3
			c0.9-2.2,1.9-4.3,3.1-6.3l0.2-0.2c1.4-1.8,2.1-7.5,2.3-11.7l-2.8-2.8l-0.1-1.1c0-0.1-0.7-9.1-1.1-13.6
			c-1.5-11.9-9.7-18.8-22.3-18.8s-20.7,6.8-22.3,18.8c-0.4,4.4-1.1,13.5-1.1,13.6l-0.1,1.1L390.8,202.2z"/>
	</g>
	<g>
		<path class="st32" d="M417,300.3c20.5,0,39.1-7.1,52.6-20.5v-11.7c-1.6-5.9-6.3-8.8-11.7-11.7l-20.5-8.8c0,0-10.5,8.8-20.5,8.8
			s-17.5-8.8-17.5-8.8l-23.4,8.8c-5.4,2.8-10,5.8-11.7,11.7v11.7C377.9,293.2,396.6,300.3,417,300.3z"/>
		<path class="st30" d="M417,303.3c-21.4,0-40.8-7.6-54.6-21.3l-0.9-0.9v-13.3l0.1-0.4c2-7.1,7.6-10.5,13.1-13.5l0.3-0.2l25.3-9.5
			l1.3,1.5c0.1,0.1,6.9,7.8,15.3,7.8c8.7,0,18.5-8,18.6-8.1l1.4-1.1l22.3,9.6c5.6,2.9,11.1,6.4,13.1,13.5l0.1,0.4v13.3l-0.9,0.9
			C457.8,295.7,438.4,303.3,417,303.3z M367.4,278.6c12.7,12.1,30.3,18.8,49.7,18.8c19.4,0,37-6.7,49.7-18.8v-10
			c-1.3-4.2-4.6-6.6-10-9.5l-18.8-8c-3.4,2.5-12.2,8.3-20.9,8.3c-8.6,0-15.4-5.5-18.3-8.3l-21.4,8c-5.4,2.9-8.6,5.3-10,9.4V278.6z"
			/>
	</g>
	<rect x="396.6" y="233.2" class="st30" width="5.8" height="14.6"/>
	<rect x="431.6" y="233.2" class="st30" width="5.8" height="16.3"/>
</g>
<ellipse class="st33" cx="47.6" cy="166" rx="8.2" ry="8"/>
<polygon class="st33" points="371.4,133.9 368.9,141.4 373.6,147.7 365.7,147.6 361.2,154.1 358.8,146.5 351.3,144.2 357.7,139.6 
	357.6,131.8 364,136.5 "/>
<polygon class="st34" points="181,55.2 178.4,54.3 176.3,56 176.3,53.2 174,51.7 176.7,50.8 177.5,48.2 179.1,50.5 181.8,50.4 
	180.1,52.6 "/>
<circle class="st35" cx="135.4" cy="87.8" r="4.4"/>
<rect x="259.6" y="63" class="st36" width="3.9" height="3.9"/>
<rect x="472" y="224.6" transform="matrix(0.9503 -0.3113 0.3113 0.9503 -47.9913 160.2249)" class="st36" width="11.7" height="11.7"/>
<rect x="65.1" y="249.7" class="st36" width="7.8" height="7.8"/>
<rect x="63" y="88.1" transform="matrix(0.6706 -0.7419 0.7419 0.6706 -46.2181 79.9591)" class="st37" width="7.8" height="7.8"/>
<rect x="198.1" y="155.9" transform="matrix(0.5867 -0.8098 0.8098 0.5867 -46.669 232.0069)" class="st34" width="11.7" height="11.7"/>
<circle class="st38" cx="469.5" cy="140.6" r="5.8"/>
<circle class="st38" cx="179.5" cy="107.5" r="2.9"/>
<circle class="st38" cx="301.1" cy="50.4" r="4"/>
<polygon class="st38" points="174.5,140.6 176.8,142.2 179.4,141.3 178.6,143.9 180.3,146.1 177.5,146.2 175.9,148.5 175,145.8 
	172.3,145.1 174.6,143.4 "/>
<polygon class="st39" points="405.2,93.9 403.9,97.6 400,98.2 397.5,95.2 398.8,91.5 402.7,90.8 "/>
<polygon class="st39" points="239.9,99.3 235,101.3 230.8,98 231.5,92.8 236.4,90.7 240.7,94 "/>
<polygon class="st39" points="345.9,81.5 342.5,82.2 340.2,79.6 341.4,76.3 344.7,75.7 347,78.3 "/>
<polygon class="st39" points="364,207.1 359.9,208.9 356.4,206.4 356.8,202 360.9,200.2 364.4,202.8 "/>
<linearGradient id="SVGID_1_" gradientUnits="userSpaceOnUse" x1="4004.8291" y1="-2261.8184" x2="4151.729" y2="-2261.8184" gradientTransform="matrix(0.7071 -0.7071 -0.7071 -0.7071 -4408.7202 1481.7069)">
	<stop  offset="0" style="stop-color:#5682C2"/>
	<stop  offset="1" style="stop-color:#13A6DF"/>
</linearGradient>
<path class="st40" d="M22.5,234.2l88.9-88.9c4.1-4.1,10.9-4.1,15,0l0,0c4.1,4.1,4.1,10.9,0,15l-88.9,88.9c-4.1,4.1-10.9,4.1-15,0
	l0,0C18.3,245.1,18.3,238.4,22.5,234.2z"/>
<linearGradient id="SVGID_2_" gradientUnits="userSpaceOnUse" x1="262.4116" y1="-45.3151" x2="372.6616" y2="-45.3151" gradientTransform="matrix(0.9829 -2.121318e-02 2.121318e-02 -0.9829 100.3548 315.6019)">
	<stop  offset="0" style="stop-color:#5682C2"/>
	<stop  offset="1" style="stop-color:#13A6DF"/>
</linearGradient>
<path class="st41" d="M358.8,391l89.5-89.5c4-4,10.4-4,14.4,0l0,0c4,4,4,10.4,0,14.4l-89.5,89.5c-4,4-10.4,4-14.4,0l0,0
	C354.9,401.4,354.9,394.9,358.8,391z"/>
<linearGradient id="SVGID_3_" gradientUnits="userSpaceOnUse" x1="-69876.2031" y1="61524.9531" x2="-69757.8828" y2="61524.9531" gradientTransform="matrix(0.5233 -0.4808 0.4808 -0.5233 2648.8862 2864.1292)">
	<stop  offset="0" style="stop-color:#5682C2"/>
	<stop  offset="1" style="stop-color:#13A6DF"/>
</linearGradient>
<path class="st42" d="M206.3,103.4L309.6,0.1c0.2-0.2,0.4-0.2,0.6,0l0,0c0.2,0.2,0.2,0.4,0,0.6L206.8,104c-0.2,0.2-0.4,0.2-0.6,0
	l0,0C206.1,103.8,206.1,103.6,206.3,103.4z"/>
<linearGradient id="SVGID_4_" gradientUnits="userSpaceOnUse" x1="-24174.0215" y1="29317.4102" x2="-24056.8418" y2="29317.4102" gradientTransform="matrix(0.3465 -0.2475 0.2475 -0.3465 1315.1998 4186.1772)">
	<stop  offset="0" style="stop-color:#5682C2"/>
	<stop  offset="1" style="stop-color:#13A6DF"/>
</linearGradient>
<path class="st43" d="M74.4,104.4l59.9-59.9c0.3-0.3,0.8-0.3,1.1,0l0.4,0.4c0.3,0.3,0.3,0.8,0,1.1l-59.9,59.9
	c-0.3,0.3-0.8,0.3-1.1,0l-0.4-0.4C74.1,105.2,74.1,104.7,74.4,104.4z"/>
<linearGradient id="SVGID_5_" gradientUnits="userSpaceOnUse" x1="-60899.6133" y1="58238.3398" x2="-60781.5039" y2="58238.3398" gradientTransform="matrix(0.3111 -0.2687 0.2687 -0.3111 1290.7633 4222.2485)">
	<stop  offset="0" style="stop-color:#5682C2"/>
	<stop  offset="1" style="stop-color:#13A6DF"/>
</linearGradient>
<path class="st44" d="M461.2,337.5l59.9-59.9c0.1-0.1,0.3-0.1,0.5,0l0.1,0.1c0.1,0.1,0.1,0.3,0,0.5L461.8,338
	c-0.1,0.1-0.3,0.1-0.5,0l-0.1-0.1C461.1,337.8,461.1,337.6,461.2,337.5z"/>
<linearGradient id="SVGID_6_" gradientUnits="userSpaceOnUse" x1="-65871.3906" y1="61895.8359" x2="-65753.2813" y2="61895.8359" gradientTransform="matrix(0.3111 -0.2687 0.2687 -0.3111 1290.7628 4222.2505)">
	<stop  offset="0" style="stop-color:#5682C2"/>
	<stop  offset="1" style="stop-color:#13A6DF"/>
</linearGradient>
<path class="st45" d="M59.2,395.5l59.9-59.9c0.1-0.1,0.3-0.1,0.5,0l0.1,0.1c0.1,0.1,0.1,0.3,0,0.5L59.8,396c-0.1,0.1-0.3,0.1-0.5,0
	l-0.1-0.1C59.1,395.8,59.1,395.6,59.2,395.5z"/>
<linearGradient id="SVGID_7_" gradientUnits="userSpaceOnUse" x1="3992.2659" y1="6719.75" x2="4100.2959" y2="6719.75" gradientTransform="matrix(0.5091 0.1273 -0.1273 -0.5091 -1044.9036 3255.2136)">
	<stop  offset="0" style="stop-color:#5682C2"/>
	<stop  offset="1" style="stop-color:#13A6DF"/>
</linearGradient>
<path class="st46" d="M160.1,364.6l30.4-30.4c2.6-2.6,6.9-2.6,9.6,0l0,0c2.6,2.6,2.6,6.9,0,9.6l-30.4,30.4c-2.6,2.6-6.9,2.6-9.6,0
	l0,0C157.5,371.5,157.5,367.2,160.1,364.6z"/>
<linearGradient id="SVGID_8_" gradientUnits="userSpaceOnUse" x1="12156.7773" y1="4463.8086" x2="12250.5371" y2="4463.8086" gradientTransform="matrix(0.45 -0.27 -0.45 -0.27 -3124.5798 4571.6499)">
	<stop  offset="0" style="stop-color:#5682C2"/>
	<stop  offset="1" style="stop-color:#13A6DF"/>
</linearGradient>
<path class="st47" d="M373.3,51v-2.3c0-11.5,9.4-20.9,20.9-20.9l0,0c11.5,0,20.9,9.4,20.9,20.9V51c0,11.5-9.4,20.9-20.9,20.9l0,0
	C382.7,71.9,373.3,62.6,373.3,51z"/>
<linearGradient id="SVGID_9_" gradientUnits="userSpaceOnUse" x1="12028.7168" y1="4076.303" x2="12175.8975" y2="4076.303" gradientTransform="matrix(0.45 -0.27 -0.45 -0.27 -3124.5801 4571.6401)">
	<stop  offset="0" style="stop-color:#5682C2"/>
	<stop  offset="1" style="stop-color:#13A6DF"/>
</linearGradient>
<path class="st48" d="M489.4,184.1v-3.5c0-18.1,14.7-32.8,32.8-32.8h0c18.1,0,32.8,14.7,32.8,32.8v3.5c0,18.1-14.7,32.8-32.8,32.8h0
	C504.1,217,489.4,202.3,489.4,184.1z"/>
<linearGradient id="SVGID_10_" gradientUnits="userSpaceOnUse" x1="11457.1875" y1="4005.4734" x2="11510.5273" y2="4005.4734" gradientTransform="matrix(0.45 -0.27 -0.45 -0.27 -3124.5801 4571.6401)">
	<stop  offset="0" style="stop-color:#5682C2"/>
	<stop  offset="1" style="stop-color:#13A6DF"/>
</linearGradient>
<path class="st49" d="M262.3,370v-1.3c0-6.6,5.3-11.9,11.9-11.9h0c6.6,0,11.9,5.3,11.9,11.9v1.3c0,6.6-5.3,11.9-11.9,11.9h0
	C267.7,381.9,262.3,376.6,262.3,370z"/>
<g>
	<g>
		<path class="st29" d="M138.3,240.3c6.7,0,18.8-9,20.4-11.7c1.5-2.7,2.5-5.7,2.9-8.8c0.8-2,1.8-4,2.9-5.8
			c2.8-3.7,2.9-14.6,2.9-14.6l-2.9-2.9c0,0-0.7-9.2-1.1-13.7c-1.7-13.1-10.7-21.4-25.2-21.4s-23.5,8.2-25.2,21.4
			c-0.4,4.5-1.1,13.7-1.1,13.7l-2.9,2.9c0,0,0.2,11,2.9,14.6c1.1,1.9,2.1,3.8,2.9,5.8c0.4,3.1,1.4,6,2.9,8.8
			C119.5,231.3,131.6,240.3,138.3,240.3z"/>
		<path class="st30" d="M138.3,243.2c-7.8,0-20.8-9.5-22.9-13.1c-1.7-3-2.7-6.2-3.2-9.5c-0.7-1.7-1.6-3.4-2.5-5
			c-3.1-4.3-3.4-14.2-3.4-16.2l0-1.2l3-3c0.2-2.6,0.7-9.1,1-12.6l0-0.1c1.9-15,12.4-23.9,28.1-23.9c15.7,0,26.2,8.9,28.1,23.9l0,0.1
			c0.3,3.5,0.8,10.1,1,12.6l3,3l0,1.2c0,2-0.3,11.9-3.4,16.2c-1,1.6-1.8,3.3-2.5,5c-0.5,3.3-1.6,6.5-3.2,9.4l-0.1,0.1
			C159.1,233.7,146.1,243.2,138.3,243.2z M112.1,200.6c0.2,4.2,0.9,9.9,2.3,11.7l0.2,0.2c1.2,2,2.3,4.1,3.1,6.3l0.1,0.3l0,0.3
			c0.4,2.7,1.3,5.3,2.6,7.8c1.2,2,12.5,10.2,17.9,10.2c5.5,0,16.5-8.1,17.9-10.2c1.3-2.4,2.2-5,2.6-7.7l0-0.3l0.1-0.3
			c0.9-2.2,1.9-4.3,3.1-6.3l0.2-0.2c1.3-1.8,2.1-7.6,2.3-11.7l-2.8-2.8l-0.1-1.1c0-0.1-0.7-9.1-1.1-13.6
			c-1.5-11.9-9.7-18.8-22.3-18.8c-12.6,0-20.7,6.8-22.3,18.8c-0.4,4.4-1.1,13.5-1.1,13.6l-0.1,1.1L112.1,200.6z"/>
	</g>
	<g>
		<path class="st32" d="M138.3,298.7c20.5,0,39.1-7.1,52.6-20.5v-11.7c-1.6-5.8-6.3-8.8-11.7-11.7l-20.4-8.8c0,0-10.5,8.8-20.4,8.8
			s-17.5-8.8-17.5-8.8l-23.4,8.8c-5.4,2.9-10,5.8-11.7,11.7v11.7C99.2,291.6,117.8,298.7,138.3,298.7z"/>
		<path class="st30" d="M138.3,301.6c-21.4,0-40.8-7.6-54.6-21.3l-0.9-0.9v-13.3l0.1-0.4c2-7.1,7.6-10.5,13.1-13.5l0.3-0.2l25.3-9.5
			l1.3,1.5c0.1,0.1,6.9,7.8,15.3,7.8c8.8,0,18.5-8,18.6-8.1l1.4-1.1l22.3,9.6c5.6,2.9,11.1,6.4,13.1,13.5l0.1,0.4v13.3l-0.9,0.9
			C179.1,294.1,159.7,301.6,138.3,301.6z M88.6,277.1c12.7,12.1,30.3,18.7,49.7,18.7c19.4,0,37-6.7,49.7-18.8v-10
			c-1.3-4.2-4.6-6.6-10-9.5l-18.8-8c-3.4,2.5-12.2,8.3-20.9,8.3c-8.6,0-15.4-5.5-18.3-8.3l-21.4,8c-5.4,2.9-8.6,5.3-10,9.4V277.1z"
			/>
	</g>
	<rect x="117.9" y="231.5" class="st30" width="5.8" height="14.6"/>
	<rect x="152.9" y="231.5" class="st30" width="5.8" height="16.3"/>
</g>
<circle class="st50" cx="438.4" cy="109.8" r="8.3"/>
<rect x="334.3" y="323.3" transform="matrix(0.6706 -0.7419 0.7419 0.6706 -132.0713 360.576)" class="st51" width="11.3" height="11.3"/>
</svg>
