<?xml version="1.0" encoding="utf-8"?>
<!-- Generator: Adobe Illustrator 22.0.1, SVG Export Plug-In . SVG Version: 6.00 Build 0)  -->
<svg version="1.1" xmlns="http://www.w3.org/2000/svg" xmlns:xlink="http://www.w3.org/1999/xlink" x="0px" y="0px"
	 viewBox="0 0 587 800" style="enable-background:new 0 0 587 800;" xml:space="preserve">
<style type="text/css">
	.st0{fill:#9FD6FF;}
	.st1{fill:#E8B7A7;}
	.st2{fill:none;}
	.st3{fill:#E7AD95;}
	.st4{fill:#FCB392;}
	.st5{fill:#F2AB8F;}
	.st6{fill:#F7C4B2;}
	.st7{fill:#FFBA9F;}
	.st8{fill:#1994FF;}
	.st9{fill:#EFDAD5;}
	.st10{fill:#FFFFFF;}
	.st11{fill:#9B6249;}
	.st12{fill:#D89279;}
	.st13{fill:#CCCCCC;}
	.st14{fill:#E2E2E2;}
	.st15{fill:none;stroke:#262626;stroke-width:0.7086;stroke-miterlimit:10;}
	.st16{fill:none;stroke:#262626;stroke-width:0.7086;stroke-miterlimit:10;stroke-dasharray:1.8853,1.8853;}
	.st17{fill:#D6D6D6;}
	.st18{fill:#C1C1C1;}
	.st19{fill:#7C7C7C;}
	.st20{fill:#EFEFEF;}
	.st21{fill:#FFFFFF;stroke:#262626;stroke-miterlimit:10;}
	.st22{fill:#93050C;}
	.st23{fill:#E0A086;}
	.st24{fill:#DB977F;}
	.st25{fill:none;stroke:#BC8471;stroke-width:0.9698;stroke-linecap:round;stroke-miterlimit:10;}
	.st26{fill:none;stroke:#FFFFFF;stroke-width:0.9698;stroke-miterlimit:10;}
	.st27{fill:#FFDFD4;}
	.st28{fill:#B57462;}
	.st29{fill:#C4816C;}
	.st30{fill:#F7A43A;}
	.st31{fill:#CC7F2B;}
	.st32{fill:#F3A991;}
	.st33{fill:#38302E;}
</style>
<g id="Background">
</g>
<g id="Objects">
	<g>
		<path class="st0" d="M247.3,42.9L247.3,42.9C247.3,42.9,247.3,42.9,247.3,42.9C247.3,42.9,247.3,42.9,247.3,42.9
			C247.3,42.9,247.3,42.9,247.3,42.9z M273.2,35.4c0,0,0.1,0.1,0.1,0.1l0,0C273.3,35.5,273.3,35.4,273.2,35.4
			C273.2,35.4,273.2,35.4,273.2,35.4z M272.4,34.4c0,0,0.1,0.1,0.1,0.1l0,0C272.5,34.5,272.4,34.5,272.4,34.4
			C272.4,34.4,272.4,34.4,272.4,34.4z M270.4,32.6c0.1,0.1,0.1,0.1,0.2,0.2c0,0,0,0,0,0C270.5,32.7,270.5,32.7,270.4,32.6
			C270.4,32.6,270.4,32.6,270.4,32.6z M269.4,31.9c0.1,0,0.1,0.1,0.2,0.1c0,0,0,0,0,0C269.5,32,269.4,31.9,269.4,31.9
			C269.4,31.9,269.4,31.9,269.4,31.9z M268.2,31.2c0.1,0,0.1,0.1,0.2,0.1c0,0,0,0,0,0C268.3,31.3,268.2,31.3,268.2,31.2
			C268.1,31.2,268.1,31.2,268.2,31.2z M266.9,30.7c0.1,0,0.2,0.1,0.3,0.1c0,0,0,0,0,0C267.1,30.8,267,30.7,266.9,30.7
			C266.9,30.7,266.9,30.7,266.9,30.7z M265.8,30.3c0.1,0,0.1,0,0.2,0.1c0,0,0,0,0,0C265.9,30.3,265.8,30.3,265.8,30.3
			C265.8,30.3,265.8,30.3,265.8,30.3z M264.3,30c0.1,0,0.2,0,0.3,0.1c0,0,0,0,0,0C264.5,30,264.4,30,264.3,30
			C264.3,30,264.3,30,264.3,30z M263,29.8c0.1,0,0.2,0,0.3,0c0,0,0,0,0,0C263.2,29.8,263.1,29.8,263,29.8
			C263,29.8,263,29.8,263,29.8z M260.3,29.8c0.4,0,0.9-0.1,1.4-0.1c0,0,0.1,0,0.1,0C261.2,29.7,260.7,29.8,260.3,29.8
			C260.3,29.8,260.3,29.8,260.3,29.8z M258.9,30c0.3-0.1,0.6-0.1,0.9-0.1c0,0,0,0,0,0C259.5,29.9,259.2,29.9,258.9,30
			C258.9,30,258.9,30,258.9,30z M257.5,30.3c0.3-0.1,0.5-0.1,0.8-0.2c0,0,0,0,0,0C258,30.2,257.8,30.3,257.5,30.3
			C257.5,30.3,257.5,30.3,257.5,30.3z M256.2,30.8c0.2-0.1,0.5-0.2,0.7-0.3c0,0,0,0,0,0C256.7,30.6,256.4,30.7,256.2,30.8
			C256.2,30.8,256.2,30.8,256.2,30.8z M255,31.4c0.2-0.1,0.4-0.2,0.6-0.3c0,0,0,0,0,0C255.4,31.2,255.2,31.3,255,31.4
			C255,31.4,255,31.4,255,31.4z M253.8,32.1c0.2-0.1,0.4-0.2,0.6-0.4c0,0,0,0,0,0C254.2,31.8,254,31.9,253.8,32.1
			C253.8,32.1,253.8,32.1,253.8,32.1z M252.7,32.9c0.2-0.1,0.3-0.3,0.5-0.4c0,0,0,0,0,0C253.1,32.6,252.9,32.7,252.7,32.9
			C252.7,32.9,252.7,32.9,252.7,32.9z M251.7,33.7c0.2-0.1,0.3-0.3,0.5-0.4c0,0,0,0,0,0C252,33.5,251.9,33.6,251.7,33.7
			C251.7,33.7,251.7,33.7,251.7,33.7z M250.8,34.7c0.1-0.1,0.3-0.3,0.4-0.4c0,0,0,0,0,0C251.1,34.4,250.9,34.6,250.8,34.7
			C250.8,34.7,250.8,34.7,250.8,34.7z M250,35.7c0.1-0.2,0.2-0.3,0.3-0.5c0,0,0,0,0,0C250.2,35.4,250.1,35.6,250,35.7
			C250,35.7,250,35.7,250,35.7z M249.2,36.9c0.1-0.2,0.2-0.3,0.3-0.5c0,0,0,0,0,0C249.4,36.5,249.3,36.7,249.2,36.9
			C249.2,36.9,249.2,36.9,249.2,36.9z M248.6,38c0.1-0.2,0.1-0.3,0.2-0.5c0,0,0,0,0,0C248.7,37.7,248.7,37.9,248.6,38
			C248.6,38,248.6,38,248.6,38z M248.1,39.3c0.1-0.1,0.1-0.3,0.2-0.4c0,0,0,0,0,0C248.2,39,248.1,39.1,248.1,39.3
			C248.1,39.3,248.1,39.3,248.1,39.3z M247.7,40.5c0-0.1,0.1-0.3,0.1-0.4c0,0,0,0,0,0C247.8,40.3,247.7,40.4,247.7,40.5
			C247.7,40.5,247.7,40.5,247.7,40.5z M247.4,41.8c0-0.1,0-0.2,0-0.3c0,0,0,0,0,0C247.4,41.6,247.4,41.7,247.4,41.8
			C247.4,41.8,247.4,41.8,247.4,41.8z M276,44.3c-0.1,0.3-0.1,0.6-0.2,0.9c0,0.1-0.1,0.3-0.1,0.4c-0.1,0.3-0.2,0.6-0.3,0.8
			c-0.1,0.2-0.1,0.3-0.2,0.5c-0.1,0.3-0.2,0.5-0.3,0.8c-0.1,0.2-0.1,0.3-0.2,0.5c-0.1,0.2-0.3,0.5-0.4,0.7c-0.1,0.2-0.2,0.3-0.3,0.5
			c-0.1,0.2-0.3,0.4-0.4,0.6c-0.1,0.2-0.2,0.3-0.3,0.5c-0.2,0.2-0.3,0.4-0.5,0.6c-0.1,0.2-0.3,0.3-0.4,0.5c-0.2,0.2-0.3,0.3-0.5,0.5
			c-0.2,0.1-0.3,0.3-0.5,0.4c-0.2,0.2-0.4,0.3-0.5,0.5c-0.2,0.1-0.4,0.3-0.5,0.4c-0.2,0.1-0.4,0.3-0.6,0.4c-0.2,0.1-0.4,0.2-0.6,0.4
			c-0.2,0.1-0.4,0.2-0.6,0.3c-0.2,0.1-0.4,0.2-0.7,0.3c-0.2,0.1-0.4,0.2-0.6,0.3c-0.2,0.1-0.5,0.2-0.7,0.3c-0.2,0.1-0.4,0.1-0.6,0.2
			c-0.3,0.1-0.5,0.1-0.8,0.2c-0.2,0-0.4,0.1-0.6,0.1c-0.3,0.1-0.6,0.1-0.9,0.1c-0.2,0-0.3,0.1-0.5,0.1c-0.5,0-1,0.1-1.4,0.1
			c0,0,0,0,0,0c-0.5,0-1,0-1.4-0.1c-0.2,0-0.3,0-0.5-0.1c-0.3,0-0.6-0.1-0.9-0.1c-0.2,0-0.4-0.1-0.6-0.1c-0.3-0.1-0.5-0.1-0.8-0.2
			c-0.2-0.1-0.4-0.1-0.6-0.2c-0.2-0.1-0.5-0.2-0.7-0.3c-0.2-0.1-0.4-0.2-0.6-0.3c-0.2-0.1-0.4-0.2-0.7-0.3c-0.2-0.1-0.4-0.2-0.6-0.3
			c-0.2-0.1-0.4-0.2-0.6-0.4c-0.2-0.1-0.4-0.3-0.6-0.4c-0.2-0.1-0.4-0.3-0.5-0.4c-0.2-0.1-0.4-0.3-0.5-0.5c-0.2-0.1-0.3-0.3-0.5-0.4
			c-0.2-0.2-0.3-0.3-0.5-0.5c-0.1-0.1-0.3-0.3-0.4-0.4c-0.2-0.2-0.3-0.4-0.5-0.6c-0.1-0.2-0.2-0.3-0.3-0.5c-0.2-0.2-0.3-0.4-0.4-0.6
			c-0.1-0.2-0.2-0.3-0.3-0.5c-0.1-0.2-0.3-0.5-0.4-0.7c-0.1-0.2-0.2-0.3-0.2-0.5c-0.1-0.3-0.2-0.5-0.3-0.8c-0.1-0.1-0.1-0.3-0.2-0.5
			c-0.1-0.3-0.2-0.6-0.3-0.9c0-0.1-0.1-0.3-0.1-0.4c-0.1-0.3-0.2-0.6-0.2-0.9c0,0,0,0,0,0c1.3-6.7,7.2-11.8,14.3-11.8
			C268.8,32.5,274.7,37.5,276,44.3C276,44.3,276,44.3,276,44.3z"/>
		<g>
			<g>
				<path id="XMLID_277_" class="st1" d="M226,484.9c-0.3-0.3-0.5-0.7-0.6-1.4c2.2,1.8,4.2,3.4,6.1,4.6
					C231.1,489.3,228.2,486.9,226,484.9z"/>
				<path id="XMLID_278_" class="st2" d="M212,656c1.5-4.6,2.8-8.9,4.3-13.4c-1.5,8.1-2.6,12.6-4.6,14.4
					C211.8,656.6,211.9,656.3,212,656z"/>
				<polygon id="XMLID_279_" class="st3" points="216.2,642.5 216.2,642.5 216.2,642.5 				"/>
				<path id="XMLID_280_" class="st4" d="M196.1,652.2c8.6,4.8,12.8,7.4,15.5,4.8c-4.4,14.9,9.3,86.7,10.9,129H88.1
					c0,0,13.4-121.4,12.4-136.5c11.9-6.2,25.6-10,35-11.1C155,636.2,181.4,644,196.1,652.2z"/>
				<path id="XMLID_281_" class="st5" d="M66.4,518c-14,8.7-3.3-1.7,4.4-5.5c5.9-3,5.9-6.8,5.5-10.4c1.3,2.9,2.2,5.3,2.2,6.6
					c0,4.4,9.4,7.7,10.5,9.2C80.3,514.4,80.4,509.2,66.4,518z"/>
				<path id="XMLID_282_" class="st5" d="M48.6,479.9c-13.5,2.1-8.9,1.4,4.4-2.5c6.6-1.9,11-2,13.3-3.3c0.3,2.8,0.5,4.9,0.6,6
					c0.1,0.9,0.5,2.2,1.2,3.9C65.8,479.7,60.7,478,48.6,479.9z"/>
				<path id="XMLID_283_" class="st6" d="M153.2,490.8c-4.9-2.4-9.2-4-12.9-5.2C144.6,486.4,148.9,488.2,153.2,490.8z"/>
				<path id="XMLID_284_" class="st5" d="M214.2,529.4c-21.8-1.4-41.6-27.1-60.9-38.6c7.4,3.6,16.2,8.6,26,15.8
					c38,27.9,59.9,13.1,72.2,30.6c-1.1,4.4-1.9,10-2.9,16.3C249.6,540.3,239.4,531.1,214.2,529.4z"/>
				<path id="XMLID_285_" class="st6" d="M136.8,485.2c-15.6-0.4-12.2-4.7,3.5,0.4C139.2,485.4,138,485.3,136.8,485.2z"/>
				<path id="XMLID_286_" class="st6" d="M153.2,490.8c-4.9-2.4-9.2-4-12.9-5.2C144.6,486.4,148.9,488.2,153.2,490.8z"/>
				<path id="XMLID_287_" class="st6" d="M136.8,485.2c-15.6-0.4-12.2-4.7,3.5,0.4C139.2,485.4,138,485.3,136.8,485.2z"/>
				<path id="XMLID_288_" class="st7" d="M49.2,438.1c12.5,11.5,16,27.2,17.1,36.1c-2.3,1.3-6.6,1.3-13.3,3.3
					c-13.3,3.9-17.9,4.6-4.4,2.5c12.2-1.9,17.2-0.2,19.5,4.2c1.9,4.9,5.8,12.4,8.2,18c0.4,3.7,0.4,7.5-5.5,10.4
					c-7.7,3.8-18.4,14.2-4.4,5.5c14-8.7,13.9-3.6,22.5-0.1c1.1,1.6,2.9-6,9.3-19.6c6.6-9.9,22.2-4.5,36.7,5.2
					c14.4,9.7,28.3,21.8,39.6,34.9c11.3,13.1,14.2,12-3.2-7.3c-17.4-19.3-43.1-33.6-49.8-38c-4.3-2.9-13.8-3.5-19.9-3.7
					c3.6-11.7,4.8-24.7,5.3-34.2c0-0.3,0-0.7,0.1-1c5.8,3,11.8,3.8,17.1,2.9c7.4-1.2,14.4-1.1,21.3-0.6c0,0,0,0,0,0
					c1.2,4.5,11.2,2.2,11.2,2.2s0.2-0.3,0.5-1c5.4,0.6,11,1.2,16.7,1.3c7,0.1,12.4,1.2,17.1,2.8c0,0.3,0,0.4,0.1,0.4
					c0.5,0,2.2,0.9,3.1,0.8c5.4,2.3,10.1,5.4,15.6,8.7c7.1,4.2,11.8,8.4,15.8,11.6c0.1,0.6,0.3,1.1,0.6,1.4c2.2,2,5.1,4.4,5.5,3.2
					c5.5,3.2,24,20,24.5,28.7l0,0c-0.7,5.1-1.4,10.7-3.5,16.8c-0.4,1.1-0.7,2.3-1,3.7c-12.4-17.6-34.2-2.8-72.2-30.6
					c-9.8-7.2-18.6-12.3-26-15.8c-4.3-2.6-8.6-4.5-12.9-5.2c-15.7-5.1-19.1-0.8-3.5-0.4c1.2,0,2.3,0.2,3.5,0.4
					c3.7,1.2,8,2.9,12.9,5.2c19.4,11.6,39.2,37.2,60.9,38.6c25.3,1.7,35.5,10.9,34.4,24.2c-2.2,13.9-5.4,31.4-14.1,47.6
					c-9.9,18.3-14.6,30.3-18.2,41.3v0c-1.5,4.5-2.8,8.9-4.3,13.4c-0.1,0.3-0.2,0.7-0.3,1c-2.7,2.6-7,0-15.5-4.8
					c-14.7-8.2-41.1-16-60.7-13.8c-9.3,1.1-23,4.9-35,11.1c-0.1-1.4-0.2-2.5-0.3-3.3c-1.6-9.8-4.5-21.7-10-27.8
					c-5.5-6.1-7.1-15.1-24.6-41.2c-17.4-26.1-15.4-31.1-17.7-41c-2.4-9.9-8.8-28.5-11.4-35.4c-2.6-6.9-6.8-19.3-6-27.7
					c0.7-8.4-3.4-20.4-5.8-34.7C22.3,424.1,32.8,423,49.2,438.1z"/>
				<path id="XMLID_289_" class="st5" d="M121.5,493.1c6.7,4.4,32.4,18.7,49.8,38c17.4,19.3,14.5,20.3,3.2,7.3
					c-11.3-13.1-25.2-25.1-39.6-34.9c-14.4-9.7-30.1-15.1-36.7-5.2c1.3-2.8,2.4-5.8,3.4-8.9C107.6,489.6,117.1,490.3,121.5,493.1z"
					/>
				<g id="XMLID_290_">
					<path id="XMLID_291_" class="st7" d="M276,430.9c-4.6-3.2-12.7-3.8-15.8-6.6c1.7-4.5,3.3-9.1,5-13.8
						c4.7-12.6,10-24.5,19.9-23.6s12.1,10.1,6.3,28c-1.7,5.3-3.3,10.3-4.8,15.2C285.1,434.9,280.9,434.3,276,430.9z"/>
					<path id="XMLID_292_" class="st7" d="M258.7,457.3c-5.7-2-9.9-4.5-12.9-5c1.4-2.6,2.8-5.1,4.3-7.2c4-5.7,7-12.7,9.8-20
						c2.7,1.8,7.7,4.4,16.4,8c3.5,1.4,6.4,1.9,8.9,1.7c-3.1,9.7-6.2,19.2-10.8,29.9c-0.3,0.8-0.7,1.5-1,2.3
						C270.3,463.5,264.9,459.5,258.7,457.3z"/>
					<path id="XMLID_293_" class="st7" d="M235.8,477c1-4.1,4.3-13.2,8.4-21.6c2.2-2.7,7.6,1.5,12.7,3.6c5.1,2.1,16.4,8.3,14.8,12
						l0,0c-5.6,13.7-8,21.5-11.9,29.9c-2.3,5.1-3,10.3-3.8,16l0,0c-0.4-8.7-18.9-25.5-24.5-28.7C231.9,486.9,234.4,482.9,235.8,477z
						"/>
					<path id="XMLID_294_" class="st7" d="M227.7,375.5c-2.6-1.9-4.6-2.3-6.1-1.7c0.1-0.3,0.1-0.7,0.2-1
						c2.1-13.7,5.1-30.6,11.2-38.6c6.1-7.9,23.1-1.6,23.4,8.9c0.2,5.7-3.3,21.3-6.8,36.4C236.9,380.5,233.7,380,227.7,375.5z"/>
					<path id="XMLID_295_" class="st7" d="M215.1,418.7c-3.5-1-6.1-1.3-8-1.2c0.5-1.5,1-2.9,1.4-4.1c3.6-10.1,9.9-24,12.5-36.8
						c0-0.1,0-0.1,0.1-0.2c1-4.5,6.7,4.3,17.4,4.3c10.6,0,10.1,2.7,8.9,8c-2.1,9.1-3.9,17.2-4.5,21.4c-0.5,3.6-1.2,7.3-2,11.3
						C237.6,418,228.4,422.5,215.1,418.7z"/>
					<path id="XMLID_296_" class="st7" d="M194.5,463c0.7-0.7,1.1-2.5,2.6-8.7c1.2-5.2,5.6-22.7,9.4-34.7c4.5-4.4,9.5,3,17.9,2.3
						c7.6-0.6,16.6-3.8,15.8,3.2c-2,8.7-4.7,18.5-8.1,29.5c-4.7,15.4-7.4,25.2-6.7,28.9c-3.9-3.3-8.7-7.4-15.8-11.6
						c-5.5-3.3-10.2-6.4-15.6-8.7C194.2,463.2,194.4,463.1,194.5,463z"/>
					<path id="XMLID_297_" class="st7" d="M197.5,360.1c-3.8,0-14.4-1.4-18-2.8c-3.2-1.3-6.3-2.1-8.1-0.7c0.4-3.5,0.8-7.1,1-10.8
						c1.8-24.9,8.6-38.2,24-34.7s7.4,25.8,6.6,44.4c-0.1,1.9-0.2,3.7-0.3,5.6C201.1,360.5,199.4,360.1,197.5,360.1z"/>
					<path id="XMLID_298_" class="st7" d="M180.5,407.9c10.7-1.2,19.3-4.2,18.9,2.3c-0.5,5.5-1.5,11.8-2.8,18.8
						c-2.6,13.8-5.6,30.1-5.7,33c-4.7-1.7-10.1-2.7-17.1-2.8c-5.8-0.1-11.3-0.7-16.7-1.3c0.8-1.9,2.5-6.5,3.2-14.8
						c0.8-8.9,2.2-25.5,3.2-36C167.2,402.8,169.8,409.1,180.5,407.9z"/>
					<path id="XMLID_299_" class="st7" d="M172.3,406c-4-0.8-6.9-0.9-8.8-0.7c0.2-2,0.3-3.7,0.4-5c0.6-6.6,4.8-22.7,7.2-42.3
						c0,0,0,0,0,0c1.3-3.8,8.9,2,17.5,2.6c8.5,0.6,13.9,0.2,13.7,3.6c-1.3,14.5-3.6,26-2.8,31c0.4,2.4,0.5,6,0.2,10.4
						C193.9,401.4,188,409,172.3,406z"/>
					<path id="XMLID_300_" class="st7" d="M120.5,365.5c-5-0.9-8.5,0.7-10.6,2.9c0.5-12.9,1.5-24.8,4.9-36.6
						c5.8-20.2,24.8-11.7,25.7,0.1c0.5,5.5,1.1,17.8,1.7,31.3C137.2,361.5,127.6,366.8,120.5,365.5z"/>
					<path id="XMLID_301_" class="st7" d="M127.9,410.3c10.7-1.3,16.3-5.6,16.6,4.4l0,0c0.3,17.3-0.1,38.1,0.9,41.9
						c-6.9-0.6-13.9-0.7-21.3,0.6c-5.3,0.9-11.3,0.1-17.1-2.9c0.5-9.1,0.9-22.4,1.5-39.1C110,408.9,117.1,411.6,127.9,410.3z"/>
					<path id="XMLID_302_" class="st7" d="M113.7,409.7c-2.4,0.5-4,1.3-5.2,2.2c0.2-4.4,0.3-9.1,0.5-13.9c0.4-9.9,0.5-19.1,0.8-27.7
						c2.5-6.6,13.4-3,20.4-3.2c7.1-0.2,12.1-2.2,12.3,3.7h0c0.6,13.4,1.2,26.8,1.5,35c0,0,0,0.1,0,0.1c-0.5,0.1-1,0.2-1.5,0.4
						C131.9,409.4,124.9,407.4,113.7,409.7z"/>
				</g>
				<g id="XMLID_303_">
					<path id="XMLID_304_" class="st5" d="M276.2,433c-8.6-3.6-13.6-6.2-16.4-8c0.1-0.3,0.2-0.5,0.3-0.8c3.1,2.8,11.3,3.4,15.8,6.6
						c4.9,3.4,9.1,4.1,10.6-0.8c-0.5,1.6-1,3.2-1.5,4.7C282.6,435,279.7,434.5,276.2,433z"/>
					<path id="XMLID_305_" class="st5" d="M256.9,459c-5.1-2.1-10.5-6.2-12.7-3.6c0.5-1.1,1-2.1,1.6-3.1c3,0.5,7.2,3,12.9,5
						c6.3,2.2,11.6,6.2,14.7,9.7c-0.6,1.4-1.1,2.7-1.6,3.9l0,0C273.2,467.2,262,461,256.9,459z"/>
					<path id="XMLID_306_" class="st5" d="M238.5,380.7c-10.7,0-16.4-8.8-17.4-4.3c0,0.1,0,0.1-0.1,0.2c0.2-0.9,0.4-1.8,0.5-2.7
						c1.6-0.6,3.6-0.2,6.1,1.7c6,4.4,9.3,5,21.8,4.1c-0.7,3.1-1.4,6.1-2.1,9.1C248.6,383.4,249.1,380.7,238.5,380.7z"/>
					<path id="XMLID_307_" class="st5" d="M224.3,421.9c-8.4,0.7-13.4-6.7-17.9-2.3c0.2-0.7,0.4-1.4,0.7-2.1c1.9-0.1,4.5,0.1,8,1.2
						c13.3,3.9,22.5-0.6,25.8,2.7c-0.3,1.2-0.5,2.5-0.8,3.7C240.9,418.1,231.9,421.3,224.3,421.9z"/>
					<path id="XMLID_308_" class="st5" d="M179.5,357.3c3.6,1.5,14.2,2.8,18,2.8c1.8,0,3.6,0.4,5.1,1.1c-0.1,1-0.2,2.1-0.2,3.1
						c0.3-3.4-5.1-3-13.7-3.6c-8.5-0.6-16.1-6.4-17.5-2.6c0,0,0,0,0,0c0.1-0.5,0.1-1,0.2-1.4C173.2,355.2,176.3,356,179.5,357.3z"/>
					<path id="XMLID_309_" class="st5" d="M172.3,406c15.7,3.1,21.6-4.5,27.4-0.3c-0.1,1.4-0.2,2.9-0.4,4.5
						c0.5-6.5-8.2-3.4-18.9-2.3c-10.7,1.2-13.3-5.1-17.1-0.9c0.1-0.6,0.1-1.2,0.1-1.7C165.5,405.1,168.3,405.2,172.3,406z"/>
					<path id="XMLID_310_" class="st5" d="M120.5,365.5c7.1,1.2,16.7-4,21.8-2.3c0.1,2.5,0.2,5,0.3,7.5h0c-0.3-5.9-5.3-3.9-12.3-3.7
						c-7.1,0.2-17.9-3.4-20.4,3.2c0-0.6,0-1.2,0.1-1.8C112,366.2,115.5,364.6,120.5,365.5z"/>
					<path id="XMLID_311_" class="st5" d="M113.7,409.7c11.2-2.2,18.2-0.3,29-3.5c0.6-0.2,1.1-0.3,1.5-0.4c0.1,2.8,0.2,5.8,0.3,8.9
						l0,0c-0.3-10-5.8-5.6-16.6-4.4c-10.7,1.3-17.9-1.5-19.5,4.8c0-1.1,0.1-2.2,0.1-3.3C109.7,410.9,111.3,410.1,113.7,409.7z"/>
				</g>
			</g>
			<g>
				<polygon class="st8" points="233.1,786 227.1,661.7 88.7,641.5 78.8,786 				"/>
				<polygon class="st9" points="217.5,639 88.1,615.6 96.2,642.6 219.7,660.6 				"/>
				<g>
					
						<ellipse transform="matrix(0.1466 -0.9892 0.9892 0.1466 -534.4689 646.7397)" class="st10" cx="107.6" cy="633.1" rx="9.9" ry="9.9"/>
					<g>
						<path class="st9" d="M109.5,629.8c-0.1,0.8-0.9,1.4-1.7,1.2c-0.8-0.1-1.4-0.9-1.2-1.7c0.1-0.8,0.9-1.4,1.7-1.2
							C109.1,628.3,109.7,629,109.5,629.8z"/>
						<path class="st9" d="M104.3,631.2c0.8,0.1,1.4,0.9,1.2,1.7c-0.1,0.8-0.9,1.4-1.7,1.2c-0.8-0.1-1.4-0.9-1.2-1.7
							C102.8,631.6,103.5,631,104.3,631.2z"/>
						<path class="st9" d="M105.6,636.4c0.1-0.8,0.9-1.4,1.7-1.2c0.8,0.1,1.4,0.9,1.2,1.7c-0.1,0.8-0.9,1.4-1.7,1.2
							C106.1,637.9,105.5,637.2,105.6,636.4z"/>
						<path class="st9" d="M110.9,635.1c-0.8-0.1-1.4-0.9-1.2-1.7c0.1-0.8,0.9-1.4,1.7-1.2c0.8,0.1,1.4,0.9,1.2,1.7
							C112.4,634.6,111.7,635.2,110.9,635.1z"/>
					</g>
				</g>
			</g>
			<g>
				<path class="st11" d="M418.5,661.7H99.6c-19.6,0-35.4-15.9-35.4-35.4V145.8c0-19.6,15.9-35.4,35.4-35.4h318.9
					c19.6,0,35.4,15.9,35.4,35.4v480.5C453.9,645.8,438,661.7,418.5,661.7z"/>
				<path class="st11" d="M441.4,119.1c5.5,6.3,8.8,14.5,8.8,23.5v479.2c0,19.9-16.1,36-36,36H96.4c-9,0-17.2-3.3-23.5-8.8
					c6.6,7.6,16.4,12.5,27.3,12.5h317.7c19.9,0,36-16.1,36-36V146.4C453.9,135.5,449,125.7,441.4,119.1z"/>
				<path class="st12" d="M66.6,628.7V148.3c0-19.6,15.9-35.4,35.4-35.4H421c9.1,0,17.5,3.5,23.8,9.2c-6.5-7.2-15.9-11.7-26.3-11.7
					H99.6c-19.6,0-35.4,15.9-35.4,35.4v480.5c0,10.4,4.5,19.8,11.7,26.3C70.1,646.2,66.6,637.9,66.6,628.7z"/>
				<rect x="98.7" y="154.3" class="st11" width="336.6" height="482.6"/>
				<g>
					<rect x="94.7" y="150.4" class="st13" width="336.6" height="482.6"/>
					<rect x="90.7" y="146.5" class="st14" width="336.6" height="482.6"/>
					<rect x="86.2" y="142.1" class="st10" width="336.6" height="482.6"/>
				</g>
				<g>
					<g>
						<g>
							<line class="st15" x1="109.3" y1="236.2" x2="110.3" y2="236.2"/>
							<line class="st16" x1="112.2" y1="236.2" x2="397.8" y2="236.2"/>
							<line class="st15" x1="398.7" y1="236.2" x2="399.7" y2="236.2"/>
						</g>
					</g>
					<g>
						<g>
							<line class="st15" x1="109.3" y1="252.2" x2="110.3" y2="252.2"/>
							<line class="st16" x1="112.2" y1="252.2" x2="397.8" y2="252.2"/>
							<line class="st15" x1="398.7" y1="252.2" x2="399.7" y2="252.2"/>
						</g>
					</g>
					<g>
						<g>
							<line class="st15" x1="109.3" y1="268.3" x2="110.3" y2="268.3"/>
							<line class="st16" x1="112.2" y1="268.3" x2="397.8" y2="268.3"/>
							<line class="st15" x1="398.7" y1="268.3" x2="399.7" y2="268.3"/>
						</g>
					</g>
					<g>
						<g>
							<line class="st15" x1="109.3" y1="284.4" x2="110.3" y2="284.4"/>
							<line class="st16" x1="112.2" y1="284.4" x2="397.8" y2="284.4"/>
							<line class="st15" x1="398.7" y1="284.4" x2="399.7" y2="284.4"/>
						</g>
					</g>
					<g>
						<g>
							<line class="st15" x1="109.3" y1="300.4" x2="110.3" y2="300.4"/>
							<line class="st16" x1="112.2" y1="300.4" x2="397.8" y2="300.4"/>
							<line class="st15" x1="398.7" y1="300.4" x2="399.7" y2="300.4"/>
						</g>
					</g>
					<g>
						<g>
							<line class="st15" x1="109.3" y1="316.5" x2="110.3" y2="316.5"/>
							<line class="st16" x1="112.2" y1="316.5" x2="397.8" y2="316.5"/>
							<line class="st15" x1="398.7" y1="316.5" x2="399.7" y2="316.5"/>
						</g>
					</g>
					<g>
						<g>
							<line class="st15" x1="109.3" y1="332.6" x2="110.3" y2="332.6"/>
							<line class="st16" x1="112.2" y1="332.6" x2="397.8" y2="332.6"/>
							<line class="st15" x1="398.7" y1="332.6" x2="399.7" y2="332.6"/>
						</g>
					</g>
					<g>
						<g>
							<line class="st15" x1="109.3" y1="348.6" x2="110.3" y2="348.6"/>
							<line class="st16" x1="112.2" y1="348.6" x2="397.8" y2="348.6"/>
							<line class="st15" x1="398.7" y1="348.6" x2="399.7" y2="348.6"/>
						</g>
					</g>
					<g>
						<g>
							<line class="st15" x1="109.3" y1="364.7" x2="110.3" y2="364.7"/>
							<line class="st16" x1="112.2" y1="364.7" x2="397.8" y2="364.7"/>
							<line class="st15" x1="398.7" y1="364.7" x2="399.7" y2="364.7"/>
						</g>
					</g>
					<g>
						<g>
							<line class="st15" x1="109.3" y1="380.8" x2="110.3" y2="380.8"/>
							<line class="st16" x1="112.2" y1="380.8" x2="397.8" y2="380.8"/>
							<line class="st15" x1="398.7" y1="380.8" x2="399.7" y2="380.8"/>
						</g>
					</g>
					<g>
						<g>
							<line class="st15" x1="109.3" y1="396.8" x2="110.3" y2="396.8"/>
							<line class="st16" x1="112.2" y1="396.8" x2="397.8" y2="396.8"/>
							<line class="st15" x1="398.7" y1="396.8" x2="399.7" y2="396.8"/>
						</g>
					</g>
					<g>
						<g>
							<line class="st15" x1="109.3" y1="412.9" x2="110.3" y2="412.9"/>
							<line class="st16" x1="112.2" y1="412.9" x2="397.8" y2="412.9"/>
							<line class="st15" x1="398.7" y1="412.9" x2="399.7" y2="412.9"/>
						</g>
					</g>
					<g>
						<g>
							<line class="st15" x1="109.3" y1="429" x2="110.3" y2="429"/>
							<line class="st16" x1="112.2" y1="429" x2="397.8" y2="429"/>
							<line class="st15" x1="398.7" y1="429" x2="399.7" y2="429"/>
						</g>
					</g>
					<g>
						<g>
							<line class="st15" x1="109.3" y1="445" x2="110.3" y2="445"/>
							<line class="st16" x1="112.2" y1="445" x2="397.8" y2="445"/>
							<line class="st15" x1="398.7" y1="445" x2="399.7" y2="445"/>
						</g>
					</g>
					<g>
						<g>
							<line class="st15" x1="109.3" y1="461.1" x2="110.3" y2="461.1"/>
							<line class="st16" x1="112.2" y1="461.1" x2="397.8" y2="461.1"/>
							<line class="st15" x1="398.7" y1="461.1" x2="399.7" y2="461.1"/>
						</g>
					</g>
					<g>
						<g>
							<line class="st15" x1="109.3" y1="477.2" x2="110.3" y2="477.2"/>
							<line class="st16" x1="112.2" y1="477.2" x2="397.8" y2="477.2"/>
							<line class="st15" x1="398.7" y1="477.2" x2="399.7" y2="477.2"/>
						</g>
					</g>
					<g>
						<g>
							<line class="st15" x1="109.3" y1="493.2" x2="110.3" y2="493.2"/>
							<line class="st16" x1="112.2" y1="493.2" x2="397.8" y2="493.2"/>
							<line class="st15" x1="398.7" y1="493.2" x2="399.7" y2="493.2"/>
						</g>
					</g>
					<g>
						<g>
							<line class="st15" x1="109.3" y1="509.3" x2="110.3" y2="509.3"/>
							<line class="st16" x1="112.2" y1="509.3" x2="397.8" y2="509.3"/>
							<line class="st15" x1="398.7" y1="509.3" x2="399.7" y2="509.3"/>
						</g>
					</g>
					<g>
						<g>
							<line class="st15" x1="109.3" y1="525.4" x2="110.3" y2="525.4"/>
							<line class="st16" x1="112.2" y1="525.4" x2="397.8" y2="525.4"/>
							<line class="st15" x1="398.7" y1="525.4" x2="399.7" y2="525.4"/>
						</g>
					</g>
					<g>
						<g>
							<line class="st15" x1="109.3" y1="541.4" x2="110.3" y2="541.4"/>
							<line class="st16" x1="112.2" y1="541.4" x2="397.8" y2="541.4"/>
							<line class="st15" x1="398.7" y1="541.4" x2="399.7" y2="541.4"/>
						</g>
					</g>
					<g>
						<g>
							<line class="st15" x1="109.3" y1="557.5" x2="110.3" y2="557.5"/>
							<line class="st16" x1="112.2" y1="557.5" x2="397.8" y2="557.5"/>
							<line class="st15" x1="398.7" y1="557.5" x2="399.7" y2="557.5"/>
						</g>
					</g>
					<g>
						<g>
							<line class="st15" x1="109.3" y1="573.6" x2="110.3" y2="573.6"/>
							<line class="st16" x1="112.2" y1="573.6" x2="397.8" y2="573.6"/>
							<line class="st15" x1="398.7" y1="573.6" x2="399.7" y2="573.6"/>
						</g>
					</g>
					<g>
						<g>
							<line class="st15" x1="109.3" y1="589.6" x2="110.3" y2="589.6"/>
							<line class="st16" x1="112.2" y1="589.6" x2="397.8" y2="589.6"/>
							<line class="st15" x1="398.7" y1="589.6" x2="399.7" y2="589.6"/>
						</g>
					</g>
					<g>
						<g>
							<line class="st15" x1="109.3" y1="605.7" x2="110.3" y2="605.7"/>
							<line class="st16" x1="112.2" y1="605.7" x2="397.8" y2="605.7"/>
							<line class="st15" x1="398.7" y1="605.7" x2="399.7" y2="605.7"/>
						</g>
					</g>
				</g>
				<g>
					<path class="st17" d="M383.9,104.8h-5.4c-0.1-0.2-0.2-0.5-0.3-0.7c-0.1-0.2-0.2-0.5-0.4-0.7c-0.2-0.3-0.3-0.6-0.5-0.8
						c-0.1-0.2-0.2-0.4-0.4-0.6c-0.3-0.4-0.5-0.8-0.8-1.2c-0.1-0.1-0.2-0.2-0.2-0.3c-0.3-0.4-0.6-0.8-1-1.2
						c-0.1-0.1-0.3-0.3-0.4-0.4c-0.3-0.3-0.5-0.6-0.8-0.9c-0.2-0.2-0.3-0.3-0.5-0.4c-0.3-0.3-0.6-0.6-1-0.8
						c-0.2-0.1-0.3-0.3-0.5-0.4c-0.5-0.4-1-0.8-1.5-1.1c-9.3-6.3-20.6-10.7-33.9-10.7h-14.6c-21.3,0-38.5-17.2-38.5-38.5v-1
						c0-15.4-12.5-27.8-27.8-27.8c-15.4,0-27.8,12.5-27.8,27.8v1c0,21.3-17.2,38.5-38.5,38.5h-14.6c-13.3,0-24.6,4.4-33.9,10.7
						c-0.5,0.4-1,0.7-1.5,1.1c-0.2,0.1-0.3,0.3-0.5,0.4c-0.3,0.3-0.7,0.5-1,0.8c-0.2,0.1-0.3,0.3-0.5,0.4c-0.3,0.3-0.6,0.6-0.8,0.9
						c-0.1,0.1-0.3,0.3-0.4,0.4c-0.3,0.4-0.7,0.8-1,1.2c-0.1,0.1-0.2,0.2-0.3,0.3c-0.3,0.4-0.6,0.8-0.8,1.2
						c-0.1,0.2-0.2,0.4-0.4,0.6c-0.2,0.3-0.3,0.6-0.5,0.8c-0.1,0.2-0.2,0.5-0.4,0.7c-0.1,0.2-0.2,0.5-0.3,0.7h-5.4
						c-8.2,0-14.9,6.7-14.9,14.9v24.1v1.5c0,1.5,0.2,3,0.7,4.4c0.3,0.9,0.7,1.8,1.1,2.7c1.1,2.1,2.8,3.9,4.8,5.2
						c0.8,0.5,1.6,1,2.5,1.4c0.4,0.2,0.9,0.4,1.4,0.5c1.4,0.4,2.9,0.7,4.4,0.7l0,0h257h0c3.6,0,6.9-1.3,9.4-3.4c0.7-0.6,1.4-1.3,2-2
						c0.6-0.7,1.1-1.5,1.6-2.4c1.1-2.1,1.8-4.5,1.8-7.1v-1.5v-24.1C398.8,111.4,392.1,104.8,383.9,104.8z M255.4,29.7
						c5.5,0,10.3,3.1,12.8,7.6C265.7,32.8,260.9,29.7,255.4,29.7c-8,0-14.5,6.5-14.5,14.5c0,0.5,0,0.9,0.1,1.4
						c0.7-7.4,6.9-13.2,14.5-13.2c7.6,0,13.8,5.8,14.5,13.2c0-0.5,0.1-0.9,0.1-1.4c0,0.5,0,0.9-0.1,1.4v0c0,0.4-0.1,0.7-0.2,1.1
						c0,0.1,0,0.2,0,0.3c-0.1,0.3-0.1,0.6-0.2,0.9c0,0.1-0.1,0.3-0.1,0.4c-0.1,0.3-0.2,0.6-0.3,0.9c-0.1,0.2-0.1,0.3-0.2,0.5
						c-0.1,0.3-0.2,0.5-0.3,0.8c-0.1,0.2-0.1,0.3-0.2,0.5c-0.1,0.2-0.3,0.5-0.4,0.7c-0.1,0.2-0.2,0.3-0.3,0.5
						c-0.1,0.2-0.3,0.4-0.4,0.6c-0.1,0.2-0.2,0.3-0.3,0.5c-0.2,0.2-0.3,0.4-0.5,0.6c-0.1,0.2-0.3,0.3-0.4,0.5
						c-0.2,0.2-0.3,0.3-0.5,0.5c-0.2,0.1-0.3,0.3-0.5,0.4c-0.2,0.2-0.4,0.3-0.5,0.5c-0.2,0.1-0.4,0.3-0.5,0.4
						c-0.2,0.1-0.4,0.3-0.6,0.4c-0.2,0.1-0.4,0.2-0.6,0.4c-0.2,0.1-0.4,0.2-0.6,0.3c-0.2,0.1-0.4,0.2-0.7,0.3
						c-0.2,0.1-0.4,0.2-0.6,0.3c-0.2,0.1-0.5,0.2-0.7,0.3c-0.2,0.1-0.4,0.1-0.6,0.2c-0.3,0.1-0.5,0.1-0.8,0.2
						c-0.2,0-0.4,0.1-0.6,0.1c-0.3,0.1-0.6,0.1-0.9,0.1c-0.2,0-0.3,0.1-0.5,0.1c-0.5,0-1,0.1-1.4,0.1c-0.5,0-1,0-1.4-0.1
						c-0.2,0-0.3,0-0.5-0.1c-0.3,0-0.6-0.1-0.9-0.1c-0.2,0-0.4-0.1-0.6-0.1c-0.3-0.1-0.5-0.1-0.8-0.2c-0.2-0.1-0.4-0.1-0.6-0.2
						c-0.2-0.1-0.5-0.2-0.7-0.3c-0.2-0.1-0.4-0.2-0.6-0.3c-0.2-0.1-0.4-0.2-0.7-0.3c-0.2-0.1-0.4-0.2-0.6-0.3
						c-0.2-0.1-0.4-0.2-0.6-0.4c-0.2-0.1-0.4-0.3-0.6-0.4c-0.2-0.1-0.4-0.3-0.5-0.4c-0.2-0.1-0.4-0.3-0.5-0.5
						c-0.2-0.1-0.3-0.3-0.5-0.4c-0.2-0.2-0.3-0.3-0.5-0.5c-0.1-0.1-0.3-0.3-0.4-0.5c-0.2-0.2-0.3-0.4-0.5-0.6
						c-0.1-0.2-0.2-0.3-0.3-0.5c-0.2-0.2-0.3-0.4-0.4-0.6c-0.1-0.2-0.2-0.3-0.3-0.5c-0.1-0.2-0.3-0.5-0.4-0.7
						c-0.1-0.2-0.2-0.3-0.2-0.5c-0.1-0.3-0.2-0.5-0.3-0.8c-0.1-0.1-0.1-0.3-0.2-0.5c-0.1-0.3-0.2-0.6-0.3-0.9c0-0.1-0.1-0.3-0.1-0.4
						c-0.1-0.3-0.2-0.6-0.2-0.9c0-0.1,0-0.2,0-0.3c-0.1-0.4-0.1-0.7-0.2-1.1v0c0-0.5-0.1-0.9-0.1-1.4
						C240.9,36.2,247.4,29.7,255.4,29.7z M392.8,145.2c0,4.9-4,8.9-8.9,8.9h-257c-4.9,0-8.9-4-8.9-8.9v-25.6c0-4.9,4-8.9,8.9-8.9
						h3.7c0,0.1,0,0.1,0,0.2c0,0.2,0,0.3-0.1,0.5c0,0.4-0.1,0.7-0.1,1.1c0,0.1,0,0.1,0,0.2c0,0.7,0,1.3,0,2c0,0.1,0,0.1,0,0.2
						c0,0.1,0,0.3,0,0.4l0,0v0c0.1,1,0.2,1.9,0.4,2.9c0,0.1,0,0.2,0.1,0.3c0.1,0.3,0.1,0.7,0.2,1c0,0.1,0,0.1,0.1,0.2
						c0.2,0.6,0.3,1.3,0.6,1.9c0,0.1,0.1,0.3,0.1,0.4c0.1,0.3,0.2,0.6,0.3,0.9c0.1,0.2,0.1,0.3,0.2,0.5c0.2,0.4,0.4,0.9,0.6,1.3
						c0.1,0.2,0.2,0.4,0.3,0.6c0.1,0.2,0.3,0.5,0.4,0.7c0.1,0.2,0.3,0.4,0.4,0.6c0.1,0.2,0.3,0.4,0.4,0.6c0.2,0.4,0.5,0.7,0.8,1.1
						c0.1,0.2,0.3,0.3,0.4,0.5c0.2,0.2,0.4,0.5,0.6,0.7c0.1,0.2,0.3,0.3,0.4,0.5c0.3,0.3,0.7,0.7,1,1c0.1,0.1,0.2,0.2,0.3,0.3
						c0.3,0.3,0.6,0.5,0.9,0.8c0.1,0.1,0.3,0.2,0.4,0.3c0.3,0.3,0.7,0.5,1.1,0.8c0.1,0,0.1,0.1,0.2,0.1c0.4,0.3,0.9,0.6,1.3,0.8
						c0.1,0.1,0.3,0.2,0.4,0.2c0.4,0.2,0.8,0.4,1.2,0.6c0.1,0.1,0.2,0.1,0.3,0.2c0.5,0.2,1,0.4,1.5,0.6c0.1,0,0.3,0.1,0.4,0.1
						c0.4,0.1,0.9,0.3,1.3,0.4c0.1,0,0.3,0.1,0.4,0.1c0.6,0.1,1.1,0.3,1.7,0.4c0.1,0,0.2,0,0.3,0c0.5,0.1,1,0.1,1.5,0.2
						c0.2,0,0.3,0,0.5,0c0.6,0,1.2,0.1,1.9,0.1h102.2h102.2c0.6,0,1.2,0,1.9-0.1c0.2,0,0.3,0,0.5,0c0.5,0,1-0.1,1.5-0.2
						c0.1,0,0.2,0,0.3,0c0.6-0.1,1.1-0.2,1.7-0.4c0.1,0,0.3-0.1,0.4-0.1c0.4-0.1,0.9-0.2,1.3-0.4c0.1,0,0.3-0.1,0.4-0.1
						c0.5-0.2,1-0.4,1.5-0.6c0.1,0,0.2-0.1,0.3-0.2c0.4-0.2,0.8-0.4,1.2-0.6c0.1-0.1,0.3-0.1,0.4-0.2c0.5-0.3,0.9-0.5,1.3-0.8
						c0.1,0,0.1-0.1,0.2-0.1c0.4-0.2,0.7-0.5,1.1-0.8c0.1-0.1,0.3-0.2,0.4-0.3c0.3-0.2,0.6-0.5,0.9-0.8c0.1-0.1,0.2-0.2,0.3-0.3
						c0.3-0.3,0.7-0.7,1-1c0.1-0.2,0.3-0.3,0.4-0.5c0.2-0.2,0.4-0.5,0.6-0.7c0.1-0.2,0.3-0.3,0.4-0.5c0.3-0.4,0.5-0.7,0.8-1.1
						c0.1-0.2,0.3-0.4,0.4-0.6c0.1-0.2,0.3-0.4,0.4-0.6c0.1-0.2,0.3-0.5,0.4-0.7c0.1-0.2,0.2-0.4,0.3-0.6c0.2-0.4,0.4-0.9,0.6-1.3
						c0.1-0.2,0.1-0.3,0.2-0.5c0.1-0.3,0.2-0.6,0.3-0.9c0-0.1,0.1-0.3,0.1-0.4c0.2-0.6,0.4-1.2,0.6-1.9c0-0.1,0-0.1,0-0.2
						c0.1-0.3,0.2-0.7,0.2-1c0-0.1,0-0.2,0.1-0.3c0.2-1.1,0.3-2.2,0.4-3.3c0-0.1,0-0.1,0-0.2c0-0.7,0-1.3,0-2c0-0.1,0-0.1,0-0.2
						c0-0.4-0.1-0.7-0.1-1.1c0-0.2,0-0.3-0.1-0.5c0-0.1,0-0.1,0-0.2h3.7c4.9,0,8.9,4,8.9,8.9V145.2z"/>
					<g>
						<g>
							<path class="st18" d="M383.9,157.3h-257c-8.2,0-14.9-6.7-14.9-14.9v-25.6c0-8.2,6.7-14.9,14.9-14.9h257
								c8.2,0,14.9,6.7,14.9,14.9v25.6C398.8,150.6,392.1,157.3,383.9,157.3z M126.9,108c-4.9,0-8.9,4-8.9,8.9v25.6
								c0,4.9,4,8.9,8.9,8.9h257c4.9,0,8.9-4,8.9-8.9v-25.6c0-4.9-4-8.9-8.9-8.9H126.9z"/>
							<g>
								<path class="st18" d="M383.9,155.8h-257c-8.2,0-14.9-6.7-14.9-14.9v1.5c0,8.2,6.7,14.9,14.9,14.9h257
									c8.2,0,14.9-6.7,14.9-14.9V141C398.8,149.2,392.1,155.8,383.9,155.8z"/>
							</g>
						</g>
						<g>
							<path class="st18" d="M370.3,92.4c-9.3-6.3-20.6-10.7-33.9-10.7h-14.6c-21.3,0-38.5-17.2-38.5-38.5v-1
								c0-15.4-12.5-27.8-27.8-27.8c-15.4,0-27.8,12.5-27.8,27.8v1c0,21.3-17.2,38.5-38.5,38.5h-14.6c-13.3,0-24.6,4.4-33.9,10.7
								c-18.7,12.6-9.9,41.8,12.6,41.8h102.2h102.2C380.2,134.2,389,105,370.3,92.4z M255.4,56c-8,0-14.5-6.5-14.5-14.5
								c0-8,6.5-14.5,14.5-14.5c8,0,14.5,6.5,14.5,14.5C269.9,49.5,263.4,56,255.4,56z"/>
							<g>
								<path class="st18" d="M357.6,126.1H255.4H153.2c-12.5,0-20.7-8.9-22.5-19c-2.3,12.9,6.7,27,22.5,27h102.2h102.2
									c15.7,0,24.8-14.2,22.5-27C378.3,117.2,370.1,126.1,357.6,126.1z"/>
							</g>
							<path class="st19" d="M255.4,29.7c7.6,0,13.8,5.8,14.5,13.2c0-0.5,0.1-0.9,0.1-1.4c0-8-6.5-14.5-14.5-14.5
								c-8,0-14.5,6.5-14.5,14.5c0,0.5,0,0.9,0.1,1.4C241.6,35.5,247.8,29.7,255.4,29.7z"/>
							<g>
								<path class="st20" d="M140.5,95.1c9.3-6.3,20.6-10.7,33.9-10.7h14.6c21.3,0,38.5-17.2,38.5-38.5v-1
									c0-15.4,12.5-27.8,27.8-27.8c15.4,0,27.8,12.5,27.8,27.8v1c0,21.3,17.2,38.5,38.5,38.5h14.6c13.3,0,24.6,4.4,33.9,10.7
									c6.6,4.4,9.8,10.9,10.1,17.4c0.4-7.4-2.6-15.1-10.1-20.2c-9.3-6.3-20.6-10.7-33.9-10.7h-14.6c-21.3,0-38.5-17.2-38.5-38.5
									v-1c0-15.4-12.5-27.8-27.8-27.8c-15.4,0-27.8,12.5-27.8,27.8v1c0,21.3-17.2,38.5-38.5,38.5h-14.6
									c-13.3,0-24.6,4.4-33.9,10.7c-7.5,5-10.6,12.7-10.1,20.2C130.8,106,133.9,99.6,140.5,95.1z"/>
								<path class="st20" d="M255.4,58.8c8,0,14.5-6.5,14.5-14.5c0-0.5,0-0.9-0.1-1.4C269.2,50.3,263,56,255.4,56
									c-7.6,0-13.8-5.8-14.5-13.2c0,0.5-0.1,0.9-0.1,1.4C240.9,52.3,247.4,58.8,255.4,58.8z"/>
							</g>
						</g>
					</g>
				</g>
				<rect x="109.3" y="252.2" class="st21" width="32.1" height="32.1"/>
				<rect x="109.3" y="316.5" class="st21" width="32.1" height="32.1"/>
				<rect x="109.3" y="380.8" class="st21" width="32.1" height="32.1"/>
				<rect x="109.3" y="445" class="st21" width="32.1" height="32.1"/>
				<rect x="109.3" y="509.3" class="st21" width="32.1" height="32.1"/>
				<rect x="109.3" y="573.6" class="st21" width="32.1" height="32.1"/>
				<g>
					<g>
						<path class="st22" d="M111.8,264c4,5.2,8,10.3,12,15.5c1,1.3,3.4,0.7,4.3-0.3c11.2-11.9,22.3-23.8,33.5-35.7
							c1.8-2-3-3-4.4-1.5c-11.2,11.9-22.3,23.8-33.5,35.7c1.4-0.1,2.9-0.2,4.3-0.3c-4-5.2-8-10.3-12-15.5
							C114.7,260.3,110.1,261.8,111.8,264L111.8,264z"/>
					</g>
				</g>
				<g>
					<g>
						<path class="st22" d="M111.8,330.3c4,5.2,8,10.3,12,15.5c1,1.3,3.4,0.7,4.3-0.3c11.2-11.9,22.3-23.8,33.5-35.7
							c1.8-2-3-3-4.4-1.5c-11.2,11.9-22.3,23.8-33.5,35.7c1.4-0.1,2.9-0.2,4.3-0.3c-4-5.2-8-10.3-12-15.5
							C114.7,326.6,110.1,328.1,111.8,330.3L111.8,330.3z"/>
					</g>
				</g>
				<path class="st14" d="M525.8,648.7c-2.9-12-13.9-57.2-14.5-72.7c-0.6-15.5-2.9-48.3-2.4-54.3c0.5-6,4.2-16.6,8.9-29.1
					c3-8,13-31.9,24.1-55.8l7.8,7.8l1.5,1.5l12.3-12.3l-1.5-1.5l-12.2-12.2c3.5-7.3,7-14.1,10.3-20.1c16-29.3,9-43.6-1.9-52.1
					c-10.9-8.5-16.5-15-25.2-25.5c-8.7-10.4-19.6-23.9-31-36s-14.3-10.9-14.3-10.9s-1.3-1.9-4-5.8c-2.7-3.9-6-7.6-16.3-8.1
					c-10.3-0.5-39-7.3-45.7-9.9c-6.8-2.6-22.5-2.4-22.5-2.4s-2.6-1.1-6.3-2.3c-2.4-0.7-9.1-2.7-14.2-1.4c0,0-0.1,0-0.1,0
					c0,0,0,0,0,0c-0.6,0.1-1.1,0.3-1.6,0.6c-0.2,0.1-0.5,0.2-0.7,0.4l-9.4-9.4l-21.7-13.2l-9.6-5.8l5.8,9.6l13.2,21.7l23,23
					c-0.3,0.8-0.6,1.6-0.7,2.5c-0.1,0.2-0.1,0.5-0.2,0.8c-2.2,0.7-3.8,1.6-4.7,2.9c-2.1,3.1-1.5,8.6,2,13.2
					c-0.3,2.3-0.6,3.8-0.6,3.8s-0.1,0.7-0.5,2c-0.3,1.1-0.8,2.5-1.6,4.3c-1.6,3.9-7.9,9.7-11.2,19c-3.3,9.3,7.6,24.4,14.4,40.9
					c4.4,10.7,9.7,25.8,13.1,39.6l0,0c0,0,0,0,0,0c1.9,7.6,3.1,14.7,3.4,20.5c0,0.9,0.1,1.9,0.2,2.9c1.4,17.1,9.5,46.7,15.7,60.8
					c6.5,14.9,8.4,25.9,12.6,49.8c4.2,23.9,6.7,49.7,6.7,56.5c0,6.8-1.2,65.8-9.9,193.9h147.4c0,0-14.7-50.8-25.8-92.1
					C531.8,671.5,526.8,652.9,525.8,648.7z M425.3,361.7c0,0,0.1,0.1,0.1,0.1c0,0,0,0,0,0C425.3,361.8,425.3,361.8,425.3,361.7z
					 M427.5,364.3c0,0,0.1,0.1,0.1,0.1c0,0,0,0,0,0C427.6,364.4,427.5,364.4,427.5,364.3z M428.5,365.4
					C428.6,365.4,428.6,365.4,428.5,365.4c0.1,0.1,0.1,0.1,0.1,0.1C428.6,365.4,428.6,365.4,428.5,365.4z"/>
				<g>
					<path class="st23" d="M432.7,286.2c8,4.4,22.8,5.3,25,9.5c2.2,4.1,1,7.3,4.6,14.8c2.8,5.7,10,14.2,13.3,17.9
						c2.8-1.4,6.5-2,8.4-2.3c-4.8,0.3-7.3-0.3-12.6-5.7c-5.3-5.5-7.9-15.5-8.2-20.4c-0.3-4.8-6.5-9.2-3.1-13.4
						c3.3-4.1,1.8-2.6-4.6,1.1c-6.5,3.6-17.3-4-23.9-7.9c-6.6-3.9-13.5-8.7-12.6-13.2c0.9-4.5-0.9,5.5-9.9,5.4
						c-1.6,0-3.6-0.2-5.8-0.5c0.1,0.1,0.1,0.1,0.2,0.2c0.8,1.1,1.5,2.2,2.2,3.5c4.6,1.3,8.6,1.9,12.2,2.2
						C423.2,278,424.7,281.9,432.7,286.2z"/>
					<path class="st24" d="M390,286c2.9,0.1,6-8.7,7.2-13.5c3,1.2,5.7,2.1,8.2,2.8c-0.7-1.4-1.6-2.7-2.5-3.9
						c-13.3-1-26.5-0.7-29.6,3.9c-2.4,3.6-1.3,10.6,4,15.4C382,286.5,387.3,285.9,390,286z"/>
					<path class="st25" d="M434.7,366.1c8.4,5.7,16.4,8.5,25.4,8.2c9.1-0.3,18.7-6.5,25.9-6.9"/>
					<path class="st2" d="M382.7,263.5c0.6-0.2,1.2-0.3,1.7-0.4C383.9,263.2,383.3,263.3,382.7,263.5z"/>
					<path class="st2" d="M477.3,330.4c0,0-11.4-12.4-15-19.9c-3.6-7.5-2.4-10.7-4.6-14.8c-2.2-4.1-17-5.1-25-9.5
						c-8-4.4-9.5-8.2-15-8.7c-3.6-0.3-7.6-0.9-12.2-2.2c0.5,0.9,0.9,1.9,1.3,2.9c4.1,11.9,4.6,27.4,4.6,32c0,4.6-1.7,7.8-1.7,7.8
						s4.4,5.3,6.3,16.5c1.9,11.2,9.5,24,15,28.4c5.6,4.4,3.4,4.8,12.8,4.4c9.5-0.5,17-0.7,24-3.9c7-3.2,11.2-6.1,12.1-7.5
						c1-1.5-2.9-12.8-3.4-16.5C476.1,335.7,477.3,330.4,477.3,330.4z"/>
					<path class="st5" d="M546.6,344.7c6.5,9.4,12.6,18.5-5.5,45.8C523,417.7,506.2,495.8,503.6,513c-2.6,17.2-2.1,68.3,2.6,97.4
						c2.2,13.4,20.9,54.5,33,80.1c-6-22.4-11-41-12-45.2c-2.9-12-13.9-57.2-14.5-72.7c-0.6-15.5-2.9-48.3-2.4-54.3
						c0.5-6,4.2-16.6,8.9-29.1c4.7-12.4,26.3-63.3,42.3-92.6c16-29.3,9-43.6-1.9-52.1s-16.5-15-25.2-25.5s-19.6-23.9-31-36
						C492,270.8,489,272,489,272c15.9,20.9,28.8,37.1,34,46.4S540.2,335.3,546.6,344.7z"/>
					<path class="st26" d="M380,242.3C380,242.3,380,242.2,380,242.3C380,242.2,380,242.3,380,242.3z"/>
					<path class="st2" d="M380,242.3c-0.6,0.1-1.1,0.3-1.6,0.6C378.9,242.6,379.4,242.4,380,242.3L380,242.3z"/>
					<path class="st27" d="M377.9,245.9c2.4,0.9,11.5,2.3,22.6,0c0,0-2.6-1.1-6.3-2.3c-2.4-0.7-9.1-2.7-14.2-1.4c0,0-0.1,0-0.1,0
						c-0.6,0.1-1.1,0.3-1.6,0.6C376.8,243.7,376.1,245.3,377.9,245.9z"/>
					<path class="st25" d="M480,355.8c3.5-2.9,12.6-2.1,14.2-8.4"/>
					<path class="st25" d="M477.3,330.4c2.3-2.8,13.6-4.4,17.8-2"/>
					<path class="st25" d="M464.8,279.8c-6.6,9.4-8.7,10.9-7.2,15.8"/>
					<path class="st25" d="M421,260.5c-5,11.8-3.2,16.3-0.6,17.7"/>
					<path class="st24" d="M432.7,286.2c-8-4.4-9.5-8.2-15-8.7c-3.6-0.3-7.6-0.9-12.2-2.2c0.5,0.9,0.9,1.9,1.3,2.9
						c1.8,5.3,3,11.4,3.6,16.8c3.4-0.3,5.9-0.4,7.5,0.6c3.8,2.4,25.3,6.3,41.4,5.3c-0.3-1.9-0.7-3.5-1.6-5.3
						C455.5,291.6,440.7,290.6,432.7,286.2z"/>
					<path class="st24" d="M418.7,344c3.2,8.1,8.2,15.7,12.2,18.8c4.6,3.6,3.9,4.6,8.9,4.5c2.4-4,2.9-7.5,2.9-7.5s7.2-0.5,14.1-4
						c6.9-3.6,11-12,11-12s1.8,2.7,5.3,5.2c2.1,1.4,4.1,3.6,6.8,5.6c-0.2-3.4-3.1-12.2-3.5-15.3c-0.5-3.6,0.7-9,0.7-9
						s-11.4-12.4-15-19.9C457.1,311.8,431.6,321.5,418.7,344z"/>
					<path class="st28" d="M432.9,346.7c-5.2-3,0,0,4.9,6.1c3.8,4.7,3,10.9,0.8,14.6c0.4,0,0.8,0,1.2,0c2.4-4,2.9-7.5,2.9-7.5
						C442.9,354.1,438.4,349.9,432.9,346.7z"/>
					<path class="st28" d="M466.9,338.9c-0.3,2.7-0.9,6.2-1.8,9.5c1.8-2.5,2.8-4.6,2.8-4.6s0.6,1,1.9,2.2l0,0
						c-0.7-2.4-1.8-14.4-2.9-18.9C465.8,322.6,467.4,334.3,466.9,338.9z"/>
					<path class="st4" d="M565.1,786c0,0-14.7-54.2-25.8-95.5c-12.1-25.6-30.9-66.7-33-80.1c-4.7-29.1-5.2-80.2-2.6-97.4
						c2.6-17.2,19.4-95.3,37.5-122.6c18.1-27.3,12-36.4,5.5-45.8c-6.5-9.4-18.4-16.8-23.6-26.2s-18.1-25.5-34-46.4
						c0,0-1.3-1.9-4-5.8c-2.7-3.9-6-7.6-16.3-8.1c-10.3-0.5-39-7.3-45.7-9.9c-6.8-2.6-22.5-2.4-22.5-2.4c-11.2,2.3-20.3,0.9-22.6,0
						c-1.8-0.7-1.1-2.2,0.5-3.1c-1.9,0.8-3.4,2.3-4,4.7c-2.4,8.9,8.4,16,8.4,16c0.5-0.2,1.1-0.3,1.7-0.4c0,0,0,0,0,0l0,0
						c0.4-0.1,0.9-0.1,1.4-0.1c0.1,0,0.2,0,0.2,0c0.4,0,0.9,0,1.3,0c0,0,0.1,0,0.1,0c0.2,0,0.4,0,0.5,0c0.1,0,0.1,0,0.2,0
						c0.4,0,0.7,0.1,1.1,0.1c0.1,0,0.2,0,0.3,0.1c0.3,0.1,0.7,0.1,1,0.2c0.1,0,0.2,0.1,0.3,0.1c1.2,0.3,2.5,0.7,3.7,1.3c0,0,0,0,0,0
						l0,0l0,0l0,0c4,1.4,5.8,4.6,10.8,10.5c4.6,1.3,8.6,1.9,12.2,2.2c5.6,0.5,7,4.4,15,8.7c8,4.4,22.8,5.3,25,9.5
						c2.2,4.1,1,7.3,4.6,14.8c3.6,7.5,15,19.9,15,19.9s-1.2,5.3-0.7,9c0.5,3.6,4.4,15,3.4,16.5c-1,1.5-5.1,4.4-12.1,7.5
						c-7,3.2-14.5,3.4-24,3.9c-9.5,0.5-7.3,0-12.8-4.4c-2.7-2.1-5.8-6.2-8.6-11.1c3.7,7.7,20,33.3,38.6,50.7
						c18.6,17.5,26.5,48,19.1,76.1c-7.4,28.1-46.9,31.5-64.9,6.8c-13-18-18.9-41.8-22.6-63.7c1.4,17.1,9.5,46.7,15.7,60.8
						c6.5,14.9,8.4,25.9,12.6,49.8c4.2,23.9,6.7,49.7,6.7,56.5s-1.2,69.2-9.9,197.3H565.1z"/>
					<g>
						<path class="st29" d="M467.9,343.9c0,0-4,8.4-11,12c-7,3.6-14.1,4-14.1,4s-0.5,3.5-2.9,7.5c1,0,2.3-0.1,4-0.1
							c9.5-0.5,17-0.7,24-3.9c7-3.2,11.2-6.1,12.1-7.5c0.1-0.2,0.2-0.6,0.1-1.2c-2.7-2-4.7-4.2-6.8-5.6
							C469.7,346.6,467.9,343.9,467.9,343.9z"/>
						<path class="st29" d="M434,365.4c1.3,1.1,2,1.7,3.6,1.9C435.9,367.1,435.2,366.5,434,365.4C434,365.4,434,365.4,434,365.4z"/>
						<path class="st29" d="M479.8,352.6c-0.5-2.3-1.3-5.5-2.1-8.3C478.4,347,479.3,350.2,479.8,352.6z"/>
					</g>
					<g>
						
							<rect x="451" y="199.6" transform="matrix(0.7071 -0.7071 0.7071 0.7071 -104.0106 423.8882)" class="st30" width="17.4" height="275.8"/>
						
							<rect x="452.2" y="202.7" transform="matrix(0.7071 -0.7071 0.7071 0.7071 -107.0917 422.6141)" class="st31" width="8.7" height="275.8"/>
						<polygon class="st32" points="356,246.1 368.3,233.8 346.6,220.6 342.8,224.4 						"/>
						<polygon class="st33" points="342.8,224.4 346.6,220.6 337,214.8 						"/>
						
							<rect x="549.2" y="434.7" transform="matrix(0.7071 -0.7071 0.7071 0.7071 -144.7209 522.1721)" class="st33" width="17.4" height="2.1"/>
					</g>
					<path class="st27" d="M394.6,264.8C394.6,264.8,394.6,264.8,394.6,264.8c-1.2-0.6-2.5-1-3.7-1.3c-0.1,0-0.2-0.1-0.3-0.1
						c-0.3-0.1-0.7-0.1-1-0.2c-0.1,0-0.2,0-0.3-0.1c-0.4-0.1-0.7-0.1-1.1-0.1c-0.1,0-0.1,0-0.2,0c-1.2-0.1-2.4,0-3.5,0.1l0,0
						c-0.6,0.1-1.1,0.2-1.7,0.4c0,0-3.4,2.7-4.5,8.1c-1.1,5.3-3.4,20.7-3.4,20.7s-0.1,0.7-0.5,2c5.1-7.5,12.3-8.4,15.7-8.3
						c2.9,0.1,6-8.7,7.2-13.5c0.2-0.9,0.4-1.7,0.5-2.2C398.1,268.7,397,266.4,394.6,264.8z"/>
					<path class="st7" d="M480.1,478.5c7.4-28.1-0.5-58.6-19.1-76.1c-18.6-17.5-35-43-38.6-50.7c-2.9-5.3-5.4-11.5-6.4-17.2
						c-1.9-11.2-6.3-16.5-6.3-16.5s1.7-3.2,1.7-7.8c0-4.6-0.5-20.1-4.6-32c-0.4-1-0.8-2-1.3-2.9c-5-5.9-6.8-9.2-10.8-10.5
						c0.3,0.2,0.6,0.4,0.8,0.6c0.3,0.2,0.5,0.5,0.7,0.7c0.4,0.5,0.8,1,1,1.5c0.3,0.5,0.4,1,0.5,1.5c0.1,0.5,0.1,0.9,0,1.3
						c-0.1,0.5-0.3,1.3-0.5,2.2c-1.3,4.8-4.4,13.6-7.2,13.5c-3.4-0.2-10.7,0.8-15.7,8.3c-0.3,1.1-0.8,2.5-1.6,4.3
						c-1.6,3.9-7.9,9.7-11.2,19c-3.3,9.3,7.6,24.4,14.4,40.9c4.4,10.7,9.7,25.8,13.1,39.6l0,0c0,0,0,0,0,0
						c1.9,7.6,3.1,14.7,3.4,20.5c0,0.9,0.1,1.9,0.2,2.9c3.7,21.9,9.6,45.7,22.6,63.7C433.2,510,472.8,506.7,480.1,478.5z"/>
				</g>
			</g>
		</g>
		<polygon class="st8" points="563.6,786 540.5,549.2 410.5,565 407.4,786 		"/>
		<polygon class="st9" points="531.8,528.2 416,528.2 414.6,564.5 534.7,550 		"/>
		<g>
			<circle class="st10" cx="430.8" cy="546.1" r="9.9"/>
			<g>
				<circle class="st9" cx="430.8" cy="542.6" r="1.5"/>
				<circle class="st9" cx="427.3" cy="546.1" r="1.5"/>
				<path class="st9" d="M429.4,549.6c0-0.8,0.7-1.5,1.5-1.5c0.8,0,1.5,0.7,1.5,1.5c0,0.8-0.7,1.5-1.5,1.5
					C430,551.1,429.4,550.4,429.4,549.6z"/>
				<path class="st9" d="M434.4,547.6c-0.8,0-1.5-0.7-1.5-1.5c0-0.8,0.7-1.5,1.5-1.5c0.8,0,1.5,0.7,1.5,1.5
					C435.8,546.9,435.2,547.6,434.4,547.6z"/>
			</g>
		</g>
	</g>
</g>
<g id="Designed_by_Freepik">
</g>
</svg>
