<svg id="Layer_1" data-name="Layer 1" xmlns="http://www.w3.org/2000/svg" viewBox="0 0 141.63 604.62"><defs><style>.cls-1{fill:#676868;}.cls-2{fill:#f16d68;}.cls-3{fill:#fff;}.cls-3,.cls-6,.cls-7,.cls-8{stroke:#676868;}.cls-3,.cls-6{stroke-miterlimit:10;stroke-width:2.38px;}.cls-4{opacity:0.97;}.cls-5{fill:#f3f3f3;}.cls-6,.cls-7,.cls-8{fill:none;}.cls-7,.cls-8{stroke-linecap:round;stroke-linejoin:round;}.cls-7{stroke-width:3.57px;}.cls-8{stroke-width:5.95px;}.cls-9{fill:#4e4f4f;}.cls-10{fill:#e2e2e2;}.cls-11{fill:#f0efef;}.cls-12{fill:#f2d8ba;}.cls-13{fill:#faaf3a;}.cls-14{fill:#f69322;}</style></defs><title>rules_left</title><circle class="cls-1" cx="271.47" cy="148.37" r="7.43" transform="translate(-152.91 263.93) rotate(-79.1)"/><circle class="cls-1" cx="338.37" cy="161.25" r="7.43" transform="translate(-111.34 340.04) rotate(-79.09)"/><circle class="cls-2" cx="295.32" cy="204.71" r="58.99" transform="translate(-188.9 333.02) rotate(-79.1)"/><circle class="cls-3" cx="295.32" cy="204.7" r="49.03" transform="translate(-188.89 333.02) rotate(-79.1)"/><g class="cls-4"><path class="cls-2" d="M344.17,171.63l-97.7,66.15a59,59,0,1,0,97.7-66.15Z" transform="translate(-227.37 -122.97)"/></g><path class="cls-5" d="M254.69,232.09a49.27,49.27,0,0,0,68.24,13.34c22.42-15.18,28.05-46,12.87-68.44C335.81,177,254.66,232,254.69,232.09Z" transform="translate(-227.37 -122.97)"/><circle class="cls-1" cx="295.32" cy="204.71" r="7.22" transform="translate(-188.9 333.02) rotate(-79.1)"/><circle class="cls-6" cx="295.32" cy="204.7" r="49.03" transform="translate(-188.89 333.02) rotate(-79.1)"/><path class="cls-2" d="M261.38,126.11c16.06-6.21,32.3-2.93,36.27,7.33l-58.16,22.5C235.52,145.68,245.32,132.32,261.38,126.11Z" transform="translate(-227.37 -122.97)"/><path class="cls-1" d="M238.84,158.56a2.2,2.2,0,0,0,2.85,1.26l56.94-22a2.2,2.2,0,0,0,1.26-2.85h0a2.2,2.2,0,0,0-2.85-1.26l-56.94,22a2.2,2.2,0,0,0-1.26,2.85Z" transform="translate(-227.37 -122.97)"/><path class="cls-2" d="M356,144.33c-12.61-11.73-28.91-14.71-36.4-6.66l45.65,42.48C372.76,172.1,368.62,156.06,356,144.33Z" transform="translate(-227.37 -122.97)"/><path class="cls-1" d="M364.89,182.83a2.2,2.2,0,0,1-3.11.11l-44.69-41.6a2.2,2.2,0,0,1-.11-3.11h0a2.2,2.2,0,0,1,3.11-.12l44.69,41.6a2.2,2.2,0,0,1,.11,3.11Z" transform="translate(-227.37 -122.97)"/><circle class="cls-1" cx="302.79" cy="165.91" r="2.68" transform="translate(-144.74 308.89) rotate(-79.1)"/><circle class="cls-1" cx="273.16" cy="171.99" r="2.68" transform="translate(-276.82 59.8) rotate(-34.11)"/><circle class="cls-1" cx="256.52" cy="197.23" r="2.68" transform="translate(-213.12 288.75) rotate(-79.08)"/><circle class="cls-1" cx="262.6" cy="226.86" r="2.68" transform="translate(-309.38 63.1) rotate(-34.07)"/><circle class="cls-1" cx="287.84" cy="243.51" r="2.68" transform="translate(-233.06 357.15) rotate(-79.1)"/><circle class="cls-1" cx="317.47" cy="237.43" r="2.68" transform="matrix(0.83, -0.56, 0.56, 0.83, -305.88, 95.73)"/><circle class="cls-1" cx="334.12" cy="212.18" r="2.68" transform="translate(-164.91 377.05) rotate(-79.07)"/><circle class="cls-1" cx="328.04" cy="182.55" r="2.68" transform="translate(-273.33 92.11) rotate(-34.07)"/><polyline class="cls-7" points="57.48 41 67.95 81.73 38.52 86.84"/><line class="cls-8" x1="31.02" y1="125.77" x2="16.76" y2="138.61"/><line class="cls-8" x1="85.89" y1="136.33" x2="94.36" y2="153.56"/><path class="cls-9" d="M313.46,518.71c-.86,2.8-4.29,3.5-7.1,2.65l-74.42-22.73c-2.8-.86-5.26-3.36-4.4-6.16l31.2-102.13,85.91,26.24Z" transform="translate(-227.37 -122.97)"/><path class="cls-10" d="M315.27,512.75a6.62,6.62,0,0,1-7.51,4L233.34,494a6.63,6.63,0,0,1-4-7.53l29.73-97.32L345,415.43Z" transform="translate(-227.37 -122.97)"/><path class="cls-11" d="M315.27,512.75a6.62,6.62,0,0,1-7.51,4l-62.52-19.1,99.82-82.44Z" transform="translate(-227.37 -122.97)"/><path class="cls-1" d="M269.54,398.74a2.66,2.66,0,0,1-3.31,1.76h0a2.66,2.66,0,0,1-1.76-3.31l4.16-13.63a2.65,2.65,0,0,1,3.32-1.76h0a2.66,2.66,0,0,1,1.76,3.31Z" transform="translate(-227.37 -122.97)"/><path class="cls-1" d="M280.63,402.12a2.66,2.66,0,0,1-3.31,1.77h0a2.65,2.65,0,0,1-1.76-3.31l4.16-13.63a2.66,2.66,0,0,1,3.31-1.76h0a2.66,2.66,0,0,1,1.76,3.31Z" transform="translate(-227.37 -122.97)"/><path class="cls-1" d="M291.72,405.51a2.65,2.65,0,0,1-3.31,1.76h0a2.66,2.66,0,0,1-1.76-3.31l4.16-13.63a2.65,2.65,0,0,1,3.31-1.76h0a2.65,2.65,0,0,1,1.77,3.31Z" transform="translate(-227.37 -122.97)"/><path class="cls-1" d="M302.81,408.9a2.66,2.66,0,0,1-3.31,1.76h0a2.66,2.66,0,0,1-1.76-3.31l4.16-13.63a2.66,2.66,0,0,1,3.32-1.76h0a2.66,2.66,0,0,1,1.76,3.32Z" transform="translate(-227.37 -122.97)"/><path class="cls-1" d="M313.89,412.28a2.66,2.66,0,0,1-3.31,1.76h0a2.66,2.66,0,0,1-1.77-3.32L313,397.11a2.66,2.66,0,0,1,3.31-1.76h0a2.65,2.65,0,0,1,1.76,3.31Z" transform="translate(-227.37 -122.97)"/><path class="cls-1" d="M325,415.67a2.65,2.65,0,0,1-3.31,1.76h0a2.65,2.65,0,0,1-1.76-3.31l4.16-13.63a2.66,2.66,0,0,1,3.31-1.76h0a2.66,2.66,0,0,1,1.76,3.31Z" transform="translate(-227.37 -122.97)"/><path class="cls-1" d="M336.07,419.06a2.66,2.66,0,0,1-3.32,1.76h0a2.66,2.66,0,0,1-1.76-3.31l4.16-13.63a2.65,2.65,0,0,1,3.31-1.76h0a2.66,2.66,0,0,1,1.77,3.31Z" transform="translate(-227.37 -122.97)"/><polygon class="cls-9" points="47.28 307.01 12.27 296.23 16.53 277.88 52.81 289.06 47.28 307.01"/><polygon class="cls-12" points="37.69 581.65 38.11 583.4 47.66 604.62 46.44 581.41 46.02 579.66 37.69 581.65"/><polygon class="cls-13" points="45.63 600.11 47.66 604.62 47.4 599.69 45.63 600.11"/><path class="cls-13" d="M240.21,600.78l1.07,4.45h0l24.2,101.15s-.27-1.11,3.88-2.1,4.45.11,4.45.11L249.34,602.12h0l-.53-2.22h0l-.26-1.1a4.29,4.29,0,1,0-8.34,2Z" transform="translate(-227.37 -122.97)"/><path class="cls-14" d="M265.47,706.37s-.27-1.11,3.88-2.1h0L243.35,595.62a4.28,4.28,0,0,0-3.14,5.16l1.06,4.45h0Z" transform="translate(-227.37 -122.97)"/></svg>