<!--?xml version="1.0" encoding="utf-8"?-->
<!-- Generator: Adobe Illustrator 22.0.1, SVG Export Plug-In . SVG Version: 6.00 Build 0)  -->
<svg version="1.1" id="Layer_1" xmlns="http://www.w3.org/2000/svg" xmlns:xlink="http://www.w3.org/1999/xlink" x="0px" y="0px" viewBox="0 0 141.6 604.6" style="" xml:space="preserve">
<style type="text/css">
	.st0{fill:#676868;}
	.st1{fill:#F16D68;}
	.st2{fill:#FFFFFF;stroke:#676868;stroke-width:2.38;stroke-miterlimit:10;}
	.st3{opacity:0.97;}
	.st4{fill:#F3F3F3;}
	.st5{fill:none;stroke:#676868;stroke-width:2.38;stroke-miterlimit:10;}
	.st6{fill:none;stroke:#676868;stroke-width:5.95;stroke-linecap:round;stroke-linejoin:round;}
	.st7{fill:#4E4F4F;}
	.st8{fill:#E2E2E2;}
	.st9{fill:#F0EFEF;}
	.st10{fill:none;stroke:#676868;stroke-width:3;stroke-miterlimit:10;}
	.st11{fill:#F2D8BA;}
	.st12{fill:#FAAF3A;}
	.st13{fill:#F69322;}
</style>
<title>rules_left</title>
<path class="st0 wkoEYZGW_0" d="M36.7,25.4A7.4,7.4 0,1,1 51.5,25.4A7.4,7.4 0,1,1 36.7,25.4"></path>
<path class="st0 wkoEYZGW_1" d="M103.6,38.3A7.4,7.4 0,1,1 118.4,38.3A7.4,7.4 0,1,1 103.6,38.3"></path>
<path transform="matrix(0.7071 -0.7071 0.7071 0.7071 -37.8921 71.9957)" class="st1 wkoEYZGW_2" d="M9,81.7A59,59 0,1,1 127,81.7A59,59 0,1,1 9,81.7"></path>
<path class="st2 wkoEYZGW_3" d="M19,81.7A49,49 0,1,1 117,81.7A49,49 0,1,1 19,81.7"></path>
<g class="st3">
	<path class="st1 wkoEYZGW_4" d="M116.8,48.7l-97.7,66.1c17.9,27.2,54.5,34.8,81.7,17s34.8-54.5,17-81.7C117.4,49.6,117.1,49.1,116.8,48.7z"></path>
</g>
<path class="st4 wkoEYZGW_5" d="M27.3,109.1c15.2,22.5,45.7,28.4,68.2,13.3c22.4-15.2,28-46,12.9-68.4C108.4,54,27.3,109,27.3,109.1z"></path>
<path class="st0 wkoEYZGW_6" d="M60.8,81.7A7.2,7.2 0,1,1 75.2,81.7A7.2,7.2 0,1,1 60.8,81.7"></path>
<path class="st5 wkoEYZGW_7" d="M19,81.7A49,49 0,1,1 117,81.7A49,49 0,1,1 19,81.7"></path>
<path class="st1 wkoEYZGW_8" d="M34,3.1c16.1-6.2,32.3-2.9,36.3,7.3L12.1,33C8.2,22.7,18,9.4,34,3.1z"></path>
<path class="st0 wkoEYZGW_9" d="M11.5,35.6c0.4,1.1,1.7,1.7,2.8,1.3c0,0,0,0,0,0l56.9-22c1.1-0.4,1.7-1.7,1.3-2.8c0,0,0,0,0,0l0,0
	c-0.4-1.1-1.7-1.7-2.8-1.3c0,0,0,0,0,0l-56.9,22C11.6,33.2,11,34.4,11.5,35.6C11.5,35.6,11.5,35.6,11.5,35.6L11.5,35.6z"></path>
<path class="st1 wkoEYZGW_10" d="M128.6,21.4C116,9.6,99.7,6.6,92.2,14.7l45.6,42.5C145.4,49.1,141.3,33.1,128.6,21.4z"></path>
<path class="st0 wkoEYZGW_11" d="M137.5,59.9c-0.8,0.9-2.2,0.9-3.1,0.1c0,0,0,0,0,0L89.7,18.4c-0.9-0.8-0.9-2.2-0.1-3.1c0,0,0,0,0,0l0,0
	c0.8-0.9,2.2-0.9,3.1-0.1c0,0,0,0,0,0l44.7,41.6C138.3,57.6,138.3,59,137.5,59.9C137.5,59.8,137.5,59.8,137.5,59.9L137.5,59.9z"></path>
<path class="st0 wkoEYZGW_12" d="M72.7,42.9A2.7,2.7 0,1,1 78.10000000000001,42.9A2.7,2.7 0,1,1 72.7,42.9"></path>
<path class="st0 wkoEYZGW_13" d="M43.099999999999994,49A2.7,2.7 0,1,1 48.5,49A2.7,2.7 0,1,1 43.099999999999994,49"></path>
<path class="st0 wkoEYZGW_14" d="M26.400000000000002,74.2A2.7,2.7 0,1,1 31.8,74.2A2.7,2.7 0,1,1 26.400000000000002,74.2"></path>
<path class="st0 wkoEYZGW_15" d="M32.5,103.9A2.7,2.7 0,1,1 37.900000000000006,103.9A2.7,2.7 0,1,1 32.5,103.9"></path>
<path class="st0 wkoEYZGW_16" d="M57.8,120.5A2.7,2.7 0,1,1 63.2,120.5A2.7,2.7 0,1,1 57.8,120.5"></path>
<path class="st0 wkoEYZGW_17" d="M87.89999999999999,115A2.7,2.7 0,1,1 93.3,115A2.7,2.7 0,1,1 87.89999999999999,115"></path>
<path class="st0 wkoEYZGW_18" d="M104.1,89.2A2.7,2.7 0,1,1 109.5,89.2A2.7,2.7 0,1,1 104.1,89.2"></path>
<path class="st0 wkoEYZGW_19" d="M98,59.6A2.7,2.7 0,1,1 103.4,59.6A2.7,2.7 0,1,1 98,59.6"></path>
<path class="st6 wkoEYZGW_20" d="M31,125.8L16.8,138.6"></path>
<path class="st6 wkoEYZGW_21" d="M85.9,136.3L94.4,153.6"></path>
<path class="st7 wkoEYZGW_22" d="M86.1,395.7c-0.9,2.8-4.3,3.5-7.1,2.7L4.6,375.7c-2.8-0.9-5.3-3.4-4.4-6.2l31.2-102.1l85.9,26.2L86.1,395.7z"></path>
<path class="st8 wkoEYZGW_23" d="M87.9,389.8c-1.2,3-4.4,4.7-7.5,4L6,371c-3-1.2-4.7-4.4-4-7.5l29.7-97.3l85.9,26.3L87.9,389.8z"></path>
<path class="st9 wkoEYZGW_24" d="M87.9,389.8c-1.2,3-4.4,4.7-7.5,4l-62.5-19.1l99.8-82.4L87.9,389.8z"></path>
<path class="st10 wkoEYZGW_25" d="M42.2,275.8c-0.4,1.4-1.9,2.2-3.3,1.8l0,0c-1.4-0.4-2.2-1.9-1.8-3.3l4.2-13.6c0.4-1.4,1.9-2.2,3.3-1.8
	c0,0,0,0,0,0l0,0c1.4,0.4,2.2,1.9,1.8,3.3L42.2,275.8z"></path>
<path class="st10 wkoEYZGW_26" d="M53.3,279.1c-0.4,1.4-1.9,2.2-3.3,1.8l0,0c-1.4-0.4-2.2-1.9-1.8-3.3c0,0,0,0,0,0l4.2-13.6
	c0.4-1.4,1.9-2.2,3.3-1.8l0,0c1.4,0.4,2.2,1.9,1.8,3.3L53.3,279.1z"></path>
<path class="st10 wkoEYZGW_27" d="M64.4,282.5c-0.4,1.4-1.9,2.2-3.3,1.8c0,0,0,0,0,0l0,0c-1.4-0.4-2.2-1.9-1.8-3.3l4.2-13.6
	c0.4-1.4,1.9-2.2,3.3-1.8c0,0,0,0,0,0l0,0c1.4,0.4,2.2,1.9,1.8,3.3c0,0,0,0,0,0L64.4,282.5z"></path>
<path class="st10 wkoEYZGW_28" d="M75.4,285.9c-0.4,1.4-1.9,2.2-3.3,1.8l0,0c-1.4-0.4-2.2-1.9-1.8-3.3l4.2-13.6c0.4-1.4,1.9-2.2,3.3-1.8l0,0
	c1.4,0.4,2.2,1.9,1.8,3.3L75.4,285.9z"></path>
<path class="st10 wkoEYZGW_29" d="M86.5,289.3c-0.4,1.4-1.9,2.2-3.3,1.8l0,0c-1.4-0.4-2.2-1.9-1.8-3.3c0,0,0,0,0,0l4.2-13.6
	c0.4-1.4,1.9-2.2,3.3-1.8l0,0c1.4,0.4,2.2,1.9,1.8,3.3c0,0,0,0,0,0L86.5,289.3z"></path>
<path class="st10 wkoEYZGW_30" d="M97.6,292.7c-0.4,1.4-1.9,2.2-3.3,1.8c0,0,0,0,0,0l0,0c-1.4-0.4-2.2-1.9-1.8-3.3c0,0,0,0,0,0l4.2-13.6
	c0.4-1.4,1.9-2.2,3.3-1.8l0,0c1.4,0.4,2.2,1.9,1.8,3.3L97.6,292.7z"></path>
<path class="st10 wkoEYZGW_31" d="M108.7,296.1c-0.4,1.4-1.9,2.2-3.3,1.8l0,0c-1.4-0.4-2.2-1.9-1.8-3.3l4.2-13.6c0.4-1.4,1.9-2.2,3.3-1.8
	c0,0,0,0,0,0l0,0c1.4,0.4,2.2,1.9,1.8,3.3L108.7,296.1z"></path>
<path class="st7 wkoEYZGW_32" d="M47.3,307L12.3,296.2L16.5,277.9L52.8,289.1Z"></path>
<path class="pencil st11 wkoEYZGW_33" d="M37.7,545.7L38.1,547.4L47.7,568.6L46.4,545.4L46,543.7Z"></path>
<path class="pencil st12 wkoEYZGW_34" d="M45.6,564.1L47.7,568.6L47.4,563.7Z"></path>
<path class="pencil st12 wkoEYZGW_35" d="M12.8,441.8l1.1,4.5l0,0l24.2,101.1c0,0-0.3-1.1,3.9-2.1s4.5,0.1,4.5,0.1L22,443.1l0,0l-0.5-2.2l0,0l-0.3-1.1
	c-0.5-2.3-2.8-3.8-5.1-3.3s-3.8,2.8-3.3,5.1C12.8,441.7,12.8,441.8,12.8,441.8L12.8,441.8z"></path>
<path class="pencil st13 wkoEYZGW_36" d="M38.1,547.4c0,0-0.3-1.1,3.9-2.1l0,0L16,436.6c-2.3,0.6-3.7,2.9-3.1,5.2l1.1,4.5l0,0L38.1,547.4z"></path>
<path class="st0 wkoEYZGW_37" d="M66.3,82.4c0.1,0.3,0.4,0.4,0.7,0.3c0.1-0.1,0.5-0.2,0.8-0.2c0.2-0.1,0.4-0.2,0.3-0.4L58.1,42.3
	c-0.3-1-2.1-0.7-1.9,0.3c0,0,0,0,0,0l0.4,1.7l0,0L66.3,82.4z"></path>
<path class="st0 wkoEYZGW_38" d="M67.6,82.9c0.2,0,0.4-0.2,0.4-0.4c0-0.1,0-0.4,0-0.6c0-0.2-0.1-0.3-0.2-0.3l-29.6-2.4c-0.8-0.1-1,1.3-0.2,1.4
	c0,0,0,0,0,0l1.3,0.1l0,0L67.6,82.9z"></path>
<style data-made-with="vivus-instant">.wkoEYZGW_0{stroke-dasharray:47 49;stroke-dashoffset:48;animation:wkoEYZGW_draw_0 6700ms linear 0ms infinite,wkoEYZGW_fade 6700ms linear 0ms infinite;}.wkoEYZGW_1{stroke-dasharray:47 49;stroke-dashoffset:48;animation:wkoEYZGW_draw_1 6700ms linear 0ms infinite,wkoEYZGW_fade 6700ms linear 0ms infinite;}.wkoEYZGW_2{stroke-dasharray:371 373;stroke-dashoffset:372;animation:wkoEYZGW_draw_2 6700ms linear 0ms infinite,wkoEYZGW_fade 6700ms linear 0ms infinite;}.wkoEYZGW_3{stroke-dasharray:308 310;stroke-dashoffset:309;animation:wkoEYZGW_draw_3 6700ms linear 0ms infinite,wkoEYZGW_fade 6700ms linear 0ms infinite;}.wkoEYZGW_4{stroke-dasharray:306 308;stroke-dashoffset:307;animation:wkoEYZGW_draw_4 6700ms linear 0ms infinite,wkoEYZGW_fade 6700ms linear 0ms infinite;}.wkoEYZGW_5{stroke-dasharray:253 255;stroke-dashoffset:254;animation:wkoEYZGW_draw_5 6700ms linear 0ms infinite,wkoEYZGW_fade 6700ms linear 0ms infinite;}.wkoEYZGW_6{stroke-dasharray:46 48;stroke-dashoffset:47;animation:wkoEYZGW_draw_6 6700ms linear 0ms infinite,wkoEYZGW_fade 6700ms linear 0ms infinite;}.wkoEYZGW_7{stroke-dasharray:308 310;stroke-dashoffset:309;animation:wkoEYZGW_draw_7 6700ms linear 0ms infinite,wkoEYZGW_fade 6700ms linear 0ms infinite;}.wkoEYZGW_8{stroke-dasharray:144 146;stroke-dashoffset:145;animation:wkoEYZGW_draw_8 6700ms linear 0ms infinite,wkoEYZGW_fade 6700ms linear 0ms infinite;}.wkoEYZGW_9{stroke-dasharray:136 138;stroke-dashoffset:137;animation:wkoEYZGW_draw_9 6700ms linear 0ms infinite,wkoEYZGW_fade 6700ms linear 0ms infinite;}.wkoEYZGW_10{stroke-dasharray:144 146;stroke-dashoffset:145;animation:wkoEYZGW_draw_10 6700ms linear 0ms infinite,wkoEYZGW_fade 6700ms linear 0ms infinite;}.wkoEYZGW_11{stroke-dasharray:137 139;stroke-dashoffset:138;animation:wkoEYZGW_draw_11 6700ms linear 0ms infinite,wkoEYZGW_fade 6700ms linear 0ms infinite;}.wkoEYZGW_12{stroke-dasharray:17 19;stroke-dashoffset:18;animation:wkoEYZGW_draw_12 6700ms linear 0ms infinite,wkoEYZGW_fade 6700ms linear 0ms infinite;}.wkoEYZGW_13{stroke-dasharray:17 19;stroke-dashoffset:18;animation:wkoEYZGW_draw_13 6700ms linear 0ms infinite,wkoEYZGW_fade 6700ms linear 0ms infinite;}.wkoEYZGW_14{stroke-dasharray:17 19;stroke-dashoffset:18;animation:wkoEYZGW_draw_14 6700ms linear 0ms infinite,wkoEYZGW_fade 6700ms linear 0ms infinite;}.wkoEYZGW_15{stroke-dasharray:17 19;stroke-dashoffset:18;animation:wkoEYZGW_draw_15 6700ms linear 0ms infinite,wkoEYZGW_fade 6700ms linear 0ms infinite;}.wkoEYZGW_16{stroke-dasharray:17 19;stroke-dashoffset:18;animation:wkoEYZGW_draw_16 6700ms linear 0ms infinite,wkoEYZGW_fade 6700ms linear 0ms infinite;}.wkoEYZGW_17{stroke-dasharray:17 19;stroke-dashoffset:18;animation:wkoEYZGW_draw_17 6700ms linear 0ms infinite,wkoEYZGW_fade 6700ms linear 0ms infinite;}.wkoEYZGW_18{stroke-dasharray:17 19;stroke-dashoffset:18;animation:wkoEYZGW_draw_18 6700ms linear 0ms infinite,wkoEYZGW_fade 6700ms linear 0ms infinite;}.wkoEYZGW_19{stroke-dasharray:17 19;stroke-dashoffset:18;animation:wkoEYZGW_draw_19 6700ms linear 0ms infinite,wkoEYZGW_fade 6700ms linear 0ms infinite;}.wkoEYZGW_20{stroke-dasharray:20 22;stroke-dashoffset:21;animation:wkoEYZGW_draw_20 6700ms linear 0ms infinite,wkoEYZGW_fade 6700ms linear 0ms infinite;}.wkoEYZGW_21{stroke-dasharray:20 22;stroke-dashoffset:21;animation:wkoEYZGW_draw_21 6700ms linear 0ms infinite,wkoEYZGW_fade 6700ms linear 0ms infinite;}.wkoEYZGW_22{stroke-dasharray:398 400;stroke-dashoffset:399;animation:wkoEYZGW_draw_22 6700ms linear 0ms infinite,wkoEYZGW_fade 6700ms linear 0ms infinite;}.wkoEYZGW_23{stroke-dasharray:390 392;stroke-dashoffset:391;animation:wkoEYZGW_draw_23 6700ms linear 0ms infinite,wkoEYZGW_fade 6700ms linear 0ms infinite;}.wkoEYZGW_24{stroke-dasharray:306 308;stroke-dashoffset:307;animation:wkoEYZGW_draw_24 6700ms linear 0ms infinite,wkoEYZGW_fade 6700ms linear 0ms infinite;}.wkoEYZGW_25{stroke-dasharray:46 48;stroke-dashoffset:47;animation:wkoEYZGW_draw_25 6700ms linear 0ms infinite,wkoEYZGW_fade 6700ms linear 0ms infinite;}.wkoEYZGW_26{stroke-dasharray:46 48;stroke-dashoffset:47;animation:wkoEYZGW_draw_26 6700ms linear 0ms infinite,wkoEYZGW_fade 6700ms linear 0ms infinite;}.wkoEYZGW_27{stroke-dasharray:46 48;stroke-dashoffset:47;animation:wkoEYZGW_draw_27 6700ms linear 0ms infinite,wkoEYZGW_fade 6700ms linear 0ms infinite;}.wkoEYZGW_28{stroke-dasharray:46 48;stroke-dashoffset:47;animation:wkoEYZGW_draw_28 6700ms linear 0ms infinite,wkoEYZGW_fade 6700ms linear 0ms infinite;}.wkoEYZGW_29{stroke-dasharray:46 48;stroke-dashoffset:47;animation:wkoEYZGW_draw_29 6700ms linear 0ms infinite,wkoEYZGW_fade 6700ms linear 0ms infinite;}.wkoEYZGW_30{stroke-dasharray:46 48;stroke-dashoffset:47;animation:wkoEYZGW_draw_30 6700ms linear 0ms infinite,wkoEYZGW_fade 6700ms linear 0ms infinite;}.wkoEYZGW_31{stroke-dasharray:46 48;stroke-dashoffset:47;animation:wkoEYZGW_draw_31 6700ms linear 0ms infinite,wkoEYZGW_fade 6700ms linear 0ms infinite;}.wkoEYZGW_32{stroke-dasharray:113 115;stroke-dashoffset:114;animation:wkoEYZGW_draw_32 6700ms linear 0ms infinite,wkoEYZGW_fade 6700ms linear 0ms infinite;}.wkoEYZGW_33{stroke-dasharray:59 61;stroke-dashoffset:60;animation:wkoEYZGW_draw_33 6700ms linear 0ms infinite,wkoEYZGW_fade 6700ms linear 0ms infinite;}.wkoEYZGW_34{stroke-dasharray:12 14;stroke-dashoffset:13;animation:wkoEYZGW_draw_34 6700ms linear 0ms infinite,wkoEYZGW_fade 6700ms linear 0ms infinite;}.wkoEYZGW_35{stroke-dasharray:241 243;stroke-dashoffset:242;animation:wkoEYZGW_draw_35 6700ms linear 0ms infinite,wkoEYZGW_fade 6700ms linear 0ms infinite;}.wkoEYZGW_36{stroke-dasharray:232 234;stroke-dashoffset:233;animation:wkoEYZGW_draw_36 6700ms linear 0ms infinite,wkoEYZGW_fade 6700ms linear 0ms infinite;}.wkoEYZGW_37{stroke-dasharray:88 90;stroke-dashoffset:89;animation:wkoEYZGW_draw_37 6700ms linear 0ms infinite,wkoEYZGW_fade 6700ms linear 0ms infinite;}.wkoEYZGW_38{stroke-dasharray:64 66;stroke-dashoffset:65;animation:wkoEYZGW_draw_38 6700ms linear 0ms infinite,wkoEYZGW_fade 6700ms linear 0ms infinite;}@keyframes wkoEYZGW_draw{100%{stroke-dashoffset:0;}}@keyframes wkoEYZGW_fade{0%{stroke-opacity:1;}94.02985074626866%{stroke-opacity:1;}100%{stroke-opacity:0;}}@keyframes wkoEYZGW_draw_0{4.477611940298507%{stroke-dashoffset: 48}34.32835820895522%{ stroke-dashoffset: 0;}100%{ stroke-dashoffset: 0;}}@keyframes wkoEYZGW_draw_1{4.870384917517675%{stroke-dashoffset: 48}34.72113118617439%{ stroke-dashoffset: 0;}100%{ stroke-dashoffset: 0;}}@keyframes wkoEYZGW_draw_2{5.2631578947368425%{stroke-dashoffset: 372}35.113904163393556%{ stroke-dashoffset: 0;}100%{ stroke-dashoffset: 0;}}@keyframes wkoEYZGW_draw_3{5.655930871956008%{stroke-dashoffset: 309}35.50667714061272%{ stroke-dashoffset: 0;}100%{ stroke-dashoffset: 0;}}@keyframes wkoEYZGW_draw_4{6.048703849175176%{stroke-dashoffset: 307}35.89945011783189%{ stroke-dashoffset: 0;}100%{ stroke-dashoffset: 0;}}@keyframes wkoEYZGW_draw_5{6.441476826394343%{stroke-dashoffset: 254}36.29222309505106%{ stroke-dashoffset: 0;}100%{ stroke-dashoffset: 0;}}@keyframes wkoEYZGW_draw_6{6.834249803613511%{stroke-dashoffset: 47}36.68499607227023%{ stroke-dashoffset: 0;}100%{ stroke-dashoffset: 0;}}@keyframes wkoEYZGW_draw_7{7.227022780832678%{stroke-dashoffset: 309}37.0777690494894%{ stroke-dashoffset: 0;}100%{ stroke-dashoffset: 0;}}@keyframes wkoEYZGW_draw_8{7.619795758051845%{stroke-dashoffset: 145}37.470542026708564%{ stroke-dashoffset: 0;}100%{ stroke-dashoffset: 0;}}@keyframes wkoEYZGW_draw_9{8.012568735271014%{stroke-dashoffset: 137}37.86331500392773%{ stroke-dashoffset: 0;}100%{ stroke-dashoffset: 0;}}@keyframes wkoEYZGW_draw_10{8.40534171249018%{stroke-dashoffset: 145}38.2560879811469%{ stroke-dashoffset: 0;}100%{ stroke-dashoffset: 0;}}@keyframes wkoEYZGW_draw_11{8.798114689709347%{stroke-dashoffset: 138}38.648860958366065%{ stroke-dashoffset: 0;}100%{ stroke-dashoffset: 0;}}@keyframes wkoEYZGW_draw_12{9.190887666928516%{stroke-dashoffset: 18}39.04163393558523%{ stroke-dashoffset: 0;}100%{ stroke-dashoffset: 0;}}@keyframes wkoEYZGW_draw_13{9.583660644147683%{stroke-dashoffset: 18}39.434406912804405%{ stroke-dashoffset: 0;}100%{ stroke-dashoffset: 0;}}@keyframes wkoEYZGW_draw_14{9.97643362136685%{stroke-dashoffset: 18}39.827179890023565%{ stroke-dashoffset: 0;}100%{ stroke-dashoffset: 0;}}@keyframes wkoEYZGW_draw_15{10.369206598586016%{stroke-dashoffset: 18}40.21995286724274%{ stroke-dashoffset: 0;}100%{ stroke-dashoffset: 0;}}@keyframes wkoEYZGW_draw_16{10.761979575805183%{stroke-dashoffset: 18}40.612725844461906%{ stroke-dashoffset: 0;}100%{ stroke-dashoffset: 0;}}@keyframes wkoEYZGW_draw_17{11.154752553024352%{stroke-dashoffset: 18}41.005498821681066%{ stroke-dashoffset: 0;}100%{ stroke-dashoffset: 0;}}@keyframes wkoEYZGW_draw_18{11.54752553024352%{stroke-dashoffset: 18}41.39827179890024%{ stroke-dashoffset: 0;}100%{ stroke-dashoffset: 0;}}@keyframes wkoEYZGW_draw_19{11.940298507462686%{stroke-dashoffset: 18}41.7910447761194%{ stroke-dashoffset: 0;}100%{ stroke-dashoffset: 0;}}@keyframes wkoEYZGW_draw_20{12.333071484681852%{stroke-dashoffset: 21}42.18381775333857%{ stroke-dashoffset: 0;}100%{ stroke-dashoffset: 0;}}@keyframes wkoEYZGW_draw_21{12.725844461901021%{stroke-dashoffset: 21}42.57659073055773%{ stroke-dashoffset: 0;}100%{ stroke-dashoffset: 0;}}@keyframes wkoEYZGW_draw_22{13.11861743912019%{stroke-dashoffset: 399}42.9693637077769%{ stroke-dashoffset: 0;}100%{ stroke-dashoffset: 0;}}@keyframes wkoEYZGW_draw_23{13.511390416339356%{stroke-dashoffset: 391}43.362136684996074%{ stroke-dashoffset: 0;}100%{ stroke-dashoffset: 0;}}@keyframes wkoEYZGW_draw_24{13.904163393558521%{stroke-dashoffset: 307}43.75490966221523%{ stroke-dashoffset: 0;}100%{ stroke-dashoffset: 0;}}@keyframes wkoEYZGW_draw_25{14.29693637077769%{stroke-dashoffset: 47}44.14768263943441%{ stroke-dashoffset: 0;}100%{ stroke-dashoffset: 0;}}@keyframes wkoEYZGW_draw_26{14.689709347996857%{stroke-dashoffset: 47}44.540455616653574%{ stroke-dashoffset: 0;}100%{ stroke-dashoffset: 0;}}@keyframes wkoEYZGW_draw_27{15.082482325216024%{stroke-dashoffset: 47}44.93322859387274%{ stroke-dashoffset: 0;}100%{ stroke-dashoffset: 0;}}@keyframes wkoEYZGW_draw_28{15.475255302435192%{stroke-dashoffset: 47}45.326001571091915%{ stroke-dashoffset: 0;}100%{ stroke-dashoffset: 0;}}@keyframes wkoEYZGW_draw_29{15.868028279654359%{stroke-dashoffset: 47}45.718774548311075%{ stroke-dashoffset: 0;}100%{ stroke-dashoffset: 0;}}@keyframes wkoEYZGW_draw_30{16.260801256873524%{stroke-dashoffset: 47}46.11154752553024%{ stroke-dashoffset: 0;}100%{ stroke-dashoffset: 0;}}@keyframes wkoEYZGW_draw_31{16.653574234092694%{stroke-dashoffset: 47}46.50432050274941%{ stroke-dashoffset: 0;}100%{ stroke-dashoffset: 0;}}@keyframes wkoEYZGW_draw_32{17.04634721131186%{stroke-dashoffset: 114}46.897093479968575%{ stroke-dashoffset: 0;}100%{ stroke-dashoffset: 0;}}@keyframes wkoEYZGW_draw_33{17.439120188531028%{stroke-dashoffset: 60}47.28986645718774%{ stroke-dashoffset: 0;}100%{ stroke-dashoffset: 0;}}@keyframes wkoEYZGW_draw_34{17.831893165750195%{stroke-dashoffset: 13}47.682639434406916%{ stroke-dashoffset: 0;}100%{ stroke-dashoffset: 0;}}@keyframes wkoEYZGW_draw_35{18.22466614296936%{stroke-dashoffset: 242}48.07541241162608%{ stroke-dashoffset: 0;}100%{ stroke-dashoffset: 0;}}@keyframes wkoEYZGW_draw_36{18.617439120188532%{stroke-dashoffset: 233}48.46818538884525%{ stroke-dashoffset: 0;}100%{ stroke-dashoffset: 0;}}@keyframes wkoEYZGW_draw_37{19.0102120974077%{stroke-dashoffset: 89}48.860958366064416%{ stroke-dashoffset: 0;}100%{ stroke-dashoffset: 0;}}@keyframes wkoEYZGW_draw_38{19.402985074626866%{stroke-dashoffset: 65}49.25373134328358%{ stroke-dashoffset: 0;}100%{ stroke-dashoffset: 0;}}
<style>
  .wkoEYZGW_37 {
    animation-name: rotate;
    animation-duration: 16s;
    animation-iteration-count: infinite;
    transform-origin: 67.6px 82.9px;
    display: inline-block;
  }
  .wkoEYZGW_38{
animation-name: rotate;
    animation-duration: 32s;
    animation-iteration-count: infinite;
    transform-origin: 67.6px 82.9px;
    display: inline-block;
  }
  .pencil{
animation: float 3s ease-in-out infinite;
}
  @keyframes rotate {
    0% {
        transform: rotate(0deg);
    }
    100% {
        transform: rotate(360deg);
    }
}
@keyframes float {
	0% {
		transform: translatey(0px);
	}
	50% {
		transform: translatey(-10px);
	}
	100% {
		transform: translatey(0px);
	}
}
  </style>
</style></svg>
