<svg id="Layer_1" data-name="Layer 1" xmlns="http://www.w3.org/2000/svg" viewBox="0 0 560.69 332.43" style=""><defs><style>.cls-1{fill:#212426;}.cls-2{fill:none;stroke:#212426;stroke-miterlimit:10;stroke-width:2px;}.cls-3{fill:#221f1f;}.cls-4{fill:#979080;}.cls-5{fill:#fff;}.cls-6{font-size:53.66px;font-family:Montserrat-Bold, Montserrat;font-weight:700;}.cls-6,.cls-8{fill:#231f20;}.cls-7{fill:#010101;}.cls-8{font-size:18.63px;font-family:MyriadPro-Regular, Myriad Pro;}.cls-9{letter-spacing:0em;}.cls-10{fill:#dcdbdb;}.cls-11{fill:#f3f3f3;}.cls-12{fill:#f2f2f2;}</style></defs><title>scrolls_desktop</title><path class="cls-1 wDVmuIsr_0" d="M100.52,371.17q-9.89-3.27-16.58-3.27-5.3,0-8.33,1.95a6.34,6.34,0,0,0-3,5.68,7.78,7.78,0,0,0,2.65,6,20.22,20.22,0,0,0,6.54,3.89q3.89,1.48,11.52,3.82A150,150,0,0,1,112,395.78a32.83,32.83,0,0,1,12.69,10q5.29,6.77,5.29,17.67t-5.76,18.61a34.92,34.92,0,0,1-15.81,11.6,61.41,61.41,0,0,1-22.35,3.89,80.79,80.79,0,0,1-27-4.75,73.9,73.9,0,0,1-23.28-13l11.06-22.27a68.75,68.75,0,0,0,19.54,12q11.29,4.67,20,4.67,6.38,0,10-2.34a7.62,7.62,0,0,0,3.66-6.85,8.1,8.1,0,0,0-2.73-6.23,20.1,20.1,0,0,0-6.85-4q-4.13-1.48-11.6-3.5A142.91,142.91,0,0,1,60.43,405a32.75,32.75,0,0,1-12.54-9.65q-5.22-6.46-5.22-17.21A30.06,30.06,0,0,1,48,360.43a34.2,34.2,0,0,1,15.26-11.76,59.31,59.31,0,0,1,23-4.13,83.37,83.37,0,0,1,23.36,3.35,77,77,0,0,1,20.24,9l-10.74,22.74A95.78,95.78,0,0,0,100.52,371.17Z" transform="translate(-17.29 -257.16)"></path><path class="cls-1 wDVmuIsr_1" d="M182.36,393.6a15,15,0,0,0-12.15,5.68Q165.54,405,165.54,414q0,9.19,4.67,14.79a15.07,15.07,0,0,0,12.15,5.61q11.52,0,16.51-9.5l20.4,11.68a34.64,34.64,0,0,1-14.95,14.95q-10,5.3-23.36,5.29a47.12,47.12,0,0,1-22.74-5.29A37.25,37.25,0,0,1,143,436.58a45.35,45.35,0,0,1-5.37-22.42,46.48,46.48,0,0,1,5.45-22.81,37.75,37.75,0,0,1,15.34-15.26,47,47,0,0,1,22.81-5.37,47,47,0,0,1,22.42,5.22,37.57,37.57,0,0,1,15.26,14.72l-20.09,11.68A18.86,18.86,0,0,0,182.36,393.6Z" transform="translate(-17.29 -257.16)"></path><path class="cls-1 wDVmuIsr_2" d="M271,374.44a31.72,31.72,0,0,1,15.81-3.89v25.38q-1.4-.15-4.2-.16-9.81,0-15.88,4.59a17.62,17.62,0,0,0-7,12.54v43H232V371.64h27.72v14A30.36,30.36,0,0,1,271,374.44Z" transform="translate(-17.29 -257.16)"></path><path class="cls-1 wDVmuIsr_3" d="M362.21,376.08a39.29,39.29,0,0,1,16.2,15.11,43.36,43.36,0,0,1,5.76,22.5q0,12.93-5.76,22.66a39.28,39.28,0,0,1-16.2,15.11q-10.43,5.37-24.14,5.37t-24.14-5.37a38.74,38.74,0,0,1-16.12-15.11q-5.69-9.73-5.68-22.66a43.79,43.79,0,0,1,5.68-22.5,38.75,38.75,0,0,1,16.12-15.11q10.43-5.37,24.14-5.37T362.21,376.08ZM325,398.89q-5,5.76-5,15.11,0,9.5,5,15.26A16.45,16.45,0,0,0,338.08,435a16.63,16.63,0,0,0,13.24-5.76q5-5.76,5-15.26,0-9.34-5.06-15.11a16.7,16.7,0,0,0-13.16-5.76A16.46,16.46,0,0,0,325,398.89Z" transform="translate(-17.29 -257.16)"></path><path class="cls-2 wDVmuIsr_4" d="M88.11,363.44q-10.63-3.52-17.83-3.52-5.69,0-9,2.09a6.81,6.81,0,0,0-3.26,6.11,8.36,8.36,0,0,0,2.85,6.45,21.74,21.74,0,0,0,7,4.19q4.18,1.59,12.39,4.1a161.26,161.26,0,0,1,20.18,7,35.31,35.31,0,0,1,13.65,10.8q5.69,7.28,5.69,19t-6.2,20a37.55,37.55,0,0,1-17,12.47,66,66,0,0,1-24,4.19,86.87,86.87,0,0,1-29.05-5.11,79.47,79.47,0,0,1-25-14l11.89-23.94a73.92,73.92,0,0,0,21,12.89q12.14,5,21.52,5,6.86,0,10.8-2.51a8.2,8.2,0,0,0,3.93-7.37,8.7,8.7,0,0,0-2.93-6.7,21.61,21.61,0,0,0-7.37-4.27q-4.44-1.59-12.47-3.77A153.66,153.66,0,0,1,45,399.86a35.21,35.21,0,0,1-13.48-10.38Q25.9,382.53,25.9,371a32.32,32.32,0,0,1,5.78-19.09,36.78,36.78,0,0,1,16.41-12.64q10.63-4.43,24.7-4.44a89.64,89.64,0,0,1,25.12,3.6A82.76,82.76,0,0,1,119.67,348l-11.55,24.45A103,103,0,0,0,88.11,363.44Z" transform="translate(-17.29 -257.16)"></path><path class="cls-2 wDVmuIsr_5" d="M176.1,387.55A16.11,16.11,0,0,0,163,393.66q-5,6.11-5,15.82,0,9.88,5,15.91a16.2,16.2,0,0,0,13.06,6q12.39,0,17.75-10.21l21.93,12.56a37.25,37.25,0,0,1-16.07,16.07q-10.72,5.69-25.12,5.69-13.9,0-24.45-5.69a40.05,40.05,0,0,1-16.33-16.07Q128,423.38,128,409.65q0-13.9,5.86-24.53a40.59,40.59,0,0,1,16.49-16.41q10.63-5.78,24.53-5.78A50.58,50.58,0,0,1,199,368.54a40.39,40.39,0,0,1,16.41,15.82l-21.6,12.56A20.28,20.28,0,0,0,176.1,387.55Z" transform="translate(-17.29 -257.16)"></path><path class="cls-2 wDVmuIsr_6" d="M271.46,367a34.11,34.11,0,0,1,17-4.19v27.29q-1.51-.16-4.52-.17-10.55,0-17.08,4.94a18.94,18.94,0,0,0-7.54,13.48v46.21h-29.8V363.94h29.8V379A32.65,32.65,0,0,1,271.46,367Z" transform="translate(-17.29 -257.16)"></path><path class="cls-2 wDVmuIsr_7" d="M369.49,368.71A42.25,42.25,0,0,1,386.91,385a46.63,46.63,0,0,1,6.19,24.2q0,13.9-6.19,24.36a42.24,42.24,0,0,1-17.41,16.24q-11.22,5.78-26,5.78t-26-5.78a41.66,41.66,0,0,1-17.33-16.24q-6.11-10.46-6.11-24.36a47.09,47.09,0,0,1,6.11-24.2,41.66,41.66,0,0,1,17.33-16.24q11.22-5.78,26-5.78T369.49,368.71Zm-40,24.53q-5.36,6.2-5.36,16.24,0,10.21,5.36,16.41a17.69,17.69,0,0,0,14.07,6.2q8.87,0,14.23-6.2t5.36-16.41q0-10-5.44-16.24a18,18,0,0,0-14.15-6.2A17.7,17.7,0,0,0,329.48,393.24Z" transform="translate(-17.29 -257.16)"></path><path class="cls-3 wDVmuIsr_8" d="M520.77,569.86H385.44V536.64H520.77Zm-134.33-1H519.77V537.64H386.44Z" transform="translate(-17.29 -257.16)"></path><path class="cls-1 wDVmuIsr_9" d="M450.44,339h27.72V454.51H450.44Z" transform="translate(-17.29 -257.16)"></path><path class="cls-1 wDVmuIsr_10" d="M534.86,389.84a11,11,0,0,0-5.76,1.32,4.34,4.34,0,0,0-2.18,4q0,2.8,3.43,4.52a63.06,63.06,0,0,0,10.9,3.74,136.7,136.7,0,0,1,15,5.22,27.5,27.5,0,0,1,10.36,7.79Q571,421.61,571,430q0,12.77-9.89,20t-25.77,7.24a69.13,69.13,0,0,1-20.56-3,54.42,54.42,0,0,1-17.44-9l8.72-17.91a61.35,61.35,0,0,0,15,7.71A45.44,45.44,0,0,0,536,437.81a13.46,13.46,0,0,0,6.46-1.32,4.15,4.15,0,0,0,2.41-3.82q0-3.11-3.5-4.83a66.7,66.7,0,0,0-11-3.74,122.85,122.85,0,0,1-14.64-5.22,27.61,27.61,0,0,1-10-7.71q-4.28-5.14-4.28-13.39,0-12.77,9.66-20T536,370.53a67.64,67.64,0,0,1,35,9.81l-9.34,18.06Q545.29,389.85,534.86,389.84Z" transform="translate(-17.29 -257.16)"></path><path class="cls-2 wDVmuIsr_11" d="M442.49,324.29h30.85V452.9H442.49Z" transform="translate(-17.29 -257.16)"></path><path class="cls-2 wDVmuIsr_12" d="M536.45,380.92A12.26,12.26,0,0,0,530,382.4a4.83,4.83,0,0,0-2.43,4.42q0,3.12,3.81,5A70.19,70.19,0,0,0,543.56,396a152.15,152.15,0,0,1,16.73,5.81,30.61,30.61,0,0,1,11.53,8.67q4.85,5.81,4.85,15.17,0,14.21-11,22.27T537,456a77,77,0,0,1-22.88-3.38,60.58,60.58,0,0,1-19.41-10l9.71-19.93a68.28,68.28,0,0,0,16.73,8.58,50.58,50.58,0,0,0,16.55,3,15,15,0,0,0,7.19-1.47,4.62,4.62,0,0,0,2.69-4.25q0-3.47-3.9-5.37a74.24,74.24,0,0,0-12.22-4.16,136.74,136.74,0,0,1-16.29-5.81A30.73,30.73,0,0,1,504,404.67q-4.77-5.72-4.77-14.91,0-14.21,10.75-22.27t27.73-8.06a75.28,75.28,0,0,1,39,10.92l-10.4,20.11Q548.07,380.93,536.45,380.92Z" transform="translate(-17.29 -257.16)"></path><path class="cls-1 wDVmuIsr_13" d="M411.79,465.9l-.67.44c-1.43.08-2.86.09-4.28.24-5.07.54-6.07,0-7.69-4.49L399,459.9c.92-3.25.07-6.54.19-9.81,0-1,.53-2.31-.73-3.09l-.06-2.76a4.42,4.42,0,0,0,.42-1.3q-.08-16.27-.22-32.54c0-.65.1-1.38-.74-1.69l0-3.34a1,1,0,0,0,0-1.73v-1c1-.7,1.06-1.38,0-2.05v-1c.57-.39.47-1,.47-1.56.1-6.13.35-12.26.22-18.39,0-2.31.88-2.88,2.79-3.1s4,0,5.63-1.4l.71,1c-.16,18.19-.89,36.38.58,54.55,1-6.13,1-12.31,1.06-18.48.12-10.91.28-21.81.36-32.72,0-1.59.09-2.9,2.11-2.95l1,.34c0,8.87-.07,17.74,0,26.62Q413,434.69,411.79,465.9Z" transform="translate(-17.29 -257.16)"></path><path class="cls-1 wDVmuIsr_14" d="M397.33,317.23l.05-2.73c1.43-3.08.94-6.27.53-9.46l.18-2.68c1.18-1.53,1-3.18.42-4.86l.12-1.52c1.16-1.12.93-2.4.43-3.71l.09-1a9.84,9.84,0,0,0,.56-.95c.94-2.08,2.87-2.39,4.65-2s.78,2.13.81,3.24c.61,19.87.82,39.74.47,59.62,0,.89-.34,2,.71,2.61l0,0c0,.39.14.56.52.56a3,3,0,0,0,2.3.84c-.21.36.07,1.13-.56,1.09-2.24-.16-1.8,1.23-1.57,2.53-1.8,1.55.3,2.46.59,3.66-.27,1.91.67,3.84-.08,5.74-.65.11-.62.61-.64,1.09a11,11,0,0,0-6.19-.79c-2.67.33-3-.74-3-3,.06-15.1,0-30.2,0-45.3C397.75,319.24,398.22,318.12,397.33,317.23Z" transform="translate(-17.29 -257.16)"></path><path class="cls-4 wDVmuIsr_15" d="M406.34,353.78c-1-.64-.72-1.71-.71-2.61.35-19.88.14-39.75-.47-59.62,0-1.11.86-2.87-.81-3.24s-3.71-.08-4.65,2a9.84,9.84,0,0,1-.56.95c.5-3.77-.09-7.72,1.95-11.22-.2,2,.71,2.65,2.67,2.31a15.35,15.35,0,0,1,4.23-.2c2.4.27,2.61-.77,1.86-2.61,2.1.8,2.1.8,2.14,3.62a38.09,38.09,0,0,0-3.94,0c-.95.1-2.43-.91-2.7,1a3.22,3.22,0,0,0,1.83,3.69c1.1.6,2.64.74,3.18,2.21.14.39.36.78.54,0s0-1.5,1.11-1.23a2,2,0,0,1,1.42,2c.32,2.58.72,5.16,1,7.75,1.33,13.95,1.54,27.94,1.63,41.93q.09,12.89.11,25.78c0,.88.33,2.4-.85,2.41s-2.77,1-4-.27c0,0,.16-.3.25-.46,2.11-.81,1.81-2.64,1.79-4.32q-.31-28.51-.64-57c0-.88-.08-1.77-.13-2.65h-.5v12.11A3.81,3.81,0,0,1,411,313c-.05-1.74-.63-2.57-2.6-2.53-2.22.05-1.26,1.58-1.29,2.44C406.56,326.51,408.12,340.17,406.34,353.78Z" transform="translate(-17.29 -257.16)"></path><path class="cls-4 wDVmuIsr_16" d="M399.16,462.09c1.61,4.46,2.62,5,7.69,4.49,1.42-.15,2.85-.16,4.28-.24-.09,7.13-1.36,14.16-2,21.25a52.77,52.77,0,0,0-.69,5.42c0,2.13-2.57,1.49-2.84,3.11a2.41,2.41,0,0,1-1.92-2.2c-1.18-7.59-2.32-15.2-3.54-22.78C399.67,468.13,398.3,465.24,399.16,462.09Z" transform="translate(-17.29 -257.16)"></path><path class="cls-4 wDVmuIsr_17" d="M411.79,465.9q1.14-31.21,1-62.44c0-8.87,0-17.74,0-26.62,1.81-.51,2.4.24,2.39,2-.07,28.15.33,56.3-1.37,84.42C413.81,464.64,413.93,466.19,411.79,465.9Z" transform="translate(-17.29 -257.16)"></path><path class="cls-4 wDVmuIsr_18" d="M397.33,317.23c.89.89.42,2,.42,3,0,15.1.09,30.2,0,45.3,0,2.24.28,3.31,3,3a11,11,0,0,1,6.19.79,5.4,5.4,0,0,1,.1,5.81c-1.64,1.39-3.7,1.18-5.63,1.4s-2.84.8-2.79,3.1c.13,6.13-.12,12.26-.22,18.39,0,.56.1,1.17-.47,1.56a3.3,3.3,0,0,1-.39-1c-.24-26.57-1.34-53.13-.64-79.71C396.89,318.26,396.82,317.66,397.33,317.23Z" transform="translate(-17.29 -257.16)"></path><path class="cls-4 wDVmuIsr_19" d="M411.84,376.51c-2,.05-2.09,1.36-2.11,2.95-.08,10.91-.24,21.81-.36,32.72-.07,6.17,0,12.34-1.06,18.48-1.47-18.16-.74-36.36-.58-54.55-.22-2.77,2.58-2.14,3.85-3.22.53-.45,1.17,1,1,1.88C412.48,375.36,411.6,375.7,411.84,376.51Z" transform="translate(-17.29 -257.16)"></path><path class="cls-1 wDVmuIsr_20" d="M412.07,316.14V304h.5c0,.88.12,1.77.13,2.65q.33,28.51.64,57c0,1.68.32,3.51-1.79,4.32-.49.54-1.08.34-1.66.23-.27-4.42,2.58-8.83.05-13.26a2.81,2.81,0,0,0,1.76-2.29c.58-.38.57-.85.23-1.38l.11-2.69a35.24,35.24,0,0,0,.08-9.42q0-7.47,0-14.95v-.72Z" transform="translate(-17.29 -257.16)"></path><path class="cls-4 wDVmuIsr_21" d="M397.91,408.71c.83.31.73,1,.74,1.69q.13,16.27.22,32.54a4.42,4.42,0,0,1-.42,1.3c-.75-.92-.48-2-.5-3q-.2-15.26-.32-30.52A12.75,12.75,0,0,1,397.91,408.71Z" transform="translate(-17.29 -257.16)"></path><path class="cls-1 wDVmuIsr_22" d="M409.85,279.54c.75,1.84.54,2.88-1.86,2.61a15.35,15.35,0,0,0-4.23.2c-2,.33-2.87-.28-2.67-2.31C403.9,277.87,406.87,278.66,409.85,279.54Z" transform="translate(-17.29 -257.16)"></path><path class="cls-4 wDVmuIsr_23" d="M409.93,355c2.53,4.43-.33,8.84-.05,13.26l-2.32,0c.75-1.9-.19-3.83.08-5.74,1.11-.22.68-1.58,1.27-1.93,1.1-.64.94-.84.18-1.76-.92-1.11-1.38-.47-2,0-.23-1.3-.67-2.69,1.57-2.53.64,0,.35-.73.56-1.09Z" transform="translate(-17.29 -257.16)"></path><path class="cls-4 wDVmuIsr_24" d="M398.5,447c1.27.78.77,2.06.73,3.09-.12,3.27.73,6.56-.19,9.81A46.78,46.78,0,0,1,398.5,447Z" transform="translate(-17.29 -257.16)"></path><path class="cls-4 wDVmuIsr_25" d="M397.92,305c.41,3.19.9,6.38-.53,9.46C397.05,311.32,396.79,308.14,397.92,305Z" transform="translate(-17.29 -257.16)"></path><path class="cls-4 wDVmuIsr_26" d="M398.52,297.5c.6,1.69.76,3.33-.42,4.86A5.88,5.88,0,0,1,398.52,297.5Z" transform="translate(-17.29 -257.16)"></path><path class="cls-4 wDVmuIsr_27" d="M399.06,292.27c.51,1.31.73,2.59-.43,3.71A4.12,4.12,0,0,1,399.06,292.27Z" transform="translate(-17.29 -257.16)"></path><path class="cls-4 wDVmuIsr_28" d="M397.9,400.6c1.08.67,1.06,1.36,0,2.05A2,2,0,0,1,397.9,400.6Z" transform="translate(-17.29 -257.16)"></path><path class="cls-4 wDVmuIsr_29" d="M397.93,403.65a1,1,0,0,1,0,1.73A1,1,0,0,1,397.93,403.65Z" transform="translate(-17.29 -257.16)"></path><path class="cls-5 wDVmuIsr_30" d="M409.93,355l-.76.21a3,3,0,0,1-2.3-.84c0-.3-.12-.57-.52-.56l0,0c1.77-13.6.21-27.26.74-40.89,0-.86-.93-2.38,1.29-2.44,2,0,2.55.79,2.6,2.53a3.81,3.81,0,0,0,1.09,3.16l0,7.4c-.36.24-.35.48,0,.72q0,7.47,0,14.95a28.1,28.1,0,0,0-.08,9.42l-.11,2.69a1,1,0,0,0-.23,1.38A2.81,2.81,0,0,1,409.93,355Z" transform="translate(-17.29 -257.16)"></path><path class="cls-5 wDVmuIsr_31" d="M407,358.82c.67-.49,1.13-1.14,2,0,.76.92.92,1.12-.18,1.76-.6.35-.16,1.71-1.27,1.93C407.35,361.27,405.24,360.36,407,358.82Z" transform="translate(-17.29 -257.16)"></path><path class="cls-4 wDVmuIsr_32" d="M406.36,353.8c.39,0,.47.26.52.56C406.5,354.36,406.31,354.19,406.36,353.8Z" transform="translate(-17.29 -257.16)"></path><path class="cls-4 wDVmuIsr_33" d="M412,348.63a28.1,28.1,0,0,1,.08-9.42A35.24,35.24,0,0,1,412,348.63Z" transform="translate(-17.29 -257.16)"></path><path class="cls-4 wDVmuIsr_34" d="M411.7,352.7a1,1,0,0,1,.23-1.38C412.26,351.85,412.28,352.33,411.7,352.7Z" transform="translate(-17.29 -257.16)"></path><path class="cls-4 wDVmuIsr_35" d="M412.11,324.26c-.35-.24-.35-.48,0-.72Z" transform="translate(-17.29 -257.16)"></path><path class="cls-2 wDVmuIsr_36" d="M417.76,473l-.78.5c-1.65.09-3.31.1-5,.27-5.88.62-7,0-8.91-5.11l-.13-2.49c1.07-3.7.08-7.44.22-11.16,0-1.17.62-2.63-.85-3.51l-.06-3.13a5,5,0,0,0,.49-1.48q-.09-18.5-.25-37c0-.74.11-1.57-.85-1.92l0-3.79a1.14,1.14,0,0,0,0-2V401c1.21-.79,1.23-1.57,0-2.33v-1.16c.66-.45.54-1.14.55-1.78.12-7,.41-13.95.26-20.91-.06-2.62,1-3.28,3.23-3.53s4.62,0,6.53-1.59l.83,1.11c-.18,20.68-1,41.38.67,62,1.18-7,1.14-14,1.22-21,.14-12.4.33-24.8.42-37.21,0-1.81.11-3.29,2.44-3.35l1.2.38c0,10.09-.08,20.18,0,30.27Q419.11,437.46,417.76,473Z" transform="translate(-17.29 -257.16)"></path><path class="cls-2 wDVmuIsr_37" d="M401,303.88l.06-3.11c1.66-3.5,1.09-7.13.61-10.76l.21-3c1.37-1.74,1.18-3.61.49-5.53l.13-1.73c1.34-1.27,1.08-2.73.49-4.22l.1-1.15a11.14,11.14,0,0,0,.65-1.08c1.09-2.37,3.33-2.72,5.39-2.28s.9,2.43.94,3.68c.7,22.59,1,45.19.55,67.8,0,1-.39,2.23.82,3l0,0c-.06.44.16.64.6.63a3.55,3.55,0,0,0,2.67,1c-.25.41.08,1.29-.65,1.24-2.59-.19-2.08,1.39-1.82,2.88-2.09,1.76.35,2.8.69,4.17-.31,2.17.78,4.36-.09,6.53-.75.12-.72.7-.74,1.24a12.94,12.94,0,0,0-7.18-.9c-3.09.37-3.43-.84-3.42-3.39.07-17.17,0-34.34,0-51.51C401.49,306.17,402,304.9,401,303.88Z" transform="translate(-17.29 -257.16)"></path><path class="cls-2 wDVmuIsr_38" d="M411.45,345.44c-1.22-.73-.84-1.95-.82-3,.41-22.6.16-45.2-.55-67.8,0-1.26,1-3.27-.94-3.68s-4.3-.09-5.39,2.28a11.14,11.14,0,0,1-.65,1.08c.58-4.28-.1-8.78,2.26-12.77-.24,2.32.83,3,3.09,2.63a18.13,18.13,0,0,1,4.9-.22c2.78.31,3-.87,2.15-3,2.44.91,2.44.91,2.48,4.12a45,45,0,0,0-4.57,0c-1.1.11-2.81-1-3.13,1.15a3.64,3.64,0,0,0,2.12,4.2c1.27.68,3.06.84,3.68,2.52.17.45.41.89.62,0s0-1.71,1.28-1.4a2.3,2.3,0,0,1,1.65,2.25c.38,2.94.83,5.87,1.12,8.82,1.55,15.86,1.78,31.77,1.89,47.69q.1,14.66.12,29.31c0,1,.38,2.73-1,2.74s-3.21,1.12-4.62-.31c0,0,.19-.34.29-.52,2.45-.92,2.1-3,2.08-4.91q-.36-32.43-.74-64.85c0-1-.1-2-.15-3h-.58v13.77c-1.18-.94-1.23-2.3-1.27-3.59-.06-2-.73-2.93-3-2.88-2.57.06-1.46,1.79-1.5,2.77C411.7,314.44,413.5,330,411.45,345.44Z" transform="translate(-17.29 -257.16)"></path><path class="cls-2 wDVmuIsr_39" d="M403.12,468.62c1.87,5.08,3,5.72,8.91,5.11,1.64-.17,3.3-.19,5-.27-.11,8.11-1.58,16.1-2.29,24.16-.18,2.06-.84,4.11-.8,6.16,0,2.43-3,1.69-3.29,3.54a2.76,2.76,0,0,1-2.23-2.5c-1.37-8.64-2.69-17.28-4.1-25.91C403.71,475.49,402.12,472.2,403.12,468.62Z" transform="translate(-17.29 -257.16)"></path><path class="cls-2 wDVmuIsr_40" d="M417.76,473q1.33-35.49,1.21-71c0-10.09,0-20.18,0-30.27,2.1-.58,2.78.27,2.77,2.32-.08,32,.38,64-1.59,96C420.1,471.53,420.25,473.29,417.76,473Z" transform="translate(-17.29 -257.16)"></path><path class="cls-2 wDVmuIsr_41" d="M401,303.88c1,1,.49,2.29.49,3.43.05,17.17.1,34.34,0,51.51,0,2.55.33,3.76,3.42,3.39a12.94,12.94,0,0,1,7.18.9c1.5,2.18,1.24,4.39.12,6.61-1.91,1.59-4.29,1.34-6.53,1.59s-3.29.9-3.23,3.53c.15,7-.14,13.94-.26,20.91,0,.64.11,1.33-.55,1.78a3.71,3.71,0,0,1-.45-1.18c-.28-30.22-1.56-60.43-.74-90.65C400.49,305.05,400.4,304.37,401,303.88Z" transform="translate(-17.29 -257.16)"></path><path class="cls-2 wDVmuIsr_42" d="M417.82,371.3c-2.33.06-2.43,1.54-2.44,3.35-.1,12.4-.28,24.8-.42,37.21-.08,7,0,14-1.22,21-1.7-20.65-.85-41.35-.67-62-.26-3.15,3-2.43,4.46-3.66.61-.51,1.35,1.17,1.17,2.14C418.56,370,417.55,370.38,417.82,371.3Z" transform="translate(-17.29 -257.16)"></path><path class="cls-2 wDVmuIsr_43" d="M418.09,302.65V288.88h.58c.05,1,.13,2,.15,3q.38,32.43.74,64.85c0,1.91.37,4-2.08,4.91-.57.61-1.25.39-1.92.26-.32-5,3-10,.06-15.08a3.2,3.2,0,0,0,2-2.61c.67-.43.66-1,.27-1.57l.13-3.06a39.33,39.33,0,0,0,.09-10.72q0-8.5,0-17v-.82Z" transform="translate(-17.29 -257.16)"></path><path class="cls-2 wDVmuIsr_44" d="M401.67,407.92c1,.35.85,1.18.85,1.92q.15,18.5.25,37a5,5,0,0,1-.49,1.48c-.86-1-.56-2.3-.57-3.46q-.24-17.35-.37-34.71A14.25,14.25,0,0,1,401.67,407.92Z" transform="translate(-17.29 -257.16)"></path><path class="cls-2 wDVmuIsr_45" d="M415.51,261c.87,2.1.63,3.28-2.15,3a18.13,18.13,0,0,0-4.9.22c-2.27.38-3.33-.31-3.09-2.63C408.61,259.12,412.06,260,415.51,261Z" transform="translate(-17.29 -257.16)"></path><path class="cls-2 wDVmuIsr_46" d="M415.61,346.83c2.93,5-.38,10.05-.06,15.08l-2.69,0c.87-2.17-.22-4.36.09-6.53,1.29-.26.78-1.8,1.48-2.2,1.27-.73,1.09-1,.21-2-1.07-1.27-1.6-.53-2.37,0-.26-1.48-.78-3.06,1.82-2.88.74.05.41-.83.65-1.24Z" transform="translate(-17.29 -257.16)"></path><path class="cls-2 wDVmuIsr_47" d="M402.35,451.46c1.47.88.89,2.34.85,3.51-.14,3.72.85,7.46-.22,11.16A52.21,52.21,0,0,1,402.35,451.46Z" transform="translate(-17.29 -257.16)"></path><path class="cls-2 wDVmuIsr_48" d="M401.68,290c.48,3.62,1,7.25-.61,10.76C400.68,297.16,400.37,293.54,401.68,290Z" transform="translate(-17.29 -257.16)"></path><path class="cls-2 wDVmuIsr_49" d="M402.38,281.45c.7,1.92.88,3.79-.49,5.53A6.58,6.58,0,0,1,402.38,281.45Z" transform="translate(-17.29 -257.16)"></path><path class="cls-2 wDVmuIsr_50" d="M403,275.5c.59,1.49.85,2.94-.49,4.22A4.61,4.61,0,0,1,403,275.5Z" transform="translate(-17.29 -257.16)"></path><path class="cls-2 wDVmuIsr_51" d="M401.66,398.69c1.25.76,1.23,1.54,0,2.33A2.22,2.22,0,0,1,401.66,398.69Z" transform="translate(-17.29 -257.16)"></path><path class="cls-2 wDVmuIsr_52" d="M401.7,402.16a1.14,1.14,0,0,1,0,2A1.16,1.16,0,0,1,401.7,402.16Z" transform="translate(-17.29 -257.16)"></path><path class="cls-2 wDVmuIsr_53" d="M415.61,346.83l-.88.24a3.54,3.54,0,0,1-2.67-1c-.06-.34-.14-.65-.6-.63l0,0c2.06-15.47.25-31,.86-46.5,0-1-1.07-2.71,1.5-2.77,2.28-.05,3,.89,3,2.88,0,1.3.09,2.65,1.27,3.59l.06,8.41c-.41.27-.41.54,0,.82q0,8.5,0,17a31.36,31.36,0,0,0-.09,10.72l-.13,3.06a1.12,1.12,0,0,0-.27,1.57A3.2,3.2,0,0,1,415.61,346.83Z" transform="translate(-17.29 -257.16)"></path><path class="cls-2 wDVmuIsr_54" d="M412.26,351.18c.77-.56,1.3-1.29,2.37,0,.88,1,1.06,1.27-.21,2-.69.4-.19,1.94-1.48,2.2C412.61,354,410.17,352.93,412.26,351.18Z" transform="translate(-17.29 -257.16)"></path><path class="cls-2 wDVmuIsr_55" d="M411.47,345.47c.45,0,.54.29.6.63C411.63,346.11,411.41,345.91,411.47,345.47Z" transform="translate(-17.29 -257.16)"></path><path class="cls-2 wDVmuIsr_56" d="M418.05,339.59a31.36,31.36,0,0,1,.09-10.72A39.33,39.33,0,0,1,418.05,339.59Z" transform="translate(-17.29 -257.16)"></path><path class="cls-2 wDVmuIsr_57" d="M417.65,344.22a1.12,1.12,0,0,1,.27-1.57C418.31,343.25,418.32,343.79,417.65,344.22Z" transform="translate(-17.29 -257.16)"></path><path class="cls-2 wDVmuIsr_58" d="M418.13,311.87c-.4-.28-.4-.55,0-.82Z" transform="translate(-17.29 -257.16)"></path><path class="cls-1 wDVmuIsr_59" width="3.23" height="35.5" d="M390.95 243.99 L394.18 243.99 L394.18 279.49 L390.95 279.49 Z"></path><path class="cls-1 wDVmuIsr_60" width="3.83" height="86.36" d="M440.96 193.98 L444.78999999999996 193.98 L444.78999999999996 280.34 L440.96 280.34 Z"></path><text class="cls-6" transform="translate(399.05 308.18)">2018</text><path class="cls-7 wDVmuIsr_61" d="M36.27,308.72h.82L42.71,322h-1l-1.85-4.38H33.49L31.64,322h-1Zm3.32,8.13-2.9-7-3,7Z" transform="translate(-17.29 -257.16)"></path><path class="cls-7 wDVmuIsr_62" d="M42.81,325.34a3.77,3.77,0,0,1-1.11-.16,2.44,2.44,0,0,1-.93-.53l.51-.62a1.75,1.75,0,0,0,.69.36,3.08,3.08,0,0,0,.75.09,1.78,1.78,0,0,0,.69-.14,1.91,1.91,0,0,0,.6-.39,2.09,2.09,0,0,0,.43-.6,1.71,1.71,0,0,0,.17-.76V312.28h.94v10.27a2.64,2.64,0,0,1-.23,1.12,2.87,2.87,0,0,1-.63.88,2.93,2.93,0,0,1-.88.58A2.53,2.53,0,0,1,42.81,325.34Zm1.8-15.27v-1.72h.94v1.72Z" transform="translate(-17.29 -257.16)"></path><path class="cls-7 wDVmuIsr_63" d="M50.86,322.21a3.34,3.34,0,0,1-2.28-.87,2.81,2.81,0,0,1-.68-1,2.91,2.91,0,0,1-.24-1.19A2.3,2.3,0,0,1,48,318a2.88,2.88,0,0,1,.83-.91,4.14,4.14,0,0,1,1.28-.6,6,6,0,0,1,1.65-.22,9.14,9.14,0,0,1,1.58.14,7.86,7.86,0,0,1,1.43.38v-1a3,3,0,0,0-.79-2.2,2.83,2.83,0,0,0-2.14-.81,4.29,4.29,0,0,0-1.51.3,7.69,7.69,0,0,0-1.62.86l-.36-.64a6.39,6.39,0,0,1,3.56-1.27,3.73,3.73,0,0,1,2.77,1,3.83,3.83,0,0,1,1,2.82v4.76q0,.47.41.47V322l-.2,0h-.18a.76.76,0,0,1-.6-.25,1.06,1.06,0,0,1-.26-.61v-.81a4.38,4.38,0,0,1-1.72,1.35A5.5,5.5,0,0,1,50.86,322.21Zm.19-.75a4.77,4.77,0,0,0,2-.41,3.42,3.42,0,0,0,1.4-1.09,1.26,1.26,0,0,0,.3-.75v-1.72a7.59,7.59,0,0,0-1.41-.39,8.63,8.63,0,0,0-1.52-.13,5.19,5.19,0,0,0-1.33.16,3.54,3.54,0,0,0-1,.44,2,2,0,0,0-.67.68,1.74,1.74,0,0,0-.23.89,2.28,2.28,0,0,0,.19.92,2.16,2.16,0,0,0,.52.74,2.5,2.5,0,0,0,.8.49A2.69,2.69,0,0,0,51,321.46Z" transform="translate(-17.29 -257.16)"></path><path class="cls-7 wDVmuIsr_64" d="M58.94,325.32l.28,0,.35,0a.94.94,0,0,0,.31-.09.71.71,0,0,0,.21-.16,2.34,2.34,0,0,0,.26-.42q.17-.32.43-.94l.71-1.69-4.35-9.74h1L62,321.1l3.62-8.83h.92l-5.34,12.82a1.65,1.65,0,0,1-.67.82,2.32,2.32,0,0,1-1.25.29h-.16l-.18,0Z" transform="translate(-17.29 -257.16)"></path><path class="cls-7 wDVmuIsr_65" d="M73,322v-13.3h1v8.08l7.76-8.08h1.11l-5.53,5.83L83.09,322H82l-5.34-6.9-2.72,2.79V322Z" transform="translate(-17.29 -257.16)"></path><path class="cls-7 wDVmuIsr_66" d="M87.31,322.21q-3.11,0-3.11-4.31v-5.62h.94v5.49q0,3.6,2.45,3.6a3.42,3.42,0,0,0,1.2-.22,4.2,4.2,0,0,0,2-1.53,4.72,4.72,0,0,0,.61-1.2v-6.15h.94v8.43q0,.47.39.47V322l-.17,0h-.11a1,1,0,0,1-.67-.23.77.77,0,0,1-.29-.63v-1.46a4.69,4.69,0,0,1-4.16,2.49Z" transform="translate(-17.29 -257.16)"></path><path class="cls-7 wDVmuIsr_67" d="M109.6,322h-.94v-5.43a5.13,5.13,0,0,0-.57-2.74,1.94,1.94,0,0,0-1.75-.88,3,3,0,0,0-1.14.22,3.46,3.46,0,0,0-1,.63,4,4,0,0,0-.78,1,5,5,0,0,0-.52,1.23v6H102v-5.43a5.2,5.2,0,0,0-.56-2.75,1.93,1.93,0,0,0-1.74-.87,3,3,0,0,0-1.13.22,3.35,3.35,0,0,0-1,.62,4.43,4.43,0,0,0-.8,1,4.6,4.6,0,0,0-.53,1.23v6h-.94v-9.74h.88v2.32a4.75,4.75,0,0,1,1.57-1.84,3.78,3.78,0,0,1,2.15-.66,2.79,2.79,0,0,1,2,.73,3.08,3.08,0,0,1,.92,1.91,4.23,4.23,0,0,1,3.82-2.64,2.45,2.45,0,0,1,2.28,1.13,6.17,6.17,0,0,1,.68,3.18Z" transform="translate(-17.29 -257.16)"></path><path class="cls-7 wDVmuIsr_68" d="M114.83,322.21a3.34,3.34,0,0,1-2.28-.87,2.81,2.81,0,0,1-.68-1,2.91,2.91,0,0,1-.24-1.19,2.3,2.3,0,0,1,.3-1.16,2.88,2.88,0,0,1,.83-.91,4.14,4.14,0,0,1,1.28-.6,6,6,0,0,1,1.65-.22,9.14,9.14,0,0,1,1.58.14,7.86,7.86,0,0,1,1.43.38v-1a3,3,0,0,0-.79-2.2,2.83,2.83,0,0,0-2.14-.81,4.29,4.29,0,0,0-1.51.3,7.69,7.69,0,0,0-1.62.86l-.36-.64a6.39,6.39,0,0,1,3.56-1.27,3.73,3.73,0,0,1,2.77,1,3.83,3.83,0,0,1,1,2.82v4.76q0,.47.41.47V322l-.2,0h-.18a.76.76,0,0,1-.6-.25,1.06,1.06,0,0,1-.26-.61v-.81a4.38,4.38,0,0,1-1.72,1.35A5.5,5.5,0,0,1,114.83,322.21Zm.19-.75a4.77,4.77,0,0,0,2-.41,3.42,3.42,0,0,0,1.4-1.09,1.26,1.26,0,0,0,.3-.75v-1.72a7.59,7.59,0,0,0-1.41-.39,8.63,8.63,0,0,0-1.52-.13,5.19,5.19,0,0,0-1.33.16,3.54,3.54,0,0,0-1,.44,2,2,0,0,0-.67.68,1.74,1.74,0,0,0-.23.89,2.28,2.28,0,0,0,.19.92,2.16,2.16,0,0,0,.52.74,2.5,2.5,0,0,0,.8.49A2.69,2.69,0,0,0,115,321.46Z" transform="translate(-17.29 -257.16)"></path><path class="cls-7 wDVmuIsr_69" d="M127.11,313.12a3.83,3.83,0,0,0-3.67,2.81V322h-.94v-9.74h.9v2.4a4.7,4.7,0,0,1,1.34-1.68,3.43,3.43,0,0,1,1.79-.74l.34,0h.24Z" transform="translate(-17.29 -257.16)"></path><path class="cls-7 wDVmuIsr_70" d="M143.33,319.94a5.84,5.84,0,0,1-4.48,2.17,5.47,5.47,0,0,1-2.5-.58,6.36,6.36,0,0,1-2-1.54,7.31,7.31,0,0,1-1.29-2.17,6.83,6.83,0,0,1-.47-2.47,7.1,7.1,0,0,1,.46-2.53,7,7,0,0,1,1.27-2.15,6.13,6.13,0,0,1,1.94-1.49,5.49,5.49,0,0,1,2.45-.55,6.88,6.88,0,0,1,1.79.22,5.45,5.45,0,0,1,1.42.6,4.57,4.57,0,0,1,1.09.92,5.72,5.72,0,0,1,.78,1.17L143,312a4.28,4.28,0,0,0-1.79-1.9,5.31,5.31,0,0,0-2.52-.59,4.49,4.49,0,0,0-2.14.51,5.27,5.27,0,0,0-1.63,1.33,5.94,5.94,0,0,0-1,1.87,6.65,6.65,0,0,0-.36,2.15,6.11,6.11,0,0,0,.41,2.24,6.05,6.05,0,0,0,1.13,1.86,5.51,5.51,0,0,0,1.7,1.28,4.7,4.7,0,0,0,2.1.48,5,5,0,0,0,2.31-.56,6.89,6.89,0,0,0,2.11-1.78v-2.57h-3v-.77h3.84V322h-.82Z" transform="translate(-17.29 -257.16)"></path><path class="cls-7 wDVmuIsr_71" d="M149.08,322.21a3.34,3.34,0,0,1-2.28-.87,2.81,2.81,0,0,1-.68-1,2.91,2.91,0,0,1-.24-1.19,2.3,2.3,0,0,1,.3-1.16,2.88,2.88,0,0,1,.83-.91,4.14,4.14,0,0,1,1.28-.6,6,6,0,0,1,1.65-.22,9.14,9.14,0,0,1,1.58.14,7.86,7.86,0,0,1,1.43.38v-1a3,3,0,0,0-.79-2.2,2.83,2.83,0,0,0-2.14-.81,4.29,4.29,0,0,0-1.51.3,7.69,7.69,0,0,0-1.62.86l-.36-.64a6.39,6.39,0,0,1,3.56-1.27,3.73,3.73,0,0,1,2.77,1,3.83,3.83,0,0,1,1,2.82v4.76q0,.47.41.47V322l-.2,0h-.18a.76.76,0,0,1-.6-.25,1.06,1.06,0,0,1-.26-.61v-.81a4.38,4.38,0,0,1-1.72,1.35A5.5,5.5,0,0,1,149.08,322.21Zm.19-.75a4.77,4.77,0,0,0,2-.41,3.42,3.42,0,0,0,1.4-1.09,1.26,1.26,0,0,0,.3-.75v-1.72a7.59,7.59,0,0,0-1.41-.39A8.63,8.63,0,0,0,150,317a5.19,5.19,0,0,0-1.33.16,3.54,3.54,0,0,0-1,.44,2,2,0,0,0-.67.68,1.74,1.74,0,0,0-.23.89,2.28,2.28,0,0,0,.19.92,2.16,2.16,0,0,0,.52.74,2.5,2.5,0,0,0,.8.49A2.69,2.69,0,0,0,149.27,321.46Z" transform="translate(-17.29 -257.16)"></path><path class="cls-7 wDVmuIsr_72" d="M161.36,313.12a3.83,3.83,0,0,0-3.67,2.81V322h-.94v-9.74h.9v2.4A4.7,4.7,0,0,1,159,313a3.43,3.43,0,0,1,1.79-.74l.34,0h.24Z" transform="translate(-17.29 -257.16)"></path><path class="cls-7 wDVmuIsr_73" d="M166.59,322.17a4.09,4.09,0,0,1-1.85-.42,4.66,4.66,0,0,1-1.45-1.12,5.37,5.37,0,0,1-1-1.6,5.11,5.11,0,0,1-.35-1.85,5.63,5.63,0,0,1,.33-1.91,5.14,5.14,0,0,1,.93-1.62,4.46,4.46,0,0,1,1.43-1.11,4.11,4.11,0,0,1,1.85-.41,3.76,3.76,0,0,1,2.22.67,6.39,6.39,0,0,1,1.6,1.62v-2.12h.86v9.93a3.86,3.86,0,0,1-.37,1.74,3.65,3.65,0,0,1-1,1.25,4.4,4.4,0,0,1-1.46.75,6,6,0,0,1-1.75.25,6.63,6.63,0,0,1-1.52-.16,4.52,4.52,0,0,1-1.19-.45,3.93,3.93,0,0,1-.92-.71,5.08,5.08,0,0,1-.7-.93l.64-.43a3.5,3.5,0,0,0,1.57,1.45,5,5,0,0,0,2.12.46,4.77,4.77,0,0,0,1.42-.21,3.45,3.45,0,0,0,1.16-.61,2.91,2.91,0,0,0,.79-1,3.2,3.2,0,0,0,.29-1.41v-2.14a4.5,4.5,0,0,1-1.59,1.53A4.11,4.11,0,0,1,166.59,322.17Zm.22-.81a3.25,3.25,0,0,0,1.21-.23,4.26,4.26,0,0,0,1.07-.61,3.57,3.57,0,0,0,.79-.84,2.38,2.38,0,0,0,.38-.94v-3.2a4.2,4.2,0,0,0-.6-1,4,4,0,0,0-.85-.82,4.25,4.25,0,0,0-1-.53,3.3,3.3,0,0,0-1.12-.2,3.26,3.26,0,0,0-1.57.37,3.77,3.77,0,0,0-1.17,1,4.38,4.38,0,0,0-.73,1.36,4.81,4.81,0,0,0-.25,1.53,4.24,4.24,0,0,0,.3,1.59,4.41,4.41,0,0,0,.82,1.33,3.89,3.89,0,0,0,1.24.92A3.5,3.5,0,0,0,166.81,321.37Z" transform="translate(-17.29 -257.16)"></path><path class="cls-7 wDVmuIsr_74" d="M188.08,321.16V322h-8.86v-13.3h8.69v.86h-7.74v5.23h6.76v.82h-6.76v5.53Z" transform="translate(-17.29 -257.16)"></path><path class="cls-7 wDVmuIsr_75" d="M198.25,322h-.94v-5.43a5.42,5.42,0,0,0-.53-2.75,1.85,1.85,0,0,0-1.7-.86,3.52,3.52,0,0,0-1.23.22,4.16,4.16,0,0,0-1.13.64,4.63,4.63,0,0,0-.92,1,4,4,0,0,0-.58,1.19v6h-.94v-9.74h.88v2.32a4.57,4.57,0,0,1,.74-1,4.67,4.67,0,0,1,1-.79,5,5,0,0,1,1.17-.51,4.58,4.58,0,0,1,1.27-.18,2.39,2.39,0,0,1,2.25,1.11,6.36,6.36,0,0,1,.66,3.19Z" transform="translate(-17.29 -257.16)"></path><path class="cls-7 wDVmuIsr_76" d="M205,322.17a4.09,4.09,0,0,1-1.85-.42,4.66,4.66,0,0,1-1.45-1.12,5.37,5.37,0,0,1-1-1.6,5.11,5.11,0,0,1-.35-1.85,5.63,5.63,0,0,1,.33-1.91,5.14,5.14,0,0,1,.93-1.62,4.46,4.46,0,0,1,1.43-1.11,4.11,4.11,0,0,1,1.85-.41,3.76,3.76,0,0,1,2.22.67,6.39,6.39,0,0,1,1.6,1.62v-2.12h.86v9.93a3.86,3.86,0,0,1-.37,1.74,3.65,3.65,0,0,1-1,1.25,4.4,4.4,0,0,1-1.46.75,6,6,0,0,1-1.75.25,6.63,6.63,0,0,1-1.52-.16,4.52,4.52,0,0,1-1.19-.45,3.93,3.93,0,0,1-.92-.71,5.08,5.08,0,0,1-.7-.93l.64-.43a3.5,3.5,0,0,0,1.57,1.45,5,5,0,0,0,2.12.46,4.77,4.77,0,0,0,1.42-.21,3.45,3.45,0,0,0,1.16-.61,2.91,2.91,0,0,0,.79-1,3.2,3.2,0,0,0,.29-1.41v-2.14a4.5,4.5,0,0,1-1.59,1.53A4.11,4.11,0,0,1,205,322.17Zm.22-.81a3.25,3.25,0,0,0,1.21-.23,4.26,4.26,0,0,0,1.07-.61,3.57,3.57,0,0,0,.79-.84,2.38,2.38,0,0,0,.38-.94v-3.2a4.2,4.2,0,0,0-.6-1,4,4,0,0,0-.85-.82,4.25,4.25,0,0,0-1-.53,3.3,3.3,0,0,0-1.12-.2,3.26,3.26,0,0,0-1.57.37,3.77,3.77,0,0,0-1.17,1,4.38,4.38,0,0,0-.73,1.36,4.81,4.81,0,0,0-.25,1.53,4.24,4.24,0,0,0,.3,1.59,4.41,4.41,0,0,0,.82,1.33,3.89,3.89,0,0,0,1.24.92A3.5,3.5,0,0,0,205.24,321.37Z" transform="translate(-17.29 -257.16)"></path><path class="cls-7 wDVmuIsr_77" d="M212.55,310.07v-1.72h.94v1.72Zm0,12v-9.74h.94V322Z" transform="translate(-17.29 -257.16)"></path><path class="cls-7 wDVmuIsr_78" d="M224.39,322h-.94v-5.43a5.42,5.42,0,0,0-.53-2.75,1.85,1.85,0,0,0-1.7-.86,3.52,3.52,0,0,0-1.23.22,4.16,4.16,0,0,0-1.13.64,4.63,4.63,0,0,0-.92,1,4,4,0,0,0-.58,1.19v6h-.94v-9.74h.88v2.32a4.57,4.57,0,0,1,.74-1,4.67,4.67,0,0,1,1-.79,5,5,0,0,1,1.17-.51,4.58,4.58,0,0,1,1.27-.18,2.39,2.39,0,0,1,2.25,1.11,6.36,6.36,0,0,1,.66,3.19Z" transform="translate(-17.29 -257.16)"></path><path class="cls-7 wDVmuIsr_79" d="M231.36,322.21a4.54,4.54,0,0,1-1.91-.4,4.72,4.72,0,0,1-1.53-1.11,5.25,5.25,0,0,1-1.38-3.59,5.16,5.16,0,0,1,1.37-3.53,4.67,4.67,0,0,1,1.51-1.08,4.72,4.72,0,0,1,3.79,0,4.75,4.75,0,0,1,1.52,1.09,5,5,0,0,1,1,1.59,5.22,5.22,0,0,1,.36,1.92v.23a.51.51,0,0,1,0,.18h-8.54a4.35,4.35,0,0,0,.39,1.56,4.45,4.45,0,0,0,.85,1.25,3.83,3.83,0,0,0,1.19.82,3.51,3.51,0,0,0,1.44.3,3.57,3.57,0,0,0,1-.14,4.05,4.05,0,0,0,.91-.38,3.29,3.29,0,0,0,.75-.59,2.77,2.77,0,0,0,.52-.76l.82.23a3.11,3.11,0,0,1-.61,1,4.11,4.11,0,0,1-.94.76,4.77,4.77,0,0,1-1.17.5A4.85,4.85,0,0,1,231.36,322.21Zm3.82-5.43a4.43,4.43,0,0,0-.38-1.57A4.22,4.22,0,0,0,234,314a3.79,3.79,0,0,0-1.19-.81,3.73,3.73,0,0,0-2.89,0,3.79,3.79,0,0,0-1.19.81,3.9,3.9,0,0,0-.82,1.24,4.75,4.75,0,0,0-.37,1.56Z" transform="translate(-17.29 -257.16)"></path><path class="cls-7 wDVmuIsr_80" d="M242.29,322.21a4.54,4.54,0,0,1-1.91-.4,4.74,4.74,0,0,1-1.53-1.11,5.25,5.25,0,0,1-1.38-3.59,5.16,5.16,0,0,1,1.37-3.53,4.65,4.65,0,0,1,1.51-1.08,4.72,4.72,0,0,1,3.79,0,4.77,4.77,0,0,1,1.52,1.09,5,5,0,0,1,1,1.59,5.2,5.2,0,0,1,.36,1.92v.23a.54.54,0,0,1,0,.18h-8.54a4.35,4.35,0,0,0,.39,1.56,4.46,4.46,0,0,0,.85,1.25,3.84,3.84,0,0,0,1.19.82,3.6,3.6,0,0,0,2.44.16,4,4,0,0,0,.91-.38,3.27,3.27,0,0,0,.75-.59,2.76,2.76,0,0,0,.52-.76l.82.23a3.11,3.11,0,0,1-.61,1,4.15,4.15,0,0,1-.94.76,4.75,4.75,0,0,1-1.17.5A4.84,4.84,0,0,1,242.29,322.21Zm3.82-5.43a4.41,4.41,0,0,0-.38-1.57,4.21,4.21,0,0,0-.84-1.23,3.75,3.75,0,0,0-1.19-.81,3.73,3.73,0,0,0-2.88,0,3.77,3.77,0,0,0-1.19.81,3.9,3.9,0,0,0-.83,1.24,4.75,4.75,0,0,0-.37,1.56Z" transform="translate(-17.29 -257.16)"></path><path class="cls-7 wDVmuIsr_81" d="M253.68,313.12a3.83,3.83,0,0,0-3.67,2.81V322h-.94v-9.74h.9v2.4a4.69,4.69,0,0,1,1.34-1.68,3.43,3.43,0,0,1,1.79-.74l.34,0h.24Z" transform="translate(-17.29 -257.16)"></path><path class="cls-7 wDVmuIsr_82" d="M255.46,310.07v-1.72h.94v1.72Zm0,12v-9.74h.94V322Z" transform="translate(-17.29 -257.16)"></path><path class="cls-7 wDVmuIsr_83" d="M267.3,322h-.94v-5.43a5.41,5.41,0,0,0-.53-2.75,1.85,1.85,0,0,0-1.7-.86,3.51,3.51,0,0,0-1.23.22,4.16,4.16,0,0,0-1.13.64,4.63,4.63,0,0,0-.92,1,4,4,0,0,0-.58,1.19v6h-.94v-9.74h.88v2.32a4.61,4.61,0,0,1,.74-1,4.71,4.71,0,0,1,1-.79,5,5,0,0,1,1.17-.51,4.59,4.59,0,0,1,1.27-.18,2.4,2.4,0,0,1,2.25,1.11,6.37,6.37,0,0,1,.66,3.19Z" transform="translate(-17.29 -257.16)"></path><path class="cls-7 wDVmuIsr_84" d="M274.06,322.17a4.1,4.1,0,0,1-1.86-.42,4.67,4.67,0,0,1-1.45-1.12,5.37,5.37,0,0,1-1-1.6,5.11,5.11,0,0,1-.35-1.85,5.63,5.63,0,0,1,.33-1.91,5.12,5.12,0,0,1,.93-1.62,4.48,4.48,0,0,1,1.43-1.11,4.11,4.11,0,0,1,1.85-.41,3.76,3.76,0,0,1,2.22.67,6.36,6.36,0,0,1,1.6,1.62v-2.12h.86v9.93a3.85,3.85,0,0,1-.37,1.74,3.65,3.65,0,0,1-1,1.25,4.4,4.4,0,0,1-1.46.75,6,6,0,0,1-1.75.25,6.63,6.63,0,0,1-1.52-.16,4.5,4.5,0,0,1-1.19-.45,3.93,3.93,0,0,1-.92-.71,5.07,5.07,0,0,1-.7-.93l.64-.43A3.5,3.5,0,0,0,272,325a5,5,0,0,0,2.12.46,4.76,4.76,0,0,0,1.42-.21,3.44,3.44,0,0,0,1.16-.61,2.9,2.9,0,0,0,.79-1,3.2,3.2,0,0,0,.29-1.41v-2.14a4.51,4.51,0,0,1-1.59,1.53A4.11,4.11,0,0,1,274.06,322.17Zm.22-.81a3.25,3.25,0,0,0,1.21-.23,4.25,4.25,0,0,0,1.07-.61,3.55,3.55,0,0,0,.79-.84,2.4,2.4,0,0,0,.38-.94v-3.2a4.25,4.25,0,0,0-.6-1,4.06,4.06,0,0,0-.85-.82,4.25,4.25,0,0,0-1-.53,3.3,3.3,0,0,0-1.11-.2,3.26,3.26,0,0,0-1.57.37,3.78,3.78,0,0,0-1.17,1,4.4,4.4,0,0,0-.73,1.36,4.82,4.82,0,0,0-.25,1.53,4.26,4.26,0,0,0,.3,1.59,4.4,4.4,0,0,0,.83,1.33,3.89,3.89,0,0,0,1.24.92A3.5,3.5,0,0,0,274.29,321.37Z" transform="translate(-17.29 -257.16)"></path><path class="cls-7 wDVmuIsr_85" d="M285.77,315.28a7.11,7.11,0,0,1,.42-2.39,6.63,6.63,0,0,1,1.23-2.13,6.32,6.32,0,0,1,2-1.53,5.85,5.85,0,0,1,2.67-.59,5.46,5.46,0,0,1,3,.82,5.15,5.15,0,0,1,1.87,2.09l-.79.45a4.48,4.48,0,0,0-.83-1.16,4.42,4.42,0,0,0-1-.76,4.57,4.57,0,0,0-1.15-.42,5.51,5.51,0,0,0-1.18-.13,4.74,4.74,0,0,0-2.25.52,5.33,5.33,0,0,0-1.65,1.34,5.83,5.83,0,0,0-1,1.86,6.56,6.56,0,0,0-.35,2.09,6.18,6.18,0,0,0,.41,2.25,6.26,6.26,0,0,0,1.12,1.88,5.46,5.46,0,0,0,1.69,1.3,4.63,4.63,0,0,0,2.1.49,5.38,5.38,0,0,0,1.24-.15,4.81,4.81,0,0,0,1.22-.47,4.93,4.93,0,0,0,1.09-.81,4.33,4.33,0,0,0,.84-1.17l.82.39a4.45,4.45,0,0,1-.92,1.33,5.79,5.79,0,0,1-1.29,1,6.15,6.15,0,0,1-1.51.59,6.49,6.49,0,0,1-1.56.2,5.26,5.26,0,0,1-2.5-.6,6.6,6.6,0,0,1-2-1.56,7.27,7.27,0,0,1-1.28-2.19A7.09,7.09,0,0,1,285.77,315.28Z" transform="translate(-17.29 -257.16)"></path><path class="cls-7 wDVmuIsr_86" d="M303.42,322.21a4.48,4.48,0,0,1-1.9-.4,4.71,4.71,0,0,1-1.51-1.1,5.06,5.06,0,0,1-1-1.61,5.29,5.29,0,0,1-.36-1.93,5.25,5.25,0,0,1,1.37-3.56,4.7,4.7,0,0,1,1.51-1.1,4.43,4.43,0,0,1,1.88-.4,4.37,4.37,0,0,1,1.87.4,4.87,4.87,0,0,1,1.51,1.1,5.12,5.12,0,0,1,1,1.61,5.28,5.28,0,0,1-1,5.49,4.7,4.7,0,0,1-1.51,1.1A4.44,4.44,0,0,1,303.42,322.21Zm-3.82-5a4.36,4.36,0,0,0,.3,1.62,4.24,4.24,0,0,0,.82,1.32,3.87,3.87,0,0,0,1.21.89,3.5,3.5,0,0,0,3,0,3.84,3.84,0,0,0,1.22-.91,4.52,4.52,0,0,0,.83-4.6,4.27,4.27,0,0,0-.83-1.33,4.08,4.08,0,0,0-1.21-.91,3.28,3.28,0,0,0-1.47-.34,3.34,3.34,0,0,0-1.48.34,3.86,3.86,0,0,0-1.21.92,4.57,4.57,0,0,0-.82,1.36A4.4,4.4,0,0,0,299.6,317.21Z" transform="translate(-17.29 -257.16)"></path><path class="cls-7 wDVmuIsr_87" d="M310.51,308.34h1v11.75a1.18,1.18,0,0,0,.31.86,1.13,1.13,0,0,0,.85.32,3.19,3.19,0,0,0,.5,0,2.62,2.62,0,0,0,.53-.14l.19.75a3.94,3.94,0,0,1-.79.22,4.65,4.65,0,0,1-.81.08,1.71,1.71,0,0,1-1.26-.48,1.73,1.73,0,0,1-.48-1.28Z" transform="translate(-17.29 -257.16)"></path><path class="cls-7 wDVmuIsr_88" d="M315.36,308.34h1v11.75a1.18,1.18,0,0,0,.31.86,1.13,1.13,0,0,0,.85.32,3.19,3.19,0,0,0,.5,0,2.62,2.62,0,0,0,.53-.14l.19.75a3.94,3.94,0,0,1-.79.22,4.65,4.65,0,0,1-.81.08,1.71,1.71,0,0,1-1.26-.48,1.73,1.73,0,0,1-.48-1.28Z" transform="translate(-17.29 -257.16)"></path><path class="cls-7 wDVmuIsr_89" d="M324.28,322.21a4.54,4.54,0,0,1-1.91-.4,4.72,4.72,0,0,1-1.53-1.11,5.22,5.22,0,0,1-1-1.62,5.28,5.28,0,0,1-.37-2,5.16,5.16,0,0,1,.37-1.94,5.1,5.1,0,0,1,1-1.59,4.65,4.65,0,0,1,1.51-1.08,4.72,4.72,0,0,1,3.79,0,4.75,4.75,0,0,1,1.52,1.09,5,5,0,0,1,1,1.59,5.22,5.22,0,0,1,.36,1.92v.23a.5.5,0,0,1,0,.18h-8.54a4.32,4.32,0,0,0,.39,1.56,4.44,4.44,0,0,0,.85,1.25,3.81,3.81,0,0,0,1.19.82,3.51,3.51,0,0,0,1.44.3,3.56,3.56,0,0,0,1-.14,4,4,0,0,0,.91-.38,3.27,3.27,0,0,0,.75-.59,2.76,2.76,0,0,0,.52-.76l.82.23a3.11,3.11,0,0,1-.61,1,4.11,4.11,0,0,1-.94.76,4.76,4.76,0,0,1-1.17.5A4.85,4.85,0,0,1,324.28,322.21Zm3.82-5.43a4.41,4.41,0,0,0-.38-1.57,4.21,4.21,0,0,0-.84-1.23,3.77,3.77,0,0,0-1.19-.81,3.73,3.73,0,0,0-2.89,0,3.79,3.79,0,0,0-1.19.81,3.9,3.9,0,0,0-.82,1.24,4.76,4.76,0,0,0-.37,1.56Z" transform="translate(-17.29 -257.16)"></path><path class="cls-7 wDVmuIsr_90" d="M335,322.17a4.1,4.1,0,0,1-1.86-.42,4.67,4.67,0,0,1-1.45-1.12,5.37,5.37,0,0,1-1-1.6,5.11,5.11,0,0,1-.35-1.85,5.63,5.63,0,0,1,.33-1.91,5.12,5.12,0,0,1,.93-1.62,4.48,4.48,0,0,1,1.43-1.11,4.11,4.11,0,0,1,1.85-.41,3.76,3.76,0,0,1,2.22.67,6.36,6.36,0,0,1,1.6,1.62v-2.12h.86v9.93a3.85,3.85,0,0,1-.37,1.74,3.65,3.65,0,0,1-1,1.25,4.4,4.4,0,0,1-1.46.75,6,6,0,0,1-1.75.25,6.63,6.63,0,0,1-1.52-.16,4.5,4.5,0,0,1-1.19-.45,3.93,3.93,0,0,1-.92-.71,5.07,5.07,0,0,1-.7-.93l.64-.43A3.5,3.5,0,0,0,332.9,325a5,5,0,0,0,2.12.46,4.76,4.76,0,0,0,1.42-.21,3.44,3.44,0,0,0,1.16-.61,2.9,2.9,0,0,0,.79-1,3.2,3.2,0,0,0,.29-1.41v-2.14a4.51,4.51,0,0,1-1.59,1.53A4.11,4.11,0,0,1,335,322.17Zm.22-.81a3.25,3.25,0,0,0,1.21-.23,4.25,4.25,0,0,0,1.07-.61,3.55,3.55,0,0,0,.79-.84,2.4,2.4,0,0,0,.38-.94v-3.2a4.25,4.25,0,0,0-.6-1,4.06,4.06,0,0,0-.85-.82,4.25,4.25,0,0,0-1-.53,3.3,3.3,0,0,0-1.11-.2,3.26,3.26,0,0,0-1.57.37,3.78,3.78,0,0,0-1.17,1,4.4,4.4,0,0,0-.73,1.36,4.82,4.82,0,0,0-.25,1.53,4.26,4.26,0,0,0,.3,1.59,4.4,4.4,0,0,0,.83,1.33,3.89,3.89,0,0,0,1.24.92A3.5,3.5,0,0,0,335.22,321.37Z" transform="translate(-17.29 -257.16)"></path><path class="cls-7 wDVmuIsr_91" d="M346.67,322.21a4.54,4.54,0,0,1-1.91-.4,4.72,4.72,0,0,1-1.53-1.11,5.22,5.22,0,0,1-1-1.62,5.28,5.28,0,0,1-.37-2,5.16,5.16,0,0,1,.37-1.94,5.1,5.1,0,0,1,1-1.59,4.65,4.65,0,0,1,1.51-1.08,4.72,4.72,0,0,1,3.79,0A4.75,4.75,0,0,1,350,313.6a5,5,0,0,1,1,1.59,5.22,5.22,0,0,1,.36,1.92v.23a.5.5,0,0,1,0,.18h-8.54a4.32,4.32,0,0,0,.39,1.56,4.44,4.44,0,0,0,.85,1.25,3.81,3.81,0,0,0,1.19.82,3.51,3.51,0,0,0,1.44.3,3.56,3.56,0,0,0,1-.14,4,4,0,0,0,.91-.38,3.27,3.27,0,0,0,.75-.59,2.76,2.76,0,0,0,.52-.76l.82.23a3.11,3.11,0,0,1-.61,1,4.11,4.11,0,0,1-.94.76,4.76,4.76,0,0,1-1.17.5A4.85,4.85,0,0,1,346.67,322.21Zm3.82-5.43a4.41,4.41,0,0,0-.38-1.57,4.21,4.21,0,0,0-.84-1.23,3.77,3.77,0,0,0-1.19-.81,3.73,3.73,0,0,0-2.89,0A3.79,3.79,0,0,0,344,314a3.9,3.9,0,0,0-.82,1.24,4.76,4.76,0,0,0-.37,1.56Z" transform="translate(-17.29 -257.16)"></path><text class="cls-8" transform="translate(159.71 238.14)">in associ<tspan class="cls-9" x="65.3" y="0">a</tspan><tspan x="74.21" y="0">tion with</tspan></text><path class="cls-7 wDVmuIsr_92" d="M368.2,488.41c1.09,9.94-9.31,20-19,19.55-10.36-.46-18.88-8.05-19-19.13-.17-10.49,9.1-19,18.38-19.42C358.68,468.9,369.17,478.51,368.2,488.41Z" transform="translate(-17.29 -257.16)"></path><path class="cls-7 wDVmuIsr_93" d="M350.42,515.21c-5.16,0-10.32,0-15.48,0-3.15,0-3.15-.08-3.23-3.15,0-1.38,0-2.77,0-4.2,0-1.26.46-1.89,1.8-1.17,6.8,3.69,14.18,3.61,21.56,3.31a31.89,31.89,0,0,0,11.37-3.1c2.31-1,2.68-.8,2.64,1.76,0,7.47,1,6.46-6.33,6.54-2.1,0-4.2,0-6.29,0Z" transform="translate(-17.29 -257.16)"></path><path class="cls-7 wDVmuIsr_94" d="M362.37,524c0,1.59-.17,3.19-.08,4.78,0,1.26-.67,1.55-1.68,1.64s-2.06-.34-2-1.55c.21-2.27-.88-4.7,1-6.8.63-.71-.21-2,.63-2.73a7.43,7.43,0,0,1,5.54,0h0c.63,1.3.17,3.06,1.59,4.07.55,1.93.13,3.86.25,5.79,0,.46-.17.84-.71.8s-.5-.42-.5-.8a25.29,25.29,0,0,1,0-3.57c.21-1.64-.5-2.14-2-1.89C363.67,523.82,363,523.4,362.37,524Z" transform="translate(-17.29 -257.16)"></path><path class="cls-7 wDVmuIsr_95" d="M332.42,529.81c-1-3.36-.76-6.71-.29-10.11a2.64,2.64,0,0,1,2.35-1c1.85,0,3.69-.29,5.5.21.29.46.92.63.92,1.3,0,.34,0,.67-.46.76a.62.62,0,0,1-.8-.67,8,8,0,0,0-5-.08,3,3,0,0,0,.71,3.06c.92,1,.29,2.27.42,3.4.08.76.08,1.51.13,2.27.38.42,1.51,0,1.38.88s-1,.63-1.55.5C334.64,530.11,333.47,530.4,332.42,529.81Z" transform="translate(-17.29 -257.16)"></path><path class="cls-7 wDVmuIsr_96" d="M354.7,518.86a2.77,2.77,0,0,1,1.3,2.56c-.13,2.31,0,4.57,0,6.88,0,1-.21,1.89-1.43,1.89s-1-1-1.09-1.85a58,58,0,0,1,0-6c.13-1.93-.59-2.56-2.39-2.22-.67.13-.88,1.17-1.76.84h0c-.46-1.17.08-1.85,1.17-2.1A9.45,9.45,0,0,1,354.7,518.86Z" transform="translate(-17.29 -257.16)"></path><path class="cls-7 wDVmuIsr_97" d="M346,520.21c-.55,1.3.29,2.22.84,3.23,0,1.68,0,3.31,0,5,0,1.22-.59,1.85-1.8,1.72a1.64,1.64,0,0,1-1.76-1.85c0-2.39.08-4.74,0-7.13,0-1.38.38-2.06,1.85-2.18,1.22-.08,2.48-.88,3.52.5C347.82,520.33,346.68,519.49,346,520.21Z" transform="translate(-17.29 -257.16)"></path><path class="cls-7 wDVmuIsr_98" d="M346,520.21c.46-1,1.55-.21,2.22-.76-2.77-1.26-4.74-.17-4.74,2.52,0,2,0,4,0,6,0,1.17.38,1.8,1.68,1.8s1.26-1,1.26-1.85a11.86,11.86,0,0,1,.46-4.53c.63,1.85.25,3.69.21,5.58,0,1.22-1,1.55-2.1,1.51s-1.89-.5-1.89-1.76v-8.39a1.36,1.36,0,0,1,1.34-1.55,42.11,42.11,0,0,1,10.28.13c-1,0-2,0-2.94,0-1.26.13-2.35.55-2.43,2.06C348.4,519.83,347.23,520,346,520.21Z" transform="translate(-17.29 -257.16)"></path><path class="cls-7 wDVmuIsr_99" d="M332.42,529.81c1.51-.34,2.94.29,4.45.25.17-.92-.88-.59-1-1.13,4.61.17,3.73.55,3.82-3.78a6.4,6.4,0,0,0-.13-1.26c-.08-.42-.67-.92,0-1.22a1,1,0,0,1,1.22.67s0,.13,0,.17a22.61,22.61,0,0,1,0,5.83,1.39,1.39,0,0,1-.8.88C337.54,530.49,334.94,531.2,332.42,529.81Z" transform="translate(-17.29 -257.16)"></path><path class="cls-7 wDVmuIsr_100" d="M349.28,521c.59-.25,1-1,1.76-.84-1,1.3-.46,2.81-.55,4.24-.08,1.59,0,3.23,0,4.82,0,.5,0,1.13-.59,1.17-.84,0-.67-.71-.67-1.22C349.24,526.42,349.28,523.73,349.28,521Z" transform="translate(-17.29 -257.16)"></path><path class="cls-7 wDVmuIsr_101" d="M362.37,524c3-1.47,4.24-.76,4.24,2.39a5.45,5.45,0,0,0,.42,3.15c.25-2.14.71-4.28-.08-6.42a.25.25,0,0,1-.13-.29q.06-.13.13-.13c.71.92,1.22,6.33.63,7.17a1.09,1.09,0,0,1-.67.38.74.74,0,0,1-.76-.71v-.13c0-1,0-1.93,0-2.94.08-2.68.08-2.68-2.6-2.64C363.17,523.86,362.75,523.94,362.37,524Z" transform="translate(-17.29 -257.16)"></path><path class="cls-7 wDVmuIsr_102" d="M340,518.91c-2.64.17-5.33-.55-7.85.8a1.07,1.07,0,0,1,1-1h0C335.48,518.57,337.75,518.15,340,518.91Z" transform="translate(-17.29 -257.16)"></path><path class="cls-7 wDVmuIsr_103" d="M365.73,519.24a20.4,20.4,0,0,0-5.54,0A4.94,4.94,0,0,1,365.73,519.24Z" transform="translate(-17.29 -257.16)"></path><path class="cls-7 wDVmuIsr_104" d="M366.95,522.68v.42c-1.26-1-1.26-2.43-1.22-3.86C367.07,520,366.06,521.68,366.95,522.68Z" transform="translate(-17.29 -257.16)"></path><path class="cls-7 wDVmuIsr_105" d="M334.64,520.17a5,5,0,0,1,5,.08A21.63,21.63,0,0,0,334.64,520.17Z" transform="translate(-17.29 -257.16)"></path><path class="cls-5 wDVmuIsr_106" d="M333,488.83c0-8.81,7.85-16.66,16.4-16.49,9.06.13,16.74,7.64,16.36,16.66-.42,10.49-7.3,16.28-16.36,16.45C341.27,505.61,333.43,499.69,333,488.83Z" transform="translate(-17.29 -257.16)"></path><path class="cls-7 wDVmuIsr_107" d="M364.81,522.22c-2.35.67-2.68.42-2.43-2C364.76,519.66,365.23,520,364.81,522.22Z" transform="translate(-17.29 -257.16)"></path><path class="cls-7 wDVmuIsr_108" d="M364.81,522.22c.34-2.1-.76-2.43-2.43-2a1.67,1.67,0,0,1,2.35-.25s.13.08.17.13a1.29,1.29,0,0,1,.21,1.85Z" transform="translate(-17.29 -257.16)"></path><path class="cls-7 wDVmuIsr_109" d="M348.91,503.34c-2.43.71-8-1-9.27-3a1.05,1.05,0,0,1,.08-1.47l0,0c2-2,3.94-4.11,6-6,1.26-1.17,2.22,0,3.15.84C349.07,496.92,349.45,500.11,348.91,503.34Z" transform="translate(-17.29 -257.16)"></path><path class="cls-7 wDVmuIsr_110" d="M349.74,500.83c0-2.22.13-4.45,0-6.67,0-1.09.63-1.43,1.38-1.8s1.43.17,1.68.71c1.17,2.48,3.73,3.44,5.5,5.2,1,1,1.13,1.55.08,2.39a16.13,16.13,0,0,1-7.51,3.27c-1.76.25-.76-1.26-1.17-1.85a.81.81,0,0,1,0-1.17S349.7,500.83,349.74,500.83Z" transform="translate(-17.29 -257.16)"></path><path class="cls-7 wDVmuIsr_111" d="M358.76,489a25.44,25.44,0,0,0,3.1,0c1.93-.25,2.35.71,1.93,2.31a16.69,16.69,0,0,1-2.85,6.42c-.59.71-1.09,1-1.59.17-1.55-2.27-4-3.61-5.75-5.62a1.84,1.84,0,0,1-.55-2A1.77,1.77,0,0,1,355,489c1.3,0,2.56,0,3.78,0Z" transform="translate(-17.29 -257.16)"></path><path class="cls-7 wDVmuIsr_112" d="M358.72,487.95c-1.38,0-2.77.08-4.15,0s-2.39-1.93-1.43-2.85c2-1.93,3.69-4.15,5.83-5.92.71-.59,1-.5,1.47.08a18,18,0,0,1,3.44,7.3c.21,1-.08,1.47-1.13,1.47C361.37,487.95,360,487.95,358.72,487.95Z" transform="translate(-17.29 -257.16)"></path><path class="cls-7 wDVmuIsr_113" d="M343.87,484a10.68,10.68,0,0,1,1.09,1.26,2,2,0,0,1-1.38,2.89c-2.64,0-5.29,0-7.93,0-1.09,0-1.47-.38-1.26-1.51a18.56,18.56,0,0,1,3-7,1.15,1.15,0,0,1,1.89-.25C340.73,481.07,342.78,482.11,343.87,484Z" transform="translate(-17.29 -257.16)"></path><path class="cls-7 wDVmuIsr_114" d="M349.33,474.4c2.14-.63,7.26,1,8.64,2.64.59.71.17,1.09-.25,1.59-1.68,2-3.69,3.73-5.41,5.71-1,1.13-2.1,0-3-.71A15.39,15.39,0,0,1,349.33,474.4Z" transform="translate(-17.29 -257.16)"></path><path class="cls-7 wDVmuIsr_115" d="M339.72,489.54c1.26,0,2.52,0,3.78,0a1.65,1.65,0,0,1,1.76,1.13c.38.76-.17,1.17-.59,1.64-1.89,2-3.73,3.94-5.62,5.92-.67.71-1.26.5-1.72-.17a16.36,16.36,0,0,1-3-7.26c-.13-.92.34-1.26,1.17-1.26Z" transform="translate(-17.29 -257.16)"></path><path class="cls-7 wDVmuIsr_116" d="M339.72,478.93c-.34-.84-.5-1.43.63-2.1a27.23,27.23,0,0,1,5.87-2.6,2.24,2.24,0,0,1,2.18.17,18.42,18.42,0,0,1,0,9.19c-1.26,1.59-2.52,1.47-3.78,0C342.57,482.58,341.14,480.77,339.72,478.93Z" transform="translate(-17.29 -257.16)"></path><path class="cls-10 wDVmuIsr_117" d="M339.72,478.93c2.14,1,3.31,3.15,5,4.7-.34,0-.63,0-.8.38-1.64-1.43-3.82-2.31-4.57-4.61Z" transform="translate(-17.29 -257.16)"></path><path class="cls-11 wDVmuIsr_118" d="M348.44,483.62c0-3.06,0-6.13,0-9.19h.92v9.23Z" transform="translate(-17.29 -257.16)"></path><path class="cls-7 wDVmuIsr_119" d="M350.5,488.45c-.25,1-.8,1.64-1.8,1.55a1.38,1.38,0,0,1-1.38-1.51,1.49,1.49,0,0,1,1.47-1.47.53.53,0,0,1,.25,0C349.91,487.11,350.29,487.78,350.5,488.45Z" transform="translate(-17.29 -257.16)"></path><path class="cls-12 wDVmuIsr_120" d="M349.74,500.83v1.26l-.84,1.26,0-9.65c.84,1.47.17,3.06.42,4.61C349.45,499.15,349,500.11,349.74,500.83Z" transform="translate(-17.29 -257.16)"></path><style data-made-with="vivus-instant">.wDVmuIsr_0{stroke-dasharray:553 555;stroke-dashoffset:554;animation:wDVmuIsr_draw_0 4000ms ease-in-out 0ms infinite,wDVmuIsr_fade 4000ms linear 0ms infinite;}.wDVmuIsr_1{stroke-dasharray:375 377;stroke-dashoffset:376;animation:wDVmuIsr_draw_1 4000ms ease-in-out 0ms infinite,wDVmuIsr_fade 4000ms linear 0ms infinite;}.wDVmuIsr_2{stroke-dasharray:291 293;stroke-dashoffset:292;animation:wDVmuIsr_draw_2 4000ms ease-in-out 0ms infinite,wDVmuIsr_fade 4000ms linear 0ms infinite;}.wDVmuIsr_3{stroke-dasharray:409 411;stroke-dashoffset:410;animation:wDVmuIsr_draw_3 4000ms ease-in-out 0ms infinite,wDVmuIsr_fade 4000ms linear 0ms infinite;}.wDVmuIsr_4{stroke-dasharray:594 596;stroke-dashoffset:595;animation:wDVmuIsr_draw_4 4000ms ease-in-out 0ms infinite,wDVmuIsr_fade 4000ms linear 0ms infinite;}.wDVmuIsr_5{stroke-dasharray:403 405;stroke-dashoffset:404;animation:wDVmuIsr_draw_5 4000ms ease-in-out 0ms infinite,wDVmuIsr_fade 4000ms linear 0ms infinite;}.wDVmuIsr_6{stroke-dasharray:313 315;stroke-dashoffset:314;animation:wDVmuIsr_draw_6 4000ms ease-in-out 0ms infinite,wDVmuIsr_fade 4000ms linear 0ms infinite;}.wDVmuIsr_7{stroke-dasharray:440 442;stroke-dashoffset:441;animation:wDVmuIsr_draw_7 4000ms ease-in-out 0ms infinite,wDVmuIsr_fade 4000ms linear 0ms infinite;}.wDVmuIsr_8{stroke-dasharray:667 669;stroke-dashoffset:668;animation:wDVmuIsr_draw_8 4000ms ease-in-out 0ms infinite,wDVmuIsr_fade 4000ms linear 0ms infinite;}.wDVmuIsr_9{stroke-dasharray:287 289;stroke-dashoffset:288;animation:wDVmuIsr_draw_9 4000ms ease-in-out 0ms infinite,wDVmuIsr_fade 4000ms linear 0ms infinite;}.wDVmuIsr_10{stroke-dasharray:423 425;stroke-dashoffset:424;animation:wDVmuIsr_draw_10 4000ms ease-in-out 0ms infinite,wDVmuIsr_fade 4000ms linear 0ms infinite;}.wDVmuIsr_11{stroke-dasharray:319 321;stroke-dashoffset:320;animation:wDVmuIsr_draw_11 4000ms ease-in-out 0ms infinite,wDVmuIsr_fade 4000ms linear 0ms infinite;}.wDVmuIsr_12{stroke-dasharray:470 472;stroke-dashoffset:471;animation:wDVmuIsr_draw_12 4000ms ease-in-out 0ms infinite,wDVmuIsr_fade 4000ms linear 0ms infinite;}.wDVmuIsr_13{stroke-dasharray:312 314;stroke-dashoffset:313;animation:wDVmuIsr_draw_13 4000ms ease-in-out 0ms infinite,wDVmuIsr_fade 4000ms linear 0ms infinite;}.wDVmuIsr_14{stroke-dasharray:180 182;stroke-dashoffset:181;animation:wDVmuIsr_draw_14 4000ms ease-in-out 0ms infinite,wDVmuIsr_fade 4000ms linear 0ms infinite;}.wDVmuIsr_15{stroke-dasharray:337 339;stroke-dashoffset:338;animation:wDVmuIsr_draw_15 4000ms ease-in-out 0ms infinite,wDVmuIsr_fade 4000ms linear 0ms infinite;}.wDVmuIsr_16{stroke-dasharray:82 84;stroke-dashoffset:83;animation:wDVmuIsr_draw_16 4000ms ease-in-out 0ms infinite,wDVmuIsr_fade 4000ms linear 0ms infinite;}.wDVmuIsr_17{stroke-dasharray:182 184;stroke-dashoffset:183;animation:wDVmuIsr_draw_17 4000ms ease-in-out 0ms infinite,wDVmuIsr_fade 4000ms linear 0ms infinite;}.wDVmuIsr_18{stroke-dasharray:180 182;stroke-dashoffset:181;animation:wDVmuIsr_draw_18 4000ms ease-in-out 0ms infinite,wDVmuIsr_fade 4000ms linear 0ms infinite;}.wDVmuIsr_19{stroke-dasharray:121 123;stroke-dashoffset:122;animation:wDVmuIsr_draw_19 4000ms ease-in-out 0ms infinite,wDVmuIsr_fade 4000ms linear 0ms infinite;}.wDVmuIsr_20{stroke-dasharray:133 135;stroke-dashoffset:134;animation:wDVmuIsr_draw_20 4000ms ease-in-out 0ms infinite,wDVmuIsr_fade 4000ms linear 0ms infinite;}.wDVmuIsr_21{stroke-dasharray:72 74;stroke-dashoffset:73;animation:wDVmuIsr_draw_21 4000ms ease-in-out 0ms infinite,wDVmuIsr_fade 4000ms linear 0ms infinite;}.wDVmuIsr_22{stroke-dasharray:23 25;stroke-dashoffset:24;animation:wDVmuIsr_draw_22 4000ms ease-in-out 0ms infinite,wDVmuIsr_fade 4000ms linear 0ms infinite;}.wDVmuIsr_23{stroke-dasharray:35 37;stroke-dashoffset:36;animation:wDVmuIsr_draw_23 4000ms ease-in-out 0ms infinite,wDVmuIsr_fade 4000ms linear 0ms infinite;}.wDVmuIsr_24{stroke-dasharray:27 29;stroke-dashoffset:28;animation:wDVmuIsr_draw_24 4000ms ease-in-out 0ms infinite,wDVmuIsr_fade 4000ms linear 0ms infinite;}.wDVmuIsr_25{stroke-dasharray:20 22;stroke-dashoffset:21;animation:wDVmuIsr_draw_25 4000ms ease-in-out 0ms infinite,wDVmuIsr_fade 4000ms linear 0ms infinite;}.wDVmuIsr_26{stroke-dasharray:11 13;stroke-dashoffset:12;animation:wDVmuIsr_draw_26 4000ms ease-in-out 0ms infinite,wDVmuIsr_fade 4000ms linear 0ms infinite;}.wDVmuIsr_27{stroke-dasharray:8 10;stroke-dashoffset:9;animation:wDVmuIsr_draw_27 4000ms ease-in-out 0ms infinite,wDVmuIsr_fade 4000ms linear 0ms infinite;}.wDVmuIsr_28{stroke-dasharray:5 7;stroke-dashoffset:6;animation:wDVmuIsr_draw_28 4000ms ease-in-out 0ms infinite,wDVmuIsr_fade 4000ms linear 0ms infinite;}.wDVmuIsr_29{stroke-dasharray:5 7;stroke-dashoffset:6;animation:wDVmuIsr_draw_29 4000ms ease-in-out 0ms infinite,wDVmuIsr_fade 4000ms linear 0ms infinite;}.wDVmuIsr_30{stroke-dasharray:97 99;stroke-dashoffset:98;animation:wDVmuIsr_draw_30 4000ms ease-in-out 0ms infinite,wDVmuIsr_fade 4000ms linear 0ms infinite;}.wDVmuIsr_31{stroke-dasharray:12 14;stroke-dashoffset:13;animation:wDVmuIsr_draw_31 4000ms ease-in-out 0ms infinite,wDVmuIsr_fade 4000ms linear 0ms infinite;}.wDVmuIsr_32{stroke-dasharray:2 4;stroke-dashoffset:3;animation:wDVmuIsr_draw_32 4000ms ease-in-out 0ms infinite,wDVmuIsr_fade 4000ms linear 0ms infinite;}.wDVmuIsr_33{stroke-dasharray:19 21;stroke-dashoffset:20;animation:wDVmuIsr_draw_33 4000ms ease-in-out 0ms infinite,wDVmuIsr_fade 4000ms linear 0ms infinite;}.wDVmuIsr_34{stroke-dasharray:4 6;stroke-dashoffset:5;animation:wDVmuIsr_draw_34 4000ms ease-in-out 0ms infinite,wDVmuIsr_fade 4000ms linear 0ms infinite;}.wDVmuIsr_35{stroke-dasharray:2 4;stroke-dashoffset:3;animation:wDVmuIsr_draw_35 4000ms ease-in-out 0ms infinite,wDVmuIsr_fade 4000ms linear 0ms infinite;}.wDVmuIsr_36{stroke-dasharray:356 358;stroke-dashoffset:357;animation:wDVmuIsr_draw_36 4000ms ease-in-out 0ms infinite,wDVmuIsr_fade 4000ms linear 0ms infinite;}.wDVmuIsr_37{stroke-dasharray:206 208;stroke-dashoffset:207;animation:wDVmuIsr_draw_37 4000ms ease-in-out 0ms infinite,wDVmuIsr_fade 4000ms linear 0ms infinite;}.wDVmuIsr_38{stroke-dasharray:384 386;stroke-dashoffset:385;animation:wDVmuIsr_draw_38 4000ms ease-in-out 0ms infinite,wDVmuIsr_fade 4000ms linear 0ms infinite;}.wDVmuIsr_39{stroke-dasharray:93 95;stroke-dashoffset:94;animation:wDVmuIsr_draw_39 4000ms ease-in-out 0ms infinite,wDVmuIsr_fade 4000ms linear 0ms infinite;}.wDVmuIsr_40{stroke-dasharray:207 209;stroke-dashoffset:208;animation:wDVmuIsr_draw_40 4000ms ease-in-out 0ms infinite,wDVmuIsr_fade 4000ms linear 0ms infinite;}.wDVmuIsr_41{stroke-dasharray:205 207;stroke-dashoffset:206;animation:wDVmuIsr_draw_41 4000ms ease-in-out 0ms infinite,wDVmuIsr_fade 4000ms linear 0ms infinite;}.wDVmuIsr_42{stroke-dasharray:137 139;stroke-dashoffset:138;animation:wDVmuIsr_draw_42 4000ms ease-in-out 0ms infinite,wDVmuIsr_fade 4000ms linear 0ms infinite;}.wDVmuIsr_43{stroke-dasharray:151 153;stroke-dashoffset:152;animation:wDVmuIsr_draw_43 4000ms ease-in-out 0ms infinite,wDVmuIsr_fade 4000ms linear 0ms infinite;}.wDVmuIsr_44{stroke-dasharray:82 84;stroke-dashoffset:83;animation:wDVmuIsr_draw_44 4000ms ease-in-out 0ms infinite,wDVmuIsr_fade 4000ms linear 0ms infinite;}.wDVmuIsr_45{stroke-dasharray:26 28;stroke-dashoffset:27;animation:wDVmuIsr_draw_45 4000ms ease-in-out 0ms infinite,wDVmuIsr_fade 4000ms linear 0ms infinite;}.wDVmuIsr_46{stroke-dasharray:40 42;stroke-dashoffset:41;animation:wDVmuIsr_draw_46 4000ms ease-in-out 0ms infinite,wDVmuIsr_fade 4000ms linear 0ms infinite;}.wDVmuIsr_47{stroke-dasharray:30 32;stroke-dashoffset:31;animation:wDVmuIsr_draw_47 4000ms ease-in-out 0ms infinite,wDVmuIsr_fade 4000ms linear 0ms infinite;}.wDVmuIsr_48{stroke-dasharray:22 24;stroke-dashoffset:23;animation:wDVmuIsr_draw_48 4000ms ease-in-out 0ms infinite,wDVmuIsr_fade 4000ms linear 0ms infinite;}.wDVmuIsr_49{stroke-dasharray:12 14;stroke-dashoffset:13;animation:wDVmuIsr_draw_49 4000ms ease-in-out 0ms infinite,wDVmuIsr_fade 4000ms linear 0ms infinite;}.wDVmuIsr_50{stroke-dasharray:9 11;stroke-dashoffset:10;animation:wDVmuIsr_draw_50 4000ms ease-in-out 0ms infinite,wDVmuIsr_fade 4000ms linear 0ms infinite;}.wDVmuIsr_51{stroke-dasharray:6 8;stroke-dashoffset:7;animation:wDVmuIsr_draw_51 4000ms ease-in-out 0ms infinite,wDVmuIsr_fade 4000ms linear 0ms infinite;}.wDVmuIsr_52{stroke-dasharray:5 7;stroke-dashoffset:6;animation:wDVmuIsr_draw_52 4000ms ease-in-out 0ms infinite,wDVmuIsr_fade 4000ms linear 0ms infinite;}.wDVmuIsr_53{stroke-dasharray:110 112;stroke-dashoffset:111;animation:wDVmuIsr_draw_53 4000ms ease-in-out 0ms infinite,wDVmuIsr_fade 4000ms linear 0ms infinite;}.wDVmuIsr_54{stroke-dasharray:14 16;stroke-dashoffset:15;animation:wDVmuIsr_draw_54 4000ms ease-in-out 0ms infinite,wDVmuIsr_fade 4000ms linear 0ms infinite;}.wDVmuIsr_55{stroke-dasharray:3 5;stroke-dashoffset:4;animation:wDVmuIsr_draw_55 4000ms ease-in-out 0ms infinite,wDVmuIsr_fade 4000ms linear 0ms infinite;}.wDVmuIsr_56{stroke-dasharray:22 24;stroke-dashoffset:23;animation:wDVmuIsr_draw_56 4000ms ease-in-out 0ms infinite,wDVmuIsr_fade 4000ms linear 0ms infinite;}.wDVmuIsr_57{stroke-dasharray:4 6;stroke-dashoffset:5;animation:wDVmuIsr_draw_57 4000ms ease-in-out 0ms infinite,wDVmuIsr_fade 4000ms linear 0ms infinite;}.wDVmuIsr_58{stroke-dasharray:2 4;stroke-dashoffset:3;animation:wDVmuIsr_draw_58 4000ms ease-in-out 0ms infinite,wDVmuIsr_fade 4000ms linear 0ms infinite;}.wDVmuIsr_59{stroke-dasharray:78 80;stroke-dashoffset:79;animation:wDVmuIsr_draw_59 4000ms ease-in-out 0ms infinite,wDVmuIsr_fade 4000ms linear 0ms infinite;}.wDVmuIsr_60{stroke-dasharray:181 183;stroke-dashoffset:182;animation:wDVmuIsr_draw_60 4000ms ease-in-out 0ms infinite,wDVmuIsr_fade 4000ms linear 0ms infinite;}.wDVmuIsr_61{stroke-dasharray:69 71;stroke-dashoffset:70;animation:wDVmuIsr_draw_61 4000ms ease-in-out 0ms infinite,wDVmuIsr_fade 4000ms linear 0ms infinite;}.wDVmuIsr_62{stroke-dasharray:39 41;stroke-dashoffset:40;animation:wDVmuIsr_draw_62 4000ms ease-in-out 0ms infinite,wDVmuIsr_fade 4000ms linear 0ms infinite;}.wDVmuIsr_63{stroke-dasharray:65 67;stroke-dashoffset:66;animation:wDVmuIsr_draw_63 4000ms ease-in-out 0ms infinite,wDVmuIsr_fade 4000ms linear 0ms infinite;}.wDVmuIsr_64{stroke-dasharray:54 56;stroke-dashoffset:55;animation:wDVmuIsr_draw_64 4000ms ease-in-out 0ms infinite,wDVmuIsr_fade 4000ms linear 0ms infinite;}.wDVmuIsr_65{stroke-dasharray:71 73;stroke-dashoffset:72;animation:wDVmuIsr_draw_65 4000ms ease-in-out 0ms infinite,wDVmuIsr_fade 4000ms linear 0ms infinite;}.wDVmuIsr_66{stroke-dasharray:54 56;stroke-dashoffset:55;animation:wDVmuIsr_draw_66 4000ms ease-in-out 0ms infinite,wDVmuIsr_fade 4000ms linear 0ms infinite;}.wDVmuIsr_67{stroke-dasharray:84 86;stroke-dashoffset:85;animation:wDVmuIsr_draw_67 4000ms ease-in-out 0ms infinite,wDVmuIsr_fade 4000ms linear 0ms infinite;}.wDVmuIsr_68{stroke-dasharray:65 67;stroke-dashoffset:66;animation:wDVmuIsr_draw_68 4000ms ease-in-out 0ms infinite,wDVmuIsr_fade 4000ms linear 0ms infinite;}.wDVmuIsr_69{stroke-dasharray:31 33;stroke-dashoffset:32;animation:wDVmuIsr_draw_69 4000ms ease-in-out 0ms infinite,wDVmuIsr_fade 4000ms linear 0ms infinite;}.wDVmuIsr_70{stroke-dasharray:80 82;stroke-dashoffset:81;animation:wDVmuIsr_draw_70 4000ms ease-in-out 0ms infinite,wDVmuIsr_fade 4000ms linear 0ms infinite;}.wDVmuIsr_71{stroke-dasharray:65 67;stroke-dashoffset:66;animation:wDVmuIsr_draw_71 4000ms ease-in-out 0ms infinite,wDVmuIsr_fade 4000ms linear 0ms infinite;}.wDVmuIsr_72{stroke-dasharray:31 33;stroke-dashoffset:32;animation:wDVmuIsr_draw_72 4000ms ease-in-out 0ms infinite,wDVmuIsr_fade 4000ms linear 0ms infinite;}.wDVmuIsr_73{stroke-dasharray:87 89;stroke-dashoffset:88;animation:wDVmuIsr_draw_73 4000ms ease-in-out 0ms infinite,wDVmuIsr_fade 4000ms linear 0ms infinite;}.wDVmuIsr_74{stroke-dasharray:74 76;stroke-dashoffset:75;animation:wDVmuIsr_draw_74 4000ms ease-in-out 0ms infinite,wDVmuIsr_fade 4000ms linear 0ms infinite;}.wDVmuIsr_75{stroke-dasharray:53 55;stroke-dashoffset:54;animation:wDVmuIsr_draw_75 4000ms ease-in-out 0ms infinite,wDVmuIsr_fade 4000ms linear 0ms infinite;}.wDVmuIsr_76{stroke-dasharray:87 89;stroke-dashoffset:88;animation:wDVmuIsr_draw_76 4000ms ease-in-out 0ms infinite,wDVmuIsr_fade 4000ms linear 0ms infinite;}.wDVmuIsr_77{stroke-dasharray:27 29;stroke-dashoffset:28;animation:wDVmuIsr_draw_77 4000ms ease-in-out 0ms infinite,wDVmuIsr_fade 4000ms linear 0ms infinite;}.wDVmuIsr_78{stroke-dasharray:53 55;stroke-dashoffset:54;animation:wDVmuIsr_draw_78 4000ms ease-in-out 0ms infinite,wDVmuIsr_fade 4000ms linear 0ms infinite;}.wDVmuIsr_79{stroke-dasharray:68 70;stroke-dashoffset:69;animation:wDVmuIsr_draw_79 4000ms ease-in-out 0ms infinite,wDVmuIsr_fade 4000ms linear 0ms infinite;}.wDVmuIsr_80{stroke-dasharray:68 70;stroke-dashoffset:69;animation:wDVmuIsr_draw_80 4000ms ease-in-out 0ms infinite,wDVmuIsr_fade 4000ms linear 0ms infinite;}.wDVmuIsr_81{stroke-dasharray:31 33;stroke-dashoffset:32;animation:wDVmuIsr_draw_81 4000ms ease-in-out 0ms infinite,wDVmuIsr_fade 4000ms linear 0ms infinite;}.wDVmuIsr_82{stroke-dasharray:27 29;stroke-dashoffset:28;animation:wDVmuIsr_draw_82 4000ms ease-in-out 0ms infinite,wDVmuIsr_fade 4000ms linear 0ms infinite;}.wDVmuIsr_83{stroke-dasharray:53 55;stroke-dashoffset:54;animation:wDVmuIsr_draw_83 4000ms ease-in-out 0ms infinite,wDVmuIsr_fade 4000ms linear 0ms infinite;}.wDVmuIsr_84{stroke-dasharray:87 89;stroke-dashoffset:88;animation:wDVmuIsr_draw_84 4000ms ease-in-out 0ms infinite,wDVmuIsr_fade 4000ms linear 0ms infinite;}.wDVmuIsr_85{stroke-dasharray:63 65;stroke-dashoffset:64;animation:wDVmuIsr_draw_85 4000ms ease-in-out 0ms infinite,wDVmuIsr_fade 4000ms linear 0ms infinite;}.wDVmuIsr_86{stroke-dasharray:57 59;stroke-dashoffset:58;animation:wDVmuIsr_draw_86 4000ms ease-in-out 0ms infinite,wDVmuIsr_fade 4000ms linear 0ms infinite;}.wDVmuIsr_87{stroke-dasharray:33 35;stroke-dashoffset:34;animation:wDVmuIsr_draw_87 4000ms ease-in-out 0ms infinite,wDVmuIsr_fade 4000ms linear 0ms infinite;}.wDVmuIsr_88{stroke-dasharray:33 35;stroke-dashoffset:34;animation:wDVmuIsr_draw_88 4000ms ease-in-out 0ms infinite,wDVmuIsr_fade 4000ms linear 0ms infinite;}.wDVmuIsr_89{stroke-dasharray:68 70;stroke-dashoffset:69;animation:wDVmuIsr_draw_89 4000ms ease-in-out 0ms infinite,wDVmuIsr_fade 4000ms linear 0ms infinite;}.wDVmuIsr_90{stroke-dasharray:87 89;stroke-dashoffset:88;animation:wDVmuIsr_draw_90 4000ms ease-in-out 0ms infinite,wDVmuIsr_fade 4000ms linear 0ms infinite;}.wDVmuIsr_91{stroke-dasharray:68 70;stroke-dashoffset:69;animation:wDVmuIsr_draw_91 4000ms ease-in-out 0ms infinite,wDVmuIsr_fade 4000ms linear 0ms infinite;}.wDVmuIsr_92{stroke-dasharray:121 123;stroke-dashoffset:122;animation:wDVmuIsr_draw_92 4000ms ease-in-out 0ms infinite,wDVmuIsr_fade 4000ms linear 0ms infinite;}.wDVmuIsr_93{stroke-dasharray:92 94;stroke-dashoffset:93;animation:wDVmuIsr_draw_93 4000ms ease-in-out 0ms infinite,wDVmuIsr_fade 4000ms linear 0ms infinite;}.wDVmuIsr_94{stroke-dasharray:48 50;stroke-dashoffset:49;animation:wDVmuIsr_draw_94 4000ms ease-in-out 0ms infinite,wDVmuIsr_fade 4000ms linear 0ms infinite;}.wDVmuIsr_95{stroke-dasharray:44 46;stroke-dashoffset:45;animation:wDVmuIsr_draw_95 4000ms ease-in-out 0ms infinite,wDVmuIsr_fade 4000ms linear 0ms infinite;}.wDVmuIsr_96{stroke-dasharray:35 37;stroke-dashoffset:36;animation:wDVmuIsr_draw_96 4000ms ease-in-out 0ms infinite,wDVmuIsr_fade 4000ms linear 0ms infinite;}.wDVmuIsr_97{stroke-dasharray:32 34;stroke-dashoffset:33;animation:wDVmuIsr_draw_97 4000ms ease-in-out 0ms infinite,wDVmuIsr_fade 4000ms linear 0ms infinite;}.wDVmuIsr_98{stroke-dasharray:68 70;stroke-dashoffset:69;animation:wDVmuIsr_draw_98 4000ms ease-in-out 0ms infinite,wDVmuIsr_fade 4000ms linear 0ms infinite;}.wDVmuIsr_99{stroke-dasharray:33 35;stroke-dashoffset:34;animation:wDVmuIsr_draw_99 4000ms ease-in-out 0ms infinite,wDVmuIsr_fade 4000ms linear 0ms infinite;}.wDVmuIsr_100{stroke-dasharray:23 25;stroke-dashoffset:24;animation:wDVmuIsr_draw_100 4000ms ease-in-out 0ms infinite,wDVmuIsr_fade 4000ms linear 0ms infinite;}.wDVmuIsr_101{stroke-dasharray:36 38;stroke-dashoffset:37;animation:wDVmuIsr_draw_101 4000ms ease-in-out 0ms infinite,wDVmuIsr_fade 4000ms linear 0ms infinite;}.wDVmuIsr_102{stroke-dasharray:17 19;stroke-dashoffset:18;animation:wDVmuIsr_draw_102 4000ms ease-in-out 0ms infinite,wDVmuIsr_fade 4000ms linear 0ms infinite;}.wDVmuIsr_103{stroke-dasharray:12 14;stroke-dashoffset:13;animation:wDVmuIsr_draw_103 4000ms ease-in-out 0ms infinite,wDVmuIsr_fade 4000ms linear 0ms infinite;}.wDVmuIsr_104{stroke-dasharray:9 11;stroke-dashoffset:10;animation:wDVmuIsr_draw_104 4000ms ease-in-out 0ms infinite,wDVmuIsr_fade 4000ms linear 0ms infinite;}.wDVmuIsr_105{stroke-dasharray:11 13;stroke-dashoffset:12;animation:wDVmuIsr_draw_105 4000ms ease-in-out 0ms infinite,wDVmuIsr_fade 4000ms linear 0ms infinite;}.wDVmuIsr_106{stroke-dasharray:104 106;stroke-dashoffset:105;animation:wDVmuIsr_draw_106 4000ms ease-in-out 0ms infinite,wDVmuIsr_fade 4000ms linear 0ms infinite;}.wDVmuIsr_107{stroke-dasharray:9 11;stroke-dashoffset:10;animation:wDVmuIsr_draw_107 4000ms ease-in-out 0ms infinite,wDVmuIsr_fade 4000ms linear 0ms infinite;}.wDVmuIsr_108{stroke-dasharray:10 12;stroke-dashoffset:11;animation:wDVmuIsr_draw_108 4000ms ease-in-out 0ms infinite,wDVmuIsr_fade 4000ms linear 0ms infinite;}.wDVmuIsr_109{stroke-dasharray:34 36;stroke-dashoffset:35;animation:wDVmuIsr_draw_109 4000ms ease-in-out 0ms infinite,wDVmuIsr_fade 4000ms linear 0ms infinite;}.wDVmuIsr_110{stroke-dasharray:35 37;stroke-dashoffset:36;animation:wDVmuIsr_draw_110 4000ms ease-in-out 0ms infinite,wDVmuIsr_fade 4000ms linear 0ms infinite;}.wDVmuIsr_111{stroke-dasharray:33 35;stroke-dashoffset:34;animation:wDVmuIsr_draw_111 4000ms ease-in-out 0ms infinite,wDVmuIsr_fade 4000ms linear 0ms infinite;}.wDVmuIsr_112{stroke-dasharray:33 35;stroke-dashoffset:34;animation:wDVmuIsr_draw_112 4000ms ease-in-out 0ms infinite,wDVmuIsr_fade 4000ms linear 0ms infinite;}.wDVmuIsr_113{stroke-dasharray:33 35;stroke-dashoffset:34;animation:wDVmuIsr_draw_113 4000ms ease-in-out 0ms infinite,wDVmuIsr_fade 4000ms linear 0ms infinite;}.wDVmuIsr_114{stroke-dasharray:32 34;stroke-dashoffset:33;animation:wDVmuIsr_draw_114 4000ms ease-in-out 0ms infinite,wDVmuIsr_fade 4000ms linear 0ms infinite;}.wDVmuIsr_115{stroke-dasharray:33 35;stroke-dashoffset:34;animation:wDVmuIsr_draw_115 4000ms ease-in-out 0ms infinite,wDVmuIsr_fade 4000ms linear 0ms infinite;}.wDVmuIsr_116{stroke-dasharray:32 34;stroke-dashoffset:33;animation:wDVmuIsr_draw_116 4000ms ease-in-out 0ms infinite,wDVmuIsr_fade 4000ms linear 0ms infinite;}.wDVmuIsr_117{stroke-dasharray:16 18;stroke-dashoffset:17;animation:wDVmuIsr_draw_117 4000ms ease-in-out 0ms infinite,wDVmuIsr_fade 4000ms linear 0ms infinite;}.wDVmuIsr_118{stroke-dasharray:21 23;stroke-dashoffset:22;animation:wDVmuIsr_draw_118 4000ms ease-in-out 0ms infinite,wDVmuIsr_fade 4000ms linear 0ms infinite;}.wDVmuIsr_119{stroke-dasharray:10 12;stroke-dashoffset:11;animation:wDVmuIsr_draw_119 4000ms ease-in-out 0ms infinite,wDVmuIsr_fade 4000ms linear 0ms infinite;}.wDVmuIsr_120{stroke-dasharray:20 22;stroke-dashoffset:21;animation:wDVmuIsr_draw_120 4000ms ease-in-out 0ms infinite,wDVmuIsr_fade 4000ms linear 0ms infinite;}@keyframes wDVmuIsr_draw{100%{stroke-dashoffset:0;}}@keyframes wDVmuIsr_fade{0%{stroke-opacity:1;}90%{stroke-opacity:1;}100%{stroke-opacity:0;}}@keyframes wDVmuIsr_draw_0{7.5%{stroke-dashoffset: 554}57.49999999999999%{ stroke-dashoffset: 0;}100%{ stroke-dashoffset: 0;}}@keyframes wDVmuIsr_draw_1{7.708333333333332%{stroke-dashoffset: 376}57.70833333333334%{ stroke-dashoffset: 0;}100%{ stroke-dashoffset: 0;}}@keyframes wDVmuIsr_draw_2{7.916666666666668%{stroke-dashoffset: 292}57.91666666666666%{ stroke-dashoffset: 0;}100%{ stroke-dashoffset: 0;}}@keyframes wDVmuIsr_draw_3{8.125%{stroke-dashoffset: 410}58.12500000000001%{ stroke-dashoffset: 0;}100%{ stroke-dashoffset: 0;}}@keyframes wDVmuIsr_draw_4{8.333333333333332%{stroke-dashoffset: 595}58.333333333333336%{ stroke-dashoffset: 0;}100%{ stroke-dashoffset: 0;}}@keyframes wDVmuIsr_draw_5{8.541666666666666%{stroke-dashoffset: 404}58.54166666666666%{ stroke-dashoffset: 0;}100%{ stroke-dashoffset: 0;}}@keyframes wDVmuIsr_draw_6{8.75%{stroke-dashoffset: 314}58.75%{ stroke-dashoffset: 0;}100%{ stroke-dashoffset: 0;}}@keyframes wDVmuIsr_draw_7{8.958333333333334%{stroke-dashoffset: 441}58.958333333333336%{ stroke-dashoffset: 0;}100%{ stroke-dashoffset: 0;}}@keyframes wDVmuIsr_draw_8{9.166666666666668%{stroke-dashoffset: 668}59.166666666666664%{ stroke-dashoffset: 0;}100%{ stroke-dashoffset: 0;}}@keyframes wDVmuIsr_draw_9{9.375%{stroke-dashoffset: 288}59.375%{ stroke-dashoffset: 0;}100%{ stroke-dashoffset: 0;}}@keyframes wDVmuIsr_draw_10{9.583333333333334%{stroke-dashoffset: 424}59.583333333333336%{ stroke-dashoffset: 0;}100%{ stroke-dashoffset: 0;}}@keyframes wDVmuIsr_draw_11{9.791666666666666%{stroke-dashoffset: 320}59.791666666666664%{ stroke-dashoffset: 0;}100%{ stroke-dashoffset: 0;}}@keyframes wDVmuIsr_draw_12{10%{stroke-dashoffset: 471}60%{ stroke-dashoffset: 0;}100%{ stroke-dashoffset: 0;}}@keyframes wDVmuIsr_draw_13{10.208333333333334%{stroke-dashoffset: 313}60.20833333333334%{ stroke-dashoffset: 0;}100%{ stroke-dashoffset: 0;}}@keyframes wDVmuIsr_draw_14{10.416666666666668%{stroke-dashoffset: 181}60.416666666666664%{ stroke-dashoffset: 0;}100%{ stroke-dashoffset: 0;}}@keyframes wDVmuIsr_draw_15{10.625%{stroke-dashoffset: 338}60.62499999999999%{ stroke-dashoffset: 0;}100%{ stroke-dashoffset: 0;}}@keyframes wDVmuIsr_draw_16{10.833333333333334%{stroke-dashoffset: 83}60.83333333333334%{ stroke-dashoffset: 0;}100%{ stroke-dashoffset: 0;}}@keyframes wDVmuIsr_draw_17{11.041666666666668%{stroke-dashoffset: 183}61.04166666666666%{ stroke-dashoffset: 0;}100%{ stroke-dashoffset: 0;}}@keyframes wDVmuIsr_draw_18{11.25%{stroke-dashoffset: 181}61.25000000000001%{ stroke-dashoffset: 0;}100%{ stroke-dashoffset: 0;}}@keyframes wDVmuIsr_draw_19{11.458333333333334%{stroke-dashoffset: 122}61.458333333333336%{ stroke-dashoffset: 0;}100%{ stroke-dashoffset: 0;}}@keyframes wDVmuIsr_draw_20{11.666666666666666%{stroke-dashoffset: 134}61.66666666666666%{ stroke-dashoffset: 0;}100%{ stroke-dashoffset: 0;}}@keyframes wDVmuIsr_draw_21{11.875%{stroke-dashoffset: 73}61.875%{ stroke-dashoffset: 0;}100%{ stroke-dashoffset: 0;}}@keyframes wDVmuIsr_draw_22{12.083333333333336%{stroke-dashoffset: 24}62.083333333333336%{ stroke-dashoffset: 0;}100%{ stroke-dashoffset: 0;}}@keyframes wDVmuIsr_draw_23{12.291666666666668%{stroke-dashoffset: 36}62.291666666666664%{ stroke-dashoffset: 0;}100%{ stroke-dashoffset: 0;}}@keyframes wDVmuIsr_draw_24{12.5%{stroke-dashoffset: 28}62.5%{ stroke-dashoffset: 0;}100%{ stroke-dashoffset: 0;}}@keyframes wDVmuIsr_draw_25{12.708333333333336%{stroke-dashoffset: 21}62.708333333333336%{ stroke-dashoffset: 0;}100%{ stroke-dashoffset: 0;}}@keyframes wDVmuIsr_draw_26{12.916666666666668%{stroke-dashoffset: 12}62.91666666666668%{ stroke-dashoffset: 0;}100%{ stroke-dashoffset: 0;}}@keyframes wDVmuIsr_draw_27{13.125%{stroke-dashoffset: 9}63.125%{ stroke-dashoffset: 0;}100%{ stroke-dashoffset: 0;}}@keyframes wDVmuIsr_draw_28{13.333333333333334%{stroke-dashoffset: 6}63.33333333333334%{ stroke-dashoffset: 0;}100%{ stroke-dashoffset: 0;}}@keyframes wDVmuIsr_draw_29{13.541666666666668%{stroke-dashoffset: 6}63.54166666666667%{ stroke-dashoffset: 0;}100%{ stroke-dashoffset: 0;}}@keyframes wDVmuIsr_draw_30{13.750000000000002%{stroke-dashoffset: 98}63.74999999999999%{ stroke-dashoffset: 0;}100%{ stroke-dashoffset: 0;}}@keyframes wDVmuIsr_draw_31{13.958333333333334%{stroke-dashoffset: 13}63.95833333333334%{ stroke-dashoffset: 0;}100%{ stroke-dashoffset: 0;}}@keyframes wDVmuIsr_draw_32{14.16666666666667%{stroke-dashoffset: 3}64.16666666666667%{ stroke-dashoffset: 0;}100%{ stroke-dashoffset: 0;}}@keyframes wDVmuIsr_draw_33{14.374999999999998%{stroke-dashoffset: 20}64.375%{ stroke-dashoffset: 0;}100%{ stroke-dashoffset: 0;}}@keyframes wDVmuIsr_draw_34{14.583333333333334%{stroke-dashoffset: 5}64.58333333333334%{ stroke-dashoffset: 0;}100%{ stroke-dashoffset: 0;}}@keyframes wDVmuIsr_draw_35{14.79166666666667%{stroke-dashoffset: 3}64.79166666666667%{ stroke-dashoffset: 0;}100%{ stroke-dashoffset: 0;}}@keyframes wDVmuIsr_draw_36{15%{stroke-dashoffset: 357}65%{ stroke-dashoffset: 0;}100%{ stroke-dashoffset: 0;}}@keyframes wDVmuIsr_draw_37{15.208333333333336%{stroke-dashoffset: 207}65.20833333333333%{ stroke-dashoffset: 0;}100%{ stroke-dashoffset: 0;}}@keyframes wDVmuIsr_draw_38{15.416666666666668%{stroke-dashoffset: 385}65.41666666666669%{ stroke-dashoffset: 0;}100%{ stroke-dashoffset: 0;}}@keyframes wDVmuIsr_draw_39{15.625%{stroke-dashoffset: 94}65.625%{ stroke-dashoffset: 0;}100%{ stroke-dashoffset: 0;}}@keyframes wDVmuIsr_draw_40{15.833333333333336%{stroke-dashoffset: 208}65.83333333333333%{ stroke-dashoffset: 0;}100%{ stroke-dashoffset: 0;}}@keyframes wDVmuIsr_draw_41{16.041666666666668%{stroke-dashoffset: 206}66.04166666666667%{ stroke-dashoffset: 0;}100%{ stroke-dashoffset: 0;}}@keyframes wDVmuIsr_draw_42{16.25%{stroke-dashoffset: 138}66.25%{ stroke-dashoffset: 0;}100%{ stroke-dashoffset: 0;}}@keyframes wDVmuIsr_draw_43{16.458333333333332%{stroke-dashoffset: 152}66.45833333333334%{ stroke-dashoffset: 0;}100%{ stroke-dashoffset: 0;}}@keyframes wDVmuIsr_draw_44{16.666666666666668%{stroke-dashoffset: 83}66.66666666666667%{ stroke-dashoffset: 0;}100%{ stroke-dashoffset: 0;}}@keyframes wDVmuIsr_draw_45{16.875%{stroke-dashoffset: 27}66.875%{ stroke-dashoffset: 0;}100%{ stroke-dashoffset: 0;}}@keyframes wDVmuIsr_draw_46{17.083333333333332%{stroke-dashoffset: 41}67.08333333333334%{ stroke-dashoffset: 0;}100%{ stroke-dashoffset: 0;}}@keyframes wDVmuIsr_draw_47{17.291666666666668%{stroke-dashoffset: 31}67.29166666666667%{ stroke-dashoffset: 0;}100%{ stroke-dashoffset: 0;}}@keyframes wDVmuIsr_draw_48{17.5%{stroke-dashoffset: 23}67.5%{ stroke-dashoffset: 0;}100%{ stroke-dashoffset: 0;}}@keyframes wDVmuIsr_draw_49{17.708333333333336%{stroke-dashoffset: 13}67.70833333333334%{ stroke-dashoffset: 0;}100%{ stroke-dashoffset: 0;}}@keyframes wDVmuIsr_draw_50{17.91666666666667%{stroke-dashoffset: 10}67.91666666666667%{ stroke-dashoffset: 0;}100%{ stroke-dashoffset: 0;}}@keyframes wDVmuIsr_draw_51{18.125%{stroke-dashoffset: 7}68.125%{ stroke-dashoffset: 0;}100%{ stroke-dashoffset: 0;}}@keyframes wDVmuIsr_draw_52{18.333333333333336%{stroke-dashoffset: 6}68.33333333333333%{ stroke-dashoffset: 0;}100%{ stroke-dashoffset: 0;}}@keyframes wDVmuIsr_draw_53{18.541666666666668%{stroke-dashoffset: 111}68.54166666666669%{ stroke-dashoffset: 0;}100%{ stroke-dashoffset: 0;}}@keyframes wDVmuIsr_draw_54{18.75%{stroke-dashoffset: 15}68.75%{ stroke-dashoffset: 0;}100%{ stroke-dashoffset: 0;}}@keyframes wDVmuIsr_draw_55{18.958333333333336%{stroke-dashoffset: 4}68.95833333333333%{ stroke-dashoffset: 0;}100%{ stroke-dashoffset: 0;}}@keyframes wDVmuIsr_draw_56{19.166666666666668%{stroke-dashoffset: 23}69.16666666666667%{ stroke-dashoffset: 0;}100%{ stroke-dashoffset: 0;}}@keyframes wDVmuIsr_draw_57{19.375%{stroke-dashoffset: 5}69.375%{ stroke-dashoffset: 0;}100%{ stroke-dashoffset: 0;}}@keyframes wDVmuIsr_draw_58{19.583333333333332%{stroke-dashoffset: 3}69.58333333333334%{ stroke-dashoffset: 0;}100%{ stroke-dashoffset: 0;}}@keyframes wDVmuIsr_draw_59{19.791666666666668%{stroke-dashoffset: 79}69.79166666666667%{ stroke-dashoffset: 0;}100%{ stroke-dashoffset: 0;}}@keyframes wDVmuIsr_draw_60{20%{stroke-dashoffset: 182}70%{ stroke-dashoffset: 0;}100%{ stroke-dashoffset: 0;}}@keyframes wDVmuIsr_draw_61{20.208333333333332%{stroke-dashoffset: 70}70.20833333333334%{ stroke-dashoffset: 0;}100%{ stroke-dashoffset: 0;}}@keyframes wDVmuIsr_draw_62{20.416666666666668%{stroke-dashoffset: 40}70.41666666666667%{ stroke-dashoffset: 0;}100%{ stroke-dashoffset: 0;}}@keyframes wDVmuIsr_draw_63{20.625%{stroke-dashoffset: 66}70.625%{ stroke-dashoffset: 0;}100%{ stroke-dashoffset: 0;}}@keyframes wDVmuIsr_draw_64{20.833333333333336%{stroke-dashoffset: 55}70.83333333333334%{ stroke-dashoffset: 0;}100%{ stroke-dashoffset: 0;}}@keyframes wDVmuIsr_draw_65{21.04166666666667%{stroke-dashoffset: 72}71.04166666666667%{ stroke-dashoffset: 0;}100%{ stroke-dashoffset: 0;}}@keyframes wDVmuIsr_draw_66{21.25%{stroke-dashoffset: 55}71.25%{ stroke-dashoffset: 0;}100%{ stroke-dashoffset: 0;}}@keyframes wDVmuIsr_draw_67{21.458333333333336%{stroke-dashoffset: 85}71.45833333333333%{ stroke-dashoffset: 0;}100%{ stroke-dashoffset: 0;}}@keyframes wDVmuIsr_draw_68{21.666666666666668%{stroke-dashoffset: 66}71.66666666666669%{ stroke-dashoffset: 0;}100%{ stroke-dashoffset: 0;}}@keyframes wDVmuIsr_draw_69{21.875%{stroke-dashoffset: 32}71.875%{ stroke-dashoffset: 0;}100%{ stroke-dashoffset: 0;}}@keyframes wDVmuIsr_draw_70{22.083333333333336%{stroke-dashoffset: 81}72.08333333333333%{ stroke-dashoffset: 0;}100%{ stroke-dashoffset: 0;}}@keyframes wDVmuIsr_draw_71{22.291666666666668%{stroke-dashoffset: 66}72.29166666666667%{ stroke-dashoffset: 0;}100%{ stroke-dashoffset: 0;}}@keyframes wDVmuIsr_draw_72{22.5%{stroke-dashoffset: 32}72.5%{ stroke-dashoffset: 0;}100%{ stroke-dashoffset: 0;}}@keyframes wDVmuIsr_draw_73{22.708333333333332%{stroke-dashoffset: 88}72.70833333333334%{ stroke-dashoffset: 0;}100%{ stroke-dashoffset: 0;}}@keyframes wDVmuIsr_draw_74{22.916666666666668%{stroke-dashoffset: 75}72.91666666666667%{ stroke-dashoffset: 0;}100%{ stroke-dashoffset: 0;}}@keyframes wDVmuIsr_draw_75{23.125%{stroke-dashoffset: 54}73.125%{ stroke-dashoffset: 0;}100%{ stroke-dashoffset: 0;}}@keyframes wDVmuIsr_draw_76{23.333333333333332%{stroke-dashoffset: 88}73.33333333333334%{ stroke-dashoffset: 0;}100%{ stroke-dashoffset: 0;}}@keyframes wDVmuIsr_draw_77{23.541666666666668%{stroke-dashoffset: 28}73.54166666666667%{ stroke-dashoffset: 0;}100%{ stroke-dashoffset: 0;}}@keyframes wDVmuIsr_draw_78{23.75%{stroke-dashoffset: 54}73.75%{ stroke-dashoffset: 0;}100%{ stroke-dashoffset: 0;}}@keyframes wDVmuIsr_draw_79{23.958333333333336%{stroke-dashoffset: 69}73.95833333333334%{ stroke-dashoffset: 0;}100%{ stroke-dashoffset: 0;}}@keyframes wDVmuIsr_draw_80{24.16666666666667%{stroke-dashoffset: 69}74.16666666666667%{ stroke-dashoffset: 0;}100%{ stroke-dashoffset: 0;}}@keyframes wDVmuIsr_draw_81{24.375%{stroke-dashoffset: 32}74.375%{ stroke-dashoffset: 0;}100%{ stroke-dashoffset: 0;}}@keyframes wDVmuIsr_draw_82{24.583333333333336%{stroke-dashoffset: 28}74.58333333333333%{ stroke-dashoffset: 0;}100%{ stroke-dashoffset: 0;}}@keyframes wDVmuIsr_draw_83{24.791666666666668%{stroke-dashoffset: 54}74.79166666666669%{ stroke-dashoffset: 0;}100%{ stroke-dashoffset: 0;}}@keyframes wDVmuIsr_draw_84{25%{stroke-dashoffset: 88}75%{ stroke-dashoffset: 0;}100%{ stroke-dashoffset: 0;}}@keyframes wDVmuIsr_draw_85{25.208333333333332%{stroke-dashoffset: 64}75.20833333333333%{ stroke-dashoffset: 0;}100%{ stroke-dashoffset: 0;}}@keyframes wDVmuIsr_draw_86{25.41666666666667%{stroke-dashoffset: 58}75.41666666666667%{ stroke-dashoffset: 0;}100%{ stroke-dashoffset: 0;}}@keyframes wDVmuIsr_draw_87{25.624999999999996%{stroke-dashoffset: 34}75.625%{ stroke-dashoffset: 0;}100%{ stroke-dashoffset: 0;}}@keyframes wDVmuIsr_draw_88{25.833333333333336%{stroke-dashoffset: 34}75.83333333333334%{ stroke-dashoffset: 0;}100%{ stroke-dashoffset: 0;}}@keyframes wDVmuIsr_draw_89{26.041666666666668%{stroke-dashoffset: 69}76.04166666666667%{ stroke-dashoffset: 0;}100%{ stroke-dashoffset: 0;}}@keyframes wDVmuIsr_draw_90{26.25%{stroke-dashoffset: 88}76.25%{ stroke-dashoffset: 0;}100%{ stroke-dashoffset: 0;}}@keyframes wDVmuIsr_draw_91{26.45833333333334%{stroke-dashoffset: 69}76.45833333333334%{ stroke-dashoffset: 0;}100%{ stroke-dashoffset: 0;}}@keyframes wDVmuIsr_draw_92{26.666666666666668%{stroke-dashoffset: 122}76.66666666666667%{ stroke-dashoffset: 0;}100%{ stroke-dashoffset: 0;}}@keyframes wDVmuIsr_draw_93{26.875%{stroke-dashoffset: 93}76.875%{ stroke-dashoffset: 0;}100%{ stroke-dashoffset: 0;}}@keyframes wDVmuIsr_draw_94{27.083333333333336%{stroke-dashoffset: 49}77.08333333333334%{ stroke-dashoffset: 0;}100%{ stroke-dashoffset: 0;}}@keyframes wDVmuIsr_draw_95{27.29166666666667%{stroke-dashoffset: 45}77.29166666666667%{ stroke-dashoffset: 0;}100%{ stroke-dashoffset: 0;}}@keyframes wDVmuIsr_draw_96{27.500000000000004%{stroke-dashoffset: 36}77.5%{ stroke-dashoffset: 0;}100%{ stroke-dashoffset: 0;}}@keyframes wDVmuIsr_draw_97{27.708333333333336%{stroke-dashoffset: 33}77.70833333333333%{ stroke-dashoffset: 0;}100%{ stroke-dashoffset: 0;}}@keyframes wDVmuIsr_draw_98{27.916666666666668%{stroke-dashoffset: 69}77.91666666666669%{ stroke-dashoffset: 0;}100%{ stroke-dashoffset: 0;}}@keyframes wDVmuIsr_draw_99{28.125%{stroke-dashoffset: 34}78.125%{ stroke-dashoffset: 0;}100%{ stroke-dashoffset: 0;}}@keyframes wDVmuIsr_draw_100{28.33333333333334%{stroke-dashoffset: 24}78.33333333333333%{ stroke-dashoffset: 0;}100%{ stroke-dashoffset: 0;}}@keyframes wDVmuIsr_draw_101{28.54166666666667%{stroke-dashoffset: 37}78.54166666666667%{ stroke-dashoffset: 0;}100%{ stroke-dashoffset: 0;}}@keyframes wDVmuIsr_draw_102{28.749999999999996%{stroke-dashoffset: 18}78.75%{ stroke-dashoffset: 0;}100%{ stroke-dashoffset: 0;}}@keyframes wDVmuIsr_draw_103{28.958333333333336%{stroke-dashoffset: 13}78.95833333333334%{ stroke-dashoffset: 0;}100%{ stroke-dashoffset: 0;}}@keyframes wDVmuIsr_draw_104{29.166666666666668%{stroke-dashoffset: 10}79.16666666666667%{ stroke-dashoffset: 0;}100%{ stroke-dashoffset: 0;}}@keyframes wDVmuIsr_draw_105{29.375%{stroke-dashoffset: 12}79.375%{ stroke-dashoffset: 0;}100%{ stroke-dashoffset: 0;}}@keyframes wDVmuIsr_draw_106{29.58333333333334%{stroke-dashoffset: 105}79.58333333333334%{ stroke-dashoffset: 0;}100%{ stroke-dashoffset: 0;}}@keyframes wDVmuIsr_draw_107{29.791666666666668%{stroke-dashoffset: 10}79.79166666666667%{ stroke-dashoffset: 0;}100%{ stroke-dashoffset: 0;}}@keyframes wDVmuIsr_draw_108{30%{stroke-dashoffset: 11}80%{ stroke-dashoffset: 0;}100%{ stroke-dashoffset: 0;}}@keyframes wDVmuIsr_draw_109{30.208333333333336%{stroke-dashoffset: 35}80.20833333333334%{ stroke-dashoffset: 0;}100%{ stroke-dashoffset: 0;}}@keyframes wDVmuIsr_draw_110{30.41666666666667%{stroke-dashoffset: 36}80.41666666666667%{ stroke-dashoffset: 0;}100%{ stroke-dashoffset: 0;}}@keyframes wDVmuIsr_draw_111{30.625000000000004%{stroke-dashoffset: 34}80.625%{ stroke-dashoffset: 0;}100%{ stroke-dashoffset: 0;}}@keyframes wDVmuIsr_draw_112{30.833333333333336%{stroke-dashoffset: 34}80.83333333333333%{ stroke-dashoffset: 0;}100%{ stroke-dashoffset: 0;}}@keyframes wDVmuIsr_draw_113{31.041666666666668%{stroke-dashoffset: 34}81.04166666666669%{ stroke-dashoffset: 0;}100%{ stroke-dashoffset: 0;}}@keyframes wDVmuIsr_draw_114{31.25%{stroke-dashoffset: 33}81.25%{ stroke-dashoffset: 0;}100%{ stroke-dashoffset: 0;}}@keyframes wDVmuIsr_draw_115{31.45833333333334%{stroke-dashoffset: 34}81.45833333333333%{ stroke-dashoffset: 0;}100%{ stroke-dashoffset: 0;}}@keyframes wDVmuIsr_draw_116{31.66666666666667%{stroke-dashoffset: 33}81.66666666666667%{ stroke-dashoffset: 0;}100%{ stroke-dashoffset: 0;}}@keyframes wDVmuIsr_draw_117{31.874999999999996%{stroke-dashoffset: 17}81.875%{ stroke-dashoffset: 0;}100%{ stroke-dashoffset: 0;}}@keyframes wDVmuIsr_draw_118{32.083333333333336%{stroke-dashoffset: 22}82.08333333333334%{ stroke-dashoffset: 0;}100%{ stroke-dashoffset: 0;}}@keyframes wDVmuIsr_draw_119{32.29166666666667%{stroke-dashoffset: 11}82.29166666666667%{ stroke-dashoffset: 0;}100%{ stroke-dashoffset: 0;}}@keyframes wDVmuIsr_draw_120{32.5%{stroke-dashoffset: 21}82.5%{ stroke-dashoffset: 0;}100%{ stroke-dashoffset: 0;}}</style></svg>