<svg id="Layer_1" data-name="Layer 1" xmlns="http://www.w3.org/2000/svg" viewBox="0 0 559.41 330.22" style=""><defs><style>.cls-1{fill:#212426;}.cls-2{fill:none;stroke:#fff;stroke-miterlimit:10;}.cls-3{fill:#221f1f;}.cls-4{fill:#979080;}.cls-5{fill:#fff;}.cls-6{font-size:53.66px;font-family:Montserrat-Bold, Montserrat;font-weight:700;}.cls-6,.cls-8{fill:#231f20;}.cls-7{fill:#010101;}.cls-8{font-size:14.12px;font-family:MyriadPro-Regular, Myriad Pro;}.cls-9{letter-spacing:0em;}.cls-10{fill:#dcdbdb;}.cls-11{fill:#f3f3f3;}.cls-12{fill:#f2f2f2;}</style></defs><title>scrolls_head_animated (5)</title><path class="cls-1 fuHPOuhk_0" d="M100.52,371.17q-9.89-3.27-16.58-3.27-5.3,0-8.33,1.95a6.34,6.34,0,0,0-3,5.68,7.78,7.78,0,0,0,2.65,6,20.22,20.22,0,0,0,6.54,3.89q3.89,1.48,11.52,3.82A150,150,0,0,1,112,395.78a32.83,32.83,0,0,1,12.69,10q5.29,6.77,5.29,17.67t-5.76,18.61a34.92,34.92,0,0,1-15.81,11.6,61.41,61.41,0,0,1-22.35,3.89,80.79,80.79,0,0,1-27-4.75,73.9,73.9,0,0,1-23.28-13l11.06-22.27a68.75,68.75,0,0,0,19.54,12q11.29,4.67,20,4.67,6.38,0,10-2.34a7.62,7.62,0,0,0,3.66-6.85,8.1,8.1,0,0,0-2.73-6.23,20.1,20.1,0,0,0-6.85-4q-4.13-1.48-11.6-3.5A142.91,142.91,0,0,1,60.43,405a32.75,32.75,0,0,1-12.54-9.65q-5.22-6.46-5.22-17.21A30.06,30.06,0,0,1,48,360.43a34.2,34.2,0,0,1,15.26-11.76,59.31,59.31,0,0,1,23-4.13,83.37,83.37,0,0,1,23.36,3.35,77,77,0,0,1,20.24,9l-10.74,22.74A95.78,95.78,0,0,0,100.52,371.17Z" transform="translate(-17.91 -259.37)"></path><path class="cls-1 fuHPOuhk_1" d="M182.36,393.6a15,15,0,0,0-12.15,5.68Q165.54,405,165.54,414q0,9.19,4.67,14.79a15.07,15.07,0,0,0,12.15,5.61q11.52,0,16.51-9.5l20.4,11.68a34.64,34.64,0,0,1-14.95,14.95q-10,5.3-23.36,5.29a47.12,47.12,0,0,1-22.74-5.29A37.25,37.25,0,0,1,143,436.58a45.35,45.35,0,0,1-5.37-22.42,46.48,46.48,0,0,1,5.45-22.81,37.75,37.75,0,0,1,15.34-15.26,47,47,0,0,1,22.81-5.37,47,47,0,0,1,22.42,5.22,37.57,37.57,0,0,1,15.26,14.72l-20.09,11.68A18.86,18.86,0,0,0,182.36,393.6Z" transform="translate(-17.91 -259.37)"></path><path class="cls-1 fuHPOuhk_2" d="M271,374.44a31.72,31.72,0,0,1,15.81-3.89v25.38q-1.4-.15-4.2-.16-9.81,0-15.88,4.59a17.62,17.62,0,0,0-7,12.54v43H232V371.64h27.72v14A30.36,30.36,0,0,1,271,374.44Z" transform="translate(-17.91 -259.37)"></path><path class="cls-1 fuHPOuhk_3" d="M362.21,376.08a39.29,39.29,0,0,1,16.2,15.11,43.36,43.36,0,0,1,5.76,22.5q0,12.93-5.76,22.66a39.28,39.28,0,0,1-16.2,15.11q-10.43,5.37-24.14,5.37t-24.14-5.37a38.74,38.74,0,0,1-16.12-15.11q-5.69-9.73-5.68-22.66a43.79,43.79,0,0,1,5.68-22.5,38.75,38.75,0,0,1,16.12-15.11q10.43-5.37,24.14-5.37T362.21,376.08ZM325,398.89q-5,5.76-5,15.11,0,9.5,5,15.26A16.45,16.45,0,0,0,338.08,435a16.63,16.63,0,0,0,13.24-5.76q5-5.76,5-15.26,0-9.34-5.06-15.11a16.7,16.7,0,0,0-13.16-5.76A16.46,16.46,0,0,0,325,398.89Z" transform="translate(-17.91 -259.37)"></path><path class="cls-2 fuHPOuhk_4" d="M88.11,363.44q-10.63-3.52-17.83-3.52-5.69,0-9,2.09a6.81,6.81,0,0,0-3.26,6.11,8.36,8.36,0,0,0,2.85,6.45,21.74,21.74,0,0,0,7,4.19q4.18,1.59,12.39,4.1a161.26,161.26,0,0,1,20.18,7,35.31,35.31,0,0,1,13.65,10.8q5.69,7.28,5.69,19t-6.2,20a37.55,37.55,0,0,1-17,12.47,66,66,0,0,1-24,4.19,86.87,86.87,0,0,1-29.05-5.11,79.47,79.47,0,0,1-25-14l11.89-23.94a73.92,73.92,0,0,0,21,12.89q12.14,5,21.52,5,6.86,0,10.8-2.51a8.2,8.2,0,0,0,3.93-7.37,8.7,8.7,0,0,0-2.93-6.7,21.61,21.61,0,0,0-7.37-4.27q-4.44-1.59-12.47-3.77A153.66,153.66,0,0,1,45,399.86a35.21,35.21,0,0,1-13.48-10.38Q25.9,382.53,25.9,371a32.32,32.32,0,0,1,5.78-19.09,36.78,36.78,0,0,1,16.41-12.64q10.63-4.43,24.7-4.44a89.64,89.64,0,0,1,25.12,3.6A82.76,82.76,0,0,1,119.67,348l-11.55,24.45A103,103,0,0,0,88.11,363.44Z" transform="translate(-17.91 -259.37)"></path><path class="cls-2 fuHPOuhk_5" d="M176.1,387.55A16.11,16.11,0,0,0,163,393.66q-5,6.11-5,15.82,0,9.88,5,15.91a16.2,16.2,0,0,0,13.06,6q12.39,0,17.75-10.21l21.93,12.56a37.25,37.25,0,0,1-16.07,16.07q-10.72,5.69-25.12,5.69-13.9,0-24.45-5.69a40.05,40.05,0,0,1-16.33-16.07Q128,423.38,128,409.65q0-13.9,5.86-24.53a40.59,40.59,0,0,1,16.49-16.41q10.63-5.78,24.53-5.78A50.58,50.58,0,0,1,199,368.54a40.39,40.39,0,0,1,16.41,15.82l-21.6,12.56A20.28,20.28,0,0,0,176.1,387.55Z" transform="translate(-17.91 -259.37)"></path><path class="cls-2 fuHPOuhk_6" d="M271.46,367a34.11,34.11,0,0,1,17-4.19v27.29q-1.51-.16-4.52-.17-10.55,0-17.08,4.94a18.94,18.94,0,0,0-7.54,13.48v46.21h-29.8V363.94h29.8V379A32.65,32.65,0,0,1,271.46,367Z" transform="translate(-17.91 -259.37)"></path><path class="cls-2 fuHPOuhk_7" d="M369.49,368.71A42.25,42.25,0,0,1,386.91,385a46.63,46.63,0,0,1,6.19,24.2q0,13.9-6.19,24.36a42.24,42.24,0,0,1-17.41,16.24q-11.22,5.78-26,5.78t-26-5.78a41.66,41.66,0,0,1-17.33-16.24q-6.11-10.46-6.11-24.36a47.09,47.09,0,0,1,6.11-24.2,41.66,41.66,0,0,1,17.33-16.24q11.22-5.78,26-5.78T369.49,368.71Zm-40,24.53q-5.36,6.2-5.36,16.24,0,10.21,5.36,16.41a17.69,17.69,0,0,0,14.07,6.2q8.87,0,14.23-6.2t5.36-16.41q0-10-5.44-16.24a18,18,0,0,0-14.15-6.2A17.7,17.7,0,0,0,329.48,393.24Z" transform="translate(-17.91 -259.37)"></path><path class="cls-3 fuHPOuhk_8" d="M520.77,569.86H385.44V536.64H520.77Zm-134.33-1H519.77V537.64H386.44Z" transform="translate(-17.91 -259.37)"></path><path class="cls-1 fuHPOuhk_9" d="M450.44,339h27.72V454.51H450.44Z" transform="translate(-17.91 -259.37)"></path><path class="cls-1 fuHPOuhk_10" d="M534.86,389.84a11,11,0,0,0-5.76,1.32,4.34,4.34,0,0,0-2.18,4q0,2.8,3.43,4.52a63.06,63.06,0,0,0,10.9,3.74,136.7,136.7,0,0,1,15,5.22,27.5,27.5,0,0,1,10.36,7.79Q571,421.61,571,430q0,12.77-9.89,20t-25.77,7.24a69.13,69.13,0,0,1-20.56-3,54.42,54.42,0,0,1-17.44-9l8.72-17.91a61.35,61.35,0,0,0,15,7.71A45.44,45.44,0,0,0,536,437.81a13.46,13.46,0,0,0,6.46-1.32,4.15,4.15,0,0,0,2.41-3.82q0-3.11-3.5-4.83a66.7,66.7,0,0,0-11-3.74,122.85,122.85,0,0,1-14.64-5.22,27.61,27.61,0,0,1-10-7.71q-4.28-5.14-4.28-13.39,0-12.77,9.66-20T536,370.53a67.64,67.64,0,0,1,35,9.81l-9.34,18.06Q545.29,389.85,534.86,389.84Z" transform="translate(-17.91 -259.37)"></path><path class="cls-2 fuHPOuhk_11" d="M442.49,324.29h30.85V452.9H442.49Z" transform="translate(-17.91 -259.37)"></path><path class="cls-2 fuHPOuhk_12" d="M536.45,380.92A12.26,12.26,0,0,0,530,382.4a4.83,4.83,0,0,0-2.43,4.42q0,3.12,3.81,5A70.19,70.19,0,0,0,543.56,396a152.15,152.15,0,0,1,16.73,5.81,30.61,30.61,0,0,1,11.53,8.67q4.85,5.81,4.85,15.17,0,14.21-11,22.27T537,456a77,77,0,0,1-22.88-3.38,60.58,60.58,0,0,1-19.41-10l9.71-19.93a68.28,68.28,0,0,0,16.73,8.58,50.58,50.58,0,0,0,16.55,3,15,15,0,0,0,7.19-1.47,4.62,4.62,0,0,0,2.69-4.25q0-3.47-3.9-5.37a74.24,74.24,0,0,0-12.22-4.16,136.74,136.74,0,0,1-16.29-5.81A30.73,30.73,0,0,1,504,404.67q-4.77-5.72-4.77-14.91,0-14.21,10.75-22.27t27.73-8.06a75.28,75.28,0,0,1,39,10.92l-10.4,20.11Q548.07,380.93,536.45,380.92Z" transform="translate(-17.91 -259.37)"></path><path class="cls-1 fuHPOuhk_13" d="M411.79,465.9l-.67.44c-1.43.08-2.86.09-4.28.24-5.07.54-6.07,0-7.69-4.49L399,459.9c.92-3.25.07-6.54.19-9.81,0-1,.53-2.31-.73-3.09l-.06-2.76a4.42,4.42,0,0,0,.42-1.3q-.08-16.27-.22-32.54c0-.65.1-1.38-.74-1.69l0-3.34a1,1,0,0,0,0-1.73v-1c1-.7,1.06-1.38,0-2.05v-1c.57-.39.47-1,.47-1.56.1-6.13.35-12.26.22-18.39,0-2.31.88-2.88,2.79-3.1s4,0,5.63-1.4l.71,1c-.16,18.19-.89,36.38.58,54.55,1-6.13,1-12.31,1.06-18.48.12-10.91.28-21.81.36-32.72,0-1.59.09-2.9,2.11-2.95l1,.34c0,8.87-.07,17.74,0,26.62Q413,434.69,411.79,465.9Z" transform="translate(-17.91 -259.37)"></path><path class="cls-1 fuHPOuhk_14" d="M397.33,317.23l.05-2.73c1.43-3.08.94-6.27.53-9.46l.18-2.68c1.18-1.53,1-3.18.42-4.86l.12-1.52c1.16-1.12.93-2.4.43-3.71l.09-1a9.84,9.84,0,0,0,.56-.95c.94-2.08,2.87-2.39,4.65-2s.78,2.13.81,3.24c.61,19.87.82,39.74.47,59.62,0,.89-.34,2,.71,2.61l0,0c0,.39.14.56.52.56a3,3,0,0,0,2.3.84c-.21.36.07,1.13-.56,1.09-2.24-.16-1.8,1.23-1.57,2.53-1.8,1.55.3,2.46.59,3.66-.27,1.91.67,3.84-.08,5.74-.65.11-.62.61-.64,1.09a11,11,0,0,0-6.19-.79c-2.67.33-3-.74-3-3,.06-15.1,0-30.2,0-45.3C397.75,319.24,398.22,318.12,397.33,317.23Z" transform="translate(-17.91 -259.37)"></path><path class="cls-4 fuHPOuhk_15" d="M406.34,353.78c-1-.64-.72-1.71-.71-2.61.35-19.88.14-39.75-.47-59.62,0-1.11.86-2.87-.81-3.24s-3.71-.08-4.65,2a9.84,9.84,0,0,1-.56.95c.5-3.77-.09-7.72,1.95-11.22-.2,2,.71,2.65,2.67,2.31a15.35,15.35,0,0,1,4.23-.2c2.4.27,2.61-.77,1.86-2.61,2.1.8,2.1.8,2.14,3.62a38.09,38.09,0,0,0-3.94,0c-.95.1-2.43-.91-2.7,1a3.22,3.22,0,0,0,1.83,3.69c1.1.6,2.64.74,3.18,2.21.14.39.36.78.54,0s0-1.5,1.11-1.23a2,2,0,0,1,1.42,2c.32,2.58.72,5.16,1,7.75,1.33,13.95,1.54,27.94,1.63,41.93q.09,12.89.11,25.78c0,.88.33,2.4-.85,2.41s-2.77,1-4-.27c0,0,.16-.3.25-.46,2.11-.81,1.81-2.64,1.79-4.32q-.31-28.51-.64-57c0-.88-.08-1.77-.13-2.65h-.5v12.11A3.81,3.81,0,0,1,411,313c-.05-1.74-.63-2.57-2.6-2.53-2.22.05-1.26,1.58-1.29,2.44C406.56,326.51,408.12,340.17,406.34,353.78Z" transform="translate(-17.91 -259.37)"></path><path class="cls-4 fuHPOuhk_16" d="M399.16,462.09c1.61,4.46,2.62,5,7.69,4.49,1.42-.15,2.85-.16,4.28-.24-.09,7.13-1.36,14.16-2,21.25a52.77,52.77,0,0,0-.69,5.42c0,2.13-2.57,1.49-2.84,3.11a2.41,2.41,0,0,1-1.92-2.2c-1.18-7.59-2.32-15.2-3.54-22.78C399.67,468.13,398.3,465.24,399.16,462.09Z" transform="translate(-17.91 -259.37)"></path><path class="cls-4 fuHPOuhk_17" d="M411.79,465.9q1.14-31.21,1-62.44c0-8.87,0-17.74,0-26.62,1.81-.51,2.4.24,2.39,2-.07,28.15.33,56.3-1.37,84.42C413.81,464.64,413.93,466.19,411.79,465.9Z" transform="translate(-17.91 -259.37)"></path><path class="cls-4 fuHPOuhk_18" d="M397.33,317.23c.89.89.42,2,.42,3,0,15.1.09,30.2,0,45.3,0,2.24.28,3.31,3,3a11,11,0,0,1,6.19.79,5.4,5.4,0,0,1,.1,5.81c-1.64,1.39-3.7,1.18-5.63,1.4s-2.84.8-2.79,3.1c.13,6.13-.12,12.26-.22,18.39,0,.56.1,1.17-.47,1.56a3.3,3.3,0,0,1-.39-1c-.24-26.57-1.34-53.13-.64-79.71C396.89,318.26,396.82,317.66,397.33,317.23Z" transform="translate(-17.91 -259.37)"></path><path class="cls-4 fuHPOuhk_19" d="M411.84,376.51c-2,.05-2.09,1.36-2.11,2.95-.08,10.91-.24,21.81-.36,32.72-.07,6.17,0,12.34-1.06,18.48-1.47-18.16-.74-36.36-.58-54.55-.22-2.77,2.58-2.14,3.85-3.22.53-.45,1.17,1,1,1.88C412.48,375.36,411.6,375.7,411.84,376.51Z" transform="translate(-17.91 -259.37)"></path><path class="cls-1 fuHPOuhk_20" d="M412.07,316.14V304h.5c0,.88.12,1.77.13,2.65q.33,28.51.64,57c0,1.68.32,3.51-1.79,4.32-.49.54-1.08.34-1.66.23-.27-4.42,2.58-8.83.05-13.26a2.81,2.81,0,0,0,1.76-2.29c.58-.38.57-.85.23-1.38l.11-2.69a35.24,35.24,0,0,0,.08-9.42q0-7.47,0-14.95v-.72Z" transform="translate(-17.91 -259.37)"></path><path class="cls-4 fuHPOuhk_21" d="M397.91,408.71c.83.31.73,1,.74,1.69q.13,16.27.22,32.54a4.42,4.42,0,0,1-.42,1.3c-.75-.92-.48-2-.5-3q-.2-15.26-.32-30.52A12.75,12.75,0,0,1,397.91,408.71Z" transform="translate(-17.91 -259.37)"></path><path class="cls-1 fuHPOuhk_22" d="M409.85,279.54c.75,1.84.54,2.88-1.86,2.61a15.35,15.35,0,0,0-4.23.2c-2,.33-2.87-.28-2.67-2.31C403.9,277.87,406.87,278.66,409.85,279.54Z" transform="translate(-17.91 -259.37)"></path><path class="cls-4 fuHPOuhk_23" d="M409.93,355c2.53,4.43-.33,8.84-.05,13.26l-2.32,0c.75-1.9-.19-3.83.08-5.74,1.11-.22.68-1.58,1.27-1.93,1.1-.64.94-.84.18-1.76-.92-1.11-1.38-.47-2,0-.23-1.3-.67-2.69,1.57-2.53.64,0,.35-.73.56-1.09Z" transform="translate(-17.91 -259.37)"></path><path class="cls-4 fuHPOuhk_24" d="M398.5,447c1.27.78.77,2.06.73,3.09-.12,3.27.73,6.56-.19,9.81A46.78,46.78,0,0,1,398.5,447Z" transform="translate(-17.91 -259.37)"></path><path class="cls-4 fuHPOuhk_25" d="M397.92,305c.41,3.19.9,6.38-.53,9.46C397.05,311.32,396.79,308.14,397.92,305Z" transform="translate(-17.91 -259.37)"></path><path class="cls-4 fuHPOuhk_26" d="M398.52,297.5c.6,1.69.76,3.33-.42,4.86A5.88,5.88,0,0,1,398.52,297.5Z" transform="translate(-17.91 -259.37)"></path><path class="cls-4 fuHPOuhk_27" d="M399.06,292.27c.51,1.31.73,2.59-.43,3.71A4.12,4.12,0,0,1,399.06,292.27Z" transform="translate(-17.91 -259.37)"></path><path class="cls-4 fuHPOuhk_28" d="M397.9,400.6c1.08.67,1.06,1.36,0,2.05A2,2,0,0,1,397.9,400.6Z" transform="translate(-17.91 -259.37)"></path><path class="cls-4 fuHPOuhk_29" d="M397.93,403.65a1,1,0,0,1,0,1.73A1,1,0,0,1,397.93,403.65Z" transform="translate(-17.91 -259.37)"></path><path class="cls-5 fuHPOuhk_30" d="M409.93,355l-.76.21a3,3,0,0,1-2.3-.84c0-.3-.12-.57-.52-.56l0,0c1.77-13.6.21-27.26.74-40.89,0-.86-.93-2.38,1.29-2.44,2,0,2.55.79,2.6,2.53a3.81,3.81,0,0,0,1.09,3.16l0,7.4c-.36.24-.35.48,0,.72q0,7.47,0,14.95a28.1,28.1,0,0,0-.08,9.42l-.11,2.69a1,1,0,0,0-.23,1.38A2.81,2.81,0,0,1,409.93,355Z" transform="translate(-17.91 -259.37)"></path><path class="cls-5 fuHPOuhk_31" d="M407,358.82c.67-.49,1.13-1.14,2,0,.76.92.92,1.12-.18,1.76-.6.35-.16,1.71-1.27,1.93C407.35,361.27,405.24,360.36,407,358.82Z" transform="translate(-17.91 -259.37)"></path><path class="cls-4 fuHPOuhk_32" d="M406.36,353.8c.39,0,.47.26.52.56C406.5,354.36,406.31,354.19,406.36,353.8Z" transform="translate(-17.91 -259.37)"></path><path class="cls-4 fuHPOuhk_33" d="M412,348.63a28.1,28.1,0,0,1,.08-9.42A35.24,35.24,0,0,1,412,348.63Z" transform="translate(-17.91 -259.37)"></path><path class="cls-4 fuHPOuhk_34" d="M411.7,352.7a1,1,0,0,1,.23-1.38C412.26,351.85,412.28,352.33,411.7,352.7Z" transform="translate(-17.91 -259.37)"></path><path class="cls-4 fuHPOuhk_35" d="M412.11,324.26c-.35-.24-.35-.48,0-.72Z" transform="translate(-17.91 -259.37)"></path><path class="cls-2 fuHPOuhk_36" d="M417.76,473l-.78.5c-1.65.09-3.31.1-5,.27-5.88.62-7,0-8.91-5.11l-.13-2.49c1.07-3.7.08-7.44.22-11.16,0-1.17.62-2.63-.85-3.51l-.06-3.13a5,5,0,0,0,.49-1.48q-.09-18.5-.25-37c0-.74.11-1.57-.85-1.92l0-3.79a1.14,1.14,0,0,0,0-2V401c1.21-.79,1.23-1.57,0-2.33v-1.16c.66-.45.54-1.14.55-1.78.12-7,.41-13.95.26-20.91-.06-2.62,1-3.28,3.23-3.53s4.62,0,6.53-1.59l.83,1.11c-.18,20.68-1,41.38.67,62,1.18-7,1.14-14,1.22-21,.14-12.4.33-24.8.42-37.21,0-1.81.11-3.29,2.44-3.35l1.2.38c0,10.09-.08,20.18,0,30.27Q419.11,437.46,417.76,473Z" transform="translate(-17.91 -259.37)"></path><path class="cls-2 fuHPOuhk_37" d="M401,303.88l.06-3.11c1.66-3.5,1.09-7.13.61-10.76l.21-3c1.37-1.74,1.18-3.61.49-5.53l.13-1.73c1.34-1.27,1.08-2.73.49-4.22l.1-1.15a11.14,11.14,0,0,0,.65-1.08c1.09-2.37,3.33-2.72,5.39-2.28s.9,2.43.94,3.68c.7,22.59,1,45.19.55,67.8,0,1-.39,2.23.82,3l0,0c-.06.44.16.64.6.63a3.55,3.55,0,0,0,2.67,1c-.25.41.08,1.29-.65,1.24-2.59-.19-2.08,1.39-1.82,2.88-2.09,1.76.35,2.8.69,4.17-.31,2.17.78,4.36-.09,6.53-.75.12-.72.7-.74,1.24a12.94,12.94,0,0,0-7.18-.9c-3.09.37-3.43-.84-3.42-3.39.07-17.17,0-34.34,0-51.51C401.49,306.17,402,304.9,401,303.88Z" transform="translate(-17.91 -259.37)"></path><path class="cls-2 fuHPOuhk_38" d="M411.45,345.44c-1.22-.73-.84-1.95-.82-3,.41-22.6.16-45.2-.55-67.8,0-1.26,1-3.27-.94-3.68s-4.3-.09-5.39,2.28a11.14,11.14,0,0,1-.65,1.08c.58-4.28-.1-8.78,2.26-12.77-.24,2.32.83,3,3.09,2.63a18.13,18.13,0,0,1,4.9-.22c2.78.31,3-.87,2.15-3,2.44.91,2.44.91,2.48,4.12a45,45,0,0,0-4.57,0c-1.1.11-2.81-1-3.13,1.15a3.64,3.64,0,0,0,2.12,4.2c1.27.68,3.06.84,3.68,2.52.17.45.41.89.62,0s0-1.71,1.28-1.4a2.3,2.3,0,0,1,1.65,2.25c.38,2.94.83,5.87,1.12,8.82,1.55,15.86,1.78,31.77,1.89,47.69q.1,14.66.12,29.31c0,1,.38,2.73-1,2.74s-3.21,1.12-4.62-.31c0,0,.19-.34.29-.52,2.45-.92,2.1-3,2.08-4.91q-.36-32.43-.74-64.85c0-1-.1-2-.15-3h-.58v13.77c-1.18-.94-1.23-2.3-1.27-3.59-.06-2-.73-2.93-3-2.88-2.57.06-1.46,1.79-1.5,2.77C411.7,314.44,413.5,330,411.45,345.44Z" transform="translate(-17.91 -259.37)"></path><path class="cls-2 fuHPOuhk_39" d="M403.12,468.62c1.87,5.08,3,5.72,8.91,5.11,1.64-.17,3.3-.19,5-.27-.11,8.11-1.58,16.1-2.29,24.16-.18,2.06-.84,4.11-.8,6.16,0,2.43-3,1.69-3.29,3.54a2.76,2.76,0,0,1-2.23-2.5c-1.37-8.64-2.69-17.28-4.1-25.91C403.71,475.49,402.12,472.2,403.12,468.62Z" transform="translate(-17.91 -259.37)"></path><path class="cls-2 fuHPOuhk_40" d="M417.76,473q1.33-35.49,1.21-71c0-10.09,0-20.18,0-30.27,2.1-.58,2.78.27,2.77,2.32-.08,32,.38,64-1.59,96C420.1,471.53,420.25,473.29,417.76,473Z" transform="translate(-17.91 -259.37)"></path><path class="cls-2 fuHPOuhk_41" d="M401,303.88c1,1,.49,2.29.49,3.43.05,17.17.1,34.34,0,51.51,0,2.55.33,3.76,3.42,3.39a12.94,12.94,0,0,1,7.18.9c1.5,2.18,1.24,4.39.12,6.61-1.91,1.59-4.29,1.34-6.53,1.59s-3.29.9-3.23,3.53c.15,7-.14,13.94-.26,20.91,0,.64.11,1.33-.55,1.78a3.71,3.71,0,0,1-.45-1.18c-.28-30.22-1.56-60.43-.74-90.65C400.49,305.05,400.4,304.37,401,303.88Z" transform="translate(-17.91 -259.37)"></path><path class="cls-2 fuHPOuhk_42" d="M417.82,371.3c-2.33.06-2.43,1.54-2.44,3.35-.1,12.4-.28,24.8-.42,37.21-.08,7,0,14-1.22,21-1.7-20.65-.85-41.35-.67-62-.26-3.15,3-2.43,4.46-3.66.61-.51,1.35,1.17,1.17,2.14C418.56,370,417.55,370.38,417.82,371.3Z" transform="translate(-17.91 -259.37)"></path><path class="cls-2 fuHPOuhk_43" d="M418.09,302.65V288.88h.58c.05,1,.13,2,.15,3q.38,32.43.74,64.85c0,1.91.37,4-2.08,4.91-.57.61-1.25.39-1.92.26-.32-5,3-10,.06-15.08a3.2,3.2,0,0,0,2-2.61c.67-.43.66-1,.27-1.57l.13-3.06a39.33,39.33,0,0,0,.09-10.72q0-8.5,0-17v-.82Z" transform="translate(-17.91 -259.37)"></path><path class="cls-2 fuHPOuhk_44" d="M401.67,407.92c1,.35.85,1.18.85,1.92q.15,18.5.25,37a5,5,0,0,1-.49,1.48c-.86-1-.56-2.3-.57-3.46q-.24-17.35-.37-34.71A14.25,14.25,0,0,1,401.67,407.92Z" transform="translate(-17.91 -259.37)"></path><path class="cls-2 fuHPOuhk_45" d="M415.51,261c.87,2.1.63,3.28-2.15,3a18.13,18.13,0,0,0-4.9.22c-2.27.38-3.33-.31-3.09-2.63C408.61,259.12,412.06,260,415.51,261Z" transform="translate(-17.91 -259.37)"></path><path class="cls-2 fuHPOuhk_46" d="M415.61,346.83c2.93,5-.38,10.05-.06,15.08l-2.69,0c.87-2.17-.22-4.36.09-6.53,1.29-.26.78-1.8,1.48-2.2,1.27-.73,1.09-1,.21-2-1.07-1.27-1.6-.53-2.37,0-.26-1.48-.78-3.06,1.82-2.88.74.05.41-.83.65-1.24Z" transform="translate(-17.91 -259.37)"></path><path class="cls-2 fuHPOuhk_47" d="M402.35,451.46c1.47.88.89,2.34.85,3.51-.14,3.72.85,7.46-.22,11.16A52.21,52.21,0,0,1,402.35,451.46Z" transform="translate(-17.91 -259.37)"></path><path class="cls-2 fuHPOuhk_48" d="M401.68,290c.48,3.62,1,7.25-.61,10.76C400.68,297.16,400.37,293.54,401.68,290Z" transform="translate(-17.91 -259.37)"></path><path class="cls-2 fuHPOuhk_49" d="M402.38,281.45c.7,1.92.88,3.79-.49,5.53A6.58,6.58,0,0,1,402.38,281.45Z" transform="translate(-17.91 -259.37)"></path><path class="cls-2 fuHPOuhk_50" d="M403,275.5c.59,1.49.85,2.94-.49,4.22A4.61,4.61,0,0,1,403,275.5Z" transform="translate(-17.91 -259.37)"></path><path class="cls-2 fuHPOuhk_51" d="M401.66,398.69c1.25.76,1.23,1.54,0,2.33A2.22,2.22,0,0,1,401.66,398.69Z" transform="translate(-17.91 -259.37)"></path><path class="cls-2 fuHPOuhk_52" d="M401.7,402.16a1.14,1.14,0,0,1,0,2A1.16,1.16,0,0,1,401.7,402.16Z" transform="translate(-17.91 -259.37)"></path><path class="cls-2 fuHPOuhk_53" d="M415.61,346.83l-.88.24a3.54,3.54,0,0,1-2.67-1c-.06-.34-.14-.65-.6-.63l0,0c2.06-15.47.25-31,.86-46.5,0-1-1.07-2.71,1.5-2.77,2.28-.05,3,.89,3,2.88,0,1.3.09,2.65,1.27,3.59l.06,8.41c-.41.27-.41.54,0,.82q0,8.5,0,17a31.36,31.36,0,0,0-.09,10.72l-.13,3.06a1.12,1.12,0,0,0-.27,1.57A3.2,3.2,0,0,1,415.61,346.83Z" transform="translate(-17.91 -259.37)"></path><path class="cls-2 fuHPOuhk_54" d="M412.26,351.18c.77-.56,1.3-1.29,2.37,0,.88,1,1.06,1.27-.21,2-.69.4-.19,1.94-1.48,2.2C412.61,354,410.17,352.93,412.26,351.18Z" transform="translate(-17.91 -259.37)"></path><path class="cls-2 fuHPOuhk_55" d="M411.47,345.47c.45,0,.54.29.6.63C411.63,346.11,411.41,345.91,411.47,345.47Z" transform="translate(-17.91 -259.37)"></path><path class="cls-2 fuHPOuhk_56" d="M418.05,339.59a31.36,31.36,0,0,1,.09-10.72A39.33,39.33,0,0,1,418.05,339.59Z" transform="translate(-17.91 -259.37)"></path><path class="cls-2 fuHPOuhk_57" d="M417.65,344.22a1.12,1.12,0,0,1,.27-1.57C418.31,343.25,418.32,343.79,417.65,344.22Z" transform="translate(-17.91 -259.37)"></path><path class="cls-2 fuHPOuhk_58" d="M418.13,311.87c-.4-.28-.4-.55,0-.82Z" transform="translate(-17.91 -259.37)"></path><path class="cls-1 fuHPOuhk_59" width="3.23" height="35.5" d="M390.32 241.78 L393.55 241.78 L393.55 277.28 L390.32 277.28 Z"></path><path class="cls-1 fuHPOuhk_60" width="3.83" height="86.36" d="M440.34 191.76 L444.16999999999996 191.76 L444.16999999999996 278.12 L440.34 278.12 Z"></path><text class="cls-6" transform="translate(398.43 305.97)">2018</text><path class="cls-7 fuHPOuhk_61" d="M36.27,309.72h.82L42.71,323h-1l-1.85-4.38H33.49L31.64,323h-1Zm3.32,8.13-2.9-7-3,7Z" transform="translate(-17.91 -259.37)"></path><path class="cls-7 fuHPOuhk_62" d="M42.81,326.34a3.77,3.77,0,0,1-1.11-.16,2.44,2.44,0,0,1-.93-.53l.51-.62a1.75,1.75,0,0,0,.69.36,3.08,3.08,0,0,0,.75.09,1.78,1.78,0,0,0,.69-.14,1.91,1.91,0,0,0,.6-.39,2.09,2.09,0,0,0,.43-.6,1.71,1.71,0,0,0,.17-.76V313.28h.94v10.27a2.64,2.64,0,0,1-.23,1.12,2.87,2.87,0,0,1-.63.88,2.93,2.93,0,0,1-.88.58A2.53,2.53,0,0,1,42.81,326.34Zm1.8-15.27v-1.72h.94v1.72Z" transform="translate(-17.91 -259.37)"></path><path class="cls-7 fuHPOuhk_63" d="M50.86,323.21a3.34,3.34,0,0,1-2.28-.87,2.81,2.81,0,0,1-.68-1,2.91,2.91,0,0,1-.24-1.19A2.3,2.3,0,0,1,48,319a2.88,2.88,0,0,1,.83-.91,4.14,4.14,0,0,1,1.28-.6,6,6,0,0,1,1.65-.22,9.14,9.14,0,0,1,1.58.14,7.86,7.86,0,0,1,1.43.38v-1a3,3,0,0,0-.79-2.2,2.83,2.83,0,0,0-2.14-.81,4.29,4.29,0,0,0-1.51.3,7.69,7.69,0,0,0-1.62.86l-.36-.64a6.39,6.39,0,0,1,3.56-1.27,3.73,3.73,0,0,1,2.77,1,3.83,3.83,0,0,1,1,2.82v4.76q0,.47.41.47V323l-.2,0h-.18a.76.76,0,0,1-.6-.25,1.06,1.06,0,0,1-.26-.61v-.81a4.38,4.38,0,0,1-1.72,1.35A5.5,5.5,0,0,1,50.86,323.21Zm.19-.75a4.77,4.77,0,0,0,2-.41,3.42,3.42,0,0,0,1.4-1.09,1.26,1.26,0,0,0,.3-.75v-1.72a7.59,7.59,0,0,0-1.41-.39,8.63,8.63,0,0,0-1.52-.13,5.19,5.19,0,0,0-1.33.16,3.54,3.54,0,0,0-1,.44,2,2,0,0,0-.67.68,1.74,1.74,0,0,0-.23.89,2.28,2.28,0,0,0,.19.92,2.16,2.16,0,0,0,.52.74,2.5,2.5,0,0,0,.8.49A2.69,2.69,0,0,0,51,322.46Z" transform="translate(-17.91 -259.37)"></path><path class="cls-7 fuHPOuhk_64" d="M58.94,326.32l.28,0,.35,0a.94.94,0,0,0,.31-.09.71.71,0,0,0,.21-.16,2.34,2.34,0,0,0,.26-.42q.17-.32.43-.94l.71-1.69-4.35-9.74h1L62,322.1l3.62-8.83h.92l-5.34,12.82a1.65,1.65,0,0,1-.67.82,2.32,2.32,0,0,1-1.25.29h-.16l-.18,0Z" transform="translate(-17.91 -259.37)"></path><path class="cls-7 fuHPOuhk_65" d="M73,323v-13.3h1v8.08l7.76-8.08h1.11l-5.53,5.83L83.09,323H82l-5.34-6.9-2.72,2.79V323Z" transform="translate(-17.91 -259.37)"></path><path class="cls-7 fuHPOuhk_66" d="M87.31,323.21q-3.11,0-3.11-4.31v-5.62h.94v5.49q0,3.6,2.45,3.6a3.42,3.42,0,0,0,1.2-.22,4.2,4.2,0,0,0,2-1.53,4.72,4.72,0,0,0,.61-1.2v-6.15h.94v8.43q0,.47.39.47V323l-.17,0h-.11a1,1,0,0,1-.67-.23.77.77,0,0,1-.29-.63v-1.46a4.69,4.69,0,0,1-4.16,2.49Z" transform="translate(-17.91 -259.37)"></path><path class="cls-7 fuHPOuhk_67" d="M109.6,323h-.94v-5.43a5.13,5.13,0,0,0-.57-2.74,1.94,1.94,0,0,0-1.75-.88,3,3,0,0,0-1.14.22,3.46,3.46,0,0,0-1,.63,4,4,0,0,0-.78,1,5,5,0,0,0-.52,1.23v6H102v-5.43a5.2,5.2,0,0,0-.56-2.75,1.93,1.93,0,0,0-1.74-.87,3,3,0,0,0-1.13.22,3.35,3.35,0,0,0-1,.62,4.43,4.43,0,0,0-.8,1,4.6,4.6,0,0,0-.53,1.23v6h-.94v-9.74h.88v2.32a4.75,4.75,0,0,1,1.57-1.84,3.78,3.78,0,0,1,2.15-.66,2.79,2.79,0,0,1,2,.73,3.08,3.08,0,0,1,.92,1.91,4.23,4.23,0,0,1,3.82-2.64,2.45,2.45,0,0,1,2.28,1.13,6.17,6.17,0,0,1,.68,3.18Z" transform="translate(-17.91 -259.37)"></path><path class="cls-7 fuHPOuhk_68" d="M114.83,323.21a3.34,3.34,0,0,1-2.28-.87,2.81,2.81,0,0,1-.68-1,2.91,2.91,0,0,1-.24-1.19,2.3,2.3,0,0,1,.3-1.16,2.88,2.88,0,0,1,.83-.91,4.14,4.14,0,0,1,1.28-.6,6,6,0,0,1,1.65-.22,9.14,9.14,0,0,1,1.58.14,7.86,7.86,0,0,1,1.43.38v-1a3,3,0,0,0-.79-2.2,2.83,2.83,0,0,0-2.14-.81,4.29,4.29,0,0,0-1.51.3,7.69,7.69,0,0,0-1.62.86l-.36-.64a6.39,6.39,0,0,1,3.56-1.27,3.73,3.73,0,0,1,2.77,1,3.83,3.83,0,0,1,1,2.82v4.76q0,.47.41.47V323l-.2,0h-.18a.76.76,0,0,1-.6-.25,1.06,1.06,0,0,1-.26-.61v-.81a4.38,4.38,0,0,1-1.72,1.35A5.5,5.5,0,0,1,114.83,323.21Zm.19-.75a4.77,4.77,0,0,0,2-.41,3.42,3.42,0,0,0,1.4-1.09,1.26,1.26,0,0,0,.3-.75v-1.72a7.59,7.59,0,0,0-1.41-.39,8.63,8.63,0,0,0-1.52-.13,5.19,5.19,0,0,0-1.33.16,3.54,3.54,0,0,0-1,.44,2,2,0,0,0-.67.68,1.74,1.74,0,0,0-.23.89,2.28,2.28,0,0,0,.19.92,2.16,2.16,0,0,0,.52.74,2.5,2.5,0,0,0,.8.49A2.69,2.69,0,0,0,115,322.46Z" transform="translate(-17.91 -259.37)"></path><path class="cls-7 fuHPOuhk_69" d="M127.11,314.12a3.83,3.83,0,0,0-3.67,2.81V323h-.94v-9.74h.9v2.4a4.7,4.7,0,0,1,1.34-1.68,3.43,3.43,0,0,1,1.79-.74l.34,0h.24Z" transform="translate(-17.91 -259.37)"></path><path class="cls-7 fuHPOuhk_70" d="M143.33,320.94a5.84,5.84,0,0,1-4.48,2.17,5.47,5.47,0,0,1-2.5-.58,6.36,6.36,0,0,1-2-1.54,7.31,7.31,0,0,1-1.29-2.17,6.83,6.83,0,0,1-.47-2.47,7.1,7.1,0,0,1,.46-2.53,7,7,0,0,1,1.27-2.15,6.13,6.13,0,0,1,1.94-1.49,5.49,5.49,0,0,1,2.45-.55,6.88,6.88,0,0,1,1.79.22,5.45,5.45,0,0,1,1.42.6,4.57,4.57,0,0,1,1.09.92,5.72,5.72,0,0,1,.78,1.17L143,313a4.28,4.28,0,0,0-1.79-1.9,5.31,5.31,0,0,0-2.52-.59,4.49,4.49,0,0,0-2.14.51,5.27,5.27,0,0,0-1.63,1.33,5.94,5.94,0,0,0-1,1.87,6.65,6.65,0,0,0-.36,2.15,6.11,6.11,0,0,0,.41,2.24,6.05,6.05,0,0,0,1.13,1.86,5.51,5.51,0,0,0,1.7,1.28,4.7,4.7,0,0,0,2.1.48,5,5,0,0,0,2.31-.56,6.89,6.89,0,0,0,2.11-1.78v-2.57h-3v-.77h3.84V323h-.82Z" transform="translate(-17.91 -259.37)"></path><path class="cls-7 fuHPOuhk_71" d="M149.08,323.21a3.34,3.34,0,0,1-2.28-.87,2.81,2.81,0,0,1-.68-1,2.91,2.91,0,0,1-.24-1.19,2.3,2.3,0,0,1,.3-1.16,2.88,2.88,0,0,1,.83-.91,4.14,4.14,0,0,1,1.28-.6,6,6,0,0,1,1.65-.22,9.14,9.14,0,0,1,1.58.14,7.86,7.86,0,0,1,1.43.38v-1a3,3,0,0,0-.79-2.2,2.83,2.83,0,0,0-2.14-.81,4.29,4.29,0,0,0-1.51.3,7.69,7.69,0,0,0-1.62.86l-.36-.64a6.39,6.39,0,0,1,3.56-1.27,3.73,3.73,0,0,1,2.77,1,3.83,3.83,0,0,1,1,2.82v4.76q0,.47.41.47V323l-.2,0h-.18a.76.76,0,0,1-.6-.25,1.06,1.06,0,0,1-.26-.61v-.81a4.38,4.38,0,0,1-1.72,1.35A5.5,5.5,0,0,1,149.08,323.21Zm.19-.75a4.77,4.77,0,0,0,2-.41,3.42,3.42,0,0,0,1.4-1.09,1.26,1.26,0,0,0,.3-.75v-1.72a7.59,7.59,0,0,0-1.41-.39A8.63,8.63,0,0,0,150,318a5.19,5.19,0,0,0-1.33.16,3.54,3.54,0,0,0-1,.44,2,2,0,0,0-.67.68,1.74,1.74,0,0,0-.23.89,2.28,2.28,0,0,0,.19.92,2.16,2.16,0,0,0,.52.74,2.5,2.5,0,0,0,.8.49A2.69,2.69,0,0,0,149.27,322.46Z" transform="translate(-17.91 -259.37)"></path><path class="cls-7 fuHPOuhk_72" d="M161.36,314.12a3.83,3.83,0,0,0-3.67,2.81V323h-.94v-9.74h.9v2.4A4.7,4.7,0,0,1,159,314a3.43,3.43,0,0,1,1.79-.74l.34,0h.24Z" transform="translate(-17.91 -259.37)"></path><path class="cls-7 fuHPOuhk_73" d="M166.59,323.17a4.09,4.09,0,0,1-1.85-.42,4.66,4.66,0,0,1-1.45-1.12,5.37,5.37,0,0,1-1-1.6,5.11,5.11,0,0,1-.35-1.85,5.63,5.63,0,0,1,.33-1.91,5.14,5.14,0,0,1,.93-1.62,4.46,4.46,0,0,1,1.43-1.11,4.11,4.11,0,0,1,1.85-.41,3.76,3.76,0,0,1,2.22.67,6.39,6.39,0,0,1,1.6,1.62v-2.12h.86v9.93a3.86,3.86,0,0,1-.37,1.74,3.65,3.65,0,0,1-1,1.25,4.4,4.4,0,0,1-1.46.75,6,6,0,0,1-1.75.25,6.63,6.63,0,0,1-1.52-.16,4.52,4.52,0,0,1-1.19-.45,3.93,3.93,0,0,1-.92-.71,5.08,5.08,0,0,1-.7-.93l.64-.43a3.5,3.5,0,0,0,1.57,1.45,5,5,0,0,0,2.12.46,4.77,4.77,0,0,0,1.42-.21,3.45,3.45,0,0,0,1.16-.61,2.91,2.91,0,0,0,.79-1,3.2,3.2,0,0,0,.29-1.41v-2.14a4.5,4.5,0,0,1-1.59,1.53A4.11,4.11,0,0,1,166.59,323.17Zm.22-.81a3.25,3.25,0,0,0,1.21-.23,4.26,4.26,0,0,0,1.07-.61,3.57,3.57,0,0,0,.79-.84,2.38,2.38,0,0,0,.38-.94v-3.2a4.2,4.2,0,0,0-.6-1,4,4,0,0,0-.85-.82,4.25,4.25,0,0,0-1-.53,3.3,3.3,0,0,0-1.12-.2,3.26,3.26,0,0,0-1.57.37,3.77,3.77,0,0,0-1.17,1,4.38,4.38,0,0,0-.73,1.36,4.81,4.81,0,0,0-.25,1.53,4.24,4.24,0,0,0,.3,1.59,4.41,4.41,0,0,0,.82,1.33,3.89,3.89,0,0,0,1.24.92A3.5,3.5,0,0,0,166.81,322.37Z" transform="translate(-17.91 -259.37)"></path><path class="cls-7 fuHPOuhk_74" d="M188.08,322.16V323h-8.86v-13.3h8.69v.86h-7.74v5.23h6.76v.82h-6.76v5.53Z" transform="translate(-17.91 -259.37)"></path><path class="cls-7 fuHPOuhk_75" d="M198.25,323h-.94v-5.43a5.42,5.42,0,0,0-.53-2.75,1.85,1.85,0,0,0-1.7-.86,3.52,3.52,0,0,0-1.23.22,4.16,4.16,0,0,0-1.13.64,4.63,4.63,0,0,0-.92,1,4,4,0,0,0-.58,1.19v6h-.94v-9.74h.88v2.32a4.57,4.57,0,0,1,.74-1,4.67,4.67,0,0,1,1-.79,5,5,0,0,1,1.17-.51,4.58,4.58,0,0,1,1.27-.18,2.39,2.39,0,0,1,2.25,1.11,6.36,6.36,0,0,1,.66,3.19Z" transform="translate(-17.91 -259.37)"></path><path class="cls-7 fuHPOuhk_76" d="M205,323.17a4.09,4.09,0,0,1-1.85-.42,4.66,4.66,0,0,1-1.45-1.12,5.37,5.37,0,0,1-1-1.6,5.11,5.11,0,0,1-.35-1.85,5.63,5.63,0,0,1,.33-1.91,5.14,5.14,0,0,1,.93-1.62,4.46,4.46,0,0,1,1.43-1.11,4.11,4.11,0,0,1,1.85-.41,3.76,3.76,0,0,1,2.22.67,6.39,6.39,0,0,1,1.6,1.62v-2.12h.86v9.93a3.86,3.86,0,0,1-.37,1.74,3.65,3.65,0,0,1-1,1.25,4.4,4.4,0,0,1-1.46.75,6,6,0,0,1-1.75.25,6.63,6.63,0,0,1-1.52-.16,4.52,4.52,0,0,1-1.19-.45,3.93,3.93,0,0,1-.92-.71,5.08,5.08,0,0,1-.7-.93l.64-.43a3.5,3.5,0,0,0,1.57,1.45,5,5,0,0,0,2.12.46,4.77,4.77,0,0,0,1.42-.21,3.45,3.45,0,0,0,1.16-.61,2.91,2.91,0,0,0,.79-1,3.2,3.2,0,0,0,.29-1.41v-2.14a4.5,4.5,0,0,1-1.59,1.53A4.11,4.11,0,0,1,205,323.17Zm.22-.81a3.25,3.25,0,0,0,1.21-.23,4.26,4.26,0,0,0,1.07-.61,3.57,3.57,0,0,0,.79-.84,2.38,2.38,0,0,0,.38-.94v-3.2a4.2,4.2,0,0,0-.6-1,4,4,0,0,0-.85-.82,4.25,4.25,0,0,0-1-.53,3.3,3.3,0,0,0-1.12-.2,3.26,3.26,0,0,0-1.57.37,3.77,3.77,0,0,0-1.17,1,4.38,4.38,0,0,0-.73,1.36,4.81,4.81,0,0,0-.25,1.53,4.24,4.24,0,0,0,.3,1.59,4.41,4.41,0,0,0,.82,1.33,3.89,3.89,0,0,0,1.24.92A3.5,3.5,0,0,0,205.24,322.37Z" transform="translate(-17.91 -259.37)"></path><path class="cls-7 fuHPOuhk_77" d="M212.55,311.07v-1.72h.94v1.72Zm0,12v-9.74h.94V323Z" transform="translate(-17.91 -259.37)"></path><path class="cls-7 fuHPOuhk_78" d="M224.39,323h-.94v-5.43a5.42,5.42,0,0,0-.53-2.75,1.85,1.85,0,0,0-1.7-.86,3.52,3.52,0,0,0-1.23.22,4.16,4.16,0,0,0-1.13.64,4.63,4.63,0,0,0-.92,1,4,4,0,0,0-.58,1.19v6h-.94v-9.74h.88v2.32a4.57,4.57,0,0,1,.74-1,4.67,4.67,0,0,1,1-.79,5,5,0,0,1,1.17-.51,4.58,4.58,0,0,1,1.27-.18,2.39,2.39,0,0,1,2.25,1.11,6.36,6.36,0,0,1,.66,3.19Z" transform="translate(-17.91 -259.37)"></path><path class="cls-7 fuHPOuhk_79" d="M231.36,323.21a4.54,4.54,0,0,1-1.91-.4,4.72,4.72,0,0,1-1.53-1.11,5.25,5.25,0,0,1-1.38-3.59,5.16,5.16,0,0,1,1.37-3.53,4.67,4.67,0,0,1,1.51-1.08,4.72,4.72,0,0,1,3.79,0,4.75,4.75,0,0,1,1.52,1.09,5,5,0,0,1,1,1.59,5.22,5.22,0,0,1,.36,1.92v.23a.51.51,0,0,1,0,.18h-8.54a4.35,4.35,0,0,0,.39,1.56,4.45,4.45,0,0,0,.85,1.25,3.83,3.83,0,0,0,1.19.82,3.51,3.51,0,0,0,1.44.3,3.57,3.57,0,0,0,1-.14,4.05,4.05,0,0,0,.91-.38,3.29,3.29,0,0,0,.75-.59,2.77,2.77,0,0,0,.52-.76l.82.23a3.11,3.11,0,0,1-.61,1,4.11,4.11,0,0,1-.94.76,4.77,4.77,0,0,1-1.17.5A4.85,4.85,0,0,1,231.36,323.21Zm3.82-5.43a4.43,4.43,0,0,0-.38-1.57A4.22,4.22,0,0,0,234,315a3.79,3.79,0,0,0-1.19-.81,3.73,3.73,0,0,0-2.89,0,3.79,3.79,0,0,0-1.19.81,3.9,3.9,0,0,0-.82,1.24,4.75,4.75,0,0,0-.37,1.56Z" transform="translate(-17.91 -259.37)"></path><path class="cls-7 fuHPOuhk_80" d="M242.29,323.21a4.54,4.54,0,0,1-1.91-.4,4.74,4.74,0,0,1-1.53-1.11,5.25,5.25,0,0,1-1.38-3.59,5.16,5.16,0,0,1,1.37-3.53,4.65,4.65,0,0,1,1.51-1.08,4.72,4.72,0,0,1,3.79,0,4.77,4.77,0,0,1,1.52,1.09,5,5,0,0,1,1,1.59,5.2,5.2,0,0,1,.36,1.92v.23a.54.54,0,0,1,0,.18h-8.54a4.35,4.35,0,0,0,.39,1.56,4.46,4.46,0,0,0,.85,1.25,3.84,3.84,0,0,0,1.19.82,3.6,3.6,0,0,0,2.44.16,4,4,0,0,0,.91-.38,3.27,3.27,0,0,0,.75-.59,2.76,2.76,0,0,0,.52-.76l.82.23a3.11,3.11,0,0,1-.61,1,4.15,4.15,0,0,1-.94.76,4.75,4.75,0,0,1-1.17.5A4.84,4.84,0,0,1,242.29,323.21Zm3.82-5.43a4.41,4.41,0,0,0-.38-1.57,4.21,4.21,0,0,0-.84-1.23,3.75,3.75,0,0,0-1.19-.81,3.73,3.73,0,0,0-2.88,0,3.77,3.77,0,0,0-1.19.81,3.9,3.9,0,0,0-.83,1.24,4.75,4.75,0,0,0-.37,1.56Z" transform="translate(-17.91 -259.37)"></path><path class="cls-7 fuHPOuhk_81" d="M253.68,314.12a3.83,3.83,0,0,0-3.67,2.81V323h-.94v-9.74h.9v2.4a4.69,4.69,0,0,1,1.34-1.68,3.43,3.43,0,0,1,1.79-.74l.34,0h.24Z" transform="translate(-17.91 -259.37)"></path><path class="cls-7 fuHPOuhk_82" d="M255.46,311.07v-1.72h.94v1.72Zm0,12v-9.74h.94V323Z" transform="translate(-17.91 -259.37)"></path><path class="cls-7 fuHPOuhk_83" d="M267.3,323h-.94v-5.43a5.41,5.41,0,0,0-.53-2.75,1.85,1.85,0,0,0-1.7-.86,3.51,3.51,0,0,0-1.23.22,4.16,4.16,0,0,0-1.13.64,4.63,4.63,0,0,0-.92,1,4,4,0,0,0-.58,1.19v6h-.94v-9.74h.88v2.32a4.61,4.61,0,0,1,.74-1,4.71,4.71,0,0,1,1-.79,5,5,0,0,1,1.17-.51,4.59,4.59,0,0,1,1.27-.18,2.4,2.4,0,0,1,2.25,1.11,6.37,6.37,0,0,1,.66,3.19Z" transform="translate(-17.91 -259.37)"></path><path class="cls-7 fuHPOuhk_84" d="M274.06,323.17a4.1,4.1,0,0,1-1.86-.42,4.67,4.67,0,0,1-1.45-1.12,5.37,5.37,0,0,1-1-1.6,5.11,5.11,0,0,1-.35-1.85,5.63,5.63,0,0,1,.33-1.91,5.12,5.12,0,0,1,.93-1.62,4.48,4.48,0,0,1,1.43-1.11,4.11,4.11,0,0,1,1.85-.41,3.76,3.76,0,0,1,2.22.67,6.36,6.36,0,0,1,1.6,1.62v-2.12h.86v9.93a3.85,3.85,0,0,1-.37,1.74,3.65,3.65,0,0,1-1,1.25,4.4,4.4,0,0,1-1.46.75,6,6,0,0,1-1.75.25,6.63,6.63,0,0,1-1.52-.16,4.5,4.5,0,0,1-1.19-.45,3.93,3.93,0,0,1-.92-.71,5.07,5.07,0,0,1-.7-.93l.64-.43A3.5,3.5,0,0,0,272,326a5,5,0,0,0,2.12.46,4.76,4.76,0,0,0,1.42-.21,3.44,3.44,0,0,0,1.16-.61,2.9,2.9,0,0,0,.79-1,3.2,3.2,0,0,0,.29-1.41v-2.14a4.51,4.51,0,0,1-1.59,1.53A4.11,4.11,0,0,1,274.06,323.17Zm.22-.81a3.25,3.25,0,0,0,1.21-.23,4.25,4.25,0,0,0,1.07-.61,3.55,3.55,0,0,0,.79-.84,2.4,2.4,0,0,0,.38-.94v-3.2a4.25,4.25,0,0,0-.6-1,4.06,4.06,0,0,0-.85-.82,4.25,4.25,0,0,0-1-.53,3.3,3.3,0,0,0-1.11-.2,3.26,3.26,0,0,0-1.57.37,3.78,3.78,0,0,0-1.17,1,4.4,4.4,0,0,0-.73,1.36,4.82,4.82,0,0,0-.25,1.53,4.26,4.26,0,0,0,.3,1.59,4.4,4.4,0,0,0,.83,1.33,3.89,3.89,0,0,0,1.24.92A3.5,3.5,0,0,0,274.29,322.37Z" transform="translate(-17.91 -259.37)"></path><path class="cls-7 fuHPOuhk_85" d="M285.77,316.28a7.11,7.11,0,0,1,.42-2.39,6.63,6.63,0,0,1,1.23-2.13,6.32,6.32,0,0,1,2-1.53,5.85,5.85,0,0,1,2.67-.59,5.46,5.46,0,0,1,3,.82,5.15,5.15,0,0,1,1.87,2.09l-.79.45a4.48,4.48,0,0,0-.83-1.16,4.42,4.42,0,0,0-1-.76,4.57,4.57,0,0,0-1.15-.42,5.51,5.51,0,0,0-1.18-.13,4.74,4.74,0,0,0-2.25.52,5.33,5.33,0,0,0-1.65,1.34,5.83,5.83,0,0,0-1,1.86,6.56,6.56,0,0,0-.35,2.09,6.18,6.18,0,0,0,.41,2.25,6.26,6.26,0,0,0,1.12,1.88,5.46,5.46,0,0,0,1.69,1.3,4.63,4.63,0,0,0,2.1.49,5.38,5.38,0,0,0,1.24-.15,4.81,4.81,0,0,0,1.22-.47,4.93,4.93,0,0,0,1.09-.81,4.33,4.33,0,0,0,.84-1.17l.82.39a4.45,4.45,0,0,1-.92,1.33,5.79,5.79,0,0,1-1.29,1,6.15,6.15,0,0,1-1.51.59,6.49,6.49,0,0,1-1.56.2,5.26,5.26,0,0,1-2.5-.6,6.6,6.6,0,0,1-2-1.56,7.27,7.27,0,0,1-1.28-2.19A7.09,7.09,0,0,1,285.77,316.28Z" transform="translate(-17.91 -259.37)"></path><path class="cls-7 fuHPOuhk_86" d="M303.42,323.21a4.48,4.48,0,0,1-1.9-.4,4.71,4.71,0,0,1-1.51-1.1,5.06,5.06,0,0,1-1-1.61,5.29,5.29,0,0,1-.36-1.93,5.25,5.25,0,0,1,1.37-3.56,4.7,4.7,0,0,1,1.51-1.1,4.43,4.43,0,0,1,1.88-.4,4.37,4.37,0,0,1,1.87.4,4.87,4.87,0,0,1,1.51,1.1,5.12,5.12,0,0,1,1,1.61,5.28,5.28,0,0,1-1,5.49,4.7,4.7,0,0,1-1.51,1.1A4.44,4.44,0,0,1,303.42,323.21Zm-3.82-5a4.36,4.36,0,0,0,.3,1.62,4.24,4.24,0,0,0,.82,1.32,3.87,3.87,0,0,0,1.21.89,3.5,3.5,0,0,0,3,0,3.84,3.84,0,0,0,1.22-.91,4.52,4.52,0,0,0,.83-4.6,4.27,4.27,0,0,0-.83-1.33,4.08,4.08,0,0,0-1.21-.91,3.28,3.28,0,0,0-1.47-.34,3.34,3.34,0,0,0-1.48.34,3.86,3.86,0,0,0-1.21.92,4.57,4.57,0,0,0-.82,1.36A4.4,4.4,0,0,0,299.6,318.21Z" transform="translate(-17.91 -259.37)"></path><path class="cls-7 fuHPOuhk_87" d="M310.51,309.34h1v11.75a1.18,1.18,0,0,0,.31.86,1.13,1.13,0,0,0,.85.32,3.19,3.19,0,0,0,.5,0,2.62,2.62,0,0,0,.53-.14l.19.75a3.94,3.94,0,0,1-.79.22,4.65,4.65,0,0,1-.81.08,1.71,1.71,0,0,1-1.26-.48,1.73,1.73,0,0,1-.48-1.28Z" transform="translate(-17.91 -259.37)"></path><path class="cls-7 fuHPOuhk_88" d="M315.36,309.34h1v11.75a1.18,1.18,0,0,0,.31.86,1.13,1.13,0,0,0,.85.32,3.19,3.19,0,0,0,.5,0,2.62,2.62,0,0,0,.53-.14l.19.75a3.94,3.94,0,0,1-.79.22,4.65,4.65,0,0,1-.81.08,1.71,1.71,0,0,1-1.26-.48,1.73,1.73,0,0,1-.48-1.28Z" transform="translate(-17.91 -259.37)"></path><path class="cls-7 fuHPOuhk_89" d="M324.28,323.21a4.54,4.54,0,0,1-1.91-.4,4.72,4.72,0,0,1-1.53-1.11,5.22,5.22,0,0,1-1-1.62,5.28,5.28,0,0,1-.37-2,5.16,5.16,0,0,1,.37-1.94,5.1,5.1,0,0,1,1-1.59,4.65,4.65,0,0,1,1.51-1.08,4.72,4.72,0,0,1,3.79,0,4.75,4.75,0,0,1,1.52,1.09,5,5,0,0,1,1,1.59,5.22,5.22,0,0,1,.36,1.92v.23a.5.5,0,0,1,0,.18h-8.54a4.32,4.32,0,0,0,.39,1.56,4.44,4.44,0,0,0,.85,1.25,3.81,3.81,0,0,0,1.19.82,3.51,3.51,0,0,0,1.44.3,3.56,3.56,0,0,0,1-.14,4,4,0,0,0,.91-.38,3.27,3.27,0,0,0,.75-.59,2.76,2.76,0,0,0,.52-.76l.82.23a3.11,3.11,0,0,1-.61,1,4.11,4.11,0,0,1-.94.76,4.76,4.76,0,0,1-1.17.5A4.85,4.85,0,0,1,324.28,323.21Zm3.82-5.43a4.41,4.41,0,0,0-.38-1.57,4.21,4.21,0,0,0-.84-1.23,3.77,3.77,0,0,0-1.19-.81,3.73,3.73,0,0,0-2.89,0,3.79,3.79,0,0,0-1.19.81,3.9,3.9,0,0,0-.82,1.24,4.76,4.76,0,0,0-.37,1.56Z" transform="translate(-17.91 -259.37)"></path><path class="cls-7 fuHPOuhk_90" d="M335,323.17a4.1,4.1,0,0,1-1.86-.42,4.67,4.67,0,0,1-1.45-1.12,5.37,5.37,0,0,1-1-1.6,5.11,5.11,0,0,1-.35-1.85,5.63,5.63,0,0,1,.33-1.91,5.12,5.12,0,0,1,.93-1.62,4.48,4.48,0,0,1,1.43-1.11,4.11,4.11,0,0,1,1.85-.41,3.76,3.76,0,0,1,2.22.67,6.36,6.36,0,0,1,1.6,1.62v-2.12h.86v9.93a3.85,3.85,0,0,1-.37,1.74,3.65,3.65,0,0,1-1,1.25,4.4,4.4,0,0,1-1.46.75,6,6,0,0,1-1.75.25,6.63,6.63,0,0,1-1.52-.16,4.5,4.5,0,0,1-1.19-.45,3.93,3.93,0,0,1-.92-.71,5.07,5.07,0,0,1-.7-.93l.64-.43A3.5,3.5,0,0,0,332.9,326a5,5,0,0,0,2.12.46,4.76,4.76,0,0,0,1.42-.21,3.44,3.44,0,0,0,1.16-.61,2.9,2.9,0,0,0,.79-1,3.2,3.2,0,0,0,.29-1.41v-2.14a4.51,4.51,0,0,1-1.59,1.53A4.11,4.11,0,0,1,335,323.17Zm.22-.81a3.25,3.25,0,0,0,1.21-.23,4.25,4.25,0,0,0,1.07-.61,3.55,3.55,0,0,0,.79-.84,2.4,2.4,0,0,0,.38-.94v-3.2a4.25,4.25,0,0,0-.6-1,4.06,4.06,0,0,0-.85-.82,4.25,4.25,0,0,0-1-.53,3.3,3.3,0,0,0-1.11-.2,3.26,3.26,0,0,0-1.57.37,3.78,3.78,0,0,0-1.17,1,4.4,4.4,0,0,0-.73,1.36,4.82,4.82,0,0,0-.25,1.53,4.26,4.26,0,0,0,.3,1.59,4.4,4.4,0,0,0,.83,1.33,3.89,3.89,0,0,0,1.24.92A3.5,3.5,0,0,0,335.22,322.37Z" transform="translate(-17.91 -259.37)"></path><path class="cls-7 fuHPOuhk_91" d="M346.67,323.21a4.54,4.54,0,0,1-1.91-.4,4.72,4.72,0,0,1-1.53-1.11,5.22,5.22,0,0,1-1-1.62,5.28,5.28,0,0,1-.37-2,5.16,5.16,0,0,1,.37-1.94,5.1,5.1,0,0,1,1-1.59,4.65,4.65,0,0,1,1.51-1.08,4.72,4.72,0,0,1,3.79,0A4.75,4.75,0,0,1,350,314.6a5,5,0,0,1,1,1.59,5.22,5.22,0,0,1,.36,1.92v.23a.5.5,0,0,1,0,.18h-8.54a4.32,4.32,0,0,0,.39,1.56,4.44,4.44,0,0,0,.85,1.25,3.81,3.81,0,0,0,1.19.82,3.51,3.51,0,0,0,1.44.3,3.56,3.56,0,0,0,1-.14,4,4,0,0,0,.91-.38,3.27,3.27,0,0,0,.75-.59,2.76,2.76,0,0,0,.52-.76l.82.23a3.11,3.11,0,0,1-.61,1,4.11,4.11,0,0,1-.94.76,4.76,4.76,0,0,1-1.17.5A4.85,4.85,0,0,1,346.67,323.21Zm3.82-5.43a4.41,4.41,0,0,0-.38-1.57,4.21,4.21,0,0,0-.84-1.23,3.77,3.77,0,0,0-1.19-.81,3.73,3.73,0,0,0-2.89,0A3.79,3.79,0,0,0,344,315a3.9,3.9,0,0,0-.82,1.24,4.76,4.76,0,0,0-.37,1.56Z" transform="translate(-17.91 -259.37)"></path><text class="cls-8" transform="translate(209.55 229.66)">in associ<tspan class="cls-9" x="49.51" y="0">a</tspan><tspan x="56.26" y="0">tion with</tspan></text><path class="cls-7 fuHPOuhk_92" d="M372.42,483.81c.83,7.54-7.06,15.14-14.38,14.82-7.86-.35-14.31-6.11-14.44-14.5-.13-8,6.9-14.38,13.93-14.73C365.2,469,373.15,476.3,372.42,483.81Z" transform="translate(-17.91 -259.37)"></path><path class="cls-7 fuHPOuhk_93" d="M358.94,504.13c-3.91,0-7.82,0-11.74,0-2.39,0-2.39-.06-2.45-2.39,0-1,0-2.1,0-3.18s.35-1.43,1.37-.89c5.15,2.8,10.75,2.74,16.35,2.51a24.18,24.18,0,0,0,8.62-2.35c1.75-.76,2-.6,2,1.34,0,5.66.73,4.9-4.8,5-1.59,0-3.18,0-4.77,0Z" transform="translate(-17.91 -259.37)"></path><path class="cls-7 fuHPOuhk_94" d="M368,510.78c0,1.21-.13,2.42-.06,3.63,0,1-.51,1.18-1.27,1.24s-1.56-.25-1.49-1.18c.16-1.72-.67-3.56.73-5.15.48-.54-.16-1.49.48-2.07a5.64,5.64,0,0,1,4.2,0h0c.48,1,.13,2.32,1.21,3.09.41,1.46.1,2.93.19,4.39,0,.35-.13.64-.54.6s-.38-.32-.38-.6a19.17,19.17,0,0,1,0-2.7c.16-1.24-.38-1.62-1.53-1.43C369,510.65,368.45,510.33,368,510.78Z" transform="translate(-17.91 -259.37)"></path><path class="cls-7 fuHPOuhk_95" d="M345.29,515.2a17.81,17.81,0,0,1-.22-7.67,2,2,0,0,1,1.78-.76,16.58,16.58,0,0,1,4.17.16c.22.35.7.48.7,1,0,.25,0,.51-.35.57a.47.47,0,0,1-.6-.51,6.06,6.06,0,0,0-3.75-.06,2.28,2.28,0,0,0,.54,2.32c.7.73.22,1.72.32,2.58.06.57.06,1.15.1,1.72.29.32,1.15,0,1,.67s-.76.48-1.18.38C347,515.42,346.09,515.64,345.29,515.2Z" transform="translate(-17.91 -259.37)"></path><path class="cls-7 fuHPOuhk_96" d="M362.18,506.9a2.1,2.1,0,0,1,1,1.94c-.1,1.75,0,3.47,0,5.22,0,.73-.16,1.43-1.08,1.43s-.8-.8-.83-1.4a44,44,0,0,1,0-4.58c.1-1.46-.45-1.94-1.81-1.69-.51.1-.67.89-1.34.64h0c-.35-.89.06-1.4.89-1.59A7.16,7.16,0,0,1,362.18,506.9Z" transform="translate(-17.91 -259.37)"></path><path class="cls-7 fuHPOuhk_97" d="M355.6,507.92c-.41,1,.22,1.69.64,2.45,0,1.27,0,2.51,0,3.78,0,.92-.45,1.4-1.37,1.3a1.24,1.24,0,0,1-1.34-1.4c0-1.81.06-3.59,0-5.41,0-1,.29-1.56,1.4-1.65.92-.06,1.88-.67,2.67.38C357,508,356.11,507.37,355.6,507.92Z" transform="translate(-17.91 -259.37)"></path><path class="cls-7 fuHPOuhk_98" d="M355.6,507.92c.35-.73,1.18-.16,1.69-.57-2.1-1-3.59-.13-3.59,1.91,0,1.53,0,3.05,0,4.58,0,.89.29,1.37,1.27,1.37s1-.73,1-1.4a9,9,0,0,1,.35-3.44,11.81,11.81,0,0,1,.16,4.23c0,.92-.8,1.18-1.59,1.15s-1.43-.38-1.43-1.34V508a1,1,0,0,1,1-1.18,31.93,31.93,0,0,1,7.79.1c-.73,0-1.49,0-2.23,0-1,.1-1.78.41-1.84,1.56A2.25,2.25,0,0,0,355.6,507.92Z" transform="translate(-17.91 -259.37)"></path><path class="cls-7 fuHPOuhk_99" d="M345.29,515.2c1.15-.25,2.23.22,3.37.19.13-.7-.67-.45-.73-.86,3.5.13,2.83.41,2.89-2.86a4.85,4.85,0,0,0-.1-1c-.06-.32-.51-.7,0-.92a.79.79,0,0,1,.92.51s0,.1,0,.13a17.14,17.14,0,0,1,0,4.42,1.05,1.05,0,0,1-.6.67C349.17,515.71,347.2,516.25,345.29,515.2Z" transform="translate(-17.91 -259.37)"></path><path class="cls-7 fuHPOuhk_100" d="M358.08,508.52c.45-.19.73-.73,1.34-.64-.8,1-.35,2.13-.41,3.21s0,2.45,0,3.66c0,.38,0,.86-.45.89-.64,0-.51-.54-.51-.92C358,512.62,358.08,510.59,358.08,508.52Z" transform="translate(-17.91 -259.37)"></path><path class="cls-7 fuHPOuhk_101" d="M368,510.78c2.26-1.11,3.21-.57,3.21,1.81a4.14,4.14,0,0,0,.32,2.39c.19-1.62.54-3.24-.06-4.87a.19.19,0,0,1-.1-.22q0-.1.1-.1c.54.7.92,4.8.48,5.44a.83.83,0,0,1-.51.29.56.56,0,0,1-.57-.54v-.1c0-.73,0-1.46,0-2.23.06-2,.06-2-2-2C368.61,510.68,368.29,510.75,368,510.78Z" transform="translate(-17.91 -259.37)"></path><path class="cls-7 fuHPOuhk_102" d="M351,506.93c-2,.13-4-.41-5.95.6a.81.81,0,0,1,.8-.8h0C347.61,506.67,349.33,506.36,351,506.93Z" transform="translate(-17.91 -259.37)"></path><path class="cls-7 fuHPOuhk_103" d="M370.55,507.18a15.47,15.47,0,0,0-4.2,0A3.74,3.74,0,0,1,370.55,507.18Z" transform="translate(-17.91 -259.37)"></path><path class="cls-7 fuHPOuhk_104" d="M371.47,509.79v.32c-1-.76-1-1.84-.92-2.93C371.56,507.79,370.8,509,371.47,509.79Z" transform="translate(-17.91 -259.37)"></path><path class="cls-7 fuHPOuhk_105" d="M347,507.88a3.77,3.77,0,0,1,3.75.06A16.4,16.4,0,0,0,347,507.88Z" transform="translate(-17.91 -259.37)"></path><path class="cls-5 fuHPOuhk_106" d="M345.71,484.12c0-6.68,5.95-12.63,12.44-12.5,6.87.1,12.69,5.79,12.4,12.63-.32,8-5.53,12.34-12.4,12.47C352,496.85,346.06,492.36,345.71,484.12Z" transform="translate(-17.91 -259.37)"></path><path class="cls-7 fuHPOuhk_107" d="M369.85,509.44c-1.78.51-2,.32-1.84-1.53C369.82,507.5,370.17,507.76,369.85,509.44Z" transform="translate(-17.91 -259.37)"></path><path class="cls-7 fuHPOuhk_108" d="M369.85,509.44c.25-1.59-.57-1.84-1.84-1.53a1.27,1.27,0,0,1,1.78-.19l.13.1a1,1,0,0,1,.16,1.4Z" transform="translate(-17.91 -259.37)"></path><path class="cls-7 fuHPOuhk_109" d="M357.79,495.13c-1.84.54-6-.8-7-2.26a.8.8,0,0,1,.06-1.11l0,0c1.53-1.53,3-3.12,4.58-4.58,1-.89,1.69,0,2.39.64A35.44,35.44,0,0,1,357.79,495.13Z" transform="translate(-17.91 -259.37)"></path><path class="cls-7 fuHPOuhk_110" d="M358.43,493.22c0-1.69.1-3.37,0-5.06,0-.83.48-1.08,1-1.37s1.08.13,1.27.54c.89,1.88,2.83,2.61,4.17,3.94.8.8.86,1.18.06,1.81a12.23,12.23,0,0,1-5.69,2.48c-1.34.19-.57-1-.89-1.4a.61.61,0,0,1,0-.89S358.4,493.22,358.43,493.22Z" transform="translate(-17.91 -259.37)"></path><path class="cls-7 fuHPOuhk_111" d="M365.27,484.28a19.29,19.29,0,0,0,2.35,0c1.46-.19,1.78.54,1.46,1.75a12.65,12.65,0,0,1-2.16,4.87c-.45.54-.83.73-1.21.13-1.18-1.72-3-2.74-4.36-4.26a1.39,1.39,0,0,1-.41-1.53,1.35,1.35,0,0,1,1.46-.92c1,0,1.94,0,2.86,0Z" transform="translate(-17.91 -259.37)"></path><path class="cls-7 fuHPOuhk_112" d="M365.24,483.46c-1,0-2.1.06-3.15,0s-1.81-1.46-1.08-2.16c1.49-1.46,2.8-3.15,4.42-4.48.54-.45.73-.38,1.11.06a13.67,13.67,0,0,1,2.61,5.53c.16.73-.06,1.11-.86,1.11C367.24,483.46,366.22,483.46,365.24,483.46Z" transform="translate(-17.91 -259.37)"></path><path class="cls-7 fuHPOuhk_113" d="M354,480.47a8.1,8.1,0,0,1,.83,1,1.48,1.48,0,0,1-1,2.19c-2,0-4,0-6,0-.83,0-1.11-.29-1-1.15a14.07,14.07,0,0,1,2.26-5.31.87.87,0,0,1,1.43-.19C351.59,478.24,353.15,479,354,480.47Z" transform="translate(-17.91 -259.37)"></path><path class="cls-7 fuHPOuhk_114" d="M358.11,473.18c1.62-.48,5.5.76,6.55,2,.45.54.13.83-.19,1.21-1.27,1.53-2.8,2.83-4.1,4.33-.73.86-1.59,0-2.26-.54A11.67,11.67,0,0,1,358.11,473.18Z" transform="translate(-17.91 -259.37)"></path><path class="cls-7 fuHPOuhk_115" d="M350.83,484.66c1,0,1.91,0,2.86,0a1.25,1.25,0,0,1,1.34.86c.29.57-.13.89-.45,1.24-1.43,1.49-2.83,3-4.26,4.48-.51.54-1,.38-1.3-.13a12.4,12.4,0,0,1-2.29-5.5c-.1-.7.25-1,.89-1Z" transform="translate(-17.91 -259.37)"></path><path class="cls-7 fuHPOuhk_116" d="M350.83,476.62c-.25-.64-.38-1.08.48-1.59a20.64,20.64,0,0,1,4.45-2,1.7,1.7,0,0,1,1.65.13,14,14,0,0,1,0,7c-1,1.21-1.91,1.11-2.86,0A11.05,11.05,0,0,1,350.83,476.62Z" transform="translate(-17.91 -259.37)"></path><path class="cls-10 fuHPOuhk_117" d="M350.83,476.62c1.62.8,2.51,2.39,3.75,3.56-.25,0-.48,0-.6.29-1.24-1.08-2.89-1.75-3.47-3.5Z" transform="translate(-17.91 -259.37)"></path><path class="cls-11 fuHPOuhk_118" d="M357.44,480.18c0-2.32,0-4.64,0-7h.7v7Z" transform="translate(-17.91 -259.37)"></path><path class="cls-7 fuHPOuhk_119" d="M359,483.84c-.19.8-.6,1.24-1.37,1.18a1,1,0,0,1-1-1.15,1.13,1.13,0,0,1,1.11-1.11.4.4,0,0,1,.19,0C358.56,482.82,358.84,483.33,359,483.84Z" transform="translate(-17.91 -259.37)"></path><path class="cls-12 fuHPOuhk_120" d="M358.43,493.22v1l-.64,1,0-7.32c.64,1.11.13,2.32.32,3.5C358.21,491.95,357.86,492.68,358.43,493.22Z" transform="translate(-17.91 -259.37)"></path><style data-made-with="vivus-instant">.fuHPOuhk_0{stroke-dasharray:553 555;stroke-dashoffset:554;animation:fuHPOuhk_draw_0 6400ms ease-in 0ms infinite,fuHPOuhk_fade 6400ms linear 0ms infinite;}.fuHPOuhk_1{stroke-dasharray:375 377;stroke-dashoffset:376;animation:fuHPOuhk_draw_1 6400ms ease-in 0ms infinite,fuHPOuhk_fade 6400ms linear 0ms infinite;}.fuHPOuhk_2{stroke-dasharray:291 293;stroke-dashoffset:292;animation:fuHPOuhk_draw_2 6400ms ease-in 0ms infinite,fuHPOuhk_fade 6400ms linear 0ms infinite;}.fuHPOuhk_3{stroke-dasharray:409 411;stroke-dashoffset:410;animation:fuHPOuhk_draw_3 6400ms ease-in 0ms infinite,fuHPOuhk_fade 6400ms linear 0ms infinite;}.fuHPOuhk_4{stroke-dasharray:594 596;stroke-dashoffset:595;animation:fuHPOuhk_draw_4 6400ms ease-in 0ms infinite,fuHPOuhk_fade 6400ms linear 0ms infinite;}.fuHPOuhk_5{stroke-dasharray:403 405;stroke-dashoffset:404;animation:fuHPOuhk_draw_5 6400ms ease-in 0ms infinite,fuHPOuhk_fade 6400ms linear 0ms infinite;}.fuHPOuhk_6{stroke-dasharray:313 315;stroke-dashoffset:314;animation:fuHPOuhk_draw_6 6400ms ease-in 0ms infinite,fuHPOuhk_fade 6400ms linear 0ms infinite;}.fuHPOuhk_7{stroke-dasharray:440 442;stroke-dashoffset:441;animation:fuHPOuhk_draw_7 6400ms ease-in 0ms infinite,fuHPOuhk_fade 6400ms linear 0ms infinite;}.fuHPOuhk_8{stroke-dasharray:667 669;stroke-dashoffset:668;animation:fuHPOuhk_draw_8 6400ms ease-in 0ms infinite,fuHPOuhk_fade 6400ms linear 0ms infinite;}.fuHPOuhk_9{stroke-dasharray:287 289;stroke-dashoffset:288;animation:fuHPOuhk_draw_9 6400ms ease-in 0ms infinite,fuHPOuhk_fade 6400ms linear 0ms infinite;}.fuHPOuhk_10{stroke-dasharray:423 425;stroke-dashoffset:424;animation:fuHPOuhk_draw_10 6400ms ease-in 0ms infinite,fuHPOuhk_fade 6400ms linear 0ms infinite;}.fuHPOuhk_11{stroke-dasharray:319 321;stroke-dashoffset:320;animation:fuHPOuhk_draw_11 6400ms ease-in 0ms infinite,fuHPOuhk_fade 6400ms linear 0ms infinite;}.fuHPOuhk_12{stroke-dasharray:470 472;stroke-dashoffset:471;animation:fuHPOuhk_draw_12 6400ms ease-in 0ms infinite,fuHPOuhk_fade 6400ms linear 0ms infinite;}.fuHPOuhk_13{stroke-dasharray:312 314;stroke-dashoffset:313;animation:fuHPOuhk_draw_13 6400ms ease-in 0ms infinite,fuHPOuhk_fade 6400ms linear 0ms infinite;}.fuHPOuhk_14{stroke-dasharray:180 182;stroke-dashoffset:181;animation:fuHPOuhk_draw_14 6400ms ease-in 0ms infinite,fuHPOuhk_fade 6400ms linear 0ms infinite;}.fuHPOuhk_15{stroke-dasharray:337 339;stroke-dashoffset:338;animation:fuHPOuhk_draw_15 6400ms ease-in 0ms infinite,fuHPOuhk_fade 6400ms linear 0ms infinite;}.fuHPOuhk_16{stroke-dasharray:82 84;stroke-dashoffset:83;animation:fuHPOuhk_draw_16 6400ms ease-in 0ms infinite,fuHPOuhk_fade 6400ms linear 0ms infinite;}.fuHPOuhk_17{stroke-dasharray:182 184;stroke-dashoffset:183;animation:fuHPOuhk_draw_17 6400ms ease-in 0ms infinite,fuHPOuhk_fade 6400ms linear 0ms infinite;}.fuHPOuhk_18{stroke-dasharray:180 182;stroke-dashoffset:181;animation:fuHPOuhk_draw_18 6400ms ease-in 0ms infinite,fuHPOuhk_fade 6400ms linear 0ms infinite;}.fuHPOuhk_19{stroke-dasharray:121 123;stroke-dashoffset:122;animation:fuHPOuhk_draw_19 6400ms ease-in 0ms infinite,fuHPOuhk_fade 6400ms linear 0ms infinite;}.fuHPOuhk_20{stroke-dasharray:133 135;stroke-dashoffset:134;animation:fuHPOuhk_draw_20 6400ms ease-in 0ms infinite,fuHPOuhk_fade 6400ms linear 0ms infinite;}.fuHPOuhk_21{stroke-dasharray:72 74;stroke-dashoffset:73;animation:fuHPOuhk_draw_21 6400ms ease-in 0ms infinite,fuHPOuhk_fade 6400ms linear 0ms infinite;}.fuHPOuhk_22{stroke-dasharray:23 25;stroke-dashoffset:24;animation:fuHPOuhk_draw_22 6400ms ease-in 0ms infinite,fuHPOuhk_fade 6400ms linear 0ms infinite;}.fuHPOuhk_23{stroke-dasharray:35 37;stroke-dashoffset:36;animation:fuHPOuhk_draw_23 6400ms ease-in 0ms infinite,fuHPOuhk_fade 6400ms linear 0ms infinite;}.fuHPOuhk_24{stroke-dasharray:27 29;stroke-dashoffset:28;animation:fuHPOuhk_draw_24 6400ms ease-in 0ms infinite,fuHPOuhk_fade 6400ms linear 0ms infinite;}.fuHPOuhk_25{stroke-dasharray:20 22;stroke-dashoffset:21;animation:fuHPOuhk_draw_25 6400ms ease-in 0ms infinite,fuHPOuhk_fade 6400ms linear 0ms infinite;}.fuHPOuhk_26{stroke-dasharray:11 13;stroke-dashoffset:12;animation:fuHPOuhk_draw_26 6400ms ease-in 0ms infinite,fuHPOuhk_fade 6400ms linear 0ms infinite;}.fuHPOuhk_27{stroke-dasharray:8 10;stroke-dashoffset:9;animation:fuHPOuhk_draw_27 6400ms ease-in 0ms infinite,fuHPOuhk_fade 6400ms linear 0ms infinite;}.fuHPOuhk_28{stroke-dasharray:5 7;stroke-dashoffset:6;animation:fuHPOuhk_draw_28 6400ms ease-in 0ms infinite,fuHPOuhk_fade 6400ms linear 0ms infinite;}.fuHPOuhk_29{stroke-dasharray:5 7;stroke-dashoffset:6;animation:fuHPOuhk_draw_29 6400ms ease-in 0ms infinite,fuHPOuhk_fade 6400ms linear 0ms infinite;}.fuHPOuhk_30{stroke-dasharray:97 99;stroke-dashoffset:98;animation:fuHPOuhk_draw_30 6400ms ease-in 0ms infinite,fuHPOuhk_fade 6400ms linear 0ms infinite;}.fuHPOuhk_31{stroke-dasharray:12 14;stroke-dashoffset:13;animation:fuHPOuhk_draw_31 6400ms ease-in 0ms infinite,fuHPOuhk_fade 6400ms linear 0ms infinite;}.fuHPOuhk_32{stroke-dasharray:2 4;stroke-dashoffset:3;animation:fuHPOuhk_draw_32 6400ms ease-in 0ms infinite,fuHPOuhk_fade 6400ms linear 0ms infinite;}.fuHPOuhk_33{stroke-dasharray:19 21;stroke-dashoffset:20;animation:fuHPOuhk_draw_33 6400ms ease-in 0ms infinite,fuHPOuhk_fade 6400ms linear 0ms infinite;}.fuHPOuhk_34{stroke-dasharray:4 6;stroke-dashoffset:5;animation:fuHPOuhk_draw_34 6400ms ease-in 0ms infinite,fuHPOuhk_fade 6400ms linear 0ms infinite;}.fuHPOuhk_35{stroke-dasharray:2 4;stroke-dashoffset:3;animation:fuHPOuhk_draw_35 6400ms ease-in 0ms infinite,fuHPOuhk_fade 6400ms linear 0ms infinite;}.fuHPOuhk_36{stroke-dasharray:356 358;stroke-dashoffset:357;animation:fuHPOuhk_draw_36 6400ms ease-in 0ms infinite,fuHPOuhk_fade 6400ms linear 0ms infinite;}.fuHPOuhk_37{stroke-dasharray:206 208;stroke-dashoffset:207;animation:fuHPOuhk_draw_37 6400ms ease-in 0ms infinite,fuHPOuhk_fade 6400ms linear 0ms infinite;}.fuHPOuhk_38{stroke-dasharray:384 386;stroke-dashoffset:385;animation:fuHPOuhk_draw_38 6400ms ease-in 0ms infinite,fuHPOuhk_fade 6400ms linear 0ms infinite;}.fuHPOuhk_39{stroke-dasharray:93 95;stroke-dashoffset:94;animation:fuHPOuhk_draw_39 6400ms ease-in 0ms infinite,fuHPOuhk_fade 6400ms linear 0ms infinite;}.fuHPOuhk_40{stroke-dasharray:207 209;stroke-dashoffset:208;animation:fuHPOuhk_draw_40 6400ms ease-in 0ms infinite,fuHPOuhk_fade 6400ms linear 0ms infinite;}.fuHPOuhk_41{stroke-dasharray:205 207;stroke-dashoffset:206;animation:fuHPOuhk_draw_41 6400ms ease-in 0ms infinite,fuHPOuhk_fade 6400ms linear 0ms infinite;}.fuHPOuhk_42{stroke-dasharray:137 139;stroke-dashoffset:138;animation:fuHPOuhk_draw_42 6400ms ease-in 0ms infinite,fuHPOuhk_fade 6400ms linear 0ms infinite;}.fuHPOuhk_43{stroke-dasharray:151 153;stroke-dashoffset:152;animation:fuHPOuhk_draw_43 6400ms ease-in 0ms infinite,fuHPOuhk_fade 6400ms linear 0ms infinite;}.fuHPOuhk_44{stroke-dasharray:82 84;stroke-dashoffset:83;animation:fuHPOuhk_draw_44 6400ms ease-in 0ms infinite,fuHPOuhk_fade 6400ms linear 0ms infinite;}.fuHPOuhk_45{stroke-dasharray:26 28;stroke-dashoffset:27;animation:fuHPOuhk_draw_45 6400ms ease-in 0ms infinite,fuHPOuhk_fade 6400ms linear 0ms infinite;}.fuHPOuhk_46{stroke-dasharray:40 42;stroke-dashoffset:41;animation:fuHPOuhk_draw_46 6400ms ease-in 0ms infinite,fuHPOuhk_fade 6400ms linear 0ms infinite;}.fuHPOuhk_47{stroke-dasharray:30 32;stroke-dashoffset:31;animation:fuHPOuhk_draw_47 6400ms ease-in 0ms infinite,fuHPOuhk_fade 6400ms linear 0ms infinite;}.fuHPOuhk_48{stroke-dasharray:22 24;stroke-dashoffset:23;animation:fuHPOuhk_draw_48 6400ms ease-in 0ms infinite,fuHPOuhk_fade 6400ms linear 0ms infinite;}.fuHPOuhk_49{stroke-dasharray:12 14;stroke-dashoffset:13;animation:fuHPOuhk_draw_49 6400ms ease-in 0ms infinite,fuHPOuhk_fade 6400ms linear 0ms infinite;}.fuHPOuhk_50{stroke-dasharray:9 11;stroke-dashoffset:10;animation:fuHPOuhk_draw_50 6400ms ease-in 0ms infinite,fuHPOuhk_fade 6400ms linear 0ms infinite;}.fuHPOuhk_51{stroke-dasharray:6 8;stroke-dashoffset:7;animation:fuHPOuhk_draw_51 6400ms ease-in 0ms infinite,fuHPOuhk_fade 6400ms linear 0ms infinite;}.fuHPOuhk_52{stroke-dasharray:5 7;stroke-dashoffset:6;animation:fuHPOuhk_draw_52 6400ms ease-in 0ms infinite,fuHPOuhk_fade 6400ms linear 0ms infinite;}.fuHPOuhk_53{stroke-dasharray:110 112;stroke-dashoffset:111;animation:fuHPOuhk_draw_53 6400ms ease-in 0ms infinite,fuHPOuhk_fade 6400ms linear 0ms infinite;}.fuHPOuhk_54{stroke-dasharray:14 16;stroke-dashoffset:15;animation:fuHPOuhk_draw_54 6400ms ease-in 0ms infinite,fuHPOuhk_fade 6400ms linear 0ms infinite;}.fuHPOuhk_55{stroke-dasharray:3 5;stroke-dashoffset:4;animation:fuHPOuhk_draw_55 6400ms ease-in 0ms infinite,fuHPOuhk_fade 6400ms linear 0ms infinite;}.fuHPOuhk_56{stroke-dasharray:22 24;stroke-dashoffset:23;animation:fuHPOuhk_draw_56 6400ms ease-in 0ms infinite,fuHPOuhk_fade 6400ms linear 0ms infinite;}.fuHPOuhk_57{stroke-dasharray:4 6;stroke-dashoffset:5;animation:fuHPOuhk_draw_57 6400ms ease-in 0ms infinite,fuHPOuhk_fade 6400ms linear 0ms infinite;}.fuHPOuhk_58{stroke-dasharray:2 4;stroke-dashoffset:3;animation:fuHPOuhk_draw_58 6400ms ease-in 0ms infinite,fuHPOuhk_fade 6400ms linear 0ms infinite;}.fuHPOuhk_59{stroke-dasharray:78 80;stroke-dashoffset:79;animation:fuHPOuhk_draw_59 6400ms ease-in 0ms infinite,fuHPOuhk_fade 6400ms linear 0ms infinite;}.fuHPOuhk_60{stroke-dasharray:181 183;stroke-dashoffset:182;animation:fuHPOuhk_draw_60 6400ms ease-in 0ms infinite,fuHPOuhk_fade 6400ms linear 0ms infinite;}.fuHPOuhk_61{stroke-dasharray:69 71;stroke-dashoffset:70;animation:fuHPOuhk_draw_61 6400ms ease-in 0ms infinite,fuHPOuhk_fade 6400ms linear 0ms infinite;}.fuHPOuhk_62{stroke-dasharray:39 41;stroke-dashoffset:40;animation:fuHPOuhk_draw_62 6400ms ease-in 0ms infinite,fuHPOuhk_fade 6400ms linear 0ms infinite;}.fuHPOuhk_63{stroke-dasharray:65 67;stroke-dashoffset:66;animation:fuHPOuhk_draw_63 6400ms ease-in 0ms infinite,fuHPOuhk_fade 6400ms linear 0ms infinite;}.fuHPOuhk_64{stroke-dasharray:54 56;stroke-dashoffset:55;animation:fuHPOuhk_draw_64 6400ms ease-in 0ms infinite,fuHPOuhk_fade 6400ms linear 0ms infinite;}.fuHPOuhk_65{stroke-dasharray:71 73;stroke-dashoffset:72;animation:fuHPOuhk_draw_65 6400ms ease-in 0ms infinite,fuHPOuhk_fade 6400ms linear 0ms infinite;}.fuHPOuhk_66{stroke-dasharray:54 56;stroke-dashoffset:55;animation:fuHPOuhk_draw_66 6400ms ease-in 0ms infinite,fuHPOuhk_fade 6400ms linear 0ms infinite;}.fuHPOuhk_67{stroke-dasharray:84 86;stroke-dashoffset:85;animation:fuHPOuhk_draw_67 6400ms ease-in 0ms infinite,fuHPOuhk_fade 6400ms linear 0ms infinite;}.fuHPOuhk_68{stroke-dasharray:65 67;stroke-dashoffset:66;animation:fuHPOuhk_draw_68 6400ms ease-in 0ms infinite,fuHPOuhk_fade 6400ms linear 0ms infinite;}.fuHPOuhk_69{stroke-dasharray:31 33;stroke-dashoffset:32;animation:fuHPOuhk_draw_69 6400ms ease-in 0ms infinite,fuHPOuhk_fade 6400ms linear 0ms infinite;}.fuHPOuhk_70{stroke-dasharray:80 82;stroke-dashoffset:81;animation:fuHPOuhk_draw_70 6400ms ease-in 0ms infinite,fuHPOuhk_fade 6400ms linear 0ms infinite;}.fuHPOuhk_71{stroke-dasharray:65 67;stroke-dashoffset:66;animation:fuHPOuhk_draw_71 6400ms ease-in 0ms infinite,fuHPOuhk_fade 6400ms linear 0ms infinite;}.fuHPOuhk_72{stroke-dasharray:31 33;stroke-dashoffset:32;animation:fuHPOuhk_draw_72 6400ms ease-in 0ms infinite,fuHPOuhk_fade 6400ms linear 0ms infinite;}.fuHPOuhk_73{stroke-dasharray:87 89;stroke-dashoffset:88;animation:fuHPOuhk_draw_73 6400ms ease-in 0ms infinite,fuHPOuhk_fade 6400ms linear 0ms infinite;}.fuHPOuhk_74{stroke-dasharray:74 76;stroke-dashoffset:75;animation:fuHPOuhk_draw_74 6400ms ease-in 0ms infinite,fuHPOuhk_fade 6400ms linear 0ms infinite;}.fuHPOuhk_75{stroke-dasharray:53 55;stroke-dashoffset:54;animation:fuHPOuhk_draw_75 6400ms ease-in 0ms infinite,fuHPOuhk_fade 6400ms linear 0ms infinite;}.fuHPOuhk_76{stroke-dasharray:87 89;stroke-dashoffset:88;animation:fuHPOuhk_draw_76 6400ms ease-in 0ms infinite,fuHPOuhk_fade 6400ms linear 0ms infinite;}.fuHPOuhk_77{stroke-dasharray:27 29;stroke-dashoffset:28;animation:fuHPOuhk_draw_77 6400ms ease-in 0ms infinite,fuHPOuhk_fade 6400ms linear 0ms infinite;}.fuHPOuhk_78{stroke-dasharray:53 55;stroke-dashoffset:54;animation:fuHPOuhk_draw_78 6400ms ease-in 0ms infinite,fuHPOuhk_fade 6400ms linear 0ms infinite;}.fuHPOuhk_79{stroke-dasharray:68 70;stroke-dashoffset:69;animation:fuHPOuhk_draw_79 6400ms ease-in 0ms infinite,fuHPOuhk_fade 6400ms linear 0ms infinite;}.fuHPOuhk_80{stroke-dasharray:68 70;stroke-dashoffset:69;animation:fuHPOuhk_draw_80 6400ms ease-in 0ms infinite,fuHPOuhk_fade 6400ms linear 0ms infinite;}.fuHPOuhk_81{stroke-dasharray:31 33;stroke-dashoffset:32;animation:fuHPOuhk_draw_81 6400ms ease-in 0ms infinite,fuHPOuhk_fade 6400ms linear 0ms infinite;}.fuHPOuhk_82{stroke-dasharray:27 29;stroke-dashoffset:28;animation:fuHPOuhk_draw_82 6400ms ease-in 0ms infinite,fuHPOuhk_fade 6400ms linear 0ms infinite;}.fuHPOuhk_83{stroke-dasharray:53 55;stroke-dashoffset:54;animation:fuHPOuhk_draw_83 6400ms ease-in 0ms infinite,fuHPOuhk_fade 6400ms linear 0ms infinite;}.fuHPOuhk_84{stroke-dasharray:87 89;stroke-dashoffset:88;animation:fuHPOuhk_draw_84 6400ms ease-in 0ms infinite,fuHPOuhk_fade 6400ms linear 0ms infinite;}.fuHPOuhk_85{stroke-dasharray:63 65;stroke-dashoffset:64;animation:fuHPOuhk_draw_85 6400ms ease-in 0ms infinite,fuHPOuhk_fade 6400ms linear 0ms infinite;}.fuHPOuhk_86{stroke-dasharray:57 59;stroke-dashoffset:58;animation:fuHPOuhk_draw_86 6400ms ease-in 0ms infinite,fuHPOuhk_fade 6400ms linear 0ms infinite;}.fuHPOuhk_87{stroke-dasharray:33 35;stroke-dashoffset:34;animation:fuHPOuhk_draw_87 6400ms ease-in 0ms infinite,fuHPOuhk_fade 6400ms linear 0ms infinite;}.fuHPOuhk_88{stroke-dasharray:33 35;stroke-dashoffset:34;animation:fuHPOuhk_draw_88 6400ms ease-in 0ms infinite,fuHPOuhk_fade 6400ms linear 0ms infinite;}.fuHPOuhk_89{stroke-dasharray:68 70;stroke-dashoffset:69;animation:fuHPOuhk_draw_89 6400ms ease-in 0ms infinite,fuHPOuhk_fade 6400ms linear 0ms infinite;}.fuHPOuhk_90{stroke-dasharray:87 89;stroke-dashoffset:88;animation:fuHPOuhk_draw_90 6400ms ease-in 0ms infinite,fuHPOuhk_fade 6400ms linear 0ms infinite;}.fuHPOuhk_91{stroke-dasharray:68 70;stroke-dashoffset:69;animation:fuHPOuhk_draw_91 6400ms ease-in 0ms infinite,fuHPOuhk_fade 6400ms linear 0ms infinite;}.fuHPOuhk_92{stroke-dasharray:92 94;stroke-dashoffset:93;animation:fuHPOuhk_draw_92 6400ms ease-in 0ms infinite,fuHPOuhk_fade 6400ms linear 0ms infinite;}.fuHPOuhk_93{stroke-dasharray:70 72;stroke-dashoffset:71;animation:fuHPOuhk_draw_93 6400ms ease-in 0ms infinite,fuHPOuhk_fade 6400ms linear 0ms infinite;}.fuHPOuhk_94{stroke-dasharray:37 39;stroke-dashoffset:38;animation:fuHPOuhk_draw_94 6400ms ease-in 0ms infinite,fuHPOuhk_fade 6400ms linear 0ms infinite;}.fuHPOuhk_95{stroke-dasharray:33 35;stroke-dashoffset:34;animation:fuHPOuhk_draw_95 6400ms ease-in 0ms infinite,fuHPOuhk_fade 6400ms linear 0ms infinite;}.fuHPOuhk_96{stroke-dasharray:27 29;stroke-dashoffset:28;animation:fuHPOuhk_draw_96 6400ms ease-in 0ms infinite,fuHPOuhk_fade 6400ms linear 0ms infinite;}.fuHPOuhk_97{stroke-dasharray:24 26;stroke-dashoffset:25;animation:fuHPOuhk_draw_97 6400ms ease-in 0ms infinite,fuHPOuhk_fade 6400ms linear 0ms infinite;}.fuHPOuhk_98{stroke-dasharray:52 54;stroke-dashoffset:53;animation:fuHPOuhk_draw_98 6400ms ease-in 0ms infinite,fuHPOuhk_fade 6400ms linear 0ms infinite;}.fuHPOuhk_99{stroke-dasharray:25 27;stroke-dashoffset:26;animation:fuHPOuhk_draw_99 6400ms ease-in 0ms infinite,fuHPOuhk_fade 6400ms linear 0ms infinite;}.fuHPOuhk_100{stroke-dasharray:18 20;stroke-dashoffset:19;animation:fuHPOuhk_draw_100 6400ms ease-in 0ms infinite,fuHPOuhk_fade 6400ms linear 0ms infinite;}.fuHPOuhk_101{stroke-dasharray:27 29;stroke-dashoffset:28;animation:fuHPOuhk_draw_101 6400ms ease-in 0ms infinite,fuHPOuhk_fade 6400ms linear 0ms infinite;}.fuHPOuhk_102{stroke-dasharray:13 15;stroke-dashoffset:14;animation:fuHPOuhk_draw_102 6400ms ease-in 0ms infinite,fuHPOuhk_fade 6400ms linear 0ms infinite;}.fuHPOuhk_103{stroke-dasharray:9 11;stroke-dashoffset:10;animation:fuHPOuhk_draw_103 6400ms ease-in 0ms infinite,fuHPOuhk_fade 6400ms linear 0ms infinite;}.fuHPOuhk_104{stroke-dasharray:7 9;stroke-dashoffset:8;animation:fuHPOuhk_draw_104 6400ms ease-in 0ms infinite,fuHPOuhk_fade 6400ms linear 0ms infinite;}.fuHPOuhk_105{stroke-dasharray:8 10;stroke-dashoffset:9;animation:fuHPOuhk_draw_105 6400ms ease-in 0ms infinite,fuHPOuhk_fade 6400ms linear 0ms infinite;}.fuHPOuhk_106{stroke-dasharray:79 81;stroke-dashoffset:80;animation:fuHPOuhk_draw_106 6400ms ease-in 0ms infinite,fuHPOuhk_fade 6400ms linear 0ms infinite;}.fuHPOuhk_107{stroke-dasharray:7 9;stroke-dashoffset:8;animation:fuHPOuhk_draw_107 6400ms ease-in 0ms infinite,fuHPOuhk_fade 6400ms linear 0ms infinite;}.fuHPOuhk_108{stroke-dasharray:8 10;stroke-dashoffset:9;animation:fuHPOuhk_draw_108 6400ms ease-in 0ms infinite,fuHPOuhk_fade 6400ms linear 0ms infinite;}.fuHPOuhk_109{stroke-dasharray:26 28;stroke-dashoffset:27;animation:fuHPOuhk_draw_109 6400ms ease-in 0ms infinite,fuHPOuhk_fade 6400ms linear 0ms infinite;}.fuHPOuhk_110{stroke-dasharray:26 28;stroke-dashoffset:27;animation:fuHPOuhk_draw_110 6400ms ease-in 0ms infinite,fuHPOuhk_fade 6400ms linear 0ms infinite;}.fuHPOuhk_111{stroke-dasharray:25 27;stroke-dashoffset:26;animation:fuHPOuhk_draw_111 6400ms ease-in 0ms infinite,fuHPOuhk_fade 6400ms linear 0ms infinite;}.fuHPOuhk_112{stroke-dasharray:25 27;stroke-dashoffset:26;animation:fuHPOuhk_draw_112 6400ms ease-in 0ms infinite,fuHPOuhk_fade 6400ms linear 0ms infinite;}.fuHPOuhk_113{stroke-dasharray:25 27;stroke-dashoffset:26;animation:fuHPOuhk_draw_113 6400ms ease-in 0ms infinite,fuHPOuhk_fade 6400ms linear 0ms infinite;}.fuHPOuhk_114{stroke-dasharray:25 27;stroke-dashoffset:26;animation:fuHPOuhk_draw_114 6400ms ease-in 0ms infinite,fuHPOuhk_fade 6400ms linear 0ms infinite;}.fuHPOuhk_115{stroke-dasharray:25 27;stroke-dashoffset:26;animation:fuHPOuhk_draw_115 6400ms ease-in 0ms infinite,fuHPOuhk_fade 6400ms linear 0ms infinite;}.fuHPOuhk_116{stroke-dasharray:25 27;stroke-dashoffset:26;animation:fuHPOuhk_draw_116 6400ms ease-in 0ms infinite,fuHPOuhk_fade 6400ms linear 0ms infinite;}.fuHPOuhk_117{stroke-dasharray:12 14;stroke-dashoffset:13;animation:fuHPOuhk_draw_117 6400ms ease-in 0ms infinite,fuHPOuhk_fade 6400ms linear 0ms infinite;}.fuHPOuhk_118{stroke-dasharray:16 18;stroke-dashoffset:17;animation:fuHPOuhk_draw_118 6400ms ease-in 0ms infinite,fuHPOuhk_fade 6400ms linear 0ms infinite;}.fuHPOuhk_119{stroke-dasharray:8 10;stroke-dashoffset:9;animation:fuHPOuhk_draw_119 6400ms ease-in 0ms infinite,fuHPOuhk_fade 6400ms linear 0ms infinite;}.fuHPOuhk_120{stroke-dasharray:15 17;stroke-dashoffset:16;animation:fuHPOuhk_draw_120 6400ms ease-in 0ms infinite,fuHPOuhk_fade 6400ms linear 0ms infinite;}@keyframes fuHPOuhk_draw{100%{stroke-dashoffset:0;}}@keyframes fuHPOuhk_fade{0%{stroke-opacity:1;}95.3125%{stroke-opacity:1;}100%{stroke-opacity:0;}}@keyframes fuHPOuhk_draw_0{1.5625%{stroke-dashoffset: 554}32.8125%{ stroke-dashoffset: 0;}100%{ stroke-dashoffset: 0;}}@keyframes fuHPOuhk_draw_1{1.6927083333333333%{stroke-dashoffset: 376}32.942708333333336%{ stroke-dashoffset: 0;}100%{ stroke-dashoffset: 0;}}@keyframes fuHPOuhk_draw_2{1.8229166666666667%{stroke-dashoffset: 292}33.072916666666664%{ stroke-dashoffset: 0;}100%{ stroke-dashoffset: 0;}}@keyframes fuHPOuhk_draw_3{1.953125%{stroke-dashoffset: 410}33.203125%{ stroke-dashoffset: 0;}100%{ stroke-dashoffset: 0;}}@keyframes fuHPOuhk_draw_4{2.0833333333333335%{stroke-dashoffset: 595}33.333333333333336%{ stroke-dashoffset: 0;}100%{ stroke-dashoffset: 0;}}@keyframes fuHPOuhk_draw_5{2.213541666666667%{stroke-dashoffset: 404}33.463541666666664%{ stroke-dashoffset: 0;}100%{ stroke-dashoffset: 0;}}@keyframes fuHPOuhk_draw_6{2.34375%{stroke-dashoffset: 314}33.59375%{ stroke-dashoffset: 0;}100%{ stroke-dashoffset: 0;}}@keyframes fuHPOuhk_draw_7{2.4739583333333335%{stroke-dashoffset: 441}33.723958333333336%{ stroke-dashoffset: 0;}100%{ stroke-dashoffset: 0;}}@keyframes fuHPOuhk_draw_8{2.604166666666667%{stroke-dashoffset: 668}33.854166666666664%{ stroke-dashoffset: 0;}100%{ stroke-dashoffset: 0;}}@keyframes fuHPOuhk_draw_9{2.734375%{stroke-dashoffset: 288}33.984375%{ stroke-dashoffset: 0;}100%{ stroke-dashoffset: 0;}}@keyframes fuHPOuhk_draw_10{2.8645833333333335%{stroke-dashoffset: 424}34.114583333333336%{ stroke-dashoffset: 0;}100%{ stroke-dashoffset: 0;}}@keyframes fuHPOuhk_draw_11{2.994791666666667%{stroke-dashoffset: 320}34.244791666666664%{ stroke-dashoffset: 0;}100%{ stroke-dashoffset: 0;}}@keyframes fuHPOuhk_draw_12{3.125%{stroke-dashoffset: 471}34.375%{ stroke-dashoffset: 0;}100%{ stroke-dashoffset: 0;}}@keyframes fuHPOuhk_draw_13{3.2552083333333335%{stroke-dashoffset: 313}34.505208333333336%{ stroke-dashoffset: 0;}100%{ stroke-dashoffset: 0;}}@keyframes fuHPOuhk_draw_14{3.385416666666667%{stroke-dashoffset: 181}34.635416666666664%{ stroke-dashoffset: 0;}100%{ stroke-dashoffset: 0;}}@keyframes fuHPOuhk_draw_15{3.515625%{stroke-dashoffset: 338}34.765625%{ stroke-dashoffset: 0;}100%{ stroke-dashoffset: 0;}}@keyframes fuHPOuhk_draw_16{3.6458333333333335%{stroke-dashoffset: 83}34.895833333333336%{ stroke-dashoffset: 0;}100%{ stroke-dashoffset: 0;}}@keyframes fuHPOuhk_draw_17{3.776041666666667%{stroke-dashoffset: 183}35.026041666666664%{ stroke-dashoffset: 0;}100%{ stroke-dashoffset: 0;}}@keyframes fuHPOuhk_draw_18{3.90625%{stroke-dashoffset: 181}35.15625%{ stroke-dashoffset: 0;}100%{ stroke-dashoffset: 0;}}@keyframes fuHPOuhk_draw_19{4.036458333333334%{stroke-dashoffset: 122}35.286458333333336%{ stroke-dashoffset: 0;}100%{ stroke-dashoffset: 0;}}@keyframes fuHPOuhk_draw_20{4.166666666666667%{stroke-dashoffset: 134}35.416666666666664%{ stroke-dashoffset: 0;}100%{ stroke-dashoffset: 0;}}@keyframes fuHPOuhk_draw_21{4.296875%{stroke-dashoffset: 73}35.546875%{ stroke-dashoffset: 0;}100%{ stroke-dashoffset: 0;}}@keyframes fuHPOuhk_draw_22{4.427083333333334%{stroke-dashoffset: 24}35.677083333333336%{ stroke-dashoffset: 0;}100%{ stroke-dashoffset: 0;}}@keyframes fuHPOuhk_draw_23{4.557291666666667%{stroke-dashoffset: 36}35.807291666666664%{ stroke-dashoffset: 0;}100%{ stroke-dashoffset: 0;}}@keyframes fuHPOuhk_draw_24{4.6875%{stroke-dashoffset: 28}35.9375%{ stroke-dashoffset: 0;}100%{ stroke-dashoffset: 0;}}@keyframes fuHPOuhk_draw_25{4.817708333333334%{stroke-dashoffset: 21}36.067708333333336%{ stroke-dashoffset: 0;}100%{ stroke-dashoffset: 0;}}@keyframes fuHPOuhk_draw_26{4.947916666666667%{stroke-dashoffset: 12}36.197916666666664%{ stroke-dashoffset: 0;}100%{ stroke-dashoffset: 0;}}@keyframes fuHPOuhk_draw_27{5.078125%{stroke-dashoffset: 9}36.328125%{ stroke-dashoffset: 0;}100%{ stroke-dashoffset: 0;}}@keyframes fuHPOuhk_draw_28{5.208333333333334%{stroke-dashoffset: 6}36.458333333333336%{ stroke-dashoffset: 0;}100%{ stroke-dashoffset: 0;}}@keyframes fuHPOuhk_draw_29{5.338541666666667%{stroke-dashoffset: 6}36.588541666666664%{ stroke-dashoffset: 0;}100%{ stroke-dashoffset: 0;}}@keyframes fuHPOuhk_draw_30{5.46875%{stroke-dashoffset: 98}36.71875%{ stroke-dashoffset: 0;}100%{ stroke-dashoffset: 0;}}@keyframes fuHPOuhk_draw_31{5.598958333333334%{stroke-dashoffset: 13}36.848958333333336%{ stroke-dashoffset: 0;}100%{ stroke-dashoffset: 0;}}@keyframes fuHPOuhk_draw_32{5.729166666666667%{stroke-dashoffset: 3}36.979166666666664%{ stroke-dashoffset: 0;}100%{ stroke-dashoffset: 0;}}@keyframes fuHPOuhk_draw_33{5.859375%{stroke-dashoffset: 20}37.109375%{ stroke-dashoffset: 0;}100%{ stroke-dashoffset: 0;}}@keyframes fuHPOuhk_draw_34{5.989583333333334%{stroke-dashoffset: 5}37.239583333333336%{ stroke-dashoffset: 0;}100%{ stroke-dashoffset: 0;}}@keyframes fuHPOuhk_draw_35{6.119791666666667%{stroke-dashoffset: 3}37.369791666666664%{ stroke-dashoffset: 0;}100%{ stroke-dashoffset: 0;}}@keyframes fuHPOuhk_draw_36{6.25%{stroke-dashoffset: 357}37.5%{ stroke-dashoffset: 0;}100%{ stroke-dashoffset: 0;}}@keyframes fuHPOuhk_draw_37{6.380208333333334%{stroke-dashoffset: 207}37.630208333333336%{ stroke-dashoffset: 0;}100%{ stroke-dashoffset: 0;}}@keyframes fuHPOuhk_draw_38{6.510416666666667%{stroke-dashoffset: 385}37.760416666666664%{ stroke-dashoffset: 0;}100%{ stroke-dashoffset: 0;}}@keyframes fuHPOuhk_draw_39{6.640625%{stroke-dashoffset: 94}37.890625%{ stroke-dashoffset: 0;}100%{ stroke-dashoffset: 0;}}@keyframes fuHPOuhk_draw_40{6.770833333333334%{stroke-dashoffset: 208}38.020833333333336%{ stroke-dashoffset: 0;}100%{ stroke-dashoffset: 0;}}@keyframes fuHPOuhk_draw_41{6.901041666666667%{stroke-dashoffset: 206}38.151041666666664%{ stroke-dashoffset: 0;}100%{ stroke-dashoffset: 0;}}@keyframes fuHPOuhk_draw_42{7.03125%{stroke-dashoffset: 138}38.28125%{ stroke-dashoffset: 0;}100%{ stroke-dashoffset: 0;}}@keyframes fuHPOuhk_draw_43{7.161458333333334%{stroke-dashoffset: 152}38.411458333333336%{ stroke-dashoffset: 0;}100%{ stroke-dashoffset: 0;}}@keyframes fuHPOuhk_draw_44{7.291666666666667%{stroke-dashoffset: 83}38.541666666666664%{ stroke-dashoffset: 0;}100%{ stroke-dashoffset: 0;}}@keyframes fuHPOuhk_draw_45{7.421875%{stroke-dashoffset: 27}38.671875%{ stroke-dashoffset: 0;}100%{ stroke-dashoffset: 0;}}@keyframes fuHPOuhk_draw_46{7.552083333333334%{stroke-dashoffset: 41}38.802083333333336%{ stroke-dashoffset: 0;}100%{ stroke-dashoffset: 0;}}@keyframes fuHPOuhk_draw_47{7.682291666666667%{stroke-dashoffset: 31}38.932291666666664%{ stroke-dashoffset: 0;}100%{ stroke-dashoffset: 0;}}@keyframes fuHPOuhk_draw_48{7.8125%{stroke-dashoffset: 23}39.0625%{ stroke-dashoffset: 0;}100%{ stroke-dashoffset: 0;}}@keyframes fuHPOuhk_draw_49{7.942708333333334%{stroke-dashoffset: 13}39.192708333333336%{ stroke-dashoffset: 0;}100%{ stroke-dashoffset: 0;}}@keyframes fuHPOuhk_draw_50{8.072916666666668%{stroke-dashoffset: 10}39.32291666666667%{ stroke-dashoffset: 0;}100%{ stroke-dashoffset: 0;}}@keyframes fuHPOuhk_draw_51{8.203125%{stroke-dashoffset: 7}39.453125%{ stroke-dashoffset: 0;}100%{ stroke-dashoffset: 0;}}@keyframes fuHPOuhk_draw_52{8.333333333333334%{stroke-dashoffset: 6}39.583333333333336%{ stroke-dashoffset: 0;}100%{ stroke-dashoffset: 0;}}@keyframes fuHPOuhk_draw_53{8.463541666666668%{stroke-dashoffset: 111}39.71354166666667%{ stroke-dashoffset: 0;}100%{ stroke-dashoffset: 0;}}@keyframes fuHPOuhk_draw_54{8.59375%{stroke-dashoffset: 15}39.84375%{ stroke-dashoffset: 0;}100%{ stroke-dashoffset: 0;}}@keyframes fuHPOuhk_draw_55{8.723958333333334%{stroke-dashoffset: 4}39.973958333333336%{ stroke-dashoffset: 0;}100%{ stroke-dashoffset: 0;}}@keyframes fuHPOuhk_draw_56{8.854166666666668%{stroke-dashoffset: 23}40.10416666666667%{ stroke-dashoffset: 0;}100%{ stroke-dashoffset: 0;}}@keyframes fuHPOuhk_draw_57{8.984375%{stroke-dashoffset: 5}40.234375%{ stroke-dashoffset: 0;}100%{ stroke-dashoffset: 0;}}@keyframes fuHPOuhk_draw_58{9.114583333333334%{stroke-dashoffset: 3}40.364583333333336%{ stroke-dashoffset: 0;}100%{ stroke-dashoffset: 0;}}@keyframes fuHPOuhk_draw_59{9.244791666666668%{stroke-dashoffset: 79}40.49479166666667%{ stroke-dashoffset: 0;}100%{ stroke-dashoffset: 0;}}@keyframes fuHPOuhk_draw_60{9.375%{stroke-dashoffset: 182}40.625%{ stroke-dashoffset: 0;}100%{ stroke-dashoffset: 0;}}@keyframes fuHPOuhk_draw_61{9.505208333333334%{stroke-dashoffset: 70}40.755208333333336%{ stroke-dashoffset: 0;}100%{ stroke-dashoffset: 0;}}@keyframes fuHPOuhk_draw_62{9.635416666666668%{stroke-dashoffset: 40}40.88541666666667%{ stroke-dashoffset: 0;}100%{ stroke-dashoffset: 0;}}@keyframes fuHPOuhk_draw_63{9.765625%{stroke-dashoffset: 66}41.015625%{ stroke-dashoffset: 0;}100%{ stroke-dashoffset: 0;}}@keyframes fuHPOuhk_draw_64{9.895833333333334%{stroke-dashoffset: 55}41.145833333333336%{ stroke-dashoffset: 0;}100%{ stroke-dashoffset: 0;}}@keyframes fuHPOuhk_draw_65{10.026041666666668%{stroke-dashoffset: 72}41.27604166666667%{ stroke-dashoffset: 0;}100%{ stroke-dashoffset: 0;}}@keyframes fuHPOuhk_draw_66{10.15625%{stroke-dashoffset: 55}41.40625%{ stroke-dashoffset: 0;}100%{ stroke-dashoffset: 0;}}@keyframes fuHPOuhk_draw_67{10.286458333333334%{stroke-dashoffset: 85}41.536458333333336%{ stroke-dashoffset: 0;}100%{ stroke-dashoffset: 0;}}@keyframes fuHPOuhk_draw_68{10.416666666666668%{stroke-dashoffset: 66}41.66666666666667%{ stroke-dashoffset: 0;}100%{ stroke-dashoffset: 0;}}@keyframes fuHPOuhk_draw_69{10.546875%{stroke-dashoffset: 32}41.796875%{ stroke-dashoffset: 0;}100%{ stroke-dashoffset: 0;}}@keyframes fuHPOuhk_draw_70{10.677083333333334%{stroke-dashoffset: 81}41.927083333333336%{ stroke-dashoffset: 0;}100%{ stroke-dashoffset: 0;}}@keyframes fuHPOuhk_draw_71{10.807291666666668%{stroke-dashoffset: 66}42.05729166666667%{ stroke-dashoffset: 0;}100%{ stroke-dashoffset: 0;}}@keyframes fuHPOuhk_draw_72{10.9375%{stroke-dashoffset: 32}42.1875%{ stroke-dashoffset: 0;}100%{ stroke-dashoffset: 0;}}@keyframes fuHPOuhk_draw_73{11.067708333333334%{stroke-dashoffset: 88}42.317708333333336%{ stroke-dashoffset: 0;}100%{ stroke-dashoffset: 0;}}@keyframes fuHPOuhk_draw_74{11.197916666666668%{stroke-dashoffset: 75}42.44791666666667%{ stroke-dashoffset: 0;}100%{ stroke-dashoffset: 0;}}@keyframes fuHPOuhk_draw_75{11.328125%{stroke-dashoffset: 54}42.578125%{ stroke-dashoffset: 0;}100%{ stroke-dashoffset: 0;}}@keyframes fuHPOuhk_draw_76{11.458333333333334%{stroke-dashoffset: 88}42.708333333333336%{ stroke-dashoffset: 0;}100%{ stroke-dashoffset: 0;}}@keyframes fuHPOuhk_draw_77{11.588541666666668%{stroke-dashoffset: 28}42.83854166666667%{ stroke-dashoffset: 0;}100%{ stroke-dashoffset: 0;}}@keyframes fuHPOuhk_draw_78{11.71875%{stroke-dashoffset: 54}42.96875%{ stroke-dashoffset: 0;}100%{ stroke-dashoffset: 0;}}@keyframes fuHPOuhk_draw_79{11.848958333333334%{stroke-dashoffset: 69}43.098958333333336%{ stroke-dashoffset: 0;}100%{ stroke-dashoffset: 0;}}@keyframes fuHPOuhk_draw_80{11.979166666666668%{stroke-dashoffset: 69}43.22916666666667%{ stroke-dashoffset: 0;}100%{ stroke-dashoffset: 0;}}@keyframes fuHPOuhk_draw_81{12.109375%{stroke-dashoffset: 32}43.359375%{ stroke-dashoffset: 0;}100%{ stroke-dashoffset: 0;}}@keyframes fuHPOuhk_draw_82{12.239583333333334%{stroke-dashoffset: 28}43.489583333333336%{ stroke-dashoffset: 0;}100%{ stroke-dashoffset: 0;}}@keyframes fuHPOuhk_draw_83{12.369791666666668%{stroke-dashoffset: 54}43.61979166666667%{ stroke-dashoffset: 0;}100%{ stroke-dashoffset: 0;}}@keyframes fuHPOuhk_draw_84{12.5%{stroke-dashoffset: 88}43.75%{ stroke-dashoffset: 0;}100%{ stroke-dashoffset: 0;}}@keyframes fuHPOuhk_draw_85{12.630208333333334%{stroke-dashoffset: 64}43.880208333333336%{ stroke-dashoffset: 0;}100%{ stroke-dashoffset: 0;}}@keyframes fuHPOuhk_draw_86{12.760416666666668%{stroke-dashoffset: 58}44.01041666666667%{ stroke-dashoffset: 0;}100%{ stroke-dashoffset: 0;}}@keyframes fuHPOuhk_draw_87{12.890625%{stroke-dashoffset: 34}44.140625%{ stroke-dashoffset: 0;}100%{ stroke-dashoffset: 0;}}@keyframes fuHPOuhk_draw_88{13.020833333333334%{stroke-dashoffset: 34}44.270833333333336%{ stroke-dashoffset: 0;}100%{ stroke-dashoffset: 0;}}@keyframes fuHPOuhk_draw_89{13.151041666666668%{stroke-dashoffset: 69}44.40104166666667%{ stroke-dashoffset: 0;}100%{ stroke-dashoffset: 0;}}@keyframes fuHPOuhk_draw_90{13.28125%{stroke-dashoffset: 88}44.53125%{ stroke-dashoffset: 0;}100%{ stroke-dashoffset: 0;}}@keyframes fuHPOuhk_draw_91{13.411458333333334%{stroke-dashoffset: 69}44.661458333333336%{ stroke-dashoffset: 0;}100%{ stroke-dashoffset: 0;}}@keyframes fuHPOuhk_draw_92{13.541666666666668%{stroke-dashoffset: 93}44.79166666666667%{ stroke-dashoffset: 0;}100%{ stroke-dashoffset: 0;}}@keyframes fuHPOuhk_draw_93{13.671875%{stroke-dashoffset: 71}44.921875%{ stroke-dashoffset: 0;}100%{ stroke-dashoffset: 0;}}@keyframes fuHPOuhk_draw_94{13.802083333333334%{stroke-dashoffset: 38}45.052083333333336%{ stroke-dashoffset: 0;}100%{ stroke-dashoffset: 0;}}@keyframes fuHPOuhk_draw_95{13.932291666666668%{stroke-dashoffset: 34}45.18229166666667%{ stroke-dashoffset: 0;}100%{ stroke-dashoffset: 0;}}@keyframes fuHPOuhk_draw_96{14.0625%{stroke-dashoffset: 28}45.3125%{ stroke-dashoffset: 0;}100%{ stroke-dashoffset: 0;}}@keyframes fuHPOuhk_draw_97{14.192708333333334%{stroke-dashoffset: 25}45.442708333333336%{ stroke-dashoffset: 0;}100%{ stroke-dashoffset: 0;}}@keyframes fuHPOuhk_draw_98{14.322916666666668%{stroke-dashoffset: 53}45.57291666666667%{ stroke-dashoffset: 0;}100%{ stroke-dashoffset: 0;}}@keyframes fuHPOuhk_draw_99{14.453125000000004%{stroke-dashoffset: 26}45.703125%{ stroke-dashoffset: 0;}100%{ stroke-dashoffset: 0;}}@keyframes fuHPOuhk_draw_100{14.583333333333334%{stroke-dashoffset: 19}45.833333333333336%{ stroke-dashoffset: 0;}100%{ stroke-dashoffset: 0;}}@keyframes fuHPOuhk_draw_101{14.713541666666668%{stroke-dashoffset: 28}45.96354166666667%{ stroke-dashoffset: 0;}100%{ stroke-dashoffset: 0;}}@keyframes fuHPOuhk_draw_102{14.843750000000004%{stroke-dashoffset: 14}46.09375%{ stroke-dashoffset: 0;}100%{ stroke-dashoffset: 0;}}@keyframes fuHPOuhk_draw_103{14.973958333333334%{stroke-dashoffset: 10}46.223958333333336%{ stroke-dashoffset: 0;}100%{ stroke-dashoffset: 0;}}@keyframes fuHPOuhk_draw_104{15.104166666666668%{stroke-dashoffset: 8}46.35416666666667%{ stroke-dashoffset: 0;}100%{ stroke-dashoffset: 0;}}@keyframes fuHPOuhk_draw_105{15.234375000000004%{stroke-dashoffset: 9}46.484375%{ stroke-dashoffset: 0;}100%{ stroke-dashoffset: 0;}}@keyframes fuHPOuhk_draw_106{15.364583333333334%{stroke-dashoffset: 80}46.614583333333336%{ stroke-dashoffset: 0;}100%{ stroke-dashoffset: 0;}}@keyframes fuHPOuhk_draw_107{15.494791666666668%{stroke-dashoffset: 8}46.74479166666667%{ stroke-dashoffset: 0;}100%{ stroke-dashoffset: 0;}}@keyframes fuHPOuhk_draw_108{15.625000000000004%{stroke-dashoffset: 9}46.875%{ stroke-dashoffset: 0;}100%{ stroke-dashoffset: 0;}}@keyframes fuHPOuhk_draw_109{15.755208333333334%{stroke-dashoffset: 27}47.005208333333336%{ stroke-dashoffset: 0;}100%{ stroke-dashoffset: 0;}}@keyframes fuHPOuhk_draw_110{15.885416666666668%{stroke-dashoffset: 27}47.13541666666667%{ stroke-dashoffset: 0;}100%{ stroke-dashoffset: 0;}}@keyframes fuHPOuhk_draw_111{16.015625%{stroke-dashoffset: 26}47.265625%{ stroke-dashoffset: 0;}100%{ stroke-dashoffset: 0;}}@keyframes fuHPOuhk_draw_112{16.145833333333336%{stroke-dashoffset: 26}47.395833333333336%{ stroke-dashoffset: 0;}100%{ stroke-dashoffset: 0;}}@keyframes fuHPOuhk_draw_113{16.276041666666668%{stroke-dashoffset: 26}47.52604166666667%{ stroke-dashoffset: 0;}100%{ stroke-dashoffset: 0;}}@keyframes fuHPOuhk_draw_114{16.40625%{stroke-dashoffset: 26}47.65625%{ stroke-dashoffset: 0;}100%{ stroke-dashoffset: 0;}}@keyframes fuHPOuhk_draw_115{16.536458333333336%{stroke-dashoffset: 26}47.786458333333336%{ stroke-dashoffset: 0;}100%{ stroke-dashoffset: 0;}}@keyframes fuHPOuhk_draw_116{16.666666666666668%{stroke-dashoffset: 26}47.91666666666667%{ stroke-dashoffset: 0;}100%{ stroke-dashoffset: 0;}}@keyframes fuHPOuhk_draw_117{16.796875%{stroke-dashoffset: 13}48.046875%{ stroke-dashoffset: 0;}100%{ stroke-dashoffset: 0;}}@keyframes fuHPOuhk_draw_118{16.927083333333336%{stroke-dashoffset: 17}48.177083333333336%{ stroke-dashoffset: 0;}100%{ stroke-dashoffset: 0;}}@keyframes fuHPOuhk_draw_119{17.057291666666668%{stroke-dashoffset: 9}48.30729166666667%{ stroke-dashoffset: 0;}100%{ stroke-dashoffset: 0;}}@keyframes fuHPOuhk_draw_120{17.1875%{stroke-dashoffset: 16}48.4375%{ stroke-dashoffset: 0;}100%{ stroke-dashoffset: 0;}}</style></svg>