<!--?xml version="1.0" encoding="utf-8"?-->
<!-- Generator: Adobe Illustrator 21.0.0, SVG Export Plug-In . SVG Version: 6.00 Build 0)  -->
<svg version="1.1" id="Layer_1" xmlns="http://www.w3.org/2000/svg" xmlns:xlink="http://www.w3.org/1999/xlink" x="0px" y="0px" viewBox="0 0 560.7 332.4" style="" xml:space="preserve">
<style type="text/css">
	.st0{fill:#212426;}
	.st1{fill:none;stroke:#212426;stroke-width:2;stroke-miterlimit:10;}
	.st2{fill:#221F1F;}
	.st3{fill:#979080;}
	.st4{fill:#FFFFFF;}
	.st5{enable-background:new    ;}
	.st6{fill:#231F20;}
	.st7{fill:#010101;}
	.st8{fill:#DCDBDB;}
	.st9{fill:#F3F3F3;}
	.st10{fill:#F2F2F2;}
</style>
<title>scrolls_desktop</title>
<path class="st0 kwNVYnau_0" d="M83.2,114c-6.6-2.2-12.1-3.3-16.6-3.3c-3.5,0-6.3,0.7-8.3,2c-2,1.2-3.1,3.4-3,5.7c0,2.3,0.9,4.5,2.7,6
	c1.9,1.7,4.1,3,6.5,3.9c2.6,1,6.4,2.3,11.5,3.8c6.4,1.8,12.6,4,18.7,6.5c5,2.2,9.4,5.7,12.7,10c3.5,4.5,5.3,10.4,5.3,17.7
	c0,7.3-1.9,13.5-5.8,18.6c-4.1,5.3-9.5,9.3-15.8,11.6c-7.1,2.7-14.7,4-22.3,3.9c-9.2,0-18.3-1.6-27-4.8c-8.5-2.9-16.4-7.3-23.3-13
	l11.1-22.3c5.8,5.1,12.4,9.1,19.5,12c7.5,3.1,14.2,4.7,20,4.7c4.3,0,7.6-0.8,10-2.3c2.4-1.4,3.8-4.1,3.7-6.9c0-2.4-0.9-4.7-2.7-6.2
	c-2-1.8-4.3-3.1-6.8-4c-2.8-1-6.6-2.2-11.6-3.5c-6.3-1.7-12.4-3.8-18.4-6.3c-4.9-2.1-9.2-5.5-12.5-9.6c-3.5-4.3-5.2-10-5.2-17.2
	c-0.1-6.3,1.7-12.5,5.3-17.7c3.9-5.3,9.2-9.4,15.3-11.8c7.3-2.9,15.1-4.3,23-4.1c7.9,0,15.8,1.1,23.4,3.4c7.1,2,14,5,20.2,9
	l-10.7,22.7C95.9,119,89.7,116.2,83.2,114z"></path>
<path class="st0 kwNVYnau_1" d="M165.1,136.4c-4.7-0.1-9.2,2-12.1,5.7c-3.1,3.8-4.7,8.7-4.7,14.7c0,6.1,1.6,11.1,4.7,14.8
	c3,3.7,7.4,5.7,12.1,5.6c7.7,0,13.2-3.2,16.5-9.5l20.4,11.7c-3.3,6.4-8.5,11.6-15,15c-6.7,3.5-14.5,5.3-23.4,5.3
	c-7.9,0.2-15.7-1.6-22.7-5.3c-6.4-3.4-11.7-8.6-15.2-15c-3.7-6.9-5.5-14.6-5.4-22.4c-0.2-7.9,1.7-15.8,5.4-22.8
	c3.5-6.5,8.8-11.8,15.3-15.3c7-3.7,14.9-5.5,22.8-5.4c7.8-0.1,15.5,1.6,22.4,5.2c6.4,3.3,11.7,8.5,15.3,14.7l-20.1,11.7
	C178,139.6,171.7,136.2,165.1,136.4z"></path>
<path class="st0 kwNVYnau_2" d="M253.7,117.3c4.8-2.7,10.3-4,15.8-3.9v25.4c-0.9-0.1-2.3-0.2-4.2-0.2c-6.5,0-11.8,1.5-15.9,4.6
	c-4,3-6.6,7.6-7,12.5v43h-27.7v-84.3h27.7v14C245.1,123.8,249,119.9,253.7,117.3z"></path>
<path class="st0 kwNVYnau_3" d="M344.9,118.9c6.7,3.4,12.4,8.6,16.2,15.1c3.9,6.8,5.9,14.6,5.8,22.5c0,8.6-1.9,16.2-5.8,22.7
	c-3.8,6.5-9.5,11.7-16.2,15.1c-7,3.6-15,5.4-24.1,5.4s-17.2-1.8-24.1-5.4c-6.7-3.4-12.3-8.6-16.1-15.1c-3.8-6.5-5.7-14-5.7-22.7
	c-0.2-7.9,1.8-15.6,5.7-22.5c3.8-6.5,9.4-11.7,16.1-15.1c7-3.6,15-5.4,24.1-5.4C329.9,113.5,338,115.3,344.9,118.9z M307.7,141.7
	c-3.3,3.8-5,8.9-5,15.1c0,6.3,1.7,11.4,5,15.3c3.3,3.8,8.1,5.9,13.1,5.7c5.1,0.2,9.9-1.9,13.2-5.8c3.3-3.8,5-8.9,5-15.3
	c0-6.2-1.7-11.3-5.1-15.1c-3.3-3.8-8.1-5.9-13.2-5.8C315.8,135.8,311,137.9,307.7,141.7z"></path>
<path class="st1 kwNVYnau_4" d="M70.8,106.3c-7.1-2.3-13-3.5-17.8-3.5c-3.8,0-6.8,0.7-9,2.1c-2.1,1.3-3.4,3.6-3.3,6.1c0,2.5,1,4.8,2.8,6.5
	c2,1.8,4.4,3.2,7,4.2c2.8,1.1,6.9,2.4,12.4,4.1c6.9,1.9,13.6,4.2,20.2,7c5.4,2.4,10.1,6.1,13.7,10.8c3.8,4.9,5.7,11.2,5.7,19
	c0,7.8-2.1,14.5-6.2,20c-4.4,5.7-10.3,10-17,12.5c-7.7,2.9-15.8,4.3-24,4.2c-9.9,0-19.7-1.8-29-5.1c-9.1-3.1-17.6-7.9-25-14
	l11.9-23.9c6.2,5.4,13.3,9.8,21,12.9c8.1,3.3,15.3,5,21.5,5c4.6,0,8.2-0.8,10.8-2.5c2.6-1.6,4.1-4.4,3.9-7.4c0.1-2.6-1-5-2.9-6.7
	c-2.1-1.9-4.7-3.3-7.4-4.3c-3-1.1-7.1-2.3-12.5-3.8c-6.8-1.8-13.4-4-19.9-6.7c-5.3-2.3-9.9-5.9-13.5-10.4
	c-3.7-4.6-5.6-10.8-5.6-18.5c-0.1-6.8,1.9-13.5,5.8-19.1c4.1-5.7,9.8-10.1,16.4-12.6c7.1-3,15.3-4.4,24.7-4.4c8.5,0,17,1.2,25.1,3.6
	c7.7,2.1,15,5.3,21.8,9.6l-11.6,24.5C84.5,111.6,77.8,108.6,70.8,106.3z"></path>
<path class="st1 kwNVYnau_5" d="M158.8,130.4c-5.1-0.1-9.9,2.1-13.1,6.1c-3.3,4.1-5,9.3-5,15.8c0,6.6,1.7,11.9,5,15.9c3.2,3.9,8,6.1,13.1,6
	c8.3,0,14.2-3.4,17.8-10.2l21.9,12.6c-3.6,6.9-9.2,12.5-16.1,16.1c-7.1,3.8-15.5,5.7-25.1,5.7c-9.3,0-17.4-1.9-24.4-5.7
	c-6.9-3.7-12.6-9.2-16.3-16.1c-3.8-6.9-5.8-14.9-5.8-24.1c0-9.3,2-17.4,5.9-24.5c3.8-7,9.5-12.7,16.5-16.4
	c7.1-3.9,15.3-5.8,24.5-5.8c8.4-0.2,16.7,1.8,24.1,5.6c6.9,3.6,12.6,9.1,16.4,15.8l-21.6,12.6C172.7,133.7,166,130.2,158.8,130.4z"></path>
<path class="st1 kwNVYnau_6" d="M254.2,109.8c5.2-2.9,11.1-4.3,17-4.2v27.3c-1-0.1-2.5-0.2-4.5-0.2c-7,0-12.7,1.6-17.1,4.9
	c-4.3,3.2-7.1,8.1-7.5,13.5v46.2h-29.8v-90.6H242v15.1C244.9,116.8,249.1,112.7,254.2,109.8z"></path>
<path class="st1 kwNVYnau_7" d="M352.2,111.5c7.3,3.6,13.3,9.3,17.4,16.3c4.2,7.4,6.4,15.7,6.2,24.2c0,9.3-2.1,17.4-6.2,24.4
	c-4.1,7-10.2,12.6-17.4,16.2c-7.5,3.9-16.1,5.8-26,5.8c-9.9,0-18.5-1.9-26-5.8c-7.2-3.6-13.3-9.3-17.3-16.2
	c-4.1-7-6.1-15.1-6.1-24.4c-0.2-8.5,1.9-16.8,6.1-24.2c4.1-7,10.1-12.6,17.3-16.2c7.5-3.9,16.1-5.8,26-5.8
	C336.1,105.8,344.7,107.7,352.2,111.5z M312.2,136.1c-3.6,4.1-5.4,9.5-5.4,16.2c0,6.8,1.8,12.3,5.4,16.4c3.5,4.1,8.7,6.4,14.1,6.2
	c5.9,0,10.7-2.1,14.2-6.2c3.6-4.1,5.4-9.6,5.4-16.4c0-6.7-1.8-12.1-5.4-16.2c-3.5-4.1-8.7-6.4-14.1-6.2
	C320.9,129.7,315.7,132,312.2,136.1L312.2,136.1z"></path>
<path class="st2 kwNVYnau_8" d="M503.5,312.7H368.1v-33.2h135.3V312.7z M369.1,311.7h133.3v-31.2H369.1V311.7z"></path>
<path class="st0 kwNVYnau_9" d="M433.1,81.8h27.7v115.5h-27.7V81.8z"></path>
<path class="st0 kwNVYnau_10" d="M517.6,132.7c-2-0.1-4,0.4-5.8,1.3c-1.4,0.8-2.3,2.4-2.2,4c0,1.9,1.1,3.4,3.4,4.5c3.5,1.6,7.2,2.8,10.9,3.7
	c5.1,1.4,10.1,3.2,15,5.2c4,1.7,7.6,4.4,10.4,7.8c2.9,3.5,4.4,8,4.4,13.6c0,8.5-3.3,15.2-9.9,20s-15.2,7.2-25.8,7.2
	c-7,0-13.9-1-20.6-3c-6.3-1.9-12.2-5-17.4-9l8.7-17.9c4.6,3.2,9.7,5.8,15,7.7c4.8,1.8,9.8,2.7,14.9,2.8c2.2,0.1,4.4-0.4,6.5-1.3
	c1.5-0.7,2.4-2.2,2.4-3.8c0-2.1-1.2-3.7-3.5-4.8c-3.6-1.6-7.2-2.8-11-3.7c-5-1.4-9.9-3.2-14.6-5.2c-3.9-1.8-7.3-4.4-10-7.7
	c-2.9-3.4-4.3-7.9-4.3-13.4c0-8.5,3.2-15.2,9.7-20c6.4-4.8,14.7-7.2,24.9-7.3c12.3,0,24.4,3.4,35,9.8l-9.3,18.1
	C533.5,135.5,524.5,132.7,517.6,132.7z"></path>
<path class="st1 kwNVYnau_11" d="M425.2,67.1H456v128.6h-30.9V67.1z"></path>
<path class="st1 kwNVYnau_12" d="M519.2,123.8c-2.2-0.1-4.5,0.4-6.5,1.5c-1.6,0.9-2.5,2.6-2.4,4.4c0,2.1,1.3,3.7,3.8,5c3.9,1.8,8,3.2,12.2,4.2
	c5.7,1.6,11.3,3.6,16.7,5.8c4.5,1.9,8.4,4.9,11.5,8.7c3.2,3.9,4.8,8.9,4.8,15.2c0,9.5-3.7,16.9-11,22.3c-7.3,5.4-16.9,8.1-28.7,8.1
	c-7.8,0-15.5-1.1-22.9-3.4c-7-2.1-13.6-5.5-19.4-10l9.7-19.9c5.2,3.6,10.8,6.5,16.7,8.6c5.3,1.9,10.9,2.9,16.6,3
	c2.5,0.1,5-0.4,7.2-1.5c1.7-0.8,2.7-2.4,2.7-4.3c0-2.3-1.3-4.1-3.9-5.4c-3.9-1.7-8-3.1-12.2-4.2c-5.5-1.6-11-3.5-16.3-5.8
	c-4.3-1.9-8.2-4.9-11.2-8.5c-3.2-3.8-4.8-8.8-4.8-14.9c0-9.5,3.6-16.9,10.8-22.3c7.2-5.4,16.4-8.1,27.7-8.1c13.8,0,27.2,3.8,39,10.9
	L549,133.3C536.9,126.9,526.9,123.8,519.2,123.8z"></path>
<path class="st0 kwNVYnau_13" d="M394.5,208.7l-0.7,0.4c-1.4,0.1-2.9,0.1-4.3,0.2c-5.1,0.5-6.1,0-7.7-4.5l-0.1-2.2c0.9-3.3,0.1-6.5,0.2-9.8
	c0-1,0.5-2.3-0.7-3.1l-0.1-2.8c0.2-0.4,0.3-0.8,0.4-1.3c-0.1-10.8-0.1-21.7-0.2-32.5c0-0.6,0.1-1.4-0.7-1.7v-3.3
	c0.5-0.3,0.6-0.9,0.4-1.4c-0.1-0.2-0.2-0.3-0.4-0.4v-1c1-0.7,1.1-1.4,0-2v-1c0.6-0.4,0.5-1,0.5-1.6c0.1-6.1,0.4-12.3,0.2-18.4
	c0-2.3,0.9-2.9,2.8-3.1s4,0,5.6-1.4l0.7,1c-0.2,18.2-0.9,36.4,0.6,54.5c1-6.1,1-12.3,1.1-18.5c0.1-10.9,0.3-21.8,0.4-32.7
	c0-1.6,0.1-2.9,2.1-3l1,0.3c0,8.9-0.1,17.7,0,26.6C395.6,167.1,395.3,187.9,394.5,208.7z"></path>
<path class="st0 kwNVYnau_14" d="M380,60.1l0-2.7c1.4-3.1,0.9-6.3,0.5-9.5l0.2-2.7c1.2-1.5,1-3.2,0.4-4.9l0.1-1.5c1.2-1.1,0.9-2.4,0.4-3.7l0.1-1
	c0.2-0.3,0.4-0.6,0.6-1c0.9-2.1,2.9-2.4,4.6-2s0.8,2.1,0.8,3.2c0.6,19.9,0.8,39.7,0.5,59.6c0,0.9-0.3,2,0.7,2.6l0,0
	c0,0.4,0.1,0.6,0.5,0.6c0.6,0.6,1.4,0.9,2.3,0.8c-0.2,0.4,0.1,1.1-0.6,1.1c-2.2-0.2-1.8,1.2-1.6,2.5c-1.8,1.5,0.3,2.5,0.6,3.7
	c-0.3,1.9,0.7,3.8-0.1,5.7c-0.6,0.1-0.6,0.6-0.6,1.1c-1.9-0.9-4.1-1.1-6.2-0.8c-2.7,0.3-3-0.7-3-3c0.1-15.1,0-30.2,0-45.3
	C380.5,62.1,380.9,61,380,60.1z"></path>
<path class="st3 kwNVYnau_15" d="M389,96.6c-1-0.6-0.7-1.7-0.7-2.6c0.4-19.9,0.1-39.8-0.5-59.6c0-1.1,0.9-2.9-0.8-3.2s-3.7-0.1-4.6,2
	c-0.2,0.3-0.4,0.6-0.6,1c0.5-3.8-0.1-7.7,2-11.2c-0.2,2,0.7,2.6,2.7,2.3c1.4-0.3,2.8-0.3,4.2-0.2c2.4,0.3,2.6-0.8,1.9-2.6
	c2.1,0.8,2.1,0.8,2.1,3.6c-1.3-0.1-2.6-0.1-3.9,0c-1,0.1-2.4-0.9-2.7,1c-0.4,1.5,0.4,3.1,1.8,3.7c1.1,0.6,2.6,0.7,3.2,2.2
	c0.1,0.4,0.4,0.8,0.5,0s0-1.5,1.1-1.2c0.9,0.3,1.5,1.1,1.4,2c0.3,2.6,0.7,5.2,1,7.8c1.3,14,1.5,27.9,1.6,41.9
	c0.1,8.6,0.1,17.2,0.1,25.8c0,0.9,0.3,2.4-0.9,2.4s-2.8,1-4-0.3c0,0,0.2-0.3,0.3-0.5c2.1-0.8,1.8-2.6,1.8-4.3c-0.2-19-0.4-38-0.6-57
	c0-0.9-0.1-1.8-0.1-2.6h-0.5v12.1c-0.8-0.8-1.2-2-1.1-3.1c0-1.7-0.6-2.6-2.6-2.5c-2.2,0-1.3,1.6-1.3,2.4
	C389.3,69.3,390.8,83,389,96.6z"></path>
<path class="st3 kwNVYnau_16" d="M381.9,204.9c1.6,4.5,2.6,5,7.7,4.5c1.4-0.1,2.9-0.2,4.3-0.2c-0.1,7.1-1.4,14.2-2,21.3
	c-0.3,1.8-0.6,3.6-0.7,5.4c0,2.1-2.6,1.5-2.8,3.1c-1.1-0.2-1.8-1.1-1.9-2.2c-1.2-7.6-2.3-15.2-3.5-22.8
	C382.4,211,381,208.1,381.9,204.9z"></path>
<path class="st3 kwNVYnau_17" d="M394.5,208.7c0.8-20.8,1.1-41.6,1-62.4c0-8.9,0-17.7,0-26.6c1.8-0.5,2.4,0.2,2.4,2c-0.1,28.1,0.3,56.3-1.4,84.4
	C396.5,207.5,396.6,209,394.5,208.7z"></path>
<path class="st3 kwNVYnau_18" d="M380,60.1c0.9,0.9,0.4,2,0.4,3c0,15.1,0.1,30.2,0,45.3c0,2.2,0.3,3.3,3,3c2.1-0.3,4.2-0.1,6.2,0.8
	c1.2,1.8,1.2,4,0.1,5.8c-1.6,1.4-3.7,1.2-5.6,1.4s-2.8,0.8-2.8,3.1c0.1,6.1-0.1,12.3-0.2,18.4c0,0.6,0.1,1.2-0.5,1.6
	c-0.2-0.3-0.3-0.6-0.4-1c-0.2-26.6-1.3-53.1-0.6-79.7C379.6,61.1,379.5,60.5,380,60.1z"></path>
<path class="st3 kwNVYnau_19" d="M394.5,119.3c-2,0-2.1,1.4-2.1,3c-0.1,10.9-0.2,21.8-0.4,32.7c-0.1,6.2,0,12.3-1.1,18.5
	c-1.5-18.2-0.7-36.4-0.6-54.5c-0.2-2.8,2.6-2.1,3.9-3.2c0.5-0.5,1.2,1,1,1.9C395.2,118.2,394.3,118.5,394.5,119.3z"></path>
<path class="st0 kwNVYnau_20" d="M394.8,59V46.8h0.5c0,0.9,0.1,1.8,0.1,2.6c0.2,19,0.4,38,0.6,57c0,1.7,0.3,3.5-1.8,4.3
	c-0.5,0.5-1.1,0.3-1.7,0.2c-0.3-4.4,2.6-8.8,0-13.3c1-0.4,1.6-1.3,1.8-2.3c0.6-0.4,0.6-0.9,0.2-1.4l0.1-2.7c0.4-3.1,0.5-6.3,0.1-9.4
	c0-5,0-10,0-15v-0.7L394.8,59z"></path>
<path class="st3 kwNVYnau_21" d="M380.6,151.5c0.8,0.3,0.7,1,0.7,1.7c0.1,10.8,0.2,21.7,0.2,32.5c-0.1,0.5-0.2,0.9-0.4,1.3c-0.8-0.9-0.5-2-0.5-3
	c-0.1-10.2-0.2-20.3-0.3-30.5C380.4,152.9,380.5,152.2,380.6,151.5z"></path>
<path class="st0 kwNVYnau_22" d="M392.6,22.4c0.8,1.8,0.5,2.9-1.9,2.6c-1.4-0.1-2.8-0.1-4.2,0.2c-2,0.3-2.9-0.3-2.7-2.3
	C386.6,20.7,389.6,21.5,392.6,22.4z"></path>
<path class="st3 kwNVYnau_23" d="M392.6,97.8c2.5,4.4-0.3,8.8,0,13.3h-2.3c0.8-1.9-0.2-3.8,0.1-5.7c1.1-0.2,0.7-1.6,1.3-1.9
	c1.1-0.6,0.9-0.8,0.2-1.8c-0.9-1.1-1.4-0.5-2,0c-0.2-1.3-0.7-2.7,1.6-2.5c0.6,0,0.4-0.7,0.6-1.1L392.6,97.8z"></path>
<path class="st3 kwNVYnau_24" d="M381.2,189.8c1.3,0.8,0.8,2.1,0.7,3.1c-0.1,3.3,0.7,6.6-0.2,9.8C381,198.5,380.8,194.1,381.2,189.8z"></path>
<path class="st3 kwNVYnau_25" d="M380.6,47.8c0.4,3.2,0.9,6.4-0.5,9.5C379.8,54.2,379.5,51,380.6,47.8z"></path>
<path class="st3 kwNVYnau_26" d="M381.2,40.3c0.6,1.7,0.8,3.3-0.4,4.9C380.2,43.6,380.4,41.8,381.2,40.3z"></path>
<path class="st3 kwNVYnau_27" d="M381.8,35.1c0.5,1.3,0.7,2.6-0.4,3.7C380.9,37.6,381,36.2,381.8,35.1z"></path>
<path class="st3 kwNVYnau_28" d="M380.6,143.4c1.1,0.7,1.1,1.4,0,2C380.2,144.9,380.2,144.1,380.6,143.4z"></path>
<path class="st3 kwNVYnau_29" d="M380.6,146.5c0.5,0.3,0.6,0.9,0.4,1.4c-0.1,0.2-0.2,0.3-0.4,0.4c-0.5-0.3-0.6-0.9-0.4-1.4
	C380.4,146.7,380.5,146.6,380.6,146.5z"></path>
<path class="st4 kwNVYnau_30" d="M392.6,97.8l-0.8,0.2c-0.9,0.1-1.7-0.2-2.3-0.8c0-0.3-0.1-0.6-0.5-0.6l0,0c1.8-13.6,0.2-27.3,0.7-40.9
	c0-0.9-0.9-2.4,1.3-2.4c2,0,2.5,0.8,2.6,2.5c-0.1,1.2,0.3,2.3,1.1,3.2v7.4c-0.4,0.2-0.4,0.5,0,0.7c0,5,0,10,0,15
	c-0.6,3.1-0.6,6.3-0.1,9.4l-0.1,2.7c-0.4,0.3-0.5,0.9-0.2,1.4C394.2,96.6,393.6,97.5,392.6,97.8z"></path>
<path class="st4 kwNVYnau_31" d="M389.7,101.7c0.7-0.5,1.1-1.1,2,0c0.8,0.9,0.9,1.1-0.2,1.8c-0.6,0.4-0.2,1.7-1.3,1.9
	C390.1,104.1,387.9,103.2,389.7,101.7z"></path>
<path class="st3 kwNVYnau_32" d="M389.1,96.6c0.4,0,0.5,0.3,0.5,0.6C389.2,97.2,389,97,389.1,96.6z"></path>
<path class="st3 kwNVYnau_33" d="M394.7,91.5c-0.5-3.1-0.5-6.3,0.1-9.4C395.2,85.2,395.2,88.3,394.7,91.5z"></path>
<path class="st3 kwNVYnau_34" d="M394.4,95.5c-0.3-0.4-0.2-1.1,0.2-1.4C395,94.7,395,95.2,394.4,95.5z"></path>
<path class="st3 kwNVYnau_35" d="M394.8,67.1c-0.4-0.2-0.4-0.5,0-0.7V67.1z"></path>
<path class="st1 kwNVYnau_36" d="M400.5,215.8l-0.8,0.5c-1.6,0.1-3.3,0.1-5,0.3c-5.9,0.6-7,0-8.9-5.1l-0.1-2.5c1.1-3.7,0.1-7.4,0.2-11.2
	c0-1.2,0.6-2.6-0.9-3.5l-0.1-3.1c0.2-0.5,0.4-1,0.5-1.5c-0.1-12.3-0.1-24.7-0.3-37c0-0.7,0.1-1.6-0.9-1.9V147c0.6-0.3,0.8-1,0.5-1.5
	c-0.1-0.2-0.3-0.3-0.5-0.5v-1.2c1.2-0.8,1.2-1.6,0-2.3v-1.2c0.7-0.5,0.5-1.1,0.5-1.8c0.1-7,0.4-14,0.3-20.9c-0.1-2.6,1-3.3,3.2-3.5
	s4.6,0,6.5-1.6l0.8,1.1c-0.2,20.7-1,41.4,0.7,62c1.2-7,1.1-14,1.2-21c0.1-12.4,0.3-24.8,0.4-37.2c0-1.8,0.1-3.3,2.4-3.4l1.2,0.4
	c0,10.1-0.1,20.2,0,30.3C401.8,168.4,401.4,192.1,400.5,215.8z"></path>
<path class="st1 kwNVYnau_37" d="M383.7,46.7l0.1-3.1c1.7-3.5,1.1-7.1,0.6-10.8l0.2-3c1.4-1.7,1.2-3.6,0.5-5.5l0.1-1.7c1.3-1.3,1.1-2.7,0.5-4.2
	l0.1-1.1c0.2-0.3,0.5-0.7,0.6-1.1c1.1-2.4,3.3-2.7,5.4-2.3s0.9,2.4,0.9,3.7c0.7,22.6,1,45.2,0.5,67.8c0,1-0.4,2.2,0.8,3l0,0
	c-0.1,0.4,0.2,0.6,0.6,0.6c0.7,0.7,1.7,1.1,2.7,1c-0.3,0.4,0.1,1.3-0.6,1.2c-2.6-0.2-2.1,1.4-1.8,2.9c-2.1,1.8,0.4,2.8,0.7,4.2
	c-0.3,2.2,0.8,4.4-0.1,6.5c-0.8,0.1-0.7,0.7-0.7,1.2c-2.3-1-4.7-1.3-7.2-0.9c-3.1,0.4-3.4-0.8-3.4-3.4c0.1-17.2,0-34.3,0-51.5
	C384.2,49,384.7,47.7,383.7,46.7z"></path>
<path class="st1 kwNVYnau_38" d="M394.2,88.3c-1.2-0.7-0.8-2-0.8-3c0.4-22.6,0.2-45.2-0.5-67.8c0-1.3,1-3.3-0.9-3.7s-4.3-0.1-5.4,2.3
	c-0.2,0.4-0.4,0.7-0.6,1.1c0.6-4.3-0.1-8.8,2.3-12.8c-0.2,2.3,0.8,3,3.1,2.6c1.6-0.3,3.3-0.4,4.9-0.2c2.8,0.3,3-0.9,2.1-3
	c2.4,0.9,2.4,0.9,2.5,4.1c-1.5-0.1-3-0.1-4.6,0c-1.1,0.1-2.8-1-3.1,1.1c-0.4,1.7,0.5,3.5,2.1,4.2c1.3,0.7,3.1,0.8,3.7,2.5
	c0.2,0.5,0.4,0.9,0.6,0c0.2-0.9,0-1.7,1.3-1.4c1,0.3,1.7,1.2,1.6,2.2c0.4,2.9,0.8,5.9,1.1,8.8c1.5,15.9,1.8,31.8,1.9,47.7
	c0.1,9.8,0.1,19.5,0.1,29.3c0,1,0.4,2.7-1,2.7s-3.2,1.1-4.6-0.3c0,0,0.2-0.3,0.3-0.5c2.5-0.9,2.1-3,2.1-4.9
	c-0.2-21.6-0.5-43.2-0.7-64.9c0-1-0.1-2-0.1-3h-0.6v13.8c-1.2-0.9-1.2-2.3-1.3-3.6c-0.1-2-0.7-2.9-3-2.9c-2.6,0.1-1.5,1.8-1.5,2.8
	C394.4,57.3,396.2,72.8,394.2,88.3z"></path>
<path class="st1 kwNVYnau_39" d="M385.8,211.5c1.9,5.1,3,5.7,8.9,5.1c1.6-0.2,3.3-0.2,5-0.3c-0.1,8.1-1.6,16.1-2.3,24.2
	c-0.2,2.1-0.8,4.1-0.8,6.2c0,2.4-3,1.7-3.3,3.5c-1.2-0.2-2.1-1.3-2.2-2.5c-1.4-8.6-2.7-17.3-4.1-25.9
	C386.4,218.3,384.8,215,385.8,211.5z"></path>
<path class="st1 kwNVYnau_40" d="M400.5,215.8c0.9-23.7,1.3-47.3,1.2-71c0-10.1,0-20.2,0-30.3c2.1-0.6,2.8,0.3,2.8,2.3c-0.1,32,0.4,64-1.6,96
	C402.8,214.4,403,216.1,400.5,215.8z"></path>
<path class="st1 kwNVYnau_41" d="M383.7,46.7c1,1,0.5,2.3,0.5,3.4c0,17.2,0.1,34.3,0,51.5c0,2.5,0.3,3.8,3.4,3.4c2.4-0.4,4.9-0.1,7.2,0.9
	c1.5,2.2,1.2,4.4,0.1,6.6c-1.9,1.6-4.3,1.3-6.5,1.6s-3.3,0.9-3.2,3.5c0.1,7-0.1,13.9-0.3,20.9c0,0.6,0.1,1.3-0.5,1.8
	c-0.2-0.4-0.4-0.8-0.5-1.2c-0.3-30.2-1.6-60.4-0.7-90.6C383.2,47.9,383.1,47.2,383.7,46.7z"></path>
<path class="st1 kwNVYnau_42" d="M400.5,114.1c-2.3,0.1-2.4,1.5-2.4,3.4c-0.1,12.4-0.3,24.8-0.4,37.2c-0.1,7,0,14-1.2,21
	c-1.7-20.6-0.9-41.4-0.7-62c-0.3-3.1,3-2.4,4.5-3.7c0.6-0.5,1.4,1.2,1.2,2.1C401.3,112.8,400.3,113.2,400.5,114.1z"></path>
<path class="st1 kwNVYnau_43" d="M400.8,45.5V31.7h0.6c0,1,0.1,2,0.1,3c0.3,21.6,0.5,43.2,0.7,64.9c0,1.9,0.4,4-2.1,4.9
	c-0.6,0.6-1.3,0.4-1.9,0.3c-0.3-5,3-10,0.1-15.1c1.1-0.4,1.9-1.4,2-2.6c0.7-0.4,0.7-1,0.3-1.6l0.1-3.1c0.5-3.6,0.5-7.2,0.1-10.7
	c0-5.7,0-11.3,0-17v-0.8L400.8,45.5z"></path>
<path class="st1 kwNVYnau_44" d="M384.4,150.8c1,0.4,0.9,1.2,0.9,1.9c0.1,12.3,0.2,24.7,0.3,37c-0.1,0.5-0.3,1-0.5,1.5c-0.9-1-0.6-2.3-0.6-3.5
	c-0.2-11.6-0.3-23.1-0.4-34.7C384.1,152.2,384.2,151.5,384.4,150.8z"></path>
<path class="st1 kwNVYnau_45" d="M398.2,3.8c0.9,2.1,0.6,3.3-2.1,3c-1.6-0.1-3.3-0.1-4.9,0.2c-2.3,0.4-3.3-0.3-3.1-2.6
	C391.3,2,394.8,2.8,398.2,3.8z"></path>
<path class="st1 kwNVYnau_46" d="M398.3,89.7c2.9,5-0.4,10-0.1,15.1h-2.7c0.9-2.2-0.2-4.4,0.1-6.5c1.3-0.3,0.8-1.8,1.5-2.2c1.3-0.7,1.1-1,0.2-2
	c-1.1-1.3-1.6-0.5-2.4,0c-0.3-1.5-0.8-3.1,1.8-2.9c0.7,0,0.4-0.8,0.6-1.2L398.3,89.7z"></path>
<path class="st1 kwNVYnau_47" d="M385.1,194.3c1.5,0.9,0.9,2.3,0.9,3.5c-0.1,3.7,0.9,7.5-0.2,11.2C384.8,204.1,384.6,199.2,385.1,194.3z"></path>
<path class="st1 kwNVYnau_48" d="M384.4,32.8c0.5,3.6,1,7.3-0.6,10.8C383.4,40,383.1,36.4,384.4,32.8z"></path>
<path class="st1 kwNVYnau_49" d="M385.1,24.3c0.7,1.9,0.9,3.8-0.5,5.5C383.9,28,384.1,26,385.1,24.3z"></path>
<path class="st1 kwNVYnau_50" d="M385.7,18.3c0.6,1.5,0.9,2.9-0.5,4.2C384.7,21.2,384.9,19.6,385.7,18.3z"></path>
<path class="st1 kwNVYnau_51" d="M384.4,141.5c1.3,0.8,1.2,1.5,0,2.3C383.9,143.1,383.9,142.2,384.4,141.5z"></path>
<path class="st1 kwNVYnau_52" d="M384.4,145c0.6,0.3,0.8,1,0.5,1.5c-0.1,0.2-0.3,0.3-0.5,0.5c-0.6-0.3-0.7-1-0.4-1.6
	C384.1,145.2,384.2,145.1,384.4,145z"></path>
<path class="st1 kwNVYnau_53" d="M398.3,89.7l-0.9,0.2c-1,0.1-2-0.3-2.7-1c-0.1-0.3-0.1-0.6-0.6-0.6l0,0c2.1-15.5,0.3-31,0.9-46.5
	c0-1-1.1-2.7,1.5-2.8c2.3,0,3,0.9,3,2.9c0,1.3,0.1,2.6,1.3,3.6l0.1,8.4c-0.4,0.3-0.4,0.5,0,0.8c0,5.7,0,11.3,0,17
	c-0.6,3.5-0.7,7.2-0.1,10.7l-0.1,3.1c-0.5,0.4-0.6,1.1-0.3,1.6c0,0,0,0,0,0C400.2,88.2,399.4,89.2,398.3,89.7z"></path>
<path class="st1 kwNVYnau_54" d="M395,94c0.8-0.6,1.3-1.3,2.4,0c0.9,1,1.1,1.3-0.2,2c-0.7,0.4-0.2,1.9-1.5,2.2C395.3,96.8,392.9,95.8,395,94z"></path>
<path class="st1 kwNVYnau_55" d="M394.2,88.3c0.5,0,0.5,0.3,0.6,0.6C394.3,88.9,394.1,88.7,394.2,88.3z"></path>
<path class="st1 kwNVYnau_56" d="M400.8,82.4c-0.6-3.6-0.6-7.2,0.1-10.7C401.3,75.3,401.3,78.9,400.8,82.4z"></path>
<path class="st1 kwNVYnau_57" d="M400.4,87.1c-0.4-0.5-0.2-1.2,0.3-1.6c0,0,0,0,0,0C401,86.1,401,86.6,400.4,87.1z"></path>
<path class="st1 kwNVYnau_58" d="M400.8,54.7c-0.4-0.3-0.4-0.5,0-0.8V54.7z"></path>
<path class="st0 kwNVYnau_59" d="M391,244h3.2v35.5H391V244z"></path>
<path class="st0 kwNVYnau_60" d="M441,194h3.8v86.4H441V194z"></path>
<g class="st5">
	<path class="st6 kwNVYnau_61" d="M429.7,300.3v7.9h-28.7l-0.1-6.5l13.7-14.1c1.1-1.1,1.9-2.2,2.6-3.3c0.7-1.1,1-2.1,1-2.8c0-1-0.4-1.8-1.1-2.4
		c-0.8-0.6-1.8-0.8-3.2-0.8c-1.5,0-3.2,0.4-5,1.3c-1.8,0.8-3.6,2-5.3,3.5l-3.8-7.2c5.2-3.8,10.4-5.6,15.6-5.6c2.5,0,4.7,0.4,6.7,1.2
		c2,0.8,3.5,2,4.7,3.5c1.1,1.5,1.7,3.2,1.7,5.2c0,1.9-0.6,3.9-1.9,6c-1.3,2.1-3.1,4.2-5.4,6.6l-7.7,7.7H429.7z"></path>
	<path class="st6 kwNVYnau_62" d="M462.8,275.2c2.9,3.3,4.3,8,4.3,14.2c0,6.2-1.4,10.9-4.3,14.2c-2.9,3.3-7,5-12.3,5c-5.4,0-9.5-1.7-12.4-5
		c-2.9-3.3-4.3-8-4.3-14.2c0-6.2,1.4-10.9,4.3-14.2c2.9-3.3,7-4.9,12.4-4.9C455.8,270.2,459.9,271.9,462.8,275.2z M445.4,280.3
		c-1,1.8-1.6,4.9-1.6,9c0,4.2,0.5,7.3,1.6,9.1c1,1.8,2.7,2.8,5.1,2.8c2.3,0,4-0.9,5-2.8c1.1-1.9,1.6-4.9,1.6-9.1s-0.5-7.2-1.6-9
		c-1.1-1.8-2.7-2.8-5-2.8C448.1,277.5,446.4,278.5,445.4,280.3z"></path>
	<path class="st6 kwNVYnau_63" d="M468.4,270.6h17.1v37.6h-9.8v-29.6h-7.2V270.6z"></path>
	<path class="st6 kwNVYnau_64" d="M516.8,272.9c2.4,1.8,3.6,4.3,3.6,7.4c0,1.6-0.4,3.1-1.2,4.4c-0.8,1.4-1.9,2.5-3.2,3.3c2,0.9,3.5,2.2,4.7,3.9
		c1.1,1.7,1.7,3.6,1.7,5.7c0,2.2-0.6,4.2-1.9,5.8c-1.2,1.7-3,2.9-5.3,3.8c-2.3,0.9-5,1.3-8,1.3c-3,0-5.7-0.4-8-1.3
		c-2.3-0.9-4-2.2-5.3-3.8c-1.3-1.6-1.9-3.5-1.9-5.7c0-2.1,0.6-4,1.9-5.8c1.3-1.7,2.9-3,5-3.9c-1.5-0.9-2.7-2.1-3.6-3.5
		c-0.9-1.4-1.3-2.9-1.3-4.5c0-2,0.5-3.8,1.6-5.3c1.1-1.5,2.6-2.7,4.6-3.5c2-0.8,4.3-1.2,6.9-1.2
		C511.2,270.1,514.4,271.1,516.8,272.9z M502.8,293.3c-1,0.8-1.5,2-1.5,3.5c0,1.5,0.5,2.7,1.5,3.5s2.5,1.2,4.4,1.2
		c1.9,0,3.4-0.4,4.4-1.2c1-0.8,1.6-2,1.6-3.5c0-1.5-0.5-2.7-1.6-3.5c-1-0.8-2.5-1.2-4.4-1.2C505.3,292.1,503.8,292.5,502.8,293.3z
		 M503.4,277.8c-0.9,0.7-1.3,1.7-1.3,3.1c0,1.3,0.4,2.3,1.3,3c0.9,0.7,2.1,1,3.7,1c1.6,0,2.9-0.3,3.8-1s1.3-1.7,1.3-3
		c0-1.3-0.4-2.3-1.3-3.1s-2.1-1.1-3.8-1.1C505.6,276.7,504.3,277.1,503.4,277.8z"></path>
</g>
<path class="st7 kwNVYnau_65" d="M19,51.6h0.8l5.6,13.3h-1l-1.8-4.4h-6.4l-1.9,4.4h-1L19,51.6z M22.3,59.7l-2.9-7l-3,7H22.3z"></path>
<path class="st7 kwNVYnau_66" d="M25.5,68.2c-0.4,0-0.8-0.1-1.1-0.2c-0.3-0.1-0.7-0.3-0.9-0.5l0.5-0.6c0.2,0.2,0.4,0.3,0.7,0.4
	c0.2,0.1,0.5,0.1,0.8,0.1c0.2,0,0.5,0,0.7-0.1c0.2-0.1,0.4-0.2,0.6-0.4c0.2-0.2,0.3-0.4,0.4-0.6c0.1-0.2,0.2-0.5,0.2-0.8V55.1h0.9
	v10.3c0,0.4-0.1,0.8-0.2,1.1c-0.2,0.3-0.4,0.6-0.6,0.9c-0.3,0.2-0.6,0.4-0.9,0.6C26.2,68.1,25.9,68.2,25.5,68.2z M27.3,52.9v-1.7
	h0.9v1.7H27.3z"></path>
<path class="st7 kwNVYnau_67" d="M33.6,65c-0.8,0-1.7-0.3-2.3-0.9c-0.3-0.3-0.5-0.6-0.7-1c-0.2-0.4-0.2-0.8-0.2-1.2c0-0.4,0.1-0.8,0.3-1.1
	c0.2-0.4,0.5-0.7,0.8-0.9c0.4-0.3,0.8-0.5,1.3-0.6c0.5-0.1,1.1-0.2,1.7-0.2c0.5,0,1.1,0,1.6,0.1c0.5,0.1,1,0.2,1.4,0.4v-1
	c0-0.8-0.2-1.6-0.8-2.2c-0.6-0.6-1.3-0.9-2.1-0.8c-0.5,0-1,0.1-1.5,0.3c-0.6,0.2-1.1,0.5-1.6,0.9l-0.4-0.6c1-0.8,2.3-1.2,3.6-1.3
	c1-0.1,2,0.3,2.8,1c0.7,0.8,1.1,1.8,1,2.8v4.8c0,0.3,0.1,0.5,0.4,0.5v0.9h-0.2h-0.2c-0.2,0-0.4-0.1-0.6-0.3
	c-0.1-0.2-0.2-0.4-0.3-0.6v-0.8c-0.4,0.6-1,1.1-1.7,1.4C35.1,64.9,34.4,65,33.6,65z M33.8,64.3c0.7,0,1.4-0.1,2-0.4
	c0.6-0.2,1-0.6,1.4-1.1c0.2-0.2,0.3-0.5,0.3-0.8v-1.7C37,60.2,36.5,60,36,59.9c-0.5-0.1-1-0.1-1.5-0.1c-0.4,0-0.9,0-1.3,0.2
	c-0.4,0.1-0.7,0.2-1,0.4c-0.3,0.2-0.5,0.4-0.7,0.7c-0.2,0.3-0.2,0.6-0.2,0.9c0,0.3,0.1,0.6,0.2,0.9c0.1,0.3,0.3,0.5,0.5,0.7
	c0.2,0.2,0.5,0.4,0.8,0.5C33.1,64.2,33.4,64.3,33.8,64.3L33.8,64.3z"></path>
<path class="st7 kwNVYnau_68" d="M41.6,68.2h0.3h0.3c0.1,0,0.2,0,0.3-0.1c0.1,0,0.2-0.1,0.2-0.2c0.1-0.1,0.2-0.3,0.3-0.4
	c0.1-0.2,0.3-0.5,0.4-0.9l0.7-1.7l-4.3-9.7h1l3.9,8.8l3.6-8.8h0.9l-5.3,12.8c-0.1,0.3-0.4,0.6-0.7,0.8C42.9,69,42.4,69.1,42,69h-0.2
	h-0.2L41.6,68.2z"></path>
<path class="st7 kwNVYnau_69" d="M55.7,64.8V51.5h1v8.1l7.8-8.1h1.1l-5.5,5.8l5.7,7.5h-1.1l-5.3-6.9l-2.7,2.8v4.1H55.7z"></path>
<path class="st7 kwNVYnau_70" d="M70,65c-2.1,0-3.1-1.4-3.1-4.3v-5.6h0.9v5.5c0,2.4,0.8,3.6,2.4,3.6c0.4,0,0.8-0.1,1.2-0.2
	c0.8-0.3,1.5-0.8,2-1.5c0.3-0.4,0.5-0.8,0.6-1.2v-6.1H75v8.4c0,0.3,0.1,0.5,0.4,0.5v0.8h-0.2h-0.1c-0.2,0-0.5-0.1-0.7-0.2
	c-0.2-0.2-0.3-0.4-0.3-0.6v-1.5C73.4,64.1,71.8,65,70,65L70,65z"></path>
<path class="st7 kwNVYnau_71" d="M92.3,64.8h-0.9v-5.4c0.1-0.9-0.1-1.9-0.6-2.7c-0.4-0.6-1.1-0.9-1.8-0.9c-0.4,0-0.8,0.1-1.1,0.2
	c-0.4,0.2-0.7,0.4-1,0.6c-0.3,0.3-0.6,0.6-0.8,1c-0.2,0.4-0.4,0.8-0.5,1.2v6h-0.9v-5.4c0.1-1-0.1-1.9-0.6-2.8
	c-0.4-0.6-1-0.9-1.7-0.9c-0.4,0-0.8,0.1-1.1,0.2c-0.4,0.1-0.7,0.4-1,0.6c-0.3,0.3-0.6,0.6-0.8,1c-0.2,0.4-0.4,0.8-0.5,1.2v6H78v-9.7
	h0.9v2.3c0.4-0.7,0.9-1.4,1.6-1.8c0.6-0.4,1.4-0.7,2.2-0.7c0.7,0,1.5,0.2,2,0.7c0.5,0.5,0.8,1.2,0.9,1.9c0.6-1.6,2.1-2.6,3.8-2.6
	c0.9-0.1,1.8,0.4,2.3,1.1c0.5,1,0.7,2.1,0.7,3.2V64.8z"></path>
<path class="st7 kwNVYnau_72" d="M97.5,65c-0.8,0-1.7-0.3-2.3-0.9c-0.3-0.3-0.5-0.6-0.7-1c-0.2-0.4-0.2-0.8-0.2-1.2c0-0.4,0.1-0.8,0.3-1.2
	c0.2-0.4,0.5-0.7,0.8-0.9c0.4-0.3,0.8-0.5,1.3-0.6c0.5-0.1,1.1-0.2,1.7-0.2c0.5,0,1.1,0,1.6,0.1c0.5,0.1,1,0.2,1.4,0.4v-1
	c0-0.8-0.2-1.6-0.8-2.2c-0.6-0.6-1.3-0.9-2.1-0.8c-0.5,0-1,0.1-1.5,0.3c-0.6,0.2-1.1,0.5-1.6,0.9L95,56.1c1-0.8,2.3-1.2,3.6-1.3
	c1-0.1,2,0.3,2.8,1c0.7,0.8,1.1,1.8,1,2.8v4.8c0,0.3,0.1,0.5,0.4,0.5v0.9h-0.2h-0.2c-0.2,0-0.4-0.1-0.6-0.3
	c-0.1-0.2-0.2-0.4-0.3-0.6v-0.8c-0.4,0.6-1,1.1-1.7,1.4C99.1,64.9,98.3,65,97.5,65z M97.7,64.3c0.7,0,1.4-0.1,2-0.4
	c0.6-0.2,1-0.6,1.4-1.1c0.2-0.2,0.3-0.5,0.3-0.8v-1.7c-0.5-0.2-0.9-0.3-1.4-0.4c-0.5-0.1-1-0.1-1.5-0.1c-0.4,0-0.9,0-1.3,0.2
	c-0.4,0.1-0.7,0.2-1,0.4c-0.3,0.2-0.5,0.4-0.7,0.7c-0.2,0.3-0.2,0.6-0.2,0.9c0,0.3,0.1,0.6,0.2,0.9c0.1,0.3,0.3,0.5,0.5,0.7
	c0.2,0.2,0.5,0.4,0.8,0.5C97.1,64.2,97.4,64.3,97.7,64.3L97.7,64.3z"></path>
<path class="st7 kwNVYnau_73" d="M109.8,56c-1.7,0-3.2,1.2-3.7,2.8v6.1h-0.9v-9.7h0.9v2.4c0.3-0.7,0.8-1.2,1.3-1.7c0.5-0.4,1.1-0.7,1.8-0.7h0.3
	h0.2L109.8,56z"></path>
<path class="st7 kwNVYnau_74" d="M126,62.8c-1.1,1.4-2.7,2.2-4.5,2.2c-0.9,0-1.7-0.2-2.5-0.6c-0.8-0.4-1.4-0.9-2-1.5c-0.6-0.6-1-1.4-1.3-2.2
	c-0.3-0.8-0.5-1.6-0.5-2.5c0-0.9,0.2-1.7,0.5-2.5c0.3-0.8,0.7-1.5,1.3-2.1c0.5-0.6,1.2-1.1,1.9-1.5c0.8-0.4,1.6-0.6,2.4-0.5
	c0.6,0,1.2,0.1,1.8,0.2c0.5,0.1,1,0.3,1.4,0.6c0.4,0.2,0.8,0.6,1.1,0.9c0.3,0.4,0.6,0.7,0.8,1.2l-0.8,0.5c-0.4-0.8-1-1.5-1.8-1.9
	c-0.8-0.4-1.6-0.6-2.5-0.6c-0.7,0-1.5,0.2-2.1,0.5c-0.6,0.3-1.2,0.8-1.6,1.3c-0.4,0.6-0.8,1.2-1,1.9c-0.2,0.7-0.4,1.4-0.4,2.1
	c0,0.8,0.1,1.5,0.4,2.2c0.3,0.7,0.6,1.3,1.1,1.9c0.5,0.5,1.1,1,1.7,1.3c0.7,0.3,1.4,0.5,2.1,0.5c0.8,0,1.6-0.2,2.3-0.6
	c0.8-0.4,1.5-1.1,2.1-1.8v-2.6h-3v-0.8h3.8v6.5H126L126,62.8z"></path>
<path class="st7 kwNVYnau_75" d="M131.8,65c-0.8,0-1.7-0.3-2.3-0.9c-0.3-0.3-0.5-0.6-0.7-1c-0.2-0.4-0.2-0.8-0.2-1.2c0-0.4,0.1-0.8,0.3-1.2
	c0.2-0.4,0.5-0.7,0.8-0.9c0.4-0.3,0.8-0.5,1.3-0.6c0.5-0.1,1.1-0.2,1.6-0.2c0.5,0,1.1,0,1.6,0.1c0.5,0.1,1,0.2,1.4,0.4v-1
	c0-0.8-0.2-1.6-0.8-2.2c-0.6-0.6-1.3-0.9-2.1-0.8c-0.5,0-1,0.1-1.5,0.3c-0.6,0.2-1.1,0.5-1.6,0.9l-0.4-0.6c1-0.8,2.3-1.2,3.6-1.3
	c1-0.1,2,0.3,2.8,1c0.7,0.8,1.1,1.8,1,2.8v4.8c0,0.3,0.1,0.5,0.4,0.5v0.9h-0.2h-0.2c-0.2,0-0.4-0.1-0.6-0.3
	c-0.1-0.2-0.2-0.4-0.3-0.6v-0.8c-0.4,0.6-1,1.1-1.7,1.4C133.3,64.9,132.6,65,131.8,65z M132,64.3c0.7,0,1.4-0.1,2-0.4
	c0.6-0.2,1-0.6,1.4-1.1c0.2-0.2,0.3-0.5,0.3-0.8v-1.7c-0.5-0.2-0.9-0.3-1.4-0.4c-0.5-0.1-1-0.1-1.6-0.1c-0.4,0-0.9,0-1.3,0.2
	c-0.4,0.1-0.7,0.2-1,0.4c-0.3,0.2-0.5,0.4-0.7,0.7c-0.2,0.3-0.2,0.6-0.2,0.9c0,0.3,0.1,0.6,0.2,0.9c0.1,0.3,0.3,0.5,0.5,0.7
	c0.2,0.2,0.5,0.4,0.8,0.5C131.3,64.3,131.6,64.3,132,64.3z"></path>
<path class="st7 kwNVYnau_76" d="M144.1,56c-1.7,0-3.2,1.2-3.7,2.8v6.1h-0.9v-9.7h0.9v2.4c0.3-0.6,0.8-1.2,1.4-1.7c0.5-0.4,1.1-0.7,1.8-0.7h0.3
	h0.2L144.1,56z"></path>
<path class="st7 kwNVYnau_77" d="M149.3,65c-0.6,0-1.3-0.1-1.9-0.4c-0.6-0.3-1-0.7-1.4-1.1c-0.4-0.5-0.8-1-1-1.6c-0.2-0.6-0.3-1.2-0.4-1.9
	c0-0.7,0.1-1.3,0.3-1.9c0.2-0.6,0.5-1.1,0.9-1.6c0.4-0.5,0.9-0.8,1.4-1.1c0.6-0.3,1.2-0.4,1.9-0.4c0.8,0,1.6,0.2,2.2,0.7
	c0.6,0.4,1.2,1,1.6,1.6v-2.1h0.9v9.9c0,0.6-0.1,1.2-0.4,1.7c-0.2,0.5-0.6,0.9-1,1.3c-0.4,0.3-0.9,0.6-1.5,0.8
	c-0.6,0.2-1.2,0.3-1.8,0.3c-0.5,0-1,0-1.5-0.2c-0.4-0.1-0.8-0.2-1.2-0.5c-0.3-0.2-0.7-0.4-0.9-0.7c-0.3-0.3-0.5-0.6-0.7-0.9l0.6-0.4
	c0.4,0.6,0.9,1.1,1.6,1.5c0.7,0.3,1.4,0.5,2.1,0.5c0.5,0,1-0.1,1.4-0.2c0.4-0.1,0.8-0.3,1.2-0.6c0.3-0.3,0.6-0.6,0.8-1
	c0.2-0.4,0.3-0.9,0.3-1.4v-2.1c-0.4,0.6-0.9,1.2-1.6,1.5C150.7,64.8,150,65,149.3,65z M149.5,64.2c0.4,0,0.8-0.1,1.2-0.2
	c0.4-0.2,0.7-0.4,1.1-0.6c0.3-0.2,0.6-0.5,0.8-0.8c0.2-0.3,0.3-0.6,0.4-0.9v-3.2c-0.2-0.4-0.4-0.7-0.6-1c-0.2-0.3-0.5-0.6-0.9-0.8
	c-0.3-0.2-0.6-0.4-1-0.5c-0.4-0.1-0.7-0.2-1.1-0.2c-0.5,0-1.1,0.1-1.6,0.4c-0.5,0.2-0.9,0.6-1.2,1c-0.3,0.4-0.6,0.9-0.7,1.4
	c-0.2,0.5-0.2,1-0.3,1.5c0,0.5,0.1,1.1,0.3,1.6c0.2,0.5,0.5,0.9,0.8,1.3c0.3,0.4,0.8,0.7,1.2,0.9C148.5,64.1,149,64.2,149.5,64.2
	L149.5,64.2z"></path>
<path class="st7 kwNVYnau_78" d="M170.8,64v0.8h-8.9V51.5h8.7v0.9h-7.7v5.2h6.8v0.8h-6.8V64L170.8,64z"></path>
<path class="st7 kwNVYnau_79" d="M181,64.8H180v-5.4c0.1-0.9-0.1-1.9-0.5-2.8c-0.4-0.6-1-0.9-1.7-0.9c-0.4,0-0.8,0.1-1.2,0.2
	c-0.4,0.2-0.8,0.4-1.1,0.6c-0.4,0.3-0.7,0.6-0.9,1c-0.3,0.4-0.5,0.8-0.6,1.2v6H173v-9.7h0.9v2.3c0.2-0.4,0.4-0.7,0.7-1
	c0.3-0.3,0.6-0.6,1-0.8c0.4-0.2,0.8-0.4,1.2-0.5c0.4-0.1,0.8-0.2,1.3-0.2c0.9-0.1,1.8,0.3,2.3,1.1c0.5,1,0.7,2.1,0.7,3.2L181,64.8z"></path>
<path class="st7 kwNVYnau_80" d="M187.7,65c-0.6,0-1.3-0.1-1.9-0.4c-0.6-0.3-1-0.7-1.4-1.1c-0.4-0.5-0.8-1-1-1.6c-0.2-0.6-0.3-1.2-0.4-1.9
	c0-0.7,0.1-1.3,0.3-1.9c0.2-0.6,0.5-1.1,0.9-1.6c0.4-0.5,0.9-0.8,1.4-1.1c0.6-0.3,1.2-0.4,1.9-0.4c0.8,0,1.6,0.2,2.2,0.7
	c0.6,0.4,1.2,1,1.6,1.6v-2.1h0.9v9.9c0,0.6-0.1,1.2-0.4,1.7c-0.2,0.5-0.6,0.9-1,1.3c-0.4,0.3-0.9,0.6-1.5,0.8
	c-0.6,0.2-1.2,0.3-1.8,0.3c-0.5,0-1,0-1.5-0.2c-0.4-0.1-0.8-0.2-1.2-0.5c-0.3-0.2-0.7-0.4-0.9-0.7c-0.3-0.3-0.5-0.6-0.7-0.9l0.6-0.4
	c0.4,0.6,0.9,1.1,1.6,1.5c0.7,0.3,1.4,0.5,2.1,0.5c0.5,0,1-0.1,1.4-0.2c0.4-0.1,0.8-0.3,1.2-0.6c0.3-0.3,0.6-0.6,0.8-1
	c0.2-0.4,0.3-0.9,0.3-1.4v-2.1c-0.4,0.6-0.9,1.2-1.6,1.5C189.1,64.8,188.4,65,187.7,65z M187.9,64.2c0.4,0,0.8-0.1,1.2-0.2
	c0.4-0.2,0.7-0.4,1.1-0.6c0.3-0.2,0.6-0.5,0.8-0.8c0.2-0.3,0.3-0.6,0.4-0.9v-3.2c-0.2-0.4-0.4-0.7-0.6-1c-0.2-0.3-0.5-0.6-0.9-0.8
	c-0.3-0.2-0.6-0.4-1-0.5c-0.4-0.1-0.7-0.2-1.1-0.2c-0.5,0-1.1,0.1-1.6,0.4c-0.5,0.2-0.9,0.6-1.2,1c-0.3,0.4-0.6,0.9-0.7,1.4
	c-0.2,0.5-0.2,1-0.3,1.5c0,0.5,0.1,1.1,0.3,1.6c0.2,0.5,0.5,0.9,0.8,1.3c0.3,0.4,0.8,0.7,1.2,0.9C186.9,64.1,187.4,64.2,187.9,64.2
	L187.9,64.2z"></path>
<path class="st7 kwNVYnau_81" d="M195.3,52.9v-1.7h0.9v1.7H195.3z M195.3,64.9v-9.7h0.9v9.7L195.3,64.9z"></path>
<path class="st7 kwNVYnau_82" d="M207.1,64.8h-0.9v-5.4c0.1-0.9-0.1-1.9-0.5-2.8c-0.4-0.6-1-0.9-1.7-0.9c-0.4,0-0.8,0.1-1.2,0.2
	c-0.4,0.2-0.8,0.4-1.1,0.6c-0.4,0.3-0.7,0.6-0.9,1c-0.3,0.4-0.5,0.8-0.6,1.2v6h-0.9v-9.7h0.9v2.3c0.2-0.4,0.4-0.7,0.7-1
	c0.3-0.3,0.6-0.6,1-0.8c0.4-0.2,0.8-0.4,1.2-0.5c0.4-0.1,0.8-0.2,1.3-0.2c0.9-0.1,1.8,0.3,2.3,1.1c0.5,1,0.7,2.1,0.7,3.2V64.8z"></path>
<path class="st7 kwNVYnau_83" d="M214.1,65c-0.7,0-1.3-0.1-1.9-0.4c-0.6-0.3-1.1-0.6-1.5-1.1c-0.9-1-1.4-2.3-1.4-3.6c0-1.3,0.5-2.6,1.4-3.5
	c0.4-0.5,0.9-0.8,1.5-1.1c1.2-0.5,2.6-0.5,3.8,0c0.6,0.3,1.1,0.6,1.5,1.1c0.4,0.5,0.8,1,1,1.6c0.2,0.6,0.4,1.3,0.4,1.9v0.2
	c0,0.1,0,0.1,0,0.2h-8.5c0,0.5,0.2,1.1,0.4,1.6c0.2,0.5,0.5,0.9,0.9,1.3c0.3,0.3,0.7,0.6,1.2,0.8c0.5,0.2,0.9,0.3,1.4,0.3
	c0.3,0,0.7,0,1-0.1c0.3-0.1,0.6-0.2,0.9-0.4c0.3-0.2,0.5-0.4,0.8-0.6c0.2-0.2,0.4-0.5,0.5-0.8l0.8,0.2c-0.1,0.4-0.3,0.7-0.6,1
	c-0.3,0.3-0.6,0.6-0.9,0.8c-0.4,0.2-0.8,0.4-1.2,0.5C215,65,214.5,65.1,214.1,65z M217.9,59.6c0-0.5-0.2-1.1-0.4-1.6
	c-0.2-0.4-0.5-0.9-0.8-1.2c-0.3-0.3-0.7-0.6-1.2-0.8c-0.9-0.4-2-0.4-2.9,0c-0.4,0.2-0.8,0.5-1.2,0.8c-0.4,0.4-0.6,0.8-0.8,1.2
	c-0.2,0.5-0.3,1-0.4,1.6L217.9,59.6z"></path>
<path class="st7 kwNVYnau_84" d="M225,65c-0.7,0-1.3-0.1-1.9-0.4c-0.6-0.3-1.1-0.6-1.5-1.1c-0.9-1-1.4-2.3-1.4-3.6c0-1.3,0.5-2.6,1.4-3.5
	c0.4-0.5,0.9-0.8,1.5-1.1c1.2-0.5,2.6-0.5,3.8,0c0.6,0.3,1.1,0.6,1.5,1.1c0.4,0.5,0.8,1,1,1.6c0.2,0.6,0.4,1.3,0.4,1.9v0.2
	c0,0.1,0,0.1,0,0.2h-8.5c0,0.5,0.2,1.1,0.4,1.6c0.2,0.5,0.5,0.9,0.9,1.3c0.3,0.3,0.7,0.6,1.2,0.8c0.8,0.3,1.6,0.4,2.4,0.2
	c0.3-0.1,0.6-0.2,0.9-0.4c0.3-0.2,0.5-0.4,0.8-0.6c0.2-0.2,0.4-0.5,0.5-0.8l0.8,0.2c-0.1,0.4-0.3,0.7-0.6,1
	c-0.3,0.3-0.6,0.6-0.9,0.8c-0.4,0.2-0.8,0.4-1.2,0.5C225.9,65,225.5,65.1,225,65z M228.8,59.6c0-0.5-0.2-1.1-0.4-1.6
	c-0.2-0.5-0.5-0.9-0.8-1.2c-0.3-0.3-0.7-0.6-1.2-0.8c-0.9-0.4-2-0.4-2.9,0c-0.4,0.2-0.8,0.5-1.2,0.8c-0.4,0.4-0.6,0.8-0.8,1.2
	c-0.2,0.5-0.3,1-0.4,1.6L228.8,59.6z"></path>
<path class="st7 kwNVYnau_85" d="M236.4,56c-1.7,0-3.2,1.2-3.7,2.8v6.1h-0.9v-9.7h0.9v2.4c0.3-0.7,0.8-1.2,1.3-1.7c0.5-0.4,1.1-0.7,1.8-0.7h0.3
	h0.2V56z"></path>
<path class="st7 kwNVYnau_86" d="M238.2,52.9v-1.7h0.9v1.7H238.2z M238.2,64.9v-9.7h0.9v9.7L238.2,64.9z"></path>
<path class="st7 kwNVYnau_87" d="M250,64.8h-0.9v-5.4c0.1-0.9-0.1-1.9-0.5-2.8c-0.4-0.6-1-0.9-1.7-0.9c-0.4,0-0.8,0.1-1.2,0.2
	c-0.4,0.2-0.8,0.4-1.1,0.6c-0.4,0.3-0.7,0.6-0.9,1c-0.3,0.4-0.5,0.8-0.6,1.2v6H242v-9.7h0.9v2.3c0.2-0.4,0.4-0.7,0.7-1
	c0.3-0.3,0.6-0.6,1-0.8c0.4-0.2,0.8-0.4,1.2-0.5c0.4-0.1,0.8-0.2,1.3-0.2c0.9-0.1,1.8,0.3,2.3,1.1c0.5,1,0.7,2.1,0.7,3.2L250,64.8z"></path>
<path class="st7 kwNVYnau_88" d="M256.8,65c-0.6,0-1.3-0.1-1.9-0.4c-0.6-0.3-1-0.7-1.5-1.1c-0.4-0.5-0.8-1-1-1.6c-0.2-0.6-0.3-1.2-0.4-1.9
	c0-0.7,0.1-1.3,0.3-1.9c0.2-0.6,0.5-1.1,0.9-1.6c0.4-0.5,0.9-0.8,1.4-1.1c0.6-0.3,1.2-0.4,1.9-0.4c0.8,0,1.6,0.2,2.2,0.7
	c0.6,0.4,1.2,1,1.6,1.6v-2.1h0.9v9.9c0,0.6-0.1,1.2-0.4,1.7c-0.2,0.5-0.6,0.9-1,1.3c-0.4,0.3-0.9,0.6-1.5,0.8
	c-0.6,0.2-1.2,0.3-1.8,0.3c-0.5,0-1,0-1.5-0.2c-0.4-0.1-0.8-0.2-1.2-0.5c-0.3-0.2-0.7-0.4-0.9-0.7c-0.3-0.3-0.5-0.6-0.7-0.9l0.6-0.4
	c0.4,0.7,1,1.2,1.7,1.5c0.7,0.3,1.4,0.5,2.1,0.5c0.5,0,1-0.1,1.4-0.2c0.4-0.1,0.8-0.3,1.2-0.6c0.3-0.3,0.6-0.6,0.8-1
	c0.2-0.4,0.3-0.9,0.3-1.4v-2.1c-0.4,0.6-0.9,1.2-1.6,1.5C258.3,64.8,257.5,65,256.8,65z M257,64.2c0.4,0,0.8-0.1,1.2-0.2
	c0.4-0.2,0.7-0.4,1.1-0.6c0.3-0.2,0.6-0.5,0.8-0.8c0.2-0.3,0.3-0.6,0.4-0.9v-3.2c-0.2-0.4-0.4-0.7-0.6-1c-0.2-0.3-0.5-0.6-0.9-0.8
	c-0.3-0.2-0.6-0.4-1-0.5c-0.4-0.1-0.7-0.2-1.1-0.2c-0.5,0-1.1,0.1-1.6,0.4c-0.5,0.2-0.9,0.6-1.2,1c-0.3,0.4-0.6,0.9-0.7,1.4
	c-0.2,0.5-0.2,1-0.3,1.5c0,0.5,0.1,1.1,0.3,1.6c0.2,0.5,0.5,0.9,0.8,1.3c0.3,0.4,0.8,0.7,1.2,0.9C256,64.1,256.5,64.2,257,64.2
	L257,64.2z"></path>
<path class="st7 kwNVYnau_89" d="M268.5,58.1c0-0.8,0.1-1.6,0.4-2.4c0.3-0.8,0.7-1.5,1.2-2.1c0.6-0.6,1.2-1.2,2-1.5c0.8-0.4,1.7-0.6,2.7-0.6
	c1.1,0,2.1,0.3,3,0.8c0.8,0.5,1.5,1.2,1.9,2.1l-0.8,0.5c-0.2-0.4-0.5-0.8-0.8-1.2c-0.3-0.3-0.6-0.6-1-0.8c-0.4-0.2-0.7-0.3-1.1-0.4
	c-0.4-0.1-0.8-0.1-1.2-0.1c-0.8,0-1.6,0.2-2.3,0.5c-0.6,0.3-1.2,0.8-1.6,1.3c-0.4,0.6-0.8,1.2-1,1.9c-0.2,0.7-0.3,1.4-0.4,2.1
	c0,0.8,0.1,1.5,0.4,2.3c0.3,0.7,0.6,1.3,1.1,1.9c0.5,0.5,1,1,1.7,1.3c0.7,0.3,1.4,0.5,2.1,0.5c0.4,0,0.8-0.1,1.2-0.1
	c0.4-0.1,0.8-0.3,1.2-0.5c0.4-0.2,0.8-0.5,1.1-0.8c0.3-0.3,0.6-0.7,0.8-1.2l0.8,0.4c-0.2,0.5-0.5,0.9-0.9,1.3
	c-0.4,0.4-0.8,0.7-1.3,1c-0.5,0.3-1,0.5-1.5,0.6c-0.5,0.1-1,0.2-1.6,0.2c-0.9,0-1.7-0.2-2.5-0.6c-0.8-0.4-1.4-0.9-2-1.6
	c-0.6-0.6-1-1.4-1.3-2.2C268.6,59.8,268.5,59,268.5,58.1z"></path>
<path class="st7 kwNVYnau_90" d="M286.1,65c-0.7,0-1.3-0.1-1.9-0.4c-0.6-0.3-1.1-0.6-1.5-1.1c-0.4-0.5-0.8-1-1-1.6c-0.2-0.6-0.4-1.3-0.4-1.9
	c0-1.3,0.5-2.6,1.4-3.6c0.4-0.5,0.9-0.8,1.5-1.1c0.6-0.3,1.2-0.4,1.9-0.4c0.6,0,1.3,0.1,1.9,0.4c0.6,0.3,1.1,0.6,1.5,1.1
	c0.4,0.5,0.8,1,1,1.6c0.7,1.9,0.4,4-1,5.5c-0.4,0.5-0.9,0.8-1.5,1.1C287.4,64.9,286.8,65.1,286.1,65z M282.3,60
	c0,0.6,0.1,1.1,0.3,1.6c0.2,0.5,0.5,0.9,0.8,1.3c0.3,0.4,0.8,0.7,1.2,0.9c0.9,0.5,2.1,0.5,3,0c0.5-0.2,0.9-0.5,1.2-0.9
	c1.1-1.3,1.4-3,0.8-4.6c-0.2-0.5-0.5-0.9-0.8-1.3c-0.3-0.4-0.8-0.7-1.2-0.9c-0.5-0.2-1-0.3-1.5-0.3c-0.5,0-1,0.1-1.5,0.3
	c-0.5,0.2-0.9,0.5-1.2,0.9c-0.4,0.4-0.6,0.9-0.8,1.4C282.4,58.9,282.3,59.5,282.3,60z"></path>
<path class="st7 kwNVYnau_91" d="M293.2,51.2h1v11.8c0,0.3,0.1,0.6,0.3,0.9c0.2,0.2,0.5,0.3,0.9,0.3c0.2,0,0.3,0,0.5,0c0.2,0,0.4-0.1,0.5-0.1
	l0.2,0.8c-0.3,0.1-0.5,0.2-0.8,0.2c-0.3,0.1-0.5,0.1-0.8,0.1c-0.5,0-0.9-0.2-1.3-0.5c-0.3-0.3-0.5-0.8-0.5-1.3L293.2,51.2z"></path>
<path class="st7 kwNVYnau_92" d="M298.1,51.2h1v11.8c0,0.3,0.1,0.6,0.3,0.9c0.2,0.2,0.5,0.3,0.9,0.3c0.2,0,0.3,0,0.5,0c0.2,0,0.4-0.1,0.5-0.1
	l0.2,0.8c-0.3,0.1-0.5,0.2-0.8,0.2c-0.3,0.1-0.5,0.1-0.8,0.1c-0.5,0-0.9-0.2-1.3-0.5c-0.3-0.3-0.5-0.8-0.5-1.3L298.1,51.2z"></path>
<path class="st7 kwNVYnau_93" d="M307,65c-0.7,0-1.3-0.1-1.9-0.4c-0.6-0.3-1.1-0.6-1.5-1.1c-0.4-0.5-0.8-1-1-1.6c-0.3-0.6-0.4-1.3-0.4-2
	c0-0.7,0.1-1.3,0.4-1.9c0.2-0.6,0.6-1.1,1-1.6c0.4-0.5,0.9-0.8,1.5-1.1c1.2-0.5,2.6-0.5,3.8,0c0.6,0.3,1.1,0.6,1.5,1.1
	c0.4,0.5,0.8,1,1,1.6c0.2,0.6,0.4,1.3,0.4,1.9v0.2c0,0.1,0,0.1,0,0.2h-8.5c0,0.5,0.2,1.1,0.4,1.6c0.2,0.5,0.5,0.9,0.9,1.3
	c0.3,0.3,0.7,0.6,1.2,0.8c0.5,0.2,0.9,0.3,1.4,0.3c0.3,0,0.7,0,1-0.1c0.3-0.1,0.6-0.2,0.9-0.4c0.3-0.2,0.5-0.4,0.8-0.6
	c0.2-0.2,0.4-0.5,0.5-0.8l0.8,0.2c-0.1,0.4-0.3,0.7-0.6,1c-0.3,0.3-0.6,0.6-0.9,0.8c-0.4,0.2-0.8,0.4-1.2,0.5
	C307.9,65,307.4,65.1,307,65z M310.8,59.6c0-0.5-0.2-1.1-0.4-1.6c-0.2-0.5-0.5-0.9-0.8-1.2c-0.3-0.3-0.7-0.6-1.2-0.8
	c-0.9-0.4-2-0.4-2.9,0c-0.4,0.2-0.8,0.5-1.2,0.8c-0.4,0.4-0.6,0.8-0.8,1.2c-0.2,0.5-0.3,1-0.4,1.6L310.8,59.6z"></path>
<path class="st7 kwNVYnau_94" d="M317.7,65c-0.6,0-1.3-0.1-1.9-0.4c-0.6-0.3-1-0.7-1.5-1.1c-0.4-0.5-0.8-1-1-1.6c-0.2-0.6-0.3-1.2-0.4-1.9
	c0-0.7,0.1-1.3,0.3-1.9c0.2-0.6,0.5-1.1,0.9-1.6c0.4-0.5,0.9-0.8,1.4-1.1c0.6-0.3,1.2-0.4,1.9-0.4c0.8,0,1.6,0.2,2.2,0.7
	c0.6,0.4,1.2,1,1.6,1.6v-2.1h0.9v9.9c0,0.6-0.1,1.2-0.4,1.7c-0.2,0.5-0.6,0.9-1,1.3c-0.4,0.3-0.9,0.6-1.5,0.8
	c-0.6,0.2-1.2,0.3-1.8,0.3c-0.5,0-1,0-1.5-0.2c-0.4-0.1-0.8-0.2-1.2-0.5c-0.3-0.2-0.7-0.4-0.9-0.7c-0.3-0.3-0.5-0.6-0.7-0.9l0.6-0.4
	c0.4,0.6,0.9,1.2,1.6,1.5c0.7,0.3,1.4,0.5,2.1,0.5c0.5,0,1-0.1,1.4-0.2c0.4-0.1,0.8-0.3,1.2-0.6c0.3-0.3,0.6-0.6,0.8-1
	c0.2-0.4,0.3-0.9,0.3-1.4v-2.1c-0.4,0.6-0.9,1.2-1.6,1.5C319.2,64.8,318.4,65,317.7,65z M317.9,64.2c0.4,0,0.8-0.1,1.2-0.2
	c0.4-0.2,0.7-0.4,1.1-0.6c0.3-0.2,0.6-0.5,0.8-0.8c0.2-0.3,0.3-0.6,0.4-0.9v-3.2c-0.2-0.4-0.4-0.7-0.6-1c-0.2-0.3-0.5-0.6-0.9-0.8
	c-0.3-0.2-0.6-0.4-1-0.5c-0.4-0.1-0.7-0.2-1.1-0.2c-0.5,0-1.1,0.1-1.6,0.4c-0.5,0.2-0.9,0.6-1.2,1c-0.3,0.4-0.6,0.9-0.7,1.4
	c-0.2,0.5-0.2,1-0.3,1.5c0,0.5,0.1,1.1,0.3,1.6c0.2,0.5,0.5,0.9,0.8,1.3c0.3,0.4,0.8,0.7,1.2,0.9C316.9,64.1,317.4,64.2,317.9,64.2
	L317.9,64.2z"></path>
<path class="st7 kwNVYnau_95" d="M329.4,65c-0.7,0-1.3-0.1-1.9-0.4c-0.6-0.3-1.1-0.6-1.5-1.1c-0.4-0.5-0.8-1-1-1.6c-0.3-0.6-0.4-1.3-0.4-2
	c0-0.7,0.1-1.3,0.4-1.9c0.2-0.6,0.6-1.1,1-1.6c0.4-0.5,0.9-0.8,1.5-1.1c1.2-0.5,2.6-0.5,3.8,0c0.6,0.3,1.1,0.7,1.5,1.1
	c0.4,0.5,0.8,1,1,1.6c0.2,0.6,0.4,1.3,0.4,1.9v0.2c0,0.1,0,0.1,0,0.2h-8.5c0,0.5,0.2,1.1,0.4,1.6c0.2,0.5,0.5,0.9,0.9,1.3
	c0.3,0.3,0.7,0.6,1.2,0.8c0.5,0.2,0.9,0.3,1.4,0.3c0.3,0,0.7,0,1-0.1c0.3-0.1,0.6-0.2,0.9-0.4c0.3-0.2,0.5-0.4,0.8-0.6
	c0.2-0.2,0.4-0.5,0.5-0.8l0.8,0.2c-0.1,0.4-0.3,0.7-0.6,1c-0.3,0.3-0.6,0.6-0.9,0.8c-0.4,0.2-0.8,0.4-1.2,0.5
	C330.3,65,329.8,65.1,329.4,65z M333.2,59.6c0-0.5-0.2-1.1-0.4-1.6c-0.2-0.5-0.5-0.9-0.8-1.2c-0.3-0.3-0.7-0.6-1.2-0.8
	c-0.9-0.4-2-0.4-2.9,0c-0.4,0.2-0.9,0.5-1.2,0.8c-0.4,0.4-0.6,0.8-0.8,1.2c-0.2,0.5-0.3,1-0.4,1.6L333.2,59.6z"></path>
<g class="st5">
	<path class="st6 kwNVYnau_96" d="M162.9,226.6c0,0.6-0.4,1-1,1c-0.6,0-1-0.4-1-1c0-0.6,0.4-1,1-1C162.5,225.6,162.9,226,162.9,226.6z
		 M161.1,238.1v-9h1.6v9H161.1z"></path>
	<path class="st6 kwNVYnau_97" d="M165.4,231.6c0-0.9,0-1.7-0.1-2.4h1.5l0.1,1.5h0c0.4-0.9,1.5-1.7,3-1.7c1.2,0,3.2,0.7,3.2,3.8v5.4h-1.6v-5.2
		c0-1.5-0.5-2.7-2.1-2.7c-1.1,0-1.9,0.8-2.2,1.7c-0.1,0.2-0.1,0.5-0.1,0.8v5.4h-1.6V231.6z"></path>
	<path class="st6 kwNVYnau_98" d="M184.7,238.1l-0.1-1.1h-0.1c-0.5,0.7-1.5,1.3-2.8,1.3c-1.8,0-2.8-1.3-2.8-2.6c0-2.2,1.9-3.4,5.4-3.4v-0.2
		c0-0.7-0.2-2.1-2-2.1c-0.8,0-1.7,0.3-2.3,0.7l-0.4-1.1c0.7-0.5,1.8-0.8,3-0.8c2.8,0,3.4,1.9,3.4,3.7v3.4c0,0.8,0,1.5,0.1,2.2H184.7
		z M184.5,233.5c-1.8,0-3.8,0.3-3.8,2c0,1.1,0.7,1.6,1.5,1.6c1.2,0,1.9-0.7,2.2-1.5c0.1-0.2,0.1-0.4,0.1-0.5V233.5z"></path>
	<path class="st6 kwNVYnau_99" d="M188.5,236.5c0.5,0.3,1.3,0.7,2.2,0.7c1.2,0,1.8-0.6,1.8-1.3c0-0.8-0.5-1.2-1.7-1.7c-1.6-0.6-2.4-1.5-2.4-2.6
		c0-1.5,1.2-2.6,3.1-2.6c0.9,0,1.7,0.3,2.2,0.6l-0.4,1.2c-0.4-0.2-1-0.5-1.8-0.5c-1,0-1.5,0.6-1.5,1.2c0,0.7,0.5,1.1,1.7,1.5
		c1.6,0.6,2.4,1.4,2.4,2.7c0,1.6-1.2,2.7-3.4,2.7c-1,0-1.9-0.2-2.5-0.6L188.5,236.5z"></path>
	<path class="st6 kwNVYnau_100" d="M195.9,236.5c0.5,0.3,1.3,0.7,2.2,0.7c1.2,0,1.8-0.6,1.8-1.3c0-0.8-0.5-1.2-1.7-1.7c-1.6-0.6-2.4-1.5-2.4-2.6
		c0-1.5,1.2-2.6,3.1-2.6c0.9,0,1.7,0.3,2.2,0.6l-0.4,1.2c-0.4-0.2-1-0.5-1.8-0.5c-1,0-1.5,0.6-1.5,1.2c0,0.7,0.5,1.1,1.7,1.5
		c1.6,0.6,2.4,1.4,2.4,2.7c0,1.6-1.2,2.7-3.4,2.7c-1,0-1.9-0.2-2.5-0.6L195.9,236.5z"></path>
	<path class="st6 kwNVYnau_101" d="M211.6,233.6c0,3.3-2.3,4.8-4.5,4.8c-2.4,0-4.3-1.8-4.3-4.6c0-3,2-4.8,4.5-4.8
		C209.9,228.9,211.6,230.8,211.6,233.6z M204.5,233.6c0,2,1.1,3.5,2.7,3.5c1.6,0,2.7-1.5,2.7-3.5c0-1.5-0.8-3.5-2.7-3.5
		S204.5,231.9,204.5,233.6z"></path>
	<path class="st6 kwNVYnau_102" d="M220.1,237.8c-0.4,0.2-1.4,0.5-2.6,0.5c-2.7,0-4.5-1.8-4.5-4.6c0-2.8,1.9-4.8,4.8-4.8c1,0,1.8,0.2,2.3,0.5
		l-0.4,1.3c-0.4-0.2-1-0.4-1.9-0.4c-2.1,0-3.2,1.5-3.2,3.4c0,2.1,1.3,3.4,3.1,3.4c0.9,0,1.5-0.2,2-0.4L220.1,237.8z"></path>
	<path class="st6 kwNVYnau_103" d="M223.9,226.6c0,0.6-0.4,1-1,1c-0.6,0-1-0.4-1-1c0-0.6,0.4-1,1-1C223.5,225.6,223.9,226,223.9,226.6z
		 M222,238.1v-9h1.6v9H222z"></path>
</g>
<g class="st5">
	<path class="st6 kwNVYnau_104" d="M231.4,238.1l-0.1-1.1h-0.1c-0.5,0.7-1.5,1.3-2.8,1.3c-1.8,0-2.8-1.3-2.8-2.6c0-2.2,1.9-3.4,5.4-3.4v-0.2
		c0-0.7-0.2-2.1-2-2.1c-0.8,0-1.7,0.3-2.3,0.7l-0.4-1.1c0.7-0.5,1.8-0.8,3-0.8c2.8,0,3.4,1.9,3.4,3.7v3.4c0,0.8,0,1.5,0.1,2.2H231.4
		z M231.1,233.5c-1.8,0-3.8,0.3-3.8,2c0,1.1,0.7,1.6,1.5,1.6c1.2,0,1.9-0.7,2.2-1.5c0.1-0.2,0.1-0.4,0.1-0.5V233.5z"></path>
</g>
<g class="st5">
	<path class="st6 kwNVYnau_105" d="M237.3,226.5v2.6h2.3v1.2h-2.3v4.9c0,1.1,0.3,1.8,1.2,1.8c0.4,0,0.7-0.1,1-0.1l0.1,1.2
		c-0.3,0.1-0.8,0.2-1.5,0.2c-0.8,0-1.4-0.2-1.8-0.7c-0.5-0.5-0.6-1.3-0.6-2.3v-4.9h-1.4v-1.2h1.4V227L237.3,226.5z"></path>
	<path class="st6 kwNVYnau_106" d="M243.3,226.6c0,0.6-0.4,1-1,1c-0.6,0-1-0.4-1-1c0-0.6,0.4-1,1-1C242.9,225.6,243.3,226,243.3,226.6z
		 M241.4,238.1v-9h1.6v9H241.4z"></path>
	<path class="st6 kwNVYnau_107" d="M254,233.6c0,3.3-2.3,4.8-4.5,4.8c-2.4,0-4.3-1.8-4.3-4.6c0-3,2-4.8,4.5-4.8C252.2,228.9,254,230.8,254,233.6z
		 M246.8,233.6c0,2,1.1,3.5,2.7,3.5c1.6,0,2.7-1.5,2.7-3.5c0-1.5-0.8-3.5-2.7-3.5S246.8,231.9,246.8,233.6z"></path>
	<path class="st6 kwNVYnau_108" d="M256,231.6c0-0.9,0-1.7-0.1-2.4h1.5l0.1,1.5h0c0.4-0.9,1.5-1.7,3-1.7c1.2,0,3.2,0.7,3.2,3.8v5.4h-1.6v-5.2
		c0-1.5-0.5-2.7-2.1-2.7c-1.1,0-1.9,0.8-2.2,1.7c-0.1,0.2-0.1,0.5-0.1,0.8v5.4H256V231.6z"></path>
	<path class="st6 kwNVYnau_109" d="M271,229.1l1.2,4.6c0.3,1,0.5,1.9,0.7,2.9h0.1c0.2-0.9,0.5-1.9,0.8-2.9l1.5-4.6h1.4l1.4,4.5
		c0.3,1.1,0.6,2,0.8,2.9h0.1c0.1-0.9,0.4-1.9,0.7-2.9l1.3-4.5h1.6l-2.9,9H278l-1.4-4.3c-0.3-1-0.6-1.9-0.8-3h0c-0.2,1.1-0.5,2-0.8,3
		l-1.5,4.3H272l-2.7-9H271z"></path>
	<path class="st6 kwNVYnau_110" d="M285.9,226.6c0,0.6-0.4,1-1,1c-0.6,0-1-0.4-1-1c0-0.6,0.4-1,1-1C285.5,225.6,285.9,226,285.9,226.6z
		 M284,238.1v-9h1.6v9H284z"></path>
	<path class="st6 kwNVYnau_111" d="M290.4,226.5v2.6h2.3v1.2h-2.3v4.9c0,1.1,0.3,1.8,1.2,1.8c0.4,0,0.7-0.1,1-0.1l0.1,1.2
		c-0.3,0.1-0.8,0.2-1.5,0.2c-0.8,0-1.4-0.2-1.8-0.7c-0.5-0.5-0.6-1.3-0.6-2.3v-4.9h-1.4v-1.2h1.4V227L290.4,226.5z"></path>
	<path class="st6 kwNVYnau_112" d="M294.6,224.9h1.6v5.6h0c0.3-0.5,0.7-0.9,1.2-1.2c0.5-0.3,1.1-0.5,1.7-0.5c1.2,0,3.1,0.7,3.1,3.9v5.4h-1.6V233
		c0-1.5-0.5-2.7-2.1-2.7c-1.1,0-1.9,0.7-2.2,1.6c-0.1,0.2-0.1,0.5-0.1,0.8v5.4h-1.6V224.9z"></path>
</g>
<path class="st0 kwNVYnau_113" d="M350.9,231.2c1.1,9.9-9.3,20-19,19.5c-10.4-0.5-18.9-8-19-19.1c-0.2-10.5,9.1-19,18.4-19.4
	C341.4,211.7,351.9,221.3,350.9,231.2z"></path>
<path class="st0 kwNVYnau_114" d="M333.1,258.1c-5.2,0-10.3,0-15.5,0c-3.1,0-3.1-0.1-3.2-3.2c0-1.4,0-2.8,0-4.2c0-1.3,0.5-1.9,1.8-1.2
	c6.8,3.7,14.2,3.6,21.6,3.3c3.9-0.3,7.8-1.4,11.4-3.1c2.3-1,2.7-0.8,2.6,1.8c0,7.5,1,6.5-6.3,6.5c-2.1,0-4.2,0-6.3,0L333.1,258.1z"></path>
<path class="st0 kwNVYnau_115" d="M345.1,266.8c0,1.6-0.2,3.2-0.1,4.8c0,1.3-0.7,1.5-1.7,1.6s-2.1-0.3-2-1.5c0.2-2.3-0.9-4.7,1-6.8
	c0.6-0.7-0.2-2,0.6-2.7c1.8-0.7,3.8-0.7,5.5,0l0,0c0.6,1.3,0.2,3.1,1.6,4.1c0.5,1.9,0.1,3.9,0.3,5.8c0,0.5-0.2,0.8-0.7,0.8
	s-0.5-0.4-0.5-0.8c-0.1-1.2-0.1-2.4,0-3.6c0.2-1.6-0.5-2.1-2-1.9C346.4,266.7,345.7,266.2,345.1,266.8z"></path>
<path class="st0 kwNVYnau_116" d="M315.1,272.6c-1-3.4-0.8-6.7-0.3-10.1c0.6-0.7,1.4-1.1,2.4-1c1.9,0,3.7-0.3,5.5,0.2c0.3,0.5,0.9,0.6,0.9,1.3
	c0,0.3,0,0.7-0.5,0.8c-0.3,0.1-0.7-0.1-0.8-0.4c0-0.1,0-0.2,0-0.3c-1.6-0.6-3.4-0.6-5-0.1c-0.4,1.1-0.1,2.3,0.7,3.1
	c0.9,1,0.3,2.3,0.4,3.4c0.1,0.8,0.1,1.5,0.1,2.3c0.4,0.4,1.5,0,1.4,0.9s-1,0.6-1.5,0.5C317.4,272.9,316.2,273.2,315.1,272.6z"></path>
<path class="st0 kwNVYnau_117" d="M337.4,261.7c0.9,0.5,1.4,1.5,1.3,2.6c-0.1,2.3,0,4.6,0,6.9c0,1-0.2,1.9-1.4,1.9s-1-1-1.1-1.8c-0.1-2-0.1-4,0-6
	c0.1-1.9-0.6-2.6-2.4-2.2c-0.7,0.1-0.9,1.2-1.8,0.8l0,0c-0.5-1.2,0.1-1.8,1.2-2.1C334.6,261.4,336,261.4,337.4,261.7z"></path>
<path class="st0 kwNVYnau_118" d="M328.7,263.1c-0.5,1.3,0.3,2.2,0.8,3.2c0,1.7,0,3.3,0,5c0,1.2-0.6,1.8-1.8,1.7c-0.9,0.1-1.7-0.6-1.8-1.5
	c0-0.1,0-0.2,0-0.3c0-2.4,0.1-4.7,0-7.1c0-1.4,0.4-2.1,1.9-2.2c1.2-0.1,2.5-0.9,3.5,0.5C330.5,263.2,329.4,262.3,328.7,263.1z"></path>
<path class="st0 kwNVYnau_119" d="M328.7,263.1c0.5-1,1.5-0.2,2.2-0.8c-2.8-1.3-4.7-0.2-4.7,2.5c0,2,0,4,0,6c0,1.2,0.4,1.8,1.7,1.8s1.3-1,1.3-1.8
	c-0.1-1.5,0-3.1,0.5-4.5c0.6,1.8,0.3,3.7,0.2,5.6c0,1.2-1,1.5-2.1,1.5s-1.9-0.5-1.9-1.8v-8.4c-0.1-0.7,0.4-1.4,1.2-1.5
	c0.1,0,0.1,0,0.2,0c3.4-0.4,6.9-0.3,10.3,0.1c-1,0-2,0-2.9,0c-1.3,0.1-2.4,0.5-2.4,2.1C331.1,262.7,329.9,262.8,328.7,263.1z"></path>
<path class="st0 kwNVYnau_120" d="M315.1,272.6c1.5-0.3,2.9,0.3,4.5,0.3c0.2-0.9-0.9-0.6-1-1.1c4.6,0.2,3.7,0.5,3.8-3.8c0-0.4,0-0.8-0.1-1.3
	c-0.1-0.4-0.7-0.9,0-1.2c0.5-0.1,1.1,0.2,1.2,0.7c0,0,0,0.1,0,0.2c0.3,1.9,0.3,3.9,0,5.8c-0.1,0.4-0.4,0.7-0.8,0.9
	C320.3,273.3,317.6,274,315.1,272.6z"></path>
<path class="st0 kwNVYnau_121" d="M332,263.8c0.6-0.3,1-1,1.8-0.8c-1,1.3-0.5,2.8-0.5,4.2c-0.1,1.6,0,3.2,0,4.8c0,0.5,0,1.1-0.6,1.2
	c-0.8,0-0.7-0.7-0.7-1.2C331.9,269.3,332,266.6,332,263.8z"></path>
<path class="st0 kwNVYnau_122" d="M345.1,266.8c3-1.5,4.2-0.8,4.2,2.4c-0.2,1.1,0,2.2,0.4,3.2c0.3-2.1,0.7-4.3-0.1-6.4c-0.1-0.1-0.2-0.2-0.1-0.3
	c0-0.1,0.1-0.1,0.1-0.1c0.7,0.9,1.2,6.3,0.6,7.2c-0.2,0.2-0.4,0.3-0.7,0.4c-0.4,0-0.7-0.3-0.8-0.7v-0.1c0-1,0-1.9,0-2.9
	c0.1-2.7,0.1-2.7-2.6-2.6C345.9,266.7,345.5,266.8,345.1,266.8z"></path>
<path class="st0 kwNVYnau_123" d="M322.7,261.7c-2.6,0.2-5.3-0.5-7.9,0.8c0-0.5,0.5-1,1-1l0,0C318.2,261.4,320.5,261,322.7,261.7z"></path>
<path class="st0 kwNVYnau_124" d="M348.4,262.1c-1.8-0.3-3.7-0.3-5.5,0C344.6,260.9,346.8,260.9,348.4,262.1z"></path>
<path class="st0 kwNVYnau_125" d="M349.7,265.5v0.4c-1.3-1-1.3-2.4-1.2-3.9C349.8,262.8,348.8,264.5,349.7,265.5z"></path>
<path class="st0 kwNVYnau_126" d="M317.4,263c1.6-0.9,3.5-0.8,5,0.1C320.7,262.9,319,262.8,317.4,263z"></path>
<path class="st4 kwNVYnau_127" d="M315.7,231.7c0-8.8,7.9-16.7,16.4-16.5c9.1,0.1,16.7,7.6,16.4,16.7c-0.4,10.5-7.3,16.3-16.4,16.5
	C324,248.4,316.1,242.5,315.7,231.7z"></path>
<path class="st4 kwNVYnau_128" d="M347.5,265.1c-2.4,0.7-2.7,0.4-2.4-2C347.5,262.5,347.9,262.8,347.5,265.1z"></path>
<path class="st0 kwNVYnau_129" d="M347.5,265.1c0.3-2.1-0.8-2.4-2.4-2c0.6-0.7,1.6-0.8,2.3-0.3c0,0,0,0,0,0c0,0,0.1,0.1,0.2,0.1
	c0.6,0.4,0.7,1.2,0.2,1.8c0,0,0,0,0,0L347.5,265.1z"></path>
<path class="st0 kwNVYnau_130" d="M331.6,246.2c-2.4,0.7-8-1-9.3-3c-0.4-0.4-0.3-1.1,0.1-1.5l0,0c2-2,3.9-4.1,6-6c1.3-1.2,2.2,0,3.1,0.8
	C331.8,239.8,332.2,242.9,331.6,246.2z"></path>
<path class="st0 kwNVYnau_131" d="M332.4,243.7c0-2.2,0.1-4.5,0-6.7c0-1.1,0.6-1.4,1.4-1.8s1.4,0.2,1.7,0.7c1.2,2.5,3.7,3.4,5.5,5.2
	c1,1,1.1,1.5,0.1,2.4c-2.2,1.7-4.8,2.8-7.5,3.3c-1.8,0.3-0.8-1.3-1.2-1.9c-0.3-0.3-0.3-0.8,0-1.1
	C332.4,243.8,332.4,243.8,332.4,243.7C332.4,243.7,332.4,243.7,332.4,243.7z"></path>
<path class="st0 kwNVYnau_132" d="M341.5,231.8c1,0.1,2.1,0.1,3.1,0c1.9-0.3,2.4,0.7,1.9,2.3c-0.5,2.3-1.5,4.5-2.9,6.4c-0.6,0.7-1.1,1-1.6,0.2
	c-1.5-2.3-4-3.6-5.8-5.6c-0.6-0.5-0.8-1.3-0.5-2c0.2-0.9,1.1-1.4,1.9-1.3C339,231.8,340.3,231.8,341.5,231.8L341.5,231.8z"></path>
<path class="st0 kwNVYnau_133" d="M341.4,230.8c-1.4,0-2.8,0.1-4.1,0s-2.4-1.9-1.4-2.9c2-1.9,3.7-4.1,5.8-5.9c0.7-0.6,1-0.5,1.5,0.1
	c1.7,2.1,2.9,4.6,3.4,7.3c0.2,1-0.1,1.5-1.1,1.5C344.1,230.8,342.7,230.8,341.4,230.8z"></path>
<path class="st0 kwNVYnau_134" d="M326.6,226.8c0.4,0.4,0.8,0.8,1.1,1.3c0.5,1,0.1,2.2-0.8,2.7c-0.2,0.1-0.4,0.2-0.5,0.2c-2.6,0-5.3,0-7.9,0
	c-1.1,0-1.5-0.4-1.3-1.5c0.5-2.5,1.5-4.9,3-7c0.3-0.6,1-0.8,1.5-0.5c0.1,0.1,0.3,0.2,0.3,0.3C323.4,223.9,325.5,224.9,326.6,226.8z"></path>
<path class="st0 kwNVYnau_135" d="M332,217.2c2.1-0.6,7.3,1,8.6,2.6c0.6,0.7,0.2,1.1-0.3,1.6c-1.7,2-3.7,3.7-5.4,5.7c-1,1.1-2.1,0-3-0.7
	C331.1,223.5,331.1,220.2,332,217.2z"></path>
<path class="st0 kwNVYnau_136" d="M322.4,232.4c1.3,0,2.5,0,3.8,0c0.8-0.1,1.5,0.4,1.8,1.1c0.4,0.8-0.2,1.2-0.6,1.6c-1.9,2-3.7,3.9-5.6,5.9
	c-0.7,0.7-1.3,0.5-1.7-0.2c-1.6-2.1-2.6-4.6-3-7.3c-0.1-0.9,0.3-1.3,1.2-1.3H322.4z"></path>
<path class="st0 kwNVYnau_137" d="M322.4,221.8c-0.3-0.8-0.5-1.4,0.6-2.1c1.8-1.1,3.8-2,5.9-2.6c0.7-0.3,1.5-0.3,2.2,0.2c0.8,3,0.8,6.2,0,9.2
	c-1.3,1.6-2.5,1.5-3.8,0C325.3,225.4,323.9,223.6,322.4,221.8z"></path>
<path class="st8 kwNVYnau_138" d="M322.4,221.8c2.1,1,3.3,3.1,5,4.7c-0.3,0-0.6,0-0.8,0.4c-1.6-1.4-3.8-2.3-4.6-4.6L322.4,221.8z"></path>
<path class="st9 kwNVYnau_139" d="M331.1,226.5c0-3.1,0-6.1,0-9.2h0.9v9.2L331.1,226.5z"></path>
<path class="st0 kwNVYnau_140" d="M333.2,231.3c-0.3,1-0.8,1.6-1.8,1.5c-0.8,0-1.4-0.6-1.4-1.4c0,0,0-0.1,0-0.1c0-0.8,0.7-1.5,1.5-1.5
	c0.1,0,0.2,0,0.3,0C332.6,229.9,333,230.6,333.2,231.3z"></path>
<path class="st10 kwNVYnau_141" d="M332.4,243.7v1.3l-0.8,1.3v-9.6c0.8,1.5,0.2,3.1,0.4,4.6C332.2,242,331.7,242.9,332.4,243.7z"></path>
<style data-made-with="vivus-instant">.kwNVYnau_0{stroke-dasharray:553 555;stroke-dashoffset:554;animation:kwNVYnau_draw_0 3800ms linear 0ms infinite,kwNVYnau_fade 3800ms linear 0ms infinite;}.kwNVYnau_1{stroke-dasharray:374 376;stroke-dashoffset:375;animation:kwNVYnau_draw_1 3800ms linear 0ms infinite,kwNVYnau_fade 3800ms linear 0ms infinite;}.kwNVYnau_2{stroke-dasharray:291 293;stroke-dashoffset:292;animation:kwNVYnau_draw_2 3800ms linear 0ms infinite,kwNVYnau_fade 3800ms linear 0ms infinite;}.kwNVYnau_3{stroke-dasharray:409 411;stroke-dashoffset:410;animation:kwNVYnau_draw_3 3800ms linear 0ms infinite,kwNVYnau_fade 3800ms linear 0ms infinite;}.kwNVYnau_4{stroke-dasharray:595 597;stroke-dashoffset:596;animation:kwNVYnau_draw_4 3800ms linear 0ms infinite,kwNVYnau_fade 3800ms linear 0ms infinite;}.kwNVYnau_5{stroke-dasharray:403 405;stroke-dashoffset:404;animation:kwNVYnau_draw_5 3800ms linear 0ms infinite,kwNVYnau_fade 3800ms linear 0ms infinite;}.kwNVYnau_6{stroke-dasharray:313 315;stroke-dashoffset:314;animation:kwNVYnau_draw_6 3800ms linear 0ms infinite,kwNVYnau_fade 3800ms linear 0ms infinite;}.kwNVYnau_7{stroke-dasharray:440 442;stroke-dashoffset:441;animation:kwNVYnau_draw_7 3800ms linear 0ms infinite,kwNVYnau_fade 3800ms linear 0ms infinite;}.kwNVYnau_8{stroke-dasharray:667 669;stroke-dashoffset:668;animation:kwNVYnau_draw_8 3800ms linear 0ms infinite,kwNVYnau_fade 3800ms linear 0ms infinite;}.kwNVYnau_9{stroke-dasharray:287 289;stroke-dashoffset:288;animation:kwNVYnau_draw_9 3800ms linear 0ms infinite,kwNVYnau_fade 3800ms linear 0ms infinite;}.kwNVYnau_10{stroke-dasharray:423 425;stroke-dashoffset:424;animation:kwNVYnau_draw_10 3800ms linear 0ms infinite,kwNVYnau_fade 3800ms linear 0ms infinite;}.kwNVYnau_11{stroke-dasharray:319 321;stroke-dashoffset:320;animation:kwNVYnau_draw_11 3800ms linear 0ms infinite,kwNVYnau_fade 3800ms linear 0ms infinite;}.kwNVYnau_12{stroke-dasharray:471 473;stroke-dashoffset:472;animation:kwNVYnau_draw_12 3800ms linear 0ms infinite,kwNVYnau_fade 3800ms linear 0ms infinite;}.kwNVYnau_13{stroke-dasharray:312 314;stroke-dashoffset:313;animation:kwNVYnau_draw_13 3800ms linear 0ms infinite,kwNVYnau_fade 3800ms linear 0ms infinite;}.kwNVYnau_14{stroke-dasharray:180 182;stroke-dashoffset:181;animation:kwNVYnau_draw_14 3800ms linear 0ms infinite,kwNVYnau_fade 3800ms linear 0ms infinite;}.kwNVYnau_15{stroke-dasharray:337 339;stroke-dashoffset:338;animation:kwNVYnau_draw_15 3800ms linear 0ms infinite,kwNVYnau_fade 3800ms linear 0ms infinite;}.kwNVYnau_16{stroke-dasharray:82 84;stroke-dashoffset:83;animation:kwNVYnau_draw_16 3800ms linear 0ms infinite,kwNVYnau_fade 3800ms linear 0ms infinite;}.kwNVYnau_17{stroke-dasharray:182 184;stroke-dashoffset:183;animation:kwNVYnau_draw_17 3800ms linear 0ms infinite,kwNVYnau_fade 3800ms linear 0ms infinite;}.kwNVYnau_18{stroke-dasharray:180 182;stroke-dashoffset:181;animation:kwNVYnau_draw_18 3800ms linear 0ms infinite,kwNVYnau_fade 3800ms linear 0ms infinite;}.kwNVYnau_19{stroke-dasharray:121 123;stroke-dashoffset:122;animation:kwNVYnau_draw_19 3800ms linear 0ms infinite,kwNVYnau_fade 3800ms linear 0ms infinite;}.kwNVYnau_20{stroke-dasharray:133 135;stroke-dashoffset:134;animation:kwNVYnau_draw_20 3800ms linear 0ms infinite,kwNVYnau_fade 3800ms linear 0ms infinite;}.kwNVYnau_21{stroke-dasharray:72 74;stroke-dashoffset:73;animation:kwNVYnau_draw_21 3800ms linear 0ms infinite,kwNVYnau_fade 3800ms linear 0ms infinite;}.kwNVYnau_22{stroke-dasharray:23 25;stroke-dashoffset:24;animation:kwNVYnau_draw_22 3800ms linear 0ms infinite,kwNVYnau_fade 3800ms linear 0ms infinite;}.kwNVYnau_23{stroke-dasharray:35 37;stroke-dashoffset:36;animation:kwNVYnau_draw_23 3800ms linear 0ms infinite,kwNVYnau_fade 3800ms linear 0ms infinite;}.kwNVYnau_24{stroke-dasharray:27 29;stroke-dashoffset:28;animation:kwNVYnau_draw_24 3800ms linear 0ms infinite,kwNVYnau_fade 3800ms linear 0ms infinite;}.kwNVYnau_25{stroke-dasharray:20 22;stroke-dashoffset:21;animation:kwNVYnau_draw_25 3800ms linear 0ms infinite,kwNVYnau_fade 3800ms linear 0ms infinite;}.kwNVYnau_26{stroke-dasharray:11 13;stroke-dashoffset:12;animation:kwNVYnau_draw_26 3800ms linear 0ms infinite,kwNVYnau_fade 3800ms linear 0ms infinite;}.kwNVYnau_27{stroke-dasharray:8 10;stroke-dashoffset:9;animation:kwNVYnau_draw_27 3800ms linear 0ms infinite,kwNVYnau_fade 3800ms linear 0ms infinite;}.kwNVYnau_28{stroke-dasharray:5 7;stroke-dashoffset:6;animation:kwNVYnau_draw_28 3800ms linear 0ms infinite,kwNVYnau_fade 3800ms linear 0ms infinite;}.kwNVYnau_29{stroke-dasharray:5 7;stroke-dashoffset:6;animation:kwNVYnau_draw_29 3800ms linear 0ms infinite,kwNVYnau_fade 3800ms linear 0ms infinite;}.kwNVYnau_30{stroke-dasharray:97 99;stroke-dashoffset:98;animation:kwNVYnau_draw_30 3800ms linear 0ms infinite,kwNVYnau_fade 3800ms linear 0ms infinite;}.kwNVYnau_31{stroke-dasharray:12 14;stroke-dashoffset:13;animation:kwNVYnau_draw_31 3800ms linear 0ms infinite,kwNVYnau_fade 3800ms linear 0ms infinite;}.kwNVYnau_32{stroke-dasharray:2 4;stroke-dashoffset:3;animation:kwNVYnau_draw_32 3800ms linear 0ms infinite,kwNVYnau_fade 3800ms linear 0ms infinite;}.kwNVYnau_33{stroke-dasharray:19 21;stroke-dashoffset:20;animation:kwNVYnau_draw_33 3800ms linear 0ms infinite,kwNVYnau_fade 3800ms linear 0ms infinite;}.kwNVYnau_34{stroke-dasharray:4 6;stroke-dashoffset:5;animation:kwNVYnau_draw_34 3800ms linear 0ms infinite,kwNVYnau_fade 3800ms linear 0ms infinite;}.kwNVYnau_35{stroke-dasharray:2 4;stroke-dashoffset:3;animation:kwNVYnau_draw_35 3800ms linear 0ms infinite,kwNVYnau_fade 3800ms linear 0ms infinite;}.kwNVYnau_36{stroke-dasharray:356 358;stroke-dashoffset:357;animation:kwNVYnau_draw_36 3800ms linear 0ms infinite,kwNVYnau_fade 3800ms linear 0ms infinite;}.kwNVYnau_37{stroke-dasharray:206 208;stroke-dashoffset:207;animation:kwNVYnau_draw_37 3800ms linear 0ms infinite,kwNVYnau_fade 3800ms linear 0ms infinite;}.kwNVYnau_38{stroke-dasharray:385 387;stroke-dashoffset:386;animation:kwNVYnau_draw_38 3800ms linear 0ms infinite,kwNVYnau_fade 3800ms linear 0ms infinite;}.kwNVYnau_39{stroke-dasharray:93 95;stroke-dashoffset:94;animation:kwNVYnau_draw_39 3800ms linear 0ms infinite,kwNVYnau_fade 3800ms linear 0ms infinite;}.kwNVYnau_40{stroke-dasharray:207 209;stroke-dashoffset:208;animation:kwNVYnau_draw_40 3800ms linear 0ms infinite,kwNVYnau_fade 3800ms linear 0ms infinite;}.kwNVYnau_41{stroke-dasharray:205 207;stroke-dashoffset:206;animation:kwNVYnau_draw_41 3800ms linear 0ms infinite,kwNVYnau_fade 3800ms linear 0ms infinite;}.kwNVYnau_42{stroke-dasharray:137 139;stroke-dashoffset:138;animation:kwNVYnau_draw_42 3800ms linear 0ms infinite,kwNVYnau_fade 3800ms linear 0ms infinite;}.kwNVYnau_43{stroke-dasharray:151 153;stroke-dashoffset:152;animation:kwNVYnau_draw_43 3800ms linear 0ms infinite,kwNVYnau_fade 3800ms linear 0ms infinite;}.kwNVYnau_44{stroke-dasharray:82 84;stroke-dashoffset:83;animation:kwNVYnau_draw_44 3800ms linear 0ms infinite,kwNVYnau_fade 3800ms linear 0ms infinite;}.kwNVYnau_45{stroke-dasharray:26 28;stroke-dashoffset:27;animation:kwNVYnau_draw_45 3800ms linear 0ms infinite,kwNVYnau_fade 3800ms linear 0ms infinite;}.kwNVYnau_46{stroke-dasharray:41 43;stroke-dashoffset:42;animation:kwNVYnau_draw_46 3800ms linear 0ms infinite,kwNVYnau_fade 3800ms linear 0ms infinite;}.kwNVYnau_47{stroke-dasharray:30 32;stroke-dashoffset:31;animation:kwNVYnau_draw_47 3800ms linear 0ms infinite,kwNVYnau_fade 3800ms linear 0ms infinite;}.kwNVYnau_48{stroke-dasharray:22 24;stroke-dashoffset:23;animation:kwNVYnau_draw_48 3800ms linear 0ms infinite,kwNVYnau_fade 3800ms linear 0ms infinite;}.kwNVYnau_49{stroke-dasharray:12 14;stroke-dashoffset:13;animation:kwNVYnau_draw_49 3800ms linear 0ms infinite,kwNVYnau_fade 3800ms linear 0ms infinite;}.kwNVYnau_50{stroke-dasharray:9 11;stroke-dashoffset:10;animation:kwNVYnau_draw_50 3800ms linear 0ms infinite,kwNVYnau_fade 3800ms linear 0ms infinite;}.kwNVYnau_51{stroke-dasharray:6 8;stroke-dashoffset:7;animation:kwNVYnau_draw_51 3800ms linear 0ms infinite,kwNVYnau_fade 3800ms linear 0ms infinite;}.kwNVYnau_52{stroke-dasharray:5 7;stroke-dashoffset:6;animation:kwNVYnau_draw_52 3800ms linear 0ms infinite,kwNVYnau_fade 3800ms linear 0ms infinite;}.kwNVYnau_53{stroke-dasharray:110 112;stroke-dashoffset:111;animation:kwNVYnau_draw_53 3800ms linear 0ms infinite,kwNVYnau_fade 3800ms linear 0ms infinite;}.kwNVYnau_54{stroke-dasharray:14 16;stroke-dashoffset:15;animation:kwNVYnau_draw_54 3800ms linear 0ms infinite,kwNVYnau_fade 3800ms linear 0ms infinite;}.kwNVYnau_55{stroke-dasharray:2 4;stroke-dashoffset:3;animation:kwNVYnau_draw_55 3800ms linear 0ms infinite,kwNVYnau_fade 3800ms linear 0ms infinite;}.kwNVYnau_56{stroke-dasharray:22 24;stroke-dashoffset:23;animation:kwNVYnau_draw_56 3800ms linear 0ms infinite,kwNVYnau_fade 3800ms linear 0ms infinite;}.kwNVYnau_57{stroke-dasharray:4 6;stroke-dashoffset:5;animation:kwNVYnau_draw_57 3800ms linear 0ms infinite,kwNVYnau_fade 3800ms linear 0ms infinite;}.kwNVYnau_58{stroke-dasharray:2 4;stroke-dashoffset:3;animation:kwNVYnau_draw_58 3800ms linear 0ms infinite,kwNVYnau_fade 3800ms linear 0ms infinite;}.kwNVYnau_59{stroke-dasharray:78 80;stroke-dashoffset:79;animation:kwNVYnau_draw_59 3800ms linear 0ms infinite,kwNVYnau_fade 3800ms linear 0ms infinite;}.kwNVYnau_60{stroke-dasharray:181 183;stroke-dashoffset:182;animation:kwNVYnau_draw_60 3800ms linear 0ms infinite,kwNVYnau_fade 3800ms linear 0ms infinite;}.kwNVYnau_61{stroke-dasharray:174 176;stroke-dashoffset:175;animation:kwNVYnau_draw_61 3800ms linear 0ms infinite,kwNVYnau_fade 3800ms linear 0ms infinite;}.kwNVYnau_62{stroke-dasharray:178 180;stroke-dashoffset:179;animation:kwNVYnau_draw_62 3800ms linear 0ms infinite,kwNVYnau_fade 3800ms linear 0ms infinite;}.kwNVYnau_63{stroke-dasharray:110 112;stroke-dashoffset:111;animation:kwNVYnau_draw_63 3800ms linear 0ms infinite,kwNVYnau_fade 3800ms linear 0ms infinite;}.kwNVYnau_64{stroke-dasharray:188 190;stroke-dashoffset:189;animation:kwNVYnau_draw_64 3800ms linear 0ms infinite,kwNVYnau_fade 3800ms linear 0ms infinite;}.kwNVYnau_65{stroke-dasharray:69 71;stroke-dashoffset:70;animation:kwNVYnau_draw_65 3800ms linear 0ms infinite,kwNVYnau_fade 3800ms linear 0ms infinite;}.kwNVYnau_66{stroke-dasharray:39 41;stroke-dashoffset:40;animation:kwNVYnau_draw_66 3800ms linear 0ms infinite,kwNVYnau_fade 3800ms linear 0ms infinite;}.kwNVYnau_67{stroke-dasharray:65 67;stroke-dashoffset:66;animation:kwNVYnau_draw_67 3800ms linear 0ms infinite,kwNVYnau_fade 3800ms linear 0ms infinite;}.kwNVYnau_68{stroke-dasharray:54 56;stroke-dashoffset:55;animation:kwNVYnau_draw_68 3800ms linear 0ms infinite,kwNVYnau_fade 3800ms linear 0ms infinite;}.kwNVYnau_69{stroke-dasharray:71 73;stroke-dashoffset:72;animation:kwNVYnau_draw_69 3800ms linear 0ms infinite,kwNVYnau_fade 3800ms linear 0ms infinite;}.kwNVYnau_70{stroke-dasharray:54 56;stroke-dashoffset:55;animation:kwNVYnau_draw_70 3800ms linear 0ms infinite,kwNVYnau_fade 3800ms linear 0ms infinite;}.kwNVYnau_71{stroke-dasharray:84 86;stroke-dashoffset:85;animation:kwNVYnau_draw_71 3800ms linear 0ms infinite,kwNVYnau_fade 3800ms linear 0ms infinite;}.kwNVYnau_72{stroke-dasharray:65 67;stroke-dashoffset:66;animation:kwNVYnau_draw_72 3800ms linear 0ms infinite,kwNVYnau_fade 3800ms linear 0ms infinite;}.kwNVYnau_73{stroke-dasharray:31 33;stroke-dashoffset:32;animation:kwNVYnau_draw_73 3800ms linear 0ms infinite,kwNVYnau_fade 3800ms linear 0ms infinite;}.kwNVYnau_74{stroke-dasharray:80 82;stroke-dashoffset:81;animation:kwNVYnau_draw_74 3800ms linear 0ms infinite,kwNVYnau_fade 3800ms linear 0ms infinite;}.kwNVYnau_75{stroke-dasharray:65 67;stroke-dashoffset:66;animation:kwNVYnau_draw_75 3800ms linear 0ms infinite,kwNVYnau_fade 3800ms linear 0ms infinite;}.kwNVYnau_76{stroke-dasharray:31 33;stroke-dashoffset:32;animation:kwNVYnau_draw_76 3800ms linear 0ms infinite,kwNVYnau_fade 3800ms linear 0ms infinite;}.kwNVYnau_77{stroke-dasharray:87 89;stroke-dashoffset:88;animation:kwNVYnau_draw_77 3800ms linear 0ms infinite,kwNVYnau_fade 3800ms linear 0ms infinite;}.kwNVYnau_78{stroke-dasharray:74 76;stroke-dashoffset:75;animation:kwNVYnau_draw_78 3800ms linear 0ms infinite,kwNVYnau_fade 3800ms linear 0ms infinite;}.kwNVYnau_79{stroke-dasharray:54 56;stroke-dashoffset:55;animation:kwNVYnau_draw_79 3800ms linear 0ms infinite,kwNVYnau_fade 3800ms linear 0ms infinite;}.kwNVYnau_80{stroke-dasharray:87 89;stroke-dashoffset:88;animation:kwNVYnau_draw_80 3800ms linear 0ms infinite,kwNVYnau_fade 3800ms linear 0ms infinite;}.kwNVYnau_81{stroke-dasharray:27 29;stroke-dashoffset:28;animation:kwNVYnau_draw_81 3800ms linear 0ms infinite,kwNVYnau_fade 3800ms linear 0ms infinite;}.kwNVYnau_82{stroke-dasharray:54 56;stroke-dashoffset:55;animation:kwNVYnau_draw_82 3800ms linear 0ms infinite,kwNVYnau_fade 3800ms linear 0ms infinite;}.kwNVYnau_83{stroke-dasharray:68 70;stroke-dashoffset:69;animation:kwNVYnau_draw_83 3800ms linear 0ms infinite,kwNVYnau_fade 3800ms linear 0ms infinite;}.kwNVYnau_84{stroke-dasharray:68 70;stroke-dashoffset:69;animation:kwNVYnau_draw_84 3800ms linear 0ms infinite,kwNVYnau_fade 3800ms linear 0ms infinite;}.kwNVYnau_85{stroke-dasharray:31 33;stroke-dashoffset:32;animation:kwNVYnau_draw_85 3800ms linear 0ms infinite,kwNVYnau_fade 3800ms linear 0ms infinite;}.kwNVYnau_86{stroke-dasharray:27 29;stroke-dashoffset:28;animation:kwNVYnau_draw_86 3800ms linear 0ms infinite,kwNVYnau_fade 3800ms linear 0ms infinite;}.kwNVYnau_87{stroke-dasharray:54 56;stroke-dashoffset:55;animation:kwNVYnau_draw_87 3800ms linear 0ms infinite,kwNVYnau_fade 3800ms linear 0ms infinite;}.kwNVYnau_88{stroke-dasharray:87 89;stroke-dashoffset:88;animation:kwNVYnau_draw_88 3800ms linear 0ms infinite,kwNVYnau_fade 3800ms linear 0ms infinite;}.kwNVYnau_89{stroke-dasharray:63 65;stroke-dashoffset:64;animation:kwNVYnau_draw_89 3800ms linear 0ms infinite,kwNVYnau_fade 3800ms linear 0ms infinite;}.kwNVYnau_90{stroke-dasharray:57 59;stroke-dashoffset:58;animation:kwNVYnau_draw_90 3800ms linear 0ms infinite,kwNVYnau_fade 3800ms linear 0ms infinite;}.kwNVYnau_91{stroke-dasharray:34 36;stroke-dashoffset:35;animation:kwNVYnau_draw_91 3800ms linear 0ms infinite,kwNVYnau_fade 3800ms linear 0ms infinite;}.kwNVYnau_92{stroke-dasharray:34 36;stroke-dashoffset:35;animation:kwNVYnau_draw_92 3800ms linear 0ms infinite,kwNVYnau_fade 3800ms linear 0ms infinite;}.kwNVYnau_93{stroke-dasharray:68 70;stroke-dashoffset:69;animation:kwNVYnau_draw_93 3800ms linear 0ms infinite,kwNVYnau_fade 3800ms linear 0ms infinite;}.kwNVYnau_94{stroke-dasharray:87 89;stroke-dashoffset:88;animation:kwNVYnau_draw_94 3800ms linear 0ms infinite,kwNVYnau_fade 3800ms linear 0ms infinite;}.kwNVYnau_95{stroke-dasharray:68 70;stroke-dashoffset:69;animation:kwNVYnau_draw_95 3800ms linear 0ms infinite,kwNVYnau_fade 3800ms linear 0ms infinite;}.kwNVYnau_96{stroke-dasharray:28 30;stroke-dashoffset:29;animation:kwNVYnau_draw_96 3800ms linear 0ms infinite,kwNVYnau_fade 3800ms linear 0ms infinite;}.kwNVYnau_97{stroke-dasharray:49 51;stroke-dashoffset:50;animation:kwNVYnau_draw_97 3800ms linear 0ms infinite,kwNVYnau_fade 3800ms linear 0ms infinite;}.kwNVYnau_98{stroke-dasharray:52 54;stroke-dashoffset:53;animation:kwNVYnau_draw_98 3800ms linear 0ms infinite,kwNVYnau_fade 3800ms linear 0ms infinite;}.kwNVYnau_99{stroke-dasharray:39 41;stroke-dashoffset:40;animation:kwNVYnau_draw_99 3800ms linear 0ms infinite,kwNVYnau_fade 3800ms linear 0ms infinite;}.kwNVYnau_100{stroke-dasharray:39 41;stroke-dashoffset:40;animation:kwNVYnau_draw_100 3800ms linear 0ms infinite,kwNVYnau_fade 3800ms linear 0ms infinite;}.kwNVYnau_101{stroke-dasharray:49 51;stroke-dashoffset:50;animation:kwNVYnau_draw_101 3800ms linear 0ms infinite,kwNVYnau_fade 3800ms linear 0ms infinite;}.kwNVYnau_102{stroke-dasharray:37 39;stroke-dashoffset:38;animation:kwNVYnau_draw_102 3800ms linear 0ms infinite,kwNVYnau_fade 3800ms linear 0ms infinite;}.kwNVYnau_103{stroke-dasharray:28 30;stroke-dashoffset:29;animation:kwNVYnau_draw_103 3800ms linear 0ms infinite,kwNVYnau_fade 3800ms linear 0ms infinite;}.kwNVYnau_104{stroke-dasharray:52 54;stroke-dashoffset:53;animation:kwNVYnau_draw_104 3800ms linear 0ms infinite,kwNVYnau_fade 3800ms linear 0ms infinite;}.kwNVYnau_105{stroke-dasharray:37 39;stroke-dashoffset:38;animation:kwNVYnau_draw_105 3800ms linear 0ms infinite,kwNVYnau_fade 3800ms linear 0ms infinite;}.kwNVYnau_106{stroke-dasharray:28 30;stroke-dashoffset:29;animation:kwNVYnau_draw_106 3800ms linear 0ms infinite,kwNVYnau_fade 3800ms linear 0ms infinite;}.kwNVYnau_107{stroke-dasharray:49 51;stroke-dashoffset:50;animation:kwNVYnau_draw_107 3800ms linear 0ms infinite,kwNVYnau_fade 3800ms linear 0ms infinite;}.kwNVYnau_108{stroke-dasharray:49 51;stroke-dashoffset:50;animation:kwNVYnau_draw_108 3800ms linear 0ms infinite,kwNVYnau_fade 3800ms linear 0ms infinite;}.kwNVYnau_109{stroke-dasharray:74 76;stroke-dashoffset:75;animation:kwNVYnau_draw_109 3800ms linear 0ms infinite,kwNVYnau_fade 3800ms linear 0ms infinite;}.kwNVYnau_110{stroke-dasharray:28 30;stroke-dashoffset:29;animation:kwNVYnau_draw_110 3800ms linear 0ms infinite,kwNVYnau_fade 3800ms linear 0ms infinite;}.kwNVYnau_111{stroke-dasharray:37 39;stroke-dashoffset:38;animation:kwNVYnau_draw_111 3800ms linear 0ms infinite,kwNVYnau_fade 3800ms linear 0ms infinite;}.kwNVYnau_112{stroke-dasharray:57 59;stroke-dashoffset:58;animation:kwNVYnau_draw_112 3800ms linear 0ms infinite,kwNVYnau_fade 3800ms linear 0ms infinite;}.kwNVYnau_113{stroke-dasharray:121 123;stroke-dashoffset:122;animation:kwNVYnau_draw_113 3800ms linear 0ms infinite,kwNVYnau_fade 3800ms linear 0ms infinite;}.kwNVYnau_114{stroke-dasharray:92 94;stroke-dashoffset:93;animation:kwNVYnau_draw_114 3800ms linear 0ms infinite,kwNVYnau_fade 3800ms linear 0ms infinite;}.kwNVYnau_115{stroke-dasharray:48 50;stroke-dashoffset:49;animation:kwNVYnau_draw_115 3800ms linear 0ms infinite,kwNVYnau_fade 3800ms linear 0ms infinite;}.kwNVYnau_116{stroke-dasharray:44 46;stroke-dashoffset:45;animation:kwNVYnau_draw_116 3800ms linear 0ms infinite,kwNVYnau_fade 3800ms linear 0ms infinite;}.kwNVYnau_117{stroke-dasharray:35 37;stroke-dashoffset:36;animation:kwNVYnau_draw_117 3800ms linear 0ms infinite,kwNVYnau_fade 3800ms linear 0ms infinite;}.kwNVYnau_118{stroke-dasharray:32 34;stroke-dashoffset:33;animation:kwNVYnau_draw_118 3800ms linear 0ms infinite,kwNVYnau_fade 3800ms linear 0ms infinite;}.kwNVYnau_119{stroke-dasharray:69 71;stroke-dashoffset:70;animation:kwNVYnau_draw_119 3800ms linear 0ms infinite,kwNVYnau_fade 3800ms linear 0ms infinite;}.kwNVYnau_120{stroke-dasharray:33 35;stroke-dashoffset:34;animation:kwNVYnau_draw_120 3800ms linear 0ms infinite,kwNVYnau_fade 3800ms linear 0ms infinite;}.kwNVYnau_121{stroke-dasharray:23 25;stroke-dashoffset:24;animation:kwNVYnau_draw_121 3800ms linear 0ms infinite,kwNVYnau_fade 3800ms linear 0ms infinite;}.kwNVYnau_122{stroke-dasharray:36 38;stroke-dashoffset:37;animation:kwNVYnau_draw_122 3800ms linear 0ms infinite,kwNVYnau_fade 3800ms linear 0ms infinite;}.kwNVYnau_123{stroke-dasharray:17 19;stroke-dashoffset:18;animation:kwNVYnau_draw_123 3800ms linear 0ms infinite,kwNVYnau_fade 3800ms linear 0ms infinite;}.kwNVYnau_124{stroke-dasharray:12 14;stroke-dashoffset:13;animation:kwNVYnau_draw_124 3800ms linear 0ms infinite,kwNVYnau_fade 3800ms linear 0ms infinite;}.kwNVYnau_125{stroke-dasharray:9 11;stroke-dashoffset:10;animation:kwNVYnau_draw_125 3800ms linear 0ms infinite,kwNVYnau_fade 3800ms linear 0ms infinite;}.kwNVYnau_126{stroke-dasharray:11 13;stroke-dashoffset:12;animation:kwNVYnau_draw_126 3800ms linear 0ms infinite,kwNVYnau_fade 3800ms linear 0ms infinite;}.kwNVYnau_127{stroke-dasharray:104 106;stroke-dashoffset:105;animation:kwNVYnau_draw_127 3800ms linear 0ms infinite,kwNVYnau_fade 3800ms linear 0ms infinite;}.kwNVYnau_128{stroke-dasharray:10 12;stroke-dashoffset:11;animation:kwNVYnau_draw_128 3800ms linear 0ms infinite,kwNVYnau_fade 3800ms linear 0ms infinite;}.kwNVYnau_129{stroke-dasharray:10 12;stroke-dashoffset:11;animation:kwNVYnau_draw_129 3800ms linear 0ms infinite,kwNVYnau_fade 3800ms linear 0ms infinite;}.kwNVYnau_130{stroke-dasharray:34 36;stroke-dashoffset:35;animation:kwNVYnau_draw_130 3800ms linear 0ms infinite,kwNVYnau_fade 3800ms linear 0ms infinite;}.kwNVYnau_131{stroke-dasharray:35 37;stroke-dashoffset:36;animation:kwNVYnau_draw_131 3800ms linear 0ms infinite,kwNVYnau_fade 3800ms linear 0ms infinite;}.kwNVYnau_132{stroke-dasharray:33 35;stroke-dashoffset:34;animation:kwNVYnau_draw_132 3800ms linear 0ms infinite,kwNVYnau_fade 3800ms linear 0ms infinite;}.kwNVYnau_133{stroke-dasharray:33 35;stroke-dashoffset:34;animation:kwNVYnau_draw_133 3800ms linear 0ms infinite,kwNVYnau_fade 3800ms linear 0ms infinite;}.kwNVYnau_134{stroke-dasharray:33 35;stroke-dashoffset:34;animation:kwNVYnau_draw_134 3800ms linear 0ms infinite,kwNVYnau_fade 3800ms linear 0ms infinite;}.kwNVYnau_135{stroke-dasharray:32 34;stroke-dashoffset:33;animation:kwNVYnau_draw_135 3800ms linear 0ms infinite,kwNVYnau_fade 3800ms linear 0ms infinite;}.kwNVYnau_136{stroke-dasharray:33 35;stroke-dashoffset:34;animation:kwNVYnau_draw_136 3800ms linear 0ms infinite,kwNVYnau_fade 3800ms linear 0ms infinite;}.kwNVYnau_137{stroke-dasharray:32 34;stroke-dashoffset:33;animation:kwNVYnau_draw_137 3800ms linear 0ms infinite,kwNVYnau_fade 3800ms linear 0ms infinite;}.kwNVYnau_138{stroke-dasharray:16 18;stroke-dashoffset:17;animation:kwNVYnau_draw_138 3800ms linear 0ms infinite,kwNVYnau_fade 3800ms linear 0ms infinite;}.kwNVYnau_139{stroke-dasharray:21 23;stroke-dashoffset:22;animation:kwNVYnau_draw_139 3800ms linear 0ms infinite,kwNVYnau_fade 3800ms linear 0ms infinite;}.kwNVYnau_140{stroke-dasharray:10 12;stroke-dashoffset:11;animation:kwNVYnau_draw_140 3800ms linear 0ms infinite,kwNVYnau_fade 3800ms linear 0ms infinite;}.kwNVYnau_141{stroke-dasharray:20 22;stroke-dashoffset:21;animation:kwNVYnau_draw_141 3800ms linear 0ms infinite,kwNVYnau_fade 3800ms linear 0ms infinite;}@keyframes kwNVYnau_draw{100%{stroke-dashoffset:0;}}@keyframes kwNVYnau_fade{0%{stroke-opacity:1;}89.47368421052632%{stroke-opacity:1;}100%{stroke-opacity:0;}}@keyframes kwNVYnau_draw_0{7.894736842105263%{stroke-dashoffset: 554}60.526315789473685%{ stroke-dashoffset: 0;}100%{ stroke-dashoffset: 0;}}@keyframes kwNVYnau_draw_1{8.081373646883165%{stroke-dashoffset: 375}60.71295259425159%{ stroke-dashoffset: 0;}100%{ stroke-dashoffset: 0;}}@keyframes kwNVYnau_draw_2{8.26801045166107%{stroke-dashoffset: 292}60.89958939902949%{ stroke-dashoffset: 0;}100%{ stroke-dashoffset: 0;}}@keyframes kwNVYnau_draw_3{8.45464725643897%{stroke-dashoffset: 410}61.08622620380739%{ stroke-dashoffset: 0;}100%{ stroke-dashoffset: 0;}}@keyframes kwNVYnau_draw_4{8.641284061216872%{stroke-dashoffset: 596}61.2728630085853%{ stroke-dashoffset: 0;}100%{ stroke-dashoffset: 0;}}@keyframes kwNVYnau_draw_5{8.827920865994775%{stroke-dashoffset: 404}61.459499813363195%{ stroke-dashoffset: 0;}100%{ stroke-dashoffset: 0;}}@keyframes kwNVYnau_draw_6{9.014557670772676%{stroke-dashoffset: 314}61.6461366181411%{ stroke-dashoffset: 0;}100%{ stroke-dashoffset: 0;}}@keyframes kwNVYnau_draw_7{9.201194475550578%{stroke-dashoffset: 441}61.832773422919004%{ stroke-dashoffset: 0;}100%{ stroke-dashoffset: 0;}}@keyframes kwNVYnau_draw_8{9.38783128032848%{stroke-dashoffset: 668}62.0194102276969%{ stroke-dashoffset: 0;}100%{ stroke-dashoffset: 0;}}@keyframes kwNVYnau_draw_9{9.574468085106384%{stroke-dashoffset: 288}62.20604703247481%{ stroke-dashoffset: 0;}100%{ stroke-dashoffset: 0;}}@keyframes kwNVYnau_draw_10{9.761104889884285%{stroke-dashoffset: 424}62.392683837252704%{ stroke-dashoffset: 0;}100%{ stroke-dashoffset: 0;}}@keyframes kwNVYnau_draw_11{9.947741694662188%{stroke-dashoffset: 320}62.57932064203061%{ stroke-dashoffset: 0;}100%{ stroke-dashoffset: 0;}}@keyframes kwNVYnau_draw_12{10.13437849944009%{stroke-dashoffset: 472}62.76595744680852%{ stroke-dashoffset: 0;}100%{ stroke-dashoffset: 0;}}@keyframes kwNVYnau_draw_13{10.32101530421799%{stroke-dashoffset: 313}62.95259425158641%{ stroke-dashoffset: 0;}100%{ stroke-dashoffset: 0;}}@keyframes kwNVYnau_draw_14{10.507652108995895%{stroke-dashoffset: 181}63.13923105636432%{ stroke-dashoffset: 0;}100%{ stroke-dashoffset: 0;}}@keyframes kwNVYnau_draw_15{10.694288913773796%{stroke-dashoffset: 338}63.32586786114223%{ stroke-dashoffset: 0;}100%{ stroke-dashoffset: 0;}}@keyframes kwNVYnau_draw_16{10.880925718551698%{stroke-dashoffset: 83}63.51250466592012%{ stroke-dashoffset: 0;}100%{ stroke-dashoffset: 0;}}@keyframes kwNVYnau_draw_17{11.0675625233296%{stroke-dashoffset: 183}63.69914147069803%{ stroke-dashoffset: 0;}100%{ stroke-dashoffset: 0;}}@keyframes kwNVYnau_draw_18{11.254199328107504%{stroke-dashoffset: 181}63.885778275475936%{ stroke-dashoffset: 0;}100%{ stroke-dashoffset: 0;}}@keyframes kwNVYnau_draw_19{11.440836132885405%{stroke-dashoffset: 122}64.07241508025383%{ stroke-dashoffset: 0;}100%{ stroke-dashoffset: 0;}}@keyframes kwNVYnau_draw_20{11.627472937663308%{stroke-dashoffset: 134}64.25905188503174%{ stroke-dashoffset: 0;}100%{ stroke-dashoffset: 0;}}@keyframes kwNVYnau_draw_21{11.81410974244121%{stroke-dashoffset: 73}64.44568868980963%{ stroke-dashoffset: 0;}100%{ stroke-dashoffset: 0;}}@keyframes kwNVYnau_draw_22{12.000746547219112%{stroke-dashoffset: 24}64.63232549458753%{ stroke-dashoffset: 0;}100%{ stroke-dashoffset: 0;}}@keyframes kwNVYnau_draw_23{12.187383351997012%{stroke-dashoffset: 36}64.81896229936544%{ stroke-dashoffset: 0;}100%{ stroke-dashoffset: 0;}}@keyframes kwNVYnau_draw_24{12.374020156774915%{stroke-dashoffset: 28}65.00559910414333%{ stroke-dashoffset: 0;}100%{ stroke-dashoffset: 0;}}@keyframes kwNVYnau_draw_25{12.56065696155282%{stroke-dashoffset: 21}65.19223590892123%{ stroke-dashoffset: 0;}100%{ stroke-dashoffset: 0;}}@keyframes kwNVYnau_draw_26{12.747293766330719%{stroke-dashoffset: 12}65.37887271369914%{ stroke-dashoffset: 0;}100%{ stroke-dashoffset: 0;}}@keyframes kwNVYnau_draw_27{12.933930571108624%{stroke-dashoffset: 9}65.56550951847704%{ stroke-dashoffset: 0;}100%{ stroke-dashoffset: 0;}}@keyframes kwNVYnau_draw_28{13.120567375886525%{stroke-dashoffset: 6}65.75214632325495%{ stroke-dashoffset: 0;}100%{ stroke-dashoffset: 0;}}@keyframes kwNVYnau_draw_29{13.307204180664426%{stroke-dashoffset: 6}65.93878312803284%{ stroke-dashoffset: 0;}100%{ stroke-dashoffset: 0;}}@keyframes kwNVYnau_draw_30{13.493840985442326%{stroke-dashoffset: 98}66.12541993281074%{ stroke-dashoffset: 0;}100%{ stroke-dashoffset: 0;}}@keyframes kwNVYnau_draw_31{13.68047779022023%{stroke-dashoffset: 13}66.31205673758865%{ stroke-dashoffset: 0;}100%{ stroke-dashoffset: 0;}}@keyframes kwNVYnau_draw_32{13.867114594998132%{stroke-dashoffset: 3}66.49869354236655%{ stroke-dashoffset: 0;}100%{ stroke-dashoffset: 0;}}@keyframes kwNVYnau_draw_33{14.053751399776035%{stroke-dashoffset: 20}66.68533034714446%{ stroke-dashoffset: 0;}100%{ stroke-dashoffset: 0;}}@keyframes kwNVYnau_draw_34{14.24038820455394%{stroke-dashoffset: 5}66.87196715192236%{ stroke-dashoffset: 0;}100%{ stroke-dashoffset: 0;}}@keyframes kwNVYnau_draw_35{14.427025009331839%{stroke-dashoffset: 3}67.05860395670025%{ stroke-dashoffset: 0;}100%{ stroke-dashoffset: 0;}}@keyframes kwNVYnau_draw_36{14.613661814109744%{stroke-dashoffset: 357}67.24524076147816%{ stroke-dashoffset: 0;}100%{ stroke-dashoffset: 0;}}@keyframes kwNVYnau_draw_37{14.800298618887645%{stroke-dashoffset: 207}67.43187756625608%{ stroke-dashoffset: 0;}100%{ stroke-dashoffset: 0;}}@keyframes kwNVYnau_draw_38{14.986935423665548%{stroke-dashoffset: 386}67.61851437103397%{ stroke-dashoffset: 0;}100%{ stroke-dashoffset: 0;}}@keyframes kwNVYnau_draw_39{15.173572228443449%{stroke-dashoffset: 94}67.80515117581187%{ stroke-dashoffset: 0;}100%{ stroke-dashoffset: 0;}}@keyframes kwNVYnau_draw_40{15.360209033221354%{stroke-dashoffset: 208}67.99178798058976%{ stroke-dashoffset: 0;}100%{ stroke-dashoffset: 0;}}@keyframes kwNVYnau_draw_41{15.546845837999252%{stroke-dashoffset: 206}68.17842478536768%{ stroke-dashoffset: 0;}100%{ stroke-dashoffset: 0;}}@keyframes kwNVYnau_draw_42{15.733482642777155%{stroke-dashoffset: 138}68.36506159014559%{ stroke-dashoffset: 0;}100%{ stroke-dashoffset: 0;}}@keyframes kwNVYnau_draw_43{15.920119447555056%{stroke-dashoffset: 152}68.55169839492348%{ stroke-dashoffset: 0;}100%{ stroke-dashoffset: 0;}}@keyframes kwNVYnau_draw_44{16.10675625233296%{stroke-dashoffset: 83}68.73833519970138%{ stroke-dashoffset: 0;}100%{ stroke-dashoffset: 0;}}@keyframes kwNVYnau_draw_45{16.293393057110862%{stroke-dashoffset: 27}68.92497200447927%{ stroke-dashoffset: 0;}100%{ stroke-dashoffset: 0;}}@keyframes kwNVYnau_draw_46{16.480029861888763%{stroke-dashoffset: 42}69.11160880925718%{ stroke-dashoffset: 0;}100%{ stroke-dashoffset: 0;}}@keyframes kwNVYnau_draw_47{16.666666666666664%{stroke-dashoffset: 31}69.29824561403508%{ stroke-dashoffset: 0;}100%{ stroke-dashoffset: 0;}}@keyframes kwNVYnau_draw_48{16.853303471444566%{stroke-dashoffset: 23}69.48488241881299%{ stroke-dashoffset: 0;}100%{ stroke-dashoffset: 0;}}@keyframes kwNVYnau_draw_49{17.03994027622247%{stroke-dashoffset: 13}69.67151922359088%{ stroke-dashoffset: 0;}100%{ stroke-dashoffset: 0;}}@keyframes kwNVYnau_draw_50{17.22657708100037%{stroke-dashoffset: 10}69.8581560283688%{ stroke-dashoffset: 0;}100%{ stroke-dashoffset: 0;}}@keyframes kwNVYnau_draw_51{17.413213885778276%{stroke-dashoffset: 7}70.04479283314669%{ stroke-dashoffset: 0;}100%{ stroke-dashoffset: 0;}}@keyframes kwNVYnau_draw_52{17.599850690556178%{stroke-dashoffset: 6}70.23142963792459%{ stroke-dashoffset: 0;}100%{ stroke-dashoffset: 0;}}@keyframes kwNVYnau_draw_53{17.78648749533408%{stroke-dashoffset: 111}70.4180664427025%{ stroke-dashoffset: 0;}100%{ stroke-dashoffset: 0;}}@keyframes kwNVYnau_draw_54{17.97312430011198%{stroke-dashoffset: 15}70.60470324748039%{ stroke-dashoffset: 0;}100%{ stroke-dashoffset: 0;}}@keyframes kwNVYnau_draw_55{18.159761104889885%{stroke-dashoffset: 3}70.7913400522583%{ stroke-dashoffset: 0;}100%{ stroke-dashoffset: 0;}}@keyframes kwNVYnau_draw_56{18.34639790966779%{stroke-dashoffset: 23}70.97797685703621%{ stroke-dashoffset: 0;}100%{ stroke-dashoffset: 0;}}@keyframes kwNVYnau_draw_57{18.53303471444569%{stroke-dashoffset: 5}71.1646136618141%{ stroke-dashoffset: 0;}100%{ stroke-dashoffset: 0;}}@keyframes kwNVYnau_draw_58{18.719671519223592%{stroke-dashoffset: 3}71.351250466592%{ stroke-dashoffset: 0;}100%{ stroke-dashoffset: 0;}}@keyframes kwNVYnau_draw_59{18.906308324001493%{stroke-dashoffset: 79}71.53788727136991%{ stroke-dashoffset: 0;}100%{ stroke-dashoffset: 0;}}@keyframes kwNVYnau_draw_60{19.092945128779395%{stroke-dashoffset: 182}71.72452407614782%{ stroke-dashoffset: 0;}100%{ stroke-dashoffset: 0;}}@keyframes kwNVYnau_draw_61{19.279581933557296%{stroke-dashoffset: 175}71.91116088092572%{ stroke-dashoffset: 0;}100%{ stroke-dashoffset: 0;}}@keyframes kwNVYnau_draw_62{19.466218738335197%{stroke-dashoffset: 179}72.09779768570361%{ stroke-dashoffset: 0;}100%{ stroke-dashoffset: 0;}}@keyframes kwNVYnau_draw_63{19.6528555431131%{stroke-dashoffset: 111}72.28443449048152%{ stroke-dashoffset: 0;}100%{ stroke-dashoffset: 0;}}@keyframes kwNVYnau_draw_64{19.839492347891003%{stroke-dashoffset: 189}72.47107129525942%{ stroke-dashoffset: 0;}100%{ stroke-dashoffset: 0;}}@keyframes kwNVYnau_draw_65{20.026129152668904%{stroke-dashoffset: 70}72.65770810003733%{ stroke-dashoffset: 0;}100%{ stroke-dashoffset: 0;}}@keyframes kwNVYnau_draw_66{20.212765957446805%{stroke-dashoffset: 40}72.84434490481523%{ stroke-dashoffset: 0;}100%{ stroke-dashoffset: 0;}}@keyframes kwNVYnau_draw_67{20.399402762224707%{stroke-dashoffset: 66}73.03098170959314%{ stroke-dashoffset: 0;}100%{ stroke-dashoffset: 0;}}@keyframes kwNVYnau_draw_68{20.58603956700261%{stroke-dashoffset: 55}73.21761851437103%{ stroke-dashoffset: 0;}100%{ stroke-dashoffset: 0;}}@keyframes kwNVYnau_draw_69{20.772676371780516%{stroke-dashoffset: 72}73.40425531914893%{ stroke-dashoffset: 0;}100%{ stroke-dashoffset: 0;}}@keyframes kwNVYnau_draw_70{20.959313176558418%{stroke-dashoffset: 55}73.59089212392685%{ stroke-dashoffset: 0;}100%{ stroke-dashoffset: 0;}}@keyframes kwNVYnau_draw_71{21.145949981336322%{stroke-dashoffset: 85}73.77752892870474%{ stroke-dashoffset: 0;}100%{ stroke-dashoffset: 0;}}@keyframes kwNVYnau_draw_72{21.33258678611422%{stroke-dashoffset: 66}73.96416573348264%{ stroke-dashoffset: 0;}100%{ stroke-dashoffset: 0;}}@keyframes kwNVYnau_draw_73{21.51922359089212%{stroke-dashoffset: 32}74.15080253826054%{ stroke-dashoffset: 0;}100%{ stroke-dashoffset: 0;}}@keyframes kwNVYnau_draw_74{21.705860395670022%{stroke-dashoffset: 81}74.33743934303845%{ stroke-dashoffset: 0;}100%{ stroke-dashoffset: 0;}}@keyframes kwNVYnau_draw_75{21.892497200447927%{stroke-dashoffset: 66}74.52407614781636%{ stroke-dashoffset: 0;}100%{ stroke-dashoffset: 0;}}@keyframes kwNVYnau_draw_76{22.07913400522583%{stroke-dashoffset: 32}74.71071295259425%{ stroke-dashoffset: 0;}100%{ stroke-dashoffset: 0;}}@keyframes kwNVYnau_draw_77{22.265770810003733%{stroke-dashoffset: 88}74.89734975737215%{ stroke-dashoffset: 0;}100%{ stroke-dashoffset: 0;}}@keyframes kwNVYnau_draw_78{22.452407614781634%{stroke-dashoffset: 75}75.08398656215006%{ stroke-dashoffset: 0;}100%{ stroke-dashoffset: 0;}}@keyframes kwNVYnau_draw_79{22.639044419559536%{stroke-dashoffset: 55}75.27062336692796%{ stroke-dashoffset: 0;}100%{ stroke-dashoffset: 0;}}@keyframes kwNVYnau_draw_80{22.82568122433744%{stroke-dashoffset: 88}75.45726017170587%{ stroke-dashoffset: 0;}100%{ stroke-dashoffset: 0;}}@keyframes kwNVYnau_draw_81{23.01231802911534%{stroke-dashoffset: 28}75.64389697648377%{ stroke-dashoffset: 0;}100%{ stroke-dashoffset: 0;}}@keyframes kwNVYnau_draw_82{23.198954833893243%{stroke-dashoffset: 55}75.83053378126166%{ stroke-dashoffset: 0;}100%{ stroke-dashoffset: 0;}}@keyframes kwNVYnau_draw_83{23.385591638671144%{stroke-dashoffset: 69}76.01717058603957%{ stroke-dashoffset: 0;}100%{ stroke-dashoffset: 0;}}@keyframes kwNVYnau_draw_84{23.57222844344905%{stroke-dashoffset: 69}76.20380739081747%{ stroke-dashoffset: 0;}100%{ stroke-dashoffset: 0;}}@keyframes kwNVYnau_draw_85{23.75886524822695%{stroke-dashoffset: 32}76.39044419559538%{ stroke-dashoffset: 0;}100%{ stroke-dashoffset: 0;}}@keyframes kwNVYnau_draw_86{23.94550205300485%{stroke-dashoffset: 28}76.57708100037328%{ stroke-dashoffset: 0;}100%{ stroke-dashoffset: 0;}}@keyframes kwNVYnau_draw_87{24.132138857782753%{stroke-dashoffset: 55}76.76371780515117%{ stroke-dashoffset: 0;}100%{ stroke-dashoffset: 0;}}@keyframes kwNVYnau_draw_88{24.318775662560657%{stroke-dashoffset: 88}76.95035460992908%{ stroke-dashoffset: 0;}100%{ stroke-dashoffset: 0;}}@keyframes kwNVYnau_draw_89{24.50541246733856%{stroke-dashoffset: 64}77.13699141470698%{ stroke-dashoffset: 0;}100%{ stroke-dashoffset: 0;}}@keyframes kwNVYnau_draw_90{24.69204927211646%{stroke-dashoffset: 58}77.32362821948487%{ stroke-dashoffset: 0;}100%{ stroke-dashoffset: 0;}}@keyframes kwNVYnau_draw_91{24.87868607689436%{stroke-dashoffset: 35}77.51026502426278%{ stroke-dashoffset: 0;}100%{ stroke-dashoffset: 0;}}@keyframes kwNVYnau_draw_92{25.065322881672262%{stroke-dashoffset: 35}77.69690182904068%{ stroke-dashoffset: 0;}100%{ stroke-dashoffset: 0;}}@keyframes kwNVYnau_draw_93{25.251959686450164%{stroke-dashoffset: 69}77.88353863381859%{ stroke-dashoffset: 0;}100%{ stroke-dashoffset: 0;}}@keyframes kwNVYnau_draw_94{25.438596491228072%{stroke-dashoffset: 88}78.0701754385965%{ stroke-dashoffset: 0;}100%{ stroke-dashoffset: 0;}}@keyframes kwNVYnau_draw_95{25.625233296005973%{stroke-dashoffset: 69}78.25681224337438%{ stroke-dashoffset: 0;}100%{ stroke-dashoffset: 0;}}@keyframes kwNVYnau_draw_96{25.811870100783874%{stroke-dashoffset: 29}78.44344904815229%{ stroke-dashoffset: 0;}100%{ stroke-dashoffset: 0;}}@keyframes kwNVYnau_draw_97{25.998506905561776%{stroke-dashoffset: 50}78.6300858529302%{ stroke-dashoffset: 0;}100%{ stroke-dashoffset: 0;}}@keyframes kwNVYnau_draw_98{26.18514371033968%{stroke-dashoffset: 53}78.8167226577081%{ stroke-dashoffset: 0;}100%{ stroke-dashoffset: 0;}}@keyframes kwNVYnau_draw_99{26.371780515117578%{stroke-dashoffset: 40}79.003359462486%{ stroke-dashoffset: 0;}100%{ stroke-dashoffset: 0;}}@keyframes kwNVYnau_draw_100{26.558417319895483%{stroke-dashoffset: 40}79.18999626726391%{ stroke-dashoffset: 0;}100%{ stroke-dashoffset: 0;}}@keyframes kwNVYnau_draw_101{26.745054124673384%{stroke-dashoffset: 50}79.3766330720418%{ stroke-dashoffset: 0;}100%{ stroke-dashoffset: 0;}}@keyframes kwNVYnau_draw_102{26.931690929451285%{stroke-dashoffset: 38}79.5632698768197%{ stroke-dashoffset: 0;}100%{ stroke-dashoffset: 0;}}@keyframes kwNVYnau_draw_103{27.11832773422919%{stroke-dashoffset: 29}79.74990668159762%{ stroke-dashoffset: 0;}100%{ stroke-dashoffset: 0;}}@keyframes kwNVYnau_draw_104{27.30496453900709%{stroke-dashoffset: 53}79.93654348637551%{ stroke-dashoffset: 0;}100%{ stroke-dashoffset: 0;}}@keyframes kwNVYnau_draw_105{27.491601343784993%{stroke-dashoffset: 38}80.12318029115342%{ stroke-dashoffset: 0;}100%{ stroke-dashoffset: 0;}}@keyframes kwNVYnau_draw_106{27.678238148562894%{stroke-dashoffset: 29}80.30981709593131%{ stroke-dashoffset: 0;}100%{ stroke-dashoffset: 0;}}@keyframes kwNVYnau_draw_107{27.864874953340802%{stroke-dashoffset: 50}80.49645390070921%{ stroke-dashoffset: 0;}100%{ stroke-dashoffset: 0;}}@keyframes kwNVYnau_draw_108{28.051511758118703%{stroke-dashoffset: 50}80.68309070548713%{ stroke-dashoffset: 0;}100%{ stroke-dashoffset: 0;}}@keyframes kwNVYnau_draw_109{28.238148562896605%{stroke-dashoffset: 75}80.86972751026502%{ stroke-dashoffset: 0;}100%{ stroke-dashoffset: 0;}}@keyframes kwNVYnau_draw_110{28.424785367674506%{stroke-dashoffset: 29}81.05636431504293%{ stroke-dashoffset: 0;}100%{ stroke-dashoffset: 0;}}@keyframes kwNVYnau_draw_111{28.61142217245241%{stroke-dashoffset: 38}81.24300111982083%{ stroke-dashoffset: 0;}100%{ stroke-dashoffset: 0;}}@keyframes kwNVYnau_draw_112{28.798058977230312%{stroke-dashoffset: 58}81.42963792459874%{ stroke-dashoffset: 0;}100%{ stroke-dashoffset: 0;}}@keyframes kwNVYnau_draw_113{28.984695782008213%{stroke-dashoffset: 122}81.61627472937664%{ stroke-dashoffset: 0;}100%{ stroke-dashoffset: 0;}}@keyframes kwNVYnau_draw_114{29.171332586786118%{stroke-dashoffset: 93}81.80291153415455%{ stroke-dashoffset: 0;}100%{ stroke-dashoffset: 0;}}@keyframes kwNVYnau_draw_115{29.35796939156402%{stroke-dashoffset: 49}81.98954833893244%{ stroke-dashoffset: 0;}100%{ stroke-dashoffset: 0;}}@keyframes kwNVYnau_draw_116{29.544606196341917%{stroke-dashoffset: 45}82.17618514371033%{ stroke-dashoffset: 0;}100%{ stroke-dashoffset: 0;}}@keyframes kwNVYnau_draw_117{29.731243001119818%{stroke-dashoffset: 36}82.36282194848823%{ stroke-dashoffset: 0;}100%{ stroke-dashoffset: 0;}}@keyframes kwNVYnau_draw_118{29.917879805897723%{stroke-dashoffset: 33}82.54945875326614%{ stroke-dashoffset: 0;}100%{ stroke-dashoffset: 0;}}@keyframes kwNVYnau_draw_119{30.104516610675624%{stroke-dashoffset: 70}82.73609555804404%{ stroke-dashoffset: 0;}100%{ stroke-dashoffset: 0;}}@keyframes kwNVYnau_draw_120{30.291153415453525%{stroke-dashoffset: 34}82.92273236282193%{ stroke-dashoffset: 0;}100%{ stroke-dashoffset: 0;}}@keyframes kwNVYnau_draw_121{30.477790220231427%{stroke-dashoffset: 24}83.10936916759985%{ stroke-dashoffset: 0;}100%{ stroke-dashoffset: 0;}}@keyframes kwNVYnau_draw_122{30.66442702500933%{stroke-dashoffset: 37}83.29600597237776%{ stroke-dashoffset: 0;}100%{ stroke-dashoffset: 0;}}@keyframes kwNVYnau_draw_123{30.851063829787233%{stroke-dashoffset: 18}83.48264277715565%{ stroke-dashoffset: 0;}100%{ stroke-dashoffset: 0;}}@keyframes kwNVYnau_draw_124{31.03770063456513%{stroke-dashoffset: 13}83.66927958193355%{ stroke-dashoffset: 0;}100%{ stroke-dashoffset: 0;}}@keyframes kwNVYnau_draw_125{31.22433743934303%{stroke-dashoffset: 10}83.85591638671144%{ stroke-dashoffset: 0;}100%{ stroke-dashoffset: 0;}}@keyframes kwNVYnau_draw_126{31.410974244120936%{stroke-dashoffset: 12}84.04255319148936%{ stroke-dashoffset: 0;}100%{ stroke-dashoffset: 0;}}@keyframes kwNVYnau_draw_127{31.597611048898838%{stroke-dashoffset: 105}84.22918999626727%{ stroke-dashoffset: 0;}100%{ stroke-dashoffset: 0;}}@keyframes kwNVYnau_draw_128{31.78424785367674%{stroke-dashoffset: 11}84.41582680104516%{ stroke-dashoffset: 0;}100%{ stroke-dashoffset: 0;}}@keyframes kwNVYnau_draw_129{31.970884658454647%{stroke-dashoffset: 11}84.60246360582306%{ stroke-dashoffset: 0;}100%{ stroke-dashoffset: 0;}}@keyframes kwNVYnau_draw_130{32.15752146323255%{stroke-dashoffset: 35}84.78910041060097%{ stroke-dashoffset: 0;}100%{ stroke-dashoffset: 0;}}@keyframes kwNVYnau_draw_131{32.344158268010446%{stroke-dashoffset: 36}84.97573721537887%{ stroke-dashoffset: 0;}100%{ stroke-dashoffset: 0;}}@keyframes kwNVYnau_draw_132{32.53079507278835%{stroke-dashoffset: 34}85.16237402015678%{ stroke-dashoffset: 0;}100%{ stroke-dashoffset: 0;}}@keyframes kwNVYnau_draw_133{32.717431877566256%{stroke-dashoffset: 34}85.34901082493468%{ stroke-dashoffset: 0;}100%{ stroke-dashoffset: 0;}}@keyframes kwNVYnau_draw_134{32.90406868234415%{stroke-dashoffset: 34}85.53564762971257%{ stroke-dashoffset: 0;}100%{ stroke-dashoffset: 0;}}@keyframes kwNVYnau_draw_135{33.09070548712206%{stroke-dashoffset: 33}85.72228443449048%{ stroke-dashoffset: 0;}100%{ stroke-dashoffset: 0;}}@keyframes kwNVYnau_draw_136{33.277342291899956%{stroke-dashoffset: 34}85.90892123926838%{ stroke-dashoffset: 0;}100%{ stroke-dashoffset: 0;}}@keyframes kwNVYnau_draw_137{33.46397909667787%{stroke-dashoffset: 33}86.09555804404629%{ stroke-dashoffset: 0;}100%{ stroke-dashoffset: 0;}}@keyframes kwNVYnau_draw_138{33.650615901455765%{stroke-dashoffset: 17}86.28219484882419%{ stroke-dashoffset: 0;}100%{ stroke-dashoffset: 0;}}@keyframes kwNVYnau_draw_139{33.83725270623367%{stroke-dashoffset: 22}86.46883165360208%{ stroke-dashoffset: 0;}100%{ stroke-dashoffset: 0;}}@keyframes kwNVYnau_draw_140{34.023889511011575%{stroke-dashoffset: 11}86.65546845837999%{ stroke-dashoffset: 0;}100%{ stroke-dashoffset: 0;}}@keyframes kwNVYnau_draw_141{34.21052631578947%{stroke-dashoffset: 21}86.8421052631579%{ stroke-dashoffset: 0;}100%{ stroke-dashoffset: 0;}}</style></svg>
