<svg id="Layer_1" data-name="Layer 1" xmlns="http://www.w3.org/2000/svg" viewBox="0 0 527.69 280.3"><defs><style>.cls-1,.cls-3{fill:none;}.cls-1{stroke:#212426;stroke-miterlimit:10;}.cls-2{fill:#212426;}.cls-3{stroke:#221f1f;}.cls-4{fill:#979080;}.cls-5{fill:#fff;}.cls-6{font-size:45.49px;fill:#231f20;font-family:Montserrat-Bold, Montserrat;font-weight:700;}.cls-7{font-size:21px;fill:#010101;font-family:Raleway-Light, Raleway;}.cls-8{letter-spacing:-0.01em;}.cls-9{letter-spacing:-0.03em;}.cls-10{letter-spacing:0em;}.cls-11{letter-spacing:-0.02em;}.cls-12{letter-spacing:-0.02em;}.cls-13{letter-spacing:-0.03em;}.cls-14{letter-spacing:-0.01em;}.cls-15{letter-spacing:0em;}</style></defs><title>scrolls_head</title><path class="cls-1" d="M137,407.05q-9-3-15.12-3a14,14,0,0,0-7.59,1.77,5.78,5.78,0,0,0-2.77,5.18,7.09,7.09,0,0,0,2.41,5.47,18.43,18.43,0,0,0,6,3.55q3.55,1.35,10.51,3.48a136.72,136.72,0,0,1,17.11,6A29.93,29.93,0,0,1,159,438.64q4.82,6.18,4.83,16.11a27.54,27.54,0,0,1-5.25,17,31.84,31.84,0,0,1-14.41,10.58,56,56,0,0,1-20.37,3.55,73.65,73.65,0,0,1-24.63-4.33A67.37,67.37,0,0,1,78,469.66l10.08-20.3a62.67,62.67,0,0,0,17.82,10.93q10.29,4.26,18.24,4.26,5.82,0,9.16-2.13a7,7,0,0,0,3.34-6.25,7.38,7.38,0,0,0-2.48-5.68,18.32,18.32,0,0,0-6.25-3.62q-3.76-1.35-10.58-3.19a130.28,130.28,0,0,1-16.89-5.75A29.85,29.85,0,0,1,89,429.13q-4.76-5.89-4.76-15.69a27.4,27.4,0,0,1,4.9-16.18A31.18,31.18,0,0,1,103,386.54,54.07,54.07,0,0,1,124,382.78a76,76,0,0,1,21.29,3.05A70.17,70.17,0,0,1,163.72,394l-9.8,20.73A87.31,87.31,0,0,0,137,407.05Z" transform="translate(-24.13 -318.49)"/><path class="cls-1" d="M211.56,427.5a13.66,13.66,0,0,0-11.07,5.18q-4.26,5.18-4.26,13.42t4.26,13.49a13.73,13.73,0,0,0,11.07,5.11q10.5,0,15-8.66l18.6,10.65a31.58,31.58,0,0,1-13.63,13.63q-9.09,4.83-21.29,4.83a43,43,0,0,1-20.73-4.83,34,34,0,0,1-13.84-13.63,41.35,41.35,0,0,1-4.9-20.44,42.37,42.37,0,0,1,5-20.8,34.42,34.42,0,0,1,14-13.91,46.46,46.46,0,0,1,41.24-.14,34.25,34.25,0,0,1,13.91,13.42l-18.31,10.65A17.19,17.19,0,0,0,211.56,427.5Z" transform="translate(-24.13 -318.49)"/><path class="cls-1" d="M292.46,410.23a29.61,29.61,0,0,1,14.6-3.55v23.14q-1.3-.14-3.88-.14-9.06,0-14.67,4.19A16,16,0,0,0,282,445.29v38.9H257V407.67h25v12.78A27.87,27.87,0,0,1,292.46,410.23Z" transform="translate(-24.13 -318.49)"/><path class="cls-1" d="M375.52,411.53a35.82,35.82,0,0,1,14.76,13.77,43,43,0,0,1,0,41.17,35.81,35.81,0,0,1-14.76,13.77,51.88,51.88,0,0,1-44,0,35.32,35.32,0,0,1-14.69-13.77,43.48,43.48,0,0,1,0-41.17,35.32,35.32,0,0,1,14.69-13.77,51.88,51.88,0,0,1,44,0Zm-33.93,20.8q-4.55,5.25-4.54,13.77T341.59,460a15,15,0,0,0,11.92,5.25A15.16,15.16,0,0,0,365.59,460q4.54-5.25,4.54-13.91t-4.61-13.77a15.22,15.22,0,0,0-12-5.25A15,15,0,0,0,341.59,432.32Z" transform="translate(-24.13 -318.49)"/><path class="cls-2" d="M147.48,413.61a46.46,46.46,0,0,0-14.06-2.77,13,13,0,0,0-7.06,1.65,5.37,5.37,0,0,0-2.57,4.82,6.59,6.59,0,0,0,2.24,5.08,17.14,17.14,0,0,0,5.55,3.3q3.3,1.26,9.77,3.23a127.15,127.15,0,0,1,15.91,5.55A27.84,27.84,0,0,1,168,443q4.49,5.74,4.49,15a25.61,25.61,0,0,1-4.88,15.78,29.61,29.61,0,0,1-13.4,9.84,52.06,52.06,0,0,1-18.95,3.3,68.49,68.49,0,0,1-22.91-4,62.66,62.66,0,0,1-19.74-11L102,453a58.28,58.28,0,0,0,16.57,10.17q9.57,4,17,4,5.41,0,8.52-2a6.46,6.46,0,0,0,3.1-5.81,6.86,6.86,0,0,0-2.31-5.28,17,17,0,0,0-5.81-3.37q-3.5-1.25-9.84-3a121.16,121.16,0,0,1-15.71-5.35,27.76,27.76,0,0,1-10.63-8.19q-4.43-5.48-4.42-14.59A25.48,25.48,0,0,1,103,404.5a29,29,0,0,1,12.94-10A50.29,50.29,0,0,1,135.4,391a70.68,70.68,0,0,1,19.8,2.84,65.26,65.26,0,0,1,17.16,7.59l-9.11,19.28A81.2,81.2,0,0,0,147.48,413.61Z" transform="translate(-24.13 -318.49)"/><path class="cls-2" d="M216.86,432.62a12.7,12.7,0,0,0-10.3,4.82q-4,4.82-4,12.48t4,12.54a12.77,12.77,0,0,0,10.3,4.75q9.77,0,14-8.05l17.29,9.9a29.37,29.37,0,0,1-12.67,12.67,41.61,41.61,0,0,1-19.8,4.49,40,40,0,0,1-19.28-4.49,31.58,31.58,0,0,1-12.87-12.67,38.45,38.45,0,0,1-4.55-19,39.41,39.41,0,0,1,4.62-19.34,32,32,0,0,1,13-12.94,43.21,43.21,0,0,1,38.35-.13,31.85,31.85,0,0,1,12.94,12.48l-17,9.9A16,16,0,0,0,216.86,432.62Z" transform="translate(-24.13 -318.49)"/><path class="cls-2" d="M291.92,416.13a26.71,26.71,0,0,1,13.35-3.3v21.52a35.43,35.43,0,0,0-3.55-.13q-8.29,0-13.41,3.89a15,15,0,0,0-5.92,10.63v36.52h-23.6V413.75h23.6v11.88A25.69,25.69,0,0,1,291.92,416.13Z" transform="translate(-24.13 -318.49)"/><path class="cls-2" d="M369.35,417.77a33.31,33.31,0,0,1,13.73,12.81,40,40,0,0,1,0,38.29,33.31,33.31,0,0,1-13.73,12.81,48.25,48.25,0,0,1-40.93,0,32.85,32.85,0,0,1-13.66-12.81,40.43,40.43,0,0,1,0-38.29,32.85,32.85,0,0,1,13.66-12.81,48.25,48.25,0,0,1,40.93,0ZM337.8,437.11q-4.23,4.89-4.22,12.81t4.22,12.94a14,14,0,0,0,11.09,4.88,14.1,14.1,0,0,0,11.22-4.88q4.22-4.88,4.22-12.94T360,437.11a14.16,14.16,0,0,0-11.16-4.88A14,14,0,0,0,337.8,437.11Z" transform="translate(-24.13 -318.49)"/><path class="cls-3" d="M389.3,581.44V554.27H503v27.17Z" transform="translate(-24.13 -318.49)"/><path class="cls-2" d="M444,386.58h23.6v98H444Z" transform="translate(-24.13 -318.49)"/><path class="cls-2" d="M515.72,429.44a9.34,9.34,0,0,0-4.88,1.12,3.68,3.68,0,0,0-1.85,3.37q0,2.38,2.91,3.83a53.46,53.46,0,0,0,9.24,3.17,115.9,115.9,0,0,1,12.74,4.42,23.32,23.32,0,0,1,8.78,6.6q3.69,4.42,3.7,11.55,0,10.83-8.38,17t-21.85,6.14A58.61,58.61,0,0,1,498.69,484a46.14,46.14,0,0,1-14.79-7.59l7.39-15.18A52,52,0,0,0,504,467.79a38.53,38.53,0,0,0,12.61,2.31,11.41,11.41,0,0,0,5.48-1.12,3.52,3.52,0,0,0,2-3.23q0-2.64-3-4.09a56.55,56.55,0,0,0-9.31-3.17,104.16,104.16,0,0,1-12.41-4.42,23.41,23.41,0,0,1-8.52-6.54q-3.63-4.36-3.63-11.35,0-10.82,8.19-17t21.12-6.14a57.34,57.34,0,0,1,29.71,8.32l-7.92,15.31Q524.57,429.44,515.72,429.44Z" transform="translate(-24.13 -318.49)"/><path class="cls-1" d="M437.21,374.06h26.46v108.7H437.21Z" transform="translate(-24.13 -318.49)"/><path class="cls-1" d="M517.07,421.88a10.4,10.4,0,0,0-5.44,1.25,4.1,4.1,0,0,0-2.06,3.75q0,2.64,3.23,4.26a59.51,59.51,0,0,0,10.29,3.53,129,129,0,0,1,14.18,4.92,26,26,0,0,1,9.77,7.35q4.11,4.92,4.11,12.86,0,12.05-9.33,18.88t-24.32,6.83a65.24,65.24,0,0,1-19.4-2.87,51.36,51.36,0,0,1-16.46-8.45l8.23-16.9a57.89,57.89,0,0,0,14.18,7.27,42.88,42.88,0,0,0,14,2.57,12.7,12.7,0,0,0,6.1-1.25,3.92,3.92,0,0,0,2.28-3.6q0-2.94-3.31-4.56a62.94,62.94,0,0,0-10.36-3.53A115.93,115.93,0,0,1,499,449.29a26.05,26.05,0,0,1-9.48-7.27q-4-4.85-4-12.64,0-12,9.11-18.88t23.51-6.83a63.82,63.82,0,0,1,33.06,9.26l-8.82,17Q526.92,421.88,517.07,421.88Z" transform="translate(-24.13 -318.49)"/><path class="cls-2" d="M411.38,493.92l-.57.38c-1.21.07-2.42.08-3.63.2-4.3.46-5.15,0-6.52-3.81l-.1-1.86c.78-2.75.06-5.54.16-8.32,0-.87.45-2-.62-2.62l0-2.34a3.74,3.74,0,0,0,.36-1.1q-.07-13.79-.18-27.59c0-.55.08-1.17-.62-1.43l0-2.83a.86.86,0,0,0,0-1.46v-.85c.88-.59.9-1.17,0-1.74v-.86c.49-.33.39-.85.4-1.33.09-5.2.3-10.4.19-15.59,0-2,.75-2.44,2.36-2.63s3.38,0,4.78-1.19l.6.83c-.13,15.42-.75,30.85.49,46.25a102.41,102.41,0,0,0,.9-15.66c.11-9.25.24-18.49.31-27.74,0-1.35.08-2.46,1.78-2.5l.88.28c0,7.52-.06,15,0,22.57Q412.37,467.46,411.38,493.92Z" transform="translate(-24.13 -318.49)"/><path class="cls-2" d="M399.12,367.88l0-2.32c1.22-2.61.8-5.32.45-8l.15-2.27a4,4,0,0,0,.36-4.12l.1-1.29c1-.95.79-2,.36-3.14l.07-.85a8.34,8.34,0,0,0,.47-.8,3.19,3.19,0,0,1,3.94-1.7c1.41.31.66,1.81.69,2.75.51,16.84.7,33.69.4,50.54,0,.76-.29,1.66.6,2.21v0c0,.33.12.47.44.47a2.56,2.56,0,0,0,1.95.72c-.18.3.06,1-.48.92-1.9-.14-1.52,1-1.33,2.14-1.53,1.31.25,2.08.5,3.11-.23,1.62.57,3.25-.06,4.87-.55.09-.53.52-.54.92a9.3,9.3,0,0,0-5.25-.67c-2.26.28-2.51-.63-2.5-2.53.05-12.8,0-25.6,0-38.4C399.48,369.58,399.88,368.64,399.12,367.88Z" transform="translate(-24.13 -318.49)"/><path class="cls-4" d="M407,398.86c-.89-.55-.61-1.45-.6-2.21.3-16.85.11-33.7-.4-50.54,0-.94.73-2.43-.69-2.75a3.19,3.19,0,0,0-3.94,1.7,8.34,8.34,0,0,1-.47.8c.42-3.19-.07-6.55,1.65-9.52-.18,1.79.67,2.28,2.46,1.92a11.91,11.91,0,0,1,3.49-.12c1.95.19,2.11-.68,1.48-2.22,1.78.68,1.78.68,1.82,3.07a32.29,32.29,0,0,0-3.34,0c-.8.08-2.06-.77-2.29.86a2.73,2.73,0,0,0,1.55,3.13c.93.51,2.24.63,2.69,1.88.12.33.3.66.46,0s0-1.28.94-1a1.71,1.71,0,0,1,1.21,1.67c.27,2.19.61,4.38.82,6.57,1.13,11.82,1.3,23.69,1.38,35.55q.07,10.93.09,21.85c0,.75.28,2-.72,2s-2.35.83-3.38-.23c0,0,.14-.26.22-.39,1.79-.69,1.53-2.24,1.52-3.66q-.26-24.17-.54-48.35c0-.75-.07-1.5-.11-2.25h-.42V367a3.23,3.23,0,0,1-.93-2.68c0-1.48-.54-2.18-2.2-2.14-1.88,0-1.07,1.34-1.09,2.06C407.15,375.75,408.47,387.33,407,398.86Z" transform="translate(-24.13 -318.49)"/><path class="cls-4" d="M400.67,490.69c1.37,3.79,2.22,4.27,6.52,3.81,1.2-.13,2.42-.14,3.63-.2-.08,6-1.16,12-1.68,18a44.74,44.74,0,0,0-.58,4.59c0,1.81-2.18,1.26-2.41,2.64a2,2,0,0,1-1.63-1.87c-1-6.44-2-12.88-3-19.32C401.11,495.81,399.94,493.36,400.67,490.69Z" transform="translate(-24.13 -318.49)"/><path class="cls-4" d="M411.38,493.92q1-26.46.89-52.94c0-7.52,0-15,0-22.57,1.54-.43,2,.2,2,1.73-.06,23.86.28,47.73-1.16,71.57C413.09,492.86,413.2,494.17,411.38,493.92Z" transform="translate(-24.13 -318.49)"/><path class="cls-4" d="M399.12,367.88c.76.76.36,1.71.36,2.55,0,12.8.07,25.6,0,38.4,0,1.9.24,2.8,2.5,2.53a9.3,9.3,0,0,1,5.25.67,4.58,4.58,0,0,1,.09,4.93c-1.39,1.18-3.14,1-4.77,1.19s-2.41.67-2.36,2.63c.11,5.19-.1,10.39-.19,15.59,0,.48.08,1-.4,1.33a2.8,2.8,0,0,1-.33-.88c-.2-22.53-1.14-45-.54-67.58C398.75,368.75,398.69,368.24,399.12,367.88Z" transform="translate(-24.13 -318.49)"/><path class="cls-4" d="M411.42,418.13c-1.71,0-1.77,1.15-1.78,2.5-.07,9.25-.2,18.49-.31,27.74a102.41,102.41,0,0,1-.9,15.66c-1.24-15.4-.62-30.83-.49-46.25-.19-2.35,2.19-1.81,3.27-2.73.45-.38,1,.87.85,1.6C412,417.16,411.22,417.45,411.42,418.13Z" transform="translate(-24.13 -318.49)"/><path class="cls-2" d="M411.82,367V356.69h.42c0,.75.1,1.5.11,2.25q.28,24.17.54,48.35c0,1.43.27,3-1.52,3.66-.41.45-.92.29-1.41.2-.23-3.75,2.19-7.49,0-11.24A2.38,2.38,0,0,0,411.5,398a.69.69,0,0,0,.35-.87l-.19-1.8a25.63,25.63,0,0,0,.42-6c-.07-5.16.46-15.47.46-15.47v-.61A20,20,0,0,1,411.82,367Z" transform="translate(-24.13 -318.49)"/><path class="cls-4" d="M399.62,445.44c.71.26.62.88.62,1.43q.11,13.79.18,27.59a3.74,3.74,0,0,1-.36,1.1c-.63-.78-.41-1.72-.42-2.58q-.17-12.94-.27-25.88A10.81,10.81,0,0,1,399.62,445.44Z" transform="translate(-24.13 -318.49)"/><path class="cls-2" d="M409.73,335.93c.64,1.56.46,2.44-1.58,2.21a13,13,0,0,0-3.59.17c-1.66.28-2.44-.23-2.26-2C404.69,334.51,407.21,335.18,409.73,335.93Z" transform="translate(-24.13 -318.49)"/><path class="cls-4" d="M409.81,399.9c2.14,3.76-.28,7.49,0,11.24l-2,0c.63-1.61-.16-3.25.06-4.87.94-.19.57-1.34,1.08-1.64.93-.54.8-.71.15-1.49-.78-.94-1.17-.4-1.73,0-.19-1.1-.57-2.28,1.33-2.14.54,0,.3-.62.48-.92Z" transform="translate(-24.13 -318.49)"/><path class="cls-4" d="M400.11,477.9c1.08.66.65,1.75.62,2.62-.1,2.77.62,5.56-.16,8.32A39.66,39.66,0,0,1,400.11,477.9Z" transform="translate(-24.13 -318.49)"/><path class="cls-4" d="M399.62,357.54c.35,2.7.77,5.41-.45,8C398.89,362.86,398.66,360.17,399.62,357.54Z" transform="translate(-24.13 -318.49)"/><path class="cls-4" d="M400.13,351.15a4,4,0,0,1-.36,4.12A5,5,0,0,1,400.13,351.15Z" transform="translate(-24.13 -318.49)"/><path class="cls-4" d="M400.59,346.72c.43,1.11.62,2.19-.36,3.14A3.49,3.49,0,0,1,400.59,346.72Z" transform="translate(-24.13 -318.49)"/><path class="cls-4" d="M399.61,438.56c.92.57.9,1.15,0,1.74A1.68,1.68,0,0,1,399.61,438.56Z" transform="translate(-24.13 -318.49)"/><path class="cls-4" d="M399.63,441.15a.86.86,0,0,1,0,1.46A.87.87,0,0,1,399.63,441.15Z" transform="translate(-24.13 -318.49)"/><path class="cls-5" d="M409.81,399.9l-.64.18a2.56,2.56,0,0,1-1.95-.72c0-.25-.11-.49-.44-.47v0c1.5-11.53.18-23.11.63-34.67,0-.73-.78-2,1.09-2.06,1.67,0,2.16.67,2.2,2.14a3.23,3.23,0,0,0,.93,2.68l0,6.27c-.3.2-.3.4,0,.61q0,6.34,0,12.67a23.82,23.82,0,0,0-.06,8l-.1,2.28a.85.85,0,0,0-.2,1.17A2.38,2.38,0,0,1,409.81,399.9Z" transform="translate(-24.13 -318.49)"/><path class="cls-5" d="M407.36,403.14c.57-.42,1-1,1.73,0,.64.78.78.95-.15,1.49-.51.3-.14,1.45-1.08,1.64C407.61,405.22,405.83,404.45,407.36,403.14Z" transform="translate(-24.13 -318.49)"/><path class="cls-4" d="M406.78,398.88c.33,0,.4.22.44.47C406.9,399.36,406.74,399.21,406.78,398.88Z" transform="translate(-24.13 -318.49)"/><path class="cls-4" d="M411.59,394.5a23.82,23.82,0,0,1,.06-8A29.88,29.88,0,0,1,411.59,394.5Z" transform="translate(-24.13 -318.49)"/><path class="cls-4" d="M411.3,398a.85.85,0,0,1,.2-1.17C411.78,397.23,411.79,397.63,411.3,398Z" transform="translate(-24.13 -318.49)"/><path class="cls-4" d="M411.65,373.84c-.29-.21-.3-.41,0-.61Z" transform="translate(-24.13 -318.49)"/><path class="cls-1" d="M416.45,499.9l-.66.43c-1.4.07-2.81.09-4.2.23-5,.52-6,0-7.56-4.33l-.11-2.11c.91-3.13.07-6.31.19-9.46,0-1,.52-2.23-.72-3l-.05-2.66a4.2,4.2,0,0,0,.41-1.25q-.08-15.69-.21-31.38c0-.63.1-1.34-.72-1.63l0-3.22a1,1,0,0,0,0-1.67v-1c1-.67,1-1.33,0-2v-1c.56-.38.46-1,.47-1.51.1-5.91.35-11.82.22-17.73,0-2.22.87-2.78,2.74-3s3.92,0,5.54-1.35l.7.94c-.15,17.54-.87,35.08.57,52.59,1-5.91,1-11.87,1-17.81.12-10.52.28-21,.36-31.55,0-1.53.09-2.79,2.07-2.84l1,.32c0,8.55-.06,17.11,0,25.66Q417.59,469.81,416.45,499.9Z" transform="translate(-24.13 -318.49)"/><path class="cls-1" d="M402.23,356.56l.05-2.63c1.41-3,.92-6,.52-9.12l.18-2.58c1.16-1.48,1-3.06.41-4.69l.11-1.47c1.14-1.08.92-2.31.42-3.57l.08-1a9.45,9.45,0,0,0,.55-.91c.93-2,2.82-2.31,4.57-1.93s.77,2.06.8,3.12c.6,19.16.81,38.32.46,57.48,0,.86-.33,1.89.7,2.51l0,0c0,.38.14.54.51.54a3,3,0,0,0,2.26.81c-.21.35.07,1.09-.55,1-2.2-.16-1.76,1.18-1.54,2.44-1.77,1.49.3,2.37.58,3.53-.26,1.84.66,3.7-.07,5.54-.64.1-.61.59-.63,1.05a11,11,0,0,0-6.08-.77c-2.62.32-2.91-.71-2.9-2.87.06-14.56,0-29.12,0-43.67C402.65,358.5,403.11,357.42,402.23,356.56Z" transform="translate(-24.13 -318.49)"/><path class="cls-1" d="M410.84,391.8c-1-.62-.71-1.65-.7-2.51.35-19.16.13-38.32-.46-57.48,0-1.07.84-2.77-.8-3.12s-3.64-.08-4.57,1.93a9.45,9.45,0,0,1-.55.91c.49-3.63-.09-7.45,1.91-10.82-.2,2,.7,2.55,2.62,2.23a15.37,15.37,0,0,1,4.16-.19c2.36.26,2.56-.74,1.83-2.52,2.06.77,2.06.77,2.1,3.49a38.16,38.16,0,0,0-3.87,0c-.93.1-2.39-.88-2.65,1a3.09,3.09,0,0,0,1.79,3.56c1.08.58,2.6.71,3.12,2.13.14.38.35.75.53,0s0-1.45,1.09-1.19a2,2,0,0,1,1.4,1.9c.32,2.49.71,5,.95,7.47,1.31,13.45,1.51,26.94,1.6,40.43q.08,12.43.1,24.85c0,.85.32,2.32-.84,2.32s-2.72.95-3.92-.26c0,0,.16-.29.25-.44,2.07-.78,1.78-2.55,1.76-4.17q-.3-27.49-.63-55c0-.85-.08-1.7-.12-2.56h-.49v11.67a3.63,3.63,0,0,1-1.08-3c0-1.68-.62-2.48-2.55-2.44-2.18,0-1.24,1.52-1.27,2.35C411.05,365.51,412.59,378.68,410.84,391.8Z" transform="translate(-24.13 -318.49)"/><path class="cls-1" d="M404,496.23c1.59,4.3,2.57,4.85,7.56,4.33,1.39-.15,2.8-.16,4.2-.23-.09,6.88-1.34,13.65-1.94,20.49a50,50,0,0,0-.68,5.22c0,2.06-2.52,1.43-2.79,3a2.34,2.34,0,0,1-1.89-2.12c-1.16-7.32-2.28-14.65-3.48-22C404.53,502.06,403.18,499.27,404,496.23Z" transform="translate(-24.13 -318.49)"/><path class="cls-1" d="M416.45,499.9q1.12-30.09,1-60.2c0-8.55,0-17.11,0-25.66,1.78-.49,2.35.23,2.35,2-.06,27.14.32,54.28-1.35,81.39C418.43,498.69,418.55,500.19,416.45,499.9Z" transform="translate(-24.13 -318.49)"/><path class="cls-1" d="M402.23,356.56c.88.86.41,1.94.42,2.91,0,14.56.08,29.12,0,43.67,0,2.16.28,3.19,2.9,2.87a11,11,0,0,1,6.08.77,5.12,5.12,0,0,1,.1,5.6c-1.62,1.34-3.64,1.14-5.53,1.35s-2.79.77-2.74,3c.13,5.91-.12,11.82-.22,17.73,0,.54.1,1.13-.47,1.51a3.14,3.14,0,0,1-.38-1c-.23-25.62-1.32-51.23-.62-76.86C401.8,357.56,401.73,357,402.23,356.56Z" transform="translate(-24.13 -318.49)"/><path class="cls-1" d="M416.49,413.72c-2,0-2.06,1.31-2.07,2.84-.08,10.52-.24,21-.36,31.55-.07,5.95,0,11.9-1,17.81-1.44-17.51-.72-35.06-.57-52.59-.22-2.67,2.54-2.06,3.79-3.1.52-.43,1.15,1,1,1.82C417.12,412.61,416.26,412.94,416.49,413.72Z" transform="translate(-24.13 -318.49)"/><path class="cls-1" d="M416.47,355.51V343.84H417c0,.85.11,1.7.12,2.56q.32,27.49.63,55c0,1.62.31,3.38-1.76,4.17-.48.52-1.06.33-1.63.22-.27-4.26,2.54-8.51.05-12.78a2.72,2.72,0,0,0,1.73-2.21.78.78,0,0,0,.4-1l-.22-2.05a28.61,28.61,0,0,0,.48-6.79c-.08-5.87.42-17.6.42-17.6v-.69A25.91,25.91,0,0,1,416.47,355.51Z" transform="translate(-24.13 -318.49)"/><path class="cls-1" d="M402.81,444.77c.82.3.72,1,.72,1.63q.12,15.69.21,31.38a4.2,4.2,0,0,1-.41,1.25c-.73-.88-.47-2-.49-2.94q-.2-14.71-.31-29.43A12.08,12.08,0,0,1,402.81,444.77Z" transform="translate(-24.13 -318.49)"/><path class="cls-1" d="M414.53,320.23c.74,1.78.53,2.78-1.83,2.52a15.37,15.37,0,0,0-4.16.19c-1.92.32-2.82-.27-2.62-2.23C408.68,318.61,411.61,319.37,414.53,320.23Z" transform="translate(-24.13 -318.49)"/><path class="cls-1" d="M414.62,393c2.48,4.27-.32,8.52-.05,12.78l-2.28,0c.73-1.84-.19-3.69.08-5.54,1.09-.22.66-1.52,1.25-1.86,1.08-.62.92-.81.18-1.69-.9-1.07-1.35-.45-2,0-.22-1.26-.66-2.6,1.54-2.44.62,0,.34-.7.55-1Z" transform="translate(-24.13 -318.49)"/><path class="cls-1" d="M403.38,481.68c1.25.75.76,2,.72,3-.12,3.15.72,6.33-.19,9.46A44.26,44.26,0,0,1,403.38,481.68Z" transform="translate(-24.13 -318.49)"/><path class="cls-1" d="M402.81,344.81c.4,3.07.89,6.15-.52,9.12C402,350.86,401.7,347.8,402.81,344.81Z" transform="translate(-24.13 -318.49)"/><path class="cls-1" d="M403.4,337.54c.59,1.62.75,3.21-.41,4.69A5.57,5.57,0,0,1,403.4,337.54Z" transform="translate(-24.13 -318.49)"/><path class="cls-1" d="M403.93,332.5c.5,1.26.72,2.5-.42,3.57A3.91,3.91,0,0,1,403.93,332.5Z" transform="translate(-24.13 -318.49)"/><path class="cls-1" d="M402.8,436.94c1.06.65,1,1.31,0,2A1.88,1.88,0,0,1,402.8,436.94Z" transform="translate(-24.13 -318.49)"/><path class="cls-1" d="M402.82,439.89a1,1,0,0,1,0,1.67A1,1,0,0,1,402.82,439.89Z" transform="translate(-24.13 -318.49)"/><path class="cls-1" d="M414.62,393l-.74.2a3,3,0,0,1-2.26-.81c0-.29-.12-.55-.51-.54l0,0c1.74-13.12.21-26.29.73-39.42,0-.83-.91-2.3,1.27-2.35,1.93,0,2.51.76,2.55,2.44a3.63,3.63,0,0,0,1.08,3l0,7.13c-.35.23-.35.46,0,.69q0,7.21,0,14.41a26.59,26.59,0,0,0-.07,9.08l-.11,2.6a1,1,0,0,0-.23,1.33A2.72,2.72,0,0,1,414.62,393Z" transform="translate(-24.13 -318.49)"/><path class="cls-1" d="M411.78,396.66c.66-.47,1.11-1.1,2,0,.75.89.9,1.08-.18,1.69-.59.34-.16,1.64-1.25,1.86C412.08,399,410,398.15,411.78,396.66Z" transform="translate(-24.13 -318.49)"/><path class="cls-1" d="M411.11,391.82c.39,0,.46.25.51.54C411.25,392.36,411.06,392.2,411.11,391.82Z" transform="translate(-24.13 -318.49)"/><path class="cls-1" d="M416.69,386.83a26.59,26.59,0,0,1,.07-9.08A33.34,33.34,0,0,1,416.69,386.83Z" transform="translate(-24.13 -318.49)"/><path class="cls-1" d="M416.35,390.76a1,1,0,0,1,.23-1.33C416.91,389.94,416.92,390.4,416.35,390.76Z" transform="translate(-24.13 -318.49)"/><path class="cls-1" d="M416.76,363.34c-.34-.23-.34-.46,0-.69Z" transform="translate(-24.13 -318.49)"/><rect class="cls-2" x="384.11" y="205.39" width="2.86" height="30.03"/><rect class="cls-2" x="426.3" y="163.2" width="3.58" height="72.94"/><text class="cls-6" transform="translate(391.11 259.74)">2018</text><text class="cls-7" transform="translate(0 49.1)">Aj<tspan class="cls-8" x="18.67" y="0">a</tspan><tspan class="cls-9" x="29.67" y="0">y</tspan><tspan class="cls-10" x="40.45" y="0"> </tspan><tspan class="cls-11" x="45.84" y="0">K</tspan><tspan x="58.82" y="0">uma</tspan><tspan class="cls-12" x="101.64" y="0">r</tspan><tspan class="cls-10" x="108.3" y="0" xml:space="preserve"> Ga</tspan><tspan class="cls-13" x="140.03" y="0">r</tspan><tspan x="146.64" y="0">g </tspan><tspan class="cls-14" x="164.89" y="0">E</tspan><tspan class="cls-15" x="177.62" y="0">ngineering College </tspan></text></svg>