<!--?xml version="1.0" encoding="utf-8"?-->
<!-- Generator: Adobe Illustrator 22.0.1, SVG Export Plug-In . SVG Version: 6.00 Build 0)  -->
<svg version="1.1" id="Layer_1" xmlns="http://www.w3.org/2000/svg" xmlns:xlink="http://www.w3.org/1999/xlink" x="0px" y="0px" viewBox="0 0 463.5 399.6" style="" xml:space="preserve">
<style type="text/css">
	.st0{opacity:0.5;}
	.st1{opacity:0.28;fill:#0D518E;enable-background:new    ;}
	.st2{fill:#C5C8CA;}
	.st3{opacity:0.88;fill:#403F40;}
	.st4{opacity:0.88;fill:#C5C8CA;}
	.st5{opacity:0.88;fill:#EC8D22;}
	.st6{opacity:0.88;fill:#E97A26;}
	.st7{opacity:0.88;fill:#FFFFFF;enable-background:new    ;}
	.st8{opacity:0.88;fill:#1C3F75;}
	.st9{opacity:0.88;fill:#FFFFFF;}
	.st10{opacity:0.88;fill:#C3E5F1;enable-background:new    ;}
	.st11{opacity:0.88;fill:#C3E5F1;}
	.st12{opacity:0.88;}
	.st13{fill:#FFFFFF;}
	.st14{opacity:0.88;fill:#F07B22;}
	.st15{opacity:0.88;fill:#D7E4F5;}
	.st16{opacity:0.88;fill:#9ED2AB;}
	.st17{opacity:0.88;fill:#B3DCB9;}
	.st18{fill:#403F40;}
	.st19{fill:none;stroke:#FFFFFF;stroke-width:2;stroke-miterlimit:10;}
	.st20{fill:none;stroke:#FFFFFF;stroke-miterlimit:10;}
	.st21{fill:#3F9BE0;enable-background:new    ;}
	.st22{fill:none;stroke:#3F9BE0;stroke-width:4;stroke-miterlimit:10;enable-background:new    ;}
	.st23{fill:none;stroke:#403F40;stroke-width:5;stroke-miterlimit:10;}
</style>
<title>electrical_and_electronics</title>
<g class="st0">
	<path class="st1 FPncjtJx_0" d="M3.5,318.3c-7.2-36,32.1-38.5,31.1-53.7c-0.2-2.6-49.6-42-9.3-89.8c37.8-44.8,81.2-15.2,86.5-11.3
		c0.1,0.1,0.2,0.1,0.3,0c0-0.1,0.1-0.1,0-0.2c-2.4-6.7-21.8-63.8,0.8-91.5c26.8-32.8,61.4-17.3,77.1-18.4
		c25.3-1.7,40.5-63.6,115.2-48.8c109.4,21.8,60,124.3,60,124.3s65-42.3,91.3,16.6c24.2,54.2,2.6,106.1-65.1,118
		c-6.1,1-10.9,5.9-11.9,12c-1.9,13.3-0.8,30.5-26.5,58.4c-33.2,35.9-140.7,24.9-140.7,24.9s-42.4-16.9-87.2-0.7
		C88.3,371.5,12.9,365.6,3.5,318.3z"></path>
	<path class="st1 FPncjtJx_1" d="M144.8,26.6c-0.6,2.6,0,5.3,1.7,7.3c1.7,2,3.8,3.5,6.2,4.6c8,4,17.3,5.7,26,3.6c8.7-2,16.6-8,20.2-16.2
		c1.1-2.5,1.7-5.4,0.4-7.7c-0.6-1-1.5-1.8-2.4-2.4c-9.3-6.4-20.3-2.1-30.3-0.4C159.4,16.6,147.4,18.1,144.8,26.6z"></path>
	<path class="st1 FPncjtJx_2" d="M222.4,2.8c-0.2-0.6-0.5-1.1-1-1.5c-0.5-0.4-1.1-0.6-1.7-0.6c-3.1-0.3-5.9,1.7-8,3.9c-1.4,1.5-2.6,3.2-4,4.7
		c-0.8,0.3-1.6,0.6-2.4,1c-1.5,0.8-3,2.3-2.9,4s1.8,3,3.4,3.7c4.5,1.9,9.8,1.1,13.5-2.1C223,12.6,224.2,7.4,222.4,2.8z"></path>
	<path class="st1 FPncjtJx_3" d="M377.4,81c-3.2,17.4-9.9,36.6,5.7,25.6c42.2-29.7,3.1-80.9-2.6-60.9C378.6,52.2,385.2,62.9,377.4,81"></path>
	<path class="st1 FPncjtJx_4" d="M362.2,27.2c1.2,0.8,2.8,0.9,4.1,1.6c1.5,0.7,2.7,2,4,3c1.3,1,3.1,1.7,4.7,1.1c2.2-1,2.5-3.9,2.4-6.3
		c-0.2-5.9-8-14.3-14.5-13.5C354.8,14.2,357,23.9,362.2,27.2z"></path>
</g>
<path class="st2 FPncjtJx_5" d="M121.4,366.6c-19.1,0-35.8-3.8-48.1-11.1c-18.3-10.9-26.6-29.6-24.1-54c2.4-23.6,14.4-33.1,24.9-36.9
	c-12.9-23.5-16-63.5-5.5-84.9c35-71.9,94.2-99.4,204.2-95.1c50.8,2,81.3,20.5,105.8,35.4c3.9,2.4,7.6,4.6,11.2,6.7
	c11.5,6.6,52.8,50.9,62.4,86.9c6.3,23.6,2.6,45.7-10.4,62.2c-11.1,14.1-25.7,20.3-34.6,20.1l0-1c8.7,0.2,22.9-5.9,33.8-19.7
	c12.8-16.3,16.5-38.1,10.2-61.3c-9.6-35.8-50.5-79.8-62-86.3c-3.6-2.1-7.3-4.3-11.2-6.7c-24.4-14.8-54.8-33.3-105.4-35.2
	c-109.6-4.3-168.5,23.1-203.3,94.5c-10.3,21.2-7.2,60.9,5.6,84.1c5.5-1.8,10.5-2.1,13.3-2.1c12.4,0.1,24.2,5.6,24.7,11.4
	c0.2,2.3-1.3,6.4-13.3,8.5c-7.6,1.3-15-2.4-21.3-10.8c-1.4-1.8-2.6-3.8-3.8-5.9c-10.3,3.7-22.1,13-24.4,36.1
	c-2.5,24.3,5.5,42.2,23.7,53.1c35.2,21.1,102.1,9.3,138.3-15.2l0.6,0.8c-17.9,12.2-44,21.5-69.7,24.9
	C135.5,366.1,128.3,366.6,121.4,366.6z M75.6,265.1c1.2,2,2.4,3.9,3.7,5.6c6.1,8.1,13.1,11.7,20.3,10.4c8.2-1.5,12.7-4.2,12.5-7.5
	c-0.4-4.8-10.9-10.4-23.7-10.5C85.6,263.1,80.9,263.4,75.6,265.1z"></path>
<path class="st3 FPncjtJx_6" d="M114.4,118.3c0,0-33.8,30.6-29.6,32.8s20,14.9,22.1,11.4s13.5-43.1,11.5-45
	C117.3,116.4,114.4,118.3,114.4,118.3z"></path>
<path class="st3 FPncjtJx_7" d="M115.6,117.7c0,0-53.7,25.6-59.7,30.2c-5.6,4.3,0.1,0.7,7.4,0.1c4.1-0.4,8.2,0.2,12,1.7l34-25.5L115.6,117.7z"></path>
<path class="st4 FPncjtJx_8" d="M72.8,148.8L79.6,161.8L84.4,150.4L116.8,118.2Z"></path>
<path class="st4 FPncjtJx_9" d="M79.6,161.8L89.7,154.4L84.4,150.4L80,160.8Z"></path>
<path class="st3 FPncjtJx_10" d="M273.4,140.9c-1-1.1-4.3,0-5.7,0.5c-0.3,0.1-0.6-0.1-0.7-0.3c0,0,0-0.1,0-0.1c-0.4-2.2-2.5-4.8-3.3-5.7
	c-0.1-0.2-0.1-0.4,0-0.5c0,0,0,0,0,0c0.9-0.7,3.4-2.5,3.4-3.7c0-1.4-6-5.2-10.6-5.1c-1.3,0-1,3.9-1.2,5.3c0,0.2-0.2,0.3-0.4,0.3
	c0,0,0,0-0.1,0c-2.5-0.7-5.1-0.5-7.6,0.4c-0.6,0.2-1.2-0.1-1.4-0.7c0-0.1-0.1-0.2-0.1-0.3c0-1.8-1.7-3.8-3.7-3.1
	c-2.9,1-8.5,5.7-7,7.5c0.8,0.9,1.7,1.6,2.6,2.3c0.4,0.3,0.5,0.9,0.3,1.4c-0.6,1.1-1,2.2-1.3,3.4c-0.2,0.9-0.2,1.8-0.2,2.7
	c0,0.9-0.6,1.7-1.6,2c-1.3,0.3-3.1,0.8-3.7,1.5c-1,1.1,1.6,8.8,3,10.7s5.6-1.4,5.4-1.3c2.2,3,7.4,4,9.6,3.8c1.4-0.1,1.2,1.6,1.4,3.3
	c0.1,0.9,0.8,1.6,1.7,1.7c1.3,0.2,2.7,0.1,4-0.4c2.5-0.8,5.4-2.4,5-3.4c-0.1-0.3-0.4-0.8-0.6-1.3c-0.4-0.7-0.1-1.5,0.5-1.9
	c3.5-2.1,5-6.5,5.5-8.2c0.1-0.3,0.4-0.5,0.7-0.4c0,0,0,0,0.1,0c1.3,0.6,2.8,0.9,4.3,0.9C274,151.9,274.4,142,273.4,140.9z
	 M252.5,152.3c-3.2,0-5.9-2.6-5.9-5.9s2.6-5.9,5.9-5.9s5.9,2.6,5.9,5.9S255.8,152.3,252.5,152.3L252.5,152.3z"></path>
<path class="st4 FPncjtJx_11" d="M291.4,138.3c0.3-1.1-1.6-2.7-2.5-3.4c-0.2-0.2-0.2-0.4,0-0.6c0,0,0,0,0,0c1.1-1.2,1.9-2.7,2.3-4.2
	c0-0.1,0.2-0.2,0.3-0.2c0,0,0,0,0,0c0.8,0.3,3.8,0.4,4.1-0.4c0.4-1.2,0.3-4.4-0.9-7c-0.4-0.9-3.3,0.4-4.2,0.9
	c-0.1,0.1-0.3,0-0.4-0.1c0,0,0,0,0-0.1c-0.6-1.8-1.6-3.4-3.1-4.6c-0.3-0.3-0.4-0.8,0-1.2c0,0,0.1-0.1,0.1-0.1
	c1.9-1.9,1.7-2.5,0.5-3.5c-1.7-1.4-6.8-3.1-7.4-1.5c0,0-0.4,1.8-0.4,2.5c0,0.4-0.4,0.7-0.7,0.7c-0.9,0-1.8,0.2-2.6,0.5
	c-0.6,0.2-1.2,0.5-1.8,0.9c-0.6,0.4-1.3,0.3-1.8-0.2c-0.6-0.8-1.4-1.3-2.4-1.7c-1.1-0.2-5.4,4.3-5.5,6c-0.1,1.5,3,2.9,2.9,2.9
	c-1,2.6,0.3,6.1,1.3,7.5c0.6,0.9-0.5,1.4-1.5,2.1c-0.5,0.4-0.7,1.1-0.4,1.7c0.4,0.9,1,1.7,1.8,2.3c1.4,1.3,3.6,2.4,4,1.8
	c0.1-0.2,0.4-0.5,0.6-0.9c0.3-0.5,0.9-0.7,1.4-0.4c2.6,1.3,6,0.6,7.2,0.3c0.2-0.1,0.4,0.1,0.5,0.3c0,0,0,0,0,0.1
	c0.1,1.1,0.5,2.1,1,3C284.8,142.8,291.1,139.3,291.4,138.3z M276.3,129.6c-1.2-2-0.6-4.7,1.4-5.9s4.7-0.6,5.9,1.4
	c1.2,2,0.6,4.7-1.4,5.9C280.2,132.2,277.6,131.6,276.3,129.6C276.3,129.6,276.3,129.6,276.3,129.6z"></path>
<path class="st5 FPncjtJx_12" d="M359.8,180c0,0,11.7,4.7,16.7,6.1s45.6-29,23.3-48.8c-20.5-18.2-39.3-5.2-42.7,8.4S359.8,180,359.8,180z"></path>
<path class="st6 FPncjtJx_13" d="M359.8,180c0,0-10.2,18.8,1.4,23.5c10.9,4.4,16.7-17.5,16.7-17.5L359.8,180z"></path>
<path class="st5 FPncjtJx_14" d="M358.6,202.3c0,0-2,2.3,1.5,4s4.4-2.2,4.4-2.2S363.5,204.3,358.6,202.3z"></path>
<path class="st7 FPncjtJx_15" d="M374.4,184.2c-3.1,5.1,10.5-23.7,13.9-25.5S377.4,179.3,374.4,184.2z"></path>
<path class="st7 FPncjtJx_16" d="M364.4,181.5c-0.2,3.3,6.3-25.9,5-29.4S364.7,175.9,364.4,181.5z"></path>
<path class="st6 FPncjtJx_17" d="M368.7,153.7l0.3-1c1.4,0.2,2.8,0.2,4.1-0.1c-0.3-1.5-0.3-3-0.1-4.5c0.3-2.2,1.2-3.7,2.5-4.1
	c0.8-0.3,1.7-0.1,2.4,0.5c1.1,1,1.4,2.8,0.8,4.7c-0.4,1.6-1.5,2.9-3,3.6c-0.5,0.2-0.9,0.4-1.4,0.6c0.3,0.7,0.7,1.4,1.2,2
	c1.5,1.4,3.5,2.1,5.5,1.8c0.9-0.1,1.8-0.3,2.6-0.8c-0.5-3.2,0.3-7.5,2.2-8.8c0.7-0.5,1.7-0.5,2.5,0c1.1,0.7,1.6,2.2,1.1,3.4
	c-0.8,2.5-2.5,4.5-4.7,5.9c0.3,1.3,1,3.2,2.7,3.6l-0.3,1c-1.6-0.5-2.8-1.9-3.4-4.1c-0.9,0.4-1.8,0.7-2.8,0.8
	c-2.3,0.3-4.6-0.5-6.3-2.1c-0.6-0.7-1.1-1.5-1.4-2.5C371.9,154,370.3,154,368.7,153.7z M376.9,145c-0.3-0.2-0.7-0.2-1-0.1
	c-0.9,0.3-1.6,1.6-1.8,3.3c-0.2,1.4-0.2,2.8,0,4.2c0.4-0.1,0.9-0.3,1.3-0.5c1.2-0.6,2.1-1.7,2.4-2.9c0.5-1.9,0-3.1-0.6-3.7
	C377.1,145.2,377,145.1,376.9,145L376.9,145z M387.8,148.5c-0.4-0.2-0.9-0.2-1.2,0.1c-1.4,0.9-2.2,4.3-1.8,7.4
	c1.8-1.2,3.2-2.9,3.9-5c0.4-0.8,0.1-1.8-0.7-2.3L387.8,148.5z"></path>
<path class="st8 FPncjtJx_18" d="M110.3,399.5"></path>
<path class="st9 FPncjtJx_19" d="M388.5,339.3c-0.1,0-0.1,0.1-0.1,0.2c0,0,0,0.1,0.1,0.1C388.5,339.5,388.6,339.4,388.5,339.3
	C388.5,339.3,388.5,339.3,388.5,339.3z"></path>
<path class="st3 FPncjtJx_20" d="M102.1,222.4c0,0,5,17.3,9.3,18.5c3.1,0.9,6.3-0.8,7.9-1.9c0.7-0.4,0.9-1.2,0.7-2l-4.6-15.5
	C115.4,221.6,107.3,222.4,102.1,222.4z"></path>
<path class="st6 FPncjtJx_21" d="M143.4,186.3c-0.9-2.6-5-11.7-6.7-11.1c-3.3,9.9,1.6,28.6,13.4,46c0.2-0.1,0.4-0.2,0.5-0.3
	C155.4,216.9,146.1,194.4,143.4,186.3z"></path>
<path class="st3 FPncjtJx_22" d="M94.3,207.6L94.3,207.6c-5.7,2.6-5.1,14.1,4.9,15.6C97.1,218.3,95.4,213,94.3,207.6z"></path>
<path class="st5 FPncjtJx_23" d="M136.8,175.1c-10,3.4-29.8,20-39.3,30.1c-0.9,1-1.9,1.8-3.1,2.4c1.1,5.4,2.7,10.6,4.9,15.6
	c1.7,0.2,3.5,0.2,5.3-0.1c10.6-1.6,37.3,2.3,46.2-2.3C137.9,203.9,134.8,182.9,136.8,175.1z"></path>
<path class="st5 FPncjtJx_24" d="M142.6,194.5c0,2.6,1.9,7.6,2.5,7.6c5.1-0.5,22,0,15-13.8C155.1,178.6,146.9,191.2,142.6,194.5z"></path>
<path class="st5 FPncjtJx_25" d="M117.1,227.4c0,0,1.7-1.8,2.8-1.1s-0.5,9-0.8,8L117.1,227.4z"></path>
<path class="st9 FPncjtJx_26" d="M117.4,190.3c-7.2,4.8-13.6,11.1-19.6,17.2c-0.3,0.3,0.1,0.9,0.5,0.5c3.1-3,6.3-6,9.6-8.8s6.7-5.5,9.9-8.5
	C117.9,190.5,117.7,190.1,117.4,190.3z"></path>
<path class="st9 FPncjtJx_27" d="M121.9,187.5c-0.5,0-1.1,0.1-1.5,0.4c-0.5,0.3-1,0.6-1,1.1c0,0.1,0.1,0.2,0.1,0.2c0,0,0,0,0,0
	c0.5,0,0.7-0.4,1.1-0.6s0.9-0.4,1.3-0.7c0.1-0.1,0.2-0.2,0.1-0.3C122.1,187.5,122,187.5,121.9,187.5z"></path>
<path class="st3 FPncjtJx_28" d="M380.9,290.7c0,0,6.7,18.1,25.4,12.1c18.8-6.1,15.6-23.1,13.8-27.6c-1.9-4.5-10-15.2-25.3-10.6
	S378.6,284.3,380.9,290.7z"></path>
<path class="st4 FPncjtJx_29" d="M386.7,288.7c0,0,4.7,12.9,18,8.5c13.3-4.3,11.1-16.3,9.7-19.6c-1.3-3.2-7.1-10.8-17.9-7.5
	C385.6,273.4,385.1,284.1,386.7,288.7z"></path>
<path class="st3 FPncjtJx_30" d="M402.8,303.7c0,0-2,11.4-1,20.2s9.4,18.8,18.2,13.1c8.7-5.6,2.3-17.6-0.3-22.4c-3.3-6.1-10.5-15.7-10.5-15.7
	L402.8,303.7z"></path>
<path class="st10 FPncjtJx_31" d="M403.7,313.8c-0.1,4.6,0.4,9.1,1.4,13.6c0,0.1,0.1,0.1,0.2,0.1c0.1,0,0.1-0.1,0.1-0.2c-0.6-4.5-1.1-9-1.3-13.5
	C404.1,313.6,403.7,313.5,403.7,313.8z"></path>
<path class="st10 FPncjtJx_32" d="M403.5,307.9c-0.1,0.8,0,1.6,0.4,2.3c0.1,0.1,0.2,0.2,0.3,0.1c0.1,0,0.2-0.2,0.1-0.3c-0.1-0.7-0.1-1.4-0.1-2
	c0-0.2-0.2-0.3-0.4-0.3C403.7,307.6,403.5,307.8,403.5,307.9z"></path>
<path class="st11 FPncjtJx_33" d="M389.7,277.6c-1.9,2.7-2,6.2-0.3,9c0.1,0.2,0.6,0.1,0.5-0.2c-1.2-2.8-1.1-5.9,0.2-8.7
	C390.2,277.5,389.9,277.4,389.7,277.6z"></path>
<path class="st11 FPncjtJx_34" d="M391.8,274.7c-0.3-0.2-0.7,0.1-0.9,0.3c-0.3,0.3-0.5,0.6-0.6,1c-0.1,0.2,0.1,0.4,0.3,0.5c0.2,0,0.3,0,0.4-0.1
	c0.1-0.2,0.2-0.3,0.4-0.5c0.1-0.2,0.3-0.3,0.4-0.4C391.8,275.2,392.1,274.8,391.8,274.7z"></path>
<path class="st11 FPncjtJx_35" d="M418.3,288.6c-0.7,2.8-2.2,5.3-4.3,7.2c-0.2,0.2,0,0.6,0.3,0.4c2.5-1.8,4.1-4.5,4.5-7.5
	C418.8,288.4,418.3,288.3,418.3,288.6z"></path>
<path class="st8 FPncjtJx_36" d="M425.9,350.7c0,0,0.2,5.9-4.6,6.9s-7.4-1.7-7.6-5.4S425.9,350.7,425.9,350.7z"></path>
<path class="st5 FPncjtJx_37" d="M413.7,352.3L425.9,350.7L425.5,344.5L413.3,345.6Z"></path>
<path class="st5 FPncjtJx_38" d="M408.9,263.9L413.3,345.6L425.5,344.5L420.8,263.5Z"></path>
<g class="st12">
	<path class="st13 FPncjtJx_39" d="M422.6,342.3c-0.3-3.2-0.6-6.3-0.9-9.5l-0.7-9.5c-0.5-6.3-0.9-12.7-1.3-19s-0.7-12.7-1-19l-0.4-9.5
		c-0.1-3.2-0.2-6.4-0.3-9.5c0.3,3.2,0.6,6.3,0.9,9.5l0.7,9.5c0.5,6.3,0.9,12.7,1.3,19s0.7,12.7,1,19l0.4,9.5
		C422.4,335.9,422.6,339.1,422.6,342.3z"></path>
</g>
<g class="st12">
	<path class="st13 FPncjtJx_40" d="M418.1,342c-0.3-3.2-0.6-6.3-0.9-9.5l-0.7-9.5c-0.5-6.3-0.9-12.7-1.3-19s-0.7-12.7-1-19l-0.4-9.5
		c-0.1-3.2-0.2-6.4-0.3-9.5c0.3,3.2,0.6,6.3,0.9,9.5l0.7,9.5c0.5,6.3,0.9,12.7,1.3,19s0.7,12.7,1,19l0.4,9.5
		C417.9,335.6,418,338.8,418.1,342z"></path>
</g>
<path class="st9 FPncjtJx_41" d="M420.8,263.5l-5.2-9.5c-1.1,0.4-2.4,0.5-3.5,0.4l-3.2,9.6L420.8,263.5z"></path>
<path class="st3 FPncjtJx_42" d="M431.5,287.3c0,0-9.5-7.9-4.4-14.5c4.6-6,15.8-8.3,14.8-11.6c-0.7-2.4-5.2-0.5-7.1,0.8c0,0-0.2-2.1,2-4.7
	c2.3-2.6,8.7-4,12.5-0.7c8.4,7.1,0,27.8-6.3,30.9c-2,1-4.2,1.4-6.4,1.3l-2.9,1.1L431.5,287.3z"></path>
<path class="st5 FPncjtJx_43" d="M413.9,359.9c1.6,0.8,3.4,1.2,5.2,1.4c0.4,0,0.7-0.2,0.8-0.6l1.4-6.1l-7.3-1.1l-1,4.2
	C412.8,358.5,413.2,359.4,413.9,359.9z"></path>
<path class="st14 FPncjtJx_44" d="M429.1,296.4l-15,57l7,2.3l13.4-57.3C432.4,298.5,430.5,297.8,429.1,296.4z"></path>
<path class="st5 FPncjtJx_45" d="M431.5,287.3L431.5,287.3l-2.4,9.2c1.4,1.4,3.4,2.1,5.4,2l2.2-9.6C434.9,288.8,433,288.3,431.5,287.3z"></path>
<path class="st5 FPncjtJx_46" d="M431.4,359l8.4-40.5c0.2-0.8-0.4-1.7-1.2-1.9c-0.1,0-0.2,0-0.3,0c-9.2-0.4-49.1-1.7-46.3,2.2
	c0,0,4.4,25.9,8,40.2c3.4,0.5,8.2,0.8,14.8,1.1C420.4,360.2,425.9,359.9,431.4,359z"></path>
<path class="st14 FPncjtJx_47" d="M414.8,360c-6.6-0.2-11.4-0.6-14.8-1.1c1.3,5.3,2.6,9,3.5,9.2c2.5,0.6,16.8,0.7,23,0.7c1.7,0,3.1-1.2,3.5-2.8
	l1.4-7C425.9,359.9,420.3,360.2,414.8,360z"></path>
<path class="st6 FPncjtJx_48" d="M108.7,274.6c-1.8,4.6,4.6,89,4.9,91.5c0.1,1.2,1.8,3.8,4.2,3.1c5.8-1.6,12.7-1.6,15.8-0.4
	c3.4,1.3,5.7-4.4,5.4-9c-0.9-14.9,1.3-93.6-10.3-88.1c-4.7,2.2-8.8,6.3-15.9,1.9c-1.2-0.9-2.9-0.7-3.8,0.5
	C108.9,274.2,108.8,274.4,108.7,274.6z"></path>
<path class="st15 FPncjtJx_49" d="M112.8,273.5l6.8,95.2c5.4-1.3,8.8-0.8,15.5,0.2l-6.4-97.3C127.4,272.3,119,277.1,112.8,273.5z"></path>
<path class="st9 FPncjtJx_50" d="M124.8,275.7c0.8,7.7,1.3,15.3,1.9,23c0.6,7.7,1,15.4,1.5,23c0.5,7.6,0.8,15.4,1.1,23.1l0.5,11.5
	c0.1,3.8,0.2,7.7,0.3,11.5c-0.4-3.8-0.7-7.7-1-11.5l-0.9-11.5c-0.6-7.7-1-15.4-1.5-23s-0.8-15.4-1.1-23.1S124.9,283.4,124.8,275.7z"></path>
<path class="st9 FPncjtJx_51" d="M120.9,275.9c0.8,7.7,1.3,15.3,1.9,23c0.6,7.7,1,15.4,1.5,23s0.8,15.4,1.1,23.1l0.4,11.5
	c0.1,3.8,0.2,7.7,0.3,11.5c-0.4-3.8-0.7-7.7-1-11.5l-0.9-11.5c-0.6-7.7-1-15.4-1.5-23s-0.8-15.4-1.1-23.1S121,283.6,120.9,275.9z"></path>
<path class="st9 FPncjtJx_52" d="M117,276.1c0.8,7.7,1.3,15.3,1.9,23c0.6,7.7,1,15.4,1.5,23s0.8,15.4,1.1,23.1l0.4,11.5
	c0.1,3.8,0.2,7.7,0.3,11.5c-0.4-3.8-0.7-7.7-1-11.5l-0.9-11.5c-0.6-7.7-1-15.4-1.5-23s-0.8-15.4-1.1-23.1S117.1,283.8,117,276.1z"></path>
<path class="st16 FPncjtJx_53" d="M88.9,292.4l-17.2,1l4.4,76.4l17.1-1c0.8,0,1.4-0.7,1.3-1.5c0,0,0,0,0,0c-0.5-9.5-3.6-63.1-4.2-73.5
	C90.3,292.9,89.6,292.3,88.9,292.4C88.9,292.4,88.9,292.4,88.9,292.4z"></path>
<path class="st7 FPncjtJx_54" d="M72,299.6l0.3,5.6l18.6-1.1l-0.4-7L72,299.6z"></path>
<path class="st17 FPncjtJx_55" d="M86.9,309.1c0,0-8.9-0.1-9.3,0.5c-0.3,0.6,2.5,56.7,3.3,57s8.3-0.1,9.3-0.5C91.6,365.4,88.6,309.7,86.9,309.1z
	"></path>
<path class="st3 FPncjtJx_56" d="M108,367.3l-8.7,0.5c-2.8,0.2-5.2-2-5.4-4.8c0,0,0,0,0,0l-3.4-59.7c-0.2-2.8,1.5-3.9,4.3-4.1
	c5.4-0.3,13.7-1.6,14.5,1.1c1,3.7,3.9,46.3,3.5,62C112.7,365,110.6,367.1,108,367.3z"></path>
<path class="st4 FPncjtJx_57" d="M106.7,301.8c-1.1-0.9-12.9-0.6-13.6,2.1c-0.3,1.3,2.1,57.2,3.5,59.7c1.2,2.2,13.7,1.4,14-0.4
	S106.7,301.8,106.7,301.8z"></path>
<path class="st3 FPncjtJx_58" d="M217.7,312"></path>
<path class="st18 FPncjtJx_59" d="M311.4,340.5H195.3c-5.4,0-9.8-4.4-9.8-9.8V214.3c0-5.4,4.4-9.8,9.8-9.8h116.2c5.4,0,9.8,4.4,9.8,9.8v116.4
	C321.3,336.1,316.8,340.5,311.4,340.5z"></path>
<path class="st18 FPncjtJx_60" d="M199.2,294.1L198.9,218.4L307.4,218.5L307.6,326.8L244.7,326.8L199.1,326.7Z"></path>
<path class="st19 FPncjtJx_61" d="M277.7,246.5c-3.4,0-6.2,2.8-6.3,6.2c0,3.4,2.8,6.2,6.2,6.3c3.2,0,5.8-2.3,6.2-5.5h23.6V252h-23.6
	C283.5,248.9,280.9,246.5,277.7,246.5z"></path>
<path class="st20 FPncjtJx_62" d="M211.6,305.3H199v0.9h12.6c0.2,1.9,2,3.3,4,3.1c1.9-0.2,3.3-2,3.1-4s-2-3.3-4-3.1
	C213.1,302.4,211.8,303.7,211.6,305.3z"></path>
<path class="st19 FPncjtJx_63" d="M251.8,265.5c-2,1.8-4.7,2.8-7.4,2.8h-45.1v1.5h45.2c3.1,0,6.1-1.2,8.4-3.2c2.1-2.2,3.3-5.3,3.1-8.3v-9.2
	c3.4-0.4,5.8-3.5,5.4-7s-3.5-5.8-7-5.4s-5.8,3.5-5.4,7c0.4,2.8,2.6,5.1,5.4,5.4v9.2C254.6,260.9,253.6,263.5,251.8,265.5z"></path>
<path class="st19 FPncjtJx_64" d="M199.3,284.3v0.5h53.6c0-0.1-0.1-0.2-0.1-0.2c0-0.1,0-0.2,0.1-0.2L199.3,284.3z"></path>
<path class="st19 FPncjtJx_65" d="M244.9,326.8v-22.4c0-9.8-8.3-10.2-8.4-10.2h-37.1v1.5h37.1c0.3,0,6.9,0.3,6.9,8.7v22.4H244.9z"></path>
<path class="st19 FPncjtJx_66" d="M278.8,326.6h0.3v-20.9c-0.1,0.1-0.2,0.1-0.3,0V326.6z"></path>
<path class="st19 FPncjtJx_67" width="0.3" height="16.6" d="M270.9 310 L271.2 310 L271.2 326.6 L270.9 326.6 Z"></path>
<path class="st20 FPncjtJx_68" width="0.8" height="12.4" d="M288.1 314.2 L288.90000000000003 314.2 L288.90000000000003 326.59999999999997 L288.1 326.59999999999997 Z"></path>
<path class="st19 FPncjtJx_69" width="17.3" height="1.1" d="M290.2 235.9 L307.5 235.9 L307.5 237 L290.2 237 Z"></path>
<path class="st20 FPncjtJx_70" width="18.4" height="0.9" d="M199.3 245.7 L217.70000000000002 245.7 L217.70000000000002 246.6 L199.3 246.6 Z"></path>
<path class="st21 FPncjtJx_71" d="M310.6,329.7V215.3H196.2v114.4H310.6z M199.3,306.5v-88.2h108.3v108.3H199.3V306.5z"></path>
<path class="st22 FPncjtJx_72" d="M218,245.6c0,0.3-0.1,0.5-0.1,0.8c0,0.3,0,0.5,0.1,0.8c0.4,3.4,3.5,5.7,6.8,5.3c3.4-0.4,5.7-3.5,5.3-6.8
	c-0.4-3.4-3.5-5.7-6.8-5.3C220.6,240.6,218.4,242.8,218,245.6z"></path>
<path class="st22 FPncjtJx_73" d="M254.9,283.6c0,0.2,0,0.3-0.1,0.5c0,0.2,0,0.3,0.1,0.5c0.3,2.3,2.4,4,4.7,3.7c2.3-0.3,4-2.4,3.7-4.7
	c-0.3-2.3-2.4-4-4.7-3.7C256.7,280.1,255.2,281.6,254.9,283.6L254.9,283.6z"></path>
<path class="st22 FPncjtJx_74" d="M272.7,296.4c0,3.4,2.8,6.2,6.2,6.2s6.2-2.8,6.2-6.2c0-3.4-2.8-6.2-6.2-6.2c0,0,0,0,0,0
	C275.5,290.1,272.7,292.9,272.7,296.4C272.7,296.3,272.7,296.4,272.7,296.4z"></path>
<path class="st23 FPncjtJx_75" d="M207.5,182.7L207.5,205.2"></path>
<path class="st23 FPncjtJx_76" d="M225.6,182.7L225.6,205.2"></path>
<path class="st23 FPncjtJx_77" d="M243.8,182.7L243.8,205.2"></path>
<path class="st23 FPncjtJx_78" d="M262,182.7L262,205.2"></path>
<path class="st23 FPncjtJx_79" d="M280.1,182.7L280.1,205.2"></path>
<path class="st23 FPncjtJx_80" d="M298.3,182.7L298.3,205.2"></path>
<path class="st23 FPncjtJx_81" d="M208.5,336.7L208.5,359.2"></path>
<path class="st23 FPncjtJx_82" d="M226.6,336.7L226.6,359.2"></path>
<path class="st23 FPncjtJx_83" d="M244.8,336.7L244.8,359.2"></path>
<path class="st23 FPncjtJx_84" d="M263,336.7L263,359.2"></path>
<path class="st23 FPncjtJx_85" d="M281.1,336.7L281.1,359.2"></path>
<path class="st23 FPncjtJx_86" d="M299.3,336.7L299.3,359.2"></path>
<path class="st23 FPncjtJx_87" d="M164.6,323.3L187.1,323.3"></path>
<path class="st23 FPncjtJx_88" d="M164.6,305.1L187.1,305.1"></path>
<path class="st23 FPncjtJx_89" d="M164.6,287L187.1,287"></path>
<path class="st23 FPncjtJx_90" d="M164.6,268.8L187.1,268.8"></path>
<path class="st23 FPncjtJx_91" d="M164.6,250.7L187.1,250.7"></path>
<path class="st23 FPncjtJx_92" d="M164.6,232.5L187.1,232.5"></path>
<path class="st23 FPncjtJx_93" d="M318.6,321.3L341.1,321.3"></path>
<path class="st23 FPncjtJx_94" d="M318.6,303.1L341.1,303.1"></path>
<path class="st23 FPncjtJx_95" d="M318.6,285L341.1,285"></path>
<path class="st23 FPncjtJx_96" d="M318.6,266.8L341.1,266.8"></path>
<path class="st23 FPncjtJx_97" d="M318.6,248.7L341.1,248.7"></path>
<path class="st23 FPncjtJx_98" d="M318.6,230.5L341.1,230.5"></path>
<style data-made-with="vivus-instant">.FPncjtJx_0{stroke-dasharray:1470 1472;stroke-dashoffset:1471;animation:FPncjtJx_draw_0 6700ms linear 0ms infinite,FPncjtJx_fade 6700ms linear 0ms infinite;}.FPncjtJx_1{stroke-dasharray:138 140;stroke-dashoffset:139;animation:FPncjtJx_draw_1 6700ms linear 0ms infinite,FPncjtJx_fade 6700ms linear 0ms infinite;}.FPncjtJx_2{stroke-dasharray:61 63;stroke-dashoffset:62;animation:FPncjtJx_draw_2 6700ms linear 0ms infinite,FPncjtJx_fade 6700ms linear 0ms infinite;}.FPncjtJx_3{stroke-dasharray:161 163;stroke-dashoffset:162;animation:FPncjtJx_draw_3 6700ms linear 0ms infinite,FPncjtJx_fade 6700ms linear 0ms infinite;}.FPncjtJx_4{stroke-dasharray:62 64;stroke-dashoffset:63;animation:FPncjtJx_draw_4 6700ms linear 0ms infinite,FPncjtJx_fade 6700ms linear 0ms infinite;}.FPncjtJx_5{stroke-dasharray:2025 2027;stroke-dashoffset:2026;animation:FPncjtJx_draw_5 6700ms linear 0ms infinite,FPncjtJx_fade 6700ms linear 0ms infinite;}.FPncjtJx_6{stroke-dasharray:122 124;stroke-dashoffset:123;animation:FPncjtJx_draw_6 6700ms linear 0ms infinite,FPncjtJx_fade 6700ms linear 0ms infinite;}.FPncjtJx_7{stroke-dasharray:144 146;stroke-dashoffset:145;animation:FPncjtJx_draw_7 6700ms linear 0ms infinite,FPncjtJx_fade 6700ms linear 0ms infinite;}.FPncjtJx_8{stroke-dasharray:127 129;stroke-dashoffset:128;animation:FPncjtJx_draw_8 6700ms linear 0ms infinite,FPncjtJx_fade 6700ms linear 0ms infinite;}.FPncjtJx_9{stroke-dasharray:32 34;stroke-dashoffset:33;animation:FPncjtJx_draw_9 6700ms linear 0ms infinite,FPncjtJx_fade 6700ms linear 0ms infinite;}.FPncjtJx_10{stroke-dasharray:196 198;stroke-dashoffset:197;animation:FPncjtJx_draw_10 6700ms linear 0ms infinite,FPncjtJx_fade 6700ms linear 0ms infinite;}.FPncjtJx_11{stroke-dasharray:143 145;stroke-dashoffset:144;animation:FPncjtJx_draw_11 6700ms linear 0ms infinite,FPncjtJx_fade 6700ms linear 0ms infinite;}.FPncjtJx_12{stroke-dasharray:170 172;stroke-dashoffset:171;animation:FPncjtJx_draw_12 6700ms linear 0ms infinite,FPncjtJx_fade 6700ms linear 0ms infinite;}.FPncjtJx_13{stroke-dasharray:73 75;stroke-dashoffset:74;animation:FPncjtJx_draw_13 6700ms linear 0ms infinite,FPncjtJx_fade 6700ms linear 0ms infinite;}.FPncjtJx_14{stroke-dasharray:18 20;stroke-dashoffset:19;animation:FPncjtJx_draw_14 6700ms linear 0ms infinite,FPncjtJx_fade 6700ms linear 0ms infinite;}.FPncjtJx_15{stroke-dasharray:61 63;stroke-dashoffset:62;animation:FPncjtJx_draw_15 6700ms linear 0ms infinite,FPncjtJx_fade 6700ms linear 0ms infinite;}.FPncjtJx_16{stroke-dasharray:62 64;stroke-dashoffset:63;animation:FPncjtJx_draw_16 6700ms linear 0ms infinite,FPncjtJx_fade 6700ms linear 0ms infinite;}.FPncjtJx_17{stroke-dasharray:130 132;stroke-dashoffset:131;animation:FPncjtJx_draw_17 6700ms linear 0ms infinite,FPncjtJx_fade 6700ms linear 0ms infinite;}.FPncjtJx_18{stroke-dasharray:0 2;stroke-dashoffset:1;animation:FPncjtJx_draw_18 6700ms linear 0ms infinite,FPncjtJx_fade 6700ms linear 0ms infinite;}.FPncjtJx_19{stroke-dasharray:1 3;stroke-dashoffset:2;animation:FPncjtJx_draw_19 6700ms linear 0ms infinite,FPncjtJx_fade 6700ms linear 0ms infinite;}.FPncjtJx_20{stroke-dasharray:62 64;stroke-dashoffset:63;animation:FPncjtJx_draw_20 6700ms linear 0ms infinite,FPncjtJx_fade 6700ms linear 0ms infinite;}.FPncjtJx_21{stroke-dasharray:100 102;stroke-dashoffset:101;animation:FPncjtJx_draw_21 6700ms linear 0ms infinite,FPncjtJx_fade 6700ms linear 0ms infinite;}.FPncjtJx_22{stroke-dasharray:38 40;stroke-dashoffset:39;animation:FPncjtJx_draw_22 6700ms linear 0ms infinite,FPncjtJx_fade 6700ms linear 0ms infinite;}.FPncjtJx_23{stroke-dasharray:171 173;stroke-dashoffset:172;animation:FPncjtJx_draw_23 6700ms linear 0ms infinite,FPncjtJx_fade 6700ms linear 0ms infinite;}.FPncjtJx_24{stroke-dasharray:58 60;stroke-dashoffset:59;animation:FPncjtJx_draw_24 6700ms linear 0ms infinite,FPncjtJx_fade 6700ms linear 0ms infinite;}.FPncjtJx_25{stroke-dasharray:19 21;stroke-dashoffset:20;animation:FPncjtJx_draw_25 6700ms linear 0ms infinite,FPncjtJx_fade 6700ms linear 0ms infinite;}.FPncjtJx_26{stroke-dasharray:55 57;stroke-dashoffset:56;animation:FPncjtJx_draw_26 6700ms linear 0ms infinite,FPncjtJx_fade 6700ms linear 0ms infinite;}.FPncjtJx_27{stroke-dasharray:7 9;stroke-dashoffset:8;animation:FPncjtJx_draw_27 6700ms linear 0ms infinite,FPncjtJx_fade 6700ms linear 0ms infinite;}.FPncjtJx_28{stroke-dasharray:130 132;stroke-dashoffset:131;animation:FPncjtJx_draw_28 6700ms linear 0ms infinite,FPncjtJx_fade 6700ms linear 0ms infinite;}.FPncjtJx_29{stroke-dasharray:92 94;stroke-dashoffset:93;animation:FPncjtJx_draw_29 6700ms linear 0ms infinite,FPncjtJx_fade 6700ms linear 0ms infinite;}.FPncjtJx_30{stroke-dasharray:99 101;stroke-dashoffset:100;animation:FPncjtJx_draw_30 6700ms linear 0ms infinite,FPncjtJx_fade 6700ms linear 0ms infinite;}.FPncjtJx_31{stroke-dasharray:29 31;stroke-dashoffset:30;animation:FPncjtJx_draw_31 6700ms linear 0ms infinite,FPncjtJx_fade 6700ms linear 0ms infinite;}.FPncjtJx_32{stroke-dasharray:7 9;stroke-dashoffset:8;animation:FPncjtJx_draw_32 6700ms linear 0ms infinite,FPncjtJx_fade 6700ms linear 0ms infinite;}.FPncjtJx_33{stroke-dasharray:20 22;stroke-dashoffset:21;animation:FPncjtJx_draw_33 6700ms linear 0ms infinite,FPncjtJx_fade 6700ms linear 0ms infinite;}.FPncjtJx_34{stroke-dasharray:6 8;stroke-dashoffset:7;animation:FPncjtJx_draw_34 6700ms linear 0ms infinite,FPncjtJx_fade 6700ms linear 0ms infinite;}.FPncjtJx_35{stroke-dasharray:20 22;stroke-dashoffset:21;animation:FPncjtJx_draw_35 6700ms linear 0ms infinite,FPncjtJx_fade 6700ms linear 0ms infinite;}.FPncjtJx_36{stroke-dasharray:34 36;stroke-dashoffset:35;animation:FPncjtJx_draw_36 6700ms linear 0ms infinite,FPncjtJx_fade 6700ms linear 0ms infinite;}.FPncjtJx_37{stroke-dasharray:38 40;stroke-dashoffset:39;animation:FPncjtJx_draw_37 6700ms linear 0ms infinite,FPncjtJx_fade 6700ms linear 0ms infinite;}.FPncjtJx_38{stroke-dasharray:188 190;stroke-dashoffset:189;animation:FPncjtJx_draw_38 6700ms linear 0ms infinite,FPncjtJx_fade 6700ms linear 0ms infinite;}.FPncjtJx_39{stroke-dasharray:153 155;stroke-dashoffset:154;animation:FPncjtJx_draw_39 6700ms linear 0ms infinite,FPncjtJx_fade 6700ms linear 0ms infinite;}.FPncjtJx_40{stroke-dasharray:153 155;stroke-dashoffset:154;animation:FPncjtJx_draw_40 6700ms linear 0ms infinite,FPncjtJx_fade 6700ms linear 0ms infinite;}.FPncjtJx_41{stroke-dasharray:37 39;stroke-dashoffset:38;animation:FPncjtJx_draw_41 6700ms linear 0ms infinite,FPncjtJx_fade 6700ms linear 0ms infinite;}.FPncjtJx_42{stroke-dasharray:111 113;stroke-dashoffset:112;animation:FPncjtJx_draw_42 6700ms linear 0ms infinite,FPncjtJx_fade 6700ms linear 0ms infinite;}.FPncjtJx_43{stroke-dasharray:27 29;stroke-dashoffset:28;animation:FPncjtJx_draw_43 6700ms linear 0ms infinite,FPncjtJx_fade 6700ms linear 0ms infinite;}.FPncjtJx_44{stroke-dasharray:132 134;stroke-dashoffset:133;animation:FPncjtJx_draw_44 6700ms linear 0ms infinite,FPncjtJx_fade 6700ms linear 0ms infinite;}.FPncjtJx_45{stroke-dasharray:31 33;stroke-dashoffset:32;animation:FPncjtJx_draw_45 6700ms linear 0ms infinite,FPncjtJx_fade 6700ms linear 0ms infinite;}.FPncjtJx_46{stroke-dasharray:165 167;stroke-dashoffset:166;animation:FPncjtJx_draw_46 6700ms linear 0ms infinite,FPncjtJx_fade 6700ms linear 0ms infinite;}.FPncjtJx_47{stroke-dasharray:77 79;stroke-dashoffset:78;animation:FPncjtJx_draw_47 6700ms linear 0ms infinite,FPncjtJx_fade 6700ms linear 0ms infinite;}.FPncjtJx_48{stroke-dasharray:240 242;stroke-dashoffset:241;animation:FPncjtJx_draw_48 6700ms linear 0ms infinite,FPncjtJx_fade 6700ms linear 0ms infinite;}.FPncjtJx_49{stroke-dasharray:226 228;stroke-dashoffset:227;animation:FPncjtJx_draw_49 6700ms linear 0ms infinite,FPncjtJx_fade 6700ms linear 0ms infinite;}.FPncjtJx_50{stroke-dasharray:185 187;stroke-dashoffset:186;animation:FPncjtJx_draw_50 6700ms linear 0ms infinite,FPncjtJx_fade 6700ms linear 0ms infinite;}.FPncjtJx_51{stroke-dasharray:185 187;stroke-dashoffset:186;animation:FPncjtJx_draw_51 6700ms linear 0ms infinite,FPncjtJx_fade 6700ms linear 0ms infinite;}.FPncjtJx_52{stroke-dasharray:185 187;stroke-dashoffset:186;animation:FPncjtJx_draw_52 6700ms linear 0ms infinite,FPncjtJx_fade 6700ms linear 0ms infinite;}.FPncjtJx_53{stroke-dasharray:189 191;stroke-dashoffset:190;animation:FPncjtJx_draw_53 6700ms linear 0ms infinite,FPncjtJx_fade 6700ms linear 0ms infinite;}.FPncjtJx_54{stroke-dasharray:50 52;stroke-dashoffset:51;animation:FPncjtJx_draw_54 6700ms linear 0ms infinite,FPncjtJx_fade 6700ms linear 0ms infinite;}.FPncjtJx_55{stroke-dasharray:134 136;stroke-dashoffset:135;animation:FPncjtJx_draw_55 6700ms linear 0ms infinite,FPncjtJx_fade 6700ms linear 0ms infinite;}.FPncjtJx_56{stroke-dasharray:169 171;stroke-dashoffset:170;animation:FPncjtJx_draw_56 6700ms linear 0ms infinite,FPncjtJx_fade 6700ms linear 0ms infinite;}.FPncjtJx_57{stroke-dasharray:151 153;stroke-dashoffset:152;animation:FPncjtJx_draw_57 6700ms linear 0ms infinite,FPncjtJx_fade 6700ms linear 0ms infinite;}.FPncjtJx_58{stroke-dasharray:0 2;stroke-dashoffset:1;animation:FPncjtJx_draw_58 6700ms linear 0ms infinite,FPncjtJx_fade 6700ms linear 0ms infinite;}.FPncjtJx_59{stroke-dasharray:527 529;stroke-dashoffset:528;animation:FPncjtJx_draw_59 6700ms linear 0ms infinite,FPncjtJx_fade 6700ms linear 0ms infinite;}.FPncjtJx_60{stroke-dasharray:434 436;stroke-dashoffset:435;animation:FPncjtJx_draw_60 6700ms linear 0ms infinite,FPncjtJx_fade 6700ms linear 0ms infinite;}.FPncjtJx_61{stroke-dasharray:87 89;stroke-dashoffset:88;animation:FPncjtJx_draw_61 6700ms linear 0ms infinite,FPncjtJx_fade 6700ms linear 0ms infinite;}.FPncjtJx_62{stroke-dasharray:48 50;stroke-dashoffset:49;animation:FPncjtJx_draw_62 6700ms linear 0ms infinite,FPncjtJx_fade 6700ms linear 0ms infinite;}.FPncjtJx_63{stroke-dasharray:183 185;stroke-dashoffset:184;animation:FPncjtJx_draw_63 6700ms linear 0ms infinite,FPncjtJx_fade 6700ms linear 0ms infinite;}.FPncjtJx_64{stroke-dasharray:109 111;stroke-dashoffset:110;animation:FPncjtJx_draw_64 6700ms linear 0ms infinite,FPncjtJx_fade 6700ms linear 0ms infinite;}.FPncjtJx_65{stroke-dasharray:150 152;stroke-dashoffset:151;animation:FPncjtJx_draw_65 6700ms linear 0ms infinite,FPncjtJx_fade 6700ms linear 0ms infinite;}.FPncjtJx_66{stroke-dasharray:43 45;stroke-dashoffset:44;animation:FPncjtJx_draw_66 6700ms linear 0ms infinite,FPncjtJx_fade 6700ms linear 0ms infinite;}.FPncjtJx_67{stroke-dasharray:34 36;stroke-dashoffset:35;animation:FPncjtJx_draw_67 6700ms linear 0ms infinite,FPncjtJx_fade 6700ms linear 0ms infinite;}.FPncjtJx_68{stroke-dasharray:27 29;stroke-dashoffset:28;animation:FPncjtJx_draw_68 6700ms linear 0ms infinite,FPncjtJx_fade 6700ms linear 0ms infinite;}.FPncjtJx_69{stroke-dasharray:37 39;stroke-dashoffset:38;animation:FPncjtJx_draw_69 6700ms linear 0ms infinite,FPncjtJx_fade 6700ms linear 0ms infinite;}.FPncjtJx_70{stroke-dasharray:39 41;stroke-dashoffset:40;animation:FPncjtJx_draw_70 6700ms linear 0ms infinite,FPncjtJx_fade 6700ms linear 0ms infinite;}.FPncjtJx_71{stroke-dasharray:891 893;stroke-dashoffset:892;animation:FPncjtJx_draw_71 6700ms linear 0ms infinite,FPncjtJx_fade 6700ms linear 0ms infinite;}.FPncjtJx_72{stroke-dasharray:39 41;stroke-dashoffset:40;animation:FPncjtJx_draw_72 6700ms linear 0ms infinite,FPncjtJx_fade 6700ms linear 0ms infinite;}.FPncjtJx_73{stroke-dasharray:27 29;stroke-dashoffset:28;animation:FPncjtJx_draw_73 6700ms linear 0ms infinite,FPncjtJx_fade 6700ms linear 0ms infinite;}.FPncjtJx_74{stroke-dasharray:40 42;stroke-dashoffset:41;animation:FPncjtJx_draw_74 6700ms linear 0ms infinite,FPncjtJx_fade 6700ms linear 0ms infinite;}.FPncjtJx_75{stroke-dasharray:23 25;stroke-dashoffset:24;animation:FPncjtJx_draw_75 6700ms linear 0ms infinite,FPncjtJx_fade 6700ms linear 0ms infinite;}.FPncjtJx_76{stroke-dasharray:23 25;stroke-dashoffset:24;animation:FPncjtJx_draw_76 6700ms linear 0ms infinite,FPncjtJx_fade 6700ms linear 0ms infinite;}.FPncjtJx_77{stroke-dasharray:23 25;stroke-dashoffset:24;animation:FPncjtJx_draw_77 6700ms linear 0ms infinite,FPncjtJx_fade 6700ms linear 0ms infinite;}.FPncjtJx_78{stroke-dasharray:23 25;stroke-dashoffset:24;animation:FPncjtJx_draw_78 6700ms linear 0ms infinite,FPncjtJx_fade 6700ms linear 0ms infinite;}.FPncjtJx_79{stroke-dasharray:23 25;stroke-dashoffset:24;animation:FPncjtJx_draw_79 6700ms linear 0ms infinite,FPncjtJx_fade 6700ms linear 0ms infinite;}.FPncjtJx_80{stroke-dasharray:23 25;stroke-dashoffset:24;animation:FPncjtJx_draw_80 6700ms linear 0ms infinite,FPncjtJx_fade 6700ms linear 0ms infinite;}.FPncjtJx_81{stroke-dasharray:23 25;stroke-dashoffset:24;animation:FPncjtJx_draw_81 6700ms linear 0ms infinite,FPncjtJx_fade 6700ms linear 0ms infinite;}.FPncjtJx_82{stroke-dasharray:23 25;stroke-dashoffset:24;animation:FPncjtJx_draw_82 6700ms linear 0ms infinite,FPncjtJx_fade 6700ms linear 0ms infinite;}.FPncjtJx_83{stroke-dasharray:23 25;stroke-dashoffset:24;animation:FPncjtJx_draw_83 6700ms linear 0ms infinite,FPncjtJx_fade 6700ms linear 0ms infinite;}.FPncjtJx_84{stroke-dasharray:23 25;stroke-dashoffset:24;animation:FPncjtJx_draw_84 6700ms linear 0ms infinite,FPncjtJx_fade 6700ms linear 0ms infinite;}.FPncjtJx_85{stroke-dasharray:23 25;stroke-dashoffset:24;animation:FPncjtJx_draw_85 6700ms linear 0ms infinite,FPncjtJx_fade 6700ms linear 0ms infinite;}.FPncjtJx_86{stroke-dasharray:23 25;stroke-dashoffset:24;animation:FPncjtJx_draw_86 6700ms linear 0ms infinite,FPncjtJx_fade 6700ms linear 0ms infinite;}.FPncjtJx_87{stroke-dasharray:23 25;stroke-dashoffset:24;animation:FPncjtJx_draw_87 6700ms linear 0ms infinite,FPncjtJx_fade 6700ms linear 0ms infinite;}.FPncjtJx_88{stroke-dasharray:23 25;stroke-dashoffset:24;animation:FPncjtJx_draw_88 6700ms linear 0ms infinite,FPncjtJx_fade 6700ms linear 0ms infinite;}.FPncjtJx_89{stroke-dasharray:23 25;stroke-dashoffset:24;animation:FPncjtJx_draw_89 6700ms linear 0ms infinite,FPncjtJx_fade 6700ms linear 0ms infinite;}.FPncjtJx_90{stroke-dasharray:23 25;stroke-dashoffset:24;animation:FPncjtJx_draw_90 6700ms linear 0ms infinite,FPncjtJx_fade 6700ms linear 0ms infinite;}.FPncjtJx_91{stroke-dasharray:23 25;stroke-dashoffset:24;animation:FPncjtJx_draw_91 6700ms linear 0ms infinite,FPncjtJx_fade 6700ms linear 0ms infinite;}.FPncjtJx_92{stroke-dasharray:23 25;stroke-dashoffset:24;animation:FPncjtJx_draw_92 6700ms linear 0ms infinite,FPncjtJx_fade 6700ms linear 0ms infinite;}.FPncjtJx_93{stroke-dasharray:23 25;stroke-dashoffset:24;animation:FPncjtJx_draw_93 6700ms linear 0ms infinite,FPncjtJx_fade 6700ms linear 0ms infinite;}.FPncjtJx_94{stroke-dasharray:23 25;stroke-dashoffset:24;animation:FPncjtJx_draw_94 6700ms linear 0ms infinite,FPncjtJx_fade 6700ms linear 0ms infinite;}.FPncjtJx_95{stroke-dasharray:23 25;stroke-dashoffset:24;animation:FPncjtJx_draw_95 6700ms linear 0ms infinite,FPncjtJx_fade 6700ms linear 0ms infinite;}.FPncjtJx_96{stroke-dasharray:23 25;stroke-dashoffset:24;animation:FPncjtJx_draw_96 6700ms linear 0ms infinite,FPncjtJx_fade 6700ms linear 0ms infinite;}.FPncjtJx_97{stroke-dasharray:23 25;stroke-dashoffset:24;animation:FPncjtJx_draw_97 6700ms linear 0ms infinite,FPncjtJx_fade 6700ms linear 0ms infinite;}.FPncjtJx_98{stroke-dasharray:23 25;stroke-dashoffset:24;animation:FPncjtJx_draw_98 6700ms linear 0ms infinite,FPncjtJx_fade 6700ms linear 0ms infinite;}@keyframes FPncjtJx_draw{100%{stroke-dashoffset:0;}}@keyframes FPncjtJx_fade{0%{stroke-opacity:1;}94.02985074626866%{stroke-opacity:1;}100%{stroke-opacity:0;}}@keyframes FPncjtJx_draw_0{4.477611940298507%{stroke-dashoffset: 1471}34.32835820895522%{ stroke-dashoffset: 0;}100%{ stroke-dashoffset: 0;}}@keyframes FPncjtJx_draw_1{4.629911666159002%{stroke-dashoffset: 139}34.48065793481572%{ stroke-dashoffset: 0;}100%{ stroke-dashoffset: 0;}}@keyframes FPncjtJx_draw_2{4.782211392019494%{stroke-dashoffset: 62}34.63295766067621%{ stroke-dashoffset: 0;}100%{ stroke-dashoffset: 0;}}@keyframes FPncjtJx_draw_3{4.934511117879987%{stroke-dashoffset: 162}34.7852573865367%{ stroke-dashoffset: 0;}100%{ stroke-dashoffset: 0;}}@keyframes FPncjtJx_draw_4{5.086810843740481%{stroke-dashoffset: 63}34.937557112397194%{ stroke-dashoffset: 0;}100%{ stroke-dashoffset: 0;}}@keyframes FPncjtJx_draw_5{5.2391105696009745%{stroke-dashoffset: 2026}35.089856838257695%{ stroke-dashoffset: 0;}100%{ stroke-dashoffset: 0;}}@keyframes FPncjtJx_draw_6{5.391410295461468%{stroke-dashoffset: 123}35.24215656411819%{ stroke-dashoffset: 0;}100%{ stroke-dashoffset: 0;}}@keyframes FPncjtJx_draw_7{5.543710021321962%{stroke-dashoffset: 145}35.394456289978685%{ stroke-dashoffset: 0;}100%{ stroke-dashoffset: 0;}}@keyframes FPncjtJx_draw_8{5.696009747182455%{stroke-dashoffset: 128}35.54675601583917%{ stroke-dashoffset: 0;}100%{ stroke-dashoffset: 0;}}@keyframes FPncjtJx_draw_9{5.848309473042948%{stroke-dashoffset: 33}35.69905574169967%{ stroke-dashoffset: 0;}100%{ stroke-dashoffset: 0;}}@keyframes FPncjtJx_draw_10{6.000609198903442%{stroke-dashoffset: 197}35.85135546756016%{ stroke-dashoffset: 0;}100%{ stroke-dashoffset: 0;}}@keyframes FPncjtJx_draw_11{6.152908924763936%{stroke-dashoffset: 144}36.003655193420656%{ stroke-dashoffset: 0;}100%{ stroke-dashoffset: 0;}}@keyframes FPncjtJx_draw_12{6.305208650624429%{stroke-dashoffset: 171}36.15595491928114%{ stroke-dashoffset: 0;}100%{ stroke-dashoffset: 0;}}@keyframes FPncjtJx_draw_13{6.457508376484922%{stroke-dashoffset: 74}36.30825464514164%{ stroke-dashoffset: 0;}100%{ stroke-dashoffset: 0;}}@keyframes FPncjtJx_draw_14{6.609808102345416%{stroke-dashoffset: 19}36.46055437100213%{ stroke-dashoffset: 0;}100%{ stroke-dashoffset: 0;}}@keyframes FPncjtJx_draw_15{6.762107828205909%{stroke-dashoffset: 62}36.61285409686263%{ stroke-dashoffset: 0;}100%{ stroke-dashoffset: 0;}}@keyframes FPncjtJx_draw_16{6.914407554066402%{stroke-dashoffset: 63}36.76515382272312%{ stroke-dashoffset: 0;}100%{ stroke-dashoffset: 0;}}@keyframes FPncjtJx_draw_17{7.066707279926897%{stroke-dashoffset: 131}36.91745354858361%{ stroke-dashoffset: 0;}100%{ stroke-dashoffset: 0;}}@keyframes FPncjtJx_draw_18{7.21900700578739%{stroke-dashoffset: 1}37.0697532744441%{ stroke-dashoffset: 0;}100%{ stroke-dashoffset: 0;}}@keyframes FPncjtJx_draw_19{7.371306731647883%{stroke-dashoffset: 2}37.2220530003046%{ stroke-dashoffset: 0;}100%{ stroke-dashoffset: 0;}}@keyframes FPncjtJx_draw_20{7.523606457508376%{stroke-dashoffset: 63}37.37435272616509%{ stroke-dashoffset: 0;}100%{ stroke-dashoffset: 0;}}@keyframes FPncjtJx_draw_21{7.675906183368869%{stroke-dashoffset: 101}37.52665245202558%{ stroke-dashoffset: 0;}100%{ stroke-dashoffset: 0;}}@keyframes FPncjtJx_draw_22{7.828205909229363%{stroke-dashoffset: 39}37.678952177886075%{ stroke-dashoffset: 0;}100%{ stroke-dashoffset: 0;}}@keyframes FPncjtJx_draw_23{7.980505635089856%{stroke-dashoffset: 172}37.83125190374657%{ stroke-dashoffset: 0;}100%{ stroke-dashoffset: 0;}}@keyframes FPncjtJx_draw_24{8.13280536095035%{stroke-dashoffset: 59}37.983551629607064%{ stroke-dashoffset: 0;}100%{ stroke-dashoffset: 0;}}@keyframes FPncjtJx_draw_25{8.285105086810843%{stroke-dashoffset: 20}38.135851355467565%{ stroke-dashoffset: 0;}100%{ stroke-dashoffset: 0;}}@keyframes FPncjtJx_draw_26{8.437404812671335%{stroke-dashoffset: 56}38.288151081328046%{ stroke-dashoffset: 0;}100%{ stroke-dashoffset: 0;}}@keyframes FPncjtJx_draw_27{8.589704538531832%{stroke-dashoffset: 8}38.44045080718855%{ stroke-dashoffset: 0;}100%{ stroke-dashoffset: 0;}}@keyframes FPncjtJx_draw_28{8.742004264392325%{stroke-dashoffset: 131}38.59275053304904%{ stroke-dashoffset: 0;}100%{ stroke-dashoffset: 0;}}@keyframes FPncjtJx_draw_29{8.894303990252817%{stroke-dashoffset: 93}38.74505025890954%{ stroke-dashoffset: 0;}100%{ stroke-dashoffset: 0;}}@keyframes FPncjtJx_draw_30{9.04660371611331%{stroke-dashoffset: 100}38.897349984770024%{ stroke-dashoffset: 0;}100%{ stroke-dashoffset: 0;}}@keyframes FPncjtJx_draw_31{9.198903441973803%{stroke-dashoffset: 30}39.04964971063052%{ stroke-dashoffset: 0;}100%{ stroke-dashoffset: 0;}}@keyframes FPncjtJx_draw_32{9.351203167834298%{stroke-dashoffset: 8}39.20194943649101%{ stroke-dashoffset: 0;}100%{ stroke-dashoffset: 0;}}@keyframes FPncjtJx_draw_33{9.503502893694792%{stroke-dashoffset: 21}39.35424916235151%{ stroke-dashoffset: 0;}100%{ stroke-dashoffset: 0;}}@keyframes FPncjtJx_draw_34{9.655802619555285%{stroke-dashoffset: 7}39.50654888821201%{ stroke-dashoffset: 0;}100%{ stroke-dashoffset: 0;}}@keyframes FPncjtJx_draw_35{9.808102345415778%{stroke-dashoffset: 21}39.65884861407249%{ stroke-dashoffset: 0;}100%{ stroke-dashoffset: 0;}}@keyframes FPncjtJx_draw_36{9.96040207127627%{stroke-dashoffset: 35}39.81114833993299%{ stroke-dashoffset: 0;}100%{ stroke-dashoffset: 0;}}@keyframes FPncjtJx_draw_37{10.112701797136765%{stroke-dashoffset: 39}39.963448065793486%{ stroke-dashoffset: 0;}100%{ stroke-dashoffset: 0;}}@keyframes FPncjtJx_draw_38{10.26500152299726%{stroke-dashoffset: 189}40.11574779165398%{ stroke-dashoffset: 0;}100%{ stroke-dashoffset: 0;}}@keyframes FPncjtJx_draw_39{10.417301248857752%{stroke-dashoffset: 154}40.26804751751447%{ stroke-dashoffset: 0;}100%{ stroke-dashoffset: 0;}}@keyframes FPncjtJx_draw_40{10.569600974718245%{stroke-dashoffset: 154}40.42034724337496%{ stroke-dashoffset: 0;}100%{ stroke-dashoffset: 0;}}@keyframes FPncjtJx_draw_41{10.721900700578738%{stroke-dashoffset: 38}40.57264696923546%{ stroke-dashoffset: 0;}100%{ stroke-dashoffset: 0;}}@keyframes FPncjtJx_draw_42{10.874200426439232%{stroke-dashoffset: 112}40.72494669509595%{ stroke-dashoffset: 0;}100%{ stroke-dashoffset: 0;}}@keyframes FPncjtJx_draw_43{11.026500152299727%{stroke-dashoffset: 28}40.877246420956446%{ stroke-dashoffset: 0;}100%{ stroke-dashoffset: 0;}}@keyframes FPncjtJx_draw_44{11.17879987816022%{stroke-dashoffset: 133}41.029546146816934%{ stroke-dashoffset: 0;}100%{ stroke-dashoffset: 0;}}@keyframes FPncjtJx_draw_45{11.331099604020713%{stroke-dashoffset: 32}41.18184587267743%{ stroke-dashoffset: 0;}100%{ stroke-dashoffset: 0;}}@keyframes FPncjtJx_draw_46{11.483399329881205%{stroke-dashoffset: 166}41.334145598537916%{ stroke-dashoffset: 0;}100%{ stroke-dashoffset: 0;}}@keyframes FPncjtJx_draw_47{11.6356990557417%{stroke-dashoffset: 78}41.48644532439842%{ stroke-dashoffset: 0;}100%{ stroke-dashoffset: 0;}}@keyframes FPncjtJx_draw_48{11.787998781602194%{stroke-dashoffset: 241}41.63874505025891%{ stroke-dashoffset: 0;}100%{ stroke-dashoffset: 0;}}@keyframes FPncjtJx_draw_49{11.940298507462686%{stroke-dashoffset: 227}41.7910447761194%{ stroke-dashoffset: 0;}100%{ stroke-dashoffset: 0;}}@keyframes FPncjtJx_draw_50{12.092598233323178%{stroke-dashoffset: 186}41.943344501979894%{ stroke-dashoffset: 0;}100%{ stroke-dashoffset: 0;}}@keyframes FPncjtJx_draw_51{12.244897959183673%{stroke-dashoffset: 186}42.09564422784039%{ stroke-dashoffset: 0;}100%{ stroke-dashoffset: 0;}}@keyframes FPncjtJx_draw_52{12.397197685044166%{stroke-dashoffset: 186}42.24794395370088%{ stroke-dashoffset: 0;}100%{ stroke-dashoffset: 0;}}@keyframes FPncjtJx_draw_53{12.549497410904662%{stroke-dashoffset: 190}42.40024367956137%{ stroke-dashoffset: 0;}100%{ stroke-dashoffset: 0;}}@keyframes FPncjtJx_draw_54{12.701797136765153%{stroke-dashoffset: 51}42.55254340542187%{ stroke-dashoffset: 0;}100%{ stroke-dashoffset: 0;}}@keyframes FPncjtJx_draw_55{12.854096862625648%{stroke-dashoffset: 135}42.70484313128236%{ stroke-dashoffset: 0;}100%{ stroke-dashoffset: 0;}}@keyframes FPncjtJx_draw_56{13.00639658848614%{stroke-dashoffset: 170}42.85714285714286%{ stroke-dashoffset: 0;}100%{ stroke-dashoffset: 0;}}@keyframes FPncjtJx_draw_57{13.158696314346633%{stroke-dashoffset: 152}43.009442583003356%{ stroke-dashoffset: 0;}100%{ stroke-dashoffset: 0;}}@keyframes FPncjtJx_draw_58{13.31099604020713%{stroke-dashoffset: 1}43.16174230886384%{ stroke-dashoffset: 0;}100%{ stroke-dashoffset: 0;}}@keyframes FPncjtJx_draw_59{13.46329576606762%{stroke-dashoffset: 528}43.31404203472434%{ stroke-dashoffset: 0;}100%{ stroke-dashoffset: 0;}}@keyframes FPncjtJx_draw_60{13.615595491928115%{stroke-dashoffset: 435}43.46634176058483%{ stroke-dashoffset: 0;}100%{ stroke-dashoffset: 0;}}@keyframes FPncjtJx_draw_61{13.76789521778861%{stroke-dashoffset: 88}43.61864148644533%{ stroke-dashoffset: 0;}100%{ stroke-dashoffset: 0;}}@keyframes FPncjtJx_draw_62{13.9201949436491%{stroke-dashoffset: 49}43.770941212305814%{ stroke-dashoffset: 0;}100%{ stroke-dashoffset: 0;}}@keyframes FPncjtJx_draw_63{14.072494669509595%{stroke-dashoffset: 184}43.923240938166316%{ stroke-dashoffset: 0;}100%{ stroke-dashoffset: 0;}}@keyframes FPncjtJx_draw_64{14.224794395370088%{stroke-dashoffset: 110}44.0755406640268%{ stroke-dashoffset: 0;}100%{ stroke-dashoffset: 0;}}@keyframes FPncjtJx_draw_65{14.377094121230579%{stroke-dashoffset: 151}44.227840389887305%{ stroke-dashoffset: 0;}100%{ stroke-dashoffset: 0;}}@keyframes FPncjtJx_draw_66{14.529393847091077%{stroke-dashoffset: 44}44.38014011574779%{ stroke-dashoffset: 0;}100%{ stroke-dashoffset: 0;}}@keyframes FPncjtJx_draw_67{14.681693572951568%{stroke-dashoffset: 35}44.53243984160829%{ stroke-dashoffset: 0;}100%{ stroke-dashoffset: 0;}}@keyframes FPncjtJx_draw_68{14.833993298812063%{stroke-dashoffset: 28}44.68473956746878%{ stroke-dashoffset: 0;}100%{ stroke-dashoffset: 0;}}@keyframes FPncjtJx_draw_69{14.986293024672555%{stroke-dashoffset: 38}44.83703929332927%{ stroke-dashoffset: 0;}100%{ stroke-dashoffset: 0;}}@keyframes FPncjtJx_draw_70{15.138592750533048%{stroke-dashoffset: 40}44.989339019189764%{ stroke-dashoffset: 0;}100%{ stroke-dashoffset: 0;}}@keyframes FPncjtJx_draw_71{15.290892476393541%{stroke-dashoffset: 892}45.14163874505026%{ stroke-dashoffset: 0;}100%{ stroke-dashoffset: 0;}}@keyframes FPncjtJx_draw_72{15.443192202254034%{stroke-dashoffset: 40}45.29393847091075%{ stroke-dashoffset: 0;}100%{ stroke-dashoffset: 0;}}@keyframes FPncjtJx_draw_73{15.59549192811453%{stroke-dashoffset: 28}45.44623819677124%{ stroke-dashoffset: 0;}100%{ stroke-dashoffset: 0;}}@keyframes FPncjtJx_draw_74{15.747791653975021%{stroke-dashoffset: 41}45.59853792263174%{ stroke-dashoffset: 0;}100%{ stroke-dashoffset: 0;}}@keyframes FPncjtJx_draw_75{15.900091379835516%{stroke-dashoffset: 24}45.75083764849223%{ stroke-dashoffset: 0;}100%{ stroke-dashoffset: 0;}}@keyframes FPncjtJx_draw_76{16.052391105696014%{stroke-dashoffset: 24}45.903137374352724%{ stroke-dashoffset: 0;}100%{ stroke-dashoffset: 0;}}@keyframes FPncjtJx_draw_77{16.204690831556505%{stroke-dashoffset: 24}46.05543710021322%{ stroke-dashoffset: 0;}100%{ stroke-dashoffset: 0;}}@keyframes FPncjtJx_draw_78{16.356990557417%{stroke-dashoffset: 24}46.20773682607371%{ stroke-dashoffset: 0;}100%{ stroke-dashoffset: 0;}}@keyframes FPncjtJx_draw_79{16.50929028327749%{stroke-dashoffset: 24}46.36003655193421%{ stroke-dashoffset: 0;}100%{ stroke-dashoffset: 0;}}@keyframes FPncjtJx_draw_80{16.66159000913798%{stroke-dashoffset: 24}46.512336277794695%{ stroke-dashoffset: 0;}100%{ stroke-dashoffset: 0;}}@keyframes FPncjtJx_draw_81{16.813889734998476%{stroke-dashoffset: 24}46.66463600365519%{ stroke-dashoffset: 0;}100%{ stroke-dashoffset: 0;}}@keyframes FPncjtJx_draw_82{16.966189460858967%{stroke-dashoffset: 24}46.816935729515684%{ stroke-dashoffset: 0;}100%{ stroke-dashoffset: 0;}}@keyframes FPncjtJx_draw_83{17.11848918671946%{stroke-dashoffset: 24}46.969235455376186%{ stroke-dashoffset: 0;}100%{ stroke-dashoffset: 0;}}@keyframes FPncjtJx_draw_84{17.270788912579956%{stroke-dashoffset: 24}47.121535181236666%{ stroke-dashoffset: 0;}100%{ stroke-dashoffset: 0;}}@keyframes FPncjtJx_draw_85{17.423088638440454%{stroke-dashoffset: 24}47.27383490709717%{ stroke-dashoffset: 0;}100%{ stroke-dashoffset: 0;}}@keyframes FPncjtJx_draw_86{17.575388364300945%{stroke-dashoffset: 24}47.42613463295766%{ stroke-dashoffset: 0;}100%{ stroke-dashoffset: 0;}}@keyframes FPncjtJx_draw_87{17.72768809016144%{stroke-dashoffset: 24}47.57843435881816%{ stroke-dashoffset: 0;}100%{ stroke-dashoffset: 0;}}@keyframes FPncjtJx_draw_88{17.87998781602193%{stroke-dashoffset: 24}47.73073408467865%{ stroke-dashoffset: 0;}100%{ stroke-dashoffset: 0;}}@keyframes FPncjtJx_draw_89{18.032287541882425%{stroke-dashoffset: 24}47.88303381053914%{ stroke-dashoffset: 0;}100%{ stroke-dashoffset: 0;}}@keyframes FPncjtJx_draw_90{18.184587267742916%{stroke-dashoffset: 24}48.035333536399634%{ stroke-dashoffset: 0;}100%{ stroke-dashoffset: 0;}}@keyframes FPncjtJx_draw_91{18.33688699360341%{stroke-dashoffset: 24}48.18763326226013%{ stroke-dashoffset: 0;}100%{ stroke-dashoffset: 0;}}@keyframes FPncjtJx_draw_92{18.489186719463902%{stroke-dashoffset: 24}48.33993298812062%{ stroke-dashoffset: 0;}100%{ stroke-dashoffset: 0;}}@keyframes FPncjtJx_draw_93{18.6414864453244%{stroke-dashoffset: 24}48.49223271398111%{ stroke-dashoffset: 0;}100%{ stroke-dashoffset: 0;}}@keyframes FPncjtJx_draw_94{18.79378617118489%{stroke-dashoffset: 24}48.64453243984161%{ stroke-dashoffset: 0;}100%{ stroke-dashoffset: 0;}}@keyframes FPncjtJx_draw_95{18.946085897045386%{stroke-dashoffset: 24}48.79683216570211%{ stroke-dashoffset: 0;}100%{ stroke-dashoffset: 0;}}@keyframes FPncjtJx_draw_96{19.09838562290588%{stroke-dashoffset: 24}48.949131891562594%{ stroke-dashoffset: 0;}100%{ stroke-dashoffset: 0;}}@keyframes FPncjtJx_draw_97{19.25068534876637%{stroke-dashoffset: 24}49.10143161742309%{ stroke-dashoffset: 0;}100%{ stroke-dashoffset: 0;}}@keyframes FPncjtJx_draw_98{19.402985074626866%{stroke-dashoffset: 24}49.25373134328358%{ stroke-dashoffset: 0;}100%{ stroke-dashoffset: 0;}}</style></svg>
