<svg id="Layer_1" data-name="Layer 1" xmlns="http://www.w3.org/2000/svg" viewBox="0 0 450 77.1"><defs><style>.cls-1{opacity:0.1;}.cls-2{fill:#fdfeff;}.cls-3{fill:#fff;}.cls-4{fill:#222;}.cls-5{fill:#222323;}.cls-6{fill:#2b2c2b;}.cls-7{fill:#323333;}.cls-8{fill:#434343;}.cls-9{fill:#1b1c1c;}.cls-10{fill:#202121;}.cls-11{fill:#232323;}.cls-12{fill:#414141;}.cls-13{fill:#3c3c3b;}.cls-14{fill:#444;}.cls-15{fill:#323232;}.cls-16{fill:#2e2f2e;}.cls-17{fill:#2d2d2c;}.cls-18{fill:#262727;}.cls-19{fill:#e1e0e0;}.cls-20{fill:#2e2f2f;}.cls-21{fill:#eceaeb;}.cls-22{fill:#f6f7f7;}.cls-23{fill:#f1efef;}.cls-24{fill:#1e1e1e;}.cls-25{fill:#e2e1e0;}.cls-26{fill:#302f2f;}.cls-27{fill:#191a1a;}.cls-28{fill:#313131;}</style></defs><title>nav_back</title><g class="cls-1"><path class="cls-2" d="M68.15,133.56v-6c2.93-3.21,4.74,1,7,1-2.14-1.36-4.92-2-7-4v-13a6.06,6.06,0,0,1,4.27.94c13.58,7,27.07,14.11,40.62,21.13,4.88,2.53,6.35,6.83,4,11.77-4,8.54-8.79,16.74-13,25.19a6.51,6.51,0,0,1-6.09,3.75c-4.54-.34-6.65,1.89-8.1,5.67-.42,1.09-.75,2.84-2.54,2.55-1.32-.21-1.81-1.55-1.89-2.67-.7-9.41-6.29-14.75-14.65-17.85a11.37,11.37,0,0,1-2.59-1.48v-25c1.1-1.12,2-.23,2.88,0C70.36,134.78,68.94,134.59,68.15,133.56Z" transform="translate(-68.15 -109.56)"/><path class="cls-3" d="M518.15,134.56v25c-7.16-1.73-13.51-5.35-19.48-9.35-3.36-2.25-4-6.57-2-10.35,4.4-8,8.19-16.31,12.6-24.28,1.77-3.21,4.39-6,8.84-4v14c-1.08,4.51-3.65,8.32-5.78,12C514.53,137.11,513.1,130.34,518.15,134.56Z" transform="translate(-68.15 -109.56)"/><path class="cls-4" d="M68.15,160.56C79.57,163.3,86.56,170,86.3,183.14l1.32-.84a33.21,33.21,0,0,0,2.46-4.6c1.16-3.28,3.08-4.73,6.71-4.18,3.42.52,5.6-1.64,7.07-4.45,4.14-7.92,8.27-15.85,12.29-23.83,2.23-4.44,1.23-8.33-3.05-10.57-14.93-7.81-30-15.42-45-23.1v-1c2-.9,3.53.56,5,1.34q19.41,9.94,38.72,20.07c7.63,4,9,8.17,5,15.81-3.71,7.2-7.57,14.33-11.21,21.57-1.7,3.39-4.31,6.24-7.89,6-4.68-.38-5.87,2.44-7.46,5.52-.8,1.55-1.06,4.12-3.1,4.08-2.68-.05-2.55-3.07-2.63-4.69-.53-10.75-8.18-14.94-16.5-18.65Z" transform="translate(-68.15 -109.56)"/><path class="cls-5" d="M518.15,111.56c-3.89-.2-6.58,1.42-8.36,5-3.86,7.69-8,15.27-11.86,22.94-2.67,5.25-1.62,8.89,3.43,11.59,5.53,3,11.19,5.68,16.79,8.5v2c-6-3-12.15-6-18.1-9.17-5.08-2.73-6.58-7.9-3.92-13.19,4-8,8.18-15.87,12.26-23.82,2.05-4,5.54-5.51,9.77-5.82Z" transform="translate(-68.15 -109.56)"/><path class="cls-6" d="M518.15,134.56c-1.46-.36-2.88-1.27-3.84,1-.86,2.07-1.5,4.41-4,5.57a66.86,66.86,0,0,1,7.87-15.6Z" transform="translate(-68.15 -109.56)"/><path class="cls-7" d="M68.15,124.56c4,.86,7.29,3.22,11.25,5.5-2.89,1.27-4.27-.83-6.05-1.38s-3.06-2.64-5.19-1.12Z" transform="translate(-68.15 -109.56)"/><path class="cls-8" d="M68.15,133.56c2.5-.35,3.76,1.51,6,2.6-2.79,1.65-4.06-1.27-6-.6Z" transform="translate(-68.15 -109.56)"/><path class="cls-9" d="M352.19,151c-2.34,3-4.61,6-7.06,8.91a5.25,5.25,0,0,0-1.42,4.83c.75,4.89-3.42,8.52-8.07,7-2.53-.85-3.9,0-5.84,1.09-3.82,2.24-7.59,4.77-12.17,5.3-4.92.57-7.69-1.38-7.32-6.25.63-8.37-1.16-15.75-6.5-22.29a6.85,6.85,0,0,1-1.42-3.65c-.36-5.33,1.74-10.68-2.8-15.82-2.11-2.39.26-6.67,4.21-8.17,3.66-1.4,7-.38,8.48,2.94,1.37,3.05,2.74,2.83,5.51,2.5a11.76,11.76,0,0,1,10.63,4.35c4.35,5.27,9.63,8.37,16.64,8.65a9.76,9.76,0,0,1,8.31,4.69Z" transform="translate(-68.15 -109.56)"/><path class="cls-10" d="M438.79,186.65a22.78,22.78,0,0,1-22.5-22.57c0-12.66,10.43-22.68,23.52-22.56,12.2.11,22.5,10.71,22.22,22.85A22.69,22.69,0,0,1,438.79,186.65Z" transform="translate(-68.15 -109.56)"/><path class="cls-11" d="M230.44,132.9c4.63,2.63,7.18,5.91,4.07,11.41-1,1.72.43,3.53.88,5.25a16.38,16.38,0,1,1-31.61,8.63A16.13,16.13,0,0,1,215,138.32c3.13-.89,5.61-1.91,7.46-5,2.08-3.48,5.31-1.05,8.06-.24Z" transform="translate(-68.15 -109.56)"/><path class="cls-12" d="M233.83,128.89a22.61,22.61,0,0,0,2.41,1.39c1,.43,1.86,1.3,1.38,2.08s-1.72.05-2.62-.15c-2.8.89-4.42-.64-5.72-2.8-.1-1.14-1.43-3.34,1.58-1.78a18.57,18.57,0,0,0,2.77.93Z" transform="translate(-68.15 -109.56)"/><path class="cls-11" d="M229.29,129.42a16.36,16.36,0,0,0,5.72,2.8l1.43,2.41-6-1.73.11.17c.15-1.76-1.67-1.15-2.3-1.93-.35-.44-.8-1.18-.65-1.57C227.92,128.74,228.7,129.44,229.29,129.42Z" transform="translate(-68.15 -109.56)"/><path class="cls-13" d="M211.21,171.61l-3.78,6c-.64-3.32,1.18-5.06,2.52-7.09Z" transform="translate(-68.15 -109.56)"/><path class="cls-13" d="M226.9,172.13l.84,7c-2.59-2.17-2.28-4.66-2.53-7.09Z" transform="translate(-68.15 -109.56)"/><path class="cls-14" d="M194.37,143.34c3.6,1,6.27,1.14,8,4C199.29,147.29,197,146.41,194.37,143.34Z" transform="translate(-68.15 -109.56)"/><path class="cls-15" d="M234.13,165.37a9.2,9.2,0,0,1,7,4.32C238.58,169.43,236.76,168,234.13,165.37Z" transform="translate(-68.15 -109.56)"/><path class="cls-16" d="M202.67,161.19c-2.55,2.21-4.91,2.63-8.58,3.61C197,161.73,199.22,161.06,202.67,161.19Z" transform="translate(-68.15 -109.56)"/><path class="cls-17" d="M233.63,128.57c0-1.43-2.73-.78-2.06-3.15,2.29,1,4.72,1.47,6.24,3.89-1.56.56-2.75-.15-4-.42Z" transform="translate(-68.15 -109.56)"/><path class="cls-18" d="M98.11,160.72a13.33,13.33,0,0,0-5.27-2.78c-4.72-1-6.5-5.05-4.66-9.54a26.24,26.24,0,0,1,2.48-4.83c2.26-3.32,5.1-5.28,9.23-3s4.17,5.65,2.71,9.4a18.71,18.71,0,0,1-2.79,5.23C98.49,156.79,97.35,158.23,98.11,160.72Z" transform="translate(-68.15 -109.56)"/><path class="cls-10" d="M83.61,154.06c-2.53-4,1.53-8-3.78-10.29-4.7-2-5.94,2-9.13,2.52,3.82-5,8.6-9,13.44-12.9,1.22-1,2.27.13,2.08,1.6C85.46,140.92,84.6,146.84,83.61,154.06Z" transform="translate(-68.15 -109.56)"/><path class="cls-3" d="M317.48,129c4.83,0,7.85,1.53,10.17,4.39,4.43,5.48,10.16,8.21,17.19,8.7,6.57.46,8.24,3.68,4.69,9.25a63.14,63.14,0,0,1-29.43,24.4c-5.78,2.44-9.32-.32-8.4-6.44,1-6.91-.84-12.8-4.83-18.18-3-4.09-4.31-8.61-1.69-13C308.12,133.28,312.39,129.56,317.48,129Z" transform="translate(-68.15 -109.56)"/><path class="cls-19" d="M307.4,133.08c-3.09,2-4.89.43-6.09-2.3-1.33-3-.32-5.45,2.51-7s5.13-.71,7,1.55c2.07,2.5,1.29,4.45-1.51,5.78a2.48,2.48,0,0,1-.68-1.25c-.32-1.42-.43-3-2.37-3.17a1.89,1.89,0,0,0-1.94,1.21c-.74,1.95,1,2.44,2.08,3.29C307,131.63,307.73,132.09,307.4,133.08Z" transform="translate(-68.15 -109.56)"/><path class="cls-20" d="M307.4,133.08c-.23-1.53-1.59-.67-2.31-1.1-1.63-1-3-2.25-2.32-4.37a3.42,3.42,0,0,1,3.74-2.61c2.31.18,3.08,1.66,3.24,3.62a9.68,9.68,0,0,1-.43,2.44A2.82,2.82,0,0,1,307.4,133.08Z" transform="translate(-68.15 -109.56)"/><path class="cls-21" d="M334.68,169.64l6.52-5.62C343,168.53,341,170.47,334.68,169.64Z" transform="translate(-68.15 -109.56)"/><path class="cls-3" d="M439,143.24a20.76,20.76,0,0,1,21.11,20.5,21.19,21.19,0,0,1-20.8,21.52c-11.15.17-21-9.46-21.15-20.72A20.82,20.82,0,0,1,439,143.24Z" transform="translate(-68.15 -109.56)"/><path class="cls-3" d="M216.78,168.52c-7.32-2.2-11.63-7.84-11.82-14.1a14.35,14.35,0,0,1,9.8-14.11c3.73-1.14,7.12-2.25,9.24-6,1.52-2.69,3.55-.35,5.11.41,3.28,1.62,7.43,2.84,3.84,8.13-1.42,2.08.11,4.78.76,7.19a14,14,0,0,1-4,14.52A14.67,14.67,0,0,1,216.78,168.52Z" transform="translate(-68.15 -109.56)"/><path class="cls-22" d="M98,155.13c-2.08-.24-1.16-2.68-2.88-2.67-1.68,1.08,1.67,3.58-1.05,3.94-2.4.32-4-1.44-4.76-3.6-.87-2.47,3-10.09,5.56-11a4.67,4.67,0,0,1,5.11.88c1.44,1.45,2.64,3.06,1.57,5.28C100.42,150.37,99.22,152.72,98,155.13Z" transform="translate(-68.15 -109.56)"/><path class="cls-23" d="M77.9,141.08l6.45-6c-.32,3.34.59,6.23-1.41,8C81.57,144.23,79.87,142.08,77.9,141.08Z" transform="translate(-68.15 -109.56)"/><path class="cls-24" d="M339.75,144.19c-.75,5.72-7.39,13-14.31,15.64C330.85,155.22,336.24,150.59,339.75,144.19Z" transform="translate(-68.15 -109.56)"/><path class="cls-25" d="M306.63,130.21c-1.34,0-2.14-.38-2.24-1.57a1.6,1.6,0,0,1,1.72-1.84,1.85,1.85,0,0,1,2.08,1.59C308.34,129.62,307.35,129.94,306.63,130.21Z" transform="translate(-68.15 -109.56)"/><path class="cls-26" d="M447.73,170.38c-.49,3.54-1.76,5.2-4.16,5.09-2.16-.09-2.76-2.17-3.3-3.89-.78-2.51-1.36-5.07-2-7.61-.24-.88.11-2-1.17-2.46-.69-.22-2.32.78-1.72-1.15.14-.46,1-.89,1.56-1a1.79,1.79,0,0,1,2.27,1.33c.82,3,1.8,6,2.55,9C442.66,173.57,443.89,175.89,447.73,170.38Z" transform="translate(-68.15 -109.56)"/><path class="cls-27" d="M435.61,152.46c1.3-.09,1.76.72,1.79,1.81,0,1.25-.34,2.3-1.89,2.26a2,2,0,0,1-2.2-2.09C433.32,153.12,434.29,152.48,435.61,152.46Z" transform="translate(-68.15 -109.56)"/><path class="cls-28" d="M215.21,164c-6.54-2-9-8.53-6-14.55C208.61,155,210.06,159.75,215.21,164Z" transform="translate(-68.15 -109.56)"/></g></svg>