<!--?xml version="1.0" encoding="utf-8"?-->
<!-- Generator: Adobe Illustrator 22.0.1, SVG Export Plug-In . SVG Version: 6.00 Build 0)  -->
<svg version="1.1" id="Layer_1" xmlns="http://www.w3.org/2000/svg" xmlns:xlink="http://www.w3.org/1999/xlink" x="0px" y="0px" viewBox="0 0 172.7 645" style="" xml:space="preserve">
<style type="text/css">
	.st0{fill:#E2E2E2;}
	.st1{fill:#88491F;}
	.st2{fill:#4E4F4F;}
	.st3{fill:#F16D68;}
	.st4{fill:#FFFFFF;}
	.st5{fill:#F3F3F3;}
	.st6{fill:#0D8F84;}
	.st7{fill:none;stroke:#4E4F4F;stroke-width:3.71;stroke-miterlimit:10;}
	.st8{fill:#D8DF2A;}
	.st9{fill:#676868;}
	.st10{fill:#FFFFFF;stroke:#676868;stroke-width:1.16;stroke-miterlimit:10;}
	.st11{fill:#BFC631;}
	.st12{fill:none;stroke:#676868;stroke-width:1.16;stroke-miterlimit:10;}
	.st13{fill:none;stroke:#676868;stroke-width:1.74;stroke-linecap:round;stroke-linejoin:round;}
</style>
<title>rules_right</title>
<path class="siccor st0 GlSwLNFE_0" d="M43.5,160.6c-3.2,3.9-9.1,4.5-13,1.2c0,0,0,0,0,0l-0.4-0.4c-3.9-3.2-4.5-9.1-1.2-13c0,0,0,0,0,0l52.5-63.6
	c3.2-3.9,9.1-4.5,13-1.2c0,0,0,0,0,0l0.4,0.4c3.9,3.2,4.5,9.1,1.2,13c0,0,0,0,0,0L43.5,160.6z"></path>
<path class="siccor st0 GlSwLNFE_1" d="M30.1,161.5c-3.9-3.2-4.5-9.1-1.2-13c0,0,0,0,0,0l52.5-63.6c3.2-3.9,9.1-4.5,13-1.2c0,0,0,0,0,0l0.4,0.4
	c3.9,3.2,4.5,9.1,1.2,13c0,0,0,0,0,0L30.1,161.5z"></path>
<path class="siccor st1 GlSwLNFE_2" d="M122.1,48L84.5,82.2c-3.8,3.4-5.2,8-1.7,11.8l1.1,1.2c3.4,3.7,9.2,4,13,0.6c0,0,12-10.1,18.6-10.4
	c13-0.4,25.5-5.6,35-14.5c13.1-11.9,18-27.9,11-35.6s-22.2-3-35.3,8.9L122.1,48z M130.7,49.2c0.9-0.9,1.9-1.6,2.8-2.4
	c9.6-7.5,19.2-8.6,21.8-5.8c2.8,3.1,0.1,14.1-10.5,23.7c-9.5,8.7-19.6,10.9-23.5,9c-0.4-0.2-0.7-0.4-1-0.8
	C114.2,66.3,120.2,58.8,130.7,49.2L130.7,49.2z"></path>
<path class="siccor st1 GlSwLNFE_3" d="M127.2,45.1c9.2-15.1,10.9-30.9,2-36.3s-23.6,2.4-32.8,17.6c-7,11-9.7,24.2-7.6,37.1C89.7,70,82,83.6,82,83.6
	c-2.7,4.3-1.3,10,3.1,12.7l1.4,0.9c4.4,2.6,8.6,0.4,11.3-3.9l26.5-43.5L127.2,45.1z M100.2,56.3c-0.4-0.2-0.7-0.5-0.9-0.9
	c-2.6-3.5-2.4-13.8,4.3-24.8c7.4-12.2,17.7-16.9,21.3-14.8c3.3,2,3.9,11.6-1.6,22.5c-0.5,1.1-1.1,2.1-1.8,3.2
	C114.1,53.7,107.9,61,100.2,56.3L100.2,56.3z"></path>
<path class="siccor st2 GlSwLNFE_4" d="M87.8,87.2A4,4 0,1,1 95.8,87.2A4,4 0,1,1 87.8,87.2"></path>
<path transform="matrix(0.9282 -0.3722 0.3722 0.9282 -176.3375 68.2797)" class="st2 GlSwLNFE_5" width="18" height="11.8" d="M79.7 485 L97.7 485 L97.7 496.8 L79.7 496.8 Z"></path>
<path class="st3 GlSwLNFE_6" d="M117.8,412.4c11.8,29.4-2.5,62.7-31.9,74.5c-29.4,11.8-62.7-2.5-74.5-31.9c-11.8-29.4,2.5-62.7,31.8-74.5
	C72.7,368.8,106,383.1,117.8,412.4z"></path>
<path class="st4 GlSwLNFE_7" d="M17.5,433.7A47.2,47.2 0,1,1 111.9,433.7A47.2,47.2 0,1,1 17.5,433.7"></path>
<path class="st5 GlSwLNFE_8" d="M83.2,390.4l-37.1,86.8c24,10.2,51.7-0.9,61.9-24.8C118.3,428.3,107.2,400.6,83.2,390.4z"></path>
<path class="st6 GlSwLNFE_9" d="M99.7,492.9l-18,7.2c-0.9,0.4-1.4,1.4-1,2.4l39.4,103l2.1,5.3c2.9,6.8,10.7,9.9,17.5,7c6.6-2.8,9.8-10.3,7.3-17
	l-2.1-5.3l-42.8-101.7C101.7,493,100.7,492.5,99.7,492.9C99.7,492.9,99.7,492.9,99.7,492.9z"></path>
<path class="st7 GlSwLNFE_10" d="M17.5,433.7A47.2,47.2 0,1,1 111.9,433.7A47.2,47.2 0,1,1 17.5,433.7"></path>
<path class="st8 GlSwLNFE_11" d="M59.6,321.4c-1.1,2.7-4.1,4-6.8,2.9l-19-7.6c-2.7-1.1-4-4.1-2.9-6.8c0,0,0,0,0,0l59.9-150
	c1.1-2.7,4.1-4,6.8-2.9c0,0,0,0,0,0l19,7.6c2.7,1.1,4,4.1,2.9,6.8L59.6,321.4z M106.4,170.3c0.6-1.5-0.1-3.1-1.6-3.7l0,0
	c-1.5-0.6-3.1,0.1-3.7,1.6l-0.3,0.7c-0.6,1.5,0.1,3.1,1.6,3.7l0,0c1.5,0.6,3.1-0.1,3.7-1.6L106.4,170.3z M102.9,178.9
	c0.6-1.5-0.1-3.1-1.6-3.7l0,0c-1.5-0.6-3.1,0.1-3.7,1.6l-0.3,0.7c-0.6,1.5,0.1,3.1,1.6,3.7l0,0c1.5,0.6,3.1-0.1,3.7-1.6L102.9,178.9
	z M99.5,187.5c0.6-1.5-0.1-3.1-1.6-3.7l0,0c-1.5-0.6-3.1,0.1-3.7,1.6l-0.3,0.7c-0.6,1.5,0.1,3.1,1.6,3.7l0,0
	c1.5,0.6,3.1-0.1,3.7-1.6L99.5,187.5z"></path>
<path class="st9 GlSwLNFE_12" d="M51,348.8c-1.1,2.7-4.1,4-6.8,2.9c0,0,0,0,0,0l-23-9.2c-2.7-1.1-4-4.1-2.9-6.8c0,0,0,0,0,0l8.5-21.4
	c1.1-2.7,4.1-4,6.8-2.9l23,9.2c2.7,1.1,4,4.1,2.9,6.8L51,348.8z M53.8,328.8c0.8-1.9-0.2-4.1-2.1-4.9c0,0,0,0,0,0L35,317.2
	c-1.9-0.8-4.1,0.2-4.9,2.1c0,0,0,0,0,0l-6,15.1c-0.8,1.9,0.2,4.1,2.1,4.9c0,0,0,0,0,0l16.7,6.7c1.9,0.8,4.1-0.2,4.9-2.1c0,0,0,0,0,0
	L53.8,328.8z"></path>
<path class="st9 GlSwLNFE_13" d="M36,345.2c-0.5,1.2-1.8,1.8-3,1.3l0,0c-1.2-0.5-1.8-1.8-1.3-3l6.2-15.5c0.5-1.2,1.8-1.8,3-1.3l0,0
	c1.2,0.5,1.8,1.8,1.3,3L36,345.2z"></path>
<path class="st8 GlSwLNFE_14" d="M44.2,246.4A28.7,28.7 0,1,1 101.60000000000001,246.4A28.7,28.7 0,1,1 44.2,246.4"></path>
<path class="st10 GlSwLNFE_15" d="M49.10000000000001,246.4A23.8,23.8 0,1,1 96.7,246.4A23.8,23.8 0,1,1 49.10000000000001,246.4"></path>
<path class="st11 GlSwLNFE_16" d="M99.3,235.1l-52.7,22.6c6.1,14.6,22.8,21.6,37.5,15.5c14.6-6.1,21.6-22.8,15.5-37.5
	C99.5,235.6,99.4,235.4,99.3,235.1z"></path>
<path class="st5 GlSwLNFE_17" d="M51,255.8c5.2,12.1,19.3,17.7,31.3,12.4S100,249,94.8,236.9C94.8,236.9,51,255.8,51,255.8z"></path>
<path class="st9 GlSwLNFE_18" d="M69.4,246.5A3.5,3.5 0,1,1 76.4,246.5A3.5,3.5 0,1,1 69.4,246.5"></path>
<path class="st12 GlSwLNFE_19" d="M49.10000000000001,246.4A23.8,23.8 0,1,1 96.7,246.4A23.8,23.8 0,1,1 49.10000000000001,246.4"></path>
<path class="st9 GlSwLNFE_20" d="M78.8,228.7A1.3,1.3 0,1,1 81.39999999999999,228.7A1.3,1.3 0,1,1 78.8,228.7"></path>
<path class="st9 GlSwLNFE_21" d="M53.800000000000004,239.3A1.3,1.3 0,1,1 56.4,239.3A1.3,1.3 0,1,1 53.800000000000004,239.3"></path>
<path class="st9 GlSwLNFE_22" d="M64.5,264.3A1.3,1.3 0,1,1 67.1,264.3A1.3,1.3 0,1,1 64.5,264.3"></path>
<path class="st9 GlSwLNFE_23" d="M89.5,253.6A1.3,1.3 0,1,1 92.1,253.6A1.3,1.3 0,1,1 89.5,253.6"></path>
<path class="st13 GlSwLNFE_24" d="M74.2,266.9L72.9,246.5L87.4,246.7"></path>
<style data-made-with="vivus-instant">.GlSwLNFE_0{stroke-dasharray:225 227;stroke-dashoffset:226;animation:GlSwLNFE_draw_0 6700ms linear 0ms infinite,GlSwLNFE_fade 6700ms linear 0ms infinite;}.GlSwLNFE_1{stroke-dasharray:219 221;stroke-dashoffset:220;animation:GlSwLNFE_draw_1 6700ms linear 0ms infinite,GlSwLNFE_fade 6700ms linear 0ms infinite;}.GlSwLNFE_2{stroke-dasharray:339 341;stroke-dashoffset:340;animation:GlSwLNFE_draw_2 6700ms linear 0ms infinite,GlSwLNFE_fade 6700ms linear 0ms infinite;}.GlSwLNFE_3{stroke-dasharray:339 341;stroke-dashoffset:340;animation:GlSwLNFE_draw_3 6700ms linear 0ms infinite,GlSwLNFE_fade 6700ms linear 0ms infinite;}.GlSwLNFE_4{stroke-dasharray:26 28;stroke-dashoffset:27;animation:GlSwLNFE_draw_4 6700ms linear 0ms infinite,GlSwLNFE_fade 6700ms linear 0ms infinite;}.GlSwLNFE_5{stroke-dasharray:60 62;stroke-dashoffset:61;animation:GlSwLNFE_draw_5 6700ms linear 0ms infinite,GlSwLNFE_fade 6700ms linear 0ms infinite;}.GlSwLNFE_6{stroke-dasharray:361 363;stroke-dashoffset:362;animation:GlSwLNFE_draw_6 6700ms linear 0ms infinite,GlSwLNFE_fade 6700ms linear 0ms infinite;}.GlSwLNFE_7{stroke-dasharray:297 299;stroke-dashoffset:298;animation:GlSwLNFE_draw_7 6700ms linear 0ms infinite,GlSwLNFE_fade 6700ms linear 0ms infinite;}.GlSwLNFE_8{stroke-dasharray:243 245;stroke-dashoffset:244;animation:GlSwLNFE_draw_8 6700ms linear 0ms infinite,GlSwLNFE_fade 6700ms linear 0ms infinite;}.GlSwLNFE_9{stroke-dasharray:299 301;stroke-dashoffset:300;animation:GlSwLNFE_draw_9 6700ms linear 0ms infinite,GlSwLNFE_fade 6700ms linear 0ms infinite;}.GlSwLNFE_10{stroke-dasharray:297 299;stroke-dashoffset:298;animation:GlSwLNFE_draw_10 6700ms linear 0ms infinite,GlSwLNFE_fade 6700ms linear 0ms infinite;}.GlSwLNFE_11{stroke-dasharray:456 458;stroke-dashoffset:457;animation:GlSwLNFE_draw_11 6700ms linear 0ms infinite,GlSwLNFE_fade 6700ms linear 0ms infinite;}.GlSwLNFE_12{stroke-dasharray:221 223;stroke-dashoffset:222;animation:GlSwLNFE_draw_12 6700ms linear 0ms infinite,GlSwLNFE_fade 6700ms linear 0ms infinite;}.GlSwLNFE_13{stroke-dasharray:48 50;stroke-dashoffset:49;animation:GlSwLNFE_draw_13 6700ms linear 0ms infinite,GlSwLNFE_fade 6700ms linear 0ms infinite;}.GlSwLNFE_14{stroke-dasharray:181 183;stroke-dashoffset:182;animation:GlSwLNFE_draw_14 6700ms linear 0ms infinite,GlSwLNFE_fade 6700ms linear 0ms infinite;}.GlSwLNFE_15{stroke-dasharray:150 152;stroke-dashoffset:151;animation:GlSwLNFE_draw_15 6700ms linear 0ms infinite,GlSwLNFE_fade 6700ms linear 0ms infinite;}.GlSwLNFE_16{stroke-dasharray:149 151;stroke-dashoffset:150;animation:GlSwLNFE_draw_16 6700ms linear 0ms infinite,GlSwLNFE_fade 6700ms linear 0ms infinite;}.GlSwLNFE_17{stroke-dasharray:123 125;stroke-dashoffset:124;animation:GlSwLNFE_draw_17 6700ms linear 0ms infinite,GlSwLNFE_fade 6700ms linear 0ms infinite;}.GlSwLNFE_18{stroke-dasharray:22 24;stroke-dashoffset:23;animation:GlSwLNFE_draw_18 6700ms linear 0ms infinite,GlSwLNFE_fade 6700ms linear 0ms infinite;}.GlSwLNFE_19{stroke-dasharray:150 152;stroke-dashoffset:151;animation:GlSwLNFE_draw_19 6700ms linear 0ms infinite,GlSwLNFE_fade 6700ms linear 0ms infinite;}.GlSwLNFE_20{stroke-dasharray:9 11;stroke-dashoffset:10;animation:GlSwLNFE_draw_20 6700ms linear 0ms infinite,GlSwLNFE_fade 6700ms linear 0ms infinite;}.GlSwLNFE_21{stroke-dasharray:9 11;stroke-dashoffset:10;animation:GlSwLNFE_draw_21 6700ms linear 0ms infinite,GlSwLNFE_fade 6700ms linear 0ms infinite;}.GlSwLNFE_22{stroke-dasharray:9 11;stroke-dashoffset:10;animation:GlSwLNFE_draw_22 6700ms linear 0ms infinite,GlSwLNFE_fade 6700ms linear 0ms infinite;}.GlSwLNFE_23{stroke-dasharray:9 11;stroke-dashoffset:10;animation:GlSwLNFE_draw_23 6700ms linear 0ms infinite,GlSwLNFE_fade 6700ms linear 0ms infinite;}.GlSwLNFE_24{stroke-dasharray:35 37;stroke-dashoffset:36;animation:GlSwLNFE_draw_24 6700ms linear 0ms infinite,GlSwLNFE_fade 6700ms linear 0ms infinite;}@keyframes GlSwLNFE_draw{100%{stroke-dashoffset:0;}}@keyframes GlSwLNFE_fade{0%{stroke-opacity:1;}94.02985074626866%{stroke-opacity:1;}100%{stroke-opacity:0;}}@keyframes GlSwLNFE_draw_0{4.477611940298507%{stroke-dashoffset: 226}34.32835820895522%{ stroke-dashoffset: 0;}100%{ stroke-dashoffset: 0;}}@keyframes GlSwLNFE_draw_1{5.099502487562189%{stroke-dashoffset: 220}34.950248756218905%{ stroke-dashoffset: 0;}100%{ stroke-dashoffset: 0;}}@keyframes GlSwLNFE_draw_2{5.72139303482587%{stroke-dashoffset: 340}35.572139303482594%{ stroke-dashoffset: 0;}100%{ stroke-dashoffset: 0;}}@keyframes GlSwLNFE_draw_3{6.343283582089552%{stroke-dashoffset: 340}36.19402985074627%{ stroke-dashoffset: 0;}100%{ stroke-dashoffset: 0;}}@keyframes GlSwLNFE_draw_4{6.965174129353232%{stroke-dashoffset: 27}36.81592039800995%{ stroke-dashoffset: 0;}100%{ stroke-dashoffset: 0;}}@keyframes GlSwLNFE_draw_5{7.587064676616915%{stroke-dashoffset: 61}37.43781094527364%{ stroke-dashoffset: 0;}100%{ stroke-dashoffset: 0;}}@keyframes GlSwLNFE_draw_6{8.208955223880597%{stroke-dashoffset: 362}38.059701492537314%{ stroke-dashoffset: 0;}100%{ stroke-dashoffset: 0;}}@keyframes GlSwLNFE_draw_7{8.83084577114428%{stroke-dashoffset: 298}38.681592039801%{ stroke-dashoffset: 0;}100%{ stroke-dashoffset: 0;}}@keyframes GlSwLNFE_draw_8{9.45273631840796%{stroke-dashoffset: 244}39.30348258706467%{ stroke-dashoffset: 0;}100%{ stroke-dashoffset: 0;}}@keyframes GlSwLNFE_draw_9{10.074626865671641%{stroke-dashoffset: 300}39.92537313432835%{ stroke-dashoffset: 0;}100%{ stroke-dashoffset: 0;}}@keyframes GlSwLNFE_draw_10{10.696517412935323%{stroke-dashoffset: 298}40.547263681592035%{ stroke-dashoffset: 0;}100%{ stroke-dashoffset: 0;}}@keyframes GlSwLNFE_draw_11{11.318407960199004%{stroke-dashoffset: 457}41.16915422885572%{ stroke-dashoffset: 0;}100%{ stroke-dashoffset: 0;}}@keyframes GlSwLNFE_draw_12{11.940298507462686%{stroke-dashoffset: 222}41.7910447761194%{ stroke-dashoffset: 0;}100%{ stroke-dashoffset: 0;}}@keyframes GlSwLNFE_draw_13{12.562189054726366%{stroke-dashoffset: 49}42.41293532338308%{ stroke-dashoffset: 0;}100%{ stroke-dashoffset: 0;}}@keyframes GlSwLNFE_draw_14{13.184079601990048%{stroke-dashoffset: 182}43.034825870646756%{ stroke-dashoffset: 0;}100%{ stroke-dashoffset: 0;}}@keyframes GlSwLNFE_draw_15{13.805970149253731%{stroke-dashoffset: 151}43.656716417910445%{ stroke-dashoffset: 0;}100%{ stroke-dashoffset: 0;}}@keyframes GlSwLNFE_draw_16{14.427860696517412%{stroke-dashoffset: 150}44.27860696517413%{ stroke-dashoffset: 0;}100%{ stroke-dashoffset: 0;}}@keyframes GlSwLNFE_draw_17{15.049751243781092%{stroke-dashoffset: 124}44.90049751243781%{ stroke-dashoffset: 0;}100%{ stroke-dashoffset: 0;}}@keyframes GlSwLNFE_draw_18{15.671641791044777%{stroke-dashoffset: 23}45.52238805970149%{ stroke-dashoffset: 0;}100%{ stroke-dashoffset: 0;}}@keyframes GlSwLNFE_draw_19{16.293532338308456%{stroke-dashoffset: 151}46.14427860696517%{ stroke-dashoffset: 0;}100%{ stroke-dashoffset: 0;}}@keyframes GlSwLNFE_draw_20{16.915422885572138%{stroke-dashoffset: 10}46.766169154228855%{ stroke-dashoffset: 0;}100%{ stroke-dashoffset: 0;}}@keyframes GlSwLNFE_draw_21{17.537313432835823%{stroke-dashoffset: 10}47.38805970149254%{ stroke-dashoffset: 0;}100%{ stroke-dashoffset: 0;}}@keyframes GlSwLNFE_draw_22{18.1592039800995%{stroke-dashoffset: 10}48.00995024875622%{ stroke-dashoffset: 0;}100%{ stroke-dashoffset: 0;}}@keyframes GlSwLNFE_draw_23{18.78109452736318%{stroke-dashoffset: 10}48.6318407960199%{ stroke-dashoffset: 0;}100%{ stroke-dashoffset: 0;}}@keyframes GlSwLNFE_draw_24{19.402985074626866%{stroke-dashoffset: 36}49.25373134328358%{ stroke-dashoffset: 0;}100%{ stroke-dashoffset: 0;}}
.siccor{
animation: float 3s ease-in-out infinite;
}
@keyframes float {
	0% {
		transform: translatey(0px);
	}
	50% {
		transform: translatey(10px);
	}
	100% {
		transform: translatey(0px);
	}
}
</style>

</svg>
