<svg id="Layer_1" data-name="Layer 1" xmlns="http://www.w3.org/2000/svg" viewBox="0 0 463.53 399.63"><defs><style>.cls-1{opacity:0.5;}.cls-2{fill:#ecaf47;}.cls-11,.cls-2{opacity:0.28;}.cls-3{fill:none;stroke:#c5c8ca;stroke-miterlimit:10;}.cls-4{fill:#403f40;}.cls-5{fill:#c5c8ca;}.cls-6{fill:#ec8d22;}.cls-7{fill:#e97a26;}.cls-10,.cls-18,.cls-8{fill:#fff;}.cls-8{opacity:0.43;}.cls-9{fill:#1c3f75;}.cls-11,.cls-13{fill:#c3e5f1;}.cls-12{fill:#397cbe;}.cls-14{opacity:0.49;}.cls-15{fill:#f07b22;}.cls-16{fill:#d7e4f5;}.cls-17{fill:#9ed2ab;}.cls-18{opacity:0.7;}.cls-19{fill:#b3dcb9;}.cls-20{fill:#f79923;}</style></defs><title>IT</title><g class="cls-1"><path class="cls-2" d="M61.75,539.57c-7.16-36,32.07-38.53,31.07-53.67-.17-2.57-49.57-42-9.26-89.79,37.77-44.76,81.2-15.24,86.54-11.33a.2.2,0,0,0,.31-.23c-2.39-6.69-21.84-63.82.83-91.53,26.84-32.8,61.44-17.29,77.07-18.36,25.29-1.72,40.5-63.63,115.17-48.75,109.43,21.81,60,124.31,60,124.31s64.95-42.31,91.31,16.65c24.24,54.22,2.63,106.08-65.11,118a14.4,14.4,0,0,0-11.86,12c-1.93,13.29-.78,30.55-26.48,58.36-33.17,35.89-140.68,24.88-140.68,24.88s-42.41-16.86-87.2-.68C146.54,592.8,71.19,586.95,61.75,539.57Z" transform="translate(-60.88 -222.04)"/><path class="cls-2" d="M211.39,248a8.25,8.25,0,0,0,1.73,7.27,18,18,0,0,0,6.18,4.61c8,4,17.33,5.67,26,3.63s16.62-8,20.22-16.16c1.08-2.46,1.74-5.42.39-7.74a7.88,7.88,0,0,0-2.44-2.44c-9.26-6.37-20.33-2.11-30.27-.45C225.95,238,213.93,239.53,211.39,248Z" transform="translate(-60.88 -222.04)"/><path class="cls-2" d="M288.95,224.16a3.67,3.67,0,0,0-1-1.48,3.25,3.25,0,0,0-1.69-.6c-3.06-.32-5.89,1.66-8,3.93-1.4,1.52-2.62,3.22-4,4.72-.8.32-1.61.62-2.38,1-1.55.8-3,2.27-2.89,4s1.76,3,3.37,3.67a13.12,13.12,0,0,0,13.53-2.1A11.88,11.88,0,0,0,288.95,224.16Z" transform="translate(-60.88 -222.04)"/><path class="cls-2" d="M443.9,302.37C440.74,319.81,434,339,449.61,328c42.19-29.67,3.08-80.88-2.63-60.89-1.84,6.44,4.78,17.23-3.08,35.27" transform="translate(-60.88 -222.04)"/><path class="cls-2" d="M428.72,248.6c1.23.79,2.76.95,4.07,1.58,1.52.73,2.66,2,4,3s3.15,1.73,4.7,1.06c2.19-1,2.45-3.91,2.37-6.3-.2-5.86-8-14.3-14.47-13.46C421.33,235.58,423.5,245.25,428.72,248.6Z" transform="translate(-60.88 -222.04)"/></g><path class="cls-3" d="M273.29,561.85c-52.72,35.75-171.3,45.43-162.73-38.29,6.95-67.88,95.39-28,50-19.92-29.47,5.22-47.14-68-30.67-101.72,35-71.85,94.25-99.1,203.76-94.81,58.83,2.31,90.88,27.13,116.84,42,11,6.3,52.48,50.39,62.21,86.62,14.33,53.36-25.43,82.15-44.53,81.66" transform="translate(-60.88 -222.04)"/><path class="cls-4" d="M175.26,340.4S141.49,371,145.63,373.22s20,14.89,22.1,11.41,13.48-43.13,11.54-45C178.13,338.48,175.26,340.4,175.26,340.4Z" transform="translate(-60.88 -222.04)"/><path class="cls-4" d="M176.48,339.73s-53.74,25.57-59.69,30.15c-5.63,4.34.14.71,7.38.13a25.34,25.34,0,0,1,12,1.7l34-25.45Z" transform="translate(-60.88 -222.04)"/><polygon class="cls-5" points="72.76 148.79 79.62 161.76 84.36 150.41 116.8 118.18 72.76 148.79"/><polygon class="cls-5" points="79.62 161.76 89.65 154.4 84.36 150.41 79.98 160.77 79.62 161.76"/><path class="cls-4" d="M334.32,363c-1-1.15-4.29,0-5.74.45a.57.57,0,0,1-.75-.44c-.38-2.22-2.49-4.8-3.26-5.69a.37.37,0,0,1,.07-.55c.94-.66,3.43-2.51,3.43-3.68,0-1.44-6-5.22-10.62-5.12-1.28,0-1,3.88-1.17,5.25a.37.37,0,0,1-.48.31,12.82,12.82,0,0,0-7.58.35,1.07,1.07,0,0,1-1.42-1c0-1.81-1.74-3.79-3.66-3.15-2.88,1-8.48,5.66-7,7.52a18.46,18.46,0,0,0,2.65,2.34,1.06,1.06,0,0,1,.27,1.36,13.15,13.15,0,0,0-1.3,3.44,14,14,0,0,0-.23,2.69,2,2,0,0,1-1.56,1.94c-1.34.31-3.12.84-3.69,1.51-1,1.12,1.6,8.8,3,10.72s5.6-1.44,5.44-1.28c2.24,3,7.36,4,9.6,3.84,1.43-.1,1.24,1.58,1.42,3.3a2,2,0,0,0,1.69,1.68,8.46,8.46,0,0,0,4-.4c2.48-.77,5.4-2.4,4.95-3.44-.14-.32-.36-.81-.6-1.27a1.45,1.45,0,0,1,.5-1.91c3.45-2.12,5-6.52,5.54-8.17a.57.57,0,0,1,.77-.38,10.91,10.91,0,0,0,4.26.94C334.89,374,335.27,364,334.32,363ZM313.41,374.3a5.88,5.88,0,1,1,5.88-5.88A5.88,5.88,0,0,1,313.41,374.3Z" transform="translate(-60.88 -222.04)"/><path class="cls-5" d="M352.31,360.31c.33-1.07-1.62-2.69-2.49-3.4a.42.42,0,0,1,0-.64,10.47,10.47,0,0,0,2.29-4.22.27.27,0,0,1,.37-.17c.77.33,3.8.43,4.09-.37.43-1.19.29-4.39-.88-7.05-.37-.86-3.32.41-4.21.86a.27.27,0,0,1-.38-.18,9.38,9.38,0,0,0-3.13-4.59.83.83,0,0,1,.07-1.27c1.88-1.92,1.69-2.54.55-3.49-1.7-1.42-6.78-3.11-7.39-1.49,0,0-.36,1.77-.44,2.55a.77.77,0,0,1-.74.69,9.63,9.63,0,0,0-2.64.51,10.22,10.22,0,0,0-1.76.89,1.48,1.48,0,0,1-1.81-.22,6.29,6.29,0,0,0-2.36-1.72c-1.07-.17-5.41,4.26-5.51,6-.07,1.45,3,2.93,2.89,2.89-1,2.56.34,6.12,1.3,7.45.61.85-.51,1.38-1.51,2.15a1.44,1.44,0,0,0-.4,1.7,6.19,6.19,0,0,0,1.77,2.32c1.43,1.25,3.57,2.44,4,1.75.15-.21.37-.54.56-.86A1.06,1.06,0,0,1,336,360c2.65,1.33,6,.63,7.21.31a.41.41,0,0,1,.53.34,8,8,0,0,0,1.05,3C345.66,364.9,352,361.31,352.31,360.31Zm-15.09-8.66a4.3,4.3,0,1,1,5.92,1.4A4.3,4.3,0,0,1,337.21,351.65Z" transform="translate(-60.88 -222.04)"/><path class="cls-6" d="M420.68,402.05s11.74,4.72,16.7,6.07,45.59-29,23.32-48.75c-20.51-18.19-39.3-5.16-42.67,8.39S420.68,402.05,420.68,402.05Z" transform="translate(-60.88 -222.04)"/><path class="cls-7" d="M420.68,402.05s-10.18,18.82,1.41,23.47C433,429.9,438.77,408,438.77,408Z" transform="translate(-60.88 -222.04)"/><path class="cls-6" d="M419.48,424.26s-2,2.28,1.52,4,4.35-2.2,4.35-2.2S424.34,426.37,419.48,424.26Z" transform="translate(-60.88 -222.04)"/><path class="cls-8" d="M435.27,406.25c-3.14,5.14,10.47-23.7,13.85-25.54S438.3,401.3,435.27,406.25Z" transform="translate(-60.88 -222.04)"/><path class="cls-8" d="M425.33,403.57c-.17,3.33,6.25-25.91,5-29.39S425.61,398,425.33,403.57Z" transform="translate(-60.88 -222.04)"/><path class="cls-7" d="M429.62,375.76l.33-1a11.5,11.5,0,0,0,4.11-.07,13.22,13.22,0,0,1-.07-4.55c.31-2.19,1.21-3.7,2.49-4.15a2.3,2.3,0,0,1,2.37.53c1.07,1,1.39,2.77.84,4.73a5.66,5.66,0,0,1-3,3.6,8.17,8.17,0,0,1-1.41.57,5.69,5.69,0,0,0,1.19,2,6.61,6.61,0,0,0,5.49,1.8,6.84,6.84,0,0,0,2.65-.79c-.49-3.21.27-7.47,2.21-8.77a2.2,2.2,0,0,1,2.47,0,2.89,2.89,0,0,1,1.15,3.43,10.68,10.68,0,0,1-4.71,5.86c.3,1.34,1,3.17,2.7,3.63l-.27,1c-1.62-.45-2.79-1.89-3.35-4.1a7.68,7.68,0,0,1-2.79.77,7.58,7.58,0,0,1-6.3-2.12,6.72,6.72,0,0,1-1.43-2.46A12.14,12.14,0,0,1,429.62,375.76Zm8.17-8.7a1.22,1.22,0,0,0-1-.06c-.89.32-1.57,1.56-1.82,3.34a12.27,12.27,0,0,0,0,4.17,7.14,7.14,0,0,0,1.26-.52,4.67,4.67,0,0,0,2.41-2.94c.52-1.87.05-3.15-.56-3.72A1.57,1.57,0,0,0,437.8,367.05Zm10.85,3.45a1.13,1.13,0,0,0-1.23.06c-1.36.92-2.19,4.33-1.83,7.38a9.55,9.55,0,0,0,3.91-5,1.92,1.92,0,0,0-.7-2.33Z" transform="translate(-60.88 -222.04)"/><path class="cls-9" d="M171.24,621.59a0,0,0,0,0,0,.09A0,0,0,0,0,171.24,621.59Z" transform="translate(-60.88 -222.04)"/><path class="cls-10" d="M449.35,561.26a.13.13,0,0,0,0,.25A.13.13,0,0,0,449.35,561.26Z" transform="translate(-60.88 -222.04)"/><path class="cls-4" d="M162.94,444.43s5,17.26,9.33,18.55c3.07.9,6.26-.78,7.88-1.87a1.8,1.8,0,0,0,.73-2l-4.61-15.46S168.14,444.47,162.94,444.43Z" transform="translate(-60.88 -222.04)"/><path class="cls-7" d="M204.31,408.29c-.85-2.57-5-11.67-6.66-11.1-3.28,9.87,1.57,28.63,13.41,45.95.18-.1.36-.2.52-.31C216.26,439,207,416.43,204.31,408.29Z" transform="translate(-60.88 -222.04)"/><path class="cls-4" d="M155.21,429.67l-.05,0c-5.61,2.63-5,14.11,5,15.65A74,74,0,0,1,155.21,429.67Z" transform="translate(-60.88 -222.04)"/><path class="cls-6" d="M197.65,397.18c-10,3.39-29.78,20-39.34,30.13a10.63,10.63,0,0,1-3.1,2.35,74,74,0,0,0,4.91,15.68,17.38,17.38,0,0,0,5.27-.06c10.62-1.61,37.3,2.33,46.18-2.32C198.75,426,195.63,405,197.65,397.18Z" transform="translate(-60.88 -222.04)"/><path class="cls-6" d="M203.47,416.57c0,2.63,1.93,7.62,2.46,7.58,5.15-.52,22,0,15-13.77C216,400.67,207.82,413.23,203.47,416.57Z" transform="translate(-60.88 -222.04)"/><path class="cls-6" d="M178,449.41s1.67-1.77,2.82-1.14-.49,9-.78,8Z" transform="translate(-60.88 -222.04)"/><path class="cls-10" d="M178.26,412.32c-7.17,4.75-13.61,11.08-19.57,17.24-.33.34.15.87.49.54,3.13-3,6.3-6,9.55-8.83s6.69-5.53,9.85-8.49C178.81,412.58,178.54,412.14,178.26,412.32Z" transform="translate(-60.88 -222.04)"/><path class="cls-10" d="M182.82,409.54a2.73,2.73,0,0,0-1.5.41c-.46.25-1,.57-1,1.13a.16.16,0,0,0,.15.17c.48,0,.74-.36,1.12-.62s.88-.41,1.29-.66A.23.23,0,0,0,182.82,409.54Z" transform="translate(-60.88 -222.04)"/><path class="cls-4" d="M441.8,512.79s6.66,18.14,25.42,12.07,15.64-23.08,13.76-27.62S471,482,455.64,486.6,439.48,506.28,441.8,512.79Z" transform="translate(-60.88 -222.04)"/><path class="cls-5" d="M447.59,510.72s4.71,12.85,18,8.55,11.07-16.34,9.74-19.56-7.08-10.76-17.94-7.53S445.94,506.11,447.59,510.72Z" transform="translate(-60.88 -222.04)"/><path class="cls-4" d="M463.66,525.76s-2,11.41-1,20.16S472,564.74,480.87,559c8.68-5.61,2.31-17.59-.28-22.4-3.3-6.13-10.49-15.68-10.49-15.68Z" transform="translate(-60.88 -222.04)"/><path class="cls-11" d="M464.58,535.85A59,59,0,0,0,466,549.41a.16.16,0,0,0,.31-.07c-.56-4.48-1.15-9-1.32-13.47C465,535.61,464.58,535.59,464.58,535.85Z" transform="translate(-60.88 -222.04)"/><path class="cls-11" d="M464.39,529.94a3.52,3.52,0,0,0,.37,2.25.23.23,0,0,0,.43-.16,12.35,12.35,0,0,1-.11-2.05A.35.35,0,0,0,464.39,529.94Z" transform="translate(-60.88 -222.04)"/><path class="cls-12" d="M439.87,493.06a20.9,20.9,0,0,0-1.93,17.83.23.23,0,0,0,.46-.1c-1-6-1.44-12,1.87-17.48A.23.23,0,0,0,439.87,493.06Z" transform="translate(-60.88 -222.04)"/><path class="cls-12" d="M444.56,487.66a6.26,6.26,0,0,0-2.9,3.39.24.24,0,0,0,.38.24c.52-.54.91-1.18,1.4-1.75s1-1,1.43-1.55C445,487.8,444.76,487.57,444.56,487.66Z" transform="translate(-60.88 -222.04)"/><path class="cls-13" d="M450.58,499.62a8.25,8.25,0,0,0-.33,9.05c.15.23.62.12.5-.19a10.67,10.67,0,0,1,.24-8.67C451.12,499.56,450.73,499.43,450.58,499.62Z" transform="translate(-60.88 -222.04)"/><path class="cls-13" d="M452.69,496.71c-.29-.21-.71.08-.93.27a2,2,0,0,0-.64,1,.37.37,0,0,0,.66.31c.12-.16.23-.34.36-.5s.3-.28.44-.43S452.94,496.89,452.69,496.71Z" transform="translate(-60.88 -222.04)"/><path class="cls-13" d="M479.16,510.62a14,14,0,0,1-4.29,7.17c-.2.19,0,.57.29.4a11.18,11.18,0,0,0,4.51-7.48C479.71,510.42,479.22,510.33,479.16,510.62Z" transform="translate(-60.88 -222.04)"/><path class="cls-9" d="M486.77,572.74s.23,5.89-4.6,6.94-7.42-1.69-7.62-5.36S486.77,572.74,486.77,572.74Z" transform="translate(-60.88 -222.04)"/><polygon class="cls-6" points="413.67 352.28 425.89 350.7 425.53 344.47 413.31 345.63 413.67 352.28"/><polygon class="cls-6" points="408.92 263.89 413.31 345.63 425.53 344.47 420.84 263.48 408.92 263.89"/><g class="cls-14"><path class="cls-10" d="M483.52,564.32c-.32-3.17-.57-6.34-.85-9.51l-.73-9.51c-.48-6.34-.85-12.69-1.28-19s-.72-12.7-1-19.05l-.41-9.53c-.1-3.18-.23-6.36-.29-9.54.32,3.17.57,6.34.86,9.51l.73,9.51c.47,6.34.85,12.69,1.28,19s.73,12.7,1,19.05l.41,9.53C483.32,558,483.46,561.14,483.52,564.32Z" transform="translate(-60.88 -222.04)"/></g><g class="cls-14"><path class="cls-10" d="M479,564c-.32-3.17-.57-6.34-.85-9.51l-.73-9.51c-.48-6.34-.85-12.69-1.28-19s-.72-12.7-1-19.05l-.41-9.53c-.1-3.18-.23-6.36-.29-9.54.32,3.17.57,6.34.86,9.51l.73,9.51c.47,6.34.85,12.69,1.28,19s.73,12.7,1,19.05l.41,9.53C478.78,557.69,478.91,560.87,479,564Z" transform="translate(-60.88 -222.04)"/></g><path class="cls-9" d="M476.56,476l-2.12-3.91L473,476.36A8,8,0,0,0,476.56,476Z" transform="translate(-60.88 -222.04)"/><path class="cls-10" d="M481.72,485.52,476.56,476a8,8,0,0,1-3.55.36l-3.21,9.57Z" transform="translate(-60.88 -222.04)"/><path class="cls-4" d="M492.37,509.32s-9.45-7.9-4.38-14.45c4.61-6,15.78-8.25,14.76-11.57-.74-2.42-5.18-.51-7.06.85,0,0-.24-2.12,2.05-4.73s8.69-4,12.5-.74c8.44,7.15,0,27.77-6.27,30.93a12.68,12.68,0,0,1-6.41,1.25l-2.87,1.1Z" transform="translate(-60.88 -222.04)"/><path class="cls-6" d="M474.81,581.94a14,14,0,0,0,5.21,1.39.78.78,0,0,0,.81-.63l1.4-6.1-7.32-1.12-1,4.24A2,2,0,0,0,474.81,581.94Z" transform="translate(-60.88 -222.04)"/><path class="cls-15" d="M489.95,518.49l-15,57,7,2.3,13.36-57.3A7.39,7.39,0,0,1,489.95,518.49Z" transform="translate(-60.88 -222.04)"/><path class="cls-6" d="M492.39,509.33h0l-2.42,9.17a7.39,7.39,0,0,0,5.37,2l2.24-9.62A8.86,8.86,0,0,1,492.39,509.33Z" transform="translate(-60.88 -222.04)"/><path class="cls-6" d="M492.24,581l8.36-40.55a1.57,1.57,0,0,0-1.48-1.89c-9.16-.35-49.08-1.67-46.25,2.23,0,0,4.35,25.88,8,40.17,3.44.45,8.21.84,14.83,1.06A83.24,83.24,0,0,0,492.24,581Z" transform="translate(-60.88 -222.04)"/><path class="cls-15" d="M475.68,582c-6.61-.22-11.38-.61-14.83-1.06,1.34,5.29,2.59,9,3.47,9.21,2.55.6,16.8.67,23,.67A3.54,3.54,0,0,0,490.8,588l1.44-7A83.24,83.24,0,0,1,475.68,582Z" transform="translate(-60.88 -222.04)"/><path class="cls-4" d="M233.7,439.56s-4.6,113.41,5.89,120.94,170,6.56,174.11,0,4.55-105.93,2.77-113-.59-20.58-26.91-20.58c-20.34,0-104.46-4.16-141.17-.83C237.42,427.06,234.14,434.16,233.7,439.56Z" transform="translate(-60.88 -222.04)"/><path class="cls-5" d="M239.39,443s-6,103.84,3.82,110.9S401.6,556.67,408.55,556c7.23-.65,3.89-98.93,2.22-105.61s-.56-19.29-25.23-19.29c-19.07,0-98-3.9-132.38-.77C242.88,431.31,239.8,438,239.39,443Z" transform="translate(-60.88 -222.04)"/><path class="cls-5" d="M302.38,475a9.28,9.28,0,0,0-7.92,6.85c-.95,3.62-1.34,9.11-1,17.3.8,20.8,17.5,18.75,31.82,18.41s22.84.11,22.84-18.41,1.48-26.94-16.48-26.37C319.71,473.17,308.54,474.3,302.38,475Z" transform="translate(-60.88 -222.04)"/><path class="cls-4" d="M302.38,474.75a9,9,0,0,0-7.92,6c-.95,3.18-1.34,8-1,15.23.8,18.31,17.5,16.51,31.82,16.21s22.84.1,22.84-16.21,1.48-23.72-16.48-23.22C319.71,473.12,308.55,474.12,302.38,474.75Z" transform="translate(-60.88 -222.04)"/><path class="cls-8" d="M311.17,485.45s-2.51,17.84,1.7,18.07,20.34-5,20.8-9S311.91,474.43,311.17,485.45Z" transform="translate(-60.88 -222.04)"/><path class="cls-4" d="M318.33,580.82s80.64,1,86.46,1c10.18,0,26.91-13.26,26.91-20.38,0-2.11-99.72,0-99.72,0s-122.47-.4-122.47.79,11.81,19,34.43,18.8C258.38,580.86,318.33,580.82,318.33,580.82Z" transform="translate(-60.88 -222.04)"/><path class="cls-5" d="M311.37,562.51s-3,6.83,10.43,6.83,11.06-6.83,11.06-6.83H311.37" transform="translate(-60.88 -222.04)"/><path class="cls-7" d="M169.57,496.6c-1.82,4.63,4.56,89,4.86,91.54.14,1.18,1.75,3.76,4.19,3.09,5.8-1.6,12.72-1.56,15.8-.37,3.43,1.33,5.66-4.38,5.39-9-.85-14.91,1.32-93.63-10.26-88.12-4.69,2.23-8.83,6.27-15.9,1.88A2.7,2.7,0,0,0,169.57,496.6Z" transform="translate(-60.88 -222.04)"/><path class="cls-16" d="M173.64,495.58l6.78,95.22c5.39-1.29,8.78-.78,15.54.19l-6.41-97.29C188.27,494.35,179.9,499.16,173.64,495.58Z" transform="translate(-60.88 -222.04)"/><path class="cls-10" d="M185.63,497.71c.75,7.67,1.34,15.34,1.9,23s1,15.36,1.5,23,.83,15.37,1.15,23.06l.45,11.54c.09,3.85.24,7.7.29,11.55-.39-3.83-.69-7.67-1-11.5L189,566.9c-.56-7.68-1-15.36-1.49-23s-.83-15.37-1.14-23.06S185.76,505.41,185.63,497.71Z" transform="translate(-60.88 -222.04)"/><path class="cls-10" d="M181.76,497.93c.75,7.67,1.34,15.34,1.9,23s1,15.36,1.5,23,.83,15.37,1.15,23.06l.45,11.54c.09,3.85.24,7.7.29,11.55-.39-3.83-.69-7.67-1-11.5l-.87-11.51c-.56-7.68-1-15.36-1.49-23s-.83-15.37-1.14-23.06S181.88,505.63,181.76,497.93Z" transform="translate(-60.88 -222.04)"/><path class="cls-10" d="M177.88,498.15c.75,7.67,1.34,15.34,1.9,23s1,15.36,1.5,23,.83,15.37,1.15,23.06l.45,11.54c.09,3.85.24,7.7.29,11.55-.39-3.83-.69-7.67-1-11.5l-.87-11.51c-.56-7.68-1-15.36-1.49-23s-.83-15.37-1.14-23.06S178,505.85,177.88,498.15Z" transform="translate(-60.88 -222.04)"/><path class="cls-17" d="M149.74,514.43l-17.18,1,4.37,76.37,17.13-1a1.42,1.42,0,0,0,1.34-1.5c-.53-9.45-3.57-63.11-4.16-73.53A1.42,1.42,0,0,0,149.74,514.43Z" transform="translate(-60.88 -222.04)"/><path class="cls-18" d="M132.91,521.67l.32,5.64,18.6-1.07-.4-7Z" transform="translate(-60.88 -222.04)"/><path class="cls-19" d="M147.78,531.11s-8.94-.07-9.25.53,2.48,56.69,3.27,57,8.25-.08,9.26-.53C152.52,587.47,149.46,531.69,147.78,531.11Z" transform="translate(-60.88 -222.04)"/><path class="cls-4" d="M168.87,589.28l-8.7.5a5.08,5.08,0,0,1-5.36-4.78l-3.42-59.66c-.16-2.79,1.53-3.91,4.31-4.09,5.4-.33,13.73-1.61,14.49,1.14,1,3.71,3.9,46.32,3.46,62A5.07,5.07,0,0,1,168.87,589.28Z" transform="translate(-60.88 -222.04)"/><path class="cls-5" d="M167.57,523.85c-1.07-.93-12.89-.56-13.59,2.07-.34,1.27,2.11,57.19,3.5,59.71,1.19,2.16,13.71,1.4,14-.42S167.57,523.85,167.57,523.85Z" transform="translate(-60.88 -222.04)"/><path class="cls-6" d="M234.31,518a94.31,94.31,0,0,1-12.18-.27,1.89,1.89,0,0,0-.32.62l-1,2.94c2-.64,27.1-1,27.1-1a10,10,0,0,0-1.26-3.26C243.81,517.39,239.38,517.83,234.31,518Z" transform="translate(-60.88 -222.04)"/><path class="cls-20" d="M234.31,518c5.07-.18,9.5-.61,12.3-.94a1.75,1.75,0,0,0-.82-.68c-1.21-.38-17.85.31-22.48.66a1.65,1.65,0,0,0-1.18.68A94.31,94.31,0,0,0,234.31,518Z" transform="translate(-60.88 -222.04)"/><path class="cls-6" d="M218.8,524.4s4.06,36.83,9.69,37.09c6.86.32,14,.13,16.9,0s5-38.12,4.38-38.76C247.64,520.66,218.93,521.52,218.8,524.4Z" transform="translate(-60.88 -222.04)"/><path class="cls-7" d="M218.79,522.82s-1.13-2.74,5.21-3c7.81-.34,20.29-1.22,23.33-.84,2.54.31,2.44,3.75,2.44,3.75l-31,1.7Z" transform="translate(-60.88 -222.04)"/><path class="cls-7" d="M224.75,514.15l.25,3,2.8-.38-1.12-3.22H225.3A.55.55,0,0,0,224.75,514.15Z" transform="translate(-60.88 -222.04)"/><path class="cls-10" d="M223.2,532.6c0-.17-.28-.09-.25.07a160.76,160.76,0,0,0,5.84,24.73.13.13,0,0,0,.26-.07C227.15,549.08,224.49,541,223.2,532.6Z" transform="translate(-60.88 -222.04)"/><path class="cls-10" d="M226.06,520.33a17.63,17.63,0,0,0-4.61,1.14.2.2,0,0,0,.11.38,43.58,43.58,0,0,0,4.58-1C226.41,520.76,226.38,520.32,226.06,520.33Z" transform="translate(-60.88 -222.04)"/><path class="cls-10" d="M222.71,528.75c0-.19-.36-.15-.34,0a10.82,10.82,0,0,0,.42,2.55.17.17,0,0,0,.34,0A10.72,10.72,0,0,0,222.71,528.75Z" transform="translate(-60.88 -222.04)"/><path class="cls-10" d="M220.13,521.9a.38.38,0,0,0-.22,0c-.34.12,0,.61.21.36a.49.49,0,0,0,.14-.21C220.3,522,220.21,521.91,220.13,521.9Z" transform="translate(-60.88 -222.04)"/><path class="cls-7" d="M218.24,519.88c-2.16,1-1.56,4.08-.84,5.79.1.23.42.06.38-.16-.33-2-.77-3.65.7-5.31A.2.2,0,0,0,218.24,519.88Z" transform="translate(-60.88 -222.04)"/><path class="cls-7" d="M251.32,534.33c0-.26-.4-.28-.4,0a64.67,64.67,0,0,1-1.05,9.72c0,.24.35.31.42.08A31.36,31.36,0,0,0,251.32,534.33Z" transform="translate(-60.88 -222.04)"/><path class="cls-7" d="M251.24,530.69a.18.18,0,0,0-.34,0,2.61,2.61,0,0,0-.1,1.46.21.21,0,0,0,.41,0A2.61,2.61,0,0,0,251.24,530.69Z" transform="translate(-60.88 -222.04)"/></svg>